ISO-10303-21;
HEADER;
FILE_DESCRIPTION(('FreeCAD Model'),'2;1');
FILE_NAME('Open CASCADE Shape Model','2026-09-23T17:39:04',('FreeCAD'),(
    'FreeCAD'),'Open CASCADE STEP processor 7.8','FreeCAD','Unknown');
FILE_SCHEMA(('AUTOMOTIVE_DESIGN { 1 0 10303 214 1 1 1 1 }'));
ENDSEC;
DATA;
#1 = APPLICATION_PROTOCOL_DEFINITION('international standard',
  'automotive_design',2000,#2);
#2 = APPLICATION_CONTEXT(
  'core data for automotive mechanical design processes');
#3 = SHAPE_DEFINITION_REPRESENTATION(#4,#10);
#4 = PRODUCT_DEFINITION_SHAPE('','',#5);
#5 = PRODUCT_DEFINITION('design','',#6,#9);
#6 = PRODUCT_DEFINITION_FORMATION('','',#7);
#7 = PRODUCT('Open CASCADE STEP translator 7.8 1',
  'Open CASCADE STEP translator 7.8 1','',(#8));
#8 = PRODUCT_CONTEXT('',#2,'mechanical');
#9 = PRODUCT_DEFINITION_CONTEXT('part definition',#2,'design');
#10 = ADVANCED_BREP_SHAPE_REPRESENTATION('',(#11,#15),#1367);
#11 = AXIS2_PLACEMENT_3D('',#12,#13,#14);
#12 = CARTESIAN_POINT('',(0.,0.,0.));
#13 = DIRECTION('',(0.,0.,1.));
#14 = DIRECTION('',(1.,0.,-0.));
#15 = MANIFOLD_SOLID_BREP('',#16);
#16 = CLOSED_SHELL('',(#17,#57,#80,#111,#134,#165,#189,#213,#237,#270,
    #301,#325,#342,#369,#380,#397,#422,#453,#478,#489,#506,#530,#563,
    #587,#604,#629,#660,#685,#702,#726,#757,#781,#798,#822,#855,#879,
    #896,#921,#952,#977,#994,#1018,#1051,#1075,#1092,#1117,#1150,#1175,
    #1192,#1217,#1248,#1273,#1290,#1314,#1338,#1355));
#17 = ADVANCED_FACE('',(#18),#52,.F.);
#18 = FACE_BOUND('',#19,.F.);
#19 = EDGE_LOOP('',(#20,#30,#38,#46));
#20 = ORIENTED_EDGE('',*,*,#21,.F.);
#21 = EDGE_CURVE('',#22,#24,#26,.T.);
#22 = VERTEX_POINT('',#23);
#23 = CARTESIAN_POINT('',(29.,17.1005,9.98));
#24 = VERTEX_POINT('',#25);
#25 = CARTESIAN_POINT('',(27.,17.1005,9.98));
#26 = LINE('',#27,#28);
#27 = CARTESIAN_POINT('',(29.,17.1005,9.98));
#28 = VECTOR('',#29,1.);
#29 = DIRECTION('',(-1.,0.,0.));
#30 = ORIENTED_EDGE('',*,*,#31,.T.);
#31 = EDGE_CURVE('',#22,#32,#34,.T.);
#32 = VERTEX_POINT('',#33);
#33 = CARTESIAN_POINT('',(29.,23.7005,9.98));
#34 = LINE('',#35,#36);
#35 = CARTESIAN_POINT('',(29.,17.1005,9.98));
#36 = VECTOR('',#37,1.);
#37 = DIRECTION('',(0.,1.,0.));
#38 = ORIENTED_EDGE('',*,*,#39,.T.);
#39 = EDGE_CURVE('',#32,#40,#42,.T.);
#40 = VERTEX_POINT('',#41);
#41 = CARTESIAN_POINT('',(27.,23.7005,9.98));
#42 = LINE('',#43,#44);
#43 = CARTESIAN_POINT('',(29.,23.7005,9.98));
#44 = VECTOR('',#45,1.);
#45 = DIRECTION('',(-1.,0.,0.));
#46 = ORIENTED_EDGE('',*,*,#47,.T.);
#47 = EDGE_CURVE('',#40,#24,#48,.T.);
#48 = LINE('',#49,#50);
#49 = CARTESIAN_POINT('',(27.,23.7005,9.98));
#50 = VECTOR('',#51,1.);
#51 = DIRECTION('',(0.,-1.,0.));
#52 = PLANE('',#53);
#53 = AXIS2_PLACEMENT_3D('',#54,#55,#56);
#54 = CARTESIAN_POINT('',(29.,17.1005,9.98));
#55 = DIRECTION('',(0.,-0.,1.));
#56 = DIRECTION('',(-1.,0.,0.));
#57 = ADVANCED_FACE('',(#58),#75,.F.);
#58 = FACE_BOUND('',#59,.F.);
#59 = EDGE_LOOP('',(#60,#61,#69));
#60 = ORIENTED_EDGE('',*,*,#21,.T.);
#61 = ORIENTED_EDGE('',*,*,#62,.T.);
#62 = EDGE_CURVE('',#24,#63,#65,.T.);
#63 = VERTEX_POINT('',#64);
#64 = CARTESIAN_POINT('',(29.,16.1005,9.98));
#65 = LINE('',#66,#67);
#66 = CARTESIAN_POINT('',(27.,17.1005,9.98));
#67 = VECTOR('',#68,1.);
#68 = DIRECTION('',(0.894427191,-0.4472135955,0.));
#69 = ORIENTED_EDGE('',*,*,#70,.T.);
#70 = EDGE_CURVE('',#63,#22,#71,.T.);
#71 = LINE('',#72,#73);
#72 = CARTESIAN_POINT('',(29.,16.1005,9.98));
#73 = VECTOR('',#74,1.);
#74 = DIRECTION('',(0.,1.,0.));
#75 = PLANE('',#76);
#76 = AXIS2_PLACEMENT_3D('',#77,#78,#79);
#77 = CARTESIAN_POINT('',(28.101666641821,20.4005,9.98));
#78 = DIRECTION('',(0.,0.,1.));
#79 = DIRECTION('',(1.,0.,-0.));
#80 = ADVANCED_FACE('',(#81),#106,.F.);
#81 = FACE_BOUND('',#82,.F.);
#82 = EDGE_LOOP('',(#83,#91,#92,#100));
#83 = ORIENTED_EDGE('',*,*,#84,.F.);
#84 = EDGE_CURVE('',#24,#85,#87,.T.);
#85 = VERTEX_POINT('',#86);
#86 = CARTESIAN_POINT('',(2.2,17.1005,9.98));
#87 = LINE('',#88,#89);
#88 = CARTESIAN_POINT('',(29.,17.1005,9.98));
#89 = VECTOR('',#90,1.);
#90 = DIRECTION('',(-1.,0.,0.));
#91 = ORIENTED_EDGE('',*,*,#47,.F.);
#92 = ORIENTED_EDGE('',*,*,#93,.T.);
#93 = EDGE_CURVE('',#40,#94,#96,.T.);
#94 = VERTEX_POINT('',#95);
#95 = CARTESIAN_POINT('',(2.2,23.7005,9.98));
#96 = LINE('',#97,#98);
#97 = CARTESIAN_POINT('',(29.,23.7005,9.98));
#98 = VECTOR('',#99,1.);
#99 = DIRECTION('',(-1.,0.,0.));
#100 = ORIENTED_EDGE('',*,*,#101,.F.);
#101 = EDGE_CURVE('',#85,#94,#102,.T.);
#102 = LINE('',#103,#104);
#103 = CARTESIAN_POINT('',(2.2,17.1005,9.98));
#104 = VECTOR('',#105,1.);
#105 = DIRECTION('',(0.,1.,0.));
#106 = PLANE('',#107);
#107 = AXIS2_PLACEMENT_3D('',#108,#109,#110);
#108 = CARTESIAN_POINT('',(29.,17.1005,9.98));
#109 = DIRECTION('',(0.,-0.,1.));
#110 = DIRECTION('',(-1.,0.,0.));
#111 = ADVANCED_FACE('',(#112),#129,.F.);
#112 = FACE_BOUND('',#113,.F.);
#113 = EDGE_LOOP('',(#114,#122,#123));
#114 = ORIENTED_EDGE('',*,*,#115,.T.);
#115 = EDGE_CURVE('',#116,#40,#118,.T.);
#116 = VERTEX_POINT('',#117);
#117 = CARTESIAN_POINT('',(29.,24.7005,9.98));
#118 = LINE('',#119,#120);
#119 = CARTESIAN_POINT('',(29.,24.7005,9.98));
#120 = VECTOR('',#121,1.);
#121 = DIRECTION('',(-0.894427191,-0.4472135955,0.));
#122 = ORIENTED_EDGE('',*,*,#39,.F.);
#123 = ORIENTED_EDGE('',*,*,#124,.T.);
#124 = EDGE_CURVE('',#32,#116,#125,.T.);
#125 = LINE('',#126,#127);
#126 = CARTESIAN_POINT('',(29.,16.1005,9.98));
#127 = VECTOR('',#128,1.);
#128 = DIRECTION('',(0.,1.,0.));
#129 = PLANE('',#130);
#130 = AXIS2_PLACEMENT_3D('',#131,#132,#133);
#131 = CARTESIAN_POINT('',(28.101666641821,20.4005,9.98));
#132 = DIRECTION('',(0.,0.,1.));
#133 = DIRECTION('',(1.,0.,-0.));
#134 = ADVANCED_FACE('',(#135),#160,.F.);
#135 = FACE_BOUND('',#136,.F.);
#136 = EDGE_LOOP('',(#137,#147,#153,#154));
#137 = ORIENTED_EDGE('',*,*,#138,.T.);
#138 = EDGE_CURVE('',#139,#141,#143,.T.);
#139 = VERTEX_POINT('',#140);
#140 = CARTESIAN_POINT('',(29.,17.1005,10.1));
#141 = VERTEX_POINT('',#142);
#142 = CARTESIAN_POINT('',(29.,23.7005,10.1));
#143 = LINE('',#144,#145);
#144 = CARTESIAN_POINT('',(29.,17.1005,10.1));
#145 = VECTOR('',#146,1.);
#146 = DIRECTION('',(0.,1.,0.));
#147 = ORIENTED_EDGE('',*,*,#148,.T.);
#148 = EDGE_CURVE('',#141,#32,#149,.T.);
#149 = LINE('',#150,#151);
#150 = CARTESIAN_POINT('',(29.,23.7005,10.1));
#151 = VECTOR('',#152,1.);
#152 = DIRECTION('',(0.,0.,-1.));
#153 = ORIENTED_EDGE('',*,*,#31,.F.);
#154 = ORIENTED_EDGE('',*,*,#155,.F.);
#155 = EDGE_CURVE('',#139,#22,#156,.T.);
#156 = LINE('',#157,#158);
#157 = CARTESIAN_POINT('',(29.,17.1005,10.1));
#158 = VECTOR('',#159,1.);
#159 = DIRECTION('',(0.,0.,-1.));
#160 = PLANE('',#161);
#161 = AXIS2_PLACEMENT_3D('',#162,#163,#164);
#162 = CARTESIAN_POINT('',(29.,17.1005,10.1));
#163 = DIRECTION('',(-1.,0.,0.));
#164 = DIRECTION('',(0.,0.,-1.));
#165 = ADVANCED_FACE('',(#166),#184,.F.);
#166 = FACE_BOUND('',#167,.F.);
#167 = EDGE_LOOP('',(#168,#169,#177,#183));
#168 = ORIENTED_EDGE('',*,*,#70,.F.);
#169 = ORIENTED_EDGE('',*,*,#170,.T.);
#170 = EDGE_CURVE('',#63,#171,#173,.T.);
#171 = VERTEX_POINT('',#172);
#172 = CARTESIAN_POINT('',(29.,16.1005,10.1));
#173 = LINE('',#174,#175);
#174 = CARTESIAN_POINT('',(29.,16.1005,9.98));
#175 = VECTOR('',#176,1.);
#176 = DIRECTION('',(0.,0.,1.));
#177 = ORIENTED_EDGE('',*,*,#178,.T.);
#178 = EDGE_CURVE('',#171,#139,#179,.T.);
#179 = LINE('',#180,#181);
#180 = CARTESIAN_POINT('',(29.,16.1005,10.1));
#181 = VECTOR('',#182,1.);
#182 = DIRECTION('',(0.,1.,0.));
#183 = ORIENTED_EDGE('',*,*,#155,.T.);
#184 = PLANE('',#185);
#185 = AXIS2_PLACEMENT_3D('',#186,#187,#188);
#186 = CARTESIAN_POINT('',(29.,16.1005,9.98));
#187 = DIRECTION('',(-1.,0.,0.));
#188 = DIRECTION('',(0.,1.,0.));
#189 = ADVANCED_FACE('',(#190),#208,.F.);
#190 = FACE_BOUND('',#191,.F.);
#191 = EDGE_LOOP('',(#192,#200,#206,#207));
#192 = ORIENTED_EDGE('',*,*,#193,.T.);
#193 = EDGE_CURVE('',#24,#194,#196,.T.);
#194 = VERTEX_POINT('',#195);
#195 = CARTESIAN_POINT('',(27.,17.1005,10.1));
#196 = LINE('',#197,#198);
#197 = CARTESIAN_POINT('',(27.,17.1005,9.98));
#198 = VECTOR('',#199,1.);
#199 = DIRECTION('',(0.,0.,1.));
#200 = ORIENTED_EDGE('',*,*,#201,.T.);
#201 = EDGE_CURVE('',#194,#171,#202,.T.);
#202 = LINE('',#203,#204);
#203 = CARTESIAN_POINT('',(27.,17.1005,10.1));
#204 = VECTOR('',#205,1.);
#205 = DIRECTION('',(0.894427191,-0.4472135955,0.));
#206 = ORIENTED_EDGE('',*,*,#170,.F.);
#207 = ORIENTED_EDGE('',*,*,#62,.F.);
#208 = PLANE('',#209);
#209 = AXIS2_PLACEMENT_3D('',#210,#211,#212);
#210 = CARTESIAN_POINT('',(27.,17.1005,9.98));
#211 = DIRECTION('',(0.4472135955,0.894427191,-0.));
#212 = DIRECTION('',(0.894427191,-0.4472135955,0.));
#213 = ADVANCED_FACE('',(#214),#232,.F.);
#214 = FACE_BOUND('',#215,.F.);
#215 = EDGE_LOOP('',(#216,#217,#218,#226));
#216 = ORIENTED_EDGE('',*,*,#193,.F.);
#217 = ORIENTED_EDGE('',*,*,#84,.T.);
#218 = ORIENTED_EDGE('',*,*,#219,.T.);
#219 = EDGE_CURVE('',#85,#220,#222,.T.);
#220 = VERTEX_POINT('',#221);
#221 = CARTESIAN_POINT('',(2.2,17.1005,10.1));
#222 = LINE('',#223,#224);
#223 = CARTESIAN_POINT('',(2.2,17.1005,9.98));
#224 = VECTOR('',#225,1.);
#225 = DIRECTION('',(0.,0.,1.));
#226 = ORIENTED_EDGE('',*,*,#227,.T.);
#227 = EDGE_CURVE('',#220,#194,#228,.T.);
#228 = LINE('',#229,#230);
#229 = CARTESIAN_POINT('',(2.2,17.1005,10.1));
#230 = VECTOR('',#231,1.);
#231 = DIRECTION('',(1.,0.,0.));
#232 = PLANE('',#233);
#233 = AXIS2_PLACEMENT_3D('',#234,#235,#236);
#234 = CARTESIAN_POINT('',(15.6,17.1005,10.04));
#235 = DIRECTION('',(0.,1.,0.));
#236 = DIRECTION('',(0.,-0.,1.));
#237 = ADVANCED_FACE('',(#238),#265,.F.);
#238 = FACE_BOUND('',#239,.T.);
#239 = EDGE_LOOP('',(#240,#250,#257,#258));
#240 = ORIENTED_EDGE('',*,*,#241,.T.);
#241 = EDGE_CURVE('',#242,#244,#246,.T.);
#242 = VERTEX_POINT('',#243);
#243 = CARTESIAN_POINT('',(1.46,17.1005,9.24));
#244 = VERTEX_POINT('',#245);
#245 = CARTESIAN_POINT('',(1.46,23.7005,9.24));
#246 = LINE('',#247,#248);
#247 = CARTESIAN_POINT('',(1.46,17.1005,9.24));
#248 = VECTOR('',#249,1.);
#249 = DIRECTION('',(0.,1.,0.));
#250 = ORIENTED_EDGE('',*,*,#251,.T.);
#251 = EDGE_CURVE('',#244,#94,#252,.T.);
#252 = CIRCLE('',#253,0.74);
#253 = AXIS2_PLACEMENT_3D('',#254,#255,#256);
#254 = CARTESIAN_POINT('',(2.2,23.7005,9.24));
#255 = DIRECTION('',(0.,1.,0.));
#256 = DIRECTION('',(-1.,0.,2.400482215406E-15));
#257 = ORIENTED_EDGE('',*,*,#101,.F.);
#258 = ORIENTED_EDGE('',*,*,#259,.F.);
#259 = EDGE_CURVE('',#242,#85,#260,.T.);
#260 = CIRCLE('',#261,0.74);
#261 = AXIS2_PLACEMENT_3D('',#262,#263,#264);
#262 = CARTESIAN_POINT('',(2.2,17.1005,9.24));
#263 = DIRECTION('',(0.,1.,0.));
#264 = DIRECTION('',(-1.,0.,2.400482215406E-15));
#265 = CYLINDRICAL_SURFACE('',#266,0.74);
#266 = AXIS2_PLACEMENT_3D('',#267,#268,#269);
#267 = CARTESIAN_POINT('',(2.2,17.1005,9.24));
#268 = DIRECTION('',(-0.,-1.,-0.));
#269 = DIRECTION('',(-1.,0.,2.400482215406E-15));
#270 = ADVANCED_FACE('',(#271),#296,.T.);
#271 = FACE_BOUND('',#272,.T.);
#272 = EDGE_LOOP('',(#273,#281,#282,#290));
#273 = ORIENTED_EDGE('',*,*,#274,.F.);
#274 = EDGE_CURVE('',#40,#275,#277,.T.);
#275 = VERTEX_POINT('',#276);
#276 = CARTESIAN_POINT('',(27.,23.7005,10.1));
#277 = LINE('',#278,#279);
#278 = CARTESIAN_POINT('',(27.,23.7005,9.98));
#279 = VECTOR('',#280,1.);
#280 = DIRECTION('',(0.,0.,1.));
#281 = ORIENTED_EDGE('',*,*,#93,.T.);
#282 = ORIENTED_EDGE('',*,*,#283,.T.);
#283 = EDGE_CURVE('',#94,#284,#286,.T.);
#284 = VERTEX_POINT('',#285);
#285 = CARTESIAN_POINT('',(2.2,23.7005,10.1));
#286 = LINE('',#287,#288);
#287 = CARTESIAN_POINT('',(2.2,23.7005,9.98));
#288 = VECTOR('',#289,1.);
#289 = DIRECTION('',(0.,0.,1.));
#290 = ORIENTED_EDGE('',*,*,#291,.T.);
#291 = EDGE_CURVE('',#284,#275,#292,.T.);
#292 = LINE('',#293,#294);
#293 = CARTESIAN_POINT('',(2.2,23.7005,10.1));
#294 = VECTOR('',#295,1.);
#295 = DIRECTION('',(1.,0.,0.));
#296 = PLANE('',#297);
#297 = AXIS2_PLACEMENT_3D('',#298,#299,#300);
#298 = CARTESIAN_POINT('',(15.6,23.7005,10.04));
#299 = DIRECTION('',(0.,1.,0.));
#300 = DIRECTION('',(0.,-0.,1.));
#301 = ADVANCED_FACE('',(#302),#320,.F.);
#302 = FACE_BOUND('',#303,.F.);
#303 = EDGE_LOOP('',(#304,#312,#318,#319));
#304 = ORIENTED_EDGE('',*,*,#305,.T.);
#305 = EDGE_CURVE('',#116,#306,#308,.T.);
#306 = VERTEX_POINT('',#307);
#307 = CARTESIAN_POINT('',(29.,24.7005,10.1));
#308 = LINE('',#309,#310);
#309 = CARTESIAN_POINT('',(29.,24.7005,9.98));
#310 = VECTOR('',#311,1.);
#311 = DIRECTION('',(0.,0.,1.));
#312 = ORIENTED_EDGE('',*,*,#313,.T.);
#313 = EDGE_CURVE('',#306,#275,#314,.T.);
#314 = LINE('',#315,#316);
#315 = CARTESIAN_POINT('',(29.,24.7005,10.1));
#316 = VECTOR('',#317,1.);
#317 = DIRECTION('',(-0.894427191,-0.4472135955,0.));
#318 = ORIENTED_EDGE('',*,*,#274,.F.);
#319 = ORIENTED_EDGE('',*,*,#115,.F.);
#320 = PLANE('',#321);
#321 = AXIS2_PLACEMENT_3D('',#322,#323,#324);
#322 = CARTESIAN_POINT('',(29.,24.7005,9.98));
#323 = DIRECTION('',(0.4472135955,-0.894427191,0.));
#324 = DIRECTION('',(-0.894427191,-0.4472135955,0.));
#325 = ADVANCED_FACE('',(#326),#337,.F.);
#326 = FACE_BOUND('',#327,.F.);
#327 = EDGE_LOOP('',(#328,#329,#330,#336));
#328 = ORIENTED_EDGE('',*,*,#124,.F.);
#329 = ORIENTED_EDGE('',*,*,#148,.F.);
#330 = ORIENTED_EDGE('',*,*,#331,.T.);
#331 = EDGE_CURVE('',#141,#306,#332,.T.);
#332 = LINE('',#333,#334);
#333 = CARTESIAN_POINT('',(29.,16.1005,10.1));
#334 = VECTOR('',#335,1.);
#335 = DIRECTION('',(0.,1.,0.));
#336 = ORIENTED_EDGE('',*,*,#305,.F.);
#337 = PLANE('',#338);
#338 = AXIS2_PLACEMENT_3D('',#339,#340,#341);
#339 = CARTESIAN_POINT('',(29.,16.1005,9.98));
#340 = DIRECTION('',(-1.,0.,0.));
#341 = DIRECTION('',(0.,1.,0.));
#342 = ADVANCED_FACE('',(#343),#364,.F.);
#343 = FACE_BOUND('',#344,.F.);
#344 = EDGE_LOOP('',(#345,#351,#357,#363));
#345 = ORIENTED_EDGE('',*,*,#346,.F.);
#346 = EDGE_CURVE('',#194,#139,#347,.T.);
#347 = LINE('',#348,#349);
#348 = CARTESIAN_POINT('',(2.2,17.1005,10.1));
#349 = VECTOR('',#350,1.);
#350 = DIRECTION('',(1.,0.,0.));
#351 = ORIENTED_EDGE('',*,*,#352,.F.);
#352 = EDGE_CURVE('',#275,#194,#353,.T.);
#353 = LINE('',#354,#355);
#354 = CARTESIAN_POINT('',(27.,23.7005,10.1));
#355 = VECTOR('',#356,1.);
#356 = DIRECTION('',(0.,-1.,0.));
#357 = ORIENTED_EDGE('',*,*,#358,.T.);
#358 = EDGE_CURVE('',#275,#141,#359,.T.);
#359 = LINE('',#360,#361);
#360 = CARTESIAN_POINT('',(2.2,23.7005,10.1));
#361 = VECTOR('',#362,1.);
#362 = DIRECTION('',(1.,0.,0.));
#363 = ORIENTED_EDGE('',*,*,#138,.F.);
#364 = PLANE('',#365);
#365 = AXIS2_PLACEMENT_3D('',#366,#367,#368);
#366 = CARTESIAN_POINT('',(2.2,17.1005,10.1));
#367 = DIRECTION('',(0.,0.,-1.));
#368 = DIRECTION('',(1.,0.,0.));
#369 = ADVANCED_FACE('',(#370),#375,.T.);
#370 = FACE_BOUND('',#371,.T.);
#371 = EDGE_LOOP('',(#372,#373,#374));
#372 = ORIENTED_EDGE('',*,*,#346,.F.);
#373 = ORIENTED_EDGE('',*,*,#201,.T.);
#374 = ORIENTED_EDGE('',*,*,#178,.T.);
#375 = PLANE('',#376);
#376 = AXIS2_PLACEMENT_3D('',#377,#378,#379);
#377 = CARTESIAN_POINT('',(28.101666641821,20.4005,10.1));
#378 = DIRECTION('',(0.,0.,1.));
#379 = DIRECTION('',(1.,0.,-0.));
#380 = ADVANCED_FACE('',(#381),#392,.F.);
#381 = FACE_BOUND('',#382,.F.);
#382 = EDGE_LOOP('',(#383,#384,#390,#391));
#383 = ORIENTED_EDGE('',*,*,#227,.F.);
#384 = ORIENTED_EDGE('',*,*,#385,.T.);
#385 = EDGE_CURVE('',#220,#284,#386,.T.);
#386 = LINE('',#387,#388);
#387 = CARTESIAN_POINT('',(2.2,17.1005,10.1));
#388 = VECTOR('',#389,1.);
#389 = DIRECTION('',(0.,1.,0.));
#390 = ORIENTED_EDGE('',*,*,#291,.T.);
#391 = ORIENTED_EDGE('',*,*,#352,.T.);
#392 = PLANE('',#393);
#393 = AXIS2_PLACEMENT_3D('',#394,#395,#396);
#394 = CARTESIAN_POINT('',(2.2,17.1005,10.1));
#395 = DIRECTION('',(0.,0.,-1.));
#396 = DIRECTION('',(1.,0.,0.));
#397 = ADVANCED_FACE('',(#398),#417,.T.);
#398 = FACE_BOUND('',#399,.T.);
#399 = EDGE_LOOP('',(#400,#409,#415,#416));
#400 = ORIENTED_EDGE('',*,*,#401,.T.);
#401 = EDGE_CURVE('',#220,#402,#404,.T.);
#402 = VERTEX_POINT('',#403);
#403 = CARTESIAN_POINT('',(1.34,17.1005,9.24));
#404 = CIRCLE('',#405,0.86);
#405 = AXIS2_PLACEMENT_3D('',#406,#407,#408);
#406 = CARTESIAN_POINT('',(2.2,17.1005,9.24));
#407 = DIRECTION('',(0.,-1.,0.));
#408 = DIRECTION('',(0.,0.,1.));
#409 = ORIENTED_EDGE('',*,*,#410,.T.);
#410 = EDGE_CURVE('',#402,#242,#411,.T.);
#411 = LINE('',#412,#413);
#412 = CARTESIAN_POINT('',(1.34,17.1005,9.24));
#413 = VECTOR('',#414,1.);
#414 = DIRECTION('',(1.,0.,0.));
#415 = ORIENTED_EDGE('',*,*,#259,.T.);
#416 = ORIENTED_EDGE('',*,*,#219,.T.);
#417 = PLANE('',#418);
#418 = AXIS2_PLACEMENT_3D('',#419,#420,#421);
#419 = CARTESIAN_POINT('',(1.70843836258,17.1005,9.73156163742));
#420 = DIRECTION('',(-0.,-1.,-0.));
#421 = DIRECTION('',(0.,0.,-1.));
#422 = ADVANCED_FACE('',(#423),#448,.F.);
#423 = FACE_BOUND('',#424,.F.);
#424 = EDGE_LOOP('',(#425,#426,#434,#442));
#425 = ORIENTED_EDGE('',*,*,#241,.T.);
#426 = ORIENTED_EDGE('',*,*,#427,.T.);
#427 = EDGE_CURVE('',#244,#428,#430,.T.);
#428 = VERTEX_POINT('',#429);
#429 = CARTESIAN_POINT('',(1.46,23.7005,2.55));
#430 = LINE('',#431,#432);
#431 = CARTESIAN_POINT('',(1.46,23.7005,9.24));
#432 = VECTOR('',#433,1.);
#433 = DIRECTION('',(0.,0.,-1.));
#434 = ORIENTED_EDGE('',*,*,#435,.F.);
#435 = EDGE_CURVE('',#436,#428,#438,.T.);
#436 = VERTEX_POINT('',#437);
#437 = CARTESIAN_POINT('',(1.46,17.1005,2.55));
#438 = LINE('',#439,#440);
#439 = CARTESIAN_POINT('',(1.46,17.1005,2.55));
#440 = VECTOR('',#441,1.);
#441 = DIRECTION('',(0.,1.,0.));
#442 = ORIENTED_EDGE('',*,*,#443,.F.);
#443 = EDGE_CURVE('',#242,#436,#444,.T.);
#444 = LINE('',#445,#446);
#445 = CARTESIAN_POINT('',(1.46,17.1005,9.24));
#446 = VECTOR('',#447,1.);
#447 = DIRECTION('',(0.,0.,-1.));
#448 = PLANE('',#449);
#449 = AXIS2_PLACEMENT_3D('',#450,#451,#452);
#450 = CARTESIAN_POINT('',(1.46,17.1005,9.24));
#451 = DIRECTION('',(-1.,0.,0.));
#452 = DIRECTION('',(0.,0.,-1.));
#453 = ADVANCED_FACE('',(#454),#473,.F.);
#454 = FACE_BOUND('',#455,.F.);
#455 = EDGE_LOOP('',(#456,#465,#471,#472));
#456 = ORIENTED_EDGE('',*,*,#457,.T.);
#457 = EDGE_CURVE('',#284,#458,#460,.T.);
#458 = VERTEX_POINT('',#459);
#459 = CARTESIAN_POINT('',(1.34,23.7005,9.24));
#460 = CIRCLE('',#461,0.86);
#461 = AXIS2_PLACEMENT_3D('',#462,#463,#464);
#462 = CARTESIAN_POINT('',(2.2,23.7005,9.24));
#463 = DIRECTION('',(0.,-1.,0.));
#464 = DIRECTION('',(0.,0.,1.));
#465 = ORIENTED_EDGE('',*,*,#466,.T.);
#466 = EDGE_CURVE('',#458,#244,#467,.T.);
#467 = LINE('',#468,#469);
#468 = CARTESIAN_POINT('',(1.34,23.7005,9.24));
#469 = VECTOR('',#470,1.);
#470 = DIRECTION('',(1.,0.,0.));
#471 = ORIENTED_EDGE('',*,*,#251,.T.);
#472 = ORIENTED_EDGE('',*,*,#283,.T.);
#473 = PLANE('',#474);
#474 = AXIS2_PLACEMENT_3D('',#475,#476,#477);
#475 = CARTESIAN_POINT('',(1.70843836258,23.7005,9.73156163742));
#476 = DIRECTION('',(-0.,-1.,-0.));
#477 = DIRECTION('',(0.,0.,-1.));
#478 = ADVANCED_FACE('',(#479),#484,.T.);
#479 = FACE_BOUND('',#480,.T.);
#480 = EDGE_LOOP('',(#481,#482,#483));
#481 = ORIENTED_EDGE('',*,*,#313,.T.);
#482 = ORIENTED_EDGE('',*,*,#358,.T.);
#483 = ORIENTED_EDGE('',*,*,#331,.T.);
#484 = PLANE('',#485);
#485 = AXIS2_PLACEMENT_3D('',#486,#487,#488);
#486 = CARTESIAN_POINT('',(28.101666641821,20.4005,10.1));
#487 = DIRECTION('',(0.,0.,1.));
#488 = DIRECTION('',(1.,0.,-0.));
#489 = ADVANCED_FACE('',(#490),#501,.T.);
#490 = FACE_BOUND('',#491,.T.);
#491 = EDGE_LOOP('',(#492,#493,#494,#500));
#492 = ORIENTED_EDGE('',*,*,#385,.T.);
#493 = ORIENTED_EDGE('',*,*,#457,.T.);
#494 = ORIENTED_EDGE('',*,*,#495,.F.);
#495 = EDGE_CURVE('',#402,#458,#496,.T.);
#496 = LINE('',#497,#498);
#497 = CARTESIAN_POINT('',(1.34,17.1005,9.24));
#498 = VECTOR('',#499,1.);
#499 = DIRECTION('',(0.,1.,0.));
#500 = ORIENTED_EDGE('',*,*,#401,.F.);
#501 = CYLINDRICAL_SURFACE('',#502,0.86);
#502 = AXIS2_PLACEMENT_3D('',#503,#504,#505);
#503 = CARTESIAN_POINT('',(2.2,17.1005,9.24));
#504 = DIRECTION('',(0.,-1.,0.));
#505 = DIRECTION('',(0.,0.,1.));
#506 = ADVANCED_FACE('',(#507),#525,.F.);
#507 = FACE_BOUND('',#508,.F.);
#508 = EDGE_LOOP('',(#509,#510,#518,#524));
#509 = ORIENTED_EDGE('',*,*,#443,.T.);
#510 = ORIENTED_EDGE('',*,*,#511,.T.);
#511 = EDGE_CURVE('',#436,#512,#514,.T.);
#512 = VERTEX_POINT('',#513);
#513 = CARTESIAN_POINT('',(1.34,17.1005,2.55));
#514 = LINE('',#515,#516);
#515 = CARTESIAN_POINT('',(1.46,17.1005,2.55));
#516 = VECTOR('',#517,1.);
#517 = DIRECTION('',(-1.,0.,0.));
#518 = ORIENTED_EDGE('',*,*,#519,.T.);
#519 = EDGE_CURVE('',#512,#402,#520,.T.);
#520 = LINE('',#521,#522);
#521 = CARTESIAN_POINT('',(1.34,17.1005,2.55));
#522 = VECTOR('',#523,1.);
#523 = DIRECTION('',(0.,0.,1.));
#524 = ORIENTED_EDGE('',*,*,#410,.T.);
#525 = PLANE('',#526);
#526 = AXIS2_PLACEMENT_3D('',#527,#528,#529);
#527 = CARTESIAN_POINT('',(1.4,17.1005,5.895));
#528 = DIRECTION('',(0.,1.,0.));
#529 = DIRECTION('',(0.,-0.,1.));
#530 = ADVANCED_FACE('',(#531),#558,.F.);
#531 = FACE_BOUND('',#532,.T.);
#532 = EDGE_LOOP('',(#533,#543,#550,#551));
#533 = ORIENTED_EDGE('',*,*,#534,.T.);
#534 = EDGE_CURVE('',#535,#537,#539,.T.);
#535 = VERTEX_POINT('',#536);
#536 = CARTESIAN_POINT('',(2.2,17.1005,1.81));
#537 = VERTEX_POINT('',#538);
#538 = CARTESIAN_POINT('',(2.2,23.7005,1.81));
#539 = LINE('',#540,#541);
#540 = CARTESIAN_POINT('',(2.2,17.1005,1.81));
#541 = VECTOR('',#542,1.);
#542 = DIRECTION('',(0.,1.,0.));
#543 = ORIENTED_EDGE('',*,*,#544,.T.);
#544 = EDGE_CURVE('',#537,#428,#545,.T.);
#545 = CIRCLE('',#546,0.74);
#546 = AXIS2_PLACEMENT_3D('',#547,#548,#549);
#547 = CARTESIAN_POINT('',(2.2,23.7005,2.55));
#548 = DIRECTION('',(0.,1.,0.));
#549 = DIRECTION('',(0.,0.,-1.));
#550 = ORIENTED_EDGE('',*,*,#435,.F.);
#551 = ORIENTED_EDGE('',*,*,#552,.F.);
#552 = EDGE_CURVE('',#535,#436,#553,.T.);
#553 = CIRCLE('',#554,0.74);
#554 = AXIS2_PLACEMENT_3D('',#555,#556,#557);
#555 = CARTESIAN_POINT('',(2.2,17.1005,2.55));
#556 = DIRECTION('',(0.,1.,0.));
#557 = DIRECTION('',(0.,0.,-1.));
#558 = CYLINDRICAL_SURFACE('',#559,0.74);
#559 = AXIS2_PLACEMENT_3D('',#560,#561,#562);
#560 = CARTESIAN_POINT('',(2.2,17.1005,2.55));
#561 = DIRECTION('',(-0.,-1.,-0.));
#562 = DIRECTION('',(0.,0.,-1.));
#563 = ADVANCED_FACE('',(#564),#582,.T.);
#564 = FACE_BOUND('',#565,.T.);
#565 = EDGE_LOOP('',(#566,#567,#575,#581));
#566 = ORIENTED_EDGE('',*,*,#427,.T.);
#567 = ORIENTED_EDGE('',*,*,#568,.T.);
#568 = EDGE_CURVE('',#428,#569,#571,.T.);
#569 = VERTEX_POINT('',#570);
#570 = CARTESIAN_POINT('',(1.34,23.7005,2.55));
#571 = LINE('',#572,#573);
#572 = CARTESIAN_POINT('',(1.46,23.7005,2.55));
#573 = VECTOR('',#574,1.);
#574 = DIRECTION('',(-1.,0.,0.));
#575 = ORIENTED_EDGE('',*,*,#576,.T.);
#576 = EDGE_CURVE('',#569,#458,#577,.T.);
#577 = LINE('',#578,#579);
#578 = CARTESIAN_POINT('',(1.34,23.7005,2.55));
#579 = VECTOR('',#580,1.);
#580 = DIRECTION('',(0.,0.,1.));
#581 = ORIENTED_EDGE('',*,*,#466,.T.);
#582 = PLANE('',#583);
#583 = AXIS2_PLACEMENT_3D('',#584,#585,#586);
#584 = CARTESIAN_POINT('',(1.4,23.7005,5.895));
#585 = DIRECTION('',(0.,1.,0.));
#586 = DIRECTION('',(0.,-0.,1.));
#587 = ADVANCED_FACE('',(#588),#599,.F.);
#588 = FACE_BOUND('',#589,.F.);
#589 = EDGE_LOOP('',(#590,#596,#597,#598));
#590 = ORIENTED_EDGE('',*,*,#591,.T.);
#591 = EDGE_CURVE('',#512,#569,#592,.T.);
#592 = LINE('',#593,#594);
#593 = CARTESIAN_POINT('',(1.34,17.1005,2.55));
#594 = VECTOR('',#595,1.);
#595 = DIRECTION('',(0.,1.,0.));
#596 = ORIENTED_EDGE('',*,*,#576,.T.);
#597 = ORIENTED_EDGE('',*,*,#495,.F.);
#598 = ORIENTED_EDGE('',*,*,#519,.F.);
#599 = PLANE('',#600);
#600 = AXIS2_PLACEMENT_3D('',#601,#602,#603);
#601 = CARTESIAN_POINT('',(1.34,17.1005,2.55));
#602 = DIRECTION('',(1.,0.,0.));
#603 = DIRECTION('',(0.,0.,1.));
#604 = ADVANCED_FACE('',(#605),#624,.T.);
#605 = FACE_BOUND('',#606,.T.);
#606 = EDGE_LOOP('',(#607,#616,#622,#623));
#607 = ORIENTED_EDGE('',*,*,#608,.T.);
#608 = EDGE_CURVE('',#512,#609,#611,.T.);
#609 = VERTEX_POINT('',#610);
#610 = CARTESIAN_POINT('',(2.2,17.1005,1.69));
#611 = CIRCLE('',#612,0.86);
#612 = AXIS2_PLACEMENT_3D('',#613,#614,#615);
#613 = CARTESIAN_POINT('',(2.2,17.1005,2.55));
#614 = DIRECTION('',(0.,-1.,0.));
#615 = DIRECTION('',(-1.,0.,0.));
#616 = ORIENTED_EDGE('',*,*,#617,.T.);
#617 = EDGE_CURVE('',#609,#535,#618,.T.);
#618 = LINE('',#619,#620);
#619 = CARTESIAN_POINT('',(2.2,17.1005,1.69));
#620 = VECTOR('',#621,1.);
#621 = DIRECTION('',(0.,0.,1.));
#622 = ORIENTED_EDGE('',*,*,#552,.T.);
#623 = ORIENTED_EDGE('',*,*,#511,.T.);
#624 = PLANE('',#625);
#625 = AXIS2_PLACEMENT_3D('',#626,#627,#628);
#626 = CARTESIAN_POINT('',(1.70843836258,17.1005,2.05843836258));
#627 = DIRECTION('',(-0.,-1.,-0.));
#628 = DIRECTION('',(0.,0.,-1.));
#629 = ADVANCED_FACE('',(#630),#655,.F.);
#630 = FACE_BOUND('',#631,.F.);
#631 = EDGE_LOOP('',(#632,#633,#641,#649));
#632 = ORIENTED_EDGE('',*,*,#534,.T.);
#633 = ORIENTED_EDGE('',*,*,#634,.T.);
#634 = EDGE_CURVE('',#537,#635,#637,.T.);
#635 = VERTEX_POINT('',#636);
#636 = CARTESIAN_POINT('',(2.7,23.7005,1.81));
#637 = LINE('',#638,#639);
#638 = CARTESIAN_POINT('',(2.2,23.7005,1.81));
#639 = VECTOR('',#640,1.);
#640 = DIRECTION('',(1.,0.,0.));
#641 = ORIENTED_EDGE('',*,*,#642,.F.);
#642 = EDGE_CURVE('',#643,#635,#645,.T.);
#643 = VERTEX_POINT('',#644);
#644 = CARTESIAN_POINT('',(2.7,17.1005,1.81));
#645 = LINE('',#646,#647);
#646 = CARTESIAN_POINT('',(2.7,17.1005,1.81));
#647 = VECTOR('',#648,1.);
#648 = DIRECTION('',(0.,1.,0.));
#649 = ORIENTED_EDGE('',*,*,#650,.F.);
#650 = EDGE_CURVE('',#535,#643,#651,.T.);
#651 = LINE('',#652,#653);
#652 = CARTESIAN_POINT('',(2.2,17.1005,1.81));
#653 = VECTOR('',#654,1.);
#654 = DIRECTION('',(1.,0.,0.));
#655 = PLANE('',#656);
#656 = AXIS2_PLACEMENT_3D('',#657,#658,#659);
#657 = CARTESIAN_POINT('',(2.2,17.1005,1.81));
#658 = DIRECTION('',(0.,0.,-1.));
#659 = DIRECTION('',(1.,0.,0.));
#660 = ADVANCED_FACE('',(#661),#680,.F.);
#661 = FACE_BOUND('',#662,.F.);
#662 = EDGE_LOOP('',(#663,#672,#678,#679));
#663 = ORIENTED_EDGE('',*,*,#664,.T.);
#664 = EDGE_CURVE('',#569,#665,#667,.T.);
#665 = VERTEX_POINT('',#666);
#666 = CARTESIAN_POINT('',(2.2,23.7005,1.69));
#667 = CIRCLE('',#668,0.86);
#668 = AXIS2_PLACEMENT_3D('',#669,#670,#671);
#669 = CARTESIAN_POINT('',(2.2,23.7005,2.55));
#670 = DIRECTION('',(0.,-1.,0.));
#671 = DIRECTION('',(-1.,0.,0.));
#672 = ORIENTED_EDGE('',*,*,#673,.T.);
#673 = EDGE_CURVE('',#665,#537,#674,.T.);
#674 = LINE('',#675,#676);
#675 = CARTESIAN_POINT('',(2.2,23.7005,1.69));
#676 = VECTOR('',#677,1.);
#677 = DIRECTION('',(0.,0.,1.));
#678 = ORIENTED_EDGE('',*,*,#544,.T.);
#679 = ORIENTED_EDGE('',*,*,#568,.T.);
#680 = PLANE('',#681);
#681 = AXIS2_PLACEMENT_3D('',#682,#683,#684);
#682 = CARTESIAN_POINT('',(1.70843836258,23.7005,2.05843836258));
#683 = DIRECTION('',(-0.,-1.,-0.));
#684 = DIRECTION('',(0.,0.,-1.));
#685 = ADVANCED_FACE('',(#686),#697,.T.);
#686 = FACE_BOUND('',#687,.T.);
#687 = EDGE_LOOP('',(#688,#689,#690,#696));
#688 = ORIENTED_EDGE('',*,*,#591,.T.);
#689 = ORIENTED_EDGE('',*,*,#664,.T.);
#690 = ORIENTED_EDGE('',*,*,#691,.F.);
#691 = EDGE_CURVE('',#609,#665,#692,.T.);
#692 = LINE('',#693,#694);
#693 = CARTESIAN_POINT('',(2.2,17.1005,1.69));
#694 = VECTOR('',#695,1.);
#695 = DIRECTION('',(0.,1.,0.));
#696 = ORIENTED_EDGE('',*,*,#608,.F.);
#697 = CYLINDRICAL_SURFACE('',#698,0.86);
#698 = AXIS2_PLACEMENT_3D('',#699,#700,#701);
#699 = CARTESIAN_POINT('',(2.2,17.1005,2.55));
#700 = DIRECTION('',(0.,-1.,0.));
#701 = DIRECTION('',(-1.,0.,0.));
#702 = ADVANCED_FACE('',(#703),#721,.F.);
#703 = FACE_BOUND('',#704,.F.);
#704 = EDGE_LOOP('',(#705,#706,#714,#720));
#705 = ORIENTED_EDGE('',*,*,#650,.T.);
#706 = ORIENTED_EDGE('',*,*,#707,.T.);
#707 = EDGE_CURVE('',#643,#708,#710,.T.);
#708 = VERTEX_POINT('',#709);
#709 = CARTESIAN_POINT('',(2.7,17.1005,1.69));
#710 = LINE('',#711,#712);
#711 = CARTESIAN_POINT('',(2.7,17.1005,1.81));
#712 = VECTOR('',#713,1.);
#713 = DIRECTION('',(0.,0.,-1.));
#714 = ORIENTED_EDGE('',*,*,#715,.T.);
#715 = EDGE_CURVE('',#708,#609,#716,.T.);
#716 = LINE('',#717,#718);
#717 = CARTESIAN_POINT('',(2.7,17.1005,1.69));
#718 = VECTOR('',#719,1.);
#719 = DIRECTION('',(-1.,0.,0.));
#720 = ORIENTED_EDGE('',*,*,#617,.T.);
#721 = PLANE('',#722);
#722 = AXIS2_PLACEMENT_3D('',#723,#724,#725);
#723 = CARTESIAN_POINT('',(2.45,17.1005,1.75));
#724 = DIRECTION('',(0.,1.,0.));
#725 = DIRECTION('',(0.,-0.,1.));
#726 = ADVANCED_FACE('',(#727),#752,.F.);
#727 = FACE_BOUND('',#728,.F.);
#728 = EDGE_LOOP('',(#729,#730,#738,#746));
#729 = ORIENTED_EDGE('',*,*,#642,.T.);
#730 = ORIENTED_EDGE('',*,*,#731,.T.);
#731 = EDGE_CURVE('',#635,#732,#734,.T.);
#732 = VERTEX_POINT('',#733);
#733 = CARTESIAN_POINT('',(20.97779608068,23.7005,1.81));
#734 = LINE('',#735,#736);
#735 = CARTESIAN_POINT('',(2.7,23.7005,1.81));
#736 = VECTOR('',#737,1.);
#737 = DIRECTION('',(1.,0.,0.));
#738 = ORIENTED_EDGE('',*,*,#739,.F.);
#739 = EDGE_CURVE('',#740,#732,#742,.T.);
#740 = VERTEX_POINT('',#741);
#741 = CARTESIAN_POINT('',(20.97779608068,17.1005,1.81));
#742 = LINE('',#743,#744);
#743 = CARTESIAN_POINT('',(20.97779608068,17.1005,1.81));
#744 = VECTOR('',#745,1.);
#745 = DIRECTION('',(0.,1.,0.));
#746 = ORIENTED_EDGE('',*,*,#747,.F.);
#747 = EDGE_CURVE('',#643,#740,#748,.T.);
#748 = LINE('',#749,#750);
#749 = CARTESIAN_POINT('',(2.7,17.1005,1.81));
#750 = VECTOR('',#751,1.);
#751 = DIRECTION('',(1.,0.,0.));
#752 = PLANE('',#753);
#753 = AXIS2_PLACEMENT_3D('',#754,#755,#756);
#754 = CARTESIAN_POINT('',(2.7,17.1005,1.81));
#755 = DIRECTION('',(0.,0.,-1.));
#756 = DIRECTION('',(1.,0.,0.));
#757 = ADVANCED_FACE('',(#758),#776,.T.);
#758 = FACE_BOUND('',#759,.T.);
#759 = EDGE_LOOP('',(#760,#761,#769,#775));
#760 = ORIENTED_EDGE('',*,*,#634,.T.);
#761 = ORIENTED_EDGE('',*,*,#762,.T.);
#762 = EDGE_CURVE('',#635,#763,#765,.T.);
#763 = VERTEX_POINT('',#764);
#764 = CARTESIAN_POINT('',(2.7,23.7005,1.69));
#765 = LINE('',#766,#767);
#766 = CARTESIAN_POINT('',(2.7,23.7005,1.81));
#767 = VECTOR('',#768,1.);
#768 = DIRECTION('',(0.,0.,-1.));
#769 = ORIENTED_EDGE('',*,*,#770,.T.);
#770 = EDGE_CURVE('',#763,#665,#771,.T.);
#771 = LINE('',#772,#773);
#772 = CARTESIAN_POINT('',(2.7,23.7005,1.69));
#773 = VECTOR('',#774,1.);
#774 = DIRECTION('',(-1.,0.,0.));
#775 = ORIENTED_EDGE('',*,*,#673,.T.);
#776 = PLANE('',#777);
#777 = AXIS2_PLACEMENT_3D('',#778,#779,#780);
#778 = CARTESIAN_POINT('',(2.45,23.7005,1.75));
#779 = DIRECTION('',(0.,1.,0.));
#780 = DIRECTION('',(0.,-0.,1.));
#781 = ADVANCED_FACE('',(#782),#793,.F.);
#782 = FACE_BOUND('',#783,.F.);
#783 = EDGE_LOOP('',(#784,#790,#791,#792));
#784 = ORIENTED_EDGE('',*,*,#785,.T.);
#785 = EDGE_CURVE('',#708,#763,#786,.T.);
#786 = LINE('',#787,#788);
#787 = CARTESIAN_POINT('',(2.7,17.1005,1.69));
#788 = VECTOR('',#789,1.);
#789 = DIRECTION('',(0.,1.,0.));
#790 = ORIENTED_EDGE('',*,*,#770,.T.);
#791 = ORIENTED_EDGE('',*,*,#691,.F.);
#792 = ORIENTED_EDGE('',*,*,#715,.F.);
#793 = PLANE('',#794);
#794 = AXIS2_PLACEMENT_3D('',#795,#796,#797);
#795 = CARTESIAN_POINT('',(2.7,17.1005,1.69));
#796 = DIRECTION('',(0.,-0.,1.));
#797 = DIRECTION('',(-1.,0.,0.));
#798 = ADVANCED_FACE('',(#799),#817,.F.);
#799 = FACE_BOUND('',#800,.F.);
#800 = EDGE_LOOP('',(#801,#802,#810,#816));
#801 = ORIENTED_EDGE('',*,*,#747,.T.);
#802 = ORIENTED_EDGE('',*,*,#803,.T.);
#803 = EDGE_CURVE('',#740,#804,#806,.T.);
#804 = VERTEX_POINT('',#805);
#805 = CARTESIAN_POINT('',(20.97779608068,17.1005,1.69));
#806 = LINE('',#807,#808);
#807 = CARTESIAN_POINT('',(20.97779608068,17.1005,1.81));
#808 = VECTOR('',#809,1.);
#809 = DIRECTION('',(0.,0.,-1.));
#810 = ORIENTED_EDGE('',*,*,#811,.T.);
#811 = EDGE_CURVE('',#804,#708,#812,.T.);
#812 = LINE('',#813,#814);
#813 = CARTESIAN_POINT('',(20.97779608068,17.1005,1.69));
#814 = VECTOR('',#815,1.);
#815 = DIRECTION('',(-1.,0.,0.));
#816 = ORIENTED_EDGE('',*,*,#707,.F.);
#817 = PLANE('',#818);
#818 = AXIS2_PLACEMENT_3D('',#819,#820,#821);
#819 = CARTESIAN_POINT('',(11.83889804034,17.1005,1.75));
#820 = DIRECTION('',(0.,1.,0.));
#821 = DIRECTION('',(0.,-0.,1.));
#822 = ADVANCED_FACE('',(#823),#850,.F.);
#823 = FACE_BOUND('',#824,.T.);
#824 = EDGE_LOOP('',(#825,#835,#842,#843));
#825 = ORIENTED_EDGE('',*,*,#826,.T.);
#826 = EDGE_CURVE('',#827,#829,#831,.T.);
#827 = VERTEX_POINT('',#828);
#828 = CARTESIAN_POINT('',(20.97779608068,17.1005,3.29));
#829 = VERTEX_POINT('',#830);
#830 = CARTESIAN_POINT('',(20.97779608068,23.7005,3.29));
#831 = LINE('',#832,#833);
#832 = CARTESIAN_POINT('',(20.97779608068,17.1005,3.29));
#833 = VECTOR('',#834,1.);
#834 = DIRECTION('',(0.,1.,0.));
#835 = ORIENTED_EDGE('',*,*,#836,.T.);
#836 = EDGE_CURVE('',#829,#732,#837,.T.);
#837 = CIRCLE('',#838,0.74);
#838 = AXIS2_PLACEMENT_3D('',#839,#840,#841);
#839 = CARTESIAN_POINT('',(20.97779608068,23.7005,2.55));
#840 = DIRECTION('',(0.,1.,0.));
#841 = DIRECTION('',(4.800964430811E-15,-0.,1.));
#842 = ORIENTED_EDGE('',*,*,#739,.F.);
#843 = ORIENTED_EDGE('',*,*,#844,.F.);
#844 = EDGE_CURVE('',#827,#740,#845,.T.);
#845 = CIRCLE('',#846,0.74);
#846 = AXIS2_PLACEMENT_3D('',#847,#848,#849);
#847 = CARTESIAN_POINT('',(20.97779608068,17.1005,2.55));
#848 = DIRECTION('',(0.,1.,0.));
#849 = DIRECTION('',(4.800964430811E-15,-0.,1.));
#850 = CYLINDRICAL_SURFACE('',#851,0.74);
#851 = AXIS2_PLACEMENT_3D('',#852,#853,#854);
#852 = CARTESIAN_POINT('',(20.97779608068,17.1005,2.55));
#853 = DIRECTION('',(-0.,-1.,-0.));
#854 = DIRECTION('',(4.800964430811E-15,-0.,1.));
#855 = ADVANCED_FACE('',(#856),#874,.T.);
#856 = FACE_BOUND('',#857,.T.);
#857 = EDGE_LOOP('',(#858,#859,#867,#873));
#858 = ORIENTED_EDGE('',*,*,#731,.T.);
#859 = ORIENTED_EDGE('',*,*,#860,.T.);
#860 = EDGE_CURVE('',#732,#861,#863,.T.);
#861 = VERTEX_POINT('',#862);
#862 = CARTESIAN_POINT('',(20.97779608068,23.7005,1.69));
#863 = LINE('',#864,#865);
#864 = CARTESIAN_POINT('',(20.97779608068,23.7005,1.81));
#865 = VECTOR('',#866,1.);
#866 = DIRECTION('',(0.,0.,-1.));
#867 = ORIENTED_EDGE('',*,*,#868,.T.);
#868 = EDGE_CURVE('',#861,#763,#869,.T.);
#869 = LINE('',#870,#871);
#870 = CARTESIAN_POINT('',(20.97779608068,23.7005,1.69));
#871 = VECTOR('',#872,1.);
#872 = DIRECTION('',(-1.,0.,0.));
#873 = ORIENTED_EDGE('',*,*,#762,.F.);
#874 = PLANE('',#875);
#875 = AXIS2_PLACEMENT_3D('',#876,#877,#878);
#876 = CARTESIAN_POINT('',(11.83889804034,23.7005,1.75));
#877 = DIRECTION('',(0.,1.,0.));
#878 = DIRECTION('',(0.,-0.,1.));
#879 = ADVANCED_FACE('',(#880),#891,.F.);
#880 = FACE_BOUND('',#881,.F.);
#881 = EDGE_LOOP('',(#882,#888,#889,#890));
#882 = ORIENTED_EDGE('',*,*,#883,.T.);
#883 = EDGE_CURVE('',#804,#861,#884,.T.);
#884 = LINE('',#885,#886);
#885 = CARTESIAN_POINT('',(20.97779608068,17.1005,1.69));
#886 = VECTOR('',#887,1.);
#887 = DIRECTION('',(0.,1.,0.));
#888 = ORIENTED_EDGE('',*,*,#868,.T.);
#889 = ORIENTED_EDGE('',*,*,#785,.F.);
#890 = ORIENTED_EDGE('',*,*,#811,.F.);
#891 = PLANE('',#892);
#892 = AXIS2_PLACEMENT_3D('',#893,#894,#895);
#893 = CARTESIAN_POINT('',(20.97779608068,17.1005,1.69));
#894 = DIRECTION('',(0.,-0.,1.));
#895 = DIRECTION('',(-1.,0.,0.));
#896 = ADVANCED_FACE('',(#897),#916,.T.);
#897 = FACE_BOUND('',#898,.T.);
#898 = EDGE_LOOP('',(#899,#908,#914,#915));
#899 = ORIENTED_EDGE('',*,*,#900,.T.);
#900 = EDGE_CURVE('',#804,#901,#903,.T.);
#901 = VERTEX_POINT('',#902);
#902 = CARTESIAN_POINT('',(20.97779608068,17.1005,3.41));
#903 = CIRCLE('',#904,0.86);
#904 = AXIS2_PLACEMENT_3D('',#905,#906,#907);
#905 = CARTESIAN_POINT('',(20.97779608068,17.1005,2.55));
#906 = DIRECTION('',(0.,-1.,0.));
#907 = DIRECTION('',(0.,0.,-1.));
#908 = ORIENTED_EDGE('',*,*,#909,.T.);
#909 = EDGE_CURVE('',#901,#827,#910,.T.);
#910 = LINE('',#911,#912);
#911 = CARTESIAN_POINT('',(20.97779608068,17.1005,3.41));
#912 = VECTOR('',#913,1.);
#913 = DIRECTION('',(0.,0.,-1.));
#914 = ORIENTED_EDGE('',*,*,#844,.T.);
#915 = ORIENTED_EDGE('',*,*,#803,.T.);
#916 = PLANE('',#917);
#917 = AXIS2_PLACEMENT_3D('',#918,#919,#920);
#918 = CARTESIAN_POINT('',(21.420156358359,17.1005,2.55));
#919 = DIRECTION('',(-0.,-1.,-0.));
#920 = DIRECTION('',(0.,0.,-1.));
#921 = ADVANCED_FACE('',(#922),#947,.F.);
#922 = FACE_BOUND('',#923,.F.);
#923 = EDGE_LOOP('',(#924,#925,#933,#941));
#924 = ORIENTED_EDGE('',*,*,#826,.T.);
#925 = ORIENTED_EDGE('',*,*,#926,.T.);
#926 = EDGE_CURVE('',#829,#927,#929,.T.);
#927 = VERTEX_POINT('',#928);
#928 = CARTESIAN_POINT('',(13.198749217772,23.7005,3.29));
#929 = LINE('',#930,#931);
#930 = CARTESIAN_POINT('',(20.97779608068,23.7005,3.29));
#931 = VECTOR('',#932,1.);
#932 = DIRECTION('',(-1.,0.,0.));
#933 = ORIENTED_EDGE('',*,*,#934,.F.);
#934 = EDGE_CURVE('',#935,#927,#937,.T.);
#935 = VERTEX_POINT('',#936);
#936 = CARTESIAN_POINT('',(13.198749217772,17.1005,3.29));
#937 = LINE('',#938,#939);
#938 = CARTESIAN_POINT('',(13.198749217772,17.1005,3.29));
#939 = VECTOR('',#940,1.);
#940 = DIRECTION('',(0.,1.,0.));
#941 = ORIENTED_EDGE('',*,*,#942,.F.);
#942 = EDGE_CURVE('',#827,#935,#943,.T.);
#943 = LINE('',#944,#945);
#944 = CARTESIAN_POINT('',(20.97779608068,17.1005,3.29));
#945 = VECTOR('',#946,1.);
#946 = DIRECTION('',(-1.,0.,0.));
#947 = PLANE('',#948);
#948 = AXIS2_PLACEMENT_3D('',#949,#950,#951);
#949 = CARTESIAN_POINT('',(20.97779608068,17.1005,3.29));
#950 = DIRECTION('',(0.,-0.,1.));
#951 = DIRECTION('',(-1.,0.,0.));
#952 = ADVANCED_FACE('',(#953),#972,.F.);
#953 = FACE_BOUND('',#954,.F.);
#954 = EDGE_LOOP('',(#955,#964,#970,#971));
#955 = ORIENTED_EDGE('',*,*,#956,.T.);
#956 = EDGE_CURVE('',#861,#957,#959,.T.);
#957 = VERTEX_POINT('',#958);
#958 = CARTESIAN_POINT('',(20.97779608068,23.7005,3.41));
#959 = CIRCLE('',#960,0.86);
#960 = AXIS2_PLACEMENT_3D('',#961,#962,#963);
#961 = CARTESIAN_POINT('',(20.97779608068,23.7005,2.55));
#962 = DIRECTION('',(0.,-1.,0.));
#963 = DIRECTION('',(0.,0.,-1.));
#964 = ORIENTED_EDGE('',*,*,#965,.T.);
#965 = EDGE_CURVE('',#957,#829,#966,.T.);
#966 = LINE('',#967,#968);
#967 = CARTESIAN_POINT('',(20.97779608068,23.7005,3.41));
#968 = VECTOR('',#969,1.);
#969 = DIRECTION('',(0.,0.,-1.));
#970 = ORIENTED_EDGE('',*,*,#836,.T.);
#971 = ORIENTED_EDGE('',*,*,#860,.T.);
#972 = PLANE('',#973);
#973 = AXIS2_PLACEMENT_3D('',#974,#975,#976);
#974 = CARTESIAN_POINT('',(21.420156358359,23.7005,2.55));
#975 = DIRECTION('',(-0.,-1.,-0.));
#976 = DIRECTION('',(0.,0.,-1.));
#977 = ADVANCED_FACE('',(#978),#989,.T.);
#978 = FACE_BOUND('',#979,.T.);
#979 = EDGE_LOOP('',(#980,#981,#982,#988));
#980 = ORIENTED_EDGE('',*,*,#883,.T.);
#981 = ORIENTED_EDGE('',*,*,#956,.T.);
#982 = ORIENTED_EDGE('',*,*,#983,.F.);
#983 = EDGE_CURVE('',#901,#957,#984,.T.);
#984 = LINE('',#985,#986);
#985 = CARTESIAN_POINT('',(20.97779608068,17.1005,3.41));
#986 = VECTOR('',#987,1.);
#987 = DIRECTION('',(0.,1.,0.));
#988 = ORIENTED_EDGE('',*,*,#900,.F.);
#989 = CYLINDRICAL_SURFACE('',#990,0.86);
#990 = AXIS2_PLACEMENT_3D('',#991,#992,#993);
#991 = CARTESIAN_POINT('',(20.97779608068,17.1005,2.55));
#992 = DIRECTION('',(0.,-1.,0.));
#993 = DIRECTION('',(0.,0.,-1.));
#994 = ADVANCED_FACE('',(#995),#1013,.F.);
#995 = FACE_BOUND('',#996,.F.);
#996 = EDGE_LOOP('',(#997,#998,#1006,#1012));
#997 = ORIENTED_EDGE('',*,*,#942,.T.);
#998 = ORIENTED_EDGE('',*,*,#999,.T.);
#999 = EDGE_CURVE('',#935,#1000,#1002,.T.);
#1000 = VERTEX_POINT('',#1001);
#1001 = CARTESIAN_POINT('',(13.198749217772,17.1005,3.41));
#1002 = LINE('',#1003,#1004);
#1003 = CARTESIAN_POINT('',(13.198749217772,17.1005,3.29));
#1004 = VECTOR('',#1005,1.);
#1005 = DIRECTION('',(0.,0.,1.));
#1006 = ORIENTED_EDGE('',*,*,#1007,.T.);
#1007 = EDGE_CURVE('',#1000,#901,#1008,.T.);
#1008 = LINE('',#1009,#1010);
#1009 = CARTESIAN_POINT('',(13.198749217772,17.1005,3.41));
#1010 = VECTOR('',#1011,1.);
#1011 = DIRECTION('',(1.,0.,0.));
#1012 = ORIENTED_EDGE('',*,*,#909,.T.);
#1013 = PLANE('',#1014);
#1014 = AXIS2_PLACEMENT_3D('',#1015,#1016,#1017);
#1015 = CARTESIAN_POINT('',(17.088272649226,17.1005,3.35));
#1016 = DIRECTION('',(0.,1.,0.));
#1017 = DIRECTION('',(0.,-0.,1.));
#1018 = ADVANCED_FACE('',(#1019),#1046,.T.);
#1019 = FACE_BOUND('',#1020,.F.);
#1020 = EDGE_LOOP('',(#1021,#1022,#1031,#1039));
#1021 = ORIENTED_EDGE('',*,*,#934,.T.);
#1022 = ORIENTED_EDGE('',*,*,#1023,.T.);
#1023 = EDGE_CURVE('',#927,#1024,#1026,.T.);
#1024 = VERTEX_POINT('',#1025);
#1025 = CARTESIAN_POINT('',(12.66192151322,23.7005,3.478125));
#1026 = CIRCLE('',#1027,0.86);
#1027 = AXIS2_PLACEMENT_3D('',#1028,#1029,#1030);
#1028 = CARTESIAN_POINT('',(13.198749217772,23.7005,4.15));
#1029 = DIRECTION('',(0.,1.,0.));
#1030 = DIRECTION('',(-4.13106241721E-15,0.,-1.));
#1031 = ORIENTED_EDGE('',*,*,#1032,.F.);
#1032 = EDGE_CURVE('',#1033,#1024,#1035,.T.);
#1033 = VERTEX_POINT('',#1034);
#1034 = CARTESIAN_POINT('',(12.66192151322,17.1005,3.478125));
#1035 = LINE('',#1036,#1037);
#1036 = CARTESIAN_POINT('',(12.66192151322,17.1005,3.478125));
#1037 = VECTOR('',#1038,1.);
#1038 = DIRECTION('',(0.,1.,0.));
#1039 = ORIENTED_EDGE('',*,*,#1040,.F.);
#1040 = EDGE_CURVE('',#935,#1033,#1041,.T.);
#1041 = CIRCLE('',#1042,0.86);
#1042 = AXIS2_PLACEMENT_3D('',#1043,#1044,#1045);
#1043 = CARTESIAN_POINT('',(13.198749217772,17.1005,4.15));
#1044 = DIRECTION('',(0.,1.,0.));
#1045 = DIRECTION('',(-4.13106241721E-15,0.,-1.));
#1046 = CYLINDRICAL_SURFACE('',#1047,0.86);
#1047 = AXIS2_PLACEMENT_3D('',#1048,#1049,#1050);
#1048 = CARTESIAN_POINT('',(13.198749217772,17.1005,4.15));
#1049 = DIRECTION('',(-0.,-1.,-0.));
#1050 = DIRECTION('',(-4.13106241721E-15,0.,-1.));
#1051 = ADVANCED_FACE('',(#1052),#1070,.T.);
#1052 = FACE_BOUND('',#1053,.T.);
#1053 = EDGE_LOOP('',(#1054,#1055,#1063,#1069));
#1054 = ORIENTED_EDGE('',*,*,#926,.T.);
#1055 = ORIENTED_EDGE('',*,*,#1056,.T.);
#1056 = EDGE_CURVE('',#927,#1057,#1059,.T.);
#1057 = VERTEX_POINT('',#1058);
#1058 = CARTESIAN_POINT('',(13.198749217772,23.7005,3.41));
#1059 = LINE('',#1060,#1061);
#1060 = CARTESIAN_POINT('',(13.198749217772,23.7005,3.29));
#1061 = VECTOR('',#1062,1.);
#1062 = DIRECTION('',(0.,0.,1.));
#1063 = ORIENTED_EDGE('',*,*,#1064,.T.);
#1064 = EDGE_CURVE('',#1057,#957,#1065,.T.);
#1065 = LINE('',#1066,#1067);
#1066 = CARTESIAN_POINT('',(13.198749217772,23.7005,3.41));
#1067 = VECTOR('',#1068,1.);
#1068 = DIRECTION('',(1.,0.,0.));
#1069 = ORIENTED_EDGE('',*,*,#965,.T.);
#1070 = PLANE('',#1071);
#1071 = AXIS2_PLACEMENT_3D('',#1072,#1073,#1074);
#1072 = CARTESIAN_POINT('',(17.088272649226,23.7005,3.35));
#1073 = DIRECTION('',(0.,1.,0.));
#1074 = DIRECTION('',(0.,-0.,1.));
#1075 = ADVANCED_FACE('',(#1076),#1087,.F.);
#1076 = FACE_BOUND('',#1077,.F.);
#1077 = EDGE_LOOP('',(#1078,#1084,#1085,#1086));
#1078 = ORIENTED_EDGE('',*,*,#1079,.T.);
#1079 = EDGE_CURVE('',#1000,#1057,#1080,.T.);
#1080 = LINE('',#1081,#1082);
#1081 = CARTESIAN_POINT('',(13.198749217772,17.1005,3.41));
#1082 = VECTOR('',#1083,1.);
#1083 = DIRECTION('',(0.,1.,0.));
#1084 = ORIENTED_EDGE('',*,*,#1064,.T.);
#1085 = ORIENTED_EDGE('',*,*,#983,.F.);
#1086 = ORIENTED_EDGE('',*,*,#1007,.F.);
#1087 = PLANE('',#1088);
#1088 = AXIS2_PLACEMENT_3D('',#1089,#1090,#1091);
#1089 = CARTESIAN_POINT('',(13.198749217772,17.1005,3.41));
#1090 = DIRECTION('',(0.,0.,-1.));
#1091 = DIRECTION('',(1.,0.,0.));
#1092 = ADVANCED_FACE('',(#1093),#1112,.F.);
#1093 = FACE_BOUND('',#1094,.F.);
#1094 = EDGE_LOOP('',(#1095,#1096,#1104,#1111));
#1095 = ORIENTED_EDGE('',*,*,#1040,.T.);
#1096 = ORIENTED_EDGE('',*,*,#1097,.T.);
#1097 = EDGE_CURVE('',#1033,#1098,#1100,.T.);
#1098 = VERTEX_POINT('',#1099);
#1099 = CARTESIAN_POINT('',(12.736827704552,17.1005,3.571875));
#1100 = LINE('',#1101,#1102);
#1101 = CARTESIAN_POINT('',(12.66192151322,17.1005,3.478125));
#1102 = VECTOR('',#1103,1.);
#1103 = DIRECTION('',(0.624218261107,0.,0.78125));
#1104 = ORIENTED_EDGE('',*,*,#1105,.T.);
#1105 = EDGE_CURVE('',#1098,#1000,#1106,.T.);
#1106 = CIRCLE('',#1107,0.74);
#1107 = AXIS2_PLACEMENT_3D('',#1108,#1109,#1110);
#1108 = CARTESIAN_POINT('',(13.198749217772,17.1005,4.15));
#1109 = DIRECTION('',(0.,-1.,0.));
#1110 = DIRECTION('',(-0.624218261107,-0.,-0.78125));
#1111 = ORIENTED_EDGE('',*,*,#999,.F.);
#1112 = PLANE('',#1113);
#1113 = AXIS2_PLACEMENT_3D('',#1114,#1115,#1116);
#1114 = CARTESIAN_POINT('',(12.940666706537,17.1005,3.413543696523));
#1115 = DIRECTION('',(0.,1.,0.));
#1116 = DIRECTION('',(0.,-0.,1.));
#1117 = ADVANCED_FACE('',(#1118),#1145,.F.);
#1118 = FACE_BOUND('',#1119,.T.);
#1119 = EDGE_LOOP('',(#1120,#1130,#1137,#1138));
#1120 = ORIENTED_EDGE('',*,*,#1121,.T.);
#1121 = EDGE_CURVE('',#1122,#1124,#1126,.T.);
#1122 = VERTEX_POINT('',#1123);
#1123 = CARTESIAN_POINT('',(12.2,17.1005,3.64));
#1124 = VERTEX_POINT('',#1125);
#1125 = CARTESIAN_POINT('',(12.2,23.7005,3.64));
#1126 = LINE('',#1127,#1128);
#1127 = CARTESIAN_POINT('',(12.2,17.1005,3.64));
#1128 = VECTOR('',#1129,1.);
#1129 = DIRECTION('',(0.,1.,0.));
#1130 = ORIENTED_EDGE('',*,*,#1131,.T.);
#1131 = EDGE_CURVE('',#1124,#1024,#1132,.T.);
#1132 = CIRCLE('',#1133,0.74);
#1133 = AXIS2_PLACEMENT_3D('',#1134,#1135,#1136);
#1134 = CARTESIAN_POINT('',(12.2,23.7005,2.9));
#1135 = DIRECTION('',(0.,1.,0.));
#1136 = DIRECTION('',(2.400482215406E-15,-0.,1.));
#1137 = ORIENTED_EDGE('',*,*,#1032,.F.);
#1138 = ORIENTED_EDGE('',*,*,#1139,.F.);
#1139 = EDGE_CURVE('',#1122,#1033,#1140,.T.);
#1140 = CIRCLE('',#1141,0.74);
#1141 = AXIS2_PLACEMENT_3D('',#1142,#1143,#1144);
#1142 = CARTESIAN_POINT('',(12.2,17.1005,2.9));
#1143 = DIRECTION('',(0.,1.,0.));
#1144 = DIRECTION('',(2.400482215406E-15,-0.,1.));
#1145 = CYLINDRICAL_SURFACE('',#1146,0.74);
#1146 = AXIS2_PLACEMENT_3D('',#1147,#1148,#1149);
#1147 = CARTESIAN_POINT('',(12.2,17.1005,2.9));
#1148 = DIRECTION('',(-0.,-1.,-0.));
#1149 = DIRECTION('',(2.400482215406E-15,-0.,1.));
#1150 = ADVANCED_FACE('',(#1151),#1170,.T.);
#1151 = FACE_BOUND('',#1152,.T.);
#1152 = EDGE_LOOP('',(#1153,#1154,#1162,#1169));
#1153 = ORIENTED_EDGE('',*,*,#1023,.T.);
#1154 = ORIENTED_EDGE('',*,*,#1155,.T.);
#1155 = EDGE_CURVE('',#1024,#1156,#1158,.T.);
#1156 = VERTEX_POINT('',#1157);
#1157 = CARTESIAN_POINT('',(12.736827704552,23.7005,3.571875));
#1158 = LINE('',#1159,#1160);
#1159 = CARTESIAN_POINT('',(12.66192151322,23.7005,3.478125));
#1160 = VECTOR('',#1161,1.);
#1161 = DIRECTION('',(0.624218261107,0.,0.78125));
#1162 = ORIENTED_EDGE('',*,*,#1163,.T.);
#1163 = EDGE_CURVE('',#1156,#1057,#1164,.T.);
#1164 = CIRCLE('',#1165,0.74);
#1165 = AXIS2_PLACEMENT_3D('',#1166,#1167,#1168);
#1166 = CARTESIAN_POINT('',(13.198749217772,23.7005,4.15));
#1167 = DIRECTION('',(0.,-1.,0.));
#1168 = DIRECTION('',(-0.624218261107,-0.,-0.78125));
#1169 = ORIENTED_EDGE('',*,*,#1056,.F.);
#1170 = PLANE('',#1171);
#1171 = AXIS2_PLACEMENT_3D('',#1172,#1173,#1174);
#1172 = CARTESIAN_POINT('',(12.940666706537,23.7005,3.413543696523));
#1173 = DIRECTION('',(0.,1.,0.));
#1174 = DIRECTION('',(0.,-0.,1.));
#1175 = ADVANCED_FACE('',(#1176),#1187,.F.);
#1176 = FACE_BOUND('',#1177,.F.);
#1177 = EDGE_LOOP('',(#1178,#1184,#1185,#1186));
#1178 = ORIENTED_EDGE('',*,*,#1179,.T.);
#1179 = EDGE_CURVE('',#1098,#1156,#1180,.T.);
#1180 = LINE('',#1181,#1182);
#1181 = CARTESIAN_POINT('',(12.736827704552,17.1005,3.571875));
#1182 = VECTOR('',#1183,1.);
#1183 = DIRECTION('',(0.,1.,0.));
#1184 = ORIENTED_EDGE('',*,*,#1163,.T.);
#1185 = ORIENTED_EDGE('',*,*,#1079,.F.);
#1186 = ORIENTED_EDGE('',*,*,#1105,.F.);
#1187 = CYLINDRICAL_SURFACE('',#1188,0.74);
#1188 = AXIS2_PLACEMENT_3D('',#1189,#1190,#1191);
#1189 = CARTESIAN_POINT('',(13.198749217772,17.1005,4.15));
#1190 = DIRECTION('',(0.,-1.,0.));
#1191 = DIRECTION('',(-0.624218261107,-0.,-0.78125));
#1192 = ADVANCED_FACE('',(#1193),#1212,.T.);
#1193 = FACE_BOUND('',#1194,.T.);
#1194 = EDGE_LOOP('',(#1195,#1204,#1210,#1211));
#1195 = ORIENTED_EDGE('',*,*,#1196,.T.);
#1196 = EDGE_CURVE('',#1098,#1197,#1199,.T.);
#1197 = VERTEX_POINT('',#1198);
#1198 = CARTESIAN_POINT('',(12.2,17.1005,3.76));
#1199 = CIRCLE('',#1200,0.86);
#1200 = AXIS2_PLACEMENT_3D('',#1201,#1202,#1203);
#1201 = CARTESIAN_POINT('',(12.2,17.1005,2.9));
#1202 = DIRECTION('',(0.,-1.,0.));
#1203 = DIRECTION('',(0.624218261107,0.,0.78125));
#1204 = ORIENTED_EDGE('',*,*,#1205,.T.);
#1205 = EDGE_CURVE('',#1197,#1122,#1206,.T.);
#1206 = LINE('',#1207,#1208);
#1207 = CARTESIAN_POINT('',(12.2,17.1005,3.76));
#1208 = VECTOR('',#1209,1.);
#1209 = DIRECTION('',(0.,0.,-1.));
#1210 = ORIENTED_EDGE('',*,*,#1139,.T.);
#1211 = ORIENTED_EDGE('',*,*,#1097,.T.);
#1212 = PLANE('',#1213);
#1213 = AXIS2_PLACEMENT_3D('',#1214,#1215,#1216);
#1214 = CARTESIAN_POINT('',(12.458082511235,17.1005,3.636456303477));
#1215 = DIRECTION('',(-0.,-1.,-0.));
#1216 = DIRECTION('',(0.,0.,-1.));
#1217 = ADVANCED_FACE('',(#1218),#1243,.F.);
#1218 = FACE_BOUND('',#1219,.F.);
#1219 = EDGE_LOOP('',(#1220,#1221,#1229,#1237));
#1220 = ORIENTED_EDGE('',*,*,#1121,.T.);
#1221 = ORIENTED_EDGE('',*,*,#1222,.T.);
#1222 = EDGE_CURVE('',#1124,#1223,#1225,.T.);
#1223 = VERTEX_POINT('',#1224);
#1224 = CARTESIAN_POINT('',(8.352,23.7005,3.64));
#1225 = LINE('',#1226,#1227);
#1226 = CARTESIAN_POINT('',(12.2,23.7005,3.64));
#1227 = VECTOR('',#1228,1.);
#1228 = DIRECTION('',(-1.,0.,0.));
#1229 = ORIENTED_EDGE('',*,*,#1230,.F.);
#1230 = EDGE_CURVE('',#1231,#1223,#1233,.T.);
#1231 = VERTEX_POINT('',#1232);
#1232 = CARTESIAN_POINT('',(8.352,17.1005,3.64));
#1233 = LINE('',#1234,#1235);
#1234 = CARTESIAN_POINT('',(8.352,17.1005,3.64));
#1235 = VECTOR('',#1236,1.);
#1236 = DIRECTION('',(0.,1.,0.));
#1237 = ORIENTED_EDGE('',*,*,#1238,.F.);
#1238 = EDGE_CURVE('',#1122,#1231,#1239,.T.);
#1239 = LINE('',#1240,#1241);
#1240 = CARTESIAN_POINT('',(12.2,17.1005,3.64));
#1241 = VECTOR('',#1242,1.);
#1242 = DIRECTION('',(-1.,0.,0.));
#1243 = PLANE('',#1244);
#1244 = AXIS2_PLACEMENT_3D('',#1245,#1246,#1247);
#1245 = CARTESIAN_POINT('',(12.2,17.1005,3.64));
#1246 = DIRECTION('',(0.,-0.,1.));
#1247 = DIRECTION('',(-1.,0.,0.));
#1248 = ADVANCED_FACE('',(#1249),#1268,.F.);
#1249 = FACE_BOUND('',#1250,.F.);
#1250 = EDGE_LOOP('',(#1251,#1260,#1266,#1267));
#1251 = ORIENTED_EDGE('',*,*,#1252,.T.);
#1252 = EDGE_CURVE('',#1156,#1253,#1255,.T.);
#1253 = VERTEX_POINT('',#1254);
#1254 = CARTESIAN_POINT('',(12.2,23.7005,3.76));
#1255 = CIRCLE('',#1256,0.86);
#1256 = AXIS2_PLACEMENT_3D('',#1257,#1258,#1259);
#1257 = CARTESIAN_POINT('',(12.2,23.7005,2.9));
#1258 = DIRECTION('',(0.,-1.,0.));
#1259 = DIRECTION('',(0.624218261107,0.,0.78125));
#1260 = ORIENTED_EDGE('',*,*,#1261,.T.);
#1261 = EDGE_CURVE('',#1253,#1124,#1262,.T.);
#1262 = LINE('',#1263,#1264);
#1263 = CARTESIAN_POINT('',(12.2,23.7005,3.76));
#1264 = VECTOR('',#1265,1.);
#1265 = DIRECTION('',(0.,0.,-1.));
#1266 = ORIENTED_EDGE('',*,*,#1131,.T.);
#1267 = ORIENTED_EDGE('',*,*,#1155,.T.);
#1268 = PLANE('',#1269);
#1269 = AXIS2_PLACEMENT_3D('',#1270,#1271,#1272);
#1270 = CARTESIAN_POINT('',(12.458082511235,23.7005,3.636456303477));
#1271 = DIRECTION('',(-0.,-1.,-0.));
#1272 = DIRECTION('',(0.,0.,-1.));
#1273 = ADVANCED_FACE('',(#1274),#1285,.T.);
#1274 = FACE_BOUND('',#1275,.T.);
#1275 = EDGE_LOOP('',(#1276,#1277,#1278,#1284));
#1276 = ORIENTED_EDGE('',*,*,#1179,.T.);
#1277 = ORIENTED_EDGE('',*,*,#1252,.T.);
#1278 = ORIENTED_EDGE('',*,*,#1279,.F.);
#1279 = EDGE_CURVE('',#1197,#1253,#1280,.T.);
#1280 = LINE('',#1281,#1282);
#1281 = CARTESIAN_POINT('',(12.2,17.1005,3.76));
#1282 = VECTOR('',#1283,1.);
#1283 = DIRECTION('',(0.,1.,0.));
#1284 = ORIENTED_EDGE('',*,*,#1196,.F.);
#1285 = CYLINDRICAL_SURFACE('',#1286,0.86);
#1286 = AXIS2_PLACEMENT_3D('',#1287,#1288,#1289);
#1287 = CARTESIAN_POINT('',(12.2,17.1005,2.9));
#1288 = DIRECTION('',(0.,-1.,0.));
#1289 = DIRECTION('',(0.624218261107,0.,0.78125));
#1290 = ADVANCED_FACE('',(#1291),#1309,.F.);
#1291 = FACE_BOUND('',#1292,.F.);
#1292 = EDGE_LOOP('',(#1293,#1294,#1302,#1308));
#1293 = ORIENTED_EDGE('',*,*,#1238,.T.);
#1294 = ORIENTED_EDGE('',*,*,#1295,.T.);
#1295 = EDGE_CURVE('',#1231,#1296,#1298,.T.);
#1296 = VERTEX_POINT('',#1297);
#1297 = CARTESIAN_POINT('',(8.352,17.1005,3.76));
#1298 = LINE('',#1299,#1300);
#1299 = CARTESIAN_POINT('',(8.352,17.1005,3.64));
#1300 = VECTOR('',#1301,1.);
#1301 = DIRECTION('',(0.,0.,1.));
#1302 = ORIENTED_EDGE('',*,*,#1303,.T.);
#1303 = EDGE_CURVE('',#1296,#1197,#1304,.T.);
#1304 = LINE('',#1305,#1306);
#1305 = CARTESIAN_POINT('',(8.352,17.1005,3.76));
#1306 = VECTOR('',#1307,1.);
#1307 = DIRECTION('',(1.,0.,0.));
#1308 = ORIENTED_EDGE('',*,*,#1205,.T.);
#1309 = PLANE('',#1310);
#1310 = AXIS2_PLACEMENT_3D('',#1311,#1312,#1313);
#1311 = CARTESIAN_POINT('',(10.276,17.1005,3.7));
#1312 = DIRECTION('',(0.,1.,0.));
#1313 = DIRECTION('',(0.,-0.,1.));
#1314 = ADVANCED_FACE('',(#1315),#1333,.F.);
#1315 = FACE_BOUND('',#1316,.F.);
#1316 = EDGE_LOOP('',(#1317,#1318,#1326,#1332));
#1317 = ORIENTED_EDGE('',*,*,#1230,.T.);
#1318 = ORIENTED_EDGE('',*,*,#1319,.T.);
#1319 = EDGE_CURVE('',#1223,#1320,#1322,.T.);
#1320 = VERTEX_POINT('',#1321);
#1321 = CARTESIAN_POINT('',(8.352,23.7005,3.76));
#1322 = LINE('',#1323,#1324);
#1323 = CARTESIAN_POINT('',(8.352,23.7005,3.64));
#1324 = VECTOR('',#1325,1.);
#1325 = DIRECTION('',(0.,0.,1.));
#1326 = ORIENTED_EDGE('',*,*,#1327,.F.);
#1327 = EDGE_CURVE('',#1296,#1320,#1328,.T.);
#1328 = LINE('',#1329,#1330);
#1329 = CARTESIAN_POINT('',(8.352,17.1005,3.76));
#1330 = VECTOR('',#1331,1.);
#1331 = DIRECTION('',(0.,1.,0.));
#1332 = ORIENTED_EDGE('',*,*,#1295,.F.);
#1333 = PLANE('',#1334);
#1334 = AXIS2_PLACEMENT_3D('',#1335,#1336,#1337);
#1335 = CARTESIAN_POINT('',(8.352,17.1005,3.64));
#1336 = DIRECTION('',(1.,0.,0.));
#1337 = DIRECTION('',(0.,0.,1.));
#1338 = ADVANCED_FACE('',(#1339),#1350,.T.);
#1339 = FACE_BOUND('',#1340,.T.);
#1340 = EDGE_LOOP('',(#1341,#1342,#1343,#1349));
#1341 = ORIENTED_EDGE('',*,*,#1222,.T.);
#1342 = ORIENTED_EDGE('',*,*,#1319,.T.);
#1343 = ORIENTED_EDGE('',*,*,#1344,.T.);
#1344 = EDGE_CURVE('',#1320,#1253,#1345,.T.);
#1345 = LINE('',#1346,#1347);
#1346 = CARTESIAN_POINT('',(8.352,23.7005,3.76));
#1347 = VECTOR('',#1348,1.);
#1348 = DIRECTION('',(1.,0.,0.));
#1349 = ORIENTED_EDGE('',*,*,#1261,.T.);
#1350 = PLANE('',#1351);
#1351 = AXIS2_PLACEMENT_3D('',#1352,#1353,#1354);
#1352 = CARTESIAN_POINT('',(10.276,23.7005,3.7));
#1353 = DIRECTION('',(0.,1.,0.));
#1354 = DIRECTION('',(0.,-0.,1.));
#1355 = ADVANCED_FACE('',(#1356),#1362,.F.);
#1356 = FACE_BOUND('',#1357,.F.);
#1357 = EDGE_LOOP('',(#1358,#1359,#1360,#1361));
#1358 = ORIENTED_EDGE('',*,*,#1327,.T.);
#1359 = ORIENTED_EDGE('',*,*,#1344,.T.);
#1360 = ORIENTED_EDGE('',*,*,#1279,.F.);
#1361 = ORIENTED_EDGE('',*,*,#1303,.F.);
#1362 = PLANE('',#1363);
#1363 = AXIS2_PLACEMENT_3D('',#1364,#1365,#1366);
#1364 = CARTESIAN_POINT('',(8.352,17.1005,3.76));
#1365 = DIRECTION('',(0.,0.,-1.));
#1366 = DIRECTION('',(1.,0.,0.));
#1367 = ( GEOMETRIC_REPRESENTATION_CONTEXT(3) 
GLOBAL_UNCERTAINTY_ASSIGNED_CONTEXT((#1371)) 
GLOBAL_UNIT_ASSIGNED_CONTEXT((#1368,#1369,#1370)) REPRESENTATION_CONTEXT
('Context #1','3D Context with UNIT and UNCERTAINTY') );
#1368 = ( LENGTH_UNIT() NAMED_UNIT(*) SI_UNIT(.MILLI.,.METRE.) );
#1369 = ( NAMED_UNIT(*) PLANE_ANGLE_UNIT() SI_UNIT($,.RADIAN.) );
#1370 = ( NAMED_UNIT(*) SI_UNIT($,.STERADIAN.) SOLID_ANGLE_UNIT() );
#1371 = UNCERTAINTY_MEASURE_WITH_UNIT(LENGTH_MEASURE(1.E-07),#1368,
  'distance_accuracy_value','confusion accuracy');
#1372 = PRODUCT_RELATED_PRODUCT_CATEGORY('part',$,(#7));
ENDSEC;
END-ISO-10303-21;
