ISO-10303-21;
HEADER;
FILE_DESCRIPTION(('FreeCAD Model'),'2;1');
FILE_NAME('Open CASCADE Shape Model','2026-09-23T15:23:53',('Author'),(
    ''),'Open CASCADE STEP processor 7.8','FreeCAD','Unknown');
FILE_SCHEMA(('AUTOMOTIVE_DESIGN { 1 0 10303 214 1 1 1 1 }'));
ENDSEC;
DATA;
#1 = APPLICATION_PROTOCOL_DEFINITION('international standard',
  'automotive_design',2000,#2);
#2 = APPLICATION_CONTEXT(
  'core data for automotive mechanical design processes');
#3 = SHAPE_DEFINITION_REPRESENTATION(#4,#10);
#4 = PRODUCT_DEFINITION_SHAPE('','',#5);
#5 = PRODUCT_DEFINITION('design','',#6,#9);
#6 = PRODUCT_DEFINITION_FORMATION('','',#7);
#7 = PRODUCT('Q2_L_AM213_Adapter_Study','Q2_L_AM213_Adapter_Study','',(
    #8));
#8 = PRODUCT_CONTEXT('',#2,'mechanical');
#9 = PRODUCT_DEFINITION_CONTEXT('part definition',#2,'design');
#10 = SHAPE_REPRESENTATION('',(#11,#15,#19,#23),#27);
#11 = AXIS2_PLACEMENT_3D('',#12,#13,#14);
#12 = CARTESIAN_POINT('',(0.,0.,0.));
#13 = DIRECTION('',(0.,0.,1.));
#14 = DIRECTION('',(1.,0.,-0.));
#15 = AXIS2_PLACEMENT_3D('',#16,#17,#18);
#16 = CARTESIAN_POINT('',(0.,0.,0.));
#17 = DIRECTION('',(0.,0.,1.));
#18 = DIRECTION('',(1.,0.,0.));
#19 = AXIS2_PLACEMENT_3D('',#20,#21,#22);
#20 = CARTESIAN_POINT('',(0.,0.,0.));
#21 = DIRECTION('',(0.,0.,1.));
#22 = DIRECTION('',(1.,0.,0.));
#23 = AXIS2_PLACEMENT_3D('',#24,#25,#26);
#24 = CARTESIAN_POINT('',(0.,0.,0.));
#25 = DIRECTION('',(0.,0.,1.));
#26 = DIRECTION('',(1.,0.,0.));
#27 = ( GEOMETRIC_REPRESENTATION_CONTEXT(3) 
GLOBAL_UNCERTAINTY_ASSIGNED_CONTEXT((#31)) GLOBAL_UNIT_ASSIGNED_CONTEXT(
(#28,#29,#30)) REPRESENTATION_CONTEXT('Context #1',
  '3D Context with UNIT and UNCERTAINTY') );
#28 = ( LENGTH_UNIT() NAMED_UNIT(*) SI_UNIT(.MILLI.,.METRE.) );
#29 = ( NAMED_UNIT(*) PLANE_ANGLE_UNIT() SI_UNIT($,.RADIAN.) );
#30 = ( NAMED_UNIT(*) SI_UNIT($,.STERADIAN.) SOLID_ANGLE_UNIT() );
#31 = UNCERTAINTY_MEASURE_WITH_UNIT(LENGTH_MEASURE(1.E-07),#28,
  'distance_accuracy_value','confusion accuracy');
#32 = PRODUCT_RELATED_PRODUCT_CATEGORY('part',$,(#7));
#33 = SHAPE_DEFINITION_REPRESENTATION(#34,#40);
#34 = PRODUCT_DEFINITION_SHAPE('','',#35);
#35 = PRODUCT_DEFINITION('design','',#36,#39);
#36 = PRODUCT_DEFINITION_FORMATION('','',#37);
#37 = PRODUCT(
  'AM213 integral touch cover / 46.30 x37.50 x1.30 / NOT extra glass',
  'AM213 integral touch cover / 46.30 x37.50 x1.30 / NOT extra glass',''
  ,(#38));
#38 = PRODUCT_CONTEXT('',#2,'mechanical');
#39 = PRODUCT_DEFINITION_CONTEXT('part definition',#2,'design');
#40 = ADVANCED_BREP_SHAPE_REPRESENTATION('',(#11,#41),#331);
#41 = MANIFOLD_SOLID_BREP('',#42);
#42 = CLOSED_SHELL('',(#43,#83,#116,#147,#180,#211,#244,#275,#299,#315)
  );
#43 = ADVANCED_FACE('',(#44),#78,.F.);
#44 = FACE_BOUND('',#45,.F.);
#45 = EDGE_LOOP('',(#46,#56,#64,#72));
#46 = ORIENTED_EDGE('',*,*,#47,.T.);
#47 = EDGE_CURVE('',#48,#50,#52,.T.);
#48 = VERTEX_POINT('',#49);
#49 = CARTESIAN_POINT('',(11.8,0.85,13.8));
#50 = VERTEX_POINT('',#51);
#51 = CARTESIAN_POINT('',(11.8,0.85,15.1));
#52 = LINE('',#53,#54);
#53 = CARTESIAN_POINT('',(11.8,0.85,13.8));
#54 = VECTOR('',#55,1.);
#55 = DIRECTION('',(0.,0.,1.));
#56 = ORIENTED_EDGE('',*,*,#57,.T.);
#57 = EDGE_CURVE('',#50,#58,#60,.T.);
#58 = VERTEX_POINT('',#59);
#59 = CARTESIAN_POINT('',(38.2,0.85,15.1));
#60 = LINE('',#61,#62);
#61 = CARTESIAN_POINT('',(11.8,0.85,15.1));
#62 = VECTOR('',#63,1.);
#63 = DIRECTION('',(1.,0.,0.));
#64 = ORIENTED_EDGE('',*,*,#65,.F.);
#65 = EDGE_CURVE('',#66,#58,#68,.T.);
#66 = VERTEX_POINT('',#67);
#67 = CARTESIAN_POINT('',(38.2,0.85,13.8));
#68 = LINE('',#69,#70);
#69 = CARTESIAN_POINT('',(38.2,0.85,13.8));
#70 = VECTOR('',#71,1.);
#71 = DIRECTION('',(0.,0.,1.));
#72 = ORIENTED_EDGE('',*,*,#73,.F.);
#73 = EDGE_CURVE('',#48,#66,#74,.T.);
#74 = LINE('',#75,#76);
#75 = CARTESIAN_POINT('',(11.8,0.85,13.8));
#76 = VECTOR('',#77,1.);
#77 = DIRECTION('',(1.,0.,0.));
#78 = PLANE('',#79);
#79 = AXIS2_PLACEMENT_3D('',#80,#81,#82);
#80 = CARTESIAN_POINT('',(11.8,0.85,13.8));
#81 = DIRECTION('',(0.,1.,0.));
#82 = DIRECTION('',(1.,0.,0.));
#83 = ADVANCED_FACE('',(#84),#111,.T.);
#84 = FACE_BOUND('',#85,.F.);
#85 = EDGE_LOOP('',(#86,#87,#96,#104));
#86 = ORIENTED_EDGE('',*,*,#65,.T.);
#87 = ORIENTED_EDGE('',*,*,#88,.T.);
#88 = EDGE_CURVE('',#58,#89,#91,.T.);
#89 = VERTEX_POINT('',#90);
#90 = CARTESIAN_POINT('',(48.15,10.8,15.1));
#91 = CIRCLE('',#92,9.95);
#92 = AXIS2_PLACEMENT_3D('',#93,#94,#95);
#93 = CARTESIAN_POINT('',(38.2,10.8,15.1));
#94 = DIRECTION('',(0.,0.,1.));
#95 = DIRECTION('',(-7.1E-16,-1.,0.));
#96 = ORIENTED_EDGE('',*,*,#97,.F.);
#97 = EDGE_CURVE('',#98,#89,#100,.T.);
#98 = VERTEX_POINT('',#99);
#99 = CARTESIAN_POINT('',(48.15,10.8,13.8));
#100 = LINE('',#101,#102);
#101 = CARTESIAN_POINT('',(48.15,10.8,13.8));
#102 = VECTOR('',#103,1.);
#103 = DIRECTION('',(0.,0.,1.));
#104 = ORIENTED_EDGE('',*,*,#105,.F.);
#105 = EDGE_CURVE('',#66,#98,#106,.T.);
#106 = CIRCLE('',#107,9.95);
#107 = AXIS2_PLACEMENT_3D('',#108,#109,#110);
#108 = CARTESIAN_POINT('',(38.2,10.8,13.8));
#109 = DIRECTION('',(0.,0.,1.));
#110 = DIRECTION('',(-7.1E-16,-1.,0.));
#111 = CYLINDRICAL_SURFACE('',#112,9.95);
#112 = AXIS2_PLACEMENT_3D('',#113,#114,#115);
#113 = CARTESIAN_POINT('',(38.2,10.8,13.8));
#114 = DIRECTION('',(-0.,-0.,-1.));
#115 = DIRECTION('',(-7.1E-16,-1.,0.));
#116 = ADVANCED_FACE('',(#117),#142,.F.);
#117 = FACE_BOUND('',#118,.F.);
#118 = EDGE_LOOP('',(#119,#120,#128,#136));
#119 = ORIENTED_EDGE('',*,*,#97,.T.);
#120 = ORIENTED_EDGE('',*,*,#121,.T.);
#121 = EDGE_CURVE('',#89,#122,#124,.T.);
#122 = VERTEX_POINT('',#123);
#123 = CARTESIAN_POINT('',(48.15,28.4,15.1));
#124 = LINE('',#125,#126);
#125 = CARTESIAN_POINT('',(48.15,10.8,15.1));
#126 = VECTOR('',#127,1.);
#127 = DIRECTION('',(0.,1.,0.));
#128 = ORIENTED_EDGE('',*,*,#129,.F.);
#129 = EDGE_CURVE('',#130,#122,#132,.T.);
#130 = VERTEX_POINT('',#131);
#131 = CARTESIAN_POINT('',(48.15,28.4,13.8));
#132 = LINE('',#133,#134);
#133 = CARTESIAN_POINT('',(48.15,28.4,13.8));
#134 = VECTOR('',#135,1.);
#135 = DIRECTION('',(0.,0.,1.));
#136 = ORIENTED_EDGE('',*,*,#137,.F.);
#137 = EDGE_CURVE('',#98,#130,#138,.T.);
#138 = LINE('',#139,#140);
#139 = CARTESIAN_POINT('',(48.15,10.8,13.8));
#140 = VECTOR('',#141,1.);
#141 = DIRECTION('',(0.,1.,0.));
#142 = PLANE('',#143);
#143 = AXIS2_PLACEMENT_3D('',#144,#145,#146);
#144 = CARTESIAN_POINT('',(48.15,10.8,13.8));
#145 = DIRECTION('',(-1.,0.,0.));
#146 = DIRECTION('',(0.,1.,0.));
#147 = ADVANCED_FACE('',(#148),#175,.T.);
#148 = FACE_BOUND('',#149,.F.);
#149 = EDGE_LOOP('',(#150,#151,#160,#168));
#150 = ORIENTED_EDGE('',*,*,#129,.T.);
#151 = ORIENTED_EDGE('',*,*,#152,.T.);
#152 = EDGE_CURVE('',#122,#153,#155,.T.);
#153 = VERTEX_POINT('',#154);
#154 = CARTESIAN_POINT('',(38.2,38.35,15.1));
#155 = CIRCLE('',#156,9.95);
#156 = AXIS2_PLACEMENT_3D('',#157,#158,#159);
#157 = CARTESIAN_POINT('',(38.2,28.4,15.1));
#158 = DIRECTION('',(0.,-0.,1.));
#159 = DIRECTION('',(1.,3.6E-16,0.));
#160 = ORIENTED_EDGE('',*,*,#161,.F.);
#161 = EDGE_CURVE('',#162,#153,#164,.T.);
#162 = VERTEX_POINT('',#163);
#163 = CARTESIAN_POINT('',(38.2,38.35,13.8));
#164 = LINE('',#165,#166);
#165 = CARTESIAN_POINT('',(38.2,38.35,13.8));
#166 = VECTOR('',#167,1.);
#167 = DIRECTION('',(0.,0.,1.));
#168 = ORIENTED_EDGE('',*,*,#169,.F.);
#169 = EDGE_CURVE('',#130,#162,#170,.T.);
#170 = CIRCLE('',#171,9.95);
#171 = AXIS2_PLACEMENT_3D('',#172,#173,#174);
#172 = CARTESIAN_POINT('',(38.2,28.4,13.8));
#173 = DIRECTION('',(0.,-0.,1.));
#174 = DIRECTION('',(1.,3.6E-16,0.));
#175 = CYLINDRICAL_SURFACE('',#176,9.95);
#176 = AXIS2_PLACEMENT_3D('',#177,#178,#179);
#177 = CARTESIAN_POINT('',(38.2,28.4,13.8));
#178 = DIRECTION('',(-0.,-0.,-1.));
#179 = DIRECTION('',(1.,3.6E-16,0.));
#180 = ADVANCED_FACE('',(#181),#206,.F.);
#181 = FACE_BOUND('',#182,.F.);
#182 = EDGE_LOOP('',(#183,#184,#192,#200));
#183 = ORIENTED_EDGE('',*,*,#161,.T.);
#184 = ORIENTED_EDGE('',*,*,#185,.T.);
#185 = EDGE_CURVE('',#153,#186,#188,.T.);
#186 = VERTEX_POINT('',#187);
#187 = CARTESIAN_POINT('',(11.8,38.35,15.1));
#188 = LINE('',#189,#190);
#189 = CARTESIAN_POINT('',(38.2,38.35,15.1));
#190 = VECTOR('',#191,1.);
#191 = DIRECTION('',(-1.,0.,0.));
#192 = ORIENTED_EDGE('',*,*,#193,.F.);
#193 = EDGE_CURVE('',#194,#186,#196,.T.);
#194 = VERTEX_POINT('',#195);
#195 = CARTESIAN_POINT('',(11.8,38.35,13.8));
#196 = LINE('',#197,#198);
#197 = CARTESIAN_POINT('',(11.8,38.35,13.8));
#198 = VECTOR('',#199,1.);
#199 = DIRECTION('',(0.,0.,1.));
#200 = ORIENTED_EDGE('',*,*,#201,.F.);
#201 = EDGE_CURVE('',#162,#194,#202,.T.);
#202 = LINE('',#203,#204);
#203 = CARTESIAN_POINT('',(38.2,38.35,13.8));
#204 = VECTOR('',#205,1.);
#205 = DIRECTION('',(-1.,0.,0.));
#206 = PLANE('',#207);
#207 = AXIS2_PLACEMENT_3D('',#208,#209,#210);
#208 = CARTESIAN_POINT('',(38.2,38.35,13.8));
#209 = DIRECTION('',(0.,-1.,0.));
#210 = DIRECTION('',(-1.,0.,0.));
#211 = ADVANCED_FACE('',(#212),#239,.T.);
#212 = FACE_BOUND('',#213,.F.);
#213 = EDGE_LOOP('',(#214,#215,#224,#232));
#214 = ORIENTED_EDGE('',*,*,#193,.T.);
#215 = ORIENTED_EDGE('',*,*,#216,.T.);
#216 = EDGE_CURVE('',#186,#217,#219,.T.);
#217 = VERTEX_POINT('',#218);
#218 = CARTESIAN_POINT('',(1.85,28.4,15.1));
#219 = CIRCLE('',#220,9.95);
#220 = AXIS2_PLACEMENT_3D('',#221,#222,#223);
#221 = CARTESIAN_POINT('',(11.8,28.4,15.1));
#222 = DIRECTION('',(0.,-0.,1.));
#223 = DIRECTION('',(5.4E-16,1.,0.));
#224 = ORIENTED_EDGE('',*,*,#225,.F.);
#225 = EDGE_CURVE('',#226,#217,#228,.T.);
#226 = VERTEX_POINT('',#227);
#227 = CARTESIAN_POINT('',(1.85,28.4,13.8));
#228 = LINE('',#229,#230);
#229 = CARTESIAN_POINT('',(1.85,28.4,13.8));
#230 = VECTOR('',#231,1.);
#231 = DIRECTION('',(0.,0.,1.));
#232 = ORIENTED_EDGE('',*,*,#233,.F.);
#233 = EDGE_CURVE('',#194,#226,#234,.T.);
#234 = CIRCLE('',#235,9.95);
#235 = AXIS2_PLACEMENT_3D('',#236,#237,#238);
#236 = CARTESIAN_POINT('',(11.8,28.4,13.8));
#237 = DIRECTION('',(0.,-0.,1.));
#238 = DIRECTION('',(5.4E-16,1.,0.));
#239 = CYLINDRICAL_SURFACE('',#240,9.95);
#240 = AXIS2_PLACEMENT_3D('',#241,#242,#243);
#241 = CARTESIAN_POINT('',(11.8,28.4,13.8));
#242 = DIRECTION('',(-0.,-0.,-1.));
#243 = DIRECTION('',(5.4E-16,1.,0.));
#244 = ADVANCED_FACE('',(#245),#270,.F.);
#245 = FACE_BOUND('',#246,.F.);
#246 = EDGE_LOOP('',(#247,#248,#256,#264));
#247 = ORIENTED_EDGE('',*,*,#225,.T.);
#248 = ORIENTED_EDGE('',*,*,#249,.T.);
#249 = EDGE_CURVE('',#217,#250,#252,.T.);
#250 = VERTEX_POINT('',#251);
#251 = CARTESIAN_POINT('',(1.85,10.8,15.1));
#252 = LINE('',#253,#254);
#253 = CARTESIAN_POINT('',(1.85,28.4,15.1));
#254 = VECTOR('',#255,1.);
#255 = DIRECTION('',(0.,-1.,0.));
#256 = ORIENTED_EDGE('',*,*,#257,.F.);
#257 = EDGE_CURVE('',#258,#250,#260,.T.);
#258 = VERTEX_POINT('',#259);
#259 = CARTESIAN_POINT('',(1.85,10.8,13.8));
#260 = LINE('',#261,#262);
#261 = CARTESIAN_POINT('',(1.85,10.8,13.8));
#262 = VECTOR('',#263,1.);
#263 = DIRECTION('',(0.,0.,1.));
#264 = ORIENTED_EDGE('',*,*,#265,.F.);
#265 = EDGE_CURVE('',#226,#258,#266,.T.);
#266 = LINE('',#267,#268);
#267 = CARTESIAN_POINT('',(1.85,28.4,13.8));
#268 = VECTOR('',#269,1.);
#269 = DIRECTION('',(0.,-1.,0.));
#270 = PLANE('',#271);
#271 = AXIS2_PLACEMENT_3D('',#272,#273,#274);
#272 = CARTESIAN_POINT('',(1.85,28.4,13.8));
#273 = DIRECTION('',(1.,0.,0.));
#274 = DIRECTION('',(0.,-1.,0.));
#275 = ADVANCED_FACE('',(#276),#294,.T.);
#276 = FACE_BOUND('',#277,.F.);
#277 = EDGE_LOOP('',(#278,#279,#286,#287));
#278 = ORIENTED_EDGE('',*,*,#257,.T.);
#279 = ORIENTED_EDGE('',*,*,#280,.T.);
#280 = EDGE_CURVE('',#250,#50,#281,.T.);
#281 = CIRCLE('',#282,9.95);
#282 = AXIS2_PLACEMENT_3D('',#283,#284,#285);
#283 = CARTESIAN_POINT('',(11.8,10.8,15.1));
#284 = DIRECTION('',(0.,0.,1.));
#285 = DIRECTION('',(-1.,1.8E-16,0.));
#286 = ORIENTED_EDGE('',*,*,#47,.F.);
#287 = ORIENTED_EDGE('',*,*,#288,.F.);
#288 = EDGE_CURVE('',#258,#48,#289,.T.);
#289 = CIRCLE('',#290,9.95);
#290 = AXIS2_PLACEMENT_3D('',#291,#292,#293);
#291 = CARTESIAN_POINT('',(11.8,10.8,13.8));
#292 = DIRECTION('',(0.,0.,1.));
#293 = DIRECTION('',(-1.,1.8E-16,0.));
#294 = CYLINDRICAL_SURFACE('',#295,9.95);
#295 = AXIS2_PLACEMENT_3D('',#296,#297,#298);
#296 = CARTESIAN_POINT('',(11.8,10.8,13.8));
#297 = DIRECTION('',(-0.,-0.,-1.));
#298 = DIRECTION('',(-1.,1.8E-16,0.));
#299 = ADVANCED_FACE('',(#300),#310,.F.);
#300 = FACE_BOUND('',#301,.F.);
#301 = EDGE_LOOP('',(#302,#303,#304,#305,#306,#307,#308,#309));
#302 = ORIENTED_EDGE('',*,*,#73,.T.);
#303 = ORIENTED_EDGE('',*,*,#105,.T.);
#304 = ORIENTED_EDGE('',*,*,#137,.T.);
#305 = ORIENTED_EDGE('',*,*,#169,.T.);
#306 = ORIENTED_EDGE('',*,*,#201,.T.);
#307 = ORIENTED_EDGE('',*,*,#233,.T.);
#308 = ORIENTED_EDGE('',*,*,#265,.T.);
#309 = ORIENTED_EDGE('',*,*,#288,.T.);
#310 = PLANE('',#311);
#311 = AXIS2_PLACEMENT_3D('',#312,#313,#314);
#312 = CARTESIAN_POINT('',(25.,19.6,13.8));
#313 = DIRECTION('',(0.,0.,1.));
#314 = DIRECTION('',(1.,0.,0.));
#315 = ADVANCED_FACE('',(#316),#326,.T.);
#316 = FACE_BOUND('',#317,.T.);
#317 = EDGE_LOOP('',(#318,#319,#320,#321,#322,#323,#324,#325));
#318 = ORIENTED_EDGE('',*,*,#57,.T.);
#319 = ORIENTED_EDGE('',*,*,#88,.T.);
#320 = ORIENTED_EDGE('',*,*,#121,.T.);
#321 = ORIENTED_EDGE('',*,*,#152,.T.);
#322 = ORIENTED_EDGE('',*,*,#185,.T.);
#323 = ORIENTED_EDGE('',*,*,#216,.T.);
#324 = ORIENTED_EDGE('',*,*,#249,.T.);
#325 = ORIENTED_EDGE('',*,*,#280,.T.);
#326 = PLANE('',#327);
#327 = AXIS2_PLACEMENT_3D('',#328,#329,#330);
#328 = CARTESIAN_POINT('',(25.,19.6,15.1));
#329 = DIRECTION('',(0.,0.,1.));
#330 = DIRECTION('',(1.,0.,0.));
#331 = ( GEOMETRIC_REPRESENTATION_CONTEXT(3) 
GLOBAL_UNCERTAINTY_ASSIGNED_CONTEXT((#335)) GLOBAL_UNIT_ASSIGNED_CONTEXT
((#332,#333,#334)) REPRESENTATION_CONTEXT('Context #1',
  '3D Context with UNIT and UNCERTAINTY') );
#332 = ( LENGTH_UNIT() NAMED_UNIT(*) SI_UNIT(.MILLI.,.METRE.) );
#333 = ( NAMED_UNIT(*) PLANE_ANGLE_UNIT() SI_UNIT($,.RADIAN.) );
#334 = ( NAMED_UNIT(*) SI_UNIT($,.STERADIAN.) SOLID_ANGLE_UNIT() );
#335 = UNCERTAINTY_MEASURE_WITH_UNIT(LENGTH_MEASURE(1.E-07),#332,
  'distance_accuracy_value','confusion accuracy');
#336 = CONTEXT_DEPENDENT_SHAPE_REPRESENTATION(#337,#339);
#337 = ( REPRESENTATION_RELATIONSHIP('','',#40,#10) 
REPRESENTATION_RELATIONSHIP_WITH_TRANSFORMATION(#338) 
SHAPE_REPRESENTATION_RELATIONSHIP() );
#338 = ITEM_DEFINED_TRANSFORMATION('','',#11,#15);
#339 = PRODUCT_DEFINITION_SHAPE('Placement','Placement of an item',#340
  );
#340 = NEXT_ASSEMBLY_USAGE_OCCURRENCE('1',
  'AM213 integral touch cover / 46.30 x37.50 x1.30 / NOT extra glass',''
  ,#5,#35,$);
#341 = PRODUCT_RELATED_PRODUCT_CATEGORY('part',$,(#37));
#342 = SHAPE_DEFINITION_REPRESENTATION(#343,#349);
#343 = PRODUCT_DEFINITION_SHAPE('','',#344);
#344 = PRODUCT_DEFINITION('design','',#345,#348);
#345 = PRODUCT_DEFINITION_FORMATION('','',#346);
#346 = PRODUCT(
  'AM213 AMOLED panel / 43.14 x34.79 / stack excludes integral cover',
  'AM213 AMOLED panel / 43.14 x34.79 / stack excludes integral cover',''
  ,(#347));
#347 = PRODUCT_CONTEXT('',#2,'mechanical');
#348 = PRODUCT_DEFINITION_CONTEXT('part definition',#2,'design');
#349 = ADVANCED_BREP_SHAPE_REPRESENTATION('',(#11,#350),#640);
#350 = MANIFOLD_SOLID_BREP('',#351);
#351 = CLOSED_SHELL('',(#352,#392,#425,#456,#489,#520,#553,#584,#608,
    #624));
#352 = ADVANCED_FACE('',(#353),#387,.F.);
#353 = FACE_BOUND('',#354,.F.);
#354 = EDGE_LOOP('',(#355,#365,#373,#381));
#355 = ORIENTED_EDGE('',*,*,#356,.T.);
#356 = EDGE_CURVE('',#357,#359,#361,.T.);
#357 = VERTEX_POINT('',#358);
#358 = CARTESIAN_POINT('',(12.617312702282,2.205,12.82));
#359 = VERTEX_POINT('',#360);
#360 = CARTESIAN_POINT('',(12.617312702282,2.205,13.625));
#361 = LINE('',#362,#363);
#362 = CARTESIAN_POINT('',(12.617312702282,2.205,12.82));
#363 = VECTOR('',#364,1.);
#364 = DIRECTION('',(0.,0.,1.));
#365 = ORIENTED_EDGE('',*,*,#366,.T.);
#366 = EDGE_CURVE('',#359,#367,#369,.T.);
#367 = VERTEX_POINT('',#368);
#368 = CARTESIAN_POINT('',(38.337312702282,2.205,13.625));
#369 = LINE('',#370,#371);
#370 = CARTESIAN_POINT('',(12.617312702282,2.205,13.625));
#371 = VECTOR('',#372,1.);
#372 = DIRECTION('',(1.,0.,0.));
#373 = ORIENTED_EDGE('',*,*,#374,.F.);
#374 = EDGE_CURVE('',#375,#367,#377,.T.);
#375 = VERTEX_POINT('',#376);
#376 = CARTESIAN_POINT('',(38.337312702282,2.205,12.82));
#377 = LINE('',#378,#379);
#378 = CARTESIAN_POINT('',(38.337312702282,2.205,12.82));
#379 = VECTOR('',#380,1.);
#380 = DIRECTION('',(0.,0.,1.));
#381 = ORIENTED_EDGE('',*,*,#382,.F.);
#382 = EDGE_CURVE('',#357,#375,#383,.T.);
#383 = LINE('',#384,#385);
#384 = CARTESIAN_POINT('',(12.617312702282,2.205,12.82));
#385 = VECTOR('',#386,1.);
#386 = DIRECTION('',(1.,0.,0.));
#387 = PLANE('',#388);
#388 = AXIS2_PLACEMENT_3D('',#389,#390,#391);
#389 = CARTESIAN_POINT('',(12.617312702282,2.205,12.82));
#390 = DIRECTION('',(0.,1.,0.));
#391 = DIRECTION('',(1.,0.,0.));
#392 = ADVANCED_FACE('',(#393),#420,.T.);
#393 = FACE_BOUND('',#394,.F.);
#394 = EDGE_LOOP('',(#395,#396,#405,#413));
#395 = ORIENTED_EDGE('',*,*,#374,.T.);
#396 = ORIENTED_EDGE('',*,*,#397,.T.);
#397 = EDGE_CURVE('',#367,#398,#400,.T.);
#398 = VERTEX_POINT('',#399);
#399 = CARTESIAN_POINT('',(46.757312702282,10.625,13.625));
#400 = CIRCLE('',#401,8.42);
#401 = AXIS2_PLACEMENT_3D('',#402,#403,#404);
#402 = CARTESIAN_POINT('',(38.337312702282,10.625,13.625));
#403 = DIRECTION('',(-0.,0.,1.));
#404 = DIRECTION('',(0.,-1.,0.));
#405 = ORIENTED_EDGE('',*,*,#406,.F.);
#406 = EDGE_CURVE('',#407,#398,#409,.T.);
#407 = VERTEX_POINT('',#408);
#408 = CARTESIAN_POINT('',(46.757312702282,10.625,12.82));
#409 = LINE('',#410,#411);
#410 = CARTESIAN_POINT('',(46.757312702282,10.625,12.82));
#411 = VECTOR('',#412,1.);
#412 = DIRECTION('',(0.,0.,1.));
#413 = ORIENTED_EDGE('',*,*,#414,.F.);
#414 = EDGE_CURVE('',#375,#407,#415,.T.);
#415 = CIRCLE('',#416,8.42);
#416 = AXIS2_PLACEMENT_3D('',#417,#418,#419);
#417 = CARTESIAN_POINT('',(38.337312702282,10.625,12.82));
#418 = DIRECTION('',(-0.,0.,1.));
#419 = DIRECTION('',(0.,-1.,0.));
#420 = CYLINDRICAL_SURFACE('',#421,8.42);
#421 = AXIS2_PLACEMENT_3D('',#422,#423,#424);
#422 = CARTESIAN_POINT('',(38.337312702282,10.625,12.82));
#423 = DIRECTION('',(-0.,-0.,-1.));
#424 = DIRECTION('',(0.,-1.,0.));
#425 = ADVANCED_FACE('',(#426),#451,.F.);
#426 = FACE_BOUND('',#427,.F.);
#427 = EDGE_LOOP('',(#428,#429,#437,#445));
#428 = ORIENTED_EDGE('',*,*,#406,.T.);
#429 = ORIENTED_EDGE('',*,*,#430,.T.);
#430 = EDGE_CURVE('',#398,#431,#433,.T.);
#431 = VERTEX_POINT('',#432);
#432 = CARTESIAN_POINT('',(46.757312702282,28.575,13.625));
#433 = LINE('',#434,#435);
#434 = CARTESIAN_POINT('',(46.757312702282,10.625,13.625));
#435 = VECTOR('',#436,1.);
#436 = DIRECTION('',(0.,1.,0.));
#437 = ORIENTED_EDGE('',*,*,#438,.F.);
#438 = EDGE_CURVE('',#439,#431,#441,.T.);
#439 = VERTEX_POINT('',#440);
#440 = CARTESIAN_POINT('',(46.757312702282,28.575,12.82));
#441 = LINE('',#442,#443);
#442 = CARTESIAN_POINT('',(46.757312702282,28.575,12.82));
#443 = VECTOR('',#444,1.);
#444 = DIRECTION('',(0.,0.,1.));
#445 = ORIENTED_EDGE('',*,*,#446,.F.);
#446 = EDGE_CURVE('',#407,#439,#447,.T.);
#447 = LINE('',#448,#449);
#448 = CARTESIAN_POINT('',(46.757312702282,10.625,12.82));
#449 = VECTOR('',#450,1.);
#450 = DIRECTION('',(0.,1.,0.));
#451 = PLANE('',#452);
#452 = AXIS2_PLACEMENT_3D('',#453,#454,#455);
#453 = CARTESIAN_POINT('',(46.757312702282,10.625,12.82));
#454 = DIRECTION('',(-1.,0.,0.));
#455 = DIRECTION('',(0.,1.,0.));
#456 = ADVANCED_FACE('',(#457),#484,.T.);
#457 = FACE_BOUND('',#458,.F.);
#458 = EDGE_LOOP('',(#459,#460,#469,#477));
#459 = ORIENTED_EDGE('',*,*,#438,.T.);
#460 = ORIENTED_EDGE('',*,*,#461,.T.);
#461 = EDGE_CURVE('',#431,#462,#464,.T.);
#462 = VERTEX_POINT('',#463);
#463 = CARTESIAN_POINT('',(38.337312702282,36.995,13.625));
#464 = CIRCLE('',#465,8.42);
#465 = AXIS2_PLACEMENT_3D('',#466,#467,#468);
#466 = CARTESIAN_POINT('',(38.337312702282,28.575,13.625));
#467 = DIRECTION('',(0.,0.,1.));
#468 = DIRECTION('',(1.,0.,0.));
#469 = ORIENTED_EDGE('',*,*,#470,.F.);
#470 = EDGE_CURVE('',#471,#462,#473,.T.);
#471 = VERTEX_POINT('',#472);
#472 = CARTESIAN_POINT('',(38.337312702282,36.995,12.82));
#473 = LINE('',#474,#475);
#474 = CARTESIAN_POINT('',(38.337312702282,36.995,12.82));
#475 = VECTOR('',#476,1.);
#476 = DIRECTION('',(0.,0.,1.));
#477 = ORIENTED_EDGE('',*,*,#478,.F.);
#478 = EDGE_CURVE('',#439,#471,#479,.T.);
#479 = CIRCLE('',#480,8.42);
#480 = AXIS2_PLACEMENT_3D('',#481,#482,#483);
#481 = CARTESIAN_POINT('',(38.337312702282,28.575,12.82));
#482 = DIRECTION('',(0.,0.,1.));
#483 = DIRECTION('',(1.,0.,0.));
#484 = CYLINDRICAL_SURFACE('',#485,8.42);
#485 = AXIS2_PLACEMENT_3D('',#486,#487,#488);
#486 = CARTESIAN_POINT('',(38.337312702282,28.575,12.82));
#487 = DIRECTION('',(-0.,-0.,-1.));
#488 = DIRECTION('',(1.,0.,0.));
#489 = ADVANCED_FACE('',(#490),#515,.F.);
#490 = FACE_BOUND('',#491,.F.);
#491 = EDGE_LOOP('',(#492,#493,#501,#509));
#492 = ORIENTED_EDGE('',*,*,#470,.T.);
#493 = ORIENTED_EDGE('',*,*,#494,.T.);
#494 = EDGE_CURVE('',#462,#495,#497,.T.);
#495 = VERTEX_POINT('',#496);
#496 = CARTESIAN_POINT('',(12.617312702282,36.995,13.625));
#497 = LINE('',#498,#499);
#498 = CARTESIAN_POINT('',(38.337312702282,36.995,13.625));
#499 = VECTOR('',#500,1.);
#500 = DIRECTION('',(-1.,0.,0.));
#501 = ORIENTED_EDGE('',*,*,#502,.F.);
#502 = EDGE_CURVE('',#503,#495,#505,.T.);
#503 = VERTEX_POINT('',#504);
#504 = CARTESIAN_POINT('',(12.617312702282,36.995,12.82));
#505 = LINE('',#506,#507);
#506 = CARTESIAN_POINT('',(12.617312702282,36.995,12.82));
#507 = VECTOR('',#508,1.);
#508 = DIRECTION('',(0.,0.,1.));
#509 = ORIENTED_EDGE('',*,*,#510,.F.);
#510 = EDGE_CURVE('',#471,#503,#511,.T.);
#511 = LINE('',#512,#513);
#512 = CARTESIAN_POINT('',(38.337312702282,36.995,12.82));
#513 = VECTOR('',#514,1.);
#514 = DIRECTION('',(-1.,0.,0.));
#515 = PLANE('',#516);
#516 = AXIS2_PLACEMENT_3D('',#517,#518,#519);
#517 = CARTESIAN_POINT('',(38.337312702282,36.995,12.82));
#518 = DIRECTION('',(0.,-1.,0.));
#519 = DIRECTION('',(-1.,0.,0.));
#520 = ADVANCED_FACE('',(#521),#548,.T.);
#521 = FACE_BOUND('',#522,.F.);
#522 = EDGE_LOOP('',(#523,#524,#533,#541));
#523 = ORIENTED_EDGE('',*,*,#502,.T.);
#524 = ORIENTED_EDGE('',*,*,#525,.T.);
#525 = EDGE_CURVE('',#495,#526,#528,.T.);
#526 = VERTEX_POINT('',#527);
#527 = CARTESIAN_POINT('',(3.617312702282,27.995,13.625));
#528 = CIRCLE('',#529,9.);
#529 = AXIS2_PLACEMENT_3D('',#530,#531,#532);
#530 = CARTESIAN_POINT('',(12.617312702282,27.995,13.625));
#531 = DIRECTION('',(0.,0.,1.));
#532 = DIRECTION('',(-2.E-16,1.,0.));
#533 = ORIENTED_EDGE('',*,*,#534,.F.);
#534 = EDGE_CURVE('',#535,#526,#537,.T.);
#535 = VERTEX_POINT('',#536);
#536 = CARTESIAN_POINT('',(3.617312702282,27.995,12.82));
#537 = LINE('',#538,#539);
#538 = CARTESIAN_POINT('',(3.617312702282,27.995,12.82));
#539 = VECTOR('',#540,1.);
#540 = DIRECTION('',(0.,0.,1.));
#541 = ORIENTED_EDGE('',*,*,#542,.F.);
#542 = EDGE_CURVE('',#503,#535,#543,.T.);
#543 = CIRCLE('',#544,9.);
#544 = AXIS2_PLACEMENT_3D('',#545,#546,#547);
#545 = CARTESIAN_POINT('',(12.617312702282,27.995,12.82));
#546 = DIRECTION('',(0.,0.,1.));
#547 = DIRECTION('',(-2.E-16,1.,0.));
#548 = CYLINDRICAL_SURFACE('',#549,9.);
#549 = AXIS2_PLACEMENT_3D('',#550,#551,#552);
#550 = CARTESIAN_POINT('',(12.617312702282,27.995,12.82));
#551 = DIRECTION('',(-0.,-0.,-1.));
#552 = DIRECTION('',(-2.E-16,1.,0.));
#553 = ADVANCED_FACE('',(#554),#579,.F.);
#554 = FACE_BOUND('',#555,.F.);
#555 = EDGE_LOOP('',(#556,#557,#565,#573));
#556 = ORIENTED_EDGE('',*,*,#534,.T.);
#557 = ORIENTED_EDGE('',*,*,#558,.T.);
#558 = EDGE_CURVE('',#526,#559,#561,.T.);
#559 = VERTEX_POINT('',#560);
#560 = CARTESIAN_POINT('',(3.617312702282,11.205,13.625));
#561 = LINE('',#562,#563);
#562 = CARTESIAN_POINT('',(3.617312702282,27.995,13.625));
#563 = VECTOR('',#564,1.);
#564 = DIRECTION('',(0.,-1.,0.));
#565 = ORIENTED_EDGE('',*,*,#566,.F.);
#566 = EDGE_CURVE('',#567,#559,#569,.T.);
#567 = VERTEX_POINT('',#568);
#568 = CARTESIAN_POINT('',(3.617312702282,11.205,12.82));
#569 = LINE('',#570,#571);
#570 = CARTESIAN_POINT('',(3.617312702282,11.205,12.82));
#571 = VECTOR('',#572,1.);
#572 = DIRECTION('',(0.,0.,1.));
#573 = ORIENTED_EDGE('',*,*,#574,.F.);
#574 = EDGE_CURVE('',#535,#567,#575,.T.);
#575 = LINE('',#576,#577);
#576 = CARTESIAN_POINT('',(3.617312702282,27.995,12.82));
#577 = VECTOR('',#578,1.);
#578 = DIRECTION('',(0.,-1.,0.));
#579 = PLANE('',#580);
#580 = AXIS2_PLACEMENT_3D('',#581,#582,#583);
#581 = CARTESIAN_POINT('',(3.617312702282,27.995,12.82));
#582 = DIRECTION('',(1.,0.,0.));
#583 = DIRECTION('',(0.,-1.,0.));
#584 = ADVANCED_FACE('',(#585),#603,.T.);
#585 = FACE_BOUND('',#586,.F.);
#586 = EDGE_LOOP('',(#587,#588,#595,#596));
#587 = ORIENTED_EDGE('',*,*,#566,.T.);
#588 = ORIENTED_EDGE('',*,*,#589,.T.);
#589 = EDGE_CURVE('',#559,#359,#590,.T.);
#590 = CIRCLE('',#591,9.);
#591 = AXIS2_PLACEMENT_3D('',#592,#593,#594);
#592 = CARTESIAN_POINT('',(12.617312702282,11.205,13.625));
#593 = DIRECTION('',(0.,0.,1.));
#594 = DIRECTION('',(-1.,7.9E-16,0.));
#595 = ORIENTED_EDGE('',*,*,#356,.F.);
#596 = ORIENTED_EDGE('',*,*,#597,.F.);
#597 = EDGE_CURVE('',#567,#357,#598,.T.);
#598 = CIRCLE('',#599,9.);
#599 = AXIS2_PLACEMENT_3D('',#600,#601,#602);
#600 = CARTESIAN_POINT('',(12.617312702282,11.205,12.82));
#601 = DIRECTION('',(0.,0.,1.));
#602 = DIRECTION('',(-1.,7.9E-16,0.));
#603 = CYLINDRICAL_SURFACE('',#604,9.);
#604 = AXIS2_PLACEMENT_3D('',#605,#606,#607);
#605 = CARTESIAN_POINT('',(12.617312702282,11.205,12.82));
#606 = DIRECTION('',(-0.,-0.,-1.));
#607 = DIRECTION('',(-1.,7.9E-16,0.));
#608 = ADVANCED_FACE('',(#609),#619,.F.);
#609 = FACE_BOUND('',#610,.F.);
#610 = EDGE_LOOP('',(#611,#612,#613,#614,#615,#616,#617,#618));
#611 = ORIENTED_EDGE('',*,*,#382,.T.);
#612 = ORIENTED_EDGE('',*,*,#414,.T.);
#613 = ORIENTED_EDGE('',*,*,#446,.T.);
#614 = ORIENTED_EDGE('',*,*,#478,.T.);
#615 = ORIENTED_EDGE('',*,*,#510,.T.);
#616 = ORIENTED_EDGE('',*,*,#542,.T.);
#617 = ORIENTED_EDGE('',*,*,#574,.T.);
#618 = ORIENTED_EDGE('',*,*,#597,.T.);
#619 = PLANE('',#620);
#620 = AXIS2_PLACEMENT_3D('',#621,#622,#623);
#621 = CARTESIAN_POINT('',(25.279585929581,19.6,12.82));
#622 = DIRECTION('',(0.,0.,1.));
#623 = DIRECTION('',(1.,0.,0.));
#624 = ADVANCED_FACE('',(#625),#635,.T.);
#625 = FACE_BOUND('',#626,.T.);
#626 = EDGE_LOOP('',(#627,#628,#629,#630,#631,#632,#633,#634));
#627 = ORIENTED_EDGE('',*,*,#366,.T.);
#628 = ORIENTED_EDGE('',*,*,#397,.T.);
#629 = ORIENTED_EDGE('',*,*,#430,.T.);
#630 = ORIENTED_EDGE('',*,*,#461,.T.);
#631 = ORIENTED_EDGE('',*,*,#494,.T.);
#632 = ORIENTED_EDGE('',*,*,#525,.T.);
#633 = ORIENTED_EDGE('',*,*,#558,.T.);
#634 = ORIENTED_EDGE('',*,*,#589,.T.);
#635 = PLANE('',#636);
#636 = AXIS2_PLACEMENT_3D('',#637,#638,#639);
#637 = CARTESIAN_POINT('',(25.279585929581,19.6,13.625));
#638 = DIRECTION('',(0.,0.,1.));
#639 = DIRECTION('',(1.,0.,0.));
#640 = ( GEOMETRIC_REPRESENTATION_CONTEXT(3) 
GLOBAL_UNCERTAINTY_ASSIGNED_CONTEXT((#644)) GLOBAL_UNIT_ASSIGNED_CONTEXT
((#641,#642,#643)) REPRESENTATION_CONTEXT('Context #1',
  '3D Context with UNIT and UNCERTAINTY') );
#641 = ( LENGTH_UNIT() NAMED_UNIT(*) SI_UNIT(.MILLI.,.METRE.) );
#642 = ( NAMED_UNIT(*) PLANE_ANGLE_UNIT() SI_UNIT($,.RADIAN.) );
#643 = ( NAMED_UNIT(*) SI_UNIT($,.STERADIAN.) SOLID_ANGLE_UNIT() );
#644 = UNCERTAINTY_MEASURE_WITH_UNIT(LENGTH_MEASURE(1.E-07),#641,
  'distance_accuracy_value','confusion accuracy');
#645 = CONTEXT_DEPENDENT_SHAPE_REPRESENTATION(#646,#648);
#646 = ( REPRESENTATION_RELATIONSHIP('','',#349,#10) 
REPRESENTATION_RELATIONSHIP_WITH_TRANSFORMATION(#647) 
SHAPE_REPRESENTATION_RELATIONSHIP() );
#647 = ITEM_DEFINED_TRANSFORMATION('','',#11,#19);
#648 = PRODUCT_DEFINITION_SHAPE('Placement','Placement of an item',#649
  );
#649 = NEXT_ASSEMBLY_USAGE_OCCURRENCE('2',
  'AM213 AMOLED panel / 43.14 x34.79 / stack excludes integral cover',''
  ,#5,#344,$);
#650 = PRODUCT_RELATED_PRODUCT_CATEGORY('part',$,(#346));
#651 = SHAPE_DEFINITION_REPRESENTATION(#652,#658);
#652 = PRODUCT_DEFINITION_SHAPE('','',#653);
#653 = PRODUCT_DEFINITION('design','',#654,#657);
#654 = PRODUCT_DEFINITION_FORMATION('','',#655);
#655 = PRODUCT('Factory OCA bond / 0.175 mm',
  'Factory OCA bond / 0.175 mm','',(#656));
#656 = PRODUCT_CONTEXT('',#2,'mechanical');
#657 = PRODUCT_DEFINITION_CONTEXT('part definition',#2,'design');
#658 = ADVANCED_BREP_SHAPE_REPRESENTATION('',(#11,#659),#949);
#659 = MANIFOLD_SOLID_BREP('',#660);
#660 = CLOSED_SHELL('',(#661,#701,#734,#765,#798,#829,#862,#893,#917,
    #933));
#661 = ADVANCED_FACE('',(#662),#696,.F.);
#662 = FACE_BOUND('',#663,.F.);
#663 = EDGE_LOOP('',(#664,#674,#682,#690));
#664 = ORIENTED_EDGE('',*,*,#665,.T.);
#665 = EDGE_CURVE('',#666,#668,#670,.T.);
#666 = VERTEX_POINT('',#667);
#667 = CARTESIAN_POINT('',(12.617312702282,2.205,13.625));
#668 = VERTEX_POINT('',#669);
#669 = CARTESIAN_POINT('',(12.617312702282,2.205,13.8));
#670 = LINE('',#671,#672);
#671 = CARTESIAN_POINT('',(12.617312702282,2.205,13.625));
#672 = VECTOR('',#673,1.);
#673 = DIRECTION('',(0.,0.,1.));
#674 = ORIENTED_EDGE('',*,*,#675,.T.);
#675 = EDGE_CURVE('',#668,#676,#678,.T.);
#676 = VERTEX_POINT('',#677);
#677 = CARTESIAN_POINT('',(38.337312702282,2.205,13.8));
#678 = LINE('',#679,#680);
#679 = CARTESIAN_POINT('',(12.617312702282,2.205,13.8));
#680 = VECTOR('',#681,1.);
#681 = DIRECTION('',(1.,0.,0.));
#682 = ORIENTED_EDGE('',*,*,#683,.F.);
#683 = EDGE_CURVE('',#684,#676,#686,.T.);
#684 = VERTEX_POINT('',#685);
#685 = CARTESIAN_POINT('',(38.337312702282,2.205,13.625));
#686 = LINE('',#687,#688);
#687 = CARTESIAN_POINT('',(38.337312702282,2.205,13.625));
#688 = VECTOR('',#689,1.);
#689 = DIRECTION('',(0.,0.,1.));
#690 = ORIENTED_EDGE('',*,*,#691,.F.);
#691 = EDGE_CURVE('',#666,#684,#692,.T.);
#692 = LINE('',#693,#694);
#693 = CARTESIAN_POINT('',(12.617312702282,2.205,13.625));
#694 = VECTOR('',#695,1.);
#695 = DIRECTION('',(1.,0.,0.));
#696 = PLANE('',#697);
#697 = AXIS2_PLACEMENT_3D('',#698,#699,#700);
#698 = CARTESIAN_POINT('',(12.617312702282,2.205,13.625));
#699 = DIRECTION('',(0.,1.,0.));
#700 = DIRECTION('',(1.,0.,0.));
#701 = ADVANCED_FACE('',(#702),#729,.T.);
#702 = FACE_BOUND('',#703,.F.);
#703 = EDGE_LOOP('',(#704,#705,#714,#722));
#704 = ORIENTED_EDGE('',*,*,#683,.T.);
#705 = ORIENTED_EDGE('',*,*,#706,.T.);
#706 = EDGE_CURVE('',#676,#707,#709,.T.);
#707 = VERTEX_POINT('',#708);
#708 = CARTESIAN_POINT('',(46.757312702282,10.625,13.8));
#709 = CIRCLE('',#710,8.42);
#710 = AXIS2_PLACEMENT_3D('',#711,#712,#713);
#711 = CARTESIAN_POINT('',(38.337312702282,10.625,13.8));
#712 = DIRECTION('',(-0.,0.,1.));
#713 = DIRECTION('',(0.,-1.,0.));
#714 = ORIENTED_EDGE('',*,*,#715,.F.);
#715 = EDGE_CURVE('',#716,#707,#718,.T.);
#716 = VERTEX_POINT('',#717);
#717 = CARTESIAN_POINT('',(46.757312702282,10.625,13.625));
#718 = LINE('',#719,#720);
#719 = CARTESIAN_POINT('',(46.757312702282,10.625,13.625));
#720 = VECTOR('',#721,1.);
#721 = DIRECTION('',(0.,0.,1.));
#722 = ORIENTED_EDGE('',*,*,#723,.F.);
#723 = EDGE_CURVE('',#684,#716,#724,.T.);
#724 = CIRCLE('',#725,8.42);
#725 = AXIS2_PLACEMENT_3D('',#726,#727,#728);
#726 = CARTESIAN_POINT('',(38.337312702282,10.625,13.625));
#727 = DIRECTION('',(-0.,0.,1.));
#728 = DIRECTION('',(0.,-1.,0.));
#729 = CYLINDRICAL_SURFACE('',#730,8.42);
#730 = AXIS2_PLACEMENT_3D('',#731,#732,#733);
#731 = CARTESIAN_POINT('',(38.337312702282,10.625,13.625));
#732 = DIRECTION('',(-0.,-0.,-1.));
#733 = DIRECTION('',(0.,-1.,0.));
#734 = ADVANCED_FACE('',(#735),#760,.F.);
#735 = FACE_BOUND('',#736,.F.);
#736 = EDGE_LOOP('',(#737,#738,#746,#754));
#737 = ORIENTED_EDGE('',*,*,#715,.T.);
#738 = ORIENTED_EDGE('',*,*,#739,.T.);
#739 = EDGE_CURVE('',#707,#740,#742,.T.);
#740 = VERTEX_POINT('',#741);
#741 = CARTESIAN_POINT('',(46.757312702282,28.575,13.8));
#742 = LINE('',#743,#744);
#743 = CARTESIAN_POINT('',(46.757312702282,10.625,13.8));
#744 = VECTOR('',#745,1.);
#745 = DIRECTION('',(0.,1.,0.));
#746 = ORIENTED_EDGE('',*,*,#747,.F.);
#747 = EDGE_CURVE('',#748,#740,#750,.T.);
#748 = VERTEX_POINT('',#749);
#749 = CARTESIAN_POINT('',(46.757312702282,28.575,13.625));
#750 = LINE('',#751,#752);
#751 = CARTESIAN_POINT('',(46.757312702282,28.575,13.625));
#752 = VECTOR('',#753,1.);
#753 = DIRECTION('',(0.,0.,1.));
#754 = ORIENTED_EDGE('',*,*,#755,.F.);
#755 = EDGE_CURVE('',#716,#748,#756,.T.);
#756 = LINE('',#757,#758);
#757 = CARTESIAN_POINT('',(46.757312702282,10.625,13.625));
#758 = VECTOR('',#759,1.);
#759 = DIRECTION('',(0.,1.,0.));
#760 = PLANE('',#761);
#761 = AXIS2_PLACEMENT_3D('',#762,#763,#764);
#762 = CARTESIAN_POINT('',(46.757312702282,10.625,13.625));
#763 = DIRECTION('',(-1.,0.,0.));
#764 = DIRECTION('',(0.,1.,0.));
#765 = ADVANCED_FACE('',(#766),#793,.T.);
#766 = FACE_BOUND('',#767,.F.);
#767 = EDGE_LOOP('',(#768,#769,#778,#786));
#768 = ORIENTED_EDGE('',*,*,#747,.T.);
#769 = ORIENTED_EDGE('',*,*,#770,.T.);
#770 = EDGE_CURVE('',#740,#771,#773,.T.);
#771 = VERTEX_POINT('',#772);
#772 = CARTESIAN_POINT('',(38.337312702282,36.995,13.8));
#773 = CIRCLE('',#774,8.42);
#774 = AXIS2_PLACEMENT_3D('',#775,#776,#777);
#775 = CARTESIAN_POINT('',(38.337312702282,28.575,13.8));
#776 = DIRECTION('',(0.,0.,1.));
#777 = DIRECTION('',(1.,0.,0.));
#778 = ORIENTED_EDGE('',*,*,#779,.F.);
#779 = EDGE_CURVE('',#780,#771,#782,.T.);
#780 = VERTEX_POINT('',#781);
#781 = CARTESIAN_POINT('',(38.337312702282,36.995,13.625));
#782 = LINE('',#783,#784);
#783 = CARTESIAN_POINT('',(38.337312702282,36.995,13.625));
#784 = VECTOR('',#785,1.);
#785 = DIRECTION('',(0.,0.,1.));
#786 = ORIENTED_EDGE('',*,*,#787,.F.);
#787 = EDGE_CURVE('',#748,#780,#788,.T.);
#788 = CIRCLE('',#789,8.42);
#789 = AXIS2_PLACEMENT_3D('',#790,#791,#792);
#790 = CARTESIAN_POINT('',(38.337312702282,28.575,13.625));
#791 = DIRECTION('',(0.,0.,1.));
#792 = DIRECTION('',(1.,0.,0.));
#793 = CYLINDRICAL_SURFACE('',#794,8.42);
#794 = AXIS2_PLACEMENT_3D('',#795,#796,#797);
#795 = CARTESIAN_POINT('',(38.337312702282,28.575,13.625));
#796 = DIRECTION('',(-0.,-0.,-1.));
#797 = DIRECTION('',(1.,0.,0.));
#798 = ADVANCED_FACE('',(#799),#824,.F.);
#799 = FACE_BOUND('',#800,.F.);
#800 = EDGE_LOOP('',(#801,#802,#810,#818));
#801 = ORIENTED_EDGE('',*,*,#779,.T.);
#802 = ORIENTED_EDGE('',*,*,#803,.T.);
#803 = EDGE_CURVE('',#771,#804,#806,.T.);
#804 = VERTEX_POINT('',#805);
#805 = CARTESIAN_POINT('',(12.617312702282,36.995,13.8));
#806 = LINE('',#807,#808);
#807 = CARTESIAN_POINT('',(38.337312702282,36.995,13.8));
#808 = VECTOR('',#809,1.);
#809 = DIRECTION('',(-1.,0.,0.));
#810 = ORIENTED_EDGE('',*,*,#811,.F.);
#811 = EDGE_CURVE('',#812,#804,#814,.T.);
#812 = VERTEX_POINT('',#813);
#813 = CARTESIAN_POINT('',(12.617312702282,36.995,13.625));
#814 = LINE('',#815,#816);
#815 = CARTESIAN_POINT('',(12.617312702282,36.995,13.625));
#816 = VECTOR('',#817,1.);
#817 = DIRECTION('',(0.,0.,1.));
#818 = ORIENTED_EDGE('',*,*,#819,.F.);
#819 = EDGE_CURVE('',#780,#812,#820,.T.);
#820 = LINE('',#821,#822);
#821 = CARTESIAN_POINT('',(38.337312702282,36.995,13.625));
#822 = VECTOR('',#823,1.);
#823 = DIRECTION('',(-1.,0.,0.));
#824 = PLANE('',#825);
#825 = AXIS2_PLACEMENT_3D('',#826,#827,#828);
#826 = CARTESIAN_POINT('',(38.337312702282,36.995,13.625));
#827 = DIRECTION('',(0.,-1.,0.));
#828 = DIRECTION('',(-1.,0.,0.));
#829 = ADVANCED_FACE('',(#830),#857,.T.);
#830 = FACE_BOUND('',#831,.F.);
#831 = EDGE_LOOP('',(#832,#833,#842,#850));
#832 = ORIENTED_EDGE('',*,*,#811,.T.);
#833 = ORIENTED_EDGE('',*,*,#834,.T.);
#834 = EDGE_CURVE('',#804,#835,#837,.T.);
#835 = VERTEX_POINT('',#836);
#836 = CARTESIAN_POINT('',(3.617312702282,27.995,13.8));
#837 = CIRCLE('',#838,9.);
#838 = AXIS2_PLACEMENT_3D('',#839,#840,#841);
#839 = CARTESIAN_POINT('',(12.617312702282,27.995,13.8));
#840 = DIRECTION('',(0.,0.,1.));
#841 = DIRECTION('',(-2.E-16,1.,0.));
#842 = ORIENTED_EDGE('',*,*,#843,.F.);
#843 = EDGE_CURVE('',#844,#835,#846,.T.);
#844 = VERTEX_POINT('',#845);
#845 = CARTESIAN_POINT('',(3.617312702282,27.995,13.625));
#846 = LINE('',#847,#848);
#847 = CARTESIAN_POINT('',(3.617312702282,27.995,13.625));
#848 = VECTOR('',#849,1.);
#849 = DIRECTION('',(0.,0.,1.));
#850 = ORIENTED_EDGE('',*,*,#851,.F.);
#851 = EDGE_CURVE('',#812,#844,#852,.T.);
#852 = CIRCLE('',#853,9.);
#853 = AXIS2_PLACEMENT_3D('',#854,#855,#856);
#854 = CARTESIAN_POINT('',(12.617312702282,27.995,13.625));
#855 = DIRECTION('',(0.,0.,1.));
#856 = DIRECTION('',(-2.E-16,1.,0.));
#857 = CYLINDRICAL_SURFACE('',#858,9.);
#858 = AXIS2_PLACEMENT_3D('',#859,#860,#861);
#859 = CARTESIAN_POINT('',(12.617312702282,27.995,13.625));
#860 = DIRECTION('',(-0.,-0.,-1.));
#861 = DIRECTION('',(-2.E-16,1.,0.));
#862 = ADVANCED_FACE('',(#863),#888,.F.);
#863 = FACE_BOUND('',#864,.F.);
#864 = EDGE_LOOP('',(#865,#866,#874,#882));
#865 = ORIENTED_EDGE('',*,*,#843,.T.);
#866 = ORIENTED_EDGE('',*,*,#867,.T.);
#867 = EDGE_CURVE('',#835,#868,#870,.T.);
#868 = VERTEX_POINT('',#869);
#869 = CARTESIAN_POINT('',(3.617312702282,11.205,13.8));
#870 = LINE('',#871,#872);
#871 = CARTESIAN_POINT('',(3.617312702282,27.995,13.8));
#872 = VECTOR('',#873,1.);
#873 = DIRECTION('',(0.,-1.,0.));
#874 = ORIENTED_EDGE('',*,*,#875,.F.);
#875 = EDGE_CURVE('',#876,#868,#878,.T.);
#876 = VERTEX_POINT('',#877);
#877 = CARTESIAN_POINT('',(3.617312702282,11.205,13.625));
#878 = LINE('',#879,#880);
#879 = CARTESIAN_POINT('',(3.617312702282,11.205,13.625));
#880 = VECTOR('',#881,1.);
#881 = DIRECTION('',(0.,0.,1.));
#882 = ORIENTED_EDGE('',*,*,#883,.F.);
#883 = EDGE_CURVE('',#844,#876,#884,.T.);
#884 = LINE('',#885,#886);
#885 = CARTESIAN_POINT('',(3.617312702282,27.995,13.625));
#886 = VECTOR('',#887,1.);
#887 = DIRECTION('',(0.,-1.,0.));
#888 = PLANE('',#889);
#889 = AXIS2_PLACEMENT_3D('',#890,#891,#892);
#890 = CARTESIAN_POINT('',(3.617312702282,27.995,13.625));
#891 = DIRECTION('',(1.,0.,0.));
#892 = DIRECTION('',(0.,-1.,0.));
#893 = ADVANCED_FACE('',(#894),#912,.T.);
#894 = FACE_BOUND('',#895,.F.);
#895 = EDGE_LOOP('',(#896,#897,#904,#905));
#896 = ORIENTED_EDGE('',*,*,#875,.T.);
#897 = ORIENTED_EDGE('',*,*,#898,.T.);
#898 = EDGE_CURVE('',#868,#668,#899,.T.);
#899 = CIRCLE('',#900,9.);
#900 = AXIS2_PLACEMENT_3D('',#901,#902,#903);
#901 = CARTESIAN_POINT('',(12.617312702282,11.205,13.8));
#902 = DIRECTION('',(0.,0.,1.));
#903 = DIRECTION('',(-1.,7.9E-16,0.));
#904 = ORIENTED_EDGE('',*,*,#665,.F.);
#905 = ORIENTED_EDGE('',*,*,#906,.F.);
#906 = EDGE_CURVE('',#876,#666,#907,.T.);
#907 = CIRCLE('',#908,9.);
#908 = AXIS2_PLACEMENT_3D('',#909,#910,#911);
#909 = CARTESIAN_POINT('',(12.617312702282,11.205,13.625));
#910 = DIRECTION('',(0.,0.,1.));
#911 = DIRECTION('',(-1.,7.9E-16,0.));
#912 = CYLINDRICAL_SURFACE('',#913,9.);
#913 = AXIS2_PLACEMENT_3D('',#914,#915,#916);
#914 = CARTESIAN_POINT('',(12.617312702282,11.205,13.625));
#915 = DIRECTION('',(-0.,-0.,-1.));
#916 = DIRECTION('',(-1.,7.9E-16,0.));
#917 = ADVANCED_FACE('',(#918),#928,.F.);
#918 = FACE_BOUND('',#919,.F.);
#919 = EDGE_LOOP('',(#920,#921,#922,#923,#924,#925,#926,#927));
#920 = ORIENTED_EDGE('',*,*,#691,.T.);
#921 = ORIENTED_EDGE('',*,*,#723,.T.);
#922 = ORIENTED_EDGE('',*,*,#755,.T.);
#923 = ORIENTED_EDGE('',*,*,#787,.T.);
#924 = ORIENTED_EDGE('',*,*,#819,.T.);
#925 = ORIENTED_EDGE('',*,*,#851,.T.);
#926 = ORIENTED_EDGE('',*,*,#883,.T.);
#927 = ORIENTED_EDGE('',*,*,#906,.T.);
#928 = PLANE('',#929);
#929 = AXIS2_PLACEMENT_3D('',#930,#931,#932);
#930 = CARTESIAN_POINT('',(25.279585929581,19.6,13.625));
#931 = DIRECTION('',(0.,0.,1.));
#932 = DIRECTION('',(1.,0.,0.));
#933 = ADVANCED_FACE('',(#934),#944,.T.);
#934 = FACE_BOUND('',#935,.T.);
#935 = EDGE_LOOP('',(#936,#937,#938,#939,#940,#941,#942,#943));
#936 = ORIENTED_EDGE('',*,*,#675,.T.);
#937 = ORIENTED_EDGE('',*,*,#706,.T.);
#938 = ORIENTED_EDGE('',*,*,#739,.T.);
#939 = ORIENTED_EDGE('',*,*,#770,.T.);
#940 = ORIENTED_EDGE('',*,*,#803,.T.);
#941 = ORIENTED_EDGE('',*,*,#834,.T.);
#942 = ORIENTED_EDGE('',*,*,#867,.T.);
#943 = ORIENTED_EDGE('',*,*,#898,.T.);
#944 = PLANE('',#945);
#945 = AXIS2_PLACEMENT_3D('',#946,#947,#948);
#946 = CARTESIAN_POINT('',(25.279585929581,19.6,13.8));
#947 = DIRECTION('',(0.,0.,1.));
#948 = DIRECTION('',(1.,0.,0.));
#949 = ( GEOMETRIC_REPRESENTATION_CONTEXT(3) 
GLOBAL_UNCERTAINTY_ASSIGNED_CONTEXT((#953)) GLOBAL_UNIT_ASSIGNED_CONTEXT
((#950,#951,#952)) REPRESENTATION_CONTEXT('Context #1',
  '3D Context with UNIT and UNCERTAINTY') );
#950 = ( LENGTH_UNIT() NAMED_UNIT(*) SI_UNIT(.MILLI.,.METRE.) );
#951 = ( NAMED_UNIT(*) PLANE_ANGLE_UNIT() SI_UNIT($,.RADIAN.) );
#952 = ( NAMED_UNIT(*) SI_UNIT($,.STERADIAN.) SOLID_ANGLE_UNIT() );
#953 = UNCERTAINTY_MEASURE_WITH_UNIT(LENGTH_MEASURE(1.E-07),#950,
  'distance_accuracy_value','confusion accuracy');
#954 = CONTEXT_DEPENDENT_SHAPE_REPRESENTATION(#955,#957);
#955 = ( REPRESENTATION_RELATIONSHIP('','',#658,#10) 
REPRESENTATION_RELATIONSHIP_WITH_TRANSFORMATION(#956) 
SHAPE_REPRESENTATION_RELATIONSHIP() );
#956 = ITEM_DEFINED_TRANSFORMATION('','',#11,#23);
#957 = PRODUCT_DEFINITION_SHAPE('Placement','Placement of an item',#958
  );
#958 = NEXT_ASSEMBLY_USAGE_OCCURRENCE('3','Factory OCA bond / 0.175 mm',
  '',#5,#653,$);
#959 = PRODUCT_RELATED_PRODUCT_CATEGORY('part',$,(#655));
ENDSEC;
END-ISO-10303-21;
