ISO-10303-21;
HEADER;
FILE_DESCRIPTION(('FreeCAD Model'),'2;1');
FILE_NAME('Open CASCADE Shape Model','2026-09-21T12:21:54',('Author'),(
    ''),'Open CASCADE STEP processor 7.8','FreeCAD','Unknown');
FILE_SCHEMA(('AUTOMOTIVE_DESIGN { 1 0 10303 214 1 1 1 1 }'));
ENDSEC;
DATA;
#1 = APPLICATION_PROTOCOL_DEFINITION('international standard',
  'automotive_design',2000,#2);
#2 = APPLICATION_CONTEXT(
  'core data for automotive mechanical design processes');
#3 = SHAPE_DEFINITION_REPRESENTATION(#4,#10);
#4 = PRODUCT_DEFINITION_SHAPE('','',#5);
#5 = PRODUCT_DEFINITION('design','',#6,#9);
#6 = PRODUCT_DEFINITION_FORMATION('','',#7);
#7 = PRODUCT('ModelBuild','ModelBuild','',(#8));
#8 = PRODUCT_CONTEXT('',#2,'mechanical');
#9 = PRODUCT_DEFINITION_CONTEXT('part definition',#2,'design');
#10 = SHAPE_REPRESENTATION('',(#11,#15,#19,#23),#27);
#11 = AXIS2_PLACEMENT_3D('',#12,#13,#14);
#12 = CARTESIAN_POINT('',(0.,0.,0.));
#13 = DIRECTION('',(0.,0.,1.));
#14 = DIRECTION('',(1.,0.,-0.));
#15 = AXIS2_PLACEMENT_3D('',#16,#17,#18);
#16 = CARTESIAN_POINT('',(0.,0.,0.));
#17 = DIRECTION('',(0.,0.,1.));
#18 = DIRECTION('',(1.,0.,0.));
#19 = AXIS2_PLACEMENT_3D('',#20,#21,#22);
#20 = CARTESIAN_POINT('',(0.,0.,0.));
#21 = DIRECTION('',(0.,0.,1.));
#22 = DIRECTION('',(1.,0.,0.));
#23 = AXIS2_PLACEMENT_3D('',#24,#25,#26);
#24 = CARTESIAN_POINT('',(0.,0.,0.));
#25 = DIRECTION('',(0.,0.,1.));
#26 = DIRECTION('',(1.,0.,0.));
#27 = ( GEOMETRIC_REPRESENTATION_CONTEXT(3) 
GLOBAL_UNCERTAINTY_ASSIGNED_CONTEXT((#31)) GLOBAL_UNIT_ASSIGNED_CONTEXT(
(#28,#29,#30)) REPRESENTATION_CONTEXT('Context #1',
  '3D Context with UNIT and UNCERTAINTY') );
#28 = ( LENGTH_UNIT() NAMED_UNIT(*) SI_UNIT(.MILLI.,.METRE.) );
#29 = ( NAMED_UNIT(*) PLANE_ANGLE_UNIT() SI_UNIT($,.RADIAN.) );
#30 = ( NAMED_UNIT(*) SI_UNIT($,.STERADIAN.) SOLID_ANGLE_UNIT() );
#31 = UNCERTAINTY_MEASURE_WITH_UNIT(LENGTH_MEASURE(1.E-07),#28,
  'distance_accuracy_value','confusion accuracy');
#32 = PRODUCT_RELATED_PRODUCT_CATEGORY('part',$,(#7));
#33 = SHAPE_DEFINITION_REPRESENTATION(#34,#40);
#34 = PRODUCT_DEFINITION_SHAPE('','',#35);
#35 = PRODUCT_DEFINITION('design','',#36,#39);
#36 = PRODUCT_DEFINITION_FORMATION('','',#37);
#37 = PRODUCT('SocketBody','SocketBody','',(#38));
#38 = PRODUCT_CONTEXT('',#2,'mechanical');
#39 = PRODUCT_DEFINITION_CONTEXT('part definition',#2,'design');
#40 = ADVANCED_BREP_SHAPE_REPRESENTATION('',(#11,#41),#236);
#41 = MANIFOLD_SOLID_BREP('',#42);
#42 = CLOSED_SHELL('',(#43,#94,#125,#149,#173,#190,#215,#227));
#43 = ADVANCED_FACE('',(#44,#78),#89,.F.);
#44 = FACE_BOUND('',#45,.F.);
#45 = EDGE_LOOP('',(#46,#56,#64,#72));
#46 = ORIENTED_EDGE('',*,*,#47,.F.);
#47 = EDGE_CURVE('',#48,#50,#52,.T.);
#48 = VERTEX_POINT('',#49);
#49 = CARTESIAN_POINT('',(-8.835,-3.28,0.));
#50 = VERTEX_POINT('',#51);
#51 = CARTESIAN_POINT('',(-8.835,-3.28,4.5));
#52 = LINE('',#53,#54);
#53 = CARTESIAN_POINT('',(-8.835,-3.28,0.));
#54 = VECTOR('',#55,1.);
#55 = DIRECTION('',(0.,0.,1.));
#56 = ORIENTED_EDGE('',*,*,#57,.T.);
#57 = EDGE_CURVE('',#48,#58,#60,.T.);
#58 = VERTEX_POINT('',#59);
#59 = CARTESIAN_POINT('',(-8.835,3.12,0.));
#60 = LINE('',#61,#62);
#61 = CARTESIAN_POINT('',(-8.835,-3.28,0.));
#62 = VECTOR('',#63,1.);
#63 = DIRECTION('',(-0.,1.,0.));
#64 = ORIENTED_EDGE('',*,*,#65,.T.);
#65 = EDGE_CURVE('',#58,#66,#68,.T.);
#66 = VERTEX_POINT('',#67);
#67 = CARTESIAN_POINT('',(-8.835,3.12,4.5));
#68 = LINE('',#69,#70);
#69 = CARTESIAN_POINT('',(-8.835,3.12,0.));
#70 = VECTOR('',#71,1.);
#71 = DIRECTION('',(0.,0.,1.));
#72 = ORIENTED_EDGE('',*,*,#73,.F.);
#73 = EDGE_CURVE('',#50,#66,#74,.T.);
#74 = LINE('',#75,#76);
#75 = CARTESIAN_POINT('',(-8.835,-3.28,4.5));
#76 = VECTOR('',#77,1.);
#77 = DIRECTION('',(-0.,1.,0.));
#78 = FACE_BOUND('',#79,.F.);
#79 = EDGE_LOOP('',(#80));
#80 = ORIENTED_EDGE('',*,*,#81,.F.);
#81 = EDGE_CURVE('',#82,#82,#84,.T.);
#82 = VERTEX_POINT('',#83);
#83 = CARTESIAN_POINT('',(-8.835,-8.E-02,4.));
#84 = CIRCLE('',#85,1.75);
#85 = AXIS2_PLACEMENT_3D('',#86,#87,#88);
#86 = CARTESIAN_POINT('',(-8.835,-8.E-02,2.25));
#87 = DIRECTION('',(1.,0.,0.));
#88 = DIRECTION('',(-0.,0.,1.));
#89 = PLANE('',#90);
#90 = AXIS2_PLACEMENT_3D('',#91,#92,#93);
#91 = CARTESIAN_POINT('',(-8.835,-3.28,0.));
#92 = DIRECTION('',(1.,0.,-0.));
#93 = DIRECTION('',(0.,0.,1.));
#94 = ADVANCED_FACE('',(#95),#120,.F.);
#95 = FACE_BOUND('',#96,.F.);
#96 = EDGE_LOOP('',(#97,#105,#106,#114));
#97 = ORIENTED_EDGE('',*,*,#98,.F.);
#98 = EDGE_CURVE('',#48,#99,#101,.T.);
#99 = VERTEX_POINT('',#100);
#100 = CARTESIAN_POINT('',(5.165,-3.28,0.));
#101 = LINE('',#102,#103);
#102 = CARTESIAN_POINT('',(-8.835,-3.28,0.));
#103 = VECTOR('',#104,1.);
#104 = DIRECTION('',(1.,0.,-0.));
#105 = ORIENTED_EDGE('',*,*,#47,.T.);
#106 = ORIENTED_EDGE('',*,*,#107,.T.);
#107 = EDGE_CURVE('',#50,#108,#110,.T.);
#108 = VERTEX_POINT('',#109);
#109 = CARTESIAN_POINT('',(5.165,-3.28,4.5));
#110 = LINE('',#111,#112);
#111 = CARTESIAN_POINT('',(-8.835,-3.28,4.5));
#112 = VECTOR('',#113,1.);
#113 = DIRECTION('',(1.,0.,-0.));
#114 = ORIENTED_EDGE('',*,*,#115,.F.);
#115 = EDGE_CURVE('',#99,#108,#116,.T.);
#116 = LINE('',#117,#118);
#117 = CARTESIAN_POINT('',(5.165,-3.28,0.));
#118 = VECTOR('',#119,1.);
#119 = DIRECTION('',(0.,0.,1.));
#120 = PLANE('',#121);
#121 = AXIS2_PLACEMENT_3D('',#122,#123,#124);
#122 = CARTESIAN_POINT('',(-8.835,-3.28,0.));
#123 = DIRECTION('',(-0.,1.,0.));
#124 = DIRECTION('',(0.,0.,1.));
#125 = ADVANCED_FACE('',(#126),#144,.T.);
#126 = FACE_BOUND('',#127,.T.);
#127 = EDGE_LOOP('',(#128,#129,#130,#138));
#128 = ORIENTED_EDGE('',*,*,#73,.F.);
#129 = ORIENTED_EDGE('',*,*,#107,.T.);
#130 = ORIENTED_EDGE('',*,*,#131,.T.);
#131 = EDGE_CURVE('',#108,#132,#134,.T.);
#132 = VERTEX_POINT('',#133);
#133 = CARTESIAN_POINT('',(5.165,3.12,4.5));
#134 = LINE('',#135,#136);
#135 = CARTESIAN_POINT('',(5.165,-3.28,4.5));
#136 = VECTOR('',#137,1.);
#137 = DIRECTION('',(-0.,1.,0.));
#138 = ORIENTED_EDGE('',*,*,#139,.F.);
#139 = EDGE_CURVE('',#66,#132,#140,.T.);
#140 = LINE('',#141,#142);
#141 = CARTESIAN_POINT('',(-8.835,3.12,4.5));
#142 = VECTOR('',#143,1.);
#143 = DIRECTION('',(1.,0.,-0.));
#144 = PLANE('',#145);
#145 = AXIS2_PLACEMENT_3D('',#146,#147,#148);
#146 = CARTESIAN_POINT('',(-8.835,-3.28,4.5));
#147 = DIRECTION('',(0.,0.,1.));
#148 = DIRECTION('',(1.,0.,-0.));
#149 = ADVANCED_FACE('',(#150),#168,.F.);
#150 = FACE_BOUND('',#151,.F.);
#151 = EDGE_LOOP('',(#152,#153,#154,#162));
#152 = ORIENTED_EDGE('',*,*,#57,.F.);
#153 = ORIENTED_EDGE('',*,*,#98,.T.);
#154 = ORIENTED_EDGE('',*,*,#155,.T.);
#155 = EDGE_CURVE('',#99,#156,#158,.T.);
#156 = VERTEX_POINT('',#157);
#157 = CARTESIAN_POINT('',(5.165,3.12,0.));
#158 = LINE('',#159,#160);
#159 = CARTESIAN_POINT('',(5.165,-3.28,0.));
#160 = VECTOR('',#161,1.);
#161 = DIRECTION('',(-0.,1.,0.));
#162 = ORIENTED_EDGE('',*,*,#163,.F.);
#163 = EDGE_CURVE('',#58,#156,#164,.T.);
#164 = LINE('',#165,#166);
#165 = CARTESIAN_POINT('',(-8.835,3.12,0.));
#166 = VECTOR('',#167,1.);
#167 = DIRECTION('',(1.,0.,-0.));
#168 = PLANE('',#169);
#169 = AXIS2_PLACEMENT_3D('',#170,#171,#172);
#170 = CARTESIAN_POINT('',(-8.835,-3.28,0.));
#171 = DIRECTION('',(0.,0.,1.));
#172 = DIRECTION('',(1.,0.,-0.));
#173 = ADVANCED_FACE('',(#174),#185,.T.);
#174 = FACE_BOUND('',#175,.T.);
#175 = EDGE_LOOP('',(#176,#177,#178,#179));
#176 = ORIENTED_EDGE('',*,*,#163,.F.);
#177 = ORIENTED_EDGE('',*,*,#65,.T.);
#178 = ORIENTED_EDGE('',*,*,#139,.T.);
#179 = ORIENTED_EDGE('',*,*,#180,.F.);
#180 = EDGE_CURVE('',#156,#132,#181,.T.);
#181 = LINE('',#182,#183);
#182 = CARTESIAN_POINT('',(5.165,3.12,0.));
#183 = VECTOR('',#184,1.);
#184 = DIRECTION('',(0.,0.,1.));
#185 = PLANE('',#186);
#186 = AXIS2_PLACEMENT_3D('',#187,#188,#189);
#187 = CARTESIAN_POINT('',(-8.835,3.12,0.));
#188 = DIRECTION('',(-0.,1.,0.));
#189 = DIRECTION('',(0.,0.,1.));
#190 = ADVANCED_FACE('',(#191),#210,.F.);
#191 = FACE_BOUND('',#192,.F.);
#192 = EDGE_LOOP('',(#193,#201,#208,#209));
#193 = ORIENTED_EDGE('',*,*,#194,.T.);
#194 = EDGE_CURVE('',#82,#195,#197,.T.);
#195 = VERTEX_POINT('',#196);
#196 = CARTESIAN_POINT('',(3.655,-8.E-02,4.));
#197 = LINE('',#198,#199);
#198 = CARTESIAN_POINT('',(-8.845,-8.E-02,4.));
#199 = VECTOR('',#200,1.);
#200 = DIRECTION('',(1.,0.,0.));
#201 = ORIENTED_EDGE('',*,*,#202,.F.);
#202 = EDGE_CURVE('',#195,#195,#203,.T.);
#203 = CIRCLE('',#204,1.75);
#204 = AXIS2_PLACEMENT_3D('',#205,#206,#207);
#205 = CARTESIAN_POINT('',(3.655,-8.E-02,2.25));
#206 = DIRECTION('',(1.,0.,0.));
#207 = DIRECTION('',(-0.,0.,1.));
#208 = ORIENTED_EDGE('',*,*,#194,.F.);
#209 = ORIENTED_EDGE('',*,*,#81,.T.);
#210 = CYLINDRICAL_SURFACE('',#211,1.75);
#211 = AXIS2_PLACEMENT_3D('',#212,#213,#214);
#212 = CARTESIAN_POINT('',(-8.845,-8.E-02,2.25));
#213 = DIRECTION('',(1.,0.,0.));
#214 = DIRECTION('',(-0.,0.,1.));
#215 = ADVANCED_FACE('',(#216),#222,.T.);
#216 = FACE_BOUND('',#217,.T.);
#217 = EDGE_LOOP('',(#218,#219,#220,#221));
#218 = ORIENTED_EDGE('',*,*,#115,.F.);
#219 = ORIENTED_EDGE('',*,*,#155,.T.);
#220 = ORIENTED_EDGE('',*,*,#180,.T.);
#221 = ORIENTED_EDGE('',*,*,#131,.F.);
#222 = PLANE('',#223);
#223 = AXIS2_PLACEMENT_3D('',#224,#225,#226);
#224 = CARTESIAN_POINT('',(5.165,-3.28,0.));
#225 = DIRECTION('',(1.,0.,-0.));
#226 = DIRECTION('',(0.,0.,1.));
#227 = ADVANCED_FACE('',(#228),#231,.F.);
#228 = FACE_BOUND('',#229,.F.);
#229 = EDGE_LOOP('',(#230));
#230 = ORIENTED_EDGE('',*,*,#202,.T.);
#231 = PLANE('',#232);
#232 = AXIS2_PLACEMENT_3D('',#233,#234,#235);
#233 = CARTESIAN_POINT('',(3.655,-8.E-02,2.25));
#234 = DIRECTION('',(1.,0.,0.));
#235 = DIRECTION('',(-0.,0.,1.));
#236 = ( GEOMETRIC_REPRESENTATION_CONTEXT(3) 
GLOBAL_UNCERTAINTY_ASSIGNED_CONTEXT((#240)) GLOBAL_UNIT_ASSIGNED_CONTEXT
((#237,#238,#239)) REPRESENTATION_CONTEXT('Context #1',
  '3D Context with UNIT and UNCERTAINTY') );
#237 = ( LENGTH_UNIT() NAMED_UNIT(*) SI_UNIT(.MILLI.,.METRE.) );
#238 = ( NAMED_UNIT(*) PLANE_ANGLE_UNIT() SI_UNIT($,.RADIAN.) );
#239 = ( NAMED_UNIT(*) SI_UNIT($,.STERADIAN.) SOLID_ANGLE_UNIT() );
#240 = UNCERTAINTY_MEASURE_WITH_UNIT(LENGTH_MEASURE(1.E-07),#237,
  'distance_accuracy_value','confusion accuracy');
#241 = CONTEXT_DEPENDENT_SHAPE_REPRESENTATION(#242,#244);
#242 = ( REPRESENTATION_RELATIONSHIP('','',#40,#10) 
REPRESENTATION_RELATIONSHIP_WITH_TRANSFORMATION(#243) 
SHAPE_REPRESENTATION_RELATIONSHIP() );
#243 = ITEM_DEFINED_TRANSFORMATION('','',#11,#15);
#244 = PRODUCT_DEFINITION_SHAPE('Placement','Placement of an item',#245
  );
#245 = NEXT_ASSEMBLY_USAGE_OCCURRENCE('1','SocketBody','',#5,#35,$);
#246 = PRODUCT_RELATED_PRODUCT_CATEGORY('part',$,(#37));
#247 = SHAPE_DEFINITION_REPRESENTATION(#248,#254);
#248 = PRODUCT_DEFINITION_SHAPE('','',#249);
#249 = PRODUCT_DEFINITION('design','',#250,#253);
#250 = PRODUCT_DEFINITION_FORMATION('','',#251);
#251 = PRODUCT('MouthRim','MouthRim','',(#252));
#252 = PRODUCT_CONTEXT('',#2,'mechanical');
#253 = PRODUCT_DEFINITION_CONTEXT('part definition',#2,'design');
#254 = ADVANCED_BREP_SHAPE_REPRESENTATION('',(#11,#255),#347);
#255 = MANIFOLD_SOLID_BREP('',#256);
#256 = CLOSED_SHELL('',(#257,#290,#310,#330));
#257 = ADVANCED_FACE('',(#258),#285,.T.);
#258 = FACE_BOUND('',#259,.T.);
#259 = EDGE_LOOP('',(#260,#269,#277,#284));
#260 = ORIENTED_EDGE('',*,*,#261,.F.);
#261 = EDGE_CURVE('',#262,#262,#264,.T.);
#262 = VERTEX_POINT('',#263);
#263 = CARTESIAN_POINT('',(-8.685,-8.E-02,4.37));
#264 = CIRCLE('',#265,2.12);
#265 = AXIS2_PLACEMENT_3D('',#266,#267,#268);
#266 = CARTESIAN_POINT('',(-8.685,-8.E-02,2.25));
#267 = DIRECTION('',(1.,0.,0.));
#268 = DIRECTION('',(-0.,0.,1.));
#269 = ORIENTED_EDGE('',*,*,#270,.F.);
#270 = EDGE_CURVE('',#271,#262,#273,.T.);
#271 = VERTEX_POINT('',#272);
#272 = CARTESIAN_POINT('',(-8.835,-8.E-02,4.37));
#273 = LINE('',#274,#275);
#274 = CARTESIAN_POINT('',(-8.835,-8.E-02,4.37));
#275 = VECTOR('',#276,1.);
#276 = DIRECTION('',(1.,0.,0.));
#277 = ORIENTED_EDGE('',*,*,#278,.T.);
#278 = EDGE_CURVE('',#271,#271,#279,.T.);
#279 = CIRCLE('',#280,2.12);
#280 = AXIS2_PLACEMENT_3D('',#281,#282,#283);
#281 = CARTESIAN_POINT('',(-8.835,-8.E-02,2.25));
#282 = DIRECTION('',(1.,0.,0.));
#283 = DIRECTION('',(-0.,0.,1.));
#284 = ORIENTED_EDGE('',*,*,#270,.T.);
#285 = CYLINDRICAL_SURFACE('',#286,2.12);
#286 = AXIS2_PLACEMENT_3D('',#287,#288,#289);
#287 = CARTESIAN_POINT('',(-8.835,-8.E-02,2.25));
#288 = DIRECTION('',(1.,0.,0.));
#289 = DIRECTION('',(-0.,0.,1.));
#290 = ADVANCED_FACE('',(#291,#294),#305,.T.);
#291 = FACE_BOUND('',#292,.T.);
#292 = EDGE_LOOP('',(#293));
#293 = ORIENTED_EDGE('',*,*,#261,.T.);
#294 = FACE_BOUND('',#295,.T.);
#295 = EDGE_LOOP('',(#296));
#296 = ORIENTED_EDGE('',*,*,#297,.F.);
#297 = EDGE_CURVE('',#298,#298,#300,.T.);
#298 = VERTEX_POINT('',#299);
#299 = CARTESIAN_POINT('',(-8.685,-8.E-02,4.));
#300 = CIRCLE('',#301,1.75);
#301 = AXIS2_PLACEMENT_3D('',#302,#303,#304);
#302 = CARTESIAN_POINT('',(-8.685,-8.E-02,2.25));
#303 = DIRECTION('',(1.,0.,0.));
#304 = DIRECTION('',(-0.,0.,1.));
#305 = PLANE('',#306);
#306 = AXIS2_PLACEMENT_3D('',#307,#308,#309);
#307 = CARTESIAN_POINT('',(-8.685,-8.E-02,2.25));
#308 = DIRECTION('',(1.,0.,0.));
#309 = DIRECTION('',(-0.,0.,1.));
#310 = ADVANCED_FACE('',(#311,#314),#325,.F.);
#311 = FACE_BOUND('',#312,.F.);
#312 = EDGE_LOOP('',(#313));
#313 = ORIENTED_EDGE('',*,*,#278,.T.);
#314 = FACE_BOUND('',#315,.F.);
#315 = EDGE_LOOP('',(#316));
#316 = ORIENTED_EDGE('',*,*,#317,.F.);
#317 = EDGE_CURVE('',#318,#318,#320,.T.);
#318 = VERTEX_POINT('',#319);
#319 = CARTESIAN_POINT('',(-8.835,-8.E-02,4.));
#320 = CIRCLE('',#321,1.75);
#321 = AXIS2_PLACEMENT_3D('',#322,#323,#324);
#322 = CARTESIAN_POINT('',(-8.835,-8.E-02,2.25));
#323 = DIRECTION('',(1.,0.,0.));
#324 = DIRECTION('',(-0.,0.,1.));
#325 = PLANE('',#326);
#326 = AXIS2_PLACEMENT_3D('',#327,#328,#329);
#327 = CARTESIAN_POINT('',(-8.835,-8.E-02,2.25));
#328 = DIRECTION('',(1.,0.,0.));
#329 = DIRECTION('',(-0.,0.,1.));
#330 = ADVANCED_FACE('',(#331),#342,.F.);
#331 = FACE_BOUND('',#332,.F.);
#332 = EDGE_LOOP('',(#333,#334,#340,#341));
#333 = ORIENTED_EDGE('',*,*,#297,.F.);
#334 = ORIENTED_EDGE('',*,*,#335,.F.);
#335 = EDGE_CURVE('',#318,#298,#336,.T.);
#336 = LINE('',#337,#338);
#337 = CARTESIAN_POINT('',(-8.845,-8.E-02,4.));
#338 = VECTOR('',#339,1.);
#339 = DIRECTION('',(1.,0.,0.));
#340 = ORIENTED_EDGE('',*,*,#317,.T.);
#341 = ORIENTED_EDGE('',*,*,#335,.T.);
#342 = CYLINDRICAL_SURFACE('',#343,1.75);
#343 = AXIS2_PLACEMENT_3D('',#344,#345,#346);
#344 = CARTESIAN_POINT('',(-8.845,-8.E-02,2.25));
#345 = DIRECTION('',(1.,0.,0.));
#346 = DIRECTION('',(-0.,0.,1.));
#347 = ( GEOMETRIC_REPRESENTATION_CONTEXT(3) 
GLOBAL_UNCERTAINTY_ASSIGNED_CONTEXT((#351)) GLOBAL_UNIT_ASSIGNED_CONTEXT
((#348,#349,#350)) REPRESENTATION_CONTEXT('Context #1',
  '3D Context with UNIT and UNCERTAINTY') );
#348 = ( LENGTH_UNIT() NAMED_UNIT(*) SI_UNIT(.MILLI.,.METRE.) );
#349 = ( NAMED_UNIT(*) PLANE_ANGLE_UNIT() SI_UNIT($,.RADIAN.) );
#350 = ( NAMED_UNIT(*) SI_UNIT($,.STERADIAN.) SOLID_ANGLE_UNIT() );
#351 = UNCERTAINTY_MEASURE_WITH_UNIT(LENGTH_MEASURE(1.E-07),#348,
  'distance_accuracy_value','confusion accuracy');
#352 = CONTEXT_DEPENDENT_SHAPE_REPRESENTATION(#353,#355);
#353 = ( REPRESENTATION_RELATIONSHIP('','',#254,#10) 
REPRESENTATION_RELATIONSHIP_WITH_TRANSFORMATION(#354) 
SHAPE_REPRESENTATION_RELATIONSHIP() );
#354 = ITEM_DEFINED_TRANSFORMATION('','',#11,#19);
#355 = PRODUCT_DEFINITION_SHAPE('Placement','Placement of an item',#356
  );
#356 = NEXT_ASSEMBLY_USAGE_OCCURRENCE('2','MouthRim','',#5,#249,$);
#357 = PRODUCT_RELATED_PRODUCT_CATEGORY('part',$,(#251));
#358 = SHAPE_DEFINITION_REPRESENTATION(#359,#365);
#359 = PRODUCT_DEFINITION_SHAPE('','',#360);
#360 = PRODUCT_DEFINITION('design','',#361,#364);
#361 = PRODUCT_DEFINITION_FORMATION('','',#362);
#362 = PRODUCT('Terminals','Terminals','',(#363));
#363 = PRODUCT_CONTEXT('',#2,'mechanical');
#364 = PRODUCT_DEFINITION_CONTEXT('part definition',#2,'design');
#365 = SHAPE_REPRESENTATION('',(#11,#366,#516,#666,#816,#966,#1116),
  #1266);
#366 = MANIFOLD_SOLID_BREP('',#367);
#367 = CLOSED_SHELL('',(#368,#408,#448,#470,#492,#504));
#368 = ADVANCED_FACE('',(#369),#403,.F.);
#369 = FACE_BOUND('',#370,.F.);
#370 = EDGE_LOOP('',(#371,#381,#389,#397));
#371 = ORIENTED_EDGE('',*,*,#372,.F.);
#372 = EDGE_CURVE('',#373,#375,#377,.T.);
#373 = VERTEX_POINT('',#374);
#374 = CARTESIAN_POINT('',(-4.105,2.88,0.));
#375 = VERTEX_POINT('',#376);
#376 = CARTESIAN_POINT('',(-4.105,2.88,7.5E-02));
#377 = LINE('',#378,#379);
#378 = CARTESIAN_POINT('',(-4.105,2.88,0.));
#379 = VECTOR('',#380,1.);
#380 = DIRECTION('',(0.,0.,1.));
#381 = ORIENTED_EDGE('',*,*,#382,.T.);
#382 = EDGE_CURVE('',#373,#383,#385,.T.);
#383 = VERTEX_POINT('',#384);
#384 = CARTESIAN_POINT('',(-5.185,2.88,0.));
#385 = LINE('',#386,#387);
#386 = CARTESIAN_POINT('',(-4.105,2.88,0.));
#387 = VECTOR('',#388,1.);
#388 = DIRECTION('',(-1.,1.110223024625E-16,0.));
#389 = ORIENTED_EDGE('',*,*,#390,.T.);
#390 = EDGE_CURVE('',#383,#391,#393,.T.);
#391 = VERTEX_POINT('',#392);
#392 = CARTESIAN_POINT('',(-5.185,2.88,7.5E-02));
#393 = LINE('',#394,#395);
#394 = CARTESIAN_POINT('',(-5.185,2.88,0.));
#395 = VECTOR('',#396,1.);
#396 = DIRECTION('',(0.,0.,1.));
#397 = ORIENTED_EDGE('',*,*,#398,.F.);
#398 = EDGE_CURVE('',#375,#391,#399,.T.);
#399 = LINE('',#400,#401);
#400 = CARTESIAN_POINT('',(-4.105,2.88,7.5E-02));
#401 = VECTOR('',#402,1.);
#402 = DIRECTION('',(-1.,1.110223024625E-16,0.));
#403 = PLANE('',#404);
#404 = AXIS2_PLACEMENT_3D('',#405,#406,#407);
#405 = CARTESIAN_POINT('',(-4.105,2.88,0.));
#406 = DIRECTION('',(1.110223024625E-16,1.,0.));
#407 = DIRECTION('',(0.,0.,1.));
#408 = ADVANCED_FACE('',(#409),#443,.T.);
#409 = FACE_BOUND('',#410,.T.);
#410 = EDGE_LOOP('',(#411,#421,#429,#437));
#411 = ORIENTED_EDGE('',*,*,#412,.F.);
#412 = EDGE_CURVE('',#413,#415,#417,.T.);
#413 = VERTEX_POINT('',#414);
#414 = CARTESIAN_POINT('',(-4.105,4.32,0.));
#415 = VERTEX_POINT('',#416);
#416 = CARTESIAN_POINT('',(-4.105,4.32,7.5E-02));
#417 = LINE('',#418,#419);
#418 = CARTESIAN_POINT('',(-4.105,4.32,0.));
#419 = VECTOR('',#420,1.);
#420 = DIRECTION('',(0.,0.,1.));
#421 = ORIENTED_EDGE('',*,*,#422,.T.);
#422 = EDGE_CURVE('',#413,#423,#425,.T.);
#423 = VERTEX_POINT('',#424);
#424 = CARTESIAN_POINT('',(-5.185,4.32,0.));
#425 = LINE('',#426,#427);
#426 = CARTESIAN_POINT('',(-4.105,4.32,0.));
#427 = VECTOR('',#428,1.);
#428 = DIRECTION('',(-1.,1.110223024625E-16,0.));
#429 = ORIENTED_EDGE('',*,*,#430,.T.);
#430 = EDGE_CURVE('',#423,#431,#433,.T.);
#431 = VERTEX_POINT('',#432);
#432 = CARTESIAN_POINT('',(-5.185,4.32,7.5E-02));
#433 = LINE('',#434,#435);
#434 = CARTESIAN_POINT('',(-5.185,4.32,0.));
#435 = VECTOR('',#436,1.);
#436 = DIRECTION('',(0.,0.,1.));
#437 = ORIENTED_EDGE('',*,*,#438,.F.);
#438 = EDGE_CURVE('',#415,#431,#439,.T.);
#439 = LINE('',#440,#441);
#440 = CARTESIAN_POINT('',(-4.105,4.32,7.5E-02));
#441 = VECTOR('',#442,1.);
#442 = DIRECTION('',(-1.,1.110223024625E-16,0.));
#443 = PLANE('',#444);
#444 = AXIS2_PLACEMENT_3D('',#445,#446,#447);
#445 = CARTESIAN_POINT('',(-4.105,4.32,0.));
#446 = DIRECTION('',(1.110223024625E-16,1.,0.));
#447 = DIRECTION('',(0.,0.,1.));
#448 = ADVANCED_FACE('',(#449),#465,.F.);
#449 = FACE_BOUND('',#450,.F.);
#450 = EDGE_LOOP('',(#451,#457,#458,#464));
#451 = ORIENTED_EDGE('',*,*,#452,.F.);
#452 = EDGE_CURVE('',#373,#413,#453,.T.);
#453 = LINE('',#454,#455);
#454 = CARTESIAN_POINT('',(-4.105,2.88,0.));
#455 = VECTOR('',#456,1.);
#456 = DIRECTION('',(1.110223024625E-16,1.,0.));
#457 = ORIENTED_EDGE('',*,*,#372,.T.);
#458 = ORIENTED_EDGE('',*,*,#459,.T.);
#459 = EDGE_CURVE('',#375,#415,#460,.T.);
#460 = LINE('',#461,#462);
#461 = CARTESIAN_POINT('',(-4.105,2.88,7.5E-02));
#462 = VECTOR('',#463,1.);
#463 = DIRECTION('',(1.110223024625E-16,1.,0.));
#464 = ORIENTED_EDGE('',*,*,#412,.F.);
#465 = PLANE('',#466);
#466 = AXIS2_PLACEMENT_3D('',#467,#468,#469);
#467 = CARTESIAN_POINT('',(-4.105,2.88,0.));
#468 = DIRECTION('',(-1.,1.110223024625E-16,0.));
#469 = DIRECTION('',(0.,0.,1.));
#470 = ADVANCED_FACE('',(#471),#487,.T.);
#471 = FACE_BOUND('',#472,.T.);
#472 = EDGE_LOOP('',(#473,#479,#480,#486));
#473 = ORIENTED_EDGE('',*,*,#474,.F.);
#474 = EDGE_CURVE('',#383,#423,#475,.T.);
#475 = LINE('',#476,#477);
#476 = CARTESIAN_POINT('',(-5.185,2.88,0.));
#477 = VECTOR('',#478,1.);
#478 = DIRECTION('',(1.110223024625E-16,1.,0.));
#479 = ORIENTED_EDGE('',*,*,#390,.T.);
#480 = ORIENTED_EDGE('',*,*,#481,.T.);
#481 = EDGE_CURVE('',#391,#431,#482,.T.);
#482 = LINE('',#483,#484);
#483 = CARTESIAN_POINT('',(-5.185,2.88,7.5E-02));
#484 = VECTOR('',#485,1.);
#485 = DIRECTION('',(1.110223024625E-16,1.,0.));
#486 = ORIENTED_EDGE('',*,*,#430,.F.);
#487 = PLANE('',#488);
#488 = AXIS2_PLACEMENT_3D('',#489,#490,#491);
#489 = CARTESIAN_POINT('',(-5.185,2.88,0.));
#490 = DIRECTION('',(-1.,1.110223024625E-16,0.));
#491 = DIRECTION('',(0.,0.,1.));
#492 = ADVANCED_FACE('',(#493),#499,.F.);
#493 = FACE_BOUND('',#494,.F.);
#494 = EDGE_LOOP('',(#495,#496,#497,#498));
#495 = ORIENTED_EDGE('',*,*,#382,.F.);
#496 = ORIENTED_EDGE('',*,*,#452,.T.);
#497 = ORIENTED_EDGE('',*,*,#422,.T.);
#498 = ORIENTED_EDGE('',*,*,#474,.F.);
#499 = PLANE('',#500);
#500 = AXIS2_PLACEMENT_3D('',#501,#502,#503);
#501 = CARTESIAN_POINT('',(-4.105,2.88,0.));
#502 = DIRECTION('',(0.,0.,1.));
#503 = DIRECTION('',(1.110223024625E-16,1.,0.));
#504 = ADVANCED_FACE('',(#505),#511,.T.);
#505 = FACE_BOUND('',#506,.T.);
#506 = EDGE_LOOP('',(#507,#508,#509,#510));
#507 = ORIENTED_EDGE('',*,*,#398,.F.);
#508 = ORIENTED_EDGE('',*,*,#459,.T.);
#509 = ORIENTED_EDGE('',*,*,#438,.T.);
#510 = ORIENTED_EDGE('',*,*,#481,.F.);
#511 = PLANE('',#512);
#512 = AXIS2_PLACEMENT_3D('',#513,#514,#515);
#513 = CARTESIAN_POINT('',(-4.105,2.88,7.5E-02));
#514 = DIRECTION('',(0.,0.,1.));
#515 = DIRECTION('',(1.110223024625E-16,1.,0.));
#516 = MANIFOLD_SOLID_BREP('',#517);
#517 = CLOSED_SHELL('',(#518,#558,#598,#620,#642,#654));
#518 = ADVANCED_FACE('',(#519),#553,.F.);
#519 = FACE_BOUND('',#520,.F.);
#520 = EDGE_LOOP('',(#521,#531,#539,#547));
#521 = ORIENTED_EDGE('',*,*,#522,.F.);
#522 = EDGE_CURVE('',#523,#525,#527,.T.);
#523 = VERTEX_POINT('',#524);
#524 = CARTESIAN_POINT('',(2.895,2.88,0.));
#525 = VERTEX_POINT('',#526);
#526 = CARTESIAN_POINT('',(2.895,2.88,7.5E-02));
#527 = LINE('',#528,#529);
#528 = CARTESIAN_POINT('',(2.895,2.88,0.));
#529 = VECTOR('',#530,1.);
#530 = DIRECTION('',(0.,0.,1.));
#531 = ORIENTED_EDGE('',*,*,#532,.T.);
#532 = EDGE_CURVE('',#523,#533,#535,.T.);
#533 = VERTEX_POINT('',#534);
#534 = CARTESIAN_POINT('',(1.815,2.88,0.));
#535 = LINE('',#536,#537);
#536 = CARTESIAN_POINT('',(2.895,2.88,0.));
#537 = VECTOR('',#538,1.);
#538 = DIRECTION('',(-1.,1.110223024625E-16,0.));
#539 = ORIENTED_EDGE('',*,*,#540,.T.);
#540 = EDGE_CURVE('',#533,#541,#543,.T.);
#541 = VERTEX_POINT('',#542);
#542 = CARTESIAN_POINT('',(1.815,2.88,7.5E-02));
#543 = LINE('',#544,#545);
#544 = CARTESIAN_POINT('',(1.815,2.88,0.));
#545 = VECTOR('',#546,1.);
#546 = DIRECTION('',(0.,0.,1.));
#547 = ORIENTED_EDGE('',*,*,#548,.F.);
#548 = EDGE_CURVE('',#525,#541,#549,.T.);
#549 = LINE('',#550,#551);
#550 = CARTESIAN_POINT('',(2.895,2.88,7.5E-02));
#551 = VECTOR('',#552,1.);
#552 = DIRECTION('',(-1.,1.110223024625E-16,0.));
#553 = PLANE('',#554);
#554 = AXIS2_PLACEMENT_3D('',#555,#556,#557);
#555 = CARTESIAN_POINT('',(2.895,2.88,0.));
#556 = DIRECTION('',(1.110223024625E-16,1.,0.));
#557 = DIRECTION('',(0.,0.,1.));
#558 = ADVANCED_FACE('',(#559),#593,.T.);
#559 = FACE_BOUND('',#560,.T.);
#560 = EDGE_LOOP('',(#561,#571,#579,#587));
#561 = ORIENTED_EDGE('',*,*,#562,.F.);
#562 = EDGE_CURVE('',#563,#565,#567,.T.);
#563 = VERTEX_POINT('',#564);
#564 = CARTESIAN_POINT('',(2.895,4.32,0.));
#565 = VERTEX_POINT('',#566);
#566 = CARTESIAN_POINT('',(2.895,4.32,7.5E-02));
#567 = LINE('',#568,#569);
#568 = CARTESIAN_POINT('',(2.895,4.32,0.));
#569 = VECTOR('',#570,1.);
#570 = DIRECTION('',(0.,0.,1.));
#571 = ORIENTED_EDGE('',*,*,#572,.T.);
#572 = EDGE_CURVE('',#563,#573,#575,.T.);
#573 = VERTEX_POINT('',#574);
#574 = CARTESIAN_POINT('',(1.815,4.32,0.));
#575 = LINE('',#576,#577);
#576 = CARTESIAN_POINT('',(2.895,4.32,0.));
#577 = VECTOR('',#578,1.);
#578 = DIRECTION('',(-1.,1.110223024625E-16,0.));
#579 = ORIENTED_EDGE('',*,*,#580,.T.);
#580 = EDGE_CURVE('',#573,#581,#583,.T.);
#581 = VERTEX_POINT('',#582);
#582 = CARTESIAN_POINT('',(1.815,4.32,7.5E-02));
#583 = LINE('',#584,#585);
#584 = CARTESIAN_POINT('',(1.815,4.32,0.));
#585 = VECTOR('',#586,1.);
#586 = DIRECTION('',(0.,0.,1.));
#587 = ORIENTED_EDGE('',*,*,#588,.F.);
#588 = EDGE_CURVE('',#565,#581,#589,.T.);
#589 = LINE('',#590,#591);
#590 = CARTESIAN_POINT('',(2.895,4.32,7.5E-02));
#591 = VECTOR('',#592,1.);
#592 = DIRECTION('',(-1.,1.110223024625E-16,0.));
#593 = PLANE('',#594);
#594 = AXIS2_PLACEMENT_3D('',#595,#596,#597);
#595 = CARTESIAN_POINT('',(2.895,4.32,0.));
#596 = DIRECTION('',(1.110223024625E-16,1.,0.));
#597 = DIRECTION('',(0.,0.,1.));
#598 = ADVANCED_FACE('',(#599),#615,.F.);
#599 = FACE_BOUND('',#600,.F.);
#600 = EDGE_LOOP('',(#601,#607,#608,#614));
#601 = ORIENTED_EDGE('',*,*,#602,.F.);
#602 = EDGE_CURVE('',#523,#563,#603,.T.);
#603 = LINE('',#604,#605);
#604 = CARTESIAN_POINT('',(2.895,2.88,0.));
#605 = VECTOR('',#606,1.);
#606 = DIRECTION('',(1.110223024625E-16,1.,0.));
#607 = ORIENTED_EDGE('',*,*,#522,.T.);
#608 = ORIENTED_EDGE('',*,*,#609,.T.);
#609 = EDGE_CURVE('',#525,#565,#610,.T.);
#610 = LINE('',#611,#612);
#611 = CARTESIAN_POINT('',(2.895,2.88,7.5E-02));
#612 = VECTOR('',#613,1.);
#613 = DIRECTION('',(1.110223024625E-16,1.,0.));
#614 = ORIENTED_EDGE('',*,*,#562,.F.);
#615 = PLANE('',#616);
#616 = AXIS2_PLACEMENT_3D('',#617,#618,#619);
#617 = CARTESIAN_POINT('',(2.895,2.88,0.));
#618 = DIRECTION('',(-1.,1.110223024625E-16,0.));
#619 = DIRECTION('',(0.,0.,1.));
#620 = ADVANCED_FACE('',(#621),#637,.T.);
#621 = FACE_BOUND('',#622,.T.);
#622 = EDGE_LOOP('',(#623,#629,#630,#636));
#623 = ORIENTED_EDGE('',*,*,#624,.F.);
#624 = EDGE_CURVE('',#533,#573,#625,.T.);
#625 = LINE('',#626,#627);
#626 = CARTESIAN_POINT('',(1.815,2.88,0.));
#627 = VECTOR('',#628,1.);
#628 = DIRECTION('',(1.110223024625E-16,1.,0.));
#629 = ORIENTED_EDGE('',*,*,#540,.T.);
#630 = ORIENTED_EDGE('',*,*,#631,.T.);
#631 = EDGE_CURVE('',#541,#581,#632,.T.);
#632 = LINE('',#633,#634);
#633 = CARTESIAN_POINT('',(1.815,2.88,7.5E-02));
#634 = VECTOR('',#635,1.);
#635 = DIRECTION('',(1.110223024625E-16,1.,0.));
#636 = ORIENTED_EDGE('',*,*,#580,.F.);
#637 = PLANE('',#638);
#638 = AXIS2_PLACEMENT_3D('',#639,#640,#641);
#639 = CARTESIAN_POINT('',(1.815,2.88,0.));
#640 = DIRECTION('',(-1.,1.110223024625E-16,0.));
#641 = DIRECTION('',(0.,0.,1.));
#642 = ADVANCED_FACE('',(#643),#649,.F.);
#643 = FACE_BOUND('',#644,.F.);
#644 = EDGE_LOOP('',(#645,#646,#647,#648));
#645 = ORIENTED_EDGE('',*,*,#532,.F.);
#646 = ORIENTED_EDGE('',*,*,#602,.T.);
#647 = ORIENTED_EDGE('',*,*,#572,.T.);
#648 = ORIENTED_EDGE('',*,*,#624,.F.);
#649 = PLANE('',#650);
#650 = AXIS2_PLACEMENT_3D('',#651,#652,#653);
#651 = CARTESIAN_POINT('',(2.895,2.88,0.));
#652 = DIRECTION('',(0.,0.,1.));
#653 = DIRECTION('',(1.110223024625E-16,1.,0.));
#654 = ADVANCED_FACE('',(#655),#661,.T.);
#655 = FACE_BOUND('',#656,.T.);
#656 = EDGE_LOOP('',(#657,#658,#659,#660));
#657 = ORIENTED_EDGE('',*,*,#548,.F.);
#658 = ORIENTED_EDGE('',*,*,#609,.T.);
#659 = ORIENTED_EDGE('',*,*,#588,.T.);
#660 = ORIENTED_EDGE('',*,*,#631,.F.);
#661 = PLANE('',#662);
#662 = AXIS2_PLACEMENT_3D('',#663,#664,#665);
#663 = CARTESIAN_POINT('',(2.895,2.88,7.5E-02));
#664 = DIRECTION('',(0.,0.,1.));
#665 = DIRECTION('',(1.110223024625E-16,1.,0.));
#666 = MANIFOLD_SOLID_BREP('',#667);
#667 = CLOSED_SHELL('',(#668,#708,#748,#770,#792,#804));
#668 = ADVANCED_FACE('',(#669),#703,.F.);
#669 = FACE_BOUND('',#670,.F.);
#670 = EDGE_LOOP('',(#671,#681,#689,#697));
#671 = ORIENTED_EDGE('',*,*,#672,.F.);
#672 = EDGE_CURVE('',#673,#675,#677,.T.);
#673 = VERTEX_POINT('',#674);
#674 = CARTESIAN_POINT('',(5.195,2.364,0.));
#675 = VERTEX_POINT('',#676);
#676 = CARTESIAN_POINT('',(5.195,2.364,7.5E-02));
#677 = LINE('',#678,#679);
#678 = CARTESIAN_POINT('',(5.195,2.364,0.));
#679 = VECTOR('',#680,1.);
#680 = DIRECTION('',(0.,0.,1.));
#681 = ORIENTED_EDGE('',*,*,#682,.T.);
#682 = EDGE_CURVE('',#673,#683,#685,.T.);
#683 = VERTEX_POINT('',#684);
#684 = CARTESIAN_POINT('',(4.115,2.364,0.));
#685 = LINE('',#686,#687);
#686 = CARTESIAN_POINT('',(5.195,2.364,0.));
#687 = VECTOR('',#688,1.);
#688 = DIRECTION('',(-1.,1.110223024625E-16,0.));
#689 = ORIENTED_EDGE('',*,*,#690,.T.);
#690 = EDGE_CURVE('',#683,#691,#693,.T.);
#691 = VERTEX_POINT('',#692);
#692 = CARTESIAN_POINT('',(4.115,2.364,7.5E-02));
#693 = LINE('',#694,#695);
#694 = CARTESIAN_POINT('',(4.115,2.364,0.));
#695 = VECTOR('',#696,1.);
#696 = DIRECTION('',(0.,0.,1.));
#697 = ORIENTED_EDGE('',*,*,#698,.F.);
#698 = EDGE_CURVE('',#675,#691,#699,.T.);
#699 = LINE('',#700,#701);
#700 = CARTESIAN_POINT('',(5.195,2.364,7.5E-02));
#701 = VECTOR('',#702,1.);
#702 = DIRECTION('',(-1.,1.110223024625E-16,0.));
#703 = PLANE('',#704);
#704 = AXIS2_PLACEMENT_3D('',#705,#706,#707);
#705 = CARTESIAN_POINT('',(5.195,2.364,0.));
#706 = DIRECTION('',(1.110223024625E-16,1.,0.));
#707 = DIRECTION('',(0.,0.,1.));
#708 = ADVANCED_FACE('',(#709),#743,.T.);
#709 = FACE_BOUND('',#710,.T.);
#710 = EDGE_LOOP('',(#711,#721,#729,#737));
#711 = ORIENTED_EDGE('',*,*,#712,.F.);
#712 = EDGE_CURVE('',#713,#715,#717,.T.);
#713 = VERTEX_POINT('',#714);
#714 = CARTESIAN_POINT('',(5.195,4.236,0.));
#715 = VERTEX_POINT('',#716);
#716 = CARTESIAN_POINT('',(5.195,4.236,7.5E-02));
#717 = LINE('',#718,#719);
#718 = CARTESIAN_POINT('',(5.195,4.236,0.));
#719 = VECTOR('',#720,1.);
#720 = DIRECTION('',(0.,0.,1.));
#721 = ORIENTED_EDGE('',*,*,#722,.T.);
#722 = EDGE_CURVE('',#713,#723,#725,.T.);
#723 = VERTEX_POINT('',#724);
#724 = CARTESIAN_POINT('',(4.115,4.236,0.));
#725 = LINE('',#726,#727);
#726 = CARTESIAN_POINT('',(5.195,4.236,0.));
#727 = VECTOR('',#728,1.);
#728 = DIRECTION('',(-1.,1.110223024625E-16,0.));
#729 = ORIENTED_EDGE('',*,*,#730,.T.);
#730 = EDGE_CURVE('',#723,#731,#733,.T.);
#731 = VERTEX_POINT('',#732);
#732 = CARTESIAN_POINT('',(4.115,4.236,7.5E-02));
#733 = LINE('',#734,#735);
#734 = CARTESIAN_POINT('',(4.115,4.236,0.));
#735 = VECTOR('',#736,1.);
#736 = DIRECTION('',(0.,0.,1.));
#737 = ORIENTED_EDGE('',*,*,#738,.F.);
#738 = EDGE_CURVE('',#715,#731,#739,.T.);
#739 = LINE('',#740,#741);
#740 = CARTESIAN_POINT('',(5.195,4.236,7.5E-02));
#741 = VECTOR('',#742,1.);
#742 = DIRECTION('',(-1.,1.110223024625E-16,0.));
#743 = PLANE('',#744);
#744 = AXIS2_PLACEMENT_3D('',#745,#746,#747);
#745 = CARTESIAN_POINT('',(5.195,4.236,0.));
#746 = DIRECTION('',(1.110223024625E-16,1.,0.));
#747 = DIRECTION('',(0.,0.,1.));
#748 = ADVANCED_FACE('',(#749),#765,.F.);
#749 = FACE_BOUND('',#750,.F.);
#750 = EDGE_LOOP('',(#751,#757,#758,#764));
#751 = ORIENTED_EDGE('',*,*,#752,.F.);
#752 = EDGE_CURVE('',#673,#713,#753,.T.);
#753 = LINE('',#754,#755);
#754 = CARTESIAN_POINT('',(5.195,2.364,0.));
#755 = VECTOR('',#756,1.);
#756 = DIRECTION('',(1.110223024625E-16,1.,0.));
#757 = ORIENTED_EDGE('',*,*,#672,.T.);
#758 = ORIENTED_EDGE('',*,*,#759,.T.);
#759 = EDGE_CURVE('',#675,#715,#760,.T.);
#760 = LINE('',#761,#762);
#761 = CARTESIAN_POINT('',(5.195,2.364,7.5E-02));
#762 = VECTOR('',#763,1.);
#763 = DIRECTION('',(1.110223024625E-16,1.,0.));
#764 = ORIENTED_EDGE('',*,*,#712,.F.);
#765 = PLANE('',#766);
#766 = AXIS2_PLACEMENT_3D('',#767,#768,#769);
#767 = CARTESIAN_POINT('',(5.195,2.364,0.));
#768 = DIRECTION('',(-1.,1.110223024625E-16,0.));
#769 = DIRECTION('',(0.,0.,1.));
#770 = ADVANCED_FACE('',(#771),#787,.T.);
#771 = FACE_BOUND('',#772,.T.);
#772 = EDGE_LOOP('',(#773,#779,#780,#786));
#773 = ORIENTED_EDGE('',*,*,#774,.F.);
#774 = EDGE_CURVE('',#683,#723,#775,.T.);
#775 = LINE('',#776,#777);
#776 = CARTESIAN_POINT('',(4.115,2.364,0.));
#777 = VECTOR('',#778,1.);
#778 = DIRECTION('',(1.110223024625E-16,1.,0.));
#779 = ORIENTED_EDGE('',*,*,#690,.T.);
#780 = ORIENTED_EDGE('',*,*,#781,.T.);
#781 = EDGE_CURVE('',#691,#731,#782,.T.);
#782 = LINE('',#783,#784);
#783 = CARTESIAN_POINT('',(4.115,2.364,7.5E-02));
#784 = VECTOR('',#785,1.);
#785 = DIRECTION('',(1.110223024625E-16,1.,0.));
#786 = ORIENTED_EDGE('',*,*,#730,.F.);
#787 = PLANE('',#788);
#788 = AXIS2_PLACEMENT_3D('',#789,#790,#791);
#789 = CARTESIAN_POINT('',(4.115,2.364,0.));
#790 = DIRECTION('',(-1.,1.110223024625E-16,0.));
#791 = DIRECTION('',(0.,0.,1.));
#792 = ADVANCED_FACE('',(#793),#799,.F.);
#793 = FACE_BOUND('',#794,.F.);
#794 = EDGE_LOOP('',(#795,#796,#797,#798));
#795 = ORIENTED_EDGE('',*,*,#682,.F.);
#796 = ORIENTED_EDGE('',*,*,#752,.T.);
#797 = ORIENTED_EDGE('',*,*,#722,.T.);
#798 = ORIENTED_EDGE('',*,*,#774,.F.);
#799 = PLANE('',#800);
#800 = AXIS2_PLACEMENT_3D('',#801,#802,#803);
#801 = CARTESIAN_POINT('',(5.195,2.364,0.));
#802 = DIRECTION('',(0.,0.,1.));
#803 = DIRECTION('',(1.110223024625E-16,1.,0.));
#804 = ADVANCED_FACE('',(#805),#811,.T.);
#805 = FACE_BOUND('',#806,.T.);
#806 = EDGE_LOOP('',(#807,#808,#809,#810));
#807 = ORIENTED_EDGE('',*,*,#698,.F.);
#808 = ORIENTED_EDGE('',*,*,#759,.T.);
#809 = ORIENTED_EDGE('',*,*,#738,.T.);
#810 = ORIENTED_EDGE('',*,*,#781,.F.);
#811 = PLANE('',#812);
#812 = AXIS2_PLACEMENT_3D('',#813,#814,#815);
#813 = CARTESIAN_POINT('',(5.195,2.364,7.5E-02));
#814 = DIRECTION('',(0.,0.,1.));
#815 = DIRECTION('',(1.110223024625E-16,1.,0.));
#816 = MANIFOLD_SOLID_BREP('',#817);
#817 = CLOSED_SHELL('',(#818,#858,#898,#920,#942,#954));
#818 = ADVANCED_FACE('',(#819),#853,.F.);
#819 = FACE_BOUND('',#820,.F.);
#820 = EDGE_LOOP('',(#821,#831,#839,#847));
#821 = ORIENTED_EDGE('',*,*,#822,.F.);
#822 = EDGE_CURVE('',#823,#825,#827,.T.);
#823 = VERTEX_POINT('',#824);
#824 = CARTESIAN_POINT('',(-4.115,-4.32,0.));
#825 = VERTEX_POINT('',#826);
#826 = CARTESIAN_POINT('',(-4.115,-4.32,7.5E-02));
#827 = LINE('',#828,#829);
#828 = CARTESIAN_POINT('',(-4.115,-4.32,0.));
#829 = VECTOR('',#830,1.);
#830 = DIRECTION('',(0.,0.,1.));
#831 = ORIENTED_EDGE('',*,*,#832,.T.);
#832 = EDGE_CURVE('',#823,#833,#835,.T.);
#833 = VERTEX_POINT('',#834);
#834 = CARTESIAN_POINT('',(-5.195,-4.32,0.));
#835 = LINE('',#836,#837);
#836 = CARTESIAN_POINT('',(-4.115,-4.32,0.));
#837 = VECTOR('',#838,1.);
#838 = DIRECTION('',(-1.,1.110223024625E-16,0.));
#839 = ORIENTED_EDGE('',*,*,#840,.T.);
#840 = EDGE_CURVE('',#833,#841,#843,.T.);
#841 = VERTEX_POINT('',#842);
#842 = CARTESIAN_POINT('',(-5.195,-4.32,7.5E-02));
#843 = LINE('',#844,#845);
#844 = CARTESIAN_POINT('',(-5.195,-4.32,0.));
#845 = VECTOR('',#846,1.);
#846 = DIRECTION('',(0.,0.,1.));
#847 = ORIENTED_EDGE('',*,*,#848,.F.);
#848 = EDGE_CURVE('',#825,#841,#849,.T.);
#849 = LINE('',#850,#851);
#850 = CARTESIAN_POINT('',(-4.115,-4.32,7.5E-02));
#851 = VECTOR('',#852,1.);
#852 = DIRECTION('',(-1.,1.110223024625E-16,0.));
#853 = PLANE('',#854);
#854 = AXIS2_PLACEMENT_3D('',#855,#856,#857);
#855 = CARTESIAN_POINT('',(-4.115,-4.32,0.));
#856 = DIRECTION('',(1.110223024625E-16,1.,0.));
#857 = DIRECTION('',(0.,0.,1.));
#858 = ADVANCED_FACE('',(#859),#893,.T.);
#859 = FACE_BOUND('',#860,.T.);
#860 = EDGE_LOOP('',(#861,#871,#879,#887));
#861 = ORIENTED_EDGE('',*,*,#862,.F.);
#862 = EDGE_CURVE('',#863,#865,#867,.T.);
#863 = VERTEX_POINT('',#864);
#864 = CARTESIAN_POINT('',(-4.115,-2.88,0.));
#865 = VERTEX_POINT('',#866);
#866 = CARTESIAN_POINT('',(-4.115,-2.88,7.5E-02));
#867 = LINE('',#868,#869);
#868 = CARTESIAN_POINT('',(-4.115,-2.88,0.));
#869 = VECTOR('',#870,1.);
#870 = DIRECTION('',(0.,0.,1.));
#871 = ORIENTED_EDGE('',*,*,#872,.T.);
#872 = EDGE_CURVE('',#863,#873,#875,.T.);
#873 = VERTEX_POINT('',#874);
#874 = CARTESIAN_POINT('',(-5.195,-2.88,0.));
#875 = LINE('',#876,#877);
#876 = CARTESIAN_POINT('',(-4.115,-2.88,0.));
#877 = VECTOR('',#878,1.);
#878 = DIRECTION('',(-1.,1.110223024625E-16,0.));
#879 = ORIENTED_EDGE('',*,*,#880,.T.);
#880 = EDGE_CURVE('',#873,#881,#883,.T.);
#881 = VERTEX_POINT('',#882);
#882 = CARTESIAN_POINT('',(-5.195,-2.88,7.5E-02));
#883 = LINE('',#884,#885);
#884 = CARTESIAN_POINT('',(-5.195,-2.88,0.));
#885 = VECTOR('',#886,1.);
#886 = DIRECTION('',(0.,0.,1.));
#887 = ORIENTED_EDGE('',*,*,#888,.F.);
#888 = EDGE_CURVE('',#865,#881,#889,.T.);
#889 = LINE('',#890,#891);
#890 = CARTESIAN_POINT('',(-4.115,-2.88,7.5E-02));
#891 = VECTOR('',#892,1.);
#892 = DIRECTION('',(-1.,1.110223024625E-16,0.));
#893 = PLANE('',#894);
#894 = AXIS2_PLACEMENT_3D('',#895,#896,#897);
#895 = CARTESIAN_POINT('',(-4.115,-2.88,0.));
#896 = DIRECTION('',(1.110223024625E-16,1.,0.));
#897 = DIRECTION('',(0.,0.,1.));
#898 = ADVANCED_FACE('',(#899),#915,.F.);
#899 = FACE_BOUND('',#900,.F.);
#900 = EDGE_LOOP('',(#901,#907,#908,#914));
#901 = ORIENTED_EDGE('',*,*,#902,.F.);
#902 = EDGE_CURVE('',#823,#863,#903,.T.);
#903 = LINE('',#904,#905);
#904 = CARTESIAN_POINT('',(-4.115,-4.32,0.));
#905 = VECTOR('',#906,1.);
#906 = DIRECTION('',(1.110223024625E-16,1.,0.));
#907 = ORIENTED_EDGE('',*,*,#822,.T.);
#908 = ORIENTED_EDGE('',*,*,#909,.T.);
#909 = EDGE_CURVE('',#825,#865,#910,.T.);
#910 = LINE('',#911,#912);
#911 = CARTESIAN_POINT('',(-4.115,-4.32,7.5E-02));
#912 = VECTOR('',#913,1.);
#913 = DIRECTION('',(1.110223024625E-16,1.,0.));
#914 = ORIENTED_EDGE('',*,*,#862,.F.);
#915 = PLANE('',#916);
#916 = AXIS2_PLACEMENT_3D('',#917,#918,#919);
#917 = CARTESIAN_POINT('',(-4.115,-4.32,0.));
#918 = DIRECTION('',(-1.,1.110223024625E-16,0.));
#919 = DIRECTION('',(0.,0.,1.));
#920 = ADVANCED_FACE('',(#921),#937,.T.);
#921 = FACE_BOUND('',#922,.T.);
#922 = EDGE_LOOP('',(#923,#929,#930,#936));
#923 = ORIENTED_EDGE('',*,*,#924,.F.);
#924 = EDGE_CURVE('',#833,#873,#925,.T.);
#925 = LINE('',#926,#927);
#926 = CARTESIAN_POINT('',(-5.195,-4.32,0.));
#927 = VECTOR('',#928,1.);
#928 = DIRECTION('',(1.110223024625E-16,1.,0.));
#929 = ORIENTED_EDGE('',*,*,#840,.T.);
#930 = ORIENTED_EDGE('',*,*,#931,.T.);
#931 = EDGE_CURVE('',#841,#881,#932,.T.);
#932 = LINE('',#933,#934);
#933 = CARTESIAN_POINT('',(-5.195,-4.32,7.5E-02));
#934 = VECTOR('',#935,1.);
#935 = DIRECTION('',(1.110223024625E-16,1.,0.));
#936 = ORIENTED_EDGE('',*,*,#880,.F.);
#937 = PLANE('',#938);
#938 = AXIS2_PLACEMENT_3D('',#939,#940,#941);
#939 = CARTESIAN_POINT('',(-5.195,-4.32,0.));
#940 = DIRECTION('',(-1.,1.110223024625E-16,0.));
#941 = DIRECTION('',(0.,0.,1.));
#942 = ADVANCED_FACE('',(#943),#949,.F.);
#943 = FACE_BOUND('',#944,.F.);
#944 = EDGE_LOOP('',(#945,#946,#947,#948));
#945 = ORIENTED_EDGE('',*,*,#832,.F.);
#946 = ORIENTED_EDGE('',*,*,#902,.T.);
#947 = ORIENTED_EDGE('',*,*,#872,.T.);
#948 = ORIENTED_EDGE('',*,*,#924,.F.);
#949 = PLANE('',#950);
#950 = AXIS2_PLACEMENT_3D('',#951,#952,#953);
#951 = CARTESIAN_POINT('',(-4.115,-4.32,0.));
#952 = DIRECTION('',(0.,0.,1.));
#953 = DIRECTION('',(1.110223024625E-16,1.,0.));
#954 = ADVANCED_FACE('',(#955),#961,.T.);
#955 = FACE_BOUND('',#956,.T.);
#956 = EDGE_LOOP('',(#957,#958,#959,#960));
#957 = ORIENTED_EDGE('',*,*,#848,.F.);
#958 = ORIENTED_EDGE('',*,*,#909,.T.);
#959 = ORIENTED_EDGE('',*,*,#888,.T.);
#960 = ORIENTED_EDGE('',*,*,#931,.F.);
#961 = PLANE('',#962);
#962 = AXIS2_PLACEMENT_3D('',#963,#964,#965);
#963 = CARTESIAN_POINT('',(-4.115,-4.32,7.5E-02));
#964 = DIRECTION('',(0.,0.,1.));
#965 = DIRECTION('',(1.110223024625E-16,1.,0.));
#966 = MANIFOLD_SOLID_BREP('',#967);
#967 = CLOSED_SHELL('',(#968,#1008,#1048,#1070,#1092,#1104));
#968 = ADVANCED_FACE('',(#969),#1003,.F.);
#969 = FACE_BOUND('',#970,.F.);
#970 = EDGE_LOOP('',(#971,#981,#989,#997));
#971 = ORIENTED_EDGE('',*,*,#972,.F.);
#972 = EDGE_CURVE('',#973,#975,#977,.T.);
#973 = VERTEX_POINT('',#974);
#974 = CARTESIAN_POINT('',(-0.815,-4.32,0.));
#975 = VERTEX_POINT('',#976);
#976 = CARTESIAN_POINT('',(-0.815,-4.32,7.5E-02));
#977 = LINE('',#978,#979);
#978 = CARTESIAN_POINT('',(-0.815,-4.32,0.));
#979 = VECTOR('',#980,1.);
#980 = DIRECTION('',(0.,0.,1.));
#981 = ORIENTED_EDGE('',*,*,#982,.T.);
#982 = EDGE_CURVE('',#973,#983,#985,.T.);
#983 = VERTEX_POINT('',#984);
#984 = CARTESIAN_POINT('',(-1.895,-4.32,0.));
#985 = LINE('',#986,#987);
#986 = CARTESIAN_POINT('',(-0.815,-4.32,0.));
#987 = VECTOR('',#988,1.);
#988 = DIRECTION('',(-1.,1.110223024625E-16,0.));
#989 = ORIENTED_EDGE('',*,*,#990,.T.);
#990 = EDGE_CURVE('',#983,#991,#993,.T.);
#991 = VERTEX_POINT('',#992);
#992 = CARTESIAN_POINT('',(-1.895,-4.32,7.5E-02));
#993 = LINE('',#994,#995);
#994 = CARTESIAN_POINT('',(-1.895,-4.32,0.));
#995 = VECTOR('',#996,1.);
#996 = DIRECTION('',(0.,0.,1.));
#997 = ORIENTED_EDGE('',*,*,#998,.F.);
#998 = EDGE_CURVE('',#975,#991,#999,.T.);
#999 = LINE('',#1000,#1001);
#1000 = CARTESIAN_POINT('',(-0.815,-4.32,7.5E-02));
#1001 = VECTOR('',#1002,1.);
#1002 = DIRECTION('',(-1.,1.110223024625E-16,0.));
#1003 = PLANE('',#1004);
#1004 = AXIS2_PLACEMENT_3D('',#1005,#1006,#1007);
#1005 = CARTESIAN_POINT('',(-0.815,-4.32,0.));
#1006 = DIRECTION('',(1.110223024625E-16,1.,0.));
#1007 = DIRECTION('',(0.,0.,1.));
#1008 = ADVANCED_FACE('',(#1009),#1043,.T.);
#1009 = FACE_BOUND('',#1010,.T.);
#1010 = EDGE_LOOP('',(#1011,#1021,#1029,#1037));
#1011 = ORIENTED_EDGE('',*,*,#1012,.F.);
#1012 = EDGE_CURVE('',#1013,#1015,#1017,.T.);
#1013 = VERTEX_POINT('',#1014);
#1014 = CARTESIAN_POINT('',(-0.815,-2.88,0.));
#1015 = VERTEX_POINT('',#1016);
#1016 = CARTESIAN_POINT('',(-0.815,-2.88,7.5E-02));
#1017 = LINE('',#1018,#1019);
#1018 = CARTESIAN_POINT('',(-0.815,-2.88,0.));
#1019 = VECTOR('',#1020,1.);
#1020 = DIRECTION('',(0.,0.,1.));
#1021 = ORIENTED_EDGE('',*,*,#1022,.T.);
#1022 = EDGE_CURVE('',#1013,#1023,#1025,.T.);
#1023 = VERTEX_POINT('',#1024);
#1024 = CARTESIAN_POINT('',(-1.895,-2.88,0.));
#1025 = LINE('',#1026,#1027);
#1026 = CARTESIAN_POINT('',(-0.815,-2.88,0.));
#1027 = VECTOR('',#1028,1.);
#1028 = DIRECTION('',(-1.,1.110223024625E-16,0.));
#1029 = ORIENTED_EDGE('',*,*,#1030,.T.);
#1030 = EDGE_CURVE('',#1023,#1031,#1033,.T.);
#1031 = VERTEX_POINT('',#1032);
#1032 = CARTESIAN_POINT('',(-1.895,-2.88,7.5E-02));
#1033 = LINE('',#1034,#1035);
#1034 = CARTESIAN_POINT('',(-1.895,-2.88,0.));
#1035 = VECTOR('',#1036,1.);
#1036 = DIRECTION('',(0.,0.,1.));
#1037 = ORIENTED_EDGE('',*,*,#1038,.F.);
#1038 = EDGE_CURVE('',#1015,#1031,#1039,.T.);
#1039 = LINE('',#1040,#1041);
#1040 = CARTESIAN_POINT('',(-0.815,-2.88,7.5E-02));
#1041 = VECTOR('',#1042,1.);
#1042 = DIRECTION('',(-1.,1.110223024625E-16,0.));
#1043 = PLANE('',#1044);
#1044 = AXIS2_PLACEMENT_3D('',#1045,#1046,#1047);
#1045 = CARTESIAN_POINT('',(-0.815,-2.88,0.));
#1046 = DIRECTION('',(1.110223024625E-16,1.,0.));
#1047 = DIRECTION('',(0.,0.,1.));
#1048 = ADVANCED_FACE('',(#1049),#1065,.F.);
#1049 = FACE_BOUND('',#1050,.F.);
#1050 = EDGE_LOOP('',(#1051,#1057,#1058,#1064));
#1051 = ORIENTED_EDGE('',*,*,#1052,.F.);
#1052 = EDGE_CURVE('',#973,#1013,#1053,.T.);
#1053 = LINE('',#1054,#1055);
#1054 = CARTESIAN_POINT('',(-0.815,-4.32,0.));
#1055 = VECTOR('',#1056,1.);
#1056 = DIRECTION('',(1.110223024625E-16,1.,0.));
#1057 = ORIENTED_EDGE('',*,*,#972,.T.);
#1058 = ORIENTED_EDGE('',*,*,#1059,.T.);
#1059 = EDGE_CURVE('',#975,#1015,#1060,.T.);
#1060 = LINE('',#1061,#1062);
#1061 = CARTESIAN_POINT('',(-0.815,-4.32,7.5E-02));
#1062 = VECTOR('',#1063,1.);
#1063 = DIRECTION('',(1.110223024625E-16,1.,0.));
#1064 = ORIENTED_EDGE('',*,*,#1012,.F.);
#1065 = PLANE('',#1066);
#1066 = AXIS2_PLACEMENT_3D('',#1067,#1068,#1069);
#1067 = CARTESIAN_POINT('',(-0.815,-4.32,0.));
#1068 = DIRECTION('',(-1.,1.110223024625E-16,0.));
#1069 = DIRECTION('',(0.,0.,1.));
#1070 = ADVANCED_FACE('',(#1071),#1087,.T.);
#1071 = FACE_BOUND('',#1072,.T.);
#1072 = EDGE_LOOP('',(#1073,#1079,#1080,#1086));
#1073 = ORIENTED_EDGE('',*,*,#1074,.F.);
#1074 = EDGE_CURVE('',#983,#1023,#1075,.T.);
#1075 = LINE('',#1076,#1077);
#1076 = CARTESIAN_POINT('',(-1.895,-4.32,0.));
#1077 = VECTOR('',#1078,1.);
#1078 = DIRECTION('',(1.110223024625E-16,1.,0.));
#1079 = ORIENTED_EDGE('',*,*,#990,.T.);
#1080 = ORIENTED_EDGE('',*,*,#1081,.T.);
#1081 = EDGE_CURVE('',#991,#1031,#1082,.T.);
#1082 = LINE('',#1083,#1084);
#1083 = CARTESIAN_POINT('',(-1.895,-4.32,7.5E-02));
#1084 = VECTOR('',#1085,1.);
#1085 = DIRECTION('',(1.110223024625E-16,1.,0.));
#1086 = ORIENTED_EDGE('',*,*,#1030,.F.);
#1087 = PLANE('',#1088);
#1088 = AXIS2_PLACEMENT_3D('',#1089,#1090,#1091);
#1089 = CARTESIAN_POINT('',(-1.895,-4.32,0.));
#1090 = DIRECTION('',(-1.,1.110223024625E-16,0.));
#1091 = DIRECTION('',(0.,0.,1.));
#1092 = ADVANCED_FACE('',(#1093),#1099,.F.);
#1093 = FACE_BOUND('',#1094,.F.);
#1094 = EDGE_LOOP('',(#1095,#1096,#1097,#1098));
#1095 = ORIENTED_EDGE('',*,*,#982,.F.);
#1096 = ORIENTED_EDGE('',*,*,#1052,.T.);
#1097 = ORIENTED_EDGE('',*,*,#1022,.T.);
#1098 = ORIENTED_EDGE('',*,*,#1074,.F.);
#1099 = PLANE('',#1100);
#1100 = AXIS2_PLACEMENT_3D('',#1101,#1102,#1103);
#1101 = CARTESIAN_POINT('',(-0.815,-4.32,0.));
#1102 = DIRECTION('',(0.,0.,1.));
#1103 = DIRECTION('',(1.110223024625E-16,1.,0.));
#1104 = ADVANCED_FACE('',(#1105),#1111,.T.);
#1105 = FACE_BOUND('',#1106,.T.);
#1106 = EDGE_LOOP('',(#1107,#1108,#1109,#1110));
#1107 = ORIENTED_EDGE('',*,*,#998,.F.);
#1108 = ORIENTED_EDGE('',*,*,#1059,.T.);
#1109 = ORIENTED_EDGE('',*,*,#1038,.T.);
#1110 = ORIENTED_EDGE('',*,*,#1081,.F.);
#1111 = PLANE('',#1112);
#1112 = AXIS2_PLACEMENT_3D('',#1113,#1114,#1115);
#1113 = CARTESIAN_POINT('',(-0.815,-4.32,7.5E-02));
#1114 = DIRECTION('',(0.,0.,1.));
#1115 = DIRECTION('',(1.110223024625E-16,1.,0.));
#1116 = MANIFOLD_SOLID_BREP('',#1117);
#1117 = CLOSED_SHELL('',(#1118,#1158,#1198,#1220,#1242,#1254));
#1118 = ADVANCED_FACE('',(#1119),#1153,.F.);
#1119 = FACE_BOUND('',#1120,.F.);
#1120 = EDGE_LOOP('',(#1121,#1131,#1139,#1147));
#1121 = ORIENTED_EDGE('',*,*,#1122,.F.);
#1122 = EDGE_CURVE('',#1123,#1125,#1127,.T.);
#1123 = VERTEX_POINT('',#1124);
#1124 = CARTESIAN_POINT('',(4.685,-4.32,0.));
#1125 = VERTEX_POINT('',#1126);
#1126 = CARTESIAN_POINT('',(4.685,-4.32,7.5E-02));
#1127 = LINE('',#1128,#1129);
#1128 = CARTESIAN_POINT('',(4.685,-4.32,0.));
#1129 = VECTOR('',#1130,1.);
#1130 = DIRECTION('',(0.,0.,1.));
#1131 = ORIENTED_EDGE('',*,*,#1132,.T.);
#1132 = EDGE_CURVE('',#1123,#1133,#1135,.T.);
#1133 = VERTEX_POINT('',#1134);
#1134 = CARTESIAN_POINT('',(3.605,-4.32,0.));
#1135 = LINE('',#1136,#1137);
#1136 = CARTESIAN_POINT('',(4.685,-4.32,0.));
#1137 = VECTOR('',#1138,1.);
#1138 = DIRECTION('',(-1.,1.110223024625E-16,0.));
#1139 = ORIENTED_EDGE('',*,*,#1140,.T.);
#1140 = EDGE_CURVE('',#1133,#1141,#1143,.T.);
#1141 = VERTEX_POINT('',#1142);
#1142 = CARTESIAN_POINT('',(3.605,-4.32,7.5E-02));
#1143 = LINE('',#1144,#1145);
#1144 = CARTESIAN_POINT('',(3.605,-4.32,0.));
#1145 = VECTOR('',#1146,1.);
#1146 = DIRECTION('',(0.,0.,1.));
#1147 = ORIENTED_EDGE('',*,*,#1148,.F.);
#1148 = EDGE_CURVE('',#1125,#1141,#1149,.T.);
#1149 = LINE('',#1150,#1151);
#1150 = CARTESIAN_POINT('',(4.685,-4.32,7.5E-02));
#1151 = VECTOR('',#1152,1.);
#1152 = DIRECTION('',(-1.,1.110223024625E-16,0.));
#1153 = PLANE('',#1154);
#1154 = AXIS2_PLACEMENT_3D('',#1155,#1156,#1157);
#1155 = CARTESIAN_POINT('',(4.685,-4.32,0.));
#1156 = DIRECTION('',(1.110223024625E-16,1.,0.));
#1157 = DIRECTION('',(0.,0.,1.));
#1158 = ADVANCED_FACE('',(#1159),#1193,.T.);
#1159 = FACE_BOUND('',#1160,.T.);
#1160 = EDGE_LOOP('',(#1161,#1171,#1179,#1187));
#1161 = ORIENTED_EDGE('',*,*,#1162,.F.);
#1162 = EDGE_CURVE('',#1163,#1165,#1167,.T.);
#1163 = VERTEX_POINT('',#1164);
#1164 = CARTESIAN_POINT('',(4.685,-2.88,0.));
#1165 = VERTEX_POINT('',#1166);
#1166 = CARTESIAN_POINT('',(4.685,-2.88,7.5E-02));
#1167 = LINE('',#1168,#1169);
#1168 = CARTESIAN_POINT('',(4.685,-2.88,0.));
#1169 = VECTOR('',#1170,1.);
#1170 = DIRECTION('',(0.,0.,1.));
#1171 = ORIENTED_EDGE('',*,*,#1172,.T.);
#1172 = EDGE_CURVE('',#1163,#1173,#1175,.T.);
#1173 = VERTEX_POINT('',#1174);
#1174 = CARTESIAN_POINT('',(3.605,-2.88,0.));
#1175 = LINE('',#1176,#1177);
#1176 = CARTESIAN_POINT('',(4.685,-2.88,0.));
#1177 = VECTOR('',#1178,1.);
#1178 = DIRECTION('',(-1.,1.110223024625E-16,0.));
#1179 = ORIENTED_EDGE('',*,*,#1180,.T.);
#1180 = EDGE_CURVE('',#1173,#1181,#1183,.T.);
#1181 = VERTEX_POINT('',#1182);
#1182 = CARTESIAN_POINT('',(3.605,-2.88,7.5E-02));
#1183 = LINE('',#1184,#1185);
#1184 = CARTESIAN_POINT('',(3.605,-2.88,0.));
#1185 = VECTOR('',#1186,1.);
#1186 = DIRECTION('',(0.,0.,1.));
#1187 = ORIENTED_EDGE('',*,*,#1188,.F.);
#1188 = EDGE_CURVE('',#1165,#1181,#1189,.T.);
#1189 = LINE('',#1190,#1191);
#1190 = CARTESIAN_POINT('',(4.685,-2.88,7.5E-02));
#1191 = VECTOR('',#1192,1.);
#1192 = DIRECTION('',(-1.,1.110223024625E-16,0.));
#1193 = PLANE('',#1194);
#1194 = AXIS2_PLACEMENT_3D('',#1195,#1196,#1197);
#1195 = CARTESIAN_POINT('',(4.685,-2.88,0.));
#1196 = DIRECTION('',(1.110223024625E-16,1.,0.));
#1197 = DIRECTION('',(0.,0.,1.));
#1198 = ADVANCED_FACE('',(#1199),#1215,.F.);
#1199 = FACE_BOUND('',#1200,.F.);
#1200 = EDGE_LOOP('',(#1201,#1207,#1208,#1214));
#1201 = ORIENTED_EDGE('',*,*,#1202,.F.);
#1202 = EDGE_CURVE('',#1123,#1163,#1203,.T.);
#1203 = LINE('',#1204,#1205);
#1204 = CARTESIAN_POINT('',(4.685,-4.32,0.));
#1205 = VECTOR('',#1206,1.);
#1206 = DIRECTION('',(1.110223024625E-16,1.,0.));
#1207 = ORIENTED_EDGE('',*,*,#1122,.T.);
#1208 = ORIENTED_EDGE('',*,*,#1209,.T.);
#1209 = EDGE_CURVE('',#1125,#1165,#1210,.T.);
#1210 = LINE('',#1211,#1212);
#1211 = CARTESIAN_POINT('',(4.685,-4.32,7.5E-02));
#1212 = VECTOR('',#1213,1.);
#1213 = DIRECTION('',(1.110223024625E-16,1.,0.));
#1214 = ORIENTED_EDGE('',*,*,#1162,.F.);
#1215 = PLANE('',#1216);
#1216 = AXIS2_PLACEMENT_3D('',#1217,#1218,#1219);
#1217 = CARTESIAN_POINT('',(4.685,-4.32,0.));
#1218 = DIRECTION('',(-1.,1.110223024625E-16,0.));
#1219 = DIRECTION('',(0.,0.,1.));
#1220 = ADVANCED_FACE('',(#1221),#1237,.T.);
#1221 = FACE_BOUND('',#1222,.T.);
#1222 = EDGE_LOOP('',(#1223,#1229,#1230,#1236));
#1223 = ORIENTED_EDGE('',*,*,#1224,.F.);
#1224 = EDGE_CURVE('',#1133,#1173,#1225,.T.);
#1225 = LINE('',#1226,#1227);
#1226 = CARTESIAN_POINT('',(3.605,-4.32,0.));
#1227 = VECTOR('',#1228,1.);
#1228 = DIRECTION('',(1.110223024625E-16,1.,0.));
#1229 = ORIENTED_EDGE('',*,*,#1140,.T.);
#1230 = ORIENTED_EDGE('',*,*,#1231,.T.);
#1231 = EDGE_CURVE('',#1141,#1181,#1232,.T.);
#1232 = LINE('',#1233,#1234);
#1233 = CARTESIAN_POINT('',(3.605,-4.32,7.5E-02));
#1234 = VECTOR('',#1235,1.);
#1235 = DIRECTION('',(1.110223024625E-16,1.,0.));
#1236 = ORIENTED_EDGE('',*,*,#1180,.F.);
#1237 = PLANE('',#1238);
#1238 = AXIS2_PLACEMENT_3D('',#1239,#1240,#1241);
#1239 = CARTESIAN_POINT('',(3.605,-4.32,0.));
#1240 = DIRECTION('',(-1.,1.110223024625E-16,0.));
#1241 = DIRECTION('',(0.,0.,1.));
#1242 = ADVANCED_FACE('',(#1243),#1249,.F.);
#1243 = FACE_BOUND('',#1244,.F.);
#1244 = EDGE_LOOP('',(#1245,#1246,#1247,#1248));
#1245 = ORIENTED_EDGE('',*,*,#1132,.F.);
#1246 = ORIENTED_EDGE('',*,*,#1202,.T.);
#1247 = ORIENTED_EDGE('',*,*,#1172,.T.);
#1248 = ORIENTED_EDGE('',*,*,#1224,.F.);
#1249 = PLANE('',#1250);
#1250 = AXIS2_PLACEMENT_3D('',#1251,#1252,#1253);
#1251 = CARTESIAN_POINT('',(4.685,-4.32,0.));
#1252 = DIRECTION('',(0.,0.,1.));
#1253 = DIRECTION('',(1.110223024625E-16,1.,0.));
#1254 = ADVANCED_FACE('',(#1255),#1261,.T.);
#1255 = FACE_BOUND('',#1256,.T.);
#1256 = EDGE_LOOP('',(#1257,#1258,#1259,#1260));
#1257 = ORIENTED_EDGE('',*,*,#1148,.F.);
#1258 = ORIENTED_EDGE('',*,*,#1209,.T.);
#1259 = ORIENTED_EDGE('',*,*,#1188,.T.);
#1260 = ORIENTED_EDGE('',*,*,#1231,.F.);
#1261 = PLANE('',#1262);
#1262 = AXIS2_PLACEMENT_3D('',#1263,#1264,#1265);
#1263 = CARTESIAN_POINT('',(4.685,-4.32,7.5E-02));
#1264 = DIRECTION('',(0.,0.,1.));
#1265 = DIRECTION('',(1.110223024625E-16,1.,0.));
#1266 = ( GEOMETRIC_REPRESENTATION_CONTEXT(3) 
GLOBAL_UNCERTAINTY_ASSIGNED_CONTEXT((#1270)) 
GLOBAL_UNIT_ASSIGNED_CONTEXT((#1267,#1268,#1269)) REPRESENTATION_CONTEXT
('Context #1','3D Context with UNIT and UNCERTAINTY') );
#1267 = ( LENGTH_UNIT() NAMED_UNIT(*) SI_UNIT(.MILLI.,.METRE.) );
#1268 = ( NAMED_UNIT(*) PLANE_ANGLE_UNIT() SI_UNIT($,.RADIAN.) );
#1269 = ( NAMED_UNIT(*) SI_UNIT($,.STERADIAN.) SOLID_ANGLE_UNIT() );
#1270 = UNCERTAINTY_MEASURE_WITH_UNIT(LENGTH_MEASURE(1.E-07),#1267,
  'distance_accuracy_value','confusion accuracy');
#1271 = CONTEXT_DEPENDENT_SHAPE_REPRESENTATION(#1272,#1274);
#1272 = ( REPRESENTATION_RELATIONSHIP('','',#365,#10) 
REPRESENTATION_RELATIONSHIP_WITH_TRANSFORMATION(#1273) 
SHAPE_REPRESENTATION_RELATIONSHIP() );
#1273 = ITEM_DEFINED_TRANSFORMATION('','',#11,#23);
#1274 = PRODUCT_DEFINITION_SHAPE('Placement','Placement of an item',
  #1275);
#1275 = NEXT_ASSEMBLY_USAGE_OCCURRENCE('3','Terminals','',#5,#360,$);
#1276 = PRODUCT_RELATED_PRODUCT_CATEGORY('part',$,(#362));
#1277 = MECHANICAL_DESIGN_GEOMETRIC_PRESENTATION_REPRESENTATION('',(
    #1278,#1289,#1298,#1307,#1316,#1325),#1266);
#1278 = STYLED_ITEM('color',(#1279),#366);
#1279 = PRESENTATION_STYLE_ASSIGNMENT((#1280,#1286));
#1280 = SURFACE_STYLE_USAGE(.BOTH.,#1281);
#1281 = SURFACE_SIDE_STYLE('',(#1282));
#1282 = SURFACE_STYLE_FILL_AREA(#1283);
#1283 = FILL_AREA_STYLE('',(#1284));
#1284 = FILL_AREA_STYLE_COLOUR('',#1285);
#1285 = COLOUR_RGB('',0.730000014984,0.750000000934,0.769999993182);
#1286 = CURVE_STYLE('',#1287,POSITIVE_LENGTH_MEASURE(0.1),#1288);
#1287 = DRAUGHTING_PRE_DEFINED_CURVE_FONT('continuous');
#1288 = COLOUR_RGB('',9.803921802644E-02,9.803921802644E-02,
  9.803921802644E-02);
#1289 = STYLED_ITEM('color',(#1290),#516);
#1290 = PRESENTATION_STYLE_ASSIGNMENT((#1291,#1296));
#1291 = SURFACE_STYLE_USAGE(.BOTH.,#1292);
#1292 = SURFACE_SIDE_STYLE('',(#1293));
#1293 = SURFACE_STYLE_FILL_AREA(#1294);
#1294 = FILL_AREA_STYLE('',(#1295));
#1295 = FILL_AREA_STYLE_COLOUR('',#1285);
#1296 = CURVE_STYLE('',#1297,POSITIVE_LENGTH_MEASURE(0.1),#1288);
#1297 = DRAUGHTING_PRE_DEFINED_CURVE_FONT('continuous');
#1298 = STYLED_ITEM('color',(#1299),#666);
#1299 = PRESENTATION_STYLE_ASSIGNMENT((#1300,#1305));
#1300 = SURFACE_STYLE_USAGE(.BOTH.,#1301);
#1301 = SURFACE_SIDE_STYLE('',(#1302));
#1302 = SURFACE_STYLE_FILL_AREA(#1303);
#1303 = FILL_AREA_STYLE('',(#1304));
#1304 = FILL_AREA_STYLE_COLOUR('',#1285);
#1305 = CURVE_STYLE('',#1306,POSITIVE_LENGTH_MEASURE(0.1),#1288);
#1306 = DRAUGHTING_PRE_DEFINED_CURVE_FONT('continuous');
#1307 = STYLED_ITEM('color',(#1308),#816);
#1308 = PRESENTATION_STYLE_ASSIGNMENT((#1309,#1314));
#1309 = SURFACE_STYLE_USAGE(.BOTH.,#1310);
#1310 = SURFACE_SIDE_STYLE('',(#1311));
#1311 = SURFACE_STYLE_FILL_AREA(#1312);
#1312 = FILL_AREA_STYLE('',(#1313));
#1313 = FILL_AREA_STYLE_COLOUR('',#1285);
#1314 = CURVE_STYLE('',#1315,POSITIVE_LENGTH_MEASURE(0.1),#1288);
#1315 = DRAUGHTING_PRE_DEFINED_CURVE_FONT('continuous');
#1316 = STYLED_ITEM('color',(#1317),#966);
#1317 = PRESENTATION_STYLE_ASSIGNMENT((#1318,#1323));
#1318 = SURFACE_STYLE_USAGE(.BOTH.,#1319);
#1319 = SURFACE_SIDE_STYLE('',(#1320));
#1320 = SURFACE_STYLE_FILL_AREA(#1321);
#1321 = FILL_AREA_STYLE('',(#1322));
#1322 = FILL_AREA_STYLE_COLOUR('',#1285);
#1323 = CURVE_STYLE('',#1324,POSITIVE_LENGTH_MEASURE(0.1),#1288);
#1324 = DRAUGHTING_PRE_DEFINED_CURVE_FONT('continuous');
#1325 = STYLED_ITEM('color',(#1326),#1116);
#1326 = PRESENTATION_STYLE_ASSIGNMENT((#1327,#1332));
#1327 = SURFACE_STYLE_USAGE(.BOTH.,#1328);
#1328 = SURFACE_SIDE_STYLE('',(#1329));
#1329 = SURFACE_STYLE_FILL_AREA(#1330);
#1330 = FILL_AREA_STYLE('',(#1331));
#1331 = FILL_AREA_STYLE_COLOUR('',#1285);
#1332 = CURVE_STYLE('',#1333,POSITIVE_LENGTH_MEASURE(0.1),#1288);
#1333 = DRAUGHTING_PRE_DEFINED_CURVE_FONT('continuous');
#1334 = MECHANICAL_DESIGN_GEOMETRIC_PRESENTATION_REPRESENTATION('',(
    #1335),#347);
#1335 = STYLED_ITEM('color',(#1336),#255);
#1336 = PRESENTATION_STYLE_ASSIGNMENT((#1337,#1342));
#1337 = SURFACE_STYLE_USAGE(.BOTH.,#1338);
#1338 = SURFACE_SIDE_STYLE('',(#1339));
#1339 = SURFACE_STYLE_FILL_AREA(#1340);
#1340 = FILL_AREA_STYLE('',(#1341));
#1341 = FILL_AREA_STYLE_COLOUR('',#1285);
#1342 = CURVE_STYLE('',#1343,POSITIVE_LENGTH_MEASURE(0.1),#1288);
#1343 = DRAUGHTING_PRE_DEFINED_CURVE_FONT('continuous');
#1344 = MECHANICAL_DESIGN_GEOMETRIC_PRESENTATION_REPRESENTATION('',(
    #1345),#236);
#1345 = STYLED_ITEM('color',(#1346),#41);
#1346 = PRESENTATION_STYLE_ASSIGNMENT((#1347,#1353));
#1347 = SURFACE_STYLE_USAGE(.BOTH.,#1348);
#1348 = SURFACE_SIDE_STYLE('',(#1349));
#1349 = SURFACE_STYLE_FILL_AREA(#1350);
#1350 = FILL_AREA_STYLE('',(#1351));
#1351 = FILL_AREA_STYLE_COLOUR('',#1352);
#1352 = COLOUR_RGB('',8.499999944116E-02,9.000000351345E-02,
  9.999999991362E-02);
#1353 = CURVE_STYLE('',#1354,POSITIVE_LENGTH_MEASURE(0.1),#1288);
#1354 = DRAUGHTING_PRE_DEFINED_CURVE_FONT('continuous');
ENDSEC;
END-ISO-10303-21;
