G04 #@! TF.GenerationSoftware,KiCad,Pcbnew,10.0.4*
G04 #@! TF.CreationDate,2026-09-22T02:23:38+08:00*
G04 #@! TF.ProjectId,controls,636f6e74-726f-46c7-932e-6b696361645f,rev?*
G04 #@! TF.SameCoordinates,Original*
G04 #@! TF.FileFunction,Soldermask,Bot*
G04 #@! TF.FilePolarity,Negative*
%FSLAX46Y46*%
G04 Gerber Fmt 4.6, Leading zero omitted, Abs format (unit mm)*
G04 Created by KiCad (PCBNEW 10.0.4) date 2026-09-22 02:23:38*
%MOMM*%
%LPD*%
G01*
G04 APERTURE LIST*
G04 Aperture macros list*
%AMRoundRect*
0 Rectangle with rounded corners*
0 $1 Rounding radius*
0 $2 $3 $4 $5 $6 $7 $8 $9 X,Y pos of 4 corners*
0 Add a 4 corners polygon primitive as box body*
4,1,4,$2,$3,$4,$5,$6,$7,$8,$9,$2,$3,0*
0 Add four circle primitives for the rounded corners*
1,1,$1+$1,$2,$3*
1,1,$1+$1,$4,$5*
1,1,$1+$1,$6,$7*
1,1,$1+$1,$8,$9*
0 Add four rect primitives between the rounded corners*
20,1,$1+$1,$2,$3,$4,$5,0*
20,1,$1+$1,$4,$5,$6,$7,0*
20,1,$1+$1,$6,$7,$8,$9,0*
20,1,$1+$1,$8,$9,$2,$3,0*%
%AMFreePoly0*
4,1,14,0.410355,0.110355,0.425000,0.075000,0.425000,0.045711,0.410355,0.010356,0.289644,-0.110355,0.254289,-0.125000,-0.375000,-0.125000,-0.410355,-0.110355,-0.425000,-0.075000,-0.425000,0.075000,-0.410355,0.110355,-0.375000,0.125000,0.375000,0.125000,0.410355,0.110355,0.410355,0.110355,$1*%
%AMFreePoly1*
4,1,14,0.289644,0.110355,0.410355,-0.010356,0.425000,-0.045711,0.425000,-0.075000,0.410355,-0.110355,0.375000,-0.125000,-0.375000,-0.125000,-0.410355,-0.110355,-0.425000,-0.075000,-0.425000,0.075000,-0.410355,0.110355,-0.375000,0.125000,0.254289,0.125000,0.289644,0.110355,0.289644,0.110355,$1*%
%AMFreePoly2*
4,1,14,0.110355,0.410355,0.125000,0.375000,0.125000,-0.375000,0.110355,-0.410355,0.075000,-0.425000,0.045711,-0.425000,0.010356,-0.410355,-0.110355,-0.289644,-0.125000,-0.254289,-0.125000,0.375000,-0.110355,0.410355,-0.075000,0.425000,0.075000,0.425000,0.110355,0.410355,0.110355,0.410355,$1*%
%AMFreePoly3*
4,1,14,0.110355,0.410355,0.125000,0.375000,0.125000,-0.254289,0.110355,-0.289644,-0.010356,-0.410355,-0.045711,-0.425000,-0.075000,-0.425000,-0.110355,-0.410355,-0.125000,-0.375000,-0.125000,0.375000,-0.110355,0.410355,-0.075000,0.425000,0.075000,0.425000,0.110355,0.410355,0.110355,0.410355,$1*%
%AMFreePoly4*
4,1,14,0.410355,0.110355,0.425000,0.075000,0.425000,-0.075000,0.410355,-0.110355,0.375000,-0.125000,-0.375000,-0.125000,-0.410355,-0.110355,-0.425000,-0.075000,-0.425000,-0.045711,-0.410355,-0.010356,-0.289644,0.110355,-0.254289,0.125000,0.375000,0.125000,0.410355,0.110355,0.410355,0.110355,$1*%
%AMFreePoly5*
4,1,14,0.410355,0.110355,0.425000,0.075000,0.425000,-0.075000,0.410355,-0.110355,0.375000,-0.125000,-0.254289,-0.125000,-0.289644,-0.110355,-0.410355,0.010356,-0.425000,0.045711,-0.425000,0.075000,-0.410355,0.110355,-0.375000,0.125000,0.375000,0.125000,0.410355,0.110355,0.410355,0.110355,$1*%
%AMFreePoly6*
4,1,14,-0.010356,0.410355,0.110355,0.289644,0.125000,0.254289,0.125000,-0.375000,0.110355,-0.410355,0.075000,-0.425000,-0.075000,-0.425000,-0.110355,-0.410355,-0.125000,-0.375000,-0.125000,0.375000,-0.110355,0.410355,-0.075000,0.425000,-0.045711,0.425000,-0.010356,0.410355,-0.010356,0.410355,$1*%
%AMFreePoly7*
4,1,14,0.110355,0.410355,0.125000,0.375000,0.125000,-0.375000,0.110355,-0.410355,0.075000,-0.425000,-0.075000,-0.425000,-0.110355,-0.410355,-0.125000,-0.375000,-0.125000,0.254289,-0.110355,0.289644,0.010356,0.410355,0.045711,0.425000,0.075000,0.425000,0.110355,0.410355,0.110355,0.410355,$1*%
G04 Aperture macros list end*
%ADD10C,1.800000*%
%ADD11FreePoly0,0.000000*%
%ADD12RoundRect,0.062500X-0.362500X-0.062500X0.362500X-0.062500X0.362500X0.062500X-0.362500X0.062500X0*%
%ADD13FreePoly1,0.000000*%
%ADD14FreePoly2,0.000000*%
%ADD15RoundRect,0.062500X-0.062500X-0.362500X0.062500X-0.362500X0.062500X0.362500X-0.062500X0.362500X0*%
%ADD16FreePoly3,0.000000*%
%ADD17FreePoly4,0.000000*%
%ADD18FreePoly5,0.000000*%
%ADD19FreePoly6,0.000000*%
%ADD20FreePoly7,0.000000*%
%ADD21R,1.550000X1.550000*%
%ADD22RoundRect,0.140000X-0.140000X-0.170000X0.140000X-0.170000X0.140000X0.170000X-0.140000X0.170000X0*%
%ADD23RoundRect,0.135000X0.185000X-0.135000X0.185000X0.135000X-0.185000X0.135000X-0.185000X-0.135000X0*%
%ADD24R,0.600000X0.240000*%
%ADD25R,0.240000X0.600000*%
%ADD26R,1.450000X1.450000*%
%ADD27R,1.000000X1.000000*%
%ADD28R,0.650000X0.300000*%
%ADD29R,1.150000X0.300000*%
%ADD30RoundRect,0.135000X-0.185000X0.135000X-0.185000X-0.135000X0.185000X-0.135000X0.185000X0.135000X0*%
G04 APERTURE END LIST*
D10*
G04 #@! TO.C,H3*
X41000000Y-24700000D03*
G04 #@! TD*
G04 #@! TO.C,H2*
X3000000Y-8700000D03*
G04 #@! TD*
G04 #@! TO.C,H1*
X41000000Y-8700000D03*
G04 #@! TD*
G04 #@! TO.C,H4*
X3000000Y-24700000D03*
G04 #@! TD*
D11*
G04 #@! TO.C,U1*
X4250000Y-29700000D03*
D12*
X4250000Y-29250000D03*
X4250000Y-28800000D03*
X4250000Y-28350000D03*
D13*
X4250000Y-27900000D03*
D14*
X4800000Y-27350000D03*
D15*
X5250000Y-27350000D03*
X5700000Y-27350000D03*
X6150000Y-27350000D03*
D16*
X6600000Y-27350000D03*
D17*
X7150000Y-27900000D03*
D12*
X7150000Y-28350000D03*
X7150000Y-28800000D03*
X7150000Y-29250000D03*
D18*
X7150000Y-29700000D03*
D19*
X6600000Y-30250000D03*
D15*
X6150000Y-30250000D03*
X5700000Y-30250000D03*
X5250000Y-30250000D03*
D20*
X4800000Y-30250000D03*
D21*
X5700000Y-28800000D03*
G04 #@! TD*
D22*
G04 #@! TO.C,C3*
X15520000Y-31800000D03*
X16480000Y-31800000D03*
G04 #@! TD*
D23*
G04 #@! TO.C,R9*
X26000000Y-31510000D03*
X26000000Y-30490000D03*
G04 #@! TD*
G04 #@! TO.C,R5*
X13200000Y-28710000D03*
X13200000Y-27690000D03*
G04 #@! TD*
D24*
G04 #@! TO.C,U2*
X20400000Y-30250000D03*
X20400000Y-30750000D03*
X20400000Y-31250000D03*
X20400000Y-31750000D03*
D25*
X19750000Y-32400000D03*
X19250000Y-32400000D03*
X18750000Y-32400000D03*
X18250000Y-32400000D03*
D24*
X17600000Y-31750000D03*
X17600000Y-31250000D03*
X17600000Y-30750000D03*
X17600000Y-30250000D03*
D25*
X18250000Y-29600000D03*
X18750000Y-29600000D03*
X19250000Y-29600000D03*
X19750000Y-29600000D03*
D26*
X19000000Y-31000000D03*
G04 #@! TD*
D23*
G04 #@! TO.C,R4*
X13200000Y-26510000D03*
X13200000Y-25490000D03*
G04 #@! TD*
G04 #@! TO.C,R7*
X9800000Y-31510000D03*
X9800000Y-30490000D03*
G04 #@! TD*
D27*
G04 #@! TO.C,TP2*
X34500000Y-9000000D03*
G04 #@! TD*
G04 #@! TO.C,TP1*
X37000000Y-9000000D03*
G04 #@! TD*
D28*
G04 #@! TO.C,J1*
X9535000Y-6661000D03*
X9535000Y-7161000D03*
X9535000Y-7661000D03*
X9535000Y-8161000D03*
X9535000Y-8661000D03*
X9535000Y-9161000D03*
X9535000Y-9661000D03*
X9535000Y-10161000D03*
X9535000Y-10661000D03*
X9535000Y-11161000D03*
X9535000Y-11661000D03*
X9535000Y-12161000D03*
D29*
X6725000Y-13046000D03*
X6725000Y-5776000D03*
G04 #@! TD*
D23*
G04 #@! TO.C,R13*
X24000000Y-31510000D03*
X24000000Y-30490000D03*
G04 #@! TD*
D30*
G04 #@! TO.C,R2*
X6000000Y-21690000D03*
X6000000Y-22710000D03*
G04 #@! TD*
G04 #@! TO.C,R14*
X12000000Y-890000D03*
X12000000Y-1910000D03*
G04 #@! TD*
D22*
G04 #@! TO.C,C4*
X15520000Y-29800000D03*
X16480000Y-29800000D03*
G04 #@! TD*
D23*
G04 #@! TO.C,R11*
X30000000Y-31510000D03*
X30000000Y-30490000D03*
G04 #@! TD*
D27*
G04 #@! TO.C,TP8*
X19500000Y-9000000D03*
G04 #@! TD*
D23*
G04 #@! TO.C,R10*
X28000000Y-31510000D03*
X28000000Y-30490000D03*
G04 #@! TD*
D27*
G04 #@! TO.C,TP9*
X17000000Y-9000000D03*
G04 #@! TD*
G04 #@! TO.C,TP5*
X27000000Y-9000000D03*
G04 #@! TD*
G04 #@! TO.C,TP3*
X32000000Y-9000000D03*
G04 #@! TD*
G04 #@! TO.C,TP4*
X29500000Y-9000000D03*
G04 #@! TD*
D30*
G04 #@! TO.C,R8*
X13800000Y-21290000D03*
X13800000Y-22310000D03*
G04 #@! TD*
D22*
G04 #@! TO.C,C2*
X11520000Y-24100000D03*
X12480000Y-24100000D03*
G04 #@! TD*
D23*
G04 #@! TO.C,R6*
X12000000Y-31510000D03*
X12000000Y-30490000D03*
G04 #@! TD*
D27*
G04 #@! TO.C,TP7*
X22000000Y-9000000D03*
G04 #@! TD*
D30*
G04 #@! TO.C,R3*
X4200000Y-20890000D03*
X4200000Y-21910000D03*
G04 #@! TD*
D22*
G04 #@! TO.C,C1*
X6820000Y-26000000D03*
X7780000Y-26000000D03*
G04 #@! TD*
D27*
G04 #@! TO.C,TP10*
X14500000Y-9000000D03*
G04 #@! TD*
D23*
G04 #@! TO.C,R12*
X32000000Y-31510000D03*
X32000000Y-30490000D03*
G04 #@! TD*
D30*
G04 #@! TO.C,R1*
X7800000Y-21690000D03*
X7800000Y-22710000D03*
G04 #@! TD*
D27*
G04 #@! TO.C,TP6*
X24500000Y-9000000D03*
G04 #@! TD*
G04 #@! TO.C,TP11*
X12000000Y-9000000D03*
G04 #@! TD*
M02*
