M48
; DRILL file KiCad 10.0.4 date 2026-09-22T02:23:42
; FORMAT={-:-/ absolute / metric / decimal}
; #@! TF.CreationDate,2026-09-22T02:23:42+08:00
; #@! TF.GenerationSoftware,Kicad,Pcbnew,10.0.4
; #@! TF.FileFunction,Plated,1,2,PTH
FMAT,2
METRIC
; #@! TA.AperFunction,Plated,PTH,ViaDrill
T1C0.300
%
G90
G05
T1
X1.557Y-23.831
X3.742Y-12.605
X3.891Y-14.014
X5.402Y-12.204
X5.595Y-7.252
X6.624Y-9.738
X7.127Y-12.412
X7.337Y-23.981
X7.5Y-14.6
X7.55Y-21.0
X7.768Y-18.681
X7.772Y-5.675
X7.923Y-16.889
X8.051Y-29.477
X8.059Y-30.609
X8.477Y-26.511
X8.525Y-7.528
X8.909Y-17.87
X9.084Y-31.01
X9.255Y-29.505
X9.509Y-19.418
X10.107Y-4.275
X10.11Y-22.428
X10.249Y-23.549
X11.1Y-31.054
X11.146Y-1.744
X11.308Y-32.156
X11.322Y-29.611
X11.323Y-24.977
X12.525Y-26.725
X14.816Y-31.306
X14.885Y-17.601
X15.523Y-2.523
X19.257Y-23.413
X19.4Y-7.85
X19.689Y-18.151
X20.176Y-33.077
X20.245Y-21.275
X20.721Y-19.067
X21.161Y-4.54
X22.179Y-20.482
X22.348Y-5.024
X22.402Y-15.635
X22.411Y-30.0
X22.422Y-16.578
X22.797Y-21.275
X23.226Y-28.77
X23.533Y-15.076
X23.782Y-22.502
X23.887Y-18.844
X25.423Y-23.413
X27.033Y-31.793
X28.88Y-15.883
X29.441Y-33.077
X34.5Y-16.133
X34.5Y-17.877
X35.476Y-17.202
M30
