;TYPE=PLATED
;Layer: PTH_Through_Via
;EasyEDA Pro v3.2.148, 2026-09-22 00:44:55
;Gerber Generator version 0.3
M48
METRIC,LZ,0000.00000
;Hole size 1 = 0.30500 METRIC
T01C0.30500
%
G05
G90
T01
X589.788Y-213.487
X602.56611Y-214.884
X604.06598Y-217.551
X593.3948Y-217.6526
X591.4898Y-217.5764
X591.185Y-205.867
X593.598Y-205.867
X592.963Y-205.105
X591.82Y-204.978
X605.06945Y-168.3432
X604.8608Y-167.46138
X605.282Y-166.751
X612.78235Y-170.74675
X607.695Y-166.77437
X612.7496Y-168.7322
X608.46528Y-166.46701
X605.5868Y-163.6268
X607.822Y-163.93643
X613.156Y-163.957
X612.775Y-162.814
X610.616Y-161.544
X605.282Y-160.655
X602.6451Y-176.53
X601.0609Y-177.292
X583.057Y-156.96032
X583.057Y-158.115
X583.057Y-160.274
X583.057Y-162.46018
X586.232Y-163.576
X586.232Y-164.66033
X593.01609Y-181.229
X593.86597Y-181.229
X591.693Y-181.015
X594.71611Y-183.134
X595.56599Y-183.134
X596.41613Y-181.229
X597.281Y-183.134
X583.057Y-155.8544
X604.91599Y-183.134
X604.0661Y-183.134
X584.835Y-200.533
X571.119Y-199.42962
X574.802Y-194.437
X583.78192Y-191.897
X587.248Y-198.79208
X600.5322Y-202.2602
X603.45283Y-192.32188
X609.6Y-195.12281
X596.646Y-199.0598
X586.05471Y-197.39762
X579.12Y-196.088
X582.676Y-194.564
X575.183Y-192.913
X575.6656Y-193.802
X577.215Y-192.024
X579.882Y-192.532
X582.803Y-184.277
X580.95542Y-187.7824
X576.199Y-192.278
X589.1276Y-186.0296
X589.76629Y-189.18358
X586.994Y-188.468
X588.01623Y-187.325
X586.994Y-189.865
X592.582Y-190.373
X592.963Y-189.18358
X592.582Y-188.341
X589.88135Y-191.643
X584.708Y-189.611
X597.154Y-186.0296
X596.4174Y-190.9318
X601.726Y-187.56764
X595.249Y-190.119
X594.106Y-190.373
X583.565Y-161.417
X579.95718Y-161.45713
X593.471Y-162.31502
X594.487Y-163.449
X596.9Y-162.3568
X604.3422Y-160.78759
X610.616Y-178.435
X610.616Y-180.213
X608.33Y-183.896
X609.16591Y-183.896
X608.584Y-172.6184
X612.51389Y-174.23689
X601.09105Y-170.80799
X601.091Y-169.418
X599.948Y-170.815
X595.1728Y-166.1922
X583.946Y-182.753
X596.265Y-186.69
X596.138Y-187.579
X598.932Y-162.052
X599.567Y-164.084
X600.837Y-163.83
X610.616Y-162.31502
X602.6404Y-189.5602
X602.5896Y-187.8076
X598.297Y-161.036
X583.946Y-187.579
X581.86041Y-186.45861
X584.835Y-186.055
X574.86448Y-172.974
X577.596Y-177.93868
X573.05587Y-178.562
X572.008Y-175.11678
X571.246Y-175.895
X584.962Y-171.831
X575.15505Y-178.91505
X584.2Y-173.736
X584.962Y-172.847
X571.119Y-177.292
X611.632Y-204.724
X608.33Y-196.723
X608.584Y-202.692
X598.11567Y-189.10333
X600.00354Y-209.92721
X611.4542Y-212.1662
X598.297Y-213.614
X601.726Y-213.614
X606.0948Y-208.534
X606.0948Y-209.3976
X606.1202Y-207.6958
X610.108Y-210.0834
X609.69859Y-210.87982
X610.616Y-211.201
X613.664Y-207.19207
X600.075Y-205.867
X605.37209Y-205.10392
X608.40176Y-179.7144
X595.376Y-205.105
X596.138Y-205.613
X596.773Y-206.375
X597.408Y-205.74
X595.0204Y-195.3514
X595.9856Y-195.8594
X595.0585Y-203.5175
X591.99882Y-210.38718
X608.965Y-188.087
X607.949Y-188.087
X606.31893Y-176.28564
X613.537Y-210.3882
X610.616Y-179.31498
X573.532Y-179.324
X592.31763Y-201.73696
X610.616Y-175.895
X610.616Y-176.76508
X610.616Y-177.61496
X594.614Y-192.278
X594.995Y-191.516
X589.3308Y-195.61607
X575.107Y-150.419
X582.727Y-150.419
X585.267Y-150.419
X572.567Y-152.959
X575.107Y-152.959
X577.647Y-152.959
X580.187Y-152.959
X582.727Y-152.959
X585.267Y-152.959
X570.027Y-155.499
X572.567Y-155.499
X577.647Y-155.499
X580.187Y-155.499
X570.027Y-158.039
X572.567Y-158.039
X575.107Y-158.039
X577.647Y-158.039
X570.027Y-160.579
X572.567Y-160.579
X575.107Y-160.579
X577.647Y-160.579
X592.887Y-160.579
X600.507Y-160.579
X603.047Y-160.579
X613.207Y-160.579
X570.027Y-163.119
X572.567Y-163.119
X575.107Y-163.119
X577.647Y-163.119
X570.027Y-165.659
X572.567Y-165.659
X577.647Y-165.659
X592.887Y-165.659
X600.507Y-165.659
X570.027Y-168.199
X572.567Y-168.199
X575.107Y-168.199
X577.647Y-168.199
X582.727Y-168.199
X585.267Y-168.199
X570.027Y-170.739
X572.567Y-170.739
X577.647Y-170.739
X582.727Y-170.739
X570.027Y-173.279
X572.567Y-173.279
X580.187Y-173.279
X613.207Y-173.279
X570.027Y-175.819
X585.267Y-175.819
X613.207Y-175.819
X570.027Y-178.359
X580.187Y-178.359
X582.727Y-178.359
X585.267Y-178.359
X603.047Y-178.359
X613.207Y-178.359
X570.027Y-180.899
X572.567Y-180.899
X575.107Y-180.899
X577.647Y-180.899
X582.727Y-180.899
X585.267Y-180.899
X595.427Y-180.899
X600.507Y-180.899
X613.207Y-180.899
X570.027Y-183.439
X572.567Y-183.439
X575.107Y-183.439
X577.647Y-183.439
X580.187Y-183.439
X585.267Y-183.439
X613.207Y-183.439
X570.027Y-185.979
X575.107Y-185.979
X577.647Y-185.979
X587.807Y-185.979
X600.507Y-185.979
X613.207Y-185.979
X570.027Y-188.519
X575.107Y-188.519
X577.647Y-188.519
X582.8284Y-185.0898
X585.267Y-188.519
X600.507Y-188.519
X570.027Y-191.059
X580.187Y-191.059
X613.207Y-191.059
X570.027Y-193.599
X570.027Y-196.139
X570.027Y-198.679
X575.107Y-198.679
X605.587Y-198.679
X570.027Y-201.219
X572.567Y-201.219
X575.107Y-201.219
X577.647Y-201.219
X580.187Y-201.219
X582.727Y-201.219
X608.127Y-201.219
X570.027Y-203.759
X572.567Y-203.759
X575.107Y-203.759
X577.647Y-203.759
X580.187Y-203.759
X582.727Y-203.759
X585.267Y-203.759
X587.807Y-203.759
X590.347Y-203.759
X570.027Y-206.299
X572.567Y-206.299
X575.107Y-206.299
X577.647Y-206.299
X580.187Y-206.299
X582.727Y-206.299
X585.267Y-206.299
X587.807Y-206.299
X570.027Y-208.839
X572.567Y-208.839
X575.107Y-208.839
X577.647Y-208.839
X582.727Y-208.839
X585.267Y-208.839
X587.807Y-208.839
X590.347Y-208.839
X570.027Y-211.379
X575.107Y-211.379
X587.807Y-211.379
X595.427Y-211.379
X613.207Y-211.379
X570.027Y-213.919
X572.567Y-213.919
X575.107Y-213.919
X585.267Y-213.919
X587.807Y-213.919
X590.347Y-213.919
X595.427Y-213.919
X608.127Y-213.919
X570.027Y-216.459
X572.567Y-216.459
X575.107Y-216.459
X577.647Y-216.459
X580.187Y-216.459
X587.807Y-216.459
X590.347Y-216.459
X595.427Y-216.459
X597.967Y-216.459
X610.667Y-216.459
X572.567Y-218.999
X575.107Y-218.999
X582.727Y-218.999
X587.807Y-218.999
X590.347Y-218.999
X575.107Y-221.539
X577.647Y-221.539
X580.187Y-221.539
X582.727Y-221.539
X585.267Y-221.539
X587.807Y-221.539
X595.427Y-221.539
X600.507Y-221.539
X603.047Y-221.539
X605.587Y-221.539
X599.948Y-169.418
X602.234Y-169.418
X602.234Y-170.815
X601.09105Y-168.18175
X595.1982Y-167.8686
X594.995Y-172.974
X596.011Y-173.101
X595.0204Y-174.2186
X595.884Y-175.514
X594.90622Y-176.31422
X597.154Y-180.086
X607.46615Y-181.1274
X606.6028Y-181.2036
X605.536Y-181.356
M30