G04 Layer: TopSilkscreenLayer*
G04 EasyEDA Pro v3.2.148, 2026-09-22 00:44:55*
G04 Gerber Generator version 0.3*
G04 Scale: 100 percent, Rotated: No, Reflected: No*
G04 Dimensions in millimeters*
G04 Leading zeros omitted, absolute positions, 4 integers and 5 decimals*
G04 Generated by one-click*
G04 Object Configs: Pad,Via,Track,Text,Image,Dimension,BoardOutline,BoardCutout,CopperFilled,SolidRegion,FPCStiffener,Line,PlaneZone,ComponentProperty,ComponentSilkscreen,TearDrop*
G04 Layer Configs: 1,15,16,17,18,2,3,4,5,6,7,8,9,10,11,13,14,56*
G04 Copper Areas: 0*
%FSLAX45Y45*%
%MOMM*%
%ADD10C,0.254*%
%ADD11C,0.1524*%
%ADD12C,0.152*%
%ADD13C,0.14999*%
%ADD14C,0.1*%
%ADD15C,0.2*%
%ADD16C,0.3*%
%ADD17C,0.15001*%
%ADD18C,0.2498*%
%ADD19C,0.24*%
G75*


G04 PolygonModel Start*
G54D10*
G01X60144739Y-20718943D02*
G01X60224736Y-20718943D01*
G01X60088694Y-20718897D02*
G01X60008696Y-20718897D01*
G01X60144739Y-20860911D02*
G01X60224736Y-20860911D01*
G01X60088694Y-20860863D02*
G01X60008696Y-20860863D01*
G01X60255711Y-20749925D02*
G01X60255711Y-20829930D01*
G01X59977719Y-20829877D02*
G01X59977719Y-20749875D01*
G01X60008701Y-20860863D02*
G02X59977719Y-20829877I0J30983D01*
G01X59977719Y-20749880D02*
G02X60008701Y-20718897I30983J0D01*
G01X60224731Y-20718943D02*
G02X60255711Y-20749925I-3J-30983D01*
G01X60255711Y-20829923D02*
G02X60224731Y-20860911I-30983J-5D01*
G01X60949798Y-20382132D02*
G01X61029795Y-20382132D01*
G01X60893752Y-20382087D02*
G01X60813755Y-20382087D01*
G01X60949798Y-20524101D02*
G01X61029795Y-20524101D01*
G01X60893752Y-20524052D02*
G01X60813755Y-20524052D01*
G01X61060770Y-20413115D02*
G01X61060770Y-20493120D01*
G01X60782777Y-20493067D02*
G01X60782777Y-20413065D01*
G01X60813760Y-20524052D02*
G02X60782777Y-20493067I0J30983D01*
G01X60782777Y-20413070D02*
G02X60813760Y-20382087I30983J0D01*
G01X61029790Y-20382132D02*
G02X61060770Y-20413115I-3J-30983D01*
G01X61060770Y-20493113D02*
G02X61029790Y-20524101I-30983J-5D01*
G54D11*
G01X60082681Y-20554726D02*
G01X60132681Y-20554726D01*
G01X60067439Y-20639204D02*
G01X60067439Y-20569964D01*
G01X60132681Y-20654444D02*
G01X60082681Y-20654444D01*
G01X60226959Y-20654231D02*
G01X60176959Y-20654231D01*
G01X60176959Y-20554518D02*
G01X60226959Y-20554518D01*
G01X60242201Y-20569753D02*
G01X60242201Y-20638996D01*
G01X60226959Y-20554516D02*
G02X60242199Y-20569756I0J-15240D01*
G01X60242199Y-20638996D02*
G02X60226959Y-20654236I-15240J0D01*
G01X60082681Y-20654444D02*
G02X60067441Y-20639204I0J15240D01*
G01X60067441Y-20569964D02*
G02X60082681Y-20554724I15240J0D01*
G54D10*
G01X59949001Y-20390957D02*
G01X59869004Y-20390957D01*
G01X60005046Y-20391003D02*
G01X60085044Y-20391003D01*
G01X59949001Y-20248989D02*
G01X59869004Y-20248989D01*
G01X60005046Y-20249037D02*
G01X60085044Y-20249037D01*
G01X59838029Y-20359975D02*
G01X59838029Y-20279970D01*
G01X60116022Y-20280023D02*
G01X60116022Y-20360025D01*
G01X60085039Y-20249037D02*
G02X60116022Y-20280023I0J-30983D01*
G01X60116022Y-20360020D02*
G02X60085039Y-20391003I-30983J0D01*
G01X59869009Y-20390957D02*
G02X59838029Y-20359975I3J30983D01*
G01X59838029Y-20279977D02*
G02X59869009Y-20248989I30983J5D01*
G01X60457001Y-21292657D02*
G01X60377004Y-21292657D01*
G01X60513046Y-21292703D02*
G01X60593044Y-21292703D01*
G01X60457001Y-21150689D02*
G01X60377004Y-21150689D01*
G01X60513046Y-21150737D02*
G01X60593044Y-21150737D01*
G01X60346029Y-21261675D02*
G01X60346029Y-21181670D01*
G01X60624022Y-21181723D02*
G01X60624022Y-21261725D01*
G01X60593039Y-21150737D02*
G02X60624022Y-21181723I0J-30983D01*
G01X60624022Y-21261720D02*
G02X60593039Y-21292703I-30983J0D01*
G01X60377009Y-21292657D02*
G02X60346029Y-21261675I3J30983D01*
G01X60346029Y-21181677D02*
G02X60377009Y-21150689I30983J5D01*
G01X60573515Y-20523464D02*
G01X60493518Y-20523464D01*
G01X60629560Y-20523510D02*
G01X60709558Y-20523510D01*
G01X60573515Y-20381496D02*
G01X60493518Y-20381496D01*
G01X60629560Y-20381544D02*
G01X60709558Y-20381544D01*
G01X60462543Y-20492481D02*
G01X60462543Y-20412477D01*
G01X60740536Y-20412530D02*
G01X60740536Y-20492532D01*
G01X60709553Y-20381544D02*
G02X60740536Y-20412530I0J-30983D01*
G01X60740536Y-20492527D02*
G02X60709553Y-20523510I-30983J0D01*
G01X60493523Y-20523464D02*
G02X60462543Y-20492481I3J30983D01*
G01X60462543Y-20412484D02*
G02X60493523Y-20381496I30983J5D01*
G54D11*
G01X60295981Y-21275820D02*
G01X60295981Y-21134819D01*
G01X60115260Y-21134819D02*
G01X60115260Y-21275820D01*
G01X60130500Y-21291060D02*
G01X60280741Y-21291060D01*
G01X60295981Y-20913580D02*
G01X60295981Y-21054581D01*
G01X60115260Y-21054581D02*
G01X60115260Y-20913580D01*
G01X60130500Y-20898340D02*
G01X60280741Y-20898340D01*
G01X60115260Y-21275820D02*
G03X60130500Y-21291060I15240J0D01*
G01X60280741Y-21291060D02*
G03X60295981Y-21275820I0J15240D01*
G01X60115260Y-20913580D02*
G02X60130500Y-20898340I15240J0D01*
G01X60280741Y-20898340D02*
G02X60295981Y-20913580I0J-15240D01*
G01X59399419Y-21615420D02*
G01X59399419Y-21437580D01*
G01X59091581Y-21615420D02*
G01X59091581Y-21437580D01*
G54D12*
G01X59925534Y-20973301D02*
G01X59925534Y-20955917D01*
G01X59774506Y-20973301D02*
G01X59774506Y-20955917D01*
G01X59774506Y-20973301D02*
G01X59763401Y-20973301D01*
G01X59763401Y-20973301D02*
G01X59763401Y-20955917D01*
G01X59936639Y-20955917D02*
G01X59936639Y-20973301D01*
G01X59936639Y-20973301D02*
G01X59925534Y-20973301D01*
G01X59925534Y-20955917D02*
G01X59936639Y-20955917D01*
G01X59763401Y-20955917D02*
G01X59774506Y-20955917D01*
G01X59763401Y-20898013D02*
G01X59936639Y-20898013D01*
G54D11*
G01X59763401Y-20912300D02*
G01X59936639Y-20912300D01*
G01X59763401Y-20955917D02*
G01X59763401Y-20674683D01*
G01X59763401Y-20674683D02*
G01X59780200Y-20674683D01*
G01X59936639Y-20955917D02*
G01X59936639Y-20674683D01*
G01X59936639Y-20674683D02*
G01X59919840Y-20674683D01*
G54D12*
G01X60154820Y-20510500D02*
G01X60154820Y-20281900D01*
G01X60358020Y-20281900D02*
G01X60358020Y-20510500D01*
G54D11*
G01X61233755Y-20796347D02*
G01X61305559Y-20796347D01*
G01X61305559Y-20796347D02*
G01X61305559Y-20896067D01*
G01X61305559Y-20896067D02*
G01X61233755Y-20896067D01*
G01X61188513Y-20796347D02*
G01X61116710Y-20796347D01*
G01X61116710Y-20796347D02*
G01X61116710Y-20896067D01*
G01X61116710Y-20896067D02*
G01X61188513Y-20896067D01*
G01X61233755Y-20923347D02*
G01X61305559Y-20923347D01*
G01X61305559Y-20923347D02*
G01X61305559Y-21023067D01*
G01X61305559Y-21023067D02*
G01X61233755Y-21023067D01*
G01X61188513Y-20923347D02*
G01X61116710Y-20923347D01*
G01X61116710Y-20923347D02*
G01X61116710Y-21023067D01*
G01X61116710Y-21023067D02*
G01X61188513Y-21023067D01*
G01X61233755Y-21050347D02*
G01X61305559Y-21050347D01*
G01X61305559Y-21050347D02*
G01X61305559Y-21150067D01*
G01X61305559Y-21150067D02*
G01X61233755Y-21150067D01*
G01X61188513Y-21050347D02*
G01X61116710Y-21050347D01*
G01X61116710Y-21050347D02*
G01X61116710Y-21150067D01*
G01X61116710Y-21150067D02*
G01X61188513Y-21150067D01*
G01X61233755Y-20669347D02*
G01X61305559Y-20669347D01*
G01X61305559Y-20669347D02*
G01X61305559Y-20769067D01*
G01X61305559Y-20769067D02*
G01X61233755Y-20769067D01*
G01X61188513Y-20669347D02*
G01X61116710Y-20669347D01*
G01X61116710Y-20669347D02*
G01X61116710Y-20769067D01*
G01X61116710Y-20769067D02*
G01X61188513Y-20769067D01*
G01X61233755Y-20542347D02*
G01X61305559Y-20542347D01*
G01X61305559Y-20542347D02*
G01X61305559Y-20642067D01*
G01X61305559Y-20642067D02*
G01X61233755Y-20642067D01*
G01X61188513Y-20542347D02*
G01X61116710Y-20542347D01*
G01X61116710Y-20542347D02*
G01X61116710Y-20642067D01*
G01X61116710Y-20642067D02*
G01X61188513Y-20642067D01*
G54D13*
G01X60480859Y-20695705D02*
G01X60480859Y-20643381D01*
G01X60533183Y-20643381D01*
G01X60481875Y-21021333D02*
G01X60481875Y-21038369D01*
G01X60517943Y-21074292D01*
G01X60530643Y-21074292D01*
G01X60910881Y-20695705D02*
G01X60910881Y-20643381D01*
G01X60858303Y-20643381D01*
G01X60910881Y-21020825D02*
G01X60910881Y-21073403D01*
G01X60858303Y-21073403D01*
G54D14*
G01X60907105Y-19584945D02*
G01X60921699Y-19584945D01*
G01X60812106Y-19584945D02*
G01X60816274Y-19584945D01*
G01X60717113Y-19584945D02*
G01X60721278Y-19584945D01*
G01X60611697Y-19584945D02*
G01X60626282Y-19584945D01*
G01X60907105Y-19764948D02*
G01X60921699Y-19764948D01*
G01X60717113Y-19764948D02*
G01X60816277Y-19764948D01*
G01X60611697Y-19764948D02*
G01X60626285Y-19764948D01*
G01X60611697Y-19764948D02*
G01X60611697Y-19584945D01*
G01X60921699Y-19764948D02*
G01X60921699Y-19584945D01*
G36*
G01X60868293Y-19654541D02*
G02X60868293Y-19619141I-212J17700D01*
G02X60868293Y-19654541I212J-17700D01*
G37*
G54D10*
G01X60772119Y-19906143D02*
G01X60852116Y-19906143D01*
G01X60716074Y-19906097D02*
G01X60636076Y-19906097D01*
G01X60772119Y-20048111D02*
G01X60852116Y-20048111D01*
G01X60716074Y-20048063D02*
G01X60636076Y-20048063D01*
G01X60883091Y-19937125D02*
G01X60883091Y-20017130D01*
G01X60605099Y-20017077D02*
G01X60605099Y-19937075D01*
G01X60636081Y-20048063D02*
G02X60605099Y-20017077I0J30983D01*
G01X60605099Y-19937080D02*
G02X60636081Y-19906097I30983J0D01*
G01X60852111Y-19906143D02*
G02X60883091Y-19937125I-3J-30983D01*
G01X60883091Y-20017123D02*
G02X60852111Y-20048111I-30983J-5D01*
G01X60464512Y-19299185D02*
G01X60544509Y-19299185D01*
G01X60408467Y-19299139D02*
G01X60328470Y-19299139D01*
G01X60464512Y-19441153D02*
G01X60544509Y-19441153D01*
G01X60408467Y-19441105D02*
G01X60328470Y-19441105D01*
G01X60575485Y-19330168D02*
G01X60575485Y-19410173D01*
G01X60297492Y-19410120D02*
G01X60297492Y-19330117D01*
G01X60328475Y-19441105D02*
G02X60297492Y-19410120I0J30983D01*
G01X60297492Y-19330122D02*
G02X60328475Y-19299139I30983J0D01*
G01X60544504Y-19299185D02*
G02X60575485Y-19330168I-3J-30983D01*
G01X60575485Y-19410165D02*
G02X60544504Y-19441153I-30983J-5D01*
G54D11*
G01X61068014Y-19814404D02*
G01X61068014Y-19886207D01*
G01X61068014Y-19886207D02*
G01X60968293Y-19886207D01*
G01X60968293Y-19886207D02*
G01X60968293Y-19814404D01*
G01X61068014Y-19769161D02*
G01X61068014Y-19697358D01*
G01X61068014Y-19697358D02*
G01X60968293Y-19697358D01*
G01X60968293Y-19697358D02*
G01X60968293Y-19769161D01*
G01X61068014Y-19578184D02*
G01X61068014Y-19649987D01*
G01X61068014Y-19649987D02*
G01X60968293Y-19649987D01*
G01X60968293Y-19649987D02*
G01X60968293Y-19578184D01*
G01X61068014Y-19532941D02*
G01X61068014Y-19461138D01*
G01X61068014Y-19461138D02*
G01X60968293Y-19461138D01*
G01X60968293Y-19461138D02*
G01X60968293Y-19532941D01*
G01X60721479Y-19430060D02*
G01X60649676Y-19430060D01*
G01X60649676Y-19430060D02*
G01X60649676Y-19330340D01*
G01X60649676Y-19330340D02*
G01X60721479Y-19330340D01*
G01X60766721Y-19430060D02*
G01X60838525Y-19430060D01*
G01X60838525Y-19430060D02*
G01X60838525Y-19330340D01*
G01X60838525Y-19330340D02*
G01X60766721Y-19330340D01*
G54D10*
G01X57240777Y-19808761D02*
G01X57160775Y-19808761D01*
G01X57271763Y-19697786D02*
G01X57271763Y-19777784D01*
G01X57129797Y-19697786D02*
G01X57129797Y-19777784D01*
G01X57272344Y-19640197D02*
G01X57272344Y-19560197D01*
G01X57241361Y-19529214D02*
G01X57161364Y-19529214D01*
G01X57130384Y-19640197D02*
G01X57130384Y-19560197D01*
G01X57241361Y-19529209D02*
G02X57272344Y-19560192I0J-30983D01*
G01X57130379Y-19560192D02*
G02X57161364Y-19529209I30983J0D01*
G01X57271763Y-19777779D02*
G02X57240777Y-19808761I-30983J0D01*
G01X57160780Y-19808761D02*
G02X57129797Y-19777779I0J30983D01*
G54D11*
G01X57250660Y-20091430D02*
G01X57250660Y-20012421D01*
G01X57150940Y-20012421D02*
G01X57150940Y-20091430D01*
G01X57166180Y-20106670D02*
G01X57235420Y-20106670D01*
G01X57250660Y-19888170D02*
G01X57250660Y-19967179D01*
G01X57150940Y-19967179D02*
G01X57150940Y-19888170D01*
G01X57166180Y-19872930D02*
G01X57235420Y-19872930D01*
G01X57150940Y-20091430D02*
G03X57166180Y-20106670I15240J0D01*
G01X57235420Y-20106670D02*
G03X57250660Y-20091430I0J15240D01*
G01X57150940Y-19888170D02*
G02X57166180Y-19872930I15240J0D01*
G01X57235420Y-19872930D02*
G02X57250660Y-19888170I0J-15240D01*
G54D10*
G01X57418577Y-19808761D02*
G01X57338575Y-19808761D01*
G01X57449563Y-19697786D02*
G01X57449563Y-19777784D01*
G01X57307597Y-19697786D02*
G01X57307597Y-19777784D01*
G01X57450144Y-19640197D02*
G01X57450144Y-19560197D01*
G01X57419161Y-19529214D02*
G01X57339164Y-19529214D01*
G01X57308184Y-19640197D02*
G01X57308184Y-19560197D01*
G01X57419161Y-19529209D02*
G02X57450144Y-19560192I0J-30983D01*
G01X57308179Y-19560192D02*
G02X57339164Y-19529209I30983J0D01*
G01X57449563Y-19777779D02*
G02X57418577Y-19808761I-30983J0D01*
G01X57338580Y-19808761D02*
G02X57307597Y-19777779I0J30983D01*
G54D11*
G01X57428460Y-20091430D02*
G01X57428460Y-20012421D01*
G01X57328740Y-20012421D02*
G01X57328740Y-20091430D01*
G01X57343980Y-20106670D02*
G01X57413220Y-20106670D01*
G01X57428460Y-19888170D02*
G01X57428460Y-19967179D01*
G01X57328740Y-19967179D02*
G01X57328740Y-19888170D01*
G01X57343980Y-19872930D02*
G01X57413220Y-19872930D01*
G01X57328740Y-20091430D02*
G03X57343980Y-20106670I15240J0D01*
G01X57413220Y-20106670D02*
G03X57428460Y-20091430I0J15240D01*
G01X57328740Y-19888170D02*
G02X57343980Y-19872930I15240J0D01*
G01X57413220Y-19872930D02*
G02X57428460Y-19888170I0J-15240D01*
G01X57708830Y-19978040D02*
G01X57629821Y-19978040D01*
G01X57629821Y-20077760D02*
G01X57708830Y-20077760D01*
G01X57724070Y-20062520D02*
G01X57724070Y-19993280D01*
G01X57505570Y-19978040D02*
G01X57584579Y-19978040D01*
G01X57584579Y-20077760D02*
G01X57505570Y-20077760D01*
G01X57490330Y-20062520D02*
G01X57490330Y-19993280D01*
G01X57708830Y-20077760D02*
G03X57724070Y-20062520I0J15240D01*
G01X57724070Y-19993280D02*
G03X57708830Y-19978040I-15240J0D01*
G01X57505570Y-20077760D02*
G02X57490330Y-20062520I0J15240D01*
G01X57490330Y-19993280D02*
G02X57505570Y-19978040I15240J0D01*
G01X58547030Y-19927240D02*
G01X58468021Y-19927240D01*
G01X58468021Y-20026960D02*
G01X58547030Y-20026960D01*
G01X58562270Y-20011720D02*
G01X58562270Y-19942480D01*
G01X58343770Y-19927240D02*
G01X58422779Y-19927240D01*
G01X58422779Y-20026960D02*
G01X58343770Y-20026960D01*
G01X58328530Y-20011720D02*
G01X58328530Y-19942480D01*
G01X58547030Y-20026960D02*
G03X58562270Y-20011720I0J15240D01*
G01X58562270Y-19942480D02*
G03X58547030Y-19927240I-15240J0D01*
G01X58343770Y-20026960D02*
G02X58328530Y-20011720I0J15240D01*
G01X58328530Y-19942480D02*
G02X58343770Y-19927240I15240J0D01*
G01X58139660Y-20167630D02*
G01X58139660Y-20088621D01*
G01X58039940Y-20088621D02*
G01X58039940Y-20167630D01*
G01X58055180Y-20182870D02*
G01X58124420Y-20182870D01*
G01X58139660Y-19964370D02*
G01X58139660Y-20043379D01*
G01X58039940Y-20043379D02*
G01X58039940Y-19964370D01*
G01X58055180Y-19949130D02*
G01X58124420Y-19949130D01*
G01X58039940Y-20167630D02*
G03X58055180Y-20182870I15240J0D01*
G01X58124420Y-20182870D02*
G03X58139660Y-20167630I0J15240D01*
G01X58039940Y-19964370D02*
G02X58055180Y-19949130I15240J0D01*
G01X58124420Y-19949130D02*
G02X58139660Y-19964370I0J-15240D01*
G01X58459040Y-19672270D02*
G01X58459040Y-19751279D01*
G01X58558760Y-19751279D02*
G01X58558760Y-19672270D01*
G01X58543520Y-19657030D02*
G01X58474280Y-19657030D01*
G01X58459040Y-19875530D02*
G01X58459040Y-19796521D01*
G01X58558760Y-19796521D02*
G01X58558760Y-19875530D01*
G01X58543520Y-19890770D02*
G01X58474280Y-19890770D01*
G01X58558760Y-19672270D02*
G03X58543520Y-19657030I-15240J0D01*
G01X58474280Y-19657030D02*
G03X58459040Y-19672270I0J-15240D01*
G01X58558760Y-19875530D02*
G02X58543520Y-19890770I-15240J0D01*
G01X58474280Y-19890770D02*
G02X58459040Y-19875530I0J15240D01*
G01X58431760Y-19875530D02*
G01X58431760Y-19796521D01*
G01X58332040Y-19796521D02*
G01X58332040Y-19875530D01*
G01X58347280Y-19890770D02*
G01X58416520Y-19890770D01*
G01X58431760Y-19672270D02*
G01X58431760Y-19751279D01*
G01X58332040Y-19751279D02*
G01X58332040Y-19672270D01*
G01X58347280Y-19657030D02*
G01X58416520Y-19657030D01*
G01X58332040Y-19875530D02*
G03X58347280Y-19890770I15240J0D01*
G01X58416520Y-19890770D02*
G03X58431760Y-19875530I0J15240D01*
G01X58332040Y-19672270D02*
G02X58347280Y-19657030I15240J0D01*
G01X58416520Y-19657030D02*
G02X58431760Y-19672270I0J-15240D01*
G01X58547030Y-20092340D02*
G01X58468021Y-20092340D01*
G01X58468021Y-20192060D02*
G01X58547030Y-20192060D01*
G01X58562270Y-20176820D02*
G01X58562270Y-20107580D01*
G01X58343770Y-20092340D02*
G01X58422779Y-20092340D01*
G01X58422779Y-20192060D02*
G01X58343770Y-20192060D01*
G01X58328530Y-20176820D02*
G01X58328530Y-20107580D01*
G01X58547030Y-20192060D02*
G03X58562270Y-20176820I0J15240D01*
G01X58562270Y-20107580D02*
G03X58547030Y-20092340I-15240J0D01*
G01X58343770Y-20192060D02*
G02X58328530Y-20176820I0J15240D01*
G01X58328530Y-20107580D02*
G02X58343770Y-20092340I15240J0D01*
G01X58332040Y-19370010D02*
G01X58332040Y-19449019D01*
G01X58431760Y-19449019D02*
G01X58431760Y-19370010D01*
G01X58416520Y-19354770D02*
G01X58347280Y-19354770D01*
G01X58332040Y-19573270D02*
G01X58332040Y-19494261D01*
G01X58431760Y-19494261D02*
G01X58431760Y-19573270D01*
G01X58416520Y-19588510D02*
G01X58347280Y-19588510D01*
G01X58431760Y-19370010D02*
G03X58416520Y-19354770I-15240J0D01*
G01X58347280Y-19354770D02*
G03X58332040Y-19370010I0J-15240D01*
G01X58431760Y-19573270D02*
G02X58416520Y-19588510I-15240J0D01*
G01X58347280Y-19588510D02*
G02X58332040Y-19573270I0J15240D01*
G01X58534330Y-19216040D02*
G01X58455321Y-19216040D01*
G01X58455321Y-19315760D02*
G01X58534330Y-19315760D01*
G01X58549570Y-19300520D02*
G01X58549570Y-19231280D01*
G01X58331070Y-19216040D02*
G01X58410079Y-19216040D01*
G01X58410079Y-19315760D02*
G01X58331070Y-19315760D01*
G01X58315830Y-19300520D02*
G01X58315830Y-19231280D01*
G01X58534330Y-19315760D02*
G03X58549570Y-19300520I0J15240D01*
G01X58549570Y-19231280D02*
G03X58534330Y-19216040I-15240J0D01*
G01X58331070Y-19315760D02*
G02X58315830Y-19300520I0J15240D01*
G01X58315830Y-19231280D02*
G02X58331070Y-19216040I15240J0D01*
G01X57226170Y-19493560D02*
G01X57305179Y-19493560D01*
G01X57305179Y-19393840D02*
G01X57226170Y-19393840D01*
G01X57210930Y-19409080D02*
G01X57210930Y-19478320D01*
G01X57429430Y-19493560D02*
G01X57350421Y-19493560D01*
G01X57350421Y-19393840D02*
G01X57429430Y-19393840D01*
G01X57444670Y-19409080D02*
G01X57444670Y-19478320D01*
G01X57226170Y-19393840D02*
G03X57210930Y-19409080I0J-15240D01*
G01X57210930Y-19478320D02*
G03X57226170Y-19493560I15240J0D01*
G01X57429430Y-19393840D02*
G02X57444670Y-19409080I0J-15240D01*
G01X57444670Y-19478320D02*
G02X57429430Y-19493560I-15240J0D01*
G01X58459040Y-19367470D02*
G01X58459040Y-19446479D01*
G01X58558760Y-19446479D02*
G01X58558760Y-19367470D01*
G01X58543520Y-19352230D02*
G01X58474280Y-19352230D01*
G01X58459040Y-19570730D02*
G01X58459040Y-19491721D01*
G01X58558760Y-19491721D02*
G01X58558760Y-19570730D01*
G01X58543520Y-19585970D02*
G01X58474280Y-19585970D01*
G01X58558760Y-19367470D02*
G03X58543520Y-19352230I-15240J0D01*
G01X58474280Y-19352230D02*
G03X58459040Y-19367470I0J-15240D01*
G01X58558760Y-19570730D02*
G02X58543520Y-19585970I-15240J0D01*
G01X58474280Y-19585970D02*
G02X58459040Y-19570730I0J15240D01*
G01X60096430Y-19901840D02*
G01X60017421Y-19901840D01*
G01X60017421Y-20001560D02*
G01X60096430Y-20001560D01*
G01X60111670Y-19986320D02*
G01X60111670Y-19917080D01*
G01X59893170Y-19901840D02*
G01X59972179Y-19901840D01*
G01X59972179Y-20001560D02*
G01X59893170Y-20001560D01*
G01X59877930Y-19986320D02*
G01X59877930Y-19917080D01*
G01X60096430Y-20001560D02*
G03X60111670Y-19986320I0J15240D01*
G01X60111670Y-19917080D02*
G03X60096430Y-19901840I-15240J0D01*
G01X59893170Y-20001560D02*
G02X59877930Y-19986320I0J15240D01*
G01X59877930Y-19917080D02*
G02X59893170Y-19901840I15240J0D01*
G01X59686520Y-19850130D02*
G01X59686520Y-19771121D01*
G01X59586800Y-19771121D02*
G01X59586800Y-19850130D01*
G01X59602040Y-19865370D02*
G01X59671280Y-19865370D01*
G01X59686520Y-19646870D02*
G01X59686520Y-19725879D01*
G01X59586800Y-19725879D02*
G01X59586800Y-19646870D01*
G01X59602040Y-19631630D02*
G01X59671280Y-19631630D01*
G01X59586800Y-19850130D02*
G03X59602040Y-19865370I15240J0D01*
G01X59671280Y-19865370D02*
G03X59686520Y-19850130I0J15240D01*
G01X59586800Y-19646870D02*
G02X59602040Y-19631630I15240J0D01*
G01X59671280Y-19631630D02*
G02X59686520Y-19646870I0J-15240D01*
G01X57222441Y-19362844D02*
G01X57301450Y-19362844D01*
G01X57301450Y-19263124D02*
G01X57222441Y-19263124D01*
G01X57207201Y-19278364D02*
G01X57207201Y-19347604D01*
G01X57425702Y-19362844D02*
G01X57346693Y-19362844D01*
G01X57346693Y-19263124D02*
G01X57425702Y-19263124D01*
G01X57440942Y-19278364D02*
G01X57440942Y-19347604D01*
G01X57222441Y-19263124D02*
G03X57207201Y-19278364I0J-15240D01*
G01X57207201Y-19347604D02*
G03X57222441Y-19362844I15240J0D01*
G01X57425702Y-19263124D02*
G02X57440942Y-19278364I0J-15240D01*
G01X57440942Y-19347604D02*
G02X57425702Y-19362844I-15240J0D01*
G01X57937370Y-18477560D02*
G01X58016379Y-18477560D01*
G01X58016379Y-18377840D02*
G01X57937370Y-18377840D01*
G01X57922130Y-18393080D02*
G01X57922130Y-18462320D01*
G01X58140630Y-18477560D02*
G01X58061621Y-18477560D01*
G01X58061621Y-18377840D02*
G01X58140630Y-18377840D01*
G01X58155870Y-18393080D02*
G01X58155870Y-18462320D01*
G01X57937370Y-18377840D02*
G03X57922130Y-18393080I0J-15240D01*
G01X57922130Y-18462320D02*
G03X57937370Y-18477560I15240J0D01*
G01X58140630Y-18377840D02*
G02X58155870Y-18393080I0J-15240D01*
G01X58155870Y-18462320D02*
G02X58140630Y-18477560I-15240J0D01*
G01X59004170Y-18655360D02*
G01X59083179Y-18655360D01*
G01X59083179Y-18555640D02*
G01X59004170Y-18555640D01*
G01X58988930Y-18570880D02*
G01X58988930Y-18640120D01*
G01X59207430Y-18655360D02*
G01X59128421Y-18655360D01*
G01X59128421Y-18555640D02*
G01X59207430Y-18555640D01*
G01X59222670Y-18570880D02*
G01X59222670Y-18640120D01*
G01X59004170Y-18555640D02*
G03X58988930Y-18570880I0J-15240D01*
G01X58988930Y-18640120D02*
G03X59004170Y-18655360I15240J0D01*
G01X59207430Y-18555640D02*
G02X59222670Y-18570880I0J-15240D01*
G01X59222670Y-18640120D02*
G02X59207430Y-18655360I-15240J0D01*
G01X58444460Y-18424921D02*
G01X58444460Y-18496724D01*
G01X58444460Y-18496724D02*
G01X58344740Y-18496724D01*
G01X58344740Y-18496724D02*
G01X58344740Y-18424921D01*
G01X58444460Y-18379679D02*
G01X58444460Y-18307875D01*
G01X58444460Y-18307875D02*
G01X58344740Y-18307875D01*
G01X58344740Y-18307875D02*
G01X58344740Y-18379679D01*
G01X58074321Y-18517540D02*
G01X58146125Y-18517540D01*
G01X58146125Y-18517540D02*
G01X58146125Y-18617260D01*
G01X58146125Y-18617260D02*
G01X58074321Y-18617260D01*
G01X58029079Y-18517540D02*
G01X57957276Y-18517540D01*
G01X57957276Y-18517540D02*
G01X57957276Y-18617260D01*
G01X57957276Y-18617260D02*
G01X58029079Y-18617260D01*
G01X58074321Y-18657240D02*
G01X58146125Y-18657240D01*
G01X58146125Y-18657240D02*
G01X58146125Y-18756960D01*
G01X58146125Y-18756960D02*
G01X58074321Y-18756960D01*
G01X58029079Y-18657240D02*
G01X57957276Y-18657240D01*
G01X57957276Y-18657240D02*
G01X57957276Y-18756960D01*
G01X57957276Y-18756960D02*
G01X58029079Y-18756960D01*
G54D10*
G01X57723466Y-22395330D02*
G01X57723466Y-22185328D01*
G01X57725818Y-22395696D02*
G01X58360818Y-22395693D01*
G01X58360818Y-22395696D02*
G01X58360818Y-22185696D01*
G01X57723319Y-22191693D02*
G01X58363317Y-22191693D01*
G01X57865518Y-20981695D02*
G01X58363317Y-20981695D01*
G01X57723319Y-22191693D02*
G01X57723319Y-22072582D01*
G01X57723319Y-21882793D02*
G01X57723319Y-21365647D01*
G01X58363317Y-22191693D02*
G01X58363317Y-22060593D01*
G01X58363317Y-21883855D02*
G01X58363317Y-21730393D01*
G01X58363317Y-21544765D02*
G01X58363317Y-21196993D01*
G01X57725818Y-21184293D02*
G01X57725818Y-21133493D01*
G01X58363317Y-22191693D02*
G01X58363317Y-22069809D01*
G01X58363317Y-21873578D02*
G01X58363317Y-21739809D01*
G01X58363317Y-21543579D02*
G01X58363317Y-21189808D01*
G01X58363317Y-20993578D02*
G01X58363317Y-20981695D01*
G01X57723319Y-22180105D02*
G01X57723319Y-22069809D01*
G01X57723319Y-21873578D02*
G01X57723319Y-21369807D01*
G01X57723319Y-21173577D02*
G01X57723319Y-21139808D01*
G54D15*
G01X57692011Y-19878810D02*
G01X57641998Y-19878810D01*
G01X57641998Y-19878810D02*
G01X57641998Y-19828797D01*
G01X58131984Y-19878810D02*
G01X58181997Y-19878810D01*
G01X58181997Y-19878810D02*
G01X58181997Y-19828797D01*
G01X58181997Y-19388823D02*
G01X58181997Y-19338811D01*
G01X58181997Y-19338811D02*
G01X58131984Y-19338811D01*
G01X57641998Y-19388823D02*
G01X57641998Y-19338811D01*
G01X57641998Y-19338811D02*
G01X57692011Y-19338811D01*
G54D16*
G01X57606943Y-19358874D02*
G03X57576942Y-19359001I-15001J-127D01*
G03X57606943Y-19359128I15001J0D01*
G54D10*
G01X59828595Y-19865406D02*
G01X60008597Y-19865406D01*
G01X59828595Y-19750408D02*
G01X59828595Y-19670405D01*
G01X59828595Y-19555404D02*
G01X60008597Y-19555404D01*
G54D17*
G01X58395332Y-18538208D02*
G01X58295332Y-18538208D01*
G01X58395332Y-18698207D02*
G01X58295332Y-18698207D01*
G54D10*
G01X59151630Y-19093359D02*
G01X59151630Y-19055472D01*
G01X59151630Y-18781244D02*
G01X59151630Y-18743357D01*
G01X59151630Y-18743357D02*
G01X59088745Y-18743357D01*
G01X59014516Y-18743357D02*
G01X58938948Y-18743357D01*
G01X58864719Y-18743357D02*
G01X58801628Y-18743357D01*
G01X58801628Y-18743357D02*
G01X58801623Y-18743352D01*
G01X58801623Y-18743352D02*
G01X58801623Y-18781396D01*
G01X58801623Y-19055625D02*
G01X58801623Y-19093354D01*
G01X58801623Y-19093354D02*
G01X58801628Y-19093359D01*
G01X58801628Y-19093359D02*
G01X58864516Y-19093359D01*
G01X58938745Y-19093359D02*
G01X59014516Y-19093359D01*
G01X59088745Y-19093359D02*
G01X59151630Y-19093359D01*
G01X59009107Y-18281495D02*
G01X59009107Y-15281501D01*
G01X61209103Y-15281501D02*
G01X61209103Y-18281495D01*
G01X59009107Y-18281495D02*
G01X61209103Y-18281495D01*
G01X59009107Y-15281501D02*
G01X61209103Y-15281501D01*
G54D11*
G01X57205850Y-18767120D02*
G01X57284859Y-18767120D01*
G01X57284859Y-18667400D02*
G01X57205850Y-18667400D01*
G01X57190610Y-18682640D02*
G01X57190610Y-18751880D01*
G01X57409110Y-18767120D02*
G01X57330101Y-18767120D01*
G01X57330101Y-18667400D02*
G01X57409110Y-18667400D01*
G01X57424350Y-18682640D02*
G01X57424350Y-18751880D01*
G01X57205850Y-18667400D02*
G03X57190610Y-18682640I0J-15240D01*
G01X57190610Y-18751880D02*
G03X57205850Y-18767120I15240J0D01*
G01X57409110Y-18667400D02*
G02X57424350Y-18682640I0J-15240D01*
G01X57424350Y-18751880D02*
G02X57409110Y-18767120I-15240J0D01*
G01X57123203Y-18815484D02*
G01X57458925Y-18815484D01*
G01X57458925Y-18815484D02*
G01X57458925Y-19221204D01*
G01X57458925Y-19221204D02*
G01X57123203Y-19221204D01*
G01X57123203Y-19221204D02*
G01X57123203Y-18815484D01*
G01X57266063Y-18792624D02*
G01X57100343Y-18792624D01*
G01X57100343Y-18792624D02*
G01X57100343Y-18978344D01*
G54D12*
G01X60550793Y-19687643D02*
G01X60322193Y-19687643D01*
G01X60322193Y-19484443D02*
G01X60550793Y-19484443D01*
G54D11*
G01X59028554Y-21149561D02*
G01X59028554Y-21199561D01*
G01X58944076Y-21134319D02*
G01X59013316Y-21134319D01*
G01X58928836Y-21199561D02*
G01X58928836Y-21149561D01*
G01X58929049Y-21293839D02*
G01X58929049Y-21243839D01*
G01X59028762Y-21243839D02*
G01X59028762Y-21293839D01*
G01X59013527Y-21309081D02*
G01X58944284Y-21309081D01*
G01X59028764Y-21293839D02*
G02X59013524Y-21309079I-15240J0D01*
G01X58944284Y-21309079D02*
G02X58929044Y-21293839I0J15240D01*
G01X58928836Y-21149561D02*
G02X58944076Y-21134321I15240J0D01*
G01X59013316Y-21134321D02*
G02X59028556Y-21149561I0J-15240D01*
G01X60003152Y-18786891D02*
G01X60003152Y-18736891D01*
G01X60087630Y-18802134D02*
G01X60018389Y-18802134D01*
G01X60102870Y-18736891D02*
G01X60102870Y-18786891D01*
G01X60102656Y-18642614D02*
G01X60102656Y-18692614D01*
G01X60002943Y-18692614D02*
G01X60002943Y-18642614D01*
G01X60018178Y-18627372D02*
G01X60087421Y-18627372D01*
G01X60002941Y-18642614D02*
G02X60018181Y-18627374I15240J0D01*
G01X60087421Y-18627374D02*
G02X60102661Y-18642614I0J-15240D01*
G01X60102870Y-18786891D02*
G02X60087630Y-18802131I-15240J0D01*
G01X60018389Y-18802131D02*
G02X60003149Y-18786891I0J15240D01*
G01X59462446Y-18906239D02*
G01X59462446Y-18856239D01*
G01X59546924Y-18921481D02*
G01X59477684Y-18921481D01*
G01X59562164Y-18856239D02*
G01X59562164Y-18906239D01*
G01X59561951Y-18761961D02*
G01X59561951Y-18811961D01*
G01X59462238Y-18811961D02*
G01X59462238Y-18761961D01*
G01X59477473Y-18746719D02*
G01X59546716Y-18746719D01*
G01X59462236Y-18761961D02*
G02X59477476Y-18746721I15240J0D01*
G01X59546716Y-18746721D02*
G02X59561956Y-18761961I0J-15240D01*
G01X59562164Y-18906239D02*
G02X59546924Y-18921479I-15240J0D01*
G01X59477684Y-18921479D02*
G02X59462444Y-18906239I0J15240D01*
G01X59424240Y-20818079D02*
G01X59424240Y-20746275D01*
G01X59424240Y-20746275D02*
G01X59523960Y-20746275D01*
G01X59523960Y-20746275D02*
G01X59523960Y-20818079D01*
G01X59424240Y-20863321D02*
G01X59424240Y-20935124D01*
G01X59424240Y-20935124D02*
G01X59523960Y-20935124D01*
G01X59523960Y-20935124D02*
G01X59523960Y-20863321D01*
G01X60203319Y-18914440D02*
G01X60131516Y-18914440D01*
G01X60131516Y-18914440D02*
G01X60131516Y-18814720D01*
G01X60131516Y-18814720D02*
G01X60203319Y-18814720D01*
G01X60248561Y-18914440D02*
G01X60320365Y-18914440D01*
G01X60320365Y-18914440D02*
G01X60320365Y-18814720D01*
G01X60320365Y-18814720D02*
G01X60248561Y-18814720D01*
G01X60248247Y-18972233D02*
G01X60320050Y-18972233D01*
G01X60320050Y-18972233D02*
G01X60320050Y-19071953D01*
G01X60320050Y-19071953D02*
G01X60248247Y-19071953D01*
G01X60203004Y-18972233D02*
G01X60131201Y-18972233D01*
G01X60131201Y-18972233D02*
G01X60131201Y-19071953D01*
G01X60131201Y-19071953D02*
G01X60203004Y-19071953D01*
G01X61087940Y-21783279D02*
G01X61087940Y-21711475D01*
G01X61087940Y-21711475D02*
G01X61187660Y-21711475D01*
G01X61187660Y-21711475D02*
G01X61187660Y-21783279D01*
G01X61087940Y-21828521D02*
G01X61087940Y-21900324D01*
G01X61087940Y-21900324D02*
G01X61187660Y-21900324D01*
G01X61187660Y-21900324D02*
G01X61187660Y-21828521D01*
G01X60935540Y-21783279D02*
G01X60935540Y-21711475D01*
G01X60935540Y-21711475D02*
G01X61035260Y-21711475D01*
G01X61035260Y-21711475D02*
G01X61035260Y-21783279D01*
G01X60935540Y-21828521D02*
G01X60935540Y-21900324D01*
G01X60935540Y-21900324D02*
G01X61035260Y-21900324D01*
G01X61035260Y-21900324D02*
G01X61035260Y-21828521D01*
G54D10*
G01X59700841Y-18760358D02*
G01X59661593Y-18760358D01*
G01X59961595Y-19060360D02*
G01X59961595Y-19021166D01*
G01X59961595Y-18799939D02*
G01X59961595Y-18760358D01*
G01X59661593Y-18760358D02*
G01X59661593Y-18799939D01*
G01X59661593Y-19021166D02*
G01X59661593Y-19060360D01*
G01X59961595Y-19060360D02*
G01X59922067Y-19060360D01*
G01X59700993Y-19060360D02*
G01X59661593Y-19060360D01*
G01X59961595Y-18760358D02*
G01X59922067Y-18760358D01*
G01X60788812Y-21998935D02*
G01X60788812Y-21799540D01*
G01X60788812Y-22341837D02*
G01X60788812Y-22194540D01*
G01X59881613Y-21998622D02*
G01X59881613Y-21799850D01*
G01X59881613Y-22356737D02*
G01X59881613Y-22194853D01*
G01X60781611Y-22356737D02*
G01X59881613Y-22356737D01*
G54D11*
G01X57273372Y-17542140D02*
G01X57273372Y-17467571D01*
G01X57273372Y-17467571D02*
G01X57297944Y-17467571D01*
G01X57538614Y-17542140D02*
G01X57538614Y-17467571D01*
G01X57538614Y-17467571D02*
G01X57514042Y-17467571D01*
G01X57273372Y-17708241D02*
G01X57273372Y-17782810D01*
G01X57273372Y-17782810D02*
G01X57297944Y-17782810D01*
G01X57538614Y-17708241D02*
G01X57538614Y-17782810D01*
G01X57538614Y-17782810D02*
G01X57514042Y-17782810D01*
G01X61347309Y-19335880D02*
G01X61347309Y-19199888D01*
G01X61347309Y-19199888D02*
G01X61131491Y-19199888D01*
G01X61131491Y-19199888D02*
G01X61131491Y-19335880D01*
G01X61347309Y-19526120D02*
G01X61347309Y-19662112D01*
G01X61347309Y-19662112D02*
G01X61131491Y-19662112D01*
G01X61131491Y-19662112D02*
G01X61131491Y-19526120D01*
G01X59755021Y-18553206D02*
G01X59805021Y-18553206D01*
G01X59739779Y-18637684D02*
G01X59739779Y-18568444D01*
G01X59805021Y-18652924D02*
G01X59755021Y-18652924D01*
G01X59899299Y-18652711D02*
G01X59849299Y-18652711D01*
G01X59849299Y-18552998D02*
G01X59899299Y-18552998D01*
G01X59914541Y-18568233D02*
G01X59914541Y-18637476D01*
G01X59899299Y-18552996D02*
G02X59914539Y-18568236I0J-15240D01*
G01X59914539Y-18637476D02*
G02X59899299Y-18652716I-15240J0D01*
G01X59755021Y-18652924D02*
G02X59739781Y-18637684I0J15240D01*
G01X59739781Y-18568444D02*
G02X59755021Y-18553204I15240J0D01*
G01X57707754Y-17649441D02*
G01X57707754Y-17699441D01*
G01X57623276Y-17634199D02*
G01X57692516Y-17634199D01*
G01X57608036Y-17699441D02*
G01X57608036Y-17649441D01*
G01X57608249Y-17793719D02*
G01X57608249Y-17743719D01*
G01X57707962Y-17743719D02*
G01X57707962Y-17793719D01*
G01X57692727Y-17808961D02*
G01X57623484Y-17808961D01*
G01X57707964Y-17793719D02*
G02X57692724Y-17808959I-15240J0D01*
G01X57623484Y-17808959D02*
G02X57608244Y-17793719I0J15240D01*
G01X57608036Y-17649441D02*
G02X57623276Y-17634201I15240J0D01*
G01X57692516Y-17634201D02*
G02X57707756Y-17649441I0J-15240D01*
G01X57456321Y-17321306D02*
G01X57506321Y-17321306D01*
G01X57441079Y-17405784D02*
G01X57441079Y-17336544D01*
G01X57506321Y-17421024D02*
G01X57456321Y-17421024D01*
G01X57600599Y-17420811D02*
G01X57550599Y-17420811D01*
G01X57550599Y-17321098D02*
G01X57600599Y-17321098D01*
G01X57615841Y-17336333D02*
G01X57615841Y-17405576D01*
G01X57600599Y-17321096D02*
G02X57615839Y-17336336I0J-15240D01*
G01X57615839Y-17405576D02*
G02X57600599Y-17420816I-15240J0D01*
G01X57456321Y-17421024D02*
G02X57441081Y-17405784I0J15240D01*
G01X57441081Y-17336544D02*
G02X57456321Y-17321304I15240J0D01*
G54D10*
G01X56986701Y-15517020D02*
G01X57280703Y-15517020D01*
G01X58486700Y-16711229D02*
G01X58486700Y-16526012D01*
G01X58486675Y-16711219D02*
G01X58486675Y-16789959D01*
G01X58486675Y-16789959D02*
G01X58276617Y-16789959D01*
G01X58276617Y-16789959D02*
G01X58276701Y-16791015D01*
G01X57559819Y-17039016D02*
G01X58276698Y-17039016D01*
G01X58276698Y-17039016D02*
G01X58276701Y-16790015D01*
G01X58281697Y-15515016D02*
G01X57565696Y-15515016D01*
G01X56986701Y-15517020D02*
G01X56986701Y-17041012D01*
G01X56986701Y-17041012D02*
G01X57285702Y-17041012D01*
G01X59370100Y-20810080D02*
G01X59370100Y-21110080D01*
G01X59370100Y-21110080D02*
G01X59350133Y-21110080D01*
G01X59090067Y-21110080D02*
G01X59070240Y-21110080D01*
G01X59370100Y-20810080D02*
G01X59350133Y-20810080D01*
G01X59090067Y-20810080D02*
G01X59067700Y-20810080D01*
G01X59067700Y-20810080D02*
G01X59067700Y-20905470D01*
G01X59070240Y-21014690D02*
G01X59070240Y-21110080D01*
G01X59067700Y-20905470D02*
G02X59070240Y-21014690I192J-54635D01*
G36*
G01X59095759Y-21060080D02*
G02X59144441Y-21060080I24341J0D01*
G02X59095759Y-21060080I-24341J0D01*
G37*
G01X57400952Y-20930490D02*
G01X57032652Y-21298790D01*
G01X57032652Y-20930490D02*
G01X57400952Y-21298790D01*
G01X58128154Y-17916652D02*
G01X57759854Y-18284952D01*
G01X57759854Y-17916652D02*
G01X58128154Y-18284952D01*
G01X61520832Y-18730468D02*
G01X61152532Y-19098768D01*
G01X61152532Y-18730468D02*
G01X61520832Y-19098768D01*
G01X58051700Y-14855318D02*
G01X57683400Y-15223618D01*
G01X57683400Y-14855318D02*
G01X58051700Y-15223618D01*
G54D11*
G01X59706761Y-19139946D02*
G01X59756761Y-19139946D01*
G01X59691519Y-19224424D02*
G01X59691519Y-19155184D01*
G01X59756761Y-19239664D02*
G01X59706761Y-19239664D01*
G01X59851039Y-19239451D02*
G01X59801039Y-19239451D01*
G01X59801039Y-19139738D02*
G01X59851039Y-19139738D01*
G01X59866281Y-19154973D02*
G01X59866281Y-19224216D01*
G01X59851039Y-19139736D02*
G02X59866279Y-19154976I0J-15240D01*
G01X59866279Y-19224216D02*
G02X59851039Y-19239456I-15240J0D01*
G01X59706761Y-19239664D02*
G02X59691521Y-19224424I0J15240D01*
G01X59691521Y-19155184D02*
G02X59706761Y-19139944I15240J0D01*

G04 Circle Start*
G54D16*
G01X59063661Y-21656650D02*
G03X59093684Y-21656650I15011J0D01*
G03X59063661Y-21656650I-15011J0D01*
G54D19*
G01X60505446Y-21111783D02*
G03X60529424Y-21111783I11989J0D01*
G03X60505446Y-21111783I-11989J0D01*
G54D10*
G01X60058287Y-19875500D02*
G03X60083687Y-19875500I12700J0D01*
G03X60058287Y-19875500I-12700J0D01*
G54D17*
G01X58243445Y-18565190D02*
G03X58256145Y-18565190I6350J0D01*
G03X58243445Y-18565190I-6350J0D01*
G54D10*
G01X58836624Y-18708351D02*
G03X58856639Y-18708351I10008J0D01*
G03X58836624Y-18708351I-10008J0D01*
G01X59909103Y-18705355D02*
G03X59934097Y-18705355I12497J0D01*
G03X59909103Y-18705355I-12497J0D01*
G54D17*
G01X57322300Y-17815691D02*
G03X57337286Y-17815691I7493J0D01*
G03X57322300Y-17815691I-7493J0D01*
G54D10*
G01X58406665Y-16549726D02*
G03X58417130Y-16549726I5232J0D01*
G03X58406665Y-16549726I-5232J0D01*
G01X56950102Y-21114640D02*
G03X57483502Y-21114640I266700J0D01*
G03X56950102Y-21114640I-266700J0D01*
G01X57677304Y-18100802D02*
G03X58210704Y-18100802I266700J0D01*
G03X57677304Y-18100802I-266700J0D01*
G01X61069982Y-18914618D02*
G03X61603382Y-18914618I266700J0D01*
G03X61069982Y-18914618I-266700J0D01*
G01X57600850Y-15039468D02*
G03X58134250Y-15039468I266700J0D01*
G03X57600850Y-15039468I-266700J0D01*
G04 Circle End*

M02*

