G04 Layer: TopSolderMaskLayer*
G04 EasyEDA Pro v3.2.148, 2026-09-22 00:44:55*
G04 Gerber Generator version 0.3*
G04 Scale: 100 percent, Rotated: No, Reflected: No*
G04 Dimensions in millimeters*
G04 Leading zeros omitted, absolute positions, 4 integers and 5 decimals*
G04 Generated by one-click*
G04 Object Configs: Pad,Via,Track,Text,Image,Dimension,BoardOutline,BoardCutout,CopperFilled,SolidRegion,FPCStiffener,Line,PlaneZone,ComponentProperty,ComponentSilkscreen,TearDrop*
G04 Layer Configs: 1,15,16,17,18,2,3,4,5,6,7,8,9,10,11,13,14,56*
G04 Copper Areas: 0*
%FSLAX45Y45*%
%MOMM*%
%AMRoundRect*1,1,$1,$2,$3*1,1,$1,$4,$5*1,1,$1,0-$2,0-$3*1,1,$1,0-$4,0-$5*20,1,$1,$2,$3,$4,$5,0*20,1,$1,$4,$5,0-$2,0-$3,0*20,1,$1,0-$2,0-$3,0-$4,0-$5,0*20,1,$1,0-$4,0-$5,$2,$3,0*4,1,4,$2,$3,$4,$5,0-$2,0-$3,0-$4,0-$5,$2,$3,0*%
%ADD10RoundRect,0.1016X-0.4X0.45X0.4X0.45*%
%ADD11RoundRect,0.1016X-0.25X0.27X0.25X0.27*%
%ADD12RoundRect,0.1016X-0.675X-0.705X-0.675X0.705*%
%ADD13RoundRect,0.1016X-0.266X0.536X0.266X0.536*%
%ADD14RoundRect,0.1016X-0.57501X-0.47501X-0.57501X0.47501*%
%ADD15RoundRect,0.1016X-0.86001X-0.5X-0.86001X0.5*%
%ADD16RoundRect,0.1016X-0.28283X0.27X0.28283X0.27*%
%ADD17RoundRect,0.1041X-1.35X-1.35X-1.35X1.35*%
%ADD18RoundRect,0.10003X-1.35X-1.35X-1.35X1.35*%
%ADD19RoundRect,0.10003X-0.42499X0.12501X0.42499X0.12501*%
%ADD20RoundRect,0.10003X-0.12501X-0.42499X-0.12501X0.42499*%
%ADD21RoundRect,0.1016X-0.3X-0.55X-0.3X0.55*%
%ADD22RoundRect,0.1016X-0.27X-0.28283X-0.27X0.28283*%
%ADD23RoundRect,0.1016X-0.45X-0.4X-0.45X0.4*%
%ADD24RoundRect,0.1016X-0.27X-0.39505X-0.27X0.39505*%
%ADD25RoundRect,0.1016X-0.39505X0.27X0.39505X0.27*%
%ADD26RoundRect,0.1016X-1.0X0.75X1.0X0.75*%
%ADD27RoundRect,0.1016X-1.3X0.75X1.3X0.75*%
%ADD28RoundRect,0.10003X-1.8X1.8X1.8X1.8*%
%ADD29O,0.90002X0.30002*%
%ADD30O,0.30002X0.90002*%
%ADD31RoundRect,0.1016X-0.5X0.3X0.5X0.3*%
%ADD32RoundRect,0.1016X-0.265X-0.0875X-0.265X0.0875*%
%ADD33RoundRect,0.1016X-0.3X-0.0875X-0.3X0.0875*%
%ADD34RoundRect,0.1016X-0.14X0.4X0.14X0.4*%
%ADD35RoundRect,0.1016X-0.4X-0.14X-0.4X0.14*%
%ADD36RoundRect,0.1016X-1.025X-1.025X-1.025X1.025*%
%ADD37RoundRect,0.1016X-0.4X-0.2X-0.4X0.2*%
%ADD38RoundRect,0.1016X-0.2X0.4X0.2X0.4*%
%ADD39RoundRect,0.1016X-0.4X-0.4X-0.4X0.4*%
%ADD40RoundRect,0.1016X-0.6X-0.7X-0.6X0.7*%
%ADD41RoundRect,0.1016X-0.5X0.86001X0.5X0.86001*%
%ADD42RoundRect,0.1016X-0.27X-0.25X-0.27X0.25*%
%ADD43RoundRect,0.1016X-0.12501X0.37501X0.12501X0.37501*%
%ADD44RoundRect,0.1016X-0.37501X0.12501X0.37501X0.12501*%
%ADD45RoundRect,0.1016X-0.85X0.85X0.85X0.85*%
%ADD46RoundRect,0.10003X-0.27501X0.55X0.27501X0.55*%
%ADD47RoundRect,0.10003X-0.15X0.55X0.15X0.55*%
%ADD48O,1.20002X2.10002*%
%ADD49O,1.30002X1.90002*%
%ADD50RoundRect,0.1016X-0.14X-0.3375X-0.14X0.3375*%
%ADD51RoundRect,0.1016X-0.3375X-0.14X-0.3375X0.14*%
%ADD52RoundRect,0.1016X-0.85051X-0.60376X-0.85051X0.60376*%
%ADD53RoundRect,0.1016X-0.8X-0.35X-0.8X0.35*%
%ADD54RoundRect,0.1016X-0.75X-0.6X-0.75X0.6*%
%ADD55RoundRect,0.1016X-1.1X-0.6X-1.1X0.6*%
%ADD56RoundRect,0.1016X-0.75X-0.8X-0.75X0.8*%
%ADD57O,0.4016X1.3016*%
%ADD58C,2.40284*%
%ADD59C,1.6256*%
%ADD60RoundRect,0.1016X-0.762X-0.762X-0.762X0.762*%
%ADD61RoundRect,0.1X-0.75X-0.762X-0.75X0.762*%
%ADD62C,1.6*%
G75*


G04 Pad Start*
G54D10*
G01X60046718Y-20789900D03*
G01X60186722Y-20789900D03*
G01X60851776Y-20453090D03*
G01X60991781Y-20453090D03*
G54D11*
G01X60196832Y-20604480D03*
G01X60112808Y-20604480D03*
G54D10*
G01X60047022Y-20320000D03*
G01X59907018Y-20320000D03*
G01X60555022Y-21221700D03*
G01X60415018Y-21221700D03*
G01X60671537Y-20452507D03*
G01X60531532Y-20452507D03*
G54D12*
G01X60205620Y-21194700D03*
G01X60205620Y-20994700D03*
G54D13*
G01X59150504Y-21641410D03*
G01X59245500Y-21641410D03*
G01X59340496Y-21641410D03*
G01X59340496Y-21411590D03*
G01X59245500Y-21411590D03*
G01X59150504Y-21411590D03*
G54D14*
G01X59850020Y-20646060D03*
G01X59850020Y-20984540D03*
G54D15*
G01X60256420Y-20479004D03*
G01X60256420Y-20313396D03*
G54D16*
G01X61167853Y-20846207D03*
G01X61254416Y-20846207D03*
G01X61167853Y-20973207D03*
G01X61254416Y-20973207D03*
G01X61167853Y-21100207D03*
G01X61254416Y-21100207D03*
G01X61167853Y-20719207D03*
G01X61254416Y-20719207D03*
G01X61167853Y-20592207D03*
G01X61254416Y-20592207D03*
G54D18*
G01X60695248Y-20857744D03*
G54D19*
G01X60492734Y-20982789D03*
G01X60492734Y-20932801D03*
G01X60492734Y-20882789D03*
G01X60492734Y-20832776D03*
G01X60492734Y-20782789D03*
G01X60492734Y-20732776D03*
G54D20*
G01X60570229Y-20655281D03*
G01X60620242Y-20655281D03*
G01X60670229Y-20655281D03*
G01X60720242Y-20655281D03*
G01X60770229Y-20655281D03*
G01X60820241Y-20655281D03*
G54D19*
G01X60897737Y-20732776D03*
G01X60897737Y-20782789D03*
G01X60897737Y-20832776D03*
G01X60897737Y-20882789D03*
G01X60897737Y-20932801D03*
G01X60897737Y-20982789D03*
G54D20*
G01X60820241Y-21060284D03*
G01X60770229Y-21060284D03*
G01X60720242Y-21060284D03*
G01X60670229Y-21060284D03*
G01X60620242Y-21060284D03*
G01X60570229Y-21060284D03*
G54D21*
G01X60861689Y-19804953D03*
G01X60671697Y-19804953D03*
G01X60671697Y-19544933D03*
G01X60766693Y-19544933D03*
G01X60861689Y-19544933D03*
G54D10*
G01X60674098Y-19977100D03*
G01X60814102Y-19977100D03*
G01X60366491Y-19370143D03*
G01X60506496Y-19370143D03*
G54D22*
G01X61018153Y-19748501D03*
G01X61018153Y-19835064D03*
G01X61018153Y-19512281D03*
G01X61018153Y-19598844D03*
G54D16*
G01X60787382Y-19380200D03*
G01X60700818Y-19380200D03*
G54D23*
G01X57200800Y-19739762D03*
G01X57200800Y-19599758D03*
G54D24*
G01X57200800Y-20044308D03*
G01X57200800Y-19935292D03*
G54D23*
G01X57378600Y-19739762D03*
G01X57378600Y-19599758D03*
G54D24*
G01X57378600Y-20044308D03*
G01X57378600Y-19935292D03*
G54D25*
G01X57661708Y-20027900D03*
G01X57552692Y-20027900D03*
G01X58499908Y-19977100D03*
G01X58390892Y-19977100D03*
G54D24*
G01X58089800Y-20120508D03*
G01X58089800Y-20011492D03*
G01X58508900Y-19719392D03*
G01X58508900Y-19828408D03*
G01X58381900Y-19828408D03*
G01X58381900Y-19719392D03*
G54D25*
G01X58499908Y-20142200D03*
G01X58390892Y-20142200D03*
G54D24*
G01X58381900Y-19417132D03*
G01X58381900Y-19526148D03*
G54D25*
G01X58487208Y-19265900D03*
G01X58378192Y-19265900D03*
G01X57273292Y-19443700D03*
G01X57382308Y-19443700D03*
G54D24*
G01X58508900Y-19414592D03*
G01X58508900Y-19523608D03*
G54D25*
G01X60049308Y-19951700D03*
G01X59940292Y-19951700D03*
G54D24*
G01X59636660Y-19803008D03*
G01X59636660Y-19693992D03*
G54D25*
G01X57269563Y-19312984D03*
G01X57378580Y-19312984D03*
G01X57984492Y-18427700D03*
G01X58093508Y-18427700D03*
G01X59051292Y-18605500D03*
G01X59160308Y-18605500D03*
G54D22*
G01X58394600Y-18359018D03*
G01X58394600Y-18445582D03*
G54D16*
G01X58008418Y-18567400D03*
G01X58094982Y-18567400D03*
G01X58008418Y-18707100D03*
G01X58094982Y-18707100D03*
G54D26*
G01X57683324Y-21971693D03*
G01X57683324Y-21271695D03*
G54D27*
G01X57713321Y-21041698D03*
G54D26*
G01X58403312Y-21972694D03*
G01X58403312Y-21642697D03*
G01X58403312Y-21092686D03*
G54D28*
G01X57912000Y-19608800D03*
G54D29*
G01X57662064Y-19428790D03*
G01X57662064Y-19468795D03*
G01X57662064Y-19508800D03*
G01X57662064Y-19548805D03*
G01X57662064Y-19588810D03*
G01X57662064Y-19628790D03*
G01X57662064Y-19668795D03*
G01X57662064Y-19708800D03*
G01X57662064Y-19748805D03*
G01X57662064Y-19788810D03*
G01X58161936Y-19788810D03*
G01X58161936Y-19748805D03*
G01X58161936Y-19708800D03*
G01X58161936Y-19668795D03*
G01X58161936Y-19628790D03*
G01X58161936Y-19588810D03*
G01X58161936Y-19548805D03*
G01X58161936Y-19508800D03*
G01X58161936Y-19468795D03*
G01X58161936Y-19428790D03*
G54D30*
G01X57731990Y-19358864D03*
G01X57771995Y-19358864D03*
G01X57812000Y-19358864D03*
G01X57852005Y-19358864D03*
G01X57892010Y-19358864D03*
G01X57931990Y-19358864D03*
G01X57971995Y-19358864D03*
G01X58012000Y-19358864D03*
G01X58052005Y-19358864D03*
G01X58092010Y-19358864D03*
G01X58092010Y-19858736D03*
G01X58052005Y-19858736D03*
G01X58012000Y-19858736D03*
G01X57971995Y-19858736D03*
G01X57931990Y-19858736D03*
G01X57892010Y-19858736D03*
G01X57852005Y-19858736D03*
G01X57812000Y-19858736D03*
G01X57771995Y-19858736D03*
G01X57731990Y-19858736D03*
G54D31*
G01X59788590Y-19805396D03*
G01X59788590Y-19615404D03*
G01X60048610Y-19615404D03*
G01X60048610Y-19710400D03*
G01X60048610Y-19805396D03*
G54D32*
G01X58391781Y-18565698D03*
G01X58391806Y-18600699D03*
G01X58391781Y-18635701D03*
G01X58391781Y-18670702D03*
G01X58295794Y-18670702D03*
G01X58295794Y-18635701D03*
G01X58295794Y-18600699D03*
G54D33*
G01X58299299Y-18565698D03*
G54D34*
G01X58901623Y-18743352D03*
G54D35*
G01X58801623Y-18818511D03*
G01X58801623Y-18868523D03*
G01X58801623Y-18918511D03*
G01X58801623Y-18968523D03*
G01X58801623Y-19018510D03*
G54D34*
G01X58901623Y-19093364D03*
G01X59051635Y-19093364D03*
G54D35*
G01X59151635Y-19018358D03*
G01X59151635Y-18968371D03*
G01X59151635Y-18918358D03*
G01X59151635Y-18868371D03*
G01X59151635Y-18818358D03*
G54D34*
G01X59051635Y-18743352D03*
G54D36*
G01X58976629Y-18918358D03*
G54D37*
G01X59079105Y-16061499D03*
G01X59079105Y-16146488D03*
G01X59079105Y-16231502D03*
G01X59079105Y-16316490D03*
G01X59079105Y-16401504D03*
G01X59079105Y-16486492D03*
G01X59079105Y-16571506D03*
G01X59079105Y-16656494D03*
G01X59079105Y-16741508D03*
G01X59079105Y-16826497D03*
G01X59079105Y-16911510D03*
G01X59079105Y-16996499D03*
G01X59079105Y-17081487D03*
G01X59079105Y-17166501D03*
G01X59079105Y-17251489D03*
G01X59079105Y-17336503D03*
G01X59079105Y-17421492D03*
G01X59079105Y-17506505D03*
G01X59079105Y-17591494D03*
G01X59079105Y-17676508D03*
G01X59079105Y-17761496D03*
G01X59079105Y-17846484D03*
G01X59079105Y-17931498D03*
G01X59079105Y-18016487D03*
G01X59079105Y-18101500D03*
G54D38*
G01X59216595Y-18211508D03*
G01X59301609Y-18211508D03*
G01X59386597Y-18211508D03*
G01X59471611Y-18211508D03*
G01X59556599Y-18211508D03*
G01X59641613Y-18211508D03*
G01X59726601Y-18211508D03*
G01X59811615Y-18211508D03*
G01X59896604Y-18211508D03*
G01X59981617Y-18211508D03*
G01X60066606Y-18211508D03*
G01X60151594Y-18211508D03*
G01X60236608Y-18211508D03*
G01X60321596Y-18211508D03*
G01X60406610Y-18211508D03*
G01X60491599Y-18211508D03*
G01X60576612Y-18211508D03*
G01X60661601Y-18211508D03*
G01X60746615Y-18211508D03*
G01X60831603Y-18211508D03*
G01X60916591Y-18211508D03*
G01X61001605Y-18211508D03*
G54D37*
G01X61139095Y-18101500D03*
G01X61139095Y-18016487D03*
G01X61139095Y-17931498D03*
G01X61139095Y-17846484D03*
G01X61139095Y-17761496D03*
G01X61139095Y-17676508D03*
G01X61139095Y-17591494D03*
G01X61139095Y-17506505D03*
G01X61139095Y-17421492D03*
G01X61139095Y-17336503D03*
G01X61139095Y-17251489D03*
G01X61139095Y-17166501D03*
G01X61139095Y-17081487D03*
G01X61139095Y-16996499D03*
G01X61139095Y-16911510D03*
G01X61139095Y-16826497D03*
G01X61139095Y-16741508D03*
G01X61139095Y-16656494D03*
G01X61139095Y-16571506D03*
G01X61139095Y-16486492D03*
G01X61139095Y-16401504D03*
G01X61139095Y-16316490D03*
G01X61139095Y-16231502D03*
G01X61139095Y-16146488D03*
G01X61139095Y-16061499D03*
G54D38*
G01X61001605Y-15951492D03*
G01X60916591Y-15951492D03*
G01X60831603Y-15951492D03*
G01X60746615Y-15951492D03*
G01X60661601Y-15951492D03*
G01X60576612Y-15951492D03*
G01X60491599Y-15951492D03*
G01X60406610Y-15951492D03*
G01X60321596Y-15951492D03*
G01X60236608Y-15951492D03*
G01X60151594Y-15951492D03*
G01X60066606Y-15951492D03*
G01X59981617Y-15951492D03*
G01X59896604Y-15951492D03*
G01X59811615Y-15951492D03*
G01X59726601Y-15951492D03*
G01X59641613Y-15951492D03*
G01X59556599Y-15951492D03*
G01X59471611Y-15951492D03*
G01X59386597Y-15951492D03*
G01X59301609Y-15951492D03*
G01X59216595Y-15951492D03*
G54D39*
G01X59079105Y-18211508D03*
G01X61139095Y-18211508D03*
G01X61139095Y-15951492D03*
G01X59079105Y-15951492D03*
G36*
G01X59775370Y-17077962D02*
G01X60105570Y-16747762D01*
G02X60112641Y-16747762I3536J-3536D01*
G01X60442841Y-17077962D01*
G02X60442841Y-17085033I-3536J-3536D01*
G01X60112641Y-17415233D01*
G02X60105570Y-17415233I-3536J3536D01*
G01X59775370Y-17085033D01*
G02X59775370Y-17077962I3536J3536D01*
G37*
G54D25*
G01X57252972Y-18717260D03*
G01X57361988Y-18717260D03*
G54D40*
G01X57206050Y-18908337D03*
G01X57206050Y-19128351D03*
G01X57376052Y-19128351D03*
G01X57376052Y-18908337D03*
G54D41*
G01X60519297Y-19586043D03*
G01X60353689Y-19586043D03*
G54D42*
G01X58978800Y-21263712D03*
G01X58978800Y-21179688D03*
G01X60052905Y-18672741D03*
G01X60052905Y-18756764D03*
G01X59512200Y-18792088D03*
G01X59512200Y-18876112D03*
G54D22*
G01X59474100Y-20883982D03*
G01X59474100Y-20797418D03*
G54D16*
G01X60269222Y-18864580D03*
G01X60182658Y-18864580D03*
G01X60182344Y-19022093D03*
G01X60268907Y-19022093D03*
G54D22*
G01X61137800Y-21849182D03*
G01X61137800Y-21762618D03*
G01X60985400Y-21849182D03*
G01X60985400Y-21762618D03*
G54D43*
G01X59886446Y-18765350D03*
G01X59836459Y-18765350D03*
G01X59786447Y-18765350D03*
G01X59736459Y-18765324D03*
G54D44*
G01X59666609Y-18835352D03*
G01X59666609Y-18885339D03*
G01X59666609Y-18935352D03*
G01X59666609Y-18985339D03*
G54D43*
G01X59736612Y-19055341D03*
G01X59786599Y-19055341D03*
G01X59836612Y-19055341D03*
G01X59886523Y-19055341D03*
G54D44*
G01X59956601Y-18985339D03*
G01X59956601Y-18935352D03*
G01X59956601Y-18885339D03*
G01X59956601Y-18835352D03*
G54D45*
G01X59811567Y-18910333D03*
G54D46*
G01X60011602Y-21621737D03*
G01X60091612Y-21621737D03*
G54D47*
G01X60156611Y-21621737D03*
G01X60206623Y-21621737D03*
G01X60256611Y-21621737D03*
G01X60306598Y-21621737D03*
G01X60356610Y-21621737D03*
G01X60406598Y-21621737D03*
G01X60456610Y-21621737D03*
G01X60506623Y-21621737D03*
G54D46*
G01X60571621Y-21621737D03*
G01X60651606Y-21621737D03*
G54D48*
G01X59899106Y-21676728D03*
G01X60764103Y-21676728D03*
G54D49*
G01X59899106Y-22096743D03*
G01X60764103Y-22096743D03*
G54D50*
G01X57330987Y-17751378D03*
G01X57380999Y-17751378D03*
G01X57430986Y-17751378D03*
G01X57480999Y-17751378D03*
G54D51*
G01X57507237Y-17675178D03*
G01X57507237Y-17625191D03*
G01X57507237Y-17575178D03*
G54D50*
G01X57480999Y-17498978D03*
G01X57430986Y-17498978D03*
G01X57380999Y-17498978D03*
G01X57330987Y-17498978D03*
G54D51*
G01X57304748Y-17575178D03*
G01X57304748Y-17625191D03*
G01X57304748Y-17675178D03*
G54D52*
G01X61239400Y-19283121D03*
G01X61239400Y-19578879D03*
G54D11*
G01X59869172Y-18602960D03*
G01X59785148Y-18602960D03*
G54D42*
G01X57658000Y-17763592D03*
G01X57658000Y-17679568D03*
G54D11*
G01X57570472Y-17371060D03*
G01X57486448Y-17371060D03*
G54D53*
G01X58486700Y-15696032D03*
G01X58486700Y-15806014D03*
G01X58486700Y-15916021D03*
G01X58486700Y-16026028D03*
G01X58486700Y-16136010D03*
G01X58486700Y-16246018D03*
G01X58486700Y-16356025D03*
G01X58486700Y-16466033D03*
G01X58486700Y-15586024D03*
G54D54*
G01X58386701Y-15466009D03*
G54D55*
G01X57426708Y-15466009D03*
G01X57426708Y-17016019D03*
G54D56*
G01X58386701Y-16926027D03*
G54D57*
G01X59120100Y-20743088D03*
G01X59170113Y-20743088D03*
G01X59220100Y-20743088D03*
G01X59270113Y-20743088D03*
G01X59320100Y-20743088D03*
G01X59320100Y-21177072D03*
G01X59270113Y-21177072D03*
G01X59220100Y-21177072D03*
G01X59170113Y-21177072D03*
G01X59120100Y-21177072D03*
G54D58*
G01X57216802Y-21114640D03*
G01X57944004Y-18100802D03*
G01X61336682Y-18914618D03*
G01X57867550Y-15039468D03*
G54D11*
G01X59820912Y-19189700D03*
G01X59736888Y-19189700D03*
G54D59*
G01X61252100Y-19777900D03*
G01X61252100Y-20027887D03*
G54D60*
G01X61252100Y-20277899D03*
G54D61*
G01X61264800Y-21575306D03*
G54D62*
G01X61264800Y-21325294D03*
G04 Pad End*

M02*

