G04 Layer: InnerLayer2*
G04 EasyEDA Pro v3.2.148, 2026-09-22 00:44:55*
G04 Gerber Generator version 0.3*
G04 Scale: 100 percent, Rotated: No, Reflected: No*
G04 Dimensions in millimeters*
G04 Leading zeros omitted, absolute positions, 4 integers and 5 decimals*
G04 Generated by one-click*
G04 Object Configs: Pad,Via,Track,Text,Image,Dimension,BoardOutline,BoardCutout,CopperFilled,SolidRegion,FPCStiffener,Line,PlaneZone,ComponentProperty,ComponentSilkscreen,TearDrop*
G04 Layer Configs: 1,15,16,17,18,2,3,4,5,6,7,8,9,10,11,13,14,56*
G04 Copper Areas: 17*
%FSLAX45Y45*%
%MOMM*%
%ADD10C,0.2032*%
%ADD11C,0.254*%
%ADD12O,1.1X2.0*%
%ADD13O,1.2X1.8*%
%ADD14C,2.19964*%
%ADD15C,1.524*%
%ADD16R,1.524X1.524*%
%ADD17R,1.5X1.524*%
%ADD18C,1.5081*%
%ADD19C,1.5*%
%ADD20C,0.61*%
%ADD21C,0.508*%
G75*


G04 Copper Start*
G36*
G01X57886800Y-14800514D02*
G01X58698579Y-14800514D01*
G01X58698579Y-15877286D01*
G01X58314052Y-15877286D01*
G01X58328666Y-15873710D01*
G01X58342097Y-15866933D01*
G01X58353656Y-15857302D01*
G01X58362746Y-15845314D01*
G01X58368899Y-15831585D01*
G01X58371800Y-15816822D01*
G01X58371299Y-15801786D01*
G01X58367421Y-15787250D01*
G01X58360366Y-15773961D01*
G01X58350498Y-15762605D01*
G01X58338324Y-15753766D01*
G01X58350478Y-15744945D01*
G01X58360335Y-15733616D01*
G01X58367391Y-15720359D01*
G01X58371282Y-15705855D01*
G01X58371811Y-15690847D01*
G01X58368949Y-15676105D01*
G01X58362844Y-15662385D01*
G01X58353808Y-15650390D01*
G01X58342305Y-15640736D01*
G01X58354058Y-15630817D01*
G01X58363210Y-15618457D01*
G01X58369269Y-15604321D01*
G01X58371909Y-15589170D01*
G01X58370988Y-15573819D01*
G01X58366555Y-15559092D01*
G01X58358849Y-15545782D01*
G01X58348285Y-15534606D01*
G01X58335430Y-15526163D01*
G01X58320976Y-15520909D01*
G01X58305700Y-15519126D01*
G01X58290424Y-15520909D01*
G01X58275970Y-15526163D01*
G01X58263115Y-15534606D01*
G01X58252551Y-15545782D01*
G01X58244845Y-15559092D01*
G01X58240412Y-15573819D01*
G01X58239491Y-15589170D01*
G01X58242131Y-15604321D01*
G01X58248190Y-15618457D01*
G01X58257342Y-15630817D01*
G01X58269095Y-15640736D01*
G01X58257592Y-15650390D01*
G01X58248556Y-15662385D01*
G01X58242451Y-15676105D01*
G01X58239589Y-15690847D01*
G01X58240118Y-15705855D01*
G01X58244009Y-15720359D01*
G01X58251065Y-15733616D01*
G01X58260922Y-15744945D01*
G01X58273076Y-15753766D01*
G01X58260902Y-15762605D01*
G01X58251034Y-15773961D01*
G01X58243979Y-15787250D01*
G01X58240101Y-15801786D01*
G01X58239600Y-15816822D01*
G01X58242501Y-15831585D01*
G01X58248654Y-15845314D01*
G01X58257744Y-15857302D01*
G01X58269303Y-15866933D01*
G01X58282734Y-15873710D01*
G01X58297348Y-15877286D01*
G01X58089800Y-15877286D01*
G01X58077858Y-15878462D01*
G01X58066374Y-15881946D01*
G01X58055791Y-15887602D01*
G01X58046515Y-15895215D01*
G01X57952434Y-15989297D01*
G01X57944821Y-15998573D01*
G01X57939164Y-16009156D01*
G01X57935681Y-16020639D01*
G01X57934504Y-16032582D01*
G01X57934504Y-16120210D01*
G01X57930692Y-16132709D01*
G01X57929404Y-16145713D01*
G01X57930692Y-16158717D01*
G01X57934504Y-16171216D01*
G01X57934504Y-17089063D01*
G01X57787381Y-17236186D01*
G01X57511951Y-17236186D01*
G01X57497268Y-17231975D01*
G01X57482011Y-17231235D01*
G01X57466989Y-17234005D01*
G01X57453000Y-17240140D01*
G01X57440785Y-17249313D01*
G01X57430993Y-17261037D01*
G01X57424144Y-17274690D01*
G01X57420601Y-17289549D01*
G01X57420551Y-17304824D01*
G01X57423998Y-17319706D01*
G01X57430759Y-17333403D01*
G01X57440474Y-17345191D01*
G01X57440474Y-17437209D01*
G01X57411979Y-17465704D01*
G01X57248591Y-17465704D01*
G01X57237754Y-17456615D01*
G01X57225237Y-17450031D01*
G01X57211608Y-17446251D01*
G01X57197487Y-17445447D01*
G01X57183517Y-17447656D01*
G01X57170334Y-17452777D01*
G01X57158536Y-17460577D01*
G01X57148660Y-17470702D01*
G01X57141157Y-17482691D01*
G01X57136366Y-17495998D01*
G01X57134507Y-17510019D01*
G01X57135663Y-17524115D01*
G01X57120439Y-17523317D01*
G01X57105435Y-17526016D01*
G01X57091444Y-17532070D01*
G01X57079206Y-17541159D01*
G01X57069366Y-17552802D01*
G01X57062445Y-17566385D01*
G01X57058809Y-17581190D01*
G01X57058649Y-17596434D01*
G01X57061975Y-17611311D01*
G01X57068611Y-17625036D01*
G01X57078205Y-17636882D01*
G01X57090251Y-17646225D01*
G01X57104113Y-17652570D01*
G01X57119057Y-17655582D01*
G01X57134294Y-17655102D01*
G01X57149019Y-17651155D01*
G01X57162453Y-17643949D01*
G01X57173887Y-17633866D01*
G01X57182716Y-17621439D01*
G01X57188474Y-17607323D01*
G01X57190856Y-17592266D01*
G01X57189737Y-17577063D01*
G01X57205801Y-17577803D01*
G01X57221571Y-17574655D01*
G01X57236119Y-17567804D01*
G01X57248591Y-17557652D01*
G01X57431022Y-17557652D01*
G01X57442921Y-17556085D01*
G01X57454009Y-17551493D01*
G01X57463531Y-17544186D01*
G01X57518957Y-17488760D01*
G01X57526263Y-17479239D01*
G01X57530856Y-17468151D01*
G01X57532422Y-17456252D01*
G01X57532422Y-17358614D01*
G01X57698386Y-17358614D01*
G01X57698386Y-17746726D01*
G01X57369087Y-17746726D01*
G01X57357188Y-17748293D01*
G01X57346100Y-17752885D01*
G01X57336578Y-17760191D01*
G01X57306871Y-17789898D01*
G01X57291233Y-17791458D01*
G01X57276400Y-17796654D01*
G01X57263207Y-17805195D01*
G01X57252394Y-17816601D01*
G01X57244569Y-17830230D01*
G01X57240171Y-17845319D01*
G01X57239448Y-17861019D01*
G01X57242439Y-17876448D01*
G01X57248978Y-17890739D01*
G01X57258696Y-17903091D01*
G01X57271047Y-17912809D01*
G01X57285339Y-17919347D01*
G01X57300768Y-17922339D01*
G01X57316468Y-17921615D01*
G01X57331556Y-17917218D01*
G01X57345186Y-17909393D01*
G01X57356592Y-17898580D01*
G01X57365132Y-17885387D01*
G01X57370329Y-17870554D01*
G01X57371888Y-17854915D01*
G01X57388130Y-17838674D01*
G01X57475425Y-17838674D01*
G01X57464580Y-17849029D01*
G01X57456339Y-17861556D01*
G01X57451123Y-17875614D01*
G01X57449199Y-17890485D01*
G01X57450665Y-17905407D01*
G01X57455446Y-17919619D01*
G01X57463297Y-17932394D01*
G01X57473818Y-17943078D01*
G01X57486470Y-17951125D01*
G01X57500607Y-17956124D01*
G01X57515505Y-17957819D01*
G01X57530404Y-17956124D01*
G01X57544540Y-17951125D01*
G01X57557192Y-17943078D01*
G01X57567713Y-17932394D01*
G01X57575565Y-17919619D01*
G01X57580346Y-17905407D01*
G01X57581811Y-17890485D01*
G01X57579887Y-17875614D01*
G01X57574671Y-17861556D01*
G01X57566430Y-17849029D01*
G01X57555585Y-17838674D01*
G01X57710712Y-17838674D01*
G01X57722372Y-17848747D01*
G01X57736041Y-17855857D01*
G01X57750983Y-17859620D01*
G01X57766389Y-17859834D01*
G01X57781429Y-17856487D01*
G01X57795290Y-17849759D01*
G01X57807225Y-17840014D01*
G01X57816589Y-17827778D01*
G01X57822876Y-17813711D01*
G01X57825747Y-17798573D01*
G01X57825047Y-17783180D01*
G01X57820814Y-17768365D01*
G01X57820814Y-17375892D01*
G01X57995718Y-17200988D01*
G01X58333386Y-17538656D01*
G01X58333386Y-18249797D01*
G01X58329021Y-18265452D01*
G01X58328595Y-18281698D01*
G01X58332134Y-18297560D01*
G01X58339424Y-18312086D01*
G01X58350028Y-18324401D01*
G01X58363310Y-18333768D01*
G01X58378470Y-18339623D01*
G01X58394600Y-18341614D01*
G01X58410730Y-18339623D01*
G01X58425890Y-18333768D01*
G01X58439172Y-18324401D01*
G01X58448644Y-18313400D01*
G01X59405297Y-18313400D01*
G01X59406992Y-18328301D01*
G01X59411993Y-18342439D01*
G01X59420043Y-18355093D01*
G01X59430730Y-18365614D01*
G01X59443507Y-18373465D01*
G01X59457723Y-18378243D01*
G01X59472648Y-18379706D01*
G01X59487520Y-18377777D01*
G01X59501579Y-18372556D01*
G01X59514105Y-18364310D01*
G01X59526631Y-18372556D01*
G01X59540690Y-18377777D01*
G01X59555562Y-18379706D01*
G01X59570487Y-18378243D01*
G01X59584703Y-18373465D01*
G01X59597480Y-18365614D01*
G01X59608167Y-18355093D01*
G01X59616217Y-18342439D01*
G01X59621218Y-18328301D01*
G01X59622913Y-18313400D01*
G01X59661786Y-18313400D01*
G01X59663713Y-18329270D01*
G01X59669382Y-18344218D01*
G01X59678463Y-18357374D01*
G01X59690429Y-18367975D01*
G01X59704585Y-18375405D01*
G01X59720107Y-18379231D01*
G01X59736093Y-18379231D01*
G01X59751615Y-18375405D01*
G01X59765771Y-18367975D01*
G01X59777737Y-18357374D01*
G01X59786818Y-18344218D01*
G01X59792487Y-18329270D01*
G01X59794414Y-18313400D01*
G01X59792487Y-18297530D01*
G01X59786818Y-18282582D01*
G01X59777737Y-18269426D01*
G01X59765771Y-18258825D01*
G01X59751615Y-18251395D01*
G01X59736093Y-18247569D01*
G01X59720107Y-18247569D01*
G01X59704585Y-18251395D01*
G01X59690429Y-18258825D01*
G01X59678463Y-18269426D01*
G01X59669382Y-18282582D01*
G01X59663713Y-18297530D01*
G01X59661786Y-18313400D01*
G01X59661786Y-18313400D01*
G01X59622913Y-18313400D01*
G01X59621218Y-18298499D01*
G01X59616217Y-18284361D01*
G01X59608167Y-18271707D01*
G01X59597480Y-18261186D01*
G01X59584703Y-18253335D01*
G01X59570487Y-18248557D01*
G01X59555562Y-18247094D01*
G01X59540690Y-18249023D01*
G01X59526631Y-18254244D01*
G01X59514105Y-18262490D01*
G01X59501579Y-18254244D01*
G01X59487520Y-18249023D01*
G01X59472648Y-18247094D01*
G01X59457723Y-18248557D01*
G01X59443507Y-18253335D01*
G01X59430730Y-18261186D01*
G01X59420043Y-18271707D01*
G01X59411993Y-18284361D01*
G01X59406992Y-18298499D01*
G01X59405297Y-18313400D01*
G01X59405297Y-18313400D01*
G01X58448644Y-18313400D01*
G01X58449776Y-18312086D01*
G01X58457066Y-18297560D01*
G01X58460605Y-18281698D01*
G01X58460179Y-18265452D01*
G01X58455814Y-18249797D01*
G01X58455814Y-18101500D01*
G01X59102986Y-18101500D01*
G01X59104913Y-18117370D01*
G01X59110582Y-18132318D01*
G01X59119663Y-18145475D01*
G01X59131629Y-18156076D01*
G01X59145785Y-18163505D01*
G01X59161307Y-18167331D01*
G01X59177293Y-18167331D01*
G01X59192815Y-18163505D01*
G01X59206971Y-18156076D01*
G01X59218937Y-18145475D01*
G01X59228018Y-18132318D01*
G01X59231590Y-18122900D01*
G01X59235295Y-18122900D01*
G01X59236990Y-18137801D01*
G01X59241991Y-18151939D01*
G01X59250040Y-18164593D01*
G01X59260727Y-18175114D01*
G01X59273505Y-18182965D01*
G01X59287720Y-18187743D01*
G01X59302646Y-18189206D01*
G01X59317518Y-18187277D01*
G01X59331577Y-18182056D01*
G01X59344103Y-18173810D01*
G01X59356629Y-18182056D01*
G01X59370687Y-18187277D01*
G01X59385560Y-18189206D01*
G01X59400485Y-18187743D01*
G01X59414700Y-18182965D01*
G01X59427478Y-18175114D01*
G01X59438165Y-18164593D01*
G01X59446215Y-18151939D01*
G01X59451215Y-18137801D01*
G01X59452911Y-18122900D01*
G01X59575299Y-18122900D01*
G01X59577226Y-18138770D01*
G01X59582895Y-18153718D01*
G01X59591976Y-18166874D01*
G01X59603942Y-18177475D01*
G01X59618098Y-18184905D01*
G01X59633620Y-18188731D01*
G01X59649606Y-18188731D01*
G01X59665128Y-18184905D01*
G01X59679284Y-18177475D01*
G01X59691250Y-18166874D01*
G01X59700331Y-18153718D01*
G01X59706000Y-18138770D01*
G01X59707927Y-18122900D01*
G01X59706000Y-18107030D01*
G01X59700331Y-18092082D01*
G01X59691250Y-18078926D01*
G01X59679284Y-18068325D01*
G01X59665128Y-18060895D01*
G01X59649606Y-18057069D01*
G01X59633620Y-18057069D01*
G01X59618098Y-18060895D01*
G01X59603942Y-18068325D01*
G01X59591976Y-18078926D01*
G01X59582895Y-18092082D01*
G01X59577226Y-18107030D01*
G01X59575299Y-18122900D01*
G01X59575299Y-18122900D01*
G01X59452911Y-18122900D01*
G01X59451215Y-18107999D01*
G01X59446215Y-18093861D01*
G01X59438165Y-18081207D01*
G01X59427478Y-18070686D01*
G01X59414700Y-18062835D01*
G01X59400485Y-18058057D01*
G01X59385560Y-18056594D01*
G01X59370687Y-18058523D01*
G01X59356629Y-18063744D01*
G01X59344103Y-18071990D01*
G01X59331577Y-18063744D01*
G01X59317518Y-18058523D01*
G01X59302646Y-18056594D01*
G01X59287720Y-18058057D01*
G01X59273505Y-18062835D01*
G01X59260727Y-18070686D01*
G01X59250040Y-18081207D01*
G01X59241991Y-18093861D01*
G01X59236990Y-18107999D01*
G01X59235295Y-18122900D01*
G01X59235295Y-18122900D01*
G01X59231590Y-18122900D01*
G01X59233687Y-18117370D01*
G01X59235614Y-18101500D01*
G01X59233687Y-18085631D01*
G01X59228018Y-18070683D01*
G01X59218937Y-18057526D01*
G01X59206971Y-18046925D01*
G01X59192815Y-18039496D01*
G01X59177293Y-18035670D01*
G01X59161307Y-18035670D01*
G01X59145785Y-18039496D01*
G01X59131629Y-18046925D01*
G01X59119663Y-18057526D01*
G01X59110582Y-18070683D01*
G01X59104913Y-18085631D01*
G01X59102986Y-18101500D01*
G01X59102986Y-18101500D01*
G01X58455814Y-18101500D01*
G01X58455814Y-18008600D01*
G01X59649086Y-18008600D01*
G01X59651013Y-18024470D01*
G01X59656682Y-18039418D01*
G01X59665763Y-18052574D01*
G01X59677729Y-18063175D01*
G01X59691885Y-18070605D01*
G01X59707407Y-18074431D01*
G01X59723393Y-18074431D01*
G01X59738915Y-18070605D01*
G01X59753071Y-18063175D01*
G01X59765037Y-18052574D01*
G01X59774118Y-18039418D01*
G01X59779787Y-18024470D01*
G01X59781714Y-18008600D01*
G01X59779787Y-17992730D01*
G01X59774118Y-17977782D01*
G01X59765037Y-17964626D01*
G01X59753071Y-17954025D01*
G01X59738915Y-17946595D01*
G01X59723393Y-17942769D01*
G01X59707407Y-17942769D01*
G01X59691885Y-17946595D01*
G01X59677729Y-17954025D01*
G01X59665763Y-17964626D01*
G01X59656682Y-17977782D01*
G01X59651013Y-17992730D01*
G01X59649086Y-18008600D01*
G01X59649086Y-18008600D01*
G01X58455814Y-18008600D01*
G01X58455814Y-17729200D01*
G01X60039776Y-17729200D01*
G01X60041703Y-17745070D01*
G01X60047372Y-17760018D01*
G01X60056453Y-17773174D01*
G01X60068419Y-17783775D01*
G01X60082575Y-17791205D01*
G01X60098097Y-17795031D01*
G01X60114083Y-17795031D01*
G01X60129605Y-17791205D01*
G01X60143761Y-17783775D01*
G01X60155727Y-17773174D01*
G01X60164808Y-17760018D01*
G01X60170477Y-17745070D01*
G01X60172404Y-17729200D01*
G01X60170477Y-17713330D01*
G01X60164808Y-17698382D01*
G01X60155727Y-17685226D01*
G01X60143761Y-17674625D01*
G01X60129605Y-17667195D01*
G01X60114083Y-17663369D01*
G01X60098097Y-17663369D01*
G01X60082575Y-17667195D01*
G01X60068419Y-17674625D01*
G01X60056453Y-17685226D01*
G01X60047372Y-17698382D01*
G01X60041703Y-17713330D01*
G01X60039776Y-17729200D01*
G01X60039776Y-17729200D01*
G01X58455814Y-17729200D01*
G01X58455814Y-17629944D01*
G01X59424325Y-17629944D01*
G01X59425817Y-17645489D01*
G01X59430904Y-17660255D01*
G01X59439304Y-17673422D01*
G01X59450549Y-17684259D01*
G01X59464017Y-17692165D01*
G01X59478961Y-17696703D01*
G01X59494551Y-17697620D01*
G01X59509924Y-17694865D01*
G01X59524226Y-17688592D01*
G01X59536664Y-17679147D01*
G01X59546549Y-17667056D01*
G01X59553326Y-17653000D01*
G01X60198196Y-17653000D01*
G01X60200123Y-17668870D01*
G01X60205792Y-17683818D01*
G01X60214873Y-17696974D01*
G01X60226839Y-17707575D01*
G01X60240995Y-17715005D01*
G01X60256517Y-17718831D01*
G01X60272503Y-17718831D01*
G01X60288025Y-17715005D01*
G01X60302181Y-17707575D01*
G01X60314147Y-17696974D01*
G01X60323228Y-17683818D01*
G01X60328897Y-17668870D01*
G01X60330824Y-17653000D01*
G01X60328897Y-17637130D01*
G01X60323228Y-17622182D01*
G01X60314147Y-17609026D01*
G01X60302181Y-17598425D01*
G01X60288025Y-17590995D01*
G01X60272503Y-17587169D01*
G01X60256517Y-17587169D01*
G01X60240995Y-17590995D01*
G01X60226839Y-17598425D01*
G01X60214873Y-17609026D01*
G01X60205792Y-17622182D01*
G01X60200123Y-17637130D01*
G01X60198196Y-17653000D01*
G01X60198196Y-17653000D01*
G01X59553326Y-17653000D01*
G01X59553331Y-17652989D01*
G01X59556636Y-17637725D01*
G01X59556279Y-17622111D01*
G01X59552281Y-17607015D01*
G01X59566289Y-17613919D01*
G01X59581524Y-17617357D01*
G01X59597139Y-17617136D01*
G01X59612271Y-17613269D01*
G01X59626078Y-17605971D01*
G01X59637795Y-17595646D01*
G01X59646773Y-17582867D01*
G01X59652513Y-17568342D01*
G01X59654698Y-17552879D01*
G01X59653205Y-17537333D01*
G01X59648118Y-17522567D01*
G01X59639719Y-17509400D01*
G01X59639719Y-17509400D01*
G01X59628473Y-17498563D01*
G01X59615005Y-17490657D01*
G01X59600061Y-17486119D01*
G01X59584471Y-17485202D01*
G01X59569098Y-17487957D01*
G01X59554796Y-17494231D01*
G01X59542358Y-17503675D01*
G01X59532474Y-17515766D01*
G01X59525691Y-17529834D01*
G01X59522386Y-17545097D01*
G01X59522743Y-17560711D01*
G01X59526741Y-17575808D01*
G01X59512733Y-17568903D01*
G01X59497499Y-17565466D01*
G01X59481883Y-17565686D01*
G01X59466752Y-17569553D01*
G01X59452944Y-17576852D01*
G01X59441227Y-17587177D01*
G01X59432249Y-17599956D01*
G01X59426509Y-17614480D01*
G01X59424325Y-17629944D01*
G01X58455814Y-17629944D01*
G01X58455814Y-17513300D01*
G01X58454638Y-17501358D01*
G01X58451154Y-17489874D01*
G01X58445498Y-17479291D01*
G01X58437885Y-17470015D01*
G01X58406367Y-17438498D01*
G01X58422119Y-17439880D01*
G01X58437750Y-17437494D01*
G01X58452371Y-17431476D01*
G01X58465153Y-17422167D01*
G01X58475367Y-17410097D01*
G01X58482433Y-17395952D01*
G01X58485950Y-17380536D01*
G01X58485718Y-17364726D01*
G01X58481749Y-17349420D01*
G01X58496349Y-17351014D01*
G01X58510942Y-17349355D01*
G01X58524811Y-17344524D01*
G01X58537278Y-17336759D01*
G01X58547729Y-17326441D01*
G01X58555653Y-17314075D01*
G01X58560584Y-17300478D01*
G01X59433257Y-17300478D01*
G01X59435860Y-17316041D01*
G01X59442066Y-17330549D01*
G01X59451523Y-17343179D01*
G01X59463697Y-17353218D01*
G01X59477897Y-17360097D01*
G01X59464319Y-17367319D01*
G01X59452770Y-17377476D01*
G01X59443870Y-17390019D01*
G01X59438100Y-17404276D01*
G01X59435769Y-17419478D01*
G01X59437002Y-17434808D01*
G01X59441734Y-17449442D01*
G01X59449710Y-17462592D01*
G01X59460500Y-17473551D01*
G01X59473525Y-17481730D01*
G01X59488084Y-17486689D01*
G01X59503393Y-17488160D01*
G01X59518630Y-17486065D01*
G01X59532974Y-17480517D01*
G01X59545654Y-17471814D01*
G01X59555988Y-17460423D01*
G01X59563421Y-17446959D01*
G01X59567552Y-17432144D01*
G01X59568159Y-17416776D01*
G01X59565209Y-17401681D01*
G01X59558862Y-17387672D01*
G01X59549459Y-17375502D01*
G01X59537504Y-17365826D01*
G01X59523643Y-17359163D01*
G01X59535013Y-17353403D01*
G01X59545072Y-17345574D01*
G01X59555363Y-17358118D01*
G01X59568392Y-17367787D01*
G01X59583379Y-17374002D01*
G01X59599427Y-17376393D01*
G01X59615574Y-17374815D01*
G01X59630856Y-17369363D01*
G01X59644356Y-17360364D01*
G01X59655267Y-17348356D01*
G01X59662935Y-17334058D01*
G01X59666902Y-17318325D01*
G01X59666930Y-17302101D01*
G01X59663017Y-17286355D01*
G01X59655398Y-17272030D01*
G01X59644528Y-17259985D01*
G01X59631059Y-17250939D01*
G01X59615796Y-17245435D01*
G01X59599654Y-17243802D01*
G01X59583598Y-17246137D01*
G01X59568590Y-17252302D01*
G01X59555528Y-17261926D01*
G01X59545561Y-17249693D01*
G01X59532986Y-17240162D01*
G01X59518516Y-17233871D01*
G01X59502968Y-17231177D01*
G01X59487225Y-17232232D01*
G01X59472176Y-17236977D01*
G01X59458674Y-17245143D01*
G01X59447484Y-17256267D01*
G01X59447484Y-17256267D01*
G01X59439239Y-17269721D01*
G01X59434405Y-17284741D01*
G01X59433257Y-17300478D01*
G01X58560584Y-17300478D01*
G01X58560661Y-17300268D01*
G01X58562507Y-17285698D01*
G01X58561100Y-17271078D01*
G01X58556510Y-17257127D01*
G01X58548962Y-17244528D01*
G01X58538825Y-17233900D01*
G01X58549849Y-17222079D01*
G01X58557685Y-17207942D01*
G01X58561869Y-17192330D01*
G01X58562151Y-17176169D01*
G01X58558515Y-17160420D01*
G01X58551177Y-17146018D01*
G01X58540573Y-17133819D01*
G01X58527333Y-17124548D01*
G01X58512243Y-17118756D01*
G01X58496200Y-17116786D01*
G01X58480157Y-17118756D01*
G01X58465067Y-17124548D01*
G01X58451827Y-17133819D01*
G01X58441223Y-17146018D01*
G01X58433885Y-17160420D01*
G01X58430249Y-17176169D01*
G01X58430531Y-17192330D01*
G01X58434715Y-17207942D01*
G01X58442551Y-17222079D01*
G01X58453575Y-17233900D01*
G01X58444017Y-17243779D01*
G01X58436702Y-17255416D01*
G01X58431943Y-17268311D01*
G01X58429945Y-17281911D01*
G01X58430793Y-17295630D01*
G01X58434451Y-17308880D01*
G01X58419850Y-17307286D01*
G01X58405256Y-17308946D01*
G01X58391385Y-17313777D01*
G01X58378918Y-17321544D01*
G01X58368467Y-17331864D01*
G01X58360544Y-17344232D01*
G01X58355537Y-17358040D01*
G01X58353693Y-17372612D01*
G01X58355102Y-17387233D01*
G01X58056932Y-17089063D01*
G01X58056932Y-16786860D01*
G01X59453506Y-16786860D01*
G01X59455433Y-16802730D01*
G01X59461102Y-16817678D01*
G01X59470183Y-16830834D01*
G01X59482149Y-16841435D01*
G01X59496305Y-16848865D01*
G01X59511827Y-16852691D01*
G01X59527813Y-16852691D01*
G01X59543335Y-16848865D01*
G01X59557491Y-16841435D01*
G01X59569457Y-16830834D01*
G01X59578538Y-16817678D01*
G01X59584207Y-16802730D01*
G01X59586134Y-16786860D01*
G01X59584207Y-16770990D01*
G01X59578538Y-16756042D01*
G01X59569457Y-16742886D01*
G01X59557491Y-16732285D01*
G01X59543335Y-16724855D01*
G01X59527813Y-16721029D01*
G01X59511827Y-16721029D01*
G01X59496305Y-16724855D01*
G01X59482149Y-16732285D01*
G01X59470183Y-16742886D01*
G01X59461102Y-16756042D01*
G01X59455433Y-16770990D01*
G01X59453506Y-16786860D01*
G01X59453506Y-16786860D01*
G01X58056932Y-16786860D01*
G01X58056932Y-16619220D01*
G01X59450966Y-16619220D01*
G01X59452893Y-16635090D01*
G01X59458562Y-16650038D01*
G01X59467643Y-16663194D01*
G01X59479609Y-16673795D01*
G01X59493765Y-16681225D01*
G01X59509287Y-16685051D01*
G01X59525273Y-16685051D01*
G01X59540795Y-16681225D01*
G01X59554951Y-16673795D01*
G01X59566917Y-16663194D01*
G01X59575998Y-16650038D01*
G01X59581667Y-16635090D01*
G01X59583594Y-16619220D01*
G01X59581667Y-16603350D01*
G01X59575998Y-16588402D01*
G01X59566917Y-16575246D01*
G01X59554951Y-16564645D01*
G01X59540795Y-16557215D01*
G01X59525273Y-16553389D01*
G01X59509287Y-16553389D01*
G01X59493765Y-16557215D01*
G01X59479609Y-16564645D01*
G01X59467643Y-16575246D01*
G01X59458562Y-16588402D01*
G01X59452893Y-16603350D01*
G01X59450966Y-16619220D01*
G01X59450966Y-16619220D01*
G01X58056932Y-16619220D01*
G01X58056932Y-16360114D01*
G01X58556934Y-16360114D01*
G01X58559248Y-16375143D01*
G01X58564926Y-16389250D01*
G01X58573668Y-16401692D01*
G01X58585014Y-16411816D01*
G01X58573668Y-16421940D01*
G01X58564926Y-16434383D01*
G01X58559248Y-16448490D01*
G01X58556934Y-16463519D01*
G01X58558103Y-16478680D01*
G01X58562696Y-16493177D01*
G01X58570470Y-16506246D01*
G01X58581017Y-16517200D01*
G01X58593782Y-16525464D01*
G01X58608094Y-16530603D01*
G01X58623200Y-16532347D01*
G01X58623200Y-16532347D01*
G01X58638306Y-16530603D01*
G01X58652618Y-16525464D01*
G01X58665383Y-16517200D01*
G01X58675930Y-16506246D01*
G01X58683704Y-16493177D01*
G01X58688297Y-16478680D01*
G01X58689466Y-16463519D01*
G01X58687152Y-16448490D01*
G01X58681474Y-16434383D01*
G01X58672732Y-16421940D01*
G01X58661386Y-16411816D01*
G01X58672732Y-16401692D01*
G01X58681474Y-16389250D01*
G01X58687152Y-16375143D01*
G01X58689466Y-16360114D01*
G01X58688297Y-16344952D01*
G01X58688280Y-16344900D01*
G01X59382386Y-16344900D01*
G01X59384313Y-16360770D01*
G01X59389982Y-16375718D01*
G01X59399063Y-16388874D01*
G01X59411029Y-16399475D01*
G01X59425185Y-16406905D01*
G01X59440707Y-16410731D01*
G01X59456693Y-16410731D01*
G01X59472215Y-16406905D01*
G01X59475216Y-16405330D01*
G01X59890457Y-16405330D01*
G01X59891674Y-16421405D01*
G01X59896733Y-16436712D01*
G01X59905337Y-16450345D01*
G01X59916977Y-16461500D01*
G01X59930964Y-16469516D01*
G01X59946472Y-16473921D01*
G01X59962584Y-16474452D01*
G01X59978349Y-16471081D01*
G01X59992834Y-16464005D01*
G01X60005184Y-16453642D01*
G01X60014668Y-16440606D01*
G01X60020727Y-16425666D01*
G01X60023001Y-16409706D01*
G01X60031239Y-16423564D01*
G01X60042577Y-16435024D01*
G01X60056346Y-16443410D01*
G01X60071732Y-16448225D01*
G01X60087824Y-16449186D01*
G01X60103673Y-16446235D01*
G01X60118342Y-16439547D01*
G01X60130963Y-16429516D01*
G01X60140791Y-16416737D01*
G01X60147245Y-16401964D01*
G01X60149943Y-16386070D01*
G01X60148726Y-16369995D01*
G01X60143667Y-16354688D01*
G01X60135063Y-16341055D01*
G01X60123423Y-16329900D01*
G01X60109436Y-16321884D01*
G01X60093928Y-16317479D01*
G01X60077816Y-16316948D01*
G01X60062051Y-16320319D01*
G01X60047566Y-16327395D01*
G01X60035216Y-16337758D01*
G01X60025732Y-16350794D01*
G01X60019673Y-16365734D01*
G01X60017399Y-16381694D01*
G01X60017399Y-16381694D01*
G01X60009161Y-16367836D01*
G01X59997823Y-16356376D01*
G01X59984054Y-16347990D01*
G01X59968668Y-16343175D01*
G01X59952576Y-16342214D01*
G01X59936727Y-16345165D01*
G01X59922058Y-16351853D01*
G01X59909437Y-16361884D01*
G01X59899609Y-16374663D01*
G01X59893155Y-16389436D01*
G01X59890457Y-16405330D01*
G01X59475216Y-16405330D01*
G01X59486371Y-16399475D01*
G01X59498337Y-16388874D01*
G01X59507418Y-16375718D01*
G01X59513087Y-16360770D01*
G01X59515014Y-16344900D01*
G01X59513087Y-16329030D01*
G01X59507418Y-16314082D01*
G01X59498337Y-16300926D01*
G01X59486371Y-16290325D01*
G01X59472215Y-16282895D01*
G01X59456693Y-16279069D01*
G01X59440707Y-16279069D01*
G01X59425185Y-16282895D01*
G01X59411029Y-16290325D01*
G01X59399063Y-16300926D01*
G01X59389982Y-16314082D01*
G01X59384313Y-16329030D01*
G01X59382386Y-16344900D01*
G01X59382386Y-16344900D01*
G01X58688280Y-16344900D01*
G01X58683704Y-16330456D01*
G01X58675930Y-16317387D01*
G01X58665383Y-16306432D01*
G01X58652618Y-16298168D01*
G01X58638306Y-16293029D01*
G01X58623200Y-16291286D01*
G01X58608094Y-16293029D01*
G01X58593782Y-16298168D01*
G01X58581017Y-16306432D01*
G01X58570470Y-16317387D01*
G01X58562696Y-16330456D01*
G01X58558103Y-16344952D01*
G01X58556934Y-16360114D01*
G01X58056932Y-16360114D01*
G01X58056932Y-16171216D01*
G01X58060745Y-16158717D01*
G01X58062032Y-16145713D01*
G01X58060745Y-16132709D01*
G01X58056932Y-16120210D01*
G01X58056932Y-16057937D01*
G01X58115156Y-15999714D01*
G01X58245442Y-15999714D01*
G01X58240701Y-16014258D01*
G01X58239419Y-16029501D01*
G01X58241664Y-16044633D01*
G01X58247317Y-16058847D01*
G01X58256076Y-16071388D01*
G01X58267475Y-16081589D01*
G01X58280909Y-16088906D01*
G01X58295662Y-16092950D01*
G01X58310949Y-16093506D01*
G01X58300886Y-16105581D01*
G01X58293947Y-16119685D01*
G01X58290523Y-16135026D01*
G01X58290805Y-16150742D01*
G01X58294779Y-16165950D01*
G01X58302220Y-16179795D01*
G01X58286602Y-16182513D01*
G01X58272075Y-16188861D01*
G01X58259470Y-16198474D01*
G01X58249507Y-16210805D01*
G01X58242755Y-16225148D01*
G01X58239601Y-16240684D01*
G01X58240224Y-16256524D01*
G01X58244588Y-16271765D01*
G01X58252445Y-16285533D01*
G01X58263346Y-16297044D01*
G01X58276666Y-16305638D01*
G01X58291646Y-16310826D01*
G01X58307430Y-16312309D01*
G01X58323114Y-16310005D01*
G01X58337803Y-16304043D01*
G01X58350658Y-16294766D01*
G01X58360943Y-16282702D01*
G01X58368071Y-16268543D01*
G01X58371635Y-16253096D01*
G01X58371431Y-16237244D01*
G01X58369949Y-16231502D01*
G01X59280786Y-16231502D01*
G01X59282713Y-16247372D01*
G01X59288382Y-16262319D01*
G01X59297463Y-16275476D01*
G01X59309429Y-16286077D01*
G01X59323585Y-16293506D01*
G01X59339107Y-16297332D01*
G01X59355093Y-16297332D01*
G01X59370615Y-16293506D01*
G01X59384771Y-16286077D01*
G01X59396737Y-16275476D01*
G01X59405818Y-16262319D01*
G01X59411487Y-16247372D01*
G01X59413414Y-16231502D01*
G01X59411487Y-16215632D01*
G01X59405818Y-16200684D01*
G01X59396737Y-16187527D01*
G01X59384771Y-16176926D01*
G01X59370615Y-16169497D01*
G01X59355093Y-16165671D01*
G01X59339107Y-16165671D01*
G01X59323585Y-16169497D01*
G01X59309429Y-16176926D01*
G01X59297463Y-16187527D01*
G01X59288382Y-16200684D01*
G01X59282713Y-16215632D01*
G01X59280786Y-16231502D01*
G01X59280786Y-16231502D01*
G01X58369949Y-16231502D01*
G01X58367471Y-16221894D01*
G01X58359980Y-16207923D01*
G01X58374750Y-16205453D01*
G01X58388590Y-16199733D01*
G01X58400793Y-16191052D01*
G01X58410738Y-16179855D01*
G01X58417916Y-16166712D01*
G01X58421962Y-16152294D01*
G01X58422670Y-16137335D01*
G01X58420004Y-16122599D01*
G01X58414098Y-16108837D01*
G01X58405256Y-16096751D01*
G01X58393927Y-16086957D01*
G01X58380689Y-16079955D01*
G01X58366218Y-16076102D01*
G01X58351251Y-16075594D01*
G01X58360198Y-16065183D01*
G01X58366810Y-16053152D01*
G01X58370803Y-16040018D01*
G01X58372006Y-16026344D01*
G01X58370367Y-16012714D01*
G01X58365958Y-15999714D01*
G01X59367464Y-15999714D01*
G01X59628682Y-16260932D01*
G01X59636665Y-16275088D01*
G01X59647852Y-16286877D01*
G01X59661570Y-16295591D01*
G01X59676996Y-16300707D01*
G01X59693203Y-16301917D01*
G01X59709217Y-16299148D01*
G01X59724078Y-16292568D01*
G01X59736891Y-16282571D01*
G01X59746888Y-16269758D01*
G01X59753468Y-16254897D01*
G01X59756237Y-16238883D01*
G01X59755027Y-16222676D01*
G01X59749911Y-16207250D01*
G01X59741197Y-16193532D01*
G01X59729408Y-16182345D01*
G01X59715252Y-16174362D01*
G01X59642436Y-16101546D01*
G01X59763418Y-16101546D01*
G01X59764903Y-16117704D01*
G01X59770268Y-16133018D01*
G01X59779192Y-16146570D01*
G01X59791139Y-16157550D01*
G01X59805395Y-16165300D01*
G01X59821107Y-16169355D01*
G01X59837333Y-16169473D01*
G01X59837333Y-16169473D01*
G01X59830329Y-16184110D01*
G01X59827089Y-16200010D01*
G01X59827808Y-16216221D01*
G01X59832442Y-16231771D01*
G01X59840714Y-16245731D01*
G01X59852128Y-16257264D01*
G01X59866001Y-16265680D01*
G01X59881503Y-16270474D01*
G01X59897705Y-16271361D01*
G01X59913638Y-16268286D01*
G01X59928346Y-16261434D01*
G01X59940951Y-16251215D01*
G01X59950696Y-16238242D01*
G01X59956999Y-16223289D01*
G01X59959482Y-16207254D01*
G01X59957997Y-16191096D01*
G01X59952632Y-16175782D01*
G01X59943708Y-16162230D01*
G01X59931761Y-16151250D01*
G01X59917505Y-16143500D01*
G01X59901793Y-16139445D01*
G01X59885567Y-16139327D01*
G01X59892571Y-16124690D01*
G01X59895811Y-16108790D01*
G01X59895092Y-16092579D01*
G01X59890458Y-16077029D01*
G01X59882186Y-16063069D01*
G01X59870772Y-16051536D01*
G01X59856899Y-16043120D01*
G01X59841397Y-16038326D01*
G01X59825195Y-16037439D01*
G01X59809262Y-16040514D01*
G01X59794554Y-16047366D01*
G01X59781949Y-16057585D01*
G01X59772204Y-16070558D01*
G01X59765901Y-16085511D01*
G01X59763418Y-16101546D01*
G01X59642436Y-16101546D01*
G01X59540604Y-15999714D01*
G01X60268605Y-15999714D01*
G01X60347650Y-16078759D01*
G01X60319815Y-16106594D01*
G01X60312202Y-16115870D01*
G01X60306546Y-16126453D01*
G01X60303062Y-16137937D01*
G01X60301886Y-16149879D01*
G01X60301886Y-17494364D01*
G01X60303062Y-17506307D01*
G01X60306546Y-17517790D01*
G01X60312202Y-17528373D01*
G01X60319815Y-17537649D01*
G01X60778857Y-17996691D01*
G01X60778962Y-17996943D01*
G01X60778962Y-18054850D01*
G01X60765657Y-18049219D01*
G01X60751449Y-18046602D01*
G01X60737011Y-18047125D01*
G01X60723029Y-18050762D01*
G01X60710167Y-18057341D01*
G01X60699034Y-18066549D01*
G01X60699034Y-18066549D01*
G01X60684829Y-18058757D01*
G01X60669158Y-18054643D01*
G01X60652958Y-18054451D01*
G01X60637194Y-18058194D01*
G01X60622809Y-18065647D01*
G01X60610660Y-18076367D01*
G01X60601473Y-18089712D01*
G01X60601473Y-18089712D01*
G01X60589805Y-18080042D01*
G01X60576247Y-18073273D01*
G01X60561505Y-18069759D01*
G01X60546351Y-18069683D01*
G01X60531576Y-18073050D01*
G01X60517950Y-18079684D01*
G01X60506187Y-18089237D01*
G01X60496899Y-18101212D01*
G01X60490572Y-18114982D01*
G01X60487537Y-18129830D01*
G01X60487952Y-18144978D01*
G01X60491796Y-18159637D01*
G01X60498867Y-18173041D01*
G01X60508796Y-18184489D01*
G01X60521065Y-18193384D01*
G01X60535033Y-18199262D01*
G01X60549971Y-18201815D01*
G01X60565098Y-18200910D01*
G01X60579625Y-18196594D01*
G01X60592792Y-18189093D01*
G01X60603913Y-18178799D01*
G01X60612407Y-18166248D01*
G01X60612407Y-18166248D01*
G01X60624103Y-18175937D01*
G01X60637698Y-18182711D01*
G01X60652477Y-18186213D01*
G01X60667665Y-18186262D01*
G01X60682466Y-18182853D01*
G01X60696103Y-18176166D01*
G01X60707860Y-18166551D01*
G01X60720949Y-18173886D01*
G01X60735352Y-18178091D01*
G01X60750331Y-18178950D01*
G01X60765120Y-18176420D01*
G01X60778962Y-18170630D01*
G01X60778962Y-18179269D01*
G01X60756844Y-18201386D01*
G01X60666764Y-18201386D01*
G01X60654822Y-18202562D01*
G01X60643339Y-18206046D01*
G01X60632756Y-18211702D01*
G01X60623480Y-18219315D01*
G01X60553411Y-18289384D01*
G01X60546046Y-18275544D01*
G01X60535637Y-18263820D01*
G01X60522767Y-18254867D01*
G01X60508155Y-18249186D01*
G01X60492617Y-18247094D01*
G01X60477023Y-18248708D01*
G01X60462243Y-18253937D01*
G01X60449104Y-18262490D01*
G01X60436578Y-18254244D01*
G01X60422520Y-18249023D01*
G01X60407647Y-18247094D01*
G01X60392722Y-18248557D01*
G01X60378507Y-18253335D01*
G01X60365729Y-18261186D01*
G01X60355042Y-18271707D01*
G01X60346992Y-18284361D01*
G01X60341992Y-18298499D01*
G01X60340296Y-18313400D01*
G01X60341992Y-18328301D01*
G01X60346992Y-18342439D01*
G01X60355042Y-18355093D01*
G01X60365729Y-18365614D01*
G01X60378507Y-18373465D01*
G01X60392722Y-18378243D01*
G01X60407647Y-18379706D01*
G01X60422520Y-18377777D01*
G01X60436578Y-18372556D01*
G01X60449104Y-18364310D01*
G01X60449104Y-18364310D01*
G01X60457900Y-18370513D01*
G01X60467582Y-18375212D01*
G01X60467582Y-18375212D01*
G01X60147348Y-18695446D01*
G01X60135843Y-18701570D01*
G01X60125757Y-18709825D01*
G01X60117481Y-18719894D01*
G01X60111334Y-18731387D01*
G01X60107554Y-18743861D01*
G01X60106286Y-18756832D01*
G01X60107580Y-18769802D01*
G01X60111386Y-18782267D01*
G01X60111386Y-19059505D01*
G01X60112562Y-19071447D01*
G01X60116046Y-19082931D01*
G01X60121702Y-19093514D01*
G01X60129315Y-19102790D01*
G01X60129315Y-19102790D01*
G01X60283965Y-19257440D01*
G01X60291721Y-19271286D01*
G01X60302545Y-19282893D01*
G01X60315817Y-19291596D01*
G01X60330777Y-19296896D01*
G01X60346568Y-19298490D01*
G01X60592868Y-19544790D01*
G01X60602389Y-19552096D01*
G01X60613477Y-19556688D01*
G01X60625376Y-19558255D01*
G01X60912209Y-19558255D01*
G01X60922653Y-19567079D01*
G01X60934685Y-19573573D01*
G01X60947793Y-19577462D01*
G01X60961420Y-19578580D01*
G01X60974986Y-19576880D01*
G01X60974986Y-20650200D01*
G01X60976162Y-20662142D01*
G01X60979646Y-20673626D01*
G01X60985302Y-20684209D01*
G01X60992915Y-20693485D01*
G01X61101986Y-20802556D01*
G01X61101986Y-21067502D01*
G01X61101986Y-21067502D01*
G01X61088864Y-21059650D01*
G01X61074293Y-21055012D01*
G01X61059047Y-21053835D01*
G01X61068193Y-21041561D01*
G01X61074281Y-21027518D01*
G01X61076986Y-21012452D01*
G01X61076166Y-20997167D01*
G01X61071863Y-20982478D01*
G01X61064307Y-20969167D01*
G01X61053900Y-20957942D01*
G01X61041197Y-20949403D01*
G01X61026874Y-20944004D01*
G01X61011695Y-20942032D01*
G01X60996469Y-20943593D01*
G01X60982005Y-20948604D01*
G01X60969076Y-20956797D01*
G01X60958370Y-20967736D01*
G01X60950457Y-20980839D01*
G01X60945759Y-20995407D01*
G01X60944527Y-21010664D01*
G01X60946825Y-21025797D01*
G01X60933047Y-21032823D01*
G01X60921272Y-21042851D01*
G01X60912139Y-21055333D01*
G01X60906146Y-21069591D01*
G01X60903619Y-21084849D01*
G01X60904695Y-21100278D01*
G01X60909316Y-21115038D01*
G01X60917229Y-21128326D01*
G01X60928006Y-21139420D01*
G01X60941059Y-21147716D01*
G01X60955679Y-21152762D01*
G01X60971070Y-21154285D01*
G01X60986396Y-21152201D01*
G01X61000821Y-21146624D01*
G01X61005466Y-21155406D01*
G01X61005466Y-21155406D01*
G01X60249609Y-21155406D01*
G01X60061673Y-20967469D01*
G01X60053689Y-20953313D01*
G01X60042503Y-20941524D01*
G01X60028784Y-20932810D01*
G01X60013358Y-20927694D01*
G01X59997152Y-20926484D01*
G01X59981137Y-20929252D01*
G01X59966277Y-20935833D01*
G01X59953463Y-20945830D01*
G01X59953463Y-20945830D01*
G01X59943466Y-20958643D01*
G01X59936886Y-20973503D01*
G01X59934118Y-20989518D01*
G01X59935328Y-21005725D01*
G01X59940444Y-21021151D01*
G01X59949158Y-21034869D01*
G01X59960947Y-21046056D01*
G01X59975103Y-21054039D01*
G01X60180969Y-21259905D01*
G01X60190245Y-21267518D01*
G01X60200828Y-21273174D01*
G01X60212311Y-21276658D01*
G01X60224254Y-21277834D01*
G01X61119917Y-21277834D01*
G01X61134119Y-21281964D01*
G01X61148883Y-21282844D01*
G01X61163475Y-21280429D01*
G01X61156944Y-21299860D01*
G01X61154105Y-21320161D01*
G01X61155054Y-21340638D01*
G01X61159758Y-21360590D01*
G01X61168056Y-21379334D01*
G01X61179665Y-21396228D01*
G01X61194187Y-21410696D01*
G01X61211125Y-21422241D01*
G01X61229901Y-21430469D01*
G01X61249870Y-21435097D01*
G01X61270350Y-21435969D01*
G01X61290640Y-21433053D01*
G01X61310047Y-21426450D01*
G01X61327904Y-21416385D01*
G01X61343603Y-21403203D01*
G01X61356605Y-21387355D01*
G01X61366465Y-21369384D01*
G01X61372847Y-21349904D01*
G01X61375531Y-21329581D01*
G01X61374426Y-21309112D01*
G01X61369570Y-21289197D01*
G01X61361129Y-21270517D01*
G01X61349391Y-21253711D01*
G01X61334759Y-21239355D01*
G01X61317733Y-21227940D01*
G01X61298895Y-21219856D01*
G01X61278891Y-21215380D01*
G01X61258405Y-21214665D01*
G01X61238137Y-21217735D01*
G01X61218782Y-21224487D01*
G01X61222990Y-21211969D01*
G01X61224414Y-21198840D01*
G01X61224414Y-21038820D01*
G01X61287386Y-21038820D01*
G01X61289313Y-21054690D01*
G01X61294982Y-21069638D01*
G01X61304063Y-21082794D01*
G01X61316029Y-21093395D01*
G01X61330185Y-21100825D01*
G01X61345707Y-21104651D01*
G01X61361693Y-21104651D01*
G01X61377215Y-21100825D01*
G01X61391371Y-21093395D01*
G01X61403337Y-21082794D01*
G01X61412418Y-21069638D01*
G01X61418087Y-21054690D01*
G01X61420014Y-21038820D01*
G01X61418087Y-21022950D01*
G01X61412418Y-21008002D01*
G01X61403337Y-20994846D01*
G01X61391371Y-20984245D01*
G01X61377215Y-20976815D01*
G01X61361693Y-20972989D01*
G01X61345707Y-20972989D01*
G01X61330185Y-20976815D01*
G01X61316029Y-20984245D01*
G01X61304063Y-20994846D01*
G01X61294982Y-21008002D01*
G01X61289313Y-21022950D01*
G01X61287386Y-21038820D01*
G01X61287386Y-21038820D01*
G01X61224414Y-21038820D01*
G01X61224414Y-20777200D01*
G01X61223238Y-20765258D01*
G01X61219754Y-20753774D01*
G01X61214098Y-20743191D01*
G01X61206485Y-20733915D01*
G01X61191777Y-20719207D01*
G01X61300086Y-20719207D01*
G01X61302013Y-20735077D01*
G01X61307682Y-20750025D01*
G01X61316763Y-20763181D01*
G01X61328729Y-20773782D01*
G01X61342885Y-20781212D01*
G01X61358407Y-20785038D01*
G01X61374393Y-20785038D01*
G01X61389915Y-20781212D01*
G01X61404071Y-20773782D01*
G01X61416037Y-20763181D01*
G01X61425118Y-20750025D01*
G01X61430787Y-20735077D01*
G01X61432714Y-20719207D01*
G01X61430787Y-20703337D01*
G01X61425118Y-20688389D01*
G01X61416037Y-20675233D01*
G01X61404071Y-20664632D01*
G01X61389915Y-20657202D01*
G01X61374393Y-20653376D01*
G01X61358407Y-20653376D01*
G01X61342885Y-20657202D01*
G01X61328729Y-20664632D01*
G01X61316763Y-20675233D01*
G01X61307682Y-20688389D01*
G01X61302013Y-20703337D01*
G01X61300086Y-20719207D01*
G01X61300086Y-20719207D01*
G01X61191777Y-20719207D01*
G01X61097414Y-20624844D01*
G01X61097414Y-20480752D01*
G01X61101096Y-20495651D01*
G01X61108103Y-20509304D01*
G01X61118062Y-20520981D01*
G01X61130438Y-20530056D01*
G01X61144569Y-20536043D01*
G01X61159698Y-20538622D01*
G01X61175014Y-20537653D01*
G01X61189698Y-20533190D01*
G01X61202962Y-20525471D01*
G01X61214097Y-20514909D01*
G01X61222506Y-20502071D01*
G01X61227738Y-20487644D01*
G01X61229514Y-20472400D01*
G01X61227738Y-20457156D01*
G01X61222506Y-20442729D01*
G01X61214097Y-20429891D01*
G01X61202962Y-20419329D01*
G01X61189698Y-20411610D01*
G01X61175014Y-20407147D01*
G01X61159698Y-20406178D01*
G01X61144569Y-20408757D01*
G01X61130438Y-20414744D01*
G01X61118062Y-20423819D01*
G01X61108103Y-20435496D01*
G01X61101096Y-20449149D01*
G01X61097414Y-20464048D01*
G01X61097414Y-20201699D01*
G01X61140086Y-20201699D01*
G01X61140086Y-20354099D01*
G01X61141839Y-20365167D01*
G01X61146926Y-20375150D01*
G01X61154849Y-20383074D01*
G01X61164833Y-20388161D01*
G01X61175900Y-20389913D01*
G01X61328300Y-20389913D01*
G01X61339367Y-20388161D01*
G01X61349351Y-20383074D01*
G01X61357274Y-20375150D01*
G01X61362361Y-20365167D01*
G01X61364114Y-20354099D01*
G01X61364114Y-20201699D01*
G01X61364114Y-20201699D01*
G01X61362361Y-20190632D01*
G01X61357274Y-20180649D01*
G01X61349351Y-20172725D01*
G01X61339367Y-20167638D01*
G01X61328300Y-20165885D01*
G01X61175900Y-20165885D01*
G01X61164833Y-20167638D01*
G01X61154849Y-20172725D01*
G01X61146926Y-20180649D01*
G01X61141839Y-20190632D01*
G01X61140086Y-20201699D01*
G01X61097414Y-20201699D01*
G01X61097414Y-20017552D01*
G01X61140564Y-20017552D01*
G01X61140564Y-20038223D01*
G01X61144362Y-20058541D01*
G01X61151829Y-20077816D01*
G01X61162711Y-20095391D01*
G01X61176637Y-20110667D01*
G01X61193132Y-20123124D01*
G01X61211636Y-20132337D01*
G01X61231517Y-20137994D01*
G01X61252100Y-20139901D01*
G01X61252100Y-20139901D01*
G01X61272683Y-20137994D01*
G01X61292564Y-20132337D01*
G01X61311068Y-20123124D01*
G01X61327563Y-20110667D01*
G01X61341489Y-20095391D01*
G01X61352371Y-20077816D01*
G01X61359838Y-20058541D01*
G01X61363636Y-20038223D01*
G01X61363636Y-20017552D01*
G01X61359838Y-19997233D01*
G01X61352371Y-19977958D01*
G01X61341489Y-19960384D01*
G01X61327563Y-19945108D01*
G01X61311068Y-19932651D01*
G01X61292564Y-19923437D01*
G01X61272683Y-19917781D01*
G01X61252100Y-19915873D01*
G01X61231517Y-19917781D01*
G01X61211636Y-19923437D01*
G01X61193132Y-19932651D01*
G01X61176637Y-19945108D01*
G01X61162711Y-19960384D01*
G01X61151829Y-19977958D01*
G01X61144362Y-19997233D01*
G01X61140564Y-20017552D01*
G01X61097414Y-20017552D01*
G01X61097414Y-19767565D01*
G01X61140564Y-19767565D01*
G01X61140564Y-19788236D01*
G01X61144362Y-19808555D01*
G01X61151829Y-19827829D01*
G01X61162711Y-19845404D01*
G01X61176637Y-19860680D01*
G01X61193132Y-19873137D01*
G01X61211636Y-19882350D01*
G01X61231517Y-19888007D01*
G01X61252100Y-19889914D01*
G01X61252100Y-19889914D01*
G01X61272683Y-19888007D01*
G01X61292564Y-19882350D01*
G01X61311068Y-19873137D01*
G01X61327563Y-19860680D01*
G01X61341489Y-19845404D01*
G01X61352371Y-19827829D01*
G01X61359838Y-19808555D01*
G01X61363636Y-19788236D01*
G01X61363636Y-19767565D01*
G01X61359838Y-19747246D01*
G01X61352371Y-19727972D01*
G01X61341489Y-19710397D01*
G01X61327563Y-19695121D01*
G01X61311068Y-19682664D01*
G01X61292564Y-19673451D01*
G01X61272683Y-19667794D01*
G01X61252100Y-19665886D01*
G01X61231517Y-19667794D01*
G01X61211636Y-19673451D01*
G01X61193132Y-19682664D01*
G01X61176637Y-19695121D01*
G01X61162711Y-19710397D01*
G01X61151829Y-19727972D01*
G01X61144362Y-19747246D01*
G01X61140564Y-19767565D01*
G01X61097414Y-19767565D01*
G01X61097414Y-18364200D01*
G01X61096238Y-18352258D01*
G01X61092754Y-18340774D01*
G01X61087098Y-18330191D01*
G01X61079485Y-18320915D01*
G01X61021214Y-18262644D01*
G01X61021214Y-18073898D01*
G01X61035327Y-18082188D01*
G01X61051041Y-18086768D01*
G01X61067398Y-18087360D01*
G01X61083402Y-18083928D01*
G01X61098077Y-18076680D01*
G01X61110531Y-18066059D01*
G01X61110531Y-18066059D01*
G01X61120003Y-18052711D01*
G01X61125918Y-18037449D01*
G01X61127914Y-18021204D01*
G01X61125870Y-18004964D01*
G01X61119912Y-17989720D01*
G01X61110400Y-17976399D01*
G01X61119830Y-17963228D01*
G01X61125786Y-17948164D01*
G01X61127911Y-17932106D01*
G01X61126080Y-17916011D01*
G01X61120402Y-17900841D01*
G01X61111215Y-17887499D01*
G01X61120002Y-17874912D01*
G01X61125660Y-17860642D01*
G01X61127885Y-17845453D01*
G01X61126558Y-17830159D01*
G01X61121750Y-17815581D01*
G01X61113719Y-17802498D01*
G01X61121610Y-17789715D01*
G01X61126422Y-17775484D01*
G01X61127907Y-17760536D01*
G01X61125990Y-17745636D01*
G01X61120768Y-17731551D01*
G01X61112510Y-17719002D01*
G01X61112510Y-17719002D01*
G01X61121010Y-17705969D01*
G01X61126240Y-17691314D01*
G01X61127911Y-17675845D01*
G01X61125931Y-17660411D01*
G01X61120409Y-17645864D01*
G01X61111650Y-17633004D01*
G01X61120207Y-17620528D01*
G01X61125715Y-17606438D01*
G01X61127885Y-17591465D01*
G01X61126605Y-17576391D01*
G01X61121943Y-17561999D01*
G01X61114139Y-17549038D01*
G01X61103601Y-17538183D01*
G01X61090878Y-17529999D01*
G01X61076630Y-17524912D01*
G01X61061600Y-17523186D01*
G01X61046570Y-17524912D01*
G01X61032322Y-17529999D01*
G01X61019599Y-17538183D01*
G01X61009061Y-17549038D01*
G01X61001257Y-17561999D01*
G01X60996595Y-17576391D01*
G01X60995315Y-17591465D01*
G01X60997485Y-17606438D01*
G01X61002993Y-17620528D01*
G01X61011550Y-17633004D01*
G01X61002791Y-17645864D01*
G01X60997269Y-17660411D01*
G01X60995289Y-17675845D01*
G01X60996960Y-17691314D01*
G01X61002190Y-17705969D01*
G01X61010690Y-17719002D01*
G01X61002432Y-17731551D01*
G01X60997210Y-17745636D01*
G01X60995293Y-17760536D01*
G01X60996778Y-17775484D01*
G01X61001590Y-17789715D01*
G01X61009481Y-17802498D01*
G01X61001450Y-17815581D01*
G01X60996642Y-17830159D01*
G01X60995315Y-17845453D01*
G01X60997540Y-17860642D01*
G01X61003198Y-17874912D01*
G01X61011985Y-17887499D01*
G01X61011985Y-17887499D01*
G01X61004516Y-17897750D01*
G01X60999135Y-17909236D01*
G01X60693211Y-17603312D01*
G01X60686652Y-17591161D01*
G01X60677720Y-17580632D01*
G01X60666801Y-17572181D01*
G01X60654368Y-17566174D01*
G01X60640961Y-17562873D01*
G01X60627160Y-17562419D01*
G01X60613565Y-17564833D01*
G01X60600765Y-17570009D01*
G01X60589314Y-17577725D01*
G01X60579709Y-17587645D01*
G01X60572366Y-17599338D01*
G01X60567604Y-17612299D01*
G01X60424314Y-17469009D01*
G01X60424314Y-17423689D01*
G01X61185075Y-17423689D01*
G01X61187002Y-17439559D01*
G01X61192671Y-17454507D01*
G01X61201753Y-17467664D01*
G01X61213719Y-17478265D01*
G01X61227874Y-17485694D01*
G01X61243396Y-17489520D01*
G01X61259383Y-17489520D01*
G01X61274905Y-17485694D01*
G01X61289060Y-17478265D01*
G01X61301026Y-17467664D01*
G01X61310107Y-17454507D01*
G01X61315776Y-17439559D01*
G01X61317703Y-17423689D01*
G01X61315776Y-17407819D01*
G01X61310107Y-17392872D01*
G01X61301026Y-17379715D01*
G01X61289060Y-17369114D01*
G01X61274905Y-17361685D01*
G01X61259383Y-17357859D01*
G01X61243396Y-17357859D01*
G01X61227874Y-17361685D01*
G01X61213719Y-17369114D01*
G01X61201753Y-17379715D01*
G01X61192671Y-17392872D01*
G01X61187002Y-17407819D01*
G01X61185075Y-17423689D01*
G01X61185075Y-17423689D01*
G01X60424314Y-17423689D01*
G01X60424314Y-17261840D01*
G01X60792086Y-17261840D01*
G01X60794013Y-17277710D01*
G01X60799682Y-17292658D01*
G01X60808763Y-17305814D01*
G01X60820729Y-17316415D01*
G01X60834885Y-17323845D01*
G01X60850407Y-17327671D01*
G01X60866393Y-17327671D01*
G01X60881915Y-17323845D01*
G01X60896071Y-17316415D01*
G01X60908037Y-17305814D01*
G01X60917118Y-17292658D01*
G01X60922787Y-17277710D01*
G01X60924714Y-17261840D01*
G01X60922787Y-17245970D01*
G01X60917118Y-17231022D01*
G01X60908037Y-17217866D01*
G01X60896071Y-17207265D01*
G01X60881915Y-17199835D01*
G01X60866393Y-17196009D01*
G01X60850407Y-17196009D01*
G01X60834885Y-17199835D01*
G01X60820729Y-17207265D01*
G01X60808763Y-17217866D01*
G01X60799682Y-17231022D01*
G01X60794013Y-17245970D01*
G01X60792086Y-17261840D01*
G01X60792086Y-17261840D01*
G01X60424314Y-17261840D01*
G01X60424314Y-17074675D01*
G01X61211921Y-17074675D01*
G01X61213848Y-17090545D01*
G01X61219517Y-17105492D01*
G01X61228598Y-17118649D01*
G01X61240564Y-17129250D01*
G01X61254720Y-17136679D01*
G01X61270242Y-17140505D01*
G01X61286228Y-17140505D01*
G01X61301750Y-17136679D01*
G01X61315906Y-17129250D01*
G01X61327872Y-17118649D01*
G01X61336953Y-17105492D01*
G01X61342622Y-17090545D01*
G01X61344549Y-17074675D01*
G01X61342622Y-17058805D01*
G01X61336953Y-17043857D01*
G01X61327872Y-17030700D01*
G01X61315906Y-17020099D01*
G01X61301750Y-17012670D01*
G01X61286228Y-17008844D01*
G01X61270242Y-17008844D01*
G01X61254720Y-17012670D01*
G01X61240564Y-17020099D01*
G01X61228598Y-17030700D01*
G01X61219517Y-17043857D01*
G01X61213848Y-17058805D01*
G01X61211921Y-17074675D01*
G01X61211921Y-17074675D01*
G01X60424314Y-17074675D01*
G01X60424314Y-16770274D01*
G01X60430484Y-16782287D01*
G01X60438961Y-16792800D01*
G01X60449391Y-16801378D01*
G01X60449391Y-16801378D01*
G01X60443353Y-16815513D01*
G01X60440732Y-16830658D01*
G01X60441667Y-16845999D01*
G01X60446109Y-16860713D01*
G01X60453819Y-16874010D01*
G01X60464384Y-16885174D01*
G01X60477234Y-16893606D01*
G01X60491681Y-16898853D01*
G01X60506947Y-16900634D01*
G01X60522214Y-16898852D01*
G01X60536660Y-16893604D01*
G01X60549510Y-16885170D01*
G01X60560073Y-16874005D01*
G01X60560528Y-16873220D01*
G01X61208646Y-16873220D01*
G01X61210573Y-16889090D01*
G01X61216242Y-16904038D01*
G01X61225323Y-16917194D01*
G01X61237289Y-16927795D01*
G01X61251445Y-16935225D01*
G01X61266967Y-16939051D01*
G01X61282953Y-16939051D01*
G01X61298475Y-16935225D01*
G01X61312631Y-16927795D01*
G01X61324597Y-16917194D01*
G01X61333678Y-16904038D01*
G01X61339347Y-16889090D01*
G01X61341274Y-16873220D01*
G01X61339347Y-16857350D01*
G01X61333678Y-16842402D01*
G01X61324597Y-16829246D01*
G01X61312631Y-16818645D01*
G01X61298475Y-16811215D01*
G01X61282953Y-16807389D01*
G01X61266967Y-16807389D01*
G01X61251445Y-16811215D01*
G01X61237289Y-16818645D01*
G01X61225323Y-16829246D01*
G01X61216242Y-16842402D01*
G01X61210573Y-16857350D01*
G01X61208646Y-16873220D01*
G01X61208646Y-16873220D01*
G01X60560528Y-16873220D01*
G01X60567782Y-16860709D01*
G01X60572223Y-16845994D01*
G01X60573157Y-16830652D01*
G01X60570534Y-16815508D01*
G01X60564495Y-16801374D01*
G01X60555365Y-16789010D01*
G01X60543633Y-16779080D01*
G01X60543633Y-16779080D01*
G01X60549414Y-16765793D01*
G01X60552171Y-16751567D01*
G01X60551773Y-16737083D01*
G01X60564968Y-16730287D01*
G01X60576322Y-16720727D01*
G01X60585265Y-16708880D01*
G01X60591349Y-16695342D01*
G01X60594270Y-16680789D01*
G01X60594060Y-16672825D01*
G01X60703346Y-16672825D01*
G01X60703981Y-16687677D01*
G01X60707908Y-16702014D01*
G01X60707908Y-16702014D01*
G01X60714930Y-16715115D01*
G01X60724694Y-16726324D01*
G01X60736709Y-16735076D01*
G01X60750372Y-16740932D01*
G01X60764996Y-16743598D01*
G01X60779847Y-16742939D01*
G01X60794177Y-16738988D01*
G01X60807268Y-16731945D01*
G01X60818460Y-16722163D01*
G01X60827193Y-16710134D01*
G01X60841808Y-16712847D01*
G01X60856661Y-16712236D01*
G01X60871004Y-16708332D01*
G01X60884117Y-16701332D01*
G01X60895342Y-16691586D01*
G01X60904114Y-16679585D01*
G01X60909992Y-16665932D01*
G01X60912681Y-16651312D01*
G01X60912046Y-16636461D01*
G01X60908119Y-16622124D01*
G01X60901097Y-16609022D01*
G01X60891334Y-16597813D01*
G01X60879318Y-16589061D01*
G01X60865655Y-16583205D01*
G01X60851031Y-16580540D01*
G01X60836181Y-16581199D01*
G01X60821850Y-16585149D01*
G01X60808760Y-16592192D01*
G01X60797567Y-16601974D01*
G01X60788835Y-16614004D01*
G01X60774219Y-16611291D01*
G01X60759367Y-16611901D01*
G01X60745024Y-16615805D01*
G01X60731910Y-16622806D01*
G01X60720686Y-16632551D01*
G01X60711914Y-16644552D01*
G01X60706036Y-16658206D01*
G01X60703346Y-16672825D01*
G01X60594060Y-16672825D01*
G01X60593880Y-16665951D01*
G01X60590200Y-16651572D01*
G01X60583413Y-16638371D01*
G01X60573861Y-16627010D01*
G01X60562021Y-16618059D01*
G01X60548487Y-16611965D01*
G01X60533936Y-16609034D01*
G01X60519098Y-16609414D01*
G01X60504716Y-16613083D01*
G01X60491510Y-16619860D01*
G01X60480143Y-16629405D01*
G01X60471183Y-16641238D01*
G01X60465080Y-16654768D01*
G01X60462139Y-16669317D01*
G01X60462507Y-16684155D01*
G01X60450176Y-16690385D01*
G01X60439403Y-16699034D01*
G01X60430655Y-16709728D01*
G01X60424314Y-16722002D01*
G01X60424314Y-16362680D01*
G01X60492366Y-16362680D01*
G01X60494293Y-16378550D01*
G01X60499962Y-16393498D01*
G01X60509043Y-16406654D01*
G01X60521009Y-16417255D01*
G01X60535165Y-16424685D01*
G01X60550687Y-16428511D01*
G01X60566673Y-16428511D01*
G01X60582195Y-16424685D01*
G01X60596351Y-16417255D01*
G01X60608317Y-16406654D01*
G01X60617298Y-16393643D01*
G01X60715886Y-16393643D01*
G01X60717813Y-16409513D01*
G01X60723482Y-16424460D01*
G01X60732563Y-16437617D01*
G01X60744529Y-16448218D01*
G01X60758685Y-16455647D01*
G01X60774207Y-16459473D01*
G01X60790193Y-16459473D01*
G01X60805715Y-16455647D01*
G01X60819871Y-16448218D01*
G01X60831837Y-16437617D01*
G01X60840918Y-16424460D01*
G01X60846587Y-16409513D01*
G01X60848514Y-16393643D01*
G01X60846587Y-16377773D01*
G01X60840918Y-16362825D01*
G01X60831837Y-16349668D01*
G01X60819871Y-16339067D01*
G01X60805715Y-16331638D01*
G01X60790193Y-16327812D01*
G01X60774207Y-16327812D01*
G01X60758685Y-16331638D01*
G01X60744529Y-16339067D01*
G01X60732563Y-16349668D01*
G01X60723482Y-16362825D01*
G01X60717813Y-16377773D01*
G01X60715886Y-16393643D01*
G01X60715886Y-16393643D01*
G01X60617298Y-16393643D01*
G01X60617398Y-16393498D01*
G01X60623067Y-16378550D01*
G01X60624994Y-16362680D01*
G01X60623067Y-16346810D01*
G01X60617398Y-16331862D01*
G01X60608317Y-16318706D01*
G01X60596351Y-16308105D01*
G01X60582195Y-16300675D01*
G01X60566673Y-16296849D01*
G01X60550687Y-16296849D01*
G01X60535165Y-16300675D01*
G01X60521009Y-16308105D01*
G01X60509043Y-16318706D01*
G01X60499962Y-16331862D01*
G01X60494293Y-16346810D01*
G01X60492366Y-16362680D01*
G01X60492366Y-16362680D01*
G01X60424314Y-16362680D01*
G01X60424314Y-16175235D01*
G01X60452430Y-16147119D01*
G01X60995687Y-16147119D01*
G01X60995876Y-16163223D01*
G01X60999941Y-16178807D01*
G01X61007643Y-16192951D01*
G01X60999941Y-16207095D01*
G01X60995876Y-16222679D01*
G01X60995687Y-16238783D01*
G01X60999386Y-16254457D01*
G01X61006754Y-16268778D01*
G01X61017358Y-16280900D01*
G01X61030571Y-16290108D01*
G01X61045614Y-16295860D01*
G01X61061600Y-16297816D01*
G01X61061600Y-16297816D01*
G01X61077586Y-16295860D01*
G01X61092629Y-16290108D01*
G01X61105842Y-16280900D01*
G01X61106396Y-16280267D01*
G01X61211196Y-16280267D01*
G01X61212922Y-16296473D01*
G01X61218548Y-16311769D01*
G01X61227736Y-16325230D01*
G01X61239929Y-16336044D01*
G01X61254392Y-16343558D01*
G01X61270250Y-16347317D01*
G01X61270250Y-16347317D01*
G01X61259819Y-16359839D01*
G01X61252757Y-16374527D01*
G01X61249491Y-16390494D01*
G01X61250217Y-16406776D01*
G01X61254894Y-16422389D01*
G01X61263237Y-16436389D01*
G01X61274742Y-16447932D01*
G01X61288716Y-16456320D01*
G01X61304313Y-16461047D01*
G01X61320593Y-16461826D01*
G01X61336570Y-16458611D01*
G01X61351281Y-16451596D01*
G01X61363837Y-16441205D01*
G01X61373479Y-16428066D01*
G01X61379625Y-16412971D01*
G01X61381904Y-16396833D01*
G01X61380178Y-16380627D01*
G01X61374552Y-16365331D01*
G01X61365364Y-16351870D01*
G01X61353171Y-16341056D01*
G01X61338708Y-16333542D01*
G01X61322850Y-16329783D01*
G01X61333281Y-16317261D01*
G01X61340343Y-16302573D01*
G01X61343609Y-16286606D01*
G01X61342883Y-16270324D01*
G01X61338206Y-16254711D01*
G01X61329863Y-16240711D01*
G01X61318358Y-16229168D01*
G01X61304384Y-16220780D01*
G01X61288787Y-16216053D01*
G01X61272507Y-16215274D01*
G01X61256530Y-16218489D01*
G01X61241819Y-16225504D01*
G01X61229263Y-16235895D01*
G01X61219621Y-16249034D01*
G01X61213475Y-16264129D01*
G01X61211196Y-16280267D01*
G01X61106396Y-16280267D01*
G01X61116446Y-16268778D01*
G01X61123814Y-16254457D01*
G01X61127513Y-16238783D01*
G01X61127324Y-16222679D01*
G01X61123259Y-16207095D01*
G01X61115557Y-16192951D01*
G01X61123259Y-16178807D01*
G01X61127324Y-16163223D01*
G01X61127513Y-16147119D01*
G01X61123814Y-16131444D01*
G01X61116446Y-16117124D01*
G01X61105842Y-16105002D01*
G01X61092629Y-16095793D01*
G01X61077586Y-16090042D01*
G01X61061600Y-16088086D01*
G01X61045614Y-16090042D01*
G01X61030571Y-16095793D01*
G01X61017358Y-16105002D01*
G01X61006754Y-16117124D01*
G01X60999386Y-16131444D01*
G01X60995687Y-16147119D01*
G01X60452430Y-16147119D01*
G01X60459472Y-16140077D01*
G01X60473110Y-16132472D01*
G01X60484593Y-16121889D01*
G01X60493282Y-16108914D01*
G01X60498695Y-16094266D01*
G01X60500534Y-16078759D01*
G01X60498695Y-16063252D01*
G01X60493282Y-16048605D01*
G01X60484593Y-16035629D01*
G01X60473110Y-16025046D01*
G01X60459472Y-16017441D01*
G01X60352845Y-15910814D01*
G01X61450986Y-15910814D01*
G01X61450986Y-18824114D01*
G01X61450986Y-18824114D01*
G01X61434591Y-18806588D01*
G01X61415542Y-18791990D01*
G01X61394357Y-18780715D01*
G01X61371609Y-18773067D01*
G01X61347915Y-18769255D01*
G01X61323917Y-18769382D01*
G01X61300264Y-18773444D01*
G01X61277598Y-18781330D01*
G01X61256533Y-18792829D01*
G01X61237640Y-18807627D01*
G01X61221430Y-18825324D01*
G01X61208343Y-18845440D01*
G01X61198733Y-18867431D01*
G01X61192861Y-18890701D01*
G01X61190886Y-18914618D01*
G01X61192861Y-18938535D01*
G01X61198733Y-18961805D01*
G01X61208343Y-18983796D01*
G01X61221430Y-19003912D01*
G01X61237640Y-19021609D01*
G01X61256533Y-19036407D01*
G01X61277598Y-19047906D01*
G01X61300264Y-19055792D01*
G01X61323917Y-19059854D01*
G01X61347915Y-19059981D01*
G01X61371609Y-19056169D01*
G01X61394357Y-19048521D01*
G01X61415542Y-19037246D01*
G01X61434591Y-19022648D01*
G01X61450986Y-19005122D01*
G01X61450986Y-19005122D01*
G01X61450986Y-21364700D01*
G01X61449083Y-21425242D01*
G01X61443383Y-21485545D01*
G01X61433908Y-21545370D01*
G01X61420694Y-21604483D01*
G01X61403795Y-21662650D01*
G01X61383278Y-21719641D01*
G01X61359222Y-21775230D01*
G01X61331723Y-21829200D01*
G01X61300889Y-21881337D01*
G01X61266843Y-21931434D01*
G01X61229718Y-21979295D01*
G01X61189661Y-22024731D01*
G01X61146831Y-22067561D01*
G01X61101395Y-22107618D01*
G01X61053534Y-22144743D01*
G01X61003437Y-22178789D01*
G01X60951300Y-22209623D01*
G01X60897330Y-22237122D01*
G01X60841741Y-22261177D01*
G01X60784750Y-22281695D01*
G01X60726583Y-22298594D01*
G01X60667470Y-22311808D01*
G01X60607645Y-22321283D01*
G01X60547342Y-22326983D01*
G01X60486800Y-22328886D01*
G01X59496023Y-22328886D01*
G01X59501229Y-22294248D01*
G01X59502567Y-22259247D01*
G01X59500021Y-22224313D01*
G01X59493622Y-22189876D01*
G01X59483449Y-22156359D01*
G01X59469627Y-22124175D01*
G01X59452326Y-22093719D01*
G01X59432757Y-22066743D01*
G01X59803292Y-22066743D01*
G01X59803292Y-22126743D01*
G01X59805133Y-22145435D01*
G01X59810585Y-22163409D01*
G01X59819439Y-22179974D01*
G01X59831355Y-22194493D01*
G01X59845874Y-22206409D01*
G01X59862439Y-22215263D01*
G01X59880413Y-22220715D01*
G01X59899106Y-22222557D01*
G01X59917798Y-22220715D01*
G01X59935772Y-22215263D01*
G01X59952337Y-22206409D01*
G01X59966856Y-22194493D01*
G01X59978772Y-22179974D01*
G01X59987626Y-22163409D01*
G01X59993078Y-22145435D01*
G01X59994919Y-22126743D01*
G01X59994919Y-22066743D01*
G01X60668289Y-22066743D01*
G01X60668289Y-22126743D01*
G01X60670130Y-22145435D01*
G01X60675582Y-22163409D01*
G01X60684436Y-22179974D01*
G01X60696352Y-22194493D01*
G01X60710871Y-22206409D01*
G01X60727436Y-22215263D01*
G01X60745410Y-22220715D01*
G01X60764103Y-22222557D01*
G01X60782795Y-22220715D01*
G01X60800769Y-22215263D01*
G01X60817334Y-22206409D01*
G01X60831853Y-22194493D01*
G01X60843769Y-22179974D01*
G01X60852623Y-22163409D01*
G01X60858075Y-22145435D01*
G01X60859916Y-22126743D01*
G01X60859916Y-22066743D01*
G01X60858075Y-22048050D01*
G01X60852623Y-22030076D01*
G01X60843769Y-22013511D01*
G01X60831853Y-21998992D01*
G01X60817334Y-21987076D01*
G01X60800769Y-21978222D01*
G01X60782795Y-21972770D01*
G01X60764103Y-21970929D01*
G01X60745410Y-21972770D01*
G01X60727436Y-21978222D01*
G01X60710871Y-21987076D01*
G01X60696352Y-21998992D01*
G01X60684436Y-22013511D01*
G01X60675582Y-22030076D01*
G01X60670130Y-22048050D01*
G01X60668289Y-22066743D01*
G01X60668289Y-22066743D01*
G01X59994919Y-22066743D01*
G01X59993078Y-22048050D01*
G01X59987626Y-22030076D01*
G01X59978772Y-22013511D01*
G01X59966856Y-21998992D01*
G01X59952337Y-21987076D01*
G01X59935772Y-21978222D01*
G01X59917798Y-21972770D01*
G01X59899106Y-21970929D01*
G01X59880413Y-21972770D01*
G01X59862439Y-21978222D01*
G01X59845874Y-21987076D01*
G01X59831355Y-21998992D01*
G01X59819439Y-22013511D01*
G01X59810585Y-22030076D01*
G01X59805133Y-22048050D01*
G01X59803292Y-22066743D01*
G01X59803292Y-22066743D01*
G01X59432757Y-22066743D01*
G01X59431759Y-22065367D01*
G01X59408178Y-22039466D01*
G01X59381874Y-22016336D01*
G01X59353171Y-21996262D01*
G01X59322421Y-21979489D01*
G01X59290003Y-21966224D01*
G01X59256316Y-21956632D01*
G01X59221773Y-21950828D01*
G01X59186800Y-21948886D01*
G01X59151827Y-21950828D01*
G01X59117285Y-21956632D01*
G01X59083597Y-21966224D01*
G01X59051179Y-21979489D01*
G01X59020429Y-21996262D01*
G01X58991726Y-22016336D01*
G01X58965422Y-22039466D01*
G01X58941842Y-22065367D01*
G01X58921274Y-22093719D01*
G01X58903973Y-22124175D01*
G01X58890151Y-22156359D01*
G01X58879978Y-22189876D01*
G01X58873579Y-22224313D01*
G01X58871033Y-22259247D01*
G01X58872371Y-22294248D01*
G01X58877577Y-22328886D01*
G01X58877577Y-22328886D01*
G01X57886800Y-22328886D01*
G01X57826258Y-22326983D01*
G01X57765955Y-22321283D01*
G01X57706129Y-22311808D01*
G01X57647017Y-22298594D01*
G01X57588850Y-22281695D01*
G01X57531859Y-22261177D01*
G01X57476270Y-22237122D01*
G01X57422300Y-22209623D01*
G01X57370163Y-22178789D01*
G01X57320066Y-22144743D01*
G01X57272205Y-22107618D01*
G01X57226769Y-22067561D01*
G01X57183939Y-22024731D01*
G01X57143882Y-21979295D01*
G01X57122480Y-21951704D01*
G01X57927504Y-21951704D01*
G01X57929476Y-21972984D01*
G01X57935325Y-21993540D01*
G01X57944851Y-22012672D01*
G01X57957731Y-22029727D01*
G01X57973525Y-22044125D01*
G01X57991695Y-22055376D01*
G01X58011624Y-22063096D01*
G01X58032632Y-22067023D01*
G01X58054004Y-22067023D01*
G01X58075012Y-22063096D01*
G01X58094941Y-22055376D01*
G01X58113111Y-22044125D01*
G01X58128905Y-22029727D01*
G01X58141785Y-22012672D01*
G01X58151311Y-21993540D01*
G01X58157160Y-21972984D01*
G01X58159132Y-21951704D01*
G01X58157160Y-21930423D01*
G01X58151311Y-21909867D01*
G01X58141785Y-21890735D01*
G01X58128905Y-21873680D01*
G01X58113111Y-21859282D01*
G01X58094941Y-21848031D01*
G01X58075012Y-21840311D01*
G01X58054004Y-21836384D01*
G01X58032632Y-21836384D01*
G01X58011624Y-21840311D01*
G01X57991695Y-21848031D01*
G01X57973525Y-21859282D01*
G01X57957731Y-21873680D01*
G01X57944851Y-21890735D01*
G01X57935325Y-21909867D01*
G01X57929476Y-21930423D01*
G01X57927504Y-21951704D01*
G01X57927504Y-21951704D01*
G01X57122480Y-21951704D01*
G01X57106757Y-21931434D01*
G01X57072711Y-21881337D01*
G01X57041877Y-21829200D01*
G01X57014378Y-21775230D01*
G01X57006766Y-21757640D01*
G01X59082666Y-21757640D01*
G01X59084593Y-21773510D01*
G01X59090262Y-21788458D01*
G01X59099343Y-21801614D01*
G01X59111309Y-21812215D01*
G01X59125465Y-21819645D01*
G01X59140987Y-21823471D01*
G01X59156973Y-21823471D01*
G01X59172495Y-21819645D01*
G01X59186651Y-21812215D01*
G01X59198617Y-21801614D01*
G01X59207698Y-21788458D01*
G01X59213367Y-21773510D01*
G01X59214369Y-21765260D01*
G01X59273166Y-21765260D01*
G01X59275093Y-21781130D01*
G01X59280762Y-21796078D01*
G01X59289843Y-21809234D01*
G01X59301809Y-21819835D01*
G01X59315965Y-21827265D01*
G01X59331487Y-21831091D01*
G01X59347473Y-21831091D01*
G01X59362995Y-21827265D01*
G01X59377151Y-21819835D01*
G01X59389117Y-21809234D01*
G01X59398198Y-21796078D01*
G01X59403867Y-21781130D01*
G01X59405794Y-21765260D01*
G01X59403867Y-21749390D01*
G01X59398198Y-21734442D01*
G01X59389117Y-21721286D01*
G01X59377151Y-21710685D01*
G01X59362995Y-21703255D01*
G01X59347473Y-21699429D01*
G01X59331487Y-21699429D01*
G01X59315965Y-21703255D01*
G01X59301809Y-21710685D01*
G01X59289843Y-21721286D01*
G01X59280762Y-21734442D01*
G01X59275093Y-21749390D01*
G01X59273166Y-21765260D01*
G01X59273166Y-21765260D01*
G01X59214369Y-21765260D01*
G01X59215294Y-21757640D01*
G01X59213367Y-21741770D01*
G01X59207698Y-21726822D01*
G01X59198617Y-21713666D01*
G01X59186651Y-21703065D01*
G01X59172495Y-21695635D01*
G01X59156973Y-21691809D01*
G01X59140987Y-21691809D01*
G01X59125465Y-21695635D01*
G01X59111309Y-21703065D01*
G01X59099343Y-21713666D01*
G01X59090262Y-21726822D01*
G01X59084593Y-21741770D01*
G01X59082666Y-21757640D01*
G01X59082666Y-21757640D01*
G01X57006766Y-21757640D01*
G01X56990323Y-21719640D01*
G01X56969805Y-21662650D01*
G01X56960821Y-21631728D01*
G01X59808292Y-21631728D01*
G01X59808292Y-21721728D01*
G01X59810211Y-21740299D01*
G01X59815887Y-21758085D01*
G01X59825080Y-21774334D01*
G01X59837402Y-21788360D01*
G01X59852331Y-21799570D01*
G01X59869238Y-21807490D01*
G01X59887406Y-21811785D01*
G01X59906070Y-21812275D01*
G01X59924438Y-21808937D01*
G01X59941737Y-21801914D01*
G01X59957233Y-21791502D01*
G01X59970273Y-21778141D01*
G01X59980305Y-21762395D01*
G01X59980305Y-21762395D01*
G01X59989609Y-21775706D01*
G01X60001701Y-21786547D01*
G01X60015945Y-21794349D01*
G01X60031592Y-21798699D01*
G01X60047819Y-21799371D01*
G01X60063772Y-21796329D01*
G01X60078612Y-21789732D01*
G01X60091559Y-21779927D01*
G01X60101931Y-21767431D01*
G01X60108087Y-21755100D01*
G01X60340283Y-21755100D01*
G01X60342210Y-21770970D01*
G01X60347879Y-21785918D01*
G01X60356961Y-21799074D01*
G01X60368927Y-21809675D01*
G01X60383082Y-21817105D01*
G01X60398604Y-21820931D01*
G01X60414591Y-21820931D01*
G01X60430113Y-21817105D01*
G01X60444268Y-21809675D01*
G01X60456234Y-21799074D01*
G01X60465316Y-21785918D01*
G01X60470985Y-21770970D01*
G01X60472912Y-21755100D01*
G01X60470985Y-21739230D01*
G01X60465316Y-21724282D01*
G01X60462958Y-21720867D01*
G01X60550243Y-21720867D01*
G01X60550298Y-21737104D01*
G01X60550298Y-21737104D01*
G01X60554050Y-21752902D01*
G01X60561301Y-21767430D01*
G01X60571672Y-21779925D01*
G01X60584616Y-21789728D01*
G01X60599452Y-21796326D01*
G01X60615402Y-21799370D01*
G01X60631626Y-21798702D01*
G01X60647271Y-21794356D01*
G01X60661514Y-21786560D01*
G01X60673608Y-21775725D01*
G01X60682915Y-21762420D01*
G01X60692951Y-21778160D01*
G01X60705993Y-21791516D01*
G01X60721490Y-21801924D01*
G01X60738788Y-21808942D01*
G01X60757155Y-21812276D01*
G01X60775816Y-21811783D01*
G01X60793982Y-21807486D01*
G01X60810886Y-21799565D01*
G01X60825812Y-21788354D01*
G01X60838132Y-21774329D01*
G01X60847323Y-21758081D01*
G01X60852998Y-21740297D01*
G01X60854916Y-21721728D01*
G01X60854916Y-21631728D01*
G01X60852932Y-21612847D01*
G01X60847065Y-21594791D01*
G01X60837572Y-21578349D01*
G01X60824869Y-21564241D01*
G01X60809509Y-21553081D01*
G01X60792166Y-21545359D01*
G01X60773595Y-21541412D01*
G01X60754610Y-21541412D01*
G01X60736039Y-21545359D01*
G01X60718696Y-21553081D01*
G01X60703336Y-21564241D01*
G01X60690633Y-21578349D01*
G01X60681140Y-21594791D01*
G01X60675273Y-21612847D01*
G01X60673289Y-21631728D01*
G01X60673289Y-21681413D01*
G01X60661122Y-21670660D01*
G01X60646826Y-21662960D01*
G01X60631152Y-21658720D01*
G01X60614924Y-21658162D01*
G01X60598996Y-21661314D01*
G01X60584204Y-21668012D01*
G01X60571327Y-21677903D01*
G01X60561041Y-21690467D01*
G01X60553888Y-21705044D01*
G01X60550243Y-21720867D01*
G01X60462958Y-21720867D01*
G01X60456234Y-21711126D01*
G01X60444268Y-21700525D01*
G01X60430113Y-21693095D01*
G01X60414591Y-21689269D01*
G01X60398604Y-21689269D01*
G01X60383082Y-21693095D01*
G01X60368927Y-21700525D01*
G01X60356961Y-21711126D01*
G01X60347879Y-21724282D01*
G01X60342210Y-21739230D01*
G01X60340283Y-21755100D01*
G01X60340283Y-21755100D01*
G01X60108087Y-21755100D01*
G01X60109185Y-21752900D01*
G01X60112937Y-21737099D01*
G01X60112990Y-21720859D01*
G01X60109342Y-21705033D01*
G01X60102185Y-21690455D01*
G01X60091894Y-21677891D01*
G01X60079012Y-21668002D01*
G01X60064216Y-21661307D01*
G01X60048283Y-21658159D01*
G01X60032053Y-21658724D01*
G01X60016378Y-21662972D01*
G01X60002083Y-21670680D01*
G01X59989919Y-21681441D01*
G01X59989919Y-21681441D01*
G01X59989919Y-21631728D01*
G01X59989919Y-21631728D01*
G01X59987935Y-21612847D01*
G01X59982068Y-21594791D01*
G01X59972575Y-21578349D01*
G01X59959872Y-21564241D01*
G01X59944512Y-21553081D01*
G01X59927169Y-21545359D01*
G01X59908598Y-21541412D01*
G01X59889613Y-21541412D01*
G01X59871042Y-21545359D01*
G01X59853699Y-21553081D01*
G01X59838339Y-21564241D01*
G01X59825636Y-21578349D01*
G01X59816143Y-21594791D01*
G01X59810276Y-21612847D01*
G01X59808292Y-21631728D01*
G01X56960821Y-21631728D01*
G01X56952906Y-21604483D01*
G01X56939692Y-21545370D01*
G01X56930669Y-21488400D01*
G01X60190296Y-21488400D01*
G01X60192223Y-21504270D01*
G01X60197892Y-21519218D01*
G01X60206974Y-21532374D01*
G01X60218940Y-21542975D01*
G01X60233095Y-21550405D01*
G01X60248617Y-21554231D01*
G01X60264604Y-21554231D01*
G01X60280126Y-21550405D01*
G01X60294281Y-21542975D01*
G01X60306247Y-21532374D01*
G01X60315329Y-21519218D01*
G01X60320998Y-21504270D01*
G01X60321625Y-21499106D01*
G01X61153986Y-21499106D01*
G01X61153986Y-21651506D01*
G01X61155739Y-21662573D01*
G01X61160826Y-21672557D01*
G01X61168749Y-21680480D01*
G01X61178733Y-21685567D01*
G01X61189800Y-21687320D01*
G01X61339800Y-21687320D01*
G01X61350867Y-21685567D01*
G01X61360851Y-21680480D01*
G01X61368774Y-21672557D01*
G01X61373861Y-21662573D01*
G01X61375614Y-21651506D01*
G01X61375614Y-21499106D01*
G01X61375614Y-21499106D01*
G01X61373861Y-21488039D01*
G01X61368774Y-21478055D01*
G01X61360851Y-21470132D01*
G01X61350867Y-21465045D01*
G01X61339800Y-21463292D01*
G01X61339800Y-21463292D01*
G01X61189800Y-21463292D01*
G01X61178733Y-21465045D01*
G01X61168749Y-21470132D01*
G01X61160826Y-21478055D01*
G01X61155739Y-21488039D01*
G01X61153986Y-21499106D01*
G01X60321625Y-21499106D01*
G01X60322925Y-21488400D01*
G01X60320998Y-21472530D01*
G01X60315329Y-21457582D01*
G01X60306247Y-21444426D01*
G01X60294281Y-21433825D01*
G01X60280126Y-21426395D01*
G01X60264604Y-21422569D01*
G01X60248617Y-21422569D01*
G01X60233095Y-21426395D01*
G01X60218940Y-21433825D01*
G01X60206974Y-21444426D01*
G01X60197892Y-21457582D01*
G01X60192223Y-21472530D01*
G01X60190296Y-21488400D01*
G01X60190296Y-21488400D01*
G01X56930669Y-21488400D01*
G01X56930217Y-21485545D01*
G01X56924517Y-21425242D01*
G01X56922614Y-21364700D01*
G01X56922614Y-21364700D01*
G01X56922614Y-21114640D01*
G01X57071006Y-21114640D01*
G01X57072994Y-21138637D01*
G01X57078906Y-21161980D01*
G01X57088578Y-21184031D01*
G01X57101748Y-21204190D01*
G01X57118057Y-21221906D01*
G01X57137059Y-21236696D01*
G01X57158236Y-21248156D01*
G01X57181011Y-21255975D01*
G01X57204762Y-21259938D01*
G01X57228842Y-21259938D01*
G01X57252593Y-21255975D01*
G01X57265104Y-21251680D01*
G01X57927504Y-21251680D01*
G01X57929476Y-21272960D01*
G01X57935325Y-21293516D01*
G01X57944851Y-21312648D01*
G01X57957731Y-21329703D01*
G01X57973525Y-21344101D01*
G01X57991695Y-21355352D01*
G01X58011624Y-21363072D01*
G01X58032632Y-21366999D01*
G01X58054004Y-21366999D01*
G01X58075012Y-21363072D01*
G01X58094941Y-21355352D01*
G01X58113111Y-21344101D01*
G01X58128905Y-21329703D01*
G01X58141785Y-21312648D01*
G01X58151311Y-21293516D01*
G01X58157160Y-21272960D01*
G01X58159132Y-21251680D01*
G01X58157160Y-21230399D01*
G01X58151311Y-21209843D01*
G01X58141785Y-21190711D01*
G01X58128905Y-21173656D01*
G01X58113111Y-21159258D01*
G01X58094941Y-21148007D01*
G01X58075012Y-21140287D01*
G01X58054004Y-21136360D01*
G01X58032632Y-21136360D01*
G01X58011624Y-21140287D01*
G01X57991695Y-21148007D01*
G01X57973525Y-21159258D01*
G01X57957731Y-21173656D01*
G01X57944851Y-21190711D01*
G01X57935325Y-21209843D01*
G01X57929476Y-21230399D01*
G01X57927504Y-21251680D01*
G01X57927504Y-21251680D01*
G01X57265104Y-21251680D01*
G01X57275368Y-21248156D01*
G01X57296545Y-21236696D01*
G01X57315547Y-21221906D01*
G01X57331856Y-21204190D01*
G01X57345026Y-21184031D01*
G01X57354698Y-21161980D01*
G01X57360610Y-21138637D01*
G01X57362598Y-21114640D01*
G01X57360610Y-21090643D01*
G01X57354698Y-21067300D01*
G01X57345026Y-21045249D01*
G01X57340759Y-21038718D01*
G01X59133568Y-21038718D01*
G01X59135495Y-21054588D01*
G01X59141163Y-21069536D01*
G01X59150245Y-21082693D01*
G01X59162211Y-21093294D01*
G01X59176366Y-21100723D01*
G01X59191888Y-21104549D01*
G01X59207875Y-21104549D01*
G01X59223397Y-21100723D01*
G01X59237552Y-21093294D01*
G01X59249518Y-21082693D01*
G01X59258600Y-21069536D01*
G01X59264269Y-21054588D01*
G01X59266196Y-21038718D01*
G01X59264269Y-21022848D01*
G01X59258600Y-21007901D01*
G01X59249518Y-20994744D01*
G01X59237552Y-20984143D01*
G01X59223397Y-20976714D01*
G01X59207875Y-20972888D01*
G01X59191888Y-20972888D01*
G01X59176366Y-20976714D01*
G01X59162211Y-20984143D01*
G01X59150245Y-20994744D01*
G01X59141163Y-21007901D01*
G01X59135495Y-21022848D01*
G01X59133568Y-21038718D01*
G01X59133568Y-21038718D01*
G01X57340759Y-21038718D01*
G01X57331856Y-21025090D01*
G01X57315547Y-21007374D01*
G01X57296545Y-20992584D01*
G01X57275368Y-20981124D01*
G01X57252593Y-20973305D01*
G01X57228842Y-20969342D01*
G01X57204762Y-20969342D01*
G01X57181011Y-20973305D01*
G01X57158236Y-20981124D01*
G01X57137059Y-20992584D01*
G01X57118057Y-21007374D01*
G01X57101748Y-21025090D01*
G01X57088578Y-21045249D01*
G01X57078906Y-21067300D01*
G01X57072994Y-21090643D01*
G01X57071006Y-21114640D01*
G01X57071006Y-21114640D01*
G01X56922614Y-21114640D01*
G01X56922614Y-20588514D01*
G01X59052211Y-20588514D01*
G01X59054383Y-20603630D01*
G01X59059956Y-20617848D01*
G01X59068634Y-20630414D01*
G01X59079956Y-20640662D01*
G01X59093322Y-20648048D01*
G01X59108023Y-20652181D01*
G01X59123280Y-20652842D01*
G01X59138283Y-20649994D01*
G01X59152237Y-20643791D01*
G01X59164402Y-20634560D01*
G01X59174133Y-20622790D01*
G01X59180914Y-20609107D01*
G01X59184384Y-20594236D01*
G01X59184361Y-20578965D01*
G01X59180846Y-20564104D01*
G01X59196577Y-20562492D01*
G01X59211479Y-20557202D01*
G01X59224705Y-20548533D01*
G01X59235502Y-20536980D01*
G01X59242973Y-20549918D01*
G01X59253150Y-20560855D01*
G01X59265517Y-20569236D01*
G01X59279447Y-20574637D01*
G01X59294232Y-20576782D01*
G01X59294232Y-20576782D01*
G01X59293763Y-20592755D01*
G01X59297129Y-20608377D01*
G01X59304134Y-20622740D01*
G01X59314372Y-20635010D01*
G01X59327248Y-20644475D01*
G01X59342014Y-20650584D01*
G01X59357814Y-20652984D01*
G01X59373728Y-20651535D01*
G01X59388834Y-20646321D01*
G01X59402253Y-20637644D01*
G01X59413208Y-20626009D01*
G01X59421060Y-20612091D01*
G01X59425356Y-20596699D01*
G01X59425844Y-20580726D01*
G01X59422498Y-20565100D01*
G01X59415510Y-20550729D01*
G01X59405287Y-20538446D01*
G01X59392423Y-20528965D01*
G01X59377664Y-20522837D01*
G01X59361868Y-20520418D01*
G01X59362445Y-20505762D01*
G01X59359785Y-20491338D01*
G01X59354020Y-20477851D01*
G01X59345431Y-20465961D01*
G01X59334438Y-20456250D01*
G01X59321579Y-20449193D01*
G01X59307484Y-20445136D01*
G01X59292842Y-20444276D01*
G01X59278369Y-20446656D01*
G01X59264773Y-20452160D01*
G01X59252719Y-20460517D01*
G01X59242798Y-20471320D01*
G01X59242798Y-20471320D01*
G01X59235558Y-20458696D01*
G01X59225738Y-20447955D01*
G01X59213813Y-20439615D01*
G01X59200355Y-20434077D01*
G01X59186013Y-20431607D01*
G01X59171478Y-20432326D01*
G01X59157450Y-20436198D01*
G01X59144604Y-20443036D01*
G01X59133559Y-20452512D01*
G01X59124847Y-20464169D01*
G01X59118887Y-20477445D01*
G01X59115967Y-20491702D01*
G01X59116227Y-20506253D01*
G01X59119654Y-20520396D01*
G01X59104457Y-20521890D01*
G01X59090004Y-20526821D01*
G01X59077062Y-20534927D01*
G01X59066317Y-20545779D01*
G01X59058340Y-20558801D01*
G01X59053553Y-20573303D01*
G01X59052211Y-20588514D01*
G01X56922614Y-20588514D01*
G01X56922614Y-20173696D01*
G01X59165449Y-20173696D01*
G01X59167376Y-20189566D01*
G01X59173045Y-20204514D01*
G01X59182127Y-20217670D01*
G01X59194093Y-20228271D01*
G01X59208248Y-20235701D01*
G01X59223770Y-20239527D01*
G01X59239757Y-20239527D01*
G01X59255279Y-20235701D01*
G01X59269434Y-20228271D01*
G01X59281400Y-20217670D01*
G01X59290482Y-20204514D01*
G01X59296151Y-20189566D01*
G01X59298077Y-20173696D01*
G01X59296151Y-20157826D01*
G01X59290482Y-20142878D01*
G01X59281400Y-20129722D01*
G01X59269434Y-20119121D01*
G01X59255279Y-20111691D01*
G01X59239757Y-20107865D01*
G01X59223770Y-20107865D01*
G01X59208248Y-20111691D01*
G01X59194093Y-20119121D01*
G01X59182127Y-20129722D01*
G01X59173045Y-20142878D01*
G01X59167376Y-20157826D01*
G01X59165449Y-20173696D01*
G01X59165449Y-20173696D01*
G01X56922614Y-20173696D01*
G01X56922614Y-19939205D01*
G01X57045692Y-19939205D01*
G01X57046520Y-19954051D01*
G01X57050634Y-19968340D01*
G01X57057828Y-19981352D01*
G01X57067741Y-19992435D01*
G01X57079874Y-20001030D01*
G01X57093617Y-20006706D01*
G01X57108279Y-20009178D01*
G01X57123123Y-20008320D01*
G01X57137403Y-20004176D01*
G01X58402271Y-20004176D01*
G01X58414213Y-20003000D01*
G01X58425696Y-19999517D01*
G01X58436279Y-19993860D01*
G01X58445556Y-19986247D01*
G01X58552594Y-19879208D01*
G01X58658486Y-19879208D01*
G01X58660477Y-19895338D01*
G01X58666332Y-19910499D01*
G01X58675699Y-19923780D01*
G01X58688014Y-19934384D01*
G01X58702540Y-19941675D01*
G01X58718402Y-19945213D01*
G01X58734648Y-19944787D01*
G01X58750303Y-19940422D01*
G01X58750303Y-19940422D01*
G01X59096853Y-19940422D01*
G01X59425735Y-20269305D01*
G01X59425735Y-20269305D01*
G01X59435011Y-20276918D01*
G01X59445594Y-20282574D01*
G01X59457078Y-20286058D01*
G01X59469020Y-20287234D01*
G01X59490512Y-20287234D01*
G01X59475478Y-20292800D01*
G01X59462218Y-20301812D01*
G01X59451509Y-20313742D01*
G01X59443976Y-20327894D01*
G01X59440059Y-20343440D01*
G01X59439987Y-20359471D01*
G01X59443765Y-20375052D01*
G01X59451171Y-20389270D01*
G01X59461773Y-20401296D01*
G01X59474952Y-20410426D01*
G01X59489936Y-20416126D01*
G01X59505850Y-20418064D01*
G01X59521764Y-20416126D01*
G01X59536748Y-20410426D01*
G01X59549927Y-20401296D01*
G01X59560529Y-20389270D01*
G01X59567935Y-20375052D01*
G01X59571713Y-20359471D01*
G01X59571641Y-20343440D01*
G01X59567724Y-20327894D01*
G01X59560191Y-20313742D01*
G01X59549482Y-20301812D01*
G01X59536222Y-20292800D01*
G01X59521188Y-20287234D01*
G01X60027717Y-20287234D01*
G01X60043372Y-20291599D01*
G01X60059618Y-20292025D01*
G01X60075480Y-20288486D01*
G01X60090006Y-20281196D01*
G01X60102321Y-20270592D01*
G01X60111688Y-20257310D01*
G01X60117543Y-20242150D01*
G01X60119534Y-20226020D01*
G01X60117543Y-20209890D01*
G01X60111688Y-20194730D01*
G01X60102321Y-20181448D01*
G01X60090006Y-20170844D01*
G01X60075480Y-20163554D01*
G01X60059618Y-20160015D01*
G01X60043372Y-20160441D01*
G01X60027717Y-20164806D01*
G01X60027717Y-20164806D01*
G01X59494376Y-20164806D01*
G01X59165493Y-19835924D01*
G01X59156217Y-19828311D01*
G01X59145634Y-19822654D01*
G01X59134151Y-19819171D01*
G01X59122208Y-19817994D01*
G01X58750303Y-19817994D01*
G01X58750303Y-19817994D01*
G01X58734648Y-19813630D01*
G01X58718402Y-19813204D01*
G01X58702540Y-19816742D01*
G01X58688014Y-19824032D01*
G01X58675699Y-19834637D01*
G01X58666332Y-19847918D01*
G01X58660477Y-19863079D01*
G01X58658486Y-19879208D01*
G01X58552594Y-19879208D01*
G01X58630722Y-19801081D01*
G01X58630722Y-19801081D01*
G01X58630974Y-19800976D01*
G01X58630974Y-19800976D01*
G01X59473027Y-19800976D01*
G01X59603282Y-19931232D01*
G01X59611265Y-19945388D01*
G01X59622452Y-19957177D01*
G01X59636170Y-19965891D01*
G01X59651596Y-19971007D01*
G01X59667803Y-19972217D01*
G01X59683817Y-19969448D01*
G01X59698678Y-19962868D01*
G01X59711491Y-19952871D01*
G01X59711491Y-19952871D01*
G01X59721488Y-19940058D01*
G01X59728068Y-19925197D01*
G01X59730837Y-19909183D01*
G01X59729627Y-19892976D01*
G01X59724511Y-19877550D01*
G01X59715797Y-19863832D01*
G01X59704008Y-19852645D01*
G01X59689852Y-19844662D01*
G01X59541667Y-19696478D01*
G01X59532391Y-19688865D01*
G01X59521808Y-19683208D01*
G01X59510325Y-19679725D01*
G01X59498382Y-19678548D01*
G01X58630974Y-19678548D01*
G01X58630722Y-19678444D01*
G01X58630722Y-19678444D01*
G01X58513885Y-19561607D01*
G01X58866766Y-19561607D01*
G01X58868693Y-19577477D01*
G01X58874362Y-19592424D01*
G01X58883443Y-19605581D01*
G01X58895409Y-19616182D01*
G01X58909565Y-19623612D01*
G01X58925087Y-19627437D01*
G01X58941073Y-19627437D01*
G01X58956595Y-19623612D01*
G01X58970751Y-19616182D01*
G01X58982717Y-19605581D01*
G01X58991798Y-19592424D01*
G01X58997467Y-19577477D01*
G01X58999394Y-19561607D01*
G01X58997467Y-19545737D01*
G01X58992862Y-19533594D01*
G01X59435744Y-19533594D01*
G01X59437145Y-19548787D01*
G01X59441982Y-19563257D01*
G01X59449997Y-19576238D01*
G01X59460767Y-19587045D01*
G01X59473722Y-19595104D01*
G01X59488176Y-19599989D01*
G01X59503364Y-19601441D01*
G01X59518481Y-19599384D01*
G01X59532729Y-19593926D01*
G01X59536296Y-19608760D01*
G01X59543159Y-19622386D01*
G01X59552955Y-19634083D01*
G01X59565165Y-19643231D01*
G01X59579142Y-19649347D01*
G01X59594147Y-19652107D01*
G01X59609386Y-19651364D01*
G01X59624052Y-19647159D01*
G01X59637369Y-19639712D01*
G01X59648631Y-19629420D01*
G01X59657243Y-19616826D01*
G01X59662748Y-19602597D01*
G01X59664856Y-19587486D01*
G01X59663455Y-19572293D01*
G01X59658618Y-19557823D01*
G01X59650603Y-19544842D01*
G01X59639833Y-19534035D01*
G01X59626878Y-19525976D01*
G01X59612424Y-19521091D01*
G01X59597236Y-19519639D01*
G01X59582119Y-19521696D01*
G01X59567871Y-19527154D01*
G01X59567871Y-19527154D01*
G01X59564304Y-19512320D01*
G01X59557441Y-19498694D01*
G01X59547645Y-19486997D01*
G01X59535435Y-19477849D01*
G01X59521458Y-19471733D01*
G01X59506453Y-19468973D01*
G01X59491214Y-19469716D01*
G01X59476548Y-19473921D01*
G01X59463231Y-19481368D01*
G01X59451969Y-19491660D01*
G01X59443357Y-19504254D01*
G01X59443357Y-19504254D01*
G01X59437852Y-19518483D01*
G01X59435744Y-19533594D01*
G01X58992862Y-19533594D01*
G01X58991798Y-19530789D01*
G01X58982717Y-19517632D01*
G01X58970751Y-19507031D01*
G01X58956595Y-19499602D01*
G01X58941073Y-19495776D01*
G01X58925087Y-19495776D01*
G01X58909565Y-19499602D01*
G01X58895409Y-19507031D01*
G01X58883443Y-19517632D01*
G01X58874362Y-19530789D01*
G01X58868693Y-19545737D01*
G01X58866766Y-19561607D01*
G01X58866766Y-19561607D01*
G01X58513885Y-19561607D01*
G01X58439406Y-19487128D01*
G01X58439406Y-19215203D01*
G01X58443770Y-19199548D01*
G01X58444196Y-19183302D01*
G01X58440658Y-19167440D01*
G01X58439082Y-19164300D01*
G01X58921821Y-19164300D01*
G01X58923748Y-19180170D01*
G01X58929417Y-19195118D01*
G01X58938498Y-19208274D01*
G01X58950465Y-19218875D01*
G01X58964620Y-19226305D01*
G01X58980142Y-19230131D01*
G01X58996129Y-19230131D01*
G01X59011651Y-19226305D01*
G01X59012217Y-19226008D01*
G01X59395110Y-19226008D01*
G01X59396405Y-19240962D01*
G01X59401030Y-19255242D01*
G01X59408748Y-19268116D01*
G01X59419164Y-19278924D01*
G01X59431743Y-19287113D01*
G01X59431743Y-19287113D01*
G01X59445842Y-19292263D01*
G01X59460739Y-19294111D01*
G01X59475668Y-19292561D01*
G01X59489867Y-19287693D01*
G01X59502608Y-19279756D01*
G01X59513237Y-19269158D01*
G01X59521210Y-19256441D01*
G01X59526119Y-19242256D01*
G01X59527712Y-19227330D01*
G01X59525908Y-19212429D01*
G01X59538912Y-19204932D01*
G01X59549896Y-19194702D01*
G01X59558299Y-19182264D01*
G01X59563689Y-19168255D01*
G01X59565790Y-19153392D01*
G01X59564495Y-19138438D01*
G01X59559870Y-19124158D01*
G01X59552152Y-19111284D01*
G01X59541736Y-19100476D01*
G01X59529157Y-19092287D01*
G01X59529157Y-19092287D01*
G01X59515058Y-19087137D01*
G01X59500161Y-19085289D01*
G01X59485232Y-19086839D01*
G01X59471033Y-19091707D01*
G01X59458292Y-19099644D01*
G01X59447663Y-19110242D01*
G01X59439690Y-19122959D01*
G01X59434781Y-19137144D01*
G01X59433188Y-19152070D01*
G01X59434992Y-19166971D01*
G01X59421988Y-19174468D01*
G01X59411004Y-19184698D01*
G01X59402601Y-19197136D01*
G01X59397211Y-19211145D01*
G01X59395110Y-19226008D01*
G01X59012217Y-19226008D01*
G01X59025806Y-19218875D01*
G01X59037772Y-19208274D01*
G01X59046853Y-19195118D01*
G01X59052522Y-19180170D01*
G01X59054449Y-19164300D01*
G01X59052522Y-19148430D01*
G01X59046853Y-19133482D01*
G01X59037772Y-19120326D01*
G01X59025806Y-19109725D01*
G01X59011651Y-19102295D01*
G01X58996129Y-19098469D01*
G01X58980142Y-19098469D01*
G01X58964620Y-19102295D01*
G01X58950465Y-19109725D01*
G01X58938498Y-19120326D01*
G01X58929417Y-19133482D01*
G01X58923748Y-19148430D01*
G01X58921821Y-19164300D01*
G01X58921821Y-19164300D01*
G01X58439082Y-19164300D01*
G01X58433368Y-19152914D01*
G01X58422763Y-19140599D01*
G01X58409482Y-19131232D01*
G01X58394321Y-19125377D01*
G01X58378192Y-19123386D01*
G01X58362062Y-19125377D01*
G01X58346901Y-19131232D01*
G01X58333620Y-19140599D01*
G01X58323016Y-19152914D01*
G01X58315725Y-19167440D01*
G01X58312187Y-19183302D01*
G01X58312613Y-19199548D01*
G01X58316978Y-19215203D01*
G01X58316978Y-19412135D01*
G01X58304982Y-19401626D01*
G01X58290824Y-19394285D01*
G01X58275322Y-19390537D01*
G01X58259375Y-19390598D01*
G01X58243903Y-19394465D01*
G01X58229801Y-19401913D01*
G01X58217886Y-19412513D01*
G01X58208846Y-19425651D01*
G01X58203204Y-19440568D01*
G01X58201286Y-19456400D01*
G01X58203204Y-19472232D01*
G01X58208846Y-19487149D01*
G01X58217886Y-19500287D01*
G01X58229801Y-19510887D01*
G01X58243903Y-19518335D01*
G01X58259375Y-19522202D01*
G01X58275322Y-19522263D01*
G01X58290824Y-19518515D01*
G01X58304982Y-19511174D01*
G01X58316978Y-19500665D01*
G01X58316978Y-19512483D01*
G01X58318154Y-19524425D01*
G01X58321637Y-19535909D01*
G01X58327294Y-19546492D01*
G01X58334907Y-19555768D01*
G01X58518901Y-19739762D01*
G01X58376915Y-19881748D01*
G01X57259684Y-19881748D01*
G01X57523485Y-19617947D01*
G01X57531098Y-19608671D01*
G01X57536754Y-19598088D01*
G01X57540238Y-19586605D01*
G01X57541414Y-19574662D01*
G01X57541414Y-19469203D01*
G01X57545255Y-19456562D01*
G01X57546513Y-19443411D01*
G01X57561559Y-19446325D01*
G01X57576872Y-19445707D01*
G01X57591635Y-19441591D01*
G01X57605058Y-19434195D01*
G01X57616425Y-19423916D01*
G01X57625128Y-19411302D01*
G01X57630704Y-19397027D01*
G01X57632853Y-19381853D01*
G01X57631462Y-19366590D01*
G01X57626605Y-19352055D01*
G01X57618541Y-19339023D01*
G01X57607700Y-19328190D01*
G01X57594662Y-19320135D01*
G01X57580123Y-19315288D01*
G01X57584077Y-19299725D01*
G01X57584173Y-19283667D01*
G01X57598873Y-19290692D01*
G01X57614842Y-19293921D01*
G01X57631117Y-19293159D01*
G01X57646714Y-19288451D01*
G01X57660693Y-19280083D01*
G01X57672209Y-19268559D01*
G01X57680569Y-19254574D01*
G01X57693274Y-19262407D01*
G01X57707408Y-19267200D01*
G01X57722257Y-19268710D01*
G01X57737067Y-19266861D01*
G01X57751089Y-19261747D01*
G01X57763611Y-19253627D01*
G01X57764025Y-19253200D01*
G01X57921886Y-19253200D01*
G01X57923813Y-19269070D01*
G01X57929482Y-19284018D01*
G01X57938563Y-19297174D01*
G01X57950529Y-19307775D01*
G01X57964685Y-19315205D01*
G01X57980207Y-19319031D01*
G01X57996193Y-19319031D01*
G01X58011715Y-19315205D01*
G01X58025871Y-19307775D01*
G01X58037837Y-19297174D01*
G01X58046918Y-19284018D01*
G01X58052587Y-19269070D01*
G01X58054514Y-19253200D01*
G01X58052587Y-19237330D01*
G01X58046918Y-19222382D01*
G01X58037837Y-19209226D01*
G01X58025871Y-19198625D01*
G01X58011715Y-19191195D01*
G01X57996193Y-19187369D01*
G01X57980207Y-19187369D01*
G01X57964685Y-19191195D01*
G01X57950529Y-19198625D01*
G01X57938563Y-19209226D01*
G01X57929482Y-19222382D01*
G01X57923813Y-19237330D01*
G01X57921886Y-19253200D01*
G01X57921886Y-19253200D01*
G01X57764025Y-19253200D01*
G01X57774001Y-19242912D01*
G01X57781731Y-19230144D01*
G01X57786410Y-19215972D01*
G01X57787802Y-19201111D01*
G01X57785834Y-19186316D01*
G01X57780608Y-19172336D01*
G01X57772387Y-19159879D01*
G01X57761589Y-19149576D01*
G01X57748760Y-19141948D01*
G01X57734550Y-19137383D01*
G01X57719680Y-19136111D01*
G01X57704901Y-19138197D01*
G01X57690963Y-19143535D01*
G01X57678572Y-19151855D01*
G01X57668356Y-19162736D01*
G01X57660831Y-19175626D01*
G01X57660831Y-19175626D01*
G01X57647550Y-19167525D01*
G01X57632746Y-19162742D01*
G01X57617236Y-19161539D01*
G01X57601872Y-19163984D01*
G01X57587500Y-19169940D01*
G01X57574912Y-19179080D01*
G01X57564799Y-19190902D01*
G01X57557719Y-19204755D01*
G01X57554061Y-19219876D01*
G01X57554027Y-19235433D01*
G01X57541034Y-19229004D01*
G01X57526955Y-19225553D01*
G01X57512462Y-19225243D01*
G01X57498248Y-19228090D01*
G01X57484992Y-19233958D01*
G01X57473328Y-19242565D01*
G01X57463813Y-19253501D01*
G01X57456902Y-19266243D01*
G01X57452924Y-19280183D01*
G01X57452071Y-19294654D01*
G01X57454382Y-19308965D01*
G01X57459747Y-19322431D01*
G01X57467911Y-19334410D01*
G01X57478482Y-19344329D01*
G01X57490956Y-19351714D01*
G01X57504737Y-19356212D01*
G01X57501667Y-19366547D01*
G01X57500312Y-19377242D01*
G01X57274714Y-19151644D01*
G01X57274714Y-18961100D01*
G01X58404486Y-18961100D01*
G01X58406413Y-18976970D01*
G01X58412082Y-18991918D01*
G01X58421163Y-19005074D01*
G01X58433129Y-19015675D01*
G01X58447285Y-19023105D01*
G01X58462807Y-19026931D01*
G01X58478793Y-19026931D01*
G01X58494315Y-19023105D01*
G01X58508471Y-19015675D01*
G01X58520437Y-19005074D01*
G01X58529518Y-18991918D01*
G01X58531573Y-18986500D01*
G01X58633086Y-18986500D01*
G01X58635013Y-19002370D01*
G01X58640682Y-19017318D01*
G01X58649763Y-19030474D01*
G01X58661729Y-19041075D01*
G01X58675885Y-19048505D01*
G01X58691407Y-19052331D01*
G01X58707393Y-19052331D01*
G01X58722915Y-19048505D01*
G01X58737071Y-19041075D01*
G01X58749037Y-19030474D01*
G01X58758118Y-19017318D01*
G01X58763787Y-19002370D01*
G01X58765714Y-18986500D01*
G01X58763787Y-18970630D01*
G01X58758118Y-18955682D01*
G01X58749037Y-18942526D01*
G01X58737071Y-18931925D01*
G01X58722915Y-18924495D01*
G01X58707393Y-18920669D01*
G01X58691407Y-18920669D01*
G01X58675885Y-18924495D01*
G01X58661729Y-18931925D01*
G01X58649763Y-18942526D01*
G01X58640682Y-18955682D01*
G01X58635013Y-18970630D01*
G01X58633086Y-18986500D01*
G01X58633086Y-18986500D01*
G01X58531573Y-18986500D01*
G01X58535187Y-18976970D01*
G01X58537114Y-18961100D01*
G01X58535187Y-18945230D01*
G01X58529518Y-18930282D01*
G01X58520437Y-18917126D01*
G01X58508471Y-18906525D01*
G01X58494315Y-18899095D01*
G01X58478793Y-18895269D01*
G01X58462807Y-18895269D01*
G01X58447285Y-18899095D01*
G01X58433129Y-18906525D01*
G01X58421163Y-18917126D01*
G01X58412082Y-18930282D01*
G01X58406413Y-18945230D01*
G01X58404486Y-18961100D01*
G01X58404486Y-18961100D01*
G01X57274714Y-18961100D01*
G01X57274714Y-18846800D01*
G01X58633086Y-18846800D01*
G01X58635013Y-18862670D01*
G01X58640682Y-18877618D01*
G01X58649763Y-18890774D01*
G01X58661729Y-18901375D01*
G01X58675885Y-18908805D01*
G01X58691407Y-18912631D01*
G01X58707393Y-18912631D01*
G01X58722915Y-18908805D01*
G01X58737071Y-18901375D01*
G01X58749037Y-18890774D01*
G01X58758118Y-18877618D01*
G01X58763787Y-18862670D01*
G01X58765714Y-18846800D01*
G01X58764374Y-18835760D01*
G01X59191907Y-18835760D01*
G01X59194102Y-18851101D01*
G01X59199798Y-18865513D01*
G01X59208684Y-18878210D01*
G01X59220274Y-18888498D01*
G01X59233935Y-18895815D01*
G01X59230599Y-18909360D01*
G01X59230171Y-18923303D01*
G01X59232668Y-18937028D01*
G01X59232668Y-18937028D01*
G01X59237982Y-18949926D01*
G01X59245875Y-18961427D01*
G01X59256001Y-18971022D01*
G01X59240744Y-18973325D01*
G01X59226432Y-18979090D01*
G01X59213840Y-18988007D01*
G01X59203650Y-18999593D01*
G01X59196412Y-19013220D01*
G01X59192520Y-19028151D01*
G01X59192184Y-19043576D01*
G01X59195421Y-19058663D01*
G01X59202057Y-19072592D01*
G01X59211733Y-19084611D01*
G01X59223924Y-19094069D01*
G01X59237970Y-19100453D01*
G01X59253112Y-19103419D01*
G01X59268530Y-19102805D01*
G01X59283388Y-19098644D01*
G01X59296882Y-19091163D01*
G01X59308283Y-19080766D01*
G01X59316972Y-19068015D01*
G01X59322479Y-19053602D01*
G01X59324506Y-19038306D01*
G01X59324252Y-19035809D01*
G01X59344303Y-19035809D01*
G01X59345865Y-19051686D01*
G01X59351174Y-19066729D01*
G01X59359922Y-19080070D01*
G01X59371602Y-19090935D01*
G01X59385540Y-19098697D01*
G01X59400928Y-19102905D01*
G01X59416875Y-19103316D01*
G01X59432460Y-19099908D01*
G01X59446779Y-19092875D01*
G01X59459005Y-19082627D01*
G01X59468429Y-19069755D01*
G01X59474507Y-19055005D01*
G01X59485783Y-19065448D01*
G01X59499161Y-19073015D01*
G01X59513921Y-19077299D01*
G01X59529271Y-19078070D01*
G01X59544387Y-19075286D01*
G01X59558455Y-19069098D01*
G01X59570721Y-19059837D01*
G01X59580526Y-19048001D01*
G01X59580526Y-19067677D01*
G01X59576713Y-19080176D01*
G01X59575426Y-19093180D01*
G01X59576713Y-19106184D01*
G01X59580526Y-19118683D01*
G01X59580526Y-19433540D01*
G01X59581702Y-19445482D01*
G01X59585186Y-19456966D01*
G01X59590842Y-19467549D01*
G01X59598455Y-19476825D01*
G01X60136786Y-20015156D01*
G01X60136786Y-20269244D01*
G01X59797280Y-20608751D01*
G01X59797280Y-20608751D01*
G01X59803860Y-20594518D01*
G01X59806915Y-20579138D01*
G01X59806273Y-20563470D01*
G01X59801970Y-20548392D01*
G01X59794247Y-20534745D01*
G01X59783536Y-20523293D01*
G01X59770435Y-20514676D01*
G01X59755677Y-20509376D01*
G01X59740087Y-20507690D01*
G01X59724538Y-20509711D01*
G01X59709897Y-20515327D01*
G01X59696984Y-20524223D01*
G01X59686522Y-20535903D01*
G01X59679094Y-20549712D01*
G01X59674884Y-20535486D01*
G01X59667616Y-20522552D01*
G01X59657655Y-20511558D01*
G01X59645499Y-20503053D01*
G01X59631756Y-20497463D01*
G01X59617114Y-20495069D01*
G01X59602307Y-20495989D01*
G01X59597199Y-20481423D01*
G01X59588863Y-20468432D01*
G01X59577748Y-20457720D01*
G01X59564458Y-20449869D01*
G01X59549714Y-20445302D01*
G01X59534312Y-20444267D01*
G01X59519089Y-20446822D01*
G01X59504869Y-20452826D01*
G01X59492422Y-20461956D01*
G01X59482423Y-20473716D01*
G01X59475414Y-20487468D01*
G01X59471774Y-20502469D01*
G01X59471701Y-20517905D01*
G01X59475198Y-20532939D01*
G01X59482076Y-20546758D01*
G01X59491963Y-20558612D01*
G01X59504322Y-20567860D01*
G01X59518484Y-20573999D01*
G01X59533683Y-20576698D01*
G01X59549093Y-20575811D01*
G01X59553815Y-20589572D01*
G01X59561423Y-20601972D01*
G01X59571553Y-20612415D01*
G01X59583716Y-20620398D01*
G01X59597328Y-20625536D01*
G01X59611732Y-20627582D01*
G01X59611209Y-20642933D01*
G01X59614232Y-20657993D01*
G01X59620639Y-20671954D01*
G01X59630086Y-20684066D01*
G01X59642066Y-20693679D01*
G01X59655936Y-20700279D01*
G01X59670953Y-20703510D01*
G01X59686310Y-20703199D01*
G01X59701184Y-20699364D01*
G01X59714777Y-20692209D01*
G01X59726358Y-20682119D01*
G01X59735308Y-20669635D01*
G01X59741145Y-20655427D01*
G01X59743557Y-20640257D01*
G01X59756280Y-20638482D01*
G01X59768422Y-20634288D01*
G01X59779527Y-20627831D01*
G01X59779527Y-20627831D01*
G01X59773479Y-20638686D01*
G01X59769747Y-20650538D01*
G01X59768486Y-20662900D01*
G01X59768486Y-21335897D01*
G01X59764121Y-21351552D01*
G01X59763695Y-21367798D01*
G01X59767234Y-21383660D01*
G01X59774524Y-21398186D01*
G01X59785128Y-21410501D01*
G01X59798410Y-21419868D01*
G01X59813570Y-21425723D01*
G01X59829700Y-21427714D01*
G01X59845830Y-21425723D01*
G01X59860990Y-21419868D01*
G01X59874272Y-21410501D01*
G01X59884876Y-21398186D01*
G01X59892166Y-21383660D01*
G01X59895705Y-21367798D01*
G01X59895537Y-21361400D01*
G01X60106286Y-21361400D01*
G01X60108213Y-21377270D01*
G01X60113882Y-21392218D01*
G01X60122963Y-21405374D01*
G01X60134929Y-21415975D01*
G01X60149085Y-21423405D01*
G01X60164607Y-21427231D01*
G01X60180593Y-21427231D01*
G01X60196115Y-21423405D01*
G01X60210271Y-21415975D01*
G01X60222237Y-21405374D01*
G01X60231318Y-21392218D01*
G01X60236987Y-21377270D01*
G01X60238914Y-21361400D01*
G01X60236987Y-21345530D01*
G01X60231318Y-21330582D01*
G01X60222237Y-21317426D01*
G01X60210271Y-21306825D01*
G01X60196115Y-21299395D01*
G01X60180593Y-21295569D01*
G01X60164607Y-21295569D01*
G01X60149085Y-21299395D01*
G01X60134929Y-21306825D01*
G01X60122963Y-21317426D01*
G01X60113882Y-21330582D01*
G01X60108213Y-21345530D01*
G01X60106286Y-21361400D01*
G01X60106286Y-21361400D01*
G01X59895537Y-21361400D01*
G01X59895279Y-21351552D01*
G01X59890914Y-21335897D01*
G01X59890914Y-20688256D01*
G01X59953700Y-20625470D01*
G01X59964832Y-20637464D01*
G01X59978562Y-20646367D01*
G01X59994054Y-20651637D01*
G01X60010365Y-20652952D01*
G01X60026501Y-20650233D01*
G01X60041481Y-20643646D01*
G01X60054391Y-20633591D01*
G01X60064446Y-20620681D01*
G01X60071033Y-20605701D01*
G01X60073752Y-20589565D01*
G01X60072437Y-20573254D01*
G01X60067167Y-20557762D01*
G01X60058264Y-20544032D01*
G01X60046270Y-20532900D01*
G01X60241285Y-20337885D01*
G01X60248898Y-20328609D01*
G01X60254554Y-20318026D01*
G01X60258038Y-20306542D01*
G01X60259214Y-20294600D01*
G01X60259214Y-20269200D01*
G01X60792086Y-20269200D01*
G01X60794013Y-20285070D01*
G01X60799682Y-20300018D01*
G01X60808763Y-20313174D01*
G01X60820729Y-20323775D01*
G01X60834885Y-20331205D01*
G01X60850407Y-20335031D01*
G01X60866393Y-20335031D01*
G01X60881915Y-20331205D01*
G01X60896071Y-20323775D01*
G01X60908037Y-20313174D01*
G01X60917118Y-20300018D01*
G01X60922787Y-20285070D01*
G01X60924714Y-20269200D01*
G01X60922787Y-20253330D01*
G01X60917118Y-20238382D01*
G01X60908037Y-20225226D01*
G01X60896071Y-20214625D01*
G01X60881915Y-20207195D01*
G01X60866393Y-20203369D01*
G01X60850407Y-20203369D01*
G01X60834885Y-20207195D01*
G01X60820729Y-20214625D01*
G01X60808763Y-20225226D01*
G01X60799682Y-20238382D01*
G01X60794013Y-20253330D01*
G01X60792086Y-20269200D01*
G01X60792086Y-20269200D01*
G01X60259214Y-20269200D01*
G01X60259214Y-19989800D01*
G01X60258038Y-19977858D01*
G01X60254554Y-19966374D01*
G01X60248898Y-19955791D01*
G01X60241285Y-19946515D01*
G01X59967070Y-19672300D01*
G01X60766686Y-19672300D01*
G01X60768613Y-19688170D01*
G01X60774282Y-19703118D01*
G01X60783363Y-19716274D01*
G01X60795329Y-19726875D01*
G01X60809485Y-19734305D01*
G01X60825007Y-19738131D01*
G01X60840993Y-19738131D01*
G01X60856515Y-19734305D01*
G01X60870671Y-19726875D01*
G01X60882637Y-19716274D01*
G01X60891718Y-19703118D01*
G01X60897387Y-19688170D01*
G01X60899314Y-19672300D01*
G01X60897387Y-19656430D01*
G01X60891718Y-19641482D01*
G01X60882637Y-19628326D01*
G01X60870671Y-19617725D01*
G01X60856515Y-19610295D01*
G01X60840993Y-19606469D01*
G01X60825007Y-19606469D01*
G01X60809485Y-19610295D01*
G01X60795329Y-19617725D01*
G01X60783363Y-19628326D01*
G01X60774282Y-19641482D01*
G01X60768613Y-19656430D01*
G01X60766686Y-19672300D01*
G01X60766686Y-19672300D01*
G01X59967070Y-19672300D01*
G01X59702954Y-19408184D01*
G01X59702954Y-19118683D01*
G01X59706767Y-19106184D01*
G01X59708054Y-19093180D01*
G01X59706767Y-19080176D01*
G01X59702954Y-19067677D01*
G01X59702954Y-18925540D01*
G01X59701778Y-18913598D01*
G01X59698294Y-18902114D01*
G01X59692638Y-18891531D01*
G01X59685025Y-18882255D01*
G01X59625875Y-18823105D01*
G01X59639879Y-18818871D01*
G01X59652613Y-18811669D01*
G01X59663459Y-18801850D01*
G01X59671887Y-18789891D01*
G01X59677488Y-18776376D01*
G01X59679990Y-18761961D01*
G01X59679269Y-18747349D01*
G01X59675363Y-18733250D01*
G01X59668459Y-18720351D01*
G01X59668459Y-18720351D01*
G01X59679283Y-18709144D01*
G01X59687192Y-18695721D01*
G01X59691752Y-18680822D01*
G01X59692709Y-18665271D01*
G01X59706949Y-18668733D01*
G01X59721601Y-18668983D01*
G01X59735951Y-18666009D01*
G01X59749297Y-18659956D01*
G01X59760988Y-18651119D01*
G01X59770452Y-18639930D01*
G01X59777228Y-18626936D01*
G01X59780984Y-18612771D01*
G01X59781538Y-18598127D01*
G01X59778861Y-18583719D01*
G01X59773086Y-18570250D01*
G01X59764493Y-18558379D01*
G01X59753503Y-18548685D01*
G01X59740652Y-18541642D01*
G01X59740652Y-18541642D01*
G01X59736721Y-18537712D01*
G01X59727445Y-18530099D01*
G01X59716862Y-18524442D01*
G01X59705379Y-18520959D01*
G01X59693436Y-18519782D01*
G01X59562104Y-18519782D01*
G01X59550161Y-18520959D01*
G01X59538678Y-18524442D01*
G01X59528095Y-18530099D01*
G01X59518819Y-18537712D01*
G01X59443515Y-18613015D01*
G01X59435902Y-18622291D01*
G01X59430246Y-18632874D01*
G01X59426762Y-18644358D01*
G01X59425586Y-18656300D01*
G01X59425586Y-18770600D01*
G01X59426762Y-18782542D01*
G01X59430246Y-18794026D01*
G01X59435902Y-18804609D01*
G01X59443515Y-18813885D01*
G01X59580526Y-18950896D01*
G01X59580526Y-18975799D01*
G01X59570852Y-18964088D01*
G01X59558766Y-18954886D01*
G01X59544904Y-18948675D01*
G01X59529992Y-18945782D01*
G01X59514813Y-18946358D01*
G01X59500163Y-18950372D01*
G01X59486811Y-18957615D01*
G01X59475458Y-18967707D01*
G01X59466699Y-18980117D01*
G01X59460993Y-18994195D01*
G01X59460993Y-18994195D01*
G01X59449241Y-18983407D01*
G01X59435252Y-18975738D01*
G01X59419836Y-18971632D01*
G01X59403886Y-18971327D01*
G01X59388325Y-18974839D01*
G01X59374053Y-18981966D01*
G01X59361895Y-18992296D01*
G01X59352557Y-19005229D01*
G01X59346577Y-19020019D01*
G01X59344303Y-19035809D01*
G01X59324252Y-19035809D01*
G01X59322944Y-19022956D01*
G01X59317877Y-19008382D01*
G01X59309579Y-18995374D01*
G01X59298499Y-18984636D01*
G01X59313411Y-18982427D01*
G01X59327439Y-18976906D01*
G01X59339858Y-18968361D01*
G01X59350026Y-18957231D01*
G01X59357417Y-18944093D01*
G01X59361650Y-18929624D01*
G01X59362506Y-18914574D01*
G01X59359941Y-18899719D01*
G01X59354086Y-18885827D01*
G01X59345246Y-18873616D01*
G01X59333876Y-18863718D01*
G01X59320565Y-18856643D01*
G01X59324094Y-18841553D01*
G01X59324024Y-18826055D01*
G01X59320360Y-18810998D01*
G01X59313300Y-18797201D01*
G01X59303232Y-18785420D01*
G01X59290704Y-18776298D01*
G01X59276401Y-18770332D01*
G01X59261103Y-18767850D01*
G01X59245648Y-18768985D01*
G01X59230877Y-18773676D01*
G01X59217599Y-18781668D01*
G01X59206539Y-18792523D01*
G01X59198300Y-18805648D01*
G01X59193332Y-18820328D01*
G01X59191907Y-18835760D01*
G01X58764374Y-18835760D01*
G01X58763787Y-18830930D01*
G01X58758118Y-18815982D01*
G01X58749037Y-18802826D01*
G01X58737071Y-18792225D01*
G01X58722915Y-18784795D01*
G01X58707393Y-18780969D01*
G01X58691407Y-18780969D01*
G01X58675885Y-18784795D01*
G01X58661729Y-18792225D01*
G01X58649763Y-18802826D01*
G01X58640682Y-18815982D01*
G01X58635013Y-18830930D01*
G01X58633086Y-18846800D01*
G01X58633086Y-18846800D01*
G01X57274714Y-18846800D01*
G01X57274714Y-18778240D01*
G01X58029228Y-18778240D01*
G01X58031155Y-18794110D01*
G01X58036824Y-18809057D01*
G01X58045905Y-18822214D01*
G01X58057871Y-18832815D01*
G01X58072027Y-18840245D01*
G01X58087549Y-18844070D01*
G01X58103535Y-18844070D01*
G01X58119057Y-18840245D01*
G01X58133213Y-18832815D01*
G01X58145179Y-18822214D01*
G01X58154260Y-18809057D01*
G01X58159929Y-18794110D01*
G01X58161856Y-18778240D01*
G01X58159929Y-18762370D01*
G01X58158234Y-18757900D01*
G01X58328286Y-18757900D01*
G01X58330213Y-18773770D01*
G01X58335882Y-18788718D01*
G01X58344963Y-18801874D01*
G01X58356929Y-18812475D01*
G01X58371085Y-18819905D01*
G01X58386607Y-18823731D01*
G01X58402593Y-18823731D01*
G01X58418115Y-18819905D01*
G01X58432271Y-18812475D01*
G01X58444237Y-18801874D01*
G01X58453318Y-18788718D01*
G01X58458987Y-18773770D01*
G01X58460914Y-18757900D01*
G01X58458987Y-18742030D01*
G01X58455373Y-18732500D01*
G01X58735309Y-18732500D01*
G01X58737236Y-18748370D01*
G01X58742905Y-18763318D01*
G01X58751986Y-18776474D01*
G01X58763952Y-18787075D01*
G01X58778108Y-18794505D01*
G01X58793630Y-18798331D01*
G01X58809616Y-18798331D01*
G01X58825138Y-18794505D01*
G01X58839294Y-18787075D01*
G01X58851260Y-18776474D01*
G01X58860341Y-18763318D01*
G01X58866010Y-18748370D01*
G01X58867937Y-18732500D01*
G01X58866010Y-18716630D01*
G01X58860341Y-18701682D01*
G01X58851260Y-18688526D01*
G01X58839294Y-18677925D01*
G01X58825138Y-18670495D01*
G01X58809616Y-18666669D01*
G01X58793630Y-18666669D01*
G01X58778108Y-18670495D01*
G01X58763952Y-18677925D01*
G01X58751986Y-18688526D01*
G01X58742905Y-18701682D01*
G01X58737236Y-18716630D01*
G01X58735309Y-18732500D01*
G01X58735309Y-18732500D01*
G01X58455373Y-18732500D01*
G01X58453318Y-18727082D01*
G01X58444237Y-18713926D01*
G01X58432271Y-18703325D01*
G01X58418115Y-18695895D01*
G01X58402593Y-18692069D01*
G01X58386607Y-18692069D01*
G01X58371085Y-18695895D01*
G01X58356929Y-18703325D01*
G01X58344963Y-18713926D01*
G01X58335882Y-18727082D01*
G01X58330213Y-18742030D01*
G01X58328286Y-18757900D01*
G01X58328286Y-18757900D01*
G01X58158234Y-18757900D01*
G01X58154260Y-18747422D01*
G01X58145179Y-18734265D01*
G01X58133213Y-18723664D01*
G01X58119057Y-18716235D01*
G01X58103535Y-18712409D01*
G01X58087549Y-18712409D01*
G01X58072027Y-18716235D01*
G01X58057871Y-18723664D01*
G01X58045905Y-18734265D01*
G01X58036824Y-18747422D01*
G01X58031155Y-18762370D01*
G01X58029228Y-18778240D01*
G01X58029228Y-18778240D01*
G01X57274714Y-18778240D01*
G01X57274714Y-18707056D01*
G01X57335909Y-18645861D01*
G01X58119727Y-18645861D01*
G01X58121654Y-18661731D01*
G01X58127322Y-18676678D01*
G01X58136404Y-18689835D01*
G01X58148370Y-18700436D01*
G01X58162525Y-18707865D01*
G01X58178047Y-18711691D01*
G01X58194034Y-18711691D01*
G01X58209556Y-18707865D01*
G01X58223711Y-18700436D01*
G01X58235677Y-18689835D01*
G01X58244759Y-18676678D01*
G01X58250428Y-18661731D01*
G01X58252355Y-18645861D01*
G01X58250428Y-18629991D01*
G01X58244759Y-18615043D01*
G01X58238172Y-18605500D01*
G01X58417186Y-18605500D01*
G01X58419113Y-18621370D01*
G01X58424782Y-18636318D01*
G01X58433863Y-18649474D01*
G01X58445829Y-18660075D01*
G01X58459985Y-18667505D01*
G01X58475507Y-18671331D01*
G01X58491493Y-18671331D01*
G01X58507015Y-18667505D01*
G01X58521171Y-18660075D01*
G01X58533137Y-18649474D01*
G01X58542218Y-18636318D01*
G01X58547887Y-18621370D01*
G01X58549814Y-18605500D01*
G01X58547887Y-18589630D01*
G01X58542218Y-18574682D01*
G01X58533137Y-18561526D01*
G01X58521171Y-18550925D01*
G01X58507015Y-18543495D01*
G01X58491493Y-18539669D01*
G01X58475507Y-18539669D01*
G01X58459985Y-18543495D01*
G01X58445829Y-18550925D01*
G01X58433863Y-18561526D01*
G01X58424782Y-18574682D01*
G01X58419113Y-18589630D01*
G01X58417186Y-18605500D01*
G01X58417186Y-18605500D01*
G01X58238172Y-18605500D01*
G01X58235677Y-18601886D01*
G01X58223711Y-18591285D01*
G01X58209556Y-18583856D01*
G01X58194034Y-18580030D01*
G01X58178047Y-18580030D01*
G01X58162525Y-18583856D01*
G01X58148370Y-18591285D01*
G01X58136404Y-18601886D01*
G01X58127322Y-18615043D01*
G01X58121654Y-18629991D01*
G01X58119727Y-18645861D01*
G01X58119727Y-18645861D01*
G01X57335909Y-18645861D01*
G01X57492856Y-18488914D01*
G01X58254797Y-18488914D01*
G01X58267296Y-18492727D01*
G01X58280300Y-18494014D01*
G01X58293304Y-18492727D01*
G01X58305803Y-18488914D01*
G01X58712144Y-18488914D01*
G01X58851442Y-18628212D01*
G01X58859425Y-18642368D01*
G01X58870612Y-18654157D01*
G01X58884330Y-18662871D01*
G01X58899756Y-18667987D01*
G01X58915963Y-18669197D01*
G01X58931977Y-18666428D01*
G01X58946838Y-18659848D01*
G01X58959651Y-18649851D01*
G01X58969648Y-18637038D01*
G01X58976228Y-18622177D01*
G01X58978997Y-18606163D01*
G01X58977787Y-18589956D01*
G01X58972671Y-18574530D01*
G01X58963957Y-18560812D01*
G01X58952168Y-18549625D01*
G01X58938012Y-18541642D01*
G01X58780785Y-18384415D01*
G01X58771509Y-18376802D01*
G01X58760926Y-18371146D01*
G01X58749442Y-18367662D01*
G01X58737500Y-18366486D01*
G01X58305803Y-18366486D01*
G01X58293304Y-18362673D01*
G01X58280300Y-18361386D01*
G01X58267296Y-18362673D01*
G01X58254797Y-18366486D01*
G01X57467500Y-18366486D01*
G01X57455558Y-18367662D01*
G01X57444074Y-18371146D01*
G01X57433491Y-18376802D01*
G01X57424215Y-18384415D01*
G01X57170215Y-18638415D01*
G01X57170215Y-18638415D01*
G01X57162602Y-18647691D01*
G01X57156946Y-18658274D01*
G01X57153462Y-18669758D01*
G01X57152286Y-18681700D01*
G01X57152286Y-19177000D01*
G01X57153462Y-19188942D01*
G01X57156946Y-19200426D01*
G01X57162602Y-19211009D01*
G01X57170215Y-19220285D01*
G01X57418882Y-19468952D01*
G01X57418986Y-19469203D01*
G01X57418986Y-19549307D01*
G01X57086648Y-19881644D01*
G01X57073621Y-19888812D01*
G01X57062518Y-19898702D01*
G01X57053898Y-19910817D01*
G01X57048194Y-19924548D01*
G01X57045692Y-19939205D01*
G01X56922614Y-19939205D01*
G01X56922614Y-18100802D01*
G01X57798208Y-18100802D01*
G01X57800196Y-18124799D01*
G01X57806108Y-18148142D01*
G01X57815780Y-18170193D01*
G01X57828950Y-18190352D01*
G01X57845259Y-18208068D01*
G01X57864261Y-18222858D01*
G01X57885438Y-18234318D01*
G01X57908213Y-18242137D01*
G01X57931964Y-18246100D01*
G01X57956044Y-18246100D01*
G01X57979795Y-18242137D01*
G01X58002570Y-18234318D01*
G01X58023747Y-18222858D01*
G01X58042749Y-18208068D01*
G01X58059058Y-18190352D01*
G01X58072228Y-18170193D01*
G01X58081900Y-18148142D01*
G01X58087812Y-18124799D01*
G01X58089800Y-18100802D01*
G01X58087812Y-18076805D01*
G01X58081900Y-18053462D01*
G01X58072228Y-18031411D01*
G01X58059058Y-18011252D01*
G01X58042749Y-17993536D01*
G01X58023747Y-17978746D01*
G01X58002570Y-17967286D01*
G01X57979795Y-17959467D01*
G01X57956044Y-17955504D01*
G01X57931964Y-17955504D01*
G01X57908213Y-17959467D01*
G01X57885438Y-17967286D01*
G01X57864261Y-17978746D01*
G01X57845259Y-17993536D01*
G01X57828950Y-18011252D01*
G01X57815780Y-18031411D01*
G01X57806108Y-18053462D01*
G01X57800196Y-18076805D01*
G01X57798208Y-18100802D01*
G01X57798208Y-18100802D01*
G01X56922614Y-18100802D01*
G01X56922614Y-17729200D01*
G01X57045586Y-17729200D01*
G01X57047513Y-17745070D01*
G01X57053182Y-17760018D01*
G01X57062263Y-17773174D01*
G01X57074229Y-17783775D01*
G01X57088385Y-17791205D01*
G01X57103907Y-17795031D01*
G01X57119893Y-17795031D01*
G01X57135415Y-17791205D01*
G01X57149571Y-17783775D01*
G01X57161537Y-17773174D01*
G01X57170618Y-17760018D01*
G01X57176287Y-17745070D01*
G01X57178214Y-17729200D01*
G01X57176287Y-17713330D01*
G01X57170618Y-17698382D01*
G01X57161537Y-17685226D01*
G01X57149571Y-17674625D01*
G01X57135415Y-17667195D01*
G01X57119893Y-17663369D01*
G01X57103907Y-17663369D01*
G01X57088385Y-17667195D01*
G01X57074229Y-17674625D01*
G01X57062263Y-17685226D01*
G01X57053182Y-17698382D01*
G01X57047513Y-17713330D01*
G01X57045586Y-17729200D01*
G01X57045586Y-17729200D01*
G01X56922614Y-17729200D01*
G01X56922614Y-16546017D01*
G01X57290889Y-16546017D01*
G01X57292730Y-16564710D01*
G01X57298182Y-16582684D01*
G01X57307036Y-16599249D01*
G01X57318952Y-16613768D01*
G01X57333471Y-16625684D01*
G01X57350036Y-16634538D01*
G01X57368010Y-16639990D01*
G01X57386703Y-16641831D01*
G01X57405395Y-16639990D01*
G01X57423369Y-16634538D01*
G01X57439934Y-16625684D01*
G01X57454453Y-16613768D01*
G01X57466369Y-16599249D01*
G01X57475223Y-16582684D01*
G01X57480675Y-16564710D01*
G01X57482516Y-16546017D01*
G01X57480675Y-16527325D01*
G01X57475223Y-16509351D01*
G01X57466369Y-16492786D01*
G01X57454453Y-16478267D01*
G01X57439934Y-16466351D01*
G01X57423369Y-16457497D01*
G01X57405395Y-16452044D01*
G01X57386703Y-16450203D01*
G01X57368010Y-16452044D01*
G01X57350036Y-16457497D01*
G01X57333471Y-16466351D01*
G01X57318952Y-16478267D01*
G01X57307036Y-16492786D01*
G01X57298182Y-16509351D01*
G01X57292730Y-16527325D01*
G01X57290889Y-16546017D01*
G01X57290889Y-16546017D01*
G01X56922614Y-16546017D01*
G01X56922614Y-15764700D01*
G01X56923201Y-15746019D01*
G01X57290889Y-15746019D01*
G01X57292730Y-15764711D01*
G01X57298182Y-15782685D01*
G01X57307036Y-15799250D01*
G01X57318952Y-15813769D01*
G01X57333471Y-15825685D01*
G01X57350036Y-15834539D01*
G01X57368010Y-15839992D01*
G01X57386703Y-15841833D01*
G01X57405395Y-15839992D01*
G01X57423369Y-15834539D01*
G01X57439934Y-15825685D01*
G01X57454453Y-15813769D01*
G01X57466369Y-15799250D01*
G01X57475223Y-15782685D01*
G01X57480675Y-15764711D01*
G01X57482516Y-15746019D01*
G01X57480675Y-15727326D01*
G01X57475223Y-15709352D01*
G01X57466369Y-15692787D01*
G01X57454453Y-15678268D01*
G01X57439934Y-15666352D01*
G01X57423369Y-15657498D01*
G01X57405395Y-15652046D01*
G01X57386703Y-15650205D01*
G01X57368010Y-15652046D01*
G01X57350036Y-15657498D01*
G01X57333471Y-15666352D01*
G01X57318952Y-15678268D01*
G01X57307036Y-15692787D01*
G01X57298182Y-15709352D01*
G01X57292730Y-15727326D01*
G01X57290889Y-15746019D01*
G01X57290889Y-15746019D01*
G01X56923201Y-15746019D01*
G01X56924517Y-15704158D01*
G01X56930217Y-15643855D01*
G01X56939692Y-15584030D01*
G01X56952906Y-15524917D01*
G01X56969805Y-15466750D01*
G01X56990323Y-15409759D01*
G01X57014378Y-15354170D01*
G01X57041877Y-15300200D01*
G01X57072711Y-15248063D01*
G01X57106757Y-15197966D01*
G01X57143882Y-15150105D01*
G01X57183939Y-15104669D01*
G01X57226769Y-15061839D01*
G01X57252144Y-15039468D01*
G01X57721754Y-15039468D01*
G01X57723742Y-15063465D01*
G01X57729654Y-15086808D01*
G01X57739326Y-15108859D01*
G01X57752496Y-15129018D01*
G01X57768805Y-15146734D01*
G01X57787807Y-15161524D01*
G01X57808984Y-15172984D01*
G01X57831759Y-15180803D01*
G01X57855510Y-15184766D01*
G01X57879590Y-15184766D01*
G01X57903341Y-15180803D01*
G01X57926116Y-15172984D01*
G01X57947293Y-15161524D01*
G01X57966295Y-15146734D01*
G01X57982604Y-15129018D01*
G01X57995774Y-15108859D01*
G01X58005446Y-15086808D01*
G01X58011358Y-15063465D01*
G01X58013346Y-15039468D01*
G01X58011358Y-15015471D01*
G01X58005446Y-14992128D01*
G01X57995774Y-14970077D01*
G01X57982604Y-14949918D01*
G01X57966295Y-14932202D01*
G01X57947293Y-14917412D01*
G01X57926116Y-14905952D01*
G01X57903341Y-14898133D01*
G01X57879590Y-14894170D01*
G01X57855510Y-14894170D01*
G01X57831759Y-14898133D01*
G01X57808984Y-14905952D01*
G01X57787807Y-14917412D01*
G01X57768805Y-14932202D01*
G01X57752496Y-14949918D01*
G01X57739326Y-14970077D01*
G01X57729654Y-14992128D01*
G01X57723742Y-15015471D01*
G01X57721754Y-15039468D01*
G01X57721754Y-15039468D01*
G01X57252144Y-15039468D01*
G01X57272205Y-15021782D01*
G01X57320066Y-14984657D01*
G01X57370163Y-14950611D01*
G01X57422300Y-14919777D01*
G01X57476270Y-14892278D01*
G01X57531859Y-14868223D01*
G01X57588850Y-14847705D01*
G01X57647017Y-14830806D01*
G01X57706129Y-14817592D01*
G01X57765955Y-14808117D01*
G01X57826258Y-14802417D01*
G01X57886800Y-14800514D01*
G37*
G54D10*
G01X57886800Y-14800514D02*
G01X58698579Y-14800514D01*
G01X58698579Y-15877286D01*
G01X58314052Y-15877286D01*
G03X58338324Y-15753766I-8352J65786D01*
G03X58342305Y-15640736I-32624J57734D01*
G03X58305700Y-15519126I-36605J55296D01*
G03X58269095Y-15640736I0J-66314D01*
G03X58273076Y-15753766I36605J-55296D01*
G03X58297348Y-15877286I32624J-57734D01*
G01X58089800Y-15877286D01*
G03X58046515Y-15895215I0J-61214D01*
G01X57952434Y-15989297D01*
G03X57934504Y-16032582I43285J-43285D01*
G01X57934504Y-16120210D01*
G03X57934504Y-16171216I61214J-25503D01*
G01X57934504Y-17089063D01*
G01X57787381Y-17236186D01*
G01X57511951Y-17236186D01*
G03X57430993Y-17261037I-25503J-61214D01*
G03X57440474Y-17345191I55455J-36363D01*
G01X57440474Y-17437209D01*
G01X57411979Y-17465704D01*
G01X57248591Y-17465704D01*
G03X57170334Y-17452777I-47791J-45974D01*
G03X57135663Y-17524115I30466J-58901D01*
G03X57078205Y-17636882I-11063J-65385D01*
G03X57189737Y-17577063I46395J47382D01*
G03X57248591Y-17557652I11063J65385D01*
G01X57431022Y-17557652D01*
G03X57463531Y-17544186I0J45974D01*
G01X57518957Y-17488760D01*
G03X57532422Y-17456252I-32509J32509D01*
G01X57532422Y-17358614D01*
G01X57698386Y-17358614D01*
G01X57698386Y-17746726D01*
G01X57369087Y-17746726D01*
G03X57336578Y-17760191I0J-45974D01*
G01X57306871Y-17789898D01*
G03X57258696Y-17903091I-1285J-66302D01*
G03X57371888Y-17854915I46891J46891D01*
G01X57388130Y-17838674D01*
G01X57475425Y-17838674D01*
G03X57515505Y-17957819I40080J-52831D01*
G03X57555585Y-17838674I0J66314D01*
G01X57710712Y-17838674D01*
G03X57795290Y-17849759I48888J44806D01*
G03X57820814Y-17768365I-35690J55890D01*
G01X57820814Y-17375892D01*
G01X57995718Y-17200988D01*
G01X58333386Y-17538656D01*
G01X58333386Y-18249797D01*
G03X58394600Y-18341614I61214J-25503D01*
G03X58455814Y-18249797I0J66314D01*
G01X58455814Y-17513300D01*
G03X58437885Y-17470015I-61214J0D01*
G01X58406367Y-17438498D01*
G03X58481749Y-17349420I13633J64898D01*
G03X58555653Y-17314075I14451J64720D01*
G03X58538825Y-17233900I-59453J29375D01*
G03X58496200Y-17116786I-42625J50800D01*
G03X58453575Y-17233900I0J-66314D01*
G03X58434451Y-17308880I42625J-50800D01*
G03X58355102Y-17387233I-14451J-64720D01*
G01X58056932Y-17089063D01*
G01X58056932Y-16171216D01*
G03X58056932Y-16120210I-61214J25503D01*
G01X58056932Y-16057937D01*
G01X58115156Y-15999714D01*
G01X58245442Y-15999714D01*
G03X58310949Y-16093506I60258J-27686D01*
G03X58302220Y-16179795I45551J-48194D01*
G03X58276666Y-16305638I3480J-66223D01*
G03X58359980Y-16207923I29034J59621D01*
G03X58422670Y-16137335I-3480J66223D01*
G03X58351251Y-16075594I-66170J-4365D01*
G03X58365958Y-15999714I-45551J48194D01*
G01X59367464Y-15999714D01*
G01X59628682Y-16260932D01*
G03X59736891Y-16282571I61318J25252D01*
G03X59715252Y-16174362I-46891J46891D01*
G01X59540604Y-15999714D01*
G01X60268605Y-15999714D01*
G01X60347650Y-16078759D01*
G01X60319815Y-16106594D01*
G03X60301886Y-16149879I43285J-43285D01*
G01X60301886Y-17494364D01*
G03X60319815Y-17537649I61214J0D01*
G01X60778857Y-17996691D01*
G01X60778962Y-17996943D01*
G01X60778962Y-18054850D01*
G03X60699034Y-18066549I-32347J-57890D01*
G01X60699034Y-18066549D01*
G03X60601473Y-18089712I-38754J-53811D01*
G01X60601473Y-18089712D01*
G03X60487952Y-18144978I-47873J-45888D01*
G03X60612407Y-18166248I65648J9378D01*
G01X60612407Y-18166248D01*
G03X60707860Y-18166551I47873J45888D01*
G03X60778962Y-18170630I38754J53811D01*
G01X60778962Y-18179269D01*
G01X60756844Y-18201386D01*
G01X60666764Y-18201386D01*
G03X60623480Y-18219315I0J-61214D01*
G01X60553411Y-18289384D01*
G03X60449104Y-18262490I-61812J-24016D01*
G03X60340296Y-18313400I-42494J-50910D01*
G03X60449104Y-18364310I66314J0D01*
G01X60449104Y-18364310D01*
G03X60467582Y-18375212I42494J50910D01*
G01X60467582Y-18375212D01*
G01X60147348Y-18695446D01*
G03X60111334Y-18731387I25252J-61318D01*
G03X60111386Y-18782267I61266J-25377D01*
G01X60111386Y-19059505D01*
G03X60129315Y-19102790I61214J0D01*
G01X60129315Y-19102790D01*
G01X60283965Y-19257440D01*
G03X60346568Y-19298490I61318J25252D01*
G01X60592868Y-19544790D01*
G03X60625376Y-19558255I32509J32509D01*
G01X60912209Y-19558255D01*
G03X60974986Y-19576880I47791J45974D01*
G01X60974986Y-20650200D01*
G03X60992915Y-20693485I61214J0D01*
G01X61101986Y-20802556D01*
G01X61101986Y-21067502D01*
G01X61101986Y-21067502D01*
G03X61059047Y-21053835I-40386J-52598D01*
G03X61026874Y-20944004I-48247J45495D01*
G03X60946825Y-21025797I-16074J-64336D01*
G03X60909316Y-21115038I23034J-62185D01*
G03X61000821Y-21146624I60543J27056D01*
G03X61005466Y-21155406I60779J26524D01*
G01X61005466Y-21155406D01*
G01X60249609Y-21155406D01*
G01X60061673Y-20967469D01*
G03X59953463Y-20945830I-61318J-25252D01*
G01X59953463Y-20945830D01*
G03X59975103Y-21054039I46891J-46891D01*
G01X60180969Y-21259905D01*
G03X60224254Y-21277834I43285J43285D01*
G01X61119917Y-21277834D01*
G03X61163475Y-21280429I25503J61214D01*
G03X61343603Y-21403203I101325J-44865D01*
G03X61218782Y-21224487I-78803J77909D01*
G03X61224414Y-21198840I-55582J25647D01*
G01X61224414Y-20777200D01*
G03X61206485Y-20733915I-61214J0D01*
G01X61097414Y-20624844D01*
G01X61097414Y-20480752D01*
G03X61229514Y-20472400I65786J8352D01*
G03X61097414Y-20464048I-66314J0D01*
G01X61097414Y-18364200D01*
G03X61079485Y-18320915I-61214J0D01*
G01X61021214Y-18262644D01*
G01X61021214Y-18073898D01*
G03X61110531Y-18066059I40386J52598D01*
G01X61110531Y-18066059D01*
G03X61110400Y-17976399I-48931J44759D01*
G03X61111215Y-17887499I-48800J44901D01*
G03X61113719Y-17802498I-49615J43999D01*
G03X61112510Y-17719002I-52119J41002D01*
G01X61112510Y-17719002D01*
G03X61111650Y-17633004I-50910J42494D01*
G03X61061600Y-17523186I-50050J43504D01*
G03X61011550Y-17633004I0J-66314D01*
G03X61010690Y-17719002I50050J-43504D01*
G03X61009481Y-17802498I50910J-42494D01*
G03X61011985Y-17887499I52119J-41002D01*
G01X61011985Y-17887499D01*
G03X60999135Y-17909236I49615J-43999D01*
G01X60693211Y-17603312D01*
G03X60627160Y-17562419I-61318J-25252D01*
G03X60567604Y-17612299I4732J-66145D01*
G01X60424314Y-17469009D01*
G01X60424314Y-16770274D01*
G03X60449391Y-16801378I61766J24136D01*
G01X60449391Y-16801378D01*
G03X60522214Y-16898852I57554J-32941D01*
G03X60543633Y-16779080I-15269J64532D01*
G01X60543633Y-16779080D01*
G03X60551773Y-16737083I-57554J32941D01*
G03X60562021Y-16618059I-23573J61983D01*
G03X60462507Y-16684155I-33821J-57041D01*
G03X60424314Y-16722002I23573J-61983D01*
G01X60424314Y-16175235D01*
G01X60459472Y-16140077D01*
G03X60500534Y-16078759I-25252J61318D01*
G03X60459472Y-16017441I-66314J0D01*
G01X60352845Y-15910814D01*
G01X61450986Y-15910814D01*
G01X61450986Y-18824114D01*
G01X61450986Y-18824114D01*
G03X61190886Y-18914618I-114304J-90504D01*
G03X61450986Y-19005122I145796J0D01*
G01X61450986Y-19005122D01*
G01X61450986Y-21364700D01*
G02X60486800Y-22328886I-964186J0D01*
G01X59496023Y-22328886D01*
G03X58877577Y-22328886I-309223J64186D01*
G01X57886800Y-22328886D01*
G02X56922614Y-21364700I0J964186D01*
G01X56922614Y-15764700D01*
G02X57886800Y-14800514I964186J0D01*
G01X57045586Y-17729200D02*
G03X57178214Y-17729200I66314J0D01*
G03X57045586Y-17729200I-66314J0D01*
G01X57170215Y-18638415D02*
G03X57152286Y-18681700I43285J-43285D01*
G01X57152286Y-19177000D01*
G03X57170215Y-19220285I61214J0D01*
G01X57418882Y-19468952D01*
G01X57418986Y-19469203D01*
G01X57418986Y-19549307D01*
G01X57086648Y-19881644D01*
G03X57050634Y-19968340I25252J-61318D01*
G03X57137403Y-20004176I61266J25377D01*
G01X58402271Y-20004176D01*
G03X58445556Y-19986247I0J61214D01*
G01X58630722Y-19801081D01*
G01X58630722Y-19801081D01*
G01X58630974Y-19800976D01*
G01X58630974Y-19800976D01*
G01X59473027Y-19800976D01*
G01X59603282Y-19931232D01*
G03X59711491Y-19952871I61318J25252D01*
G03X59689852Y-19844662I-46891J46891D01*
G01X59541667Y-19696478D01*
G03X59498382Y-19678548I-43285J-43285D01*
G01X58630974Y-19678548D01*
G01X58630722Y-19678444D01*
G01X58630722Y-19678444D01*
G01X58439406Y-19487128D01*
G01X58439406Y-19215203D01*
G03X58378192Y-19123386I-61214J25503D01*
G03X58316978Y-19215203I0J-66314D01*
G01X58316978Y-19412135D01*
G03X58201286Y-19456400I-49378J-44265D01*
G03X58316978Y-19500665I66314J0D01*
G01X58316978Y-19512483D01*
G03X58334907Y-19555768I61214J0D01*
G01X58518901Y-19739762D01*
G01X58376915Y-19881748D01*
G01X57259684Y-19881748D01*
G01X57523485Y-19617947D01*
G03X57541414Y-19574662I-43285J43285D01*
G01X57541414Y-19469203D01*
G03X57546513Y-19443411I-61214J25503D01*
G03X57630704Y-19397027I20047J63211D01*
G03X57580123Y-19315288I-64144J16827D01*
G03X57584173Y-19283667I-61823J23988D01*
G03X57680569Y-19254574I35727J55867D01*
G03X57785834Y-19186316I40931J52174D01*
G03X57660831Y-19175626I-64334J-16084D01*
G01X57660831Y-19175626D01*
G03X57554027Y-19235433I-40931J-52174D01*
G03X57456902Y-19266243I-35727J-55867D01*
G03X57504737Y-19356212I61398J-25057D01*
G03X57500312Y-19377242I61823J-23988D01*
G01X57274714Y-19151644D01*
G01X57274714Y-18707056D01*
G01X57492856Y-18488914D01*
G01X58254797Y-18488914D01*
G03X58305803Y-18488914I25503J61214D01*
G01X58712144Y-18488914D01*
G01X58851442Y-18628212D01*
G03X58959651Y-18649851I61318J25252D01*
G03X58938012Y-18541642I-46891J46891D01*
G01X58780785Y-18384415D01*
G03X58737500Y-18366486I-43285J-43285D01*
G01X58305803Y-18366486D01*
G03X58254797Y-18366486I-25503J-61214D01*
G01X57467500Y-18366486D01*
G03X57424215Y-18384415I0J-61214D01*
G01X57170215Y-18638415D01*
G01X57071006Y-21114640D02*
G03X57362598Y-21114640I145796J0D01*
G03X57071006Y-21114640I-145796J0D01*
G01X57290889Y-15746019D02*
G03X57482516Y-15746019I95814J0D01*
G03X57290889Y-15746019I-95814J0D01*
G01X57290889Y-16546017D02*
G03X57482516Y-16546017I95814J0D01*
G03X57290889Y-16546017I-95814J0D01*
G01X57721754Y-15039468D02*
G03X58013346Y-15039468I145796J0D01*
G03X57721754Y-15039468I-145796J0D01*
G01X57798208Y-18100802D02*
G03X58089800Y-18100802I145796J0D01*
G03X57798208Y-18100802I-145796J0D01*
G01X57921886Y-19253200D02*
G03X58054514Y-19253200I66314J0D01*
G03X57921886Y-19253200I-66314J0D01*
G01X57927504Y-21951704D02*
G03X58159132Y-21951704I115814J0D01*
G03X57927504Y-21951704I-115814J0D01*
G01X57927504Y-21251680D02*
G03X58159132Y-21251680I115814J0D01*
G03X57927504Y-21251680I-115814J0D01*
G01X58029228Y-18778240D02*
G03X58161856Y-18778240I66314J0D01*
G03X58029228Y-18778240I-66314J0D01*
G01X58119727Y-18645861D02*
G03X58252355Y-18645861I66314J0D01*
G03X58119727Y-18645861I-66314J0D01*
G01X58328286Y-18757900D02*
G03X58460914Y-18757900I66314J0D01*
G03X58328286Y-18757900I-66314J0D01*
G01X58404486Y-18961100D02*
G03X58537114Y-18961100I66314J0D01*
G03X58404486Y-18961100I-66314J0D01*
G01X58417186Y-18605500D02*
G03X58549814Y-18605500I66314J0D01*
G03X58417186Y-18605500I-66314J0D01*
G01X58623200Y-16532347D02*
G03X58661386Y-16411816I0J66314D01*
G03X58623200Y-16291286I-38186J54216D01*
G03X58585014Y-16411816I0J-66314D01*
G03X58623200Y-16532347I38186J-54216D01*
G01X58633086Y-18846800D02*
G03X58765714Y-18846800I66314J0D01*
G03X58633086Y-18846800I-66314J0D01*
G01X58633086Y-18986500D02*
G03X58765714Y-18986500I66314J0D01*
G03X58633086Y-18986500I-66314J0D01*
G01X59425735Y-20269305D02*
G03X59469020Y-20287234I43285J43285D01*
G01X59490512Y-20287234D01*
G03X59505850Y-20418064I15338J-64516D01*
G03X59521188Y-20287234I0J66314D01*
G01X60027717Y-20287234D01*
G03X60119534Y-20226020I25503J61214D01*
G03X60027717Y-20164806I-66314J0D01*
G01X60027717Y-20164806D01*
G01X59494376Y-20164806D01*
G01X59165493Y-19835924D01*
G03X59122208Y-19817994I-43285J-43285D01*
G01X58750303Y-19817994D01*
G01X58750303Y-19817994D01*
G03X58658486Y-19879208I-25503J-61214D01*
G03X58750303Y-19940422I66314J0D01*
G01X58750303Y-19940422D01*
G01X59096853Y-19940422D01*
G01X59425735Y-20269305D01*
G01X58735309Y-18732500D02*
G03X58867937Y-18732500I66314J0D01*
G03X58735309Y-18732500I-66314J0D01*
G01X58866766Y-19561607D02*
G03X58999394Y-19561607I66314J0D01*
G03X58866766Y-19561607I-66314J0D01*
G01X58921821Y-19164300D02*
G03X59054449Y-19164300I66314J0D01*
G03X58921821Y-19164300I-66314J0D01*
G01X59294232Y-20576782D02*
G03X59402253Y-20637644I65568J-9918D01*
G03X59361868Y-20520418I-42453J50944D01*
G03X59321579Y-20449193I-65568J9918D01*
G03X59242798Y-20471320I-25279J-61307D01*
G01X59242798Y-20471320D01*
G03X59157450Y-20436198I-60798J-26480D01*
G03X59119654Y-20520396I24550J-61602D01*
G03X59079956Y-20640662I-1154J-66304D01*
G03X59180846Y-20564104I38544J53962D01*
G03X59235502Y-20536980I1154J66304D01*
G03X59294232Y-20576782I60798J26480D01*
G01X59082666Y-21757640D02*
G03X59215294Y-21757640I66314J0D01*
G03X59082666Y-21757640I-66314J0D01*
G01X59102986Y-18101500D02*
G03X59235614Y-18101500I66314J0D01*
G03X59102986Y-18101500I-66314J0D01*
G01X59133568Y-21038718D02*
G03X59266196Y-21038718I66314J0D01*
G03X59133568Y-21038718I-66314J0D01*
G01X59165449Y-20173696D02*
G03X59298077Y-20173696I66314J0D01*
G03X59165449Y-20173696I-66314J0D01*
G01X59232668Y-18937028D02*
G03X59256001Y-18971022I63632J18669D01*
G03X59237970Y-19100453I2199J-66278D01*
G03X59298499Y-18984636I20230J63153D01*
G03X59361650Y-18929624I-2199J66278D01*
G03X59320565Y-18856643I-65350J11266D01*
G03X59230877Y-18773676I-62365J22543D01*
G03X59233935Y-18895815I27323J-60424D01*
G03X59232668Y-18937028I62365J-22543D01*
G01X59235295Y-18122900D02*
G03X59344103Y-18173810I66314J0D01*
G03X59452911Y-18122900I42494J50910D01*
G03X59344103Y-18071990I-66314J0D01*
G03X59235295Y-18122900I-42494J-50910D01*
G01X59273166Y-21765260D02*
G03X59405794Y-21765260I66314J0D01*
G03X59273166Y-21765260I-66314J0D01*
G01X59280786Y-16231502D02*
G03X59413414Y-16231502I66314J0D01*
G03X59280786Y-16231502I-66314J0D01*
G01X59797280Y-20608751D02*
G03X59770435Y-20514676I-56480J34751D01*
G03X59679094Y-20549712I-29635J-59324D01*
G03X59602307Y-20495989I-65294J-11588D01*
G03X59482423Y-20473716I-64707J-14511D01*
G03X59549093Y-20575811I55177J-36784D01*
G03X59611732Y-20627582I64707J14511D01*
G03X59670953Y-20703510I65568J-9918D01*
G03X59743557Y-20640257I6347J66010D01*
G03X59779527Y-20627831I-2757J66257D01*
G01X59779527Y-20627831D01*
G03X59768486Y-20662900I50173J-35069D01*
G01X59768486Y-21335897D01*
G03X59829700Y-21427714I61214J-25503D01*
G03X59890914Y-21335897I0J66314D01*
G01X59890914Y-20688256D01*
G01X59953700Y-20625470D01*
G03X60054391Y-20633591I53800J38770D01*
G03X60046270Y-20532900I-46891J46891D01*
G01X60241285Y-20337885D01*
G03X60259214Y-20294600I-43285J43285D01*
G01X60259214Y-19989800D01*
G03X60241285Y-19946515I-61214J0D01*
G01X59702954Y-19408184D01*
G01X59702954Y-19118683D01*
G03X59702954Y-19067677I-61214J25503D01*
G01X59702954Y-18925540D01*
G03X59685025Y-18882255I-61214J0D01*
G01X59625875Y-18823105D01*
G03X59668459Y-18720351I-12075J65205D01*
G01X59668459Y-18720351D01*
G03X59692709Y-18665271I-41959J51351D01*
G03X59777228Y-18626936I22691J62311D01*
G03X59740652Y-18541642I-61828J23976D01*
G01X59740652Y-18541642D01*
G01X59736721Y-18537712D01*
G03X59693436Y-18519782I-43285J-43285D01*
G01X59562104Y-18519782D01*
G03X59518819Y-18537712I0J-61214D01*
G01X59443515Y-18613015D01*
G03X59425586Y-18656300I43285J-43285D01*
G01X59425586Y-18770600D01*
G03X59443515Y-18813885I61214J0D01*
G01X59580526Y-18950896D01*
G01X59580526Y-18975799D01*
G03X59460993Y-18994195I-55626J-36101D01*
G01X59460993Y-18994195D01*
G03X59345865Y-19051686I-50393J-43105D01*
G03X59474507Y-19055005I64735J14386D01*
G03X59580526Y-19048001I50393J43105D01*
G01X59580526Y-19067677D01*
G03X59580526Y-19118683I61214J-25503D01*
G01X59580526Y-19433540D01*
G03X59598455Y-19476825I61214J0D01*
G01X60136786Y-20015156D01*
G01X60136786Y-20269244D01*
G01X59797280Y-20608751D01*
G01X59382386Y-16344900D02*
G03X59515014Y-16344900I66314J0D01*
G03X59382386Y-16344900I-66314J0D01*
G01X59431743Y-19287113D02*
G03X59525908Y-19212429I29657J59313D01*
G03X59529157Y-19092287I-26408J60829D01*
G01X59529157Y-19092287D01*
G03X59434992Y-19166971I-29657J-59313D01*
G03X59431743Y-19287113I26408J-60829D01*
G01X59405297Y-18313400D02*
G03X59514105Y-18364310I66314J0D01*
G03X59622913Y-18313400I42494J50910D01*
G03X59514105Y-18262490I-66314J0D01*
G03X59405297Y-18313400I-42494J-50910D01*
G01X59639719Y-17509400D02*
G03X59526741Y-17575808I-51319J-42000D01*
G03X59439304Y-17673422I-36119J-55615D01*
G03X59552281Y-17607015I51319J42000D01*
G03X59639719Y-17509400I36119J55615D01*
G01X59447484Y-17256267D02*
G03X59477897Y-17360097I52016J-41133D01*
G03X59503393Y-17488160I24143J-61763D01*
G03X59523643Y-17359163I-1353J66300D01*
G03X59545072Y-17345574I-24143J61763D01*
G03X59666902Y-17318325I56028J35474D01*
G03X59555528Y-17261926I-65802J8225D01*
G03X59447484Y-17256267I-56028J-35474D01*
G01X59443357Y-19504254D02*
G03X59532729Y-19593926I58683J-30886D01*
G03X59657243Y-19616826I65831J7986D01*
G03X59567871Y-19527154I-58683J30886D01*
G01X59567871Y-19527154D01*
G03X59443357Y-19504254I-65831J-7986D01*
G01X59450966Y-16619220D02*
G03X59583594Y-16619220I66314J0D01*
G03X59450966Y-16619220I-66314J0D01*
G01X59453506Y-16786860D02*
G03X59586134Y-16786860I66314J0D01*
G03X59453506Y-16786860I-66314J0D01*
G01X59575299Y-18122900D02*
G03X59707927Y-18122900I66314J0D01*
G03X59575299Y-18122900I-66314J0D01*
G01X59649086Y-18008600D02*
G03X59781714Y-18008600I66314J0D01*
G03X59649086Y-18008600I-66314J0D01*
G01X59661786Y-18313400D02*
G03X59794414Y-18313400I66314J0D01*
G03X59661786Y-18313400I-66314J0D01*
G01X59837333Y-16169473D02*
G03X59928346Y-16261434I55867J-35727D01*
G03X59885567Y-16139327I-35146J56234D01*
G03X59794554Y-16047366I-55867J35727D01*
G03X59837333Y-16169473I35146J-56234D01*
G01X59803292Y-22066743D02*
G01X59803292Y-22126743D01*
G03X59994919Y-22126743I95814J0D01*
G01X59994919Y-22066743D01*
G03X59803292Y-22066743I-95814J0D01*
G01X59989919Y-21631728D02*
G03X59808292Y-21631728I-90814J0D01*
G01X59808292Y-21721728D01*
G03X59980305Y-21762395I90814J0D01*
G01X59980305Y-21762395D01*
G03X60112937Y-21737099I62311J33648D01*
G03X59989919Y-21681441I-70321J8352D01*
G01X59989919Y-21631728D01*
G01X60017399Y-16381694D02*
G03X59891674Y-16421405I-60699J-26706D01*
G03X60023001Y-16409706I65026J13005D01*
G03X60148726Y-16369995I60699J26706D01*
G03X60017399Y-16381694I-65026J-13005D01*
G01X60039776Y-17729200D02*
G03X60172404Y-17729200I66314J0D01*
G03X60039776Y-17729200I-66314J0D01*
G01X60106286Y-21361400D02*
G03X60238914Y-21361400I66314J0D01*
G03X60106286Y-21361400I-66314J0D01*
G01X60190296Y-21488400D02*
G03X60322925Y-21488400I66314J0D01*
G03X60190296Y-21488400I-66314J0D01*
G01X60198196Y-17653000D02*
G03X60330824Y-17653000I66314J0D01*
G03X60198196Y-17653000I-66314J0D01*
G01X60340283Y-21755100D02*
G03X60472912Y-21755100I66314J0D01*
G03X60340283Y-21755100I-66314J0D01*
G01X60492366Y-16362680D02*
G03X60624994Y-16362680I66314J0D01*
G03X60492366Y-16362680I-66314J0D01*
G01X60550298Y-21737104D02*
G03X60682915Y-21762420I70320J8357D01*
G03X60854916Y-21721728I81187J40692D01*
G01X60854916Y-21631728D01*
G03X60673289Y-21631728I-90814J0D01*
G01X60673289Y-21681413D01*
G03X60550298Y-21737104I-52671J-47335D01*
G01X60668289Y-22066743D02*
G01X60668289Y-22126743D01*
G03X60859916Y-22126743I95814J0D01*
G01X60859916Y-22066743D01*
G03X60668289Y-22066743I-95814J0D01*
G01X60707908Y-16702014D02*
G03X60827193Y-16710134I61592J24577D01*
G03X60908119Y-16622124I19335J63433D01*
G03X60788835Y-16614004I-61592J-24577D01*
G03X60707908Y-16702014I-19335J-63433D01*
G01X60715886Y-16393643D02*
G03X60848514Y-16393643I66314J0D01*
G03X60715886Y-16393643I-66314J0D01*
G01X60766686Y-19672300D02*
G03X60899314Y-19672300I66314J0D01*
G03X60766686Y-19672300I-66314J0D01*
G01X60792086Y-17261840D02*
G03X60924714Y-17261840I66314J0D01*
G03X60792086Y-17261840I-66314J0D01*
G01X60792086Y-20269200D02*
G03X60924714Y-20269200I66314J0D01*
G03X60792086Y-20269200I-66314J0D01*
G01X61061600Y-16297816D02*
G03X61115557Y-16192951I0J66314D01*
G03X61061600Y-16088086I-53957J38551D01*
G03X61007643Y-16192951I0J-66314D01*
G03X61061600Y-16297816I53957J-38551D01*
G01X61252100Y-20139901D02*
G03X61252100Y-19915873I0J112014D01*
G03X61252100Y-20139901I0J-112014D01*
G01X61252100Y-19889914D02*
G03X61252100Y-19665886I0J112014D01*
G03X61252100Y-19889914I0J-112014D01*
G01X61364114Y-20201699D02*
G03X61328300Y-20165885I-35814J0D01*
G01X61175900Y-20165885D01*
G03X61140086Y-20201699I0J-35814D01*
G01X61140086Y-20354099D01*
G03X61175900Y-20389913I35814J0D01*
G01X61328300Y-20389913D01*
G03X61364114Y-20354099I0J35814D01*
G01X61364114Y-20201699D01*
G01X61375614Y-21499106D02*
G03X61339800Y-21463292I-35814J0D01*
G01X61339800Y-21463292D01*
G01X61189800Y-21463292D01*
G03X61153986Y-21499106I0J-35814D01*
G01X61153986Y-21651506D01*
G03X61189800Y-21687320I35814J0D01*
G01X61339800Y-21687320D01*
G03X61375614Y-21651506I0J35814D01*
G01X61375614Y-21499106D01*
G01X61185075Y-17423689D02*
G03X61317703Y-17423689I66314J0D01*
G03X61185075Y-17423689I-66314J0D01*
G01X61208646Y-16873220D02*
G03X61341274Y-16873220I66314J0D01*
G03X61208646Y-16873220I-66314J0D01*
G01X61270250Y-16347317D02*
G03X61336570Y-16458611I45350J-48383D01*
G03X61322850Y-16329783I-20970J62911D01*
G03X61256530Y-16218489I-45350J48383D01*
G03X61270250Y-16347317I20970J-62911D01*
G01X61211921Y-17074675D02*
G03X61344549Y-17074675I66314J0D01*
G03X61211921Y-17074675I-66314J0D01*
G01X61287386Y-21038820D02*
G03X61420014Y-21038820I66314J0D01*
G03X61287386Y-21038820I-66314J0D01*
G01X61300086Y-20719207D02*
G03X61432714Y-20719207I66314J0D01*
G03X61300086Y-20719207I-66314J0D01*
G54D11*
G01X59899106Y-22096743D02*
G01X59813452Y-22096743D01*
G01X59899106Y-22096743D02*
G01X59984759Y-22096743D01*
G01X59899106Y-22096743D02*
G01X59899106Y-21981089D01*
G01X59899106Y-22096743D02*
G01X59899106Y-22212397D01*
G01X59899106Y-21676728D02*
G01X59818452Y-21676728D01*
G01X59899106Y-21676728D02*
G01X59979759Y-21676728D01*
G01X59899106Y-21676728D02*
G01X59899106Y-21551074D01*
G01X59899106Y-21676728D02*
G01X59899106Y-21802382D01*
G01X60764103Y-21676728D02*
G01X60683449Y-21676728D01*
G01X60764103Y-21676728D02*
G01X60844756Y-21676728D01*
G01X60764103Y-21676728D02*
G01X60764103Y-21551074D01*
G01X60764103Y-21676728D02*
G01X60764103Y-21802382D01*
G01X60764103Y-22096743D02*
G01X60678449Y-22096743D01*
G01X60764103Y-22096743D02*
G01X60849756Y-22096743D01*
G01X60764103Y-22096743D02*
G01X60764103Y-21981089D01*
G01X60764103Y-22096743D02*
G01X60764103Y-22212397D01*
G04 Copper End*

G04 Pad Start*
G54D12*
G01X59899106Y-21676728D03*
G01X60764103Y-21676728D03*
G54D13*
G01X59899106Y-22096743D03*
G01X60764103Y-22096743D03*
G54D14*
G01X57216802Y-21114640D03*
G01X57944004Y-18100802D03*
G01X61336682Y-18914618D03*
G01X57867550Y-15039468D03*
G54D15*
G01X61252100Y-19777900D03*
G01X61252100Y-20027887D03*
G54D16*
G01X61252100Y-20277899D03*
G54D17*
G01X61264800Y-21575306D03*
G54D19*
G01X61264800Y-21325294D03*
G04 Pad End*

G04 Via Start*
G54D20*
G01X58978800Y-21348700D03*
G01X60256611Y-21488400D03*
G01X60406598Y-21755100D03*
G01X59339480Y-21765260D03*
G01X59148980Y-21757640D03*
G01X59118500Y-20586700D03*
G01X59359800Y-20586700D03*
G01X59296300Y-20510500D03*
G01X59182000Y-20497800D03*
G01X60506945Y-16834320D03*
G01X60486080Y-16746138D03*
G01X60528200Y-16675100D03*
G01X61278235Y-17074675D03*
G01X60769500Y-16677437D03*
G01X61274960Y-16873220D03*
G01X60846528Y-16646701D03*
G01X60558680Y-16362680D03*
G01X60782200Y-16393643D03*
G01X61315600Y-16395700D03*
G01X61277500Y-16281400D03*
G01X61061600Y-16154400D03*
G01X60528200Y-16065500D03*
G01X60264510Y-17653000D03*
G01X60106090Y-17729200D03*
G01X58305700Y-15696032D03*
G01X58305700Y-15811500D03*
G01X58305700Y-16027400D03*
G01X58305700Y-16246018D03*
G01X58623200Y-16357600D03*
G01X58623200Y-16466033D03*
G01X59301609Y-18122900D03*
G01X59386597Y-18122900D03*
G01X59169300Y-18101500D03*
G01X59471611Y-18313400D03*
G01X59556599Y-18313400D03*
G01X59641613Y-18122900D03*
G01X59728100Y-18313400D03*
G01X58305700Y-15585440D03*
G01X60491599Y-18313400D03*
G01X60406610Y-18313400D03*
G01X58483500Y-20053300D03*
G01X57111900Y-19942962D03*
G01X57480200Y-19443700D03*
G01X58378192Y-19189700D03*
G01X58724800Y-19879208D03*
G01X60053220Y-20226020D03*
G01X60345283Y-19232188D03*
G01X60960000Y-19512281D03*
G01X59664600Y-19905980D03*
G01X58605471Y-19739762D03*
G01X57912000Y-19608800D03*
G01X58267600Y-19456400D03*
G01X57518300Y-19291300D03*
G01X57566560Y-19380200D03*
G01X57721500Y-19202400D03*
G01X57988200Y-19253200D03*
G01X58280300Y-18427700D03*
G01X58095542Y-18778240D03*
G01X57619900Y-19227800D03*
G01X58912760Y-18602960D03*
G01X58976629Y-18918358D03*
G01X58699400Y-18846800D03*
G01X58801623Y-18732500D03*
G01X58699400Y-18986500D03*
G01X59258200Y-19037300D03*
G01X59296300Y-18918358D03*
G01X59258200Y-18834100D03*
G01X58988135Y-19164300D03*
G01X58470800Y-18961100D03*
G01X59715400Y-18602960D03*
G01X59641740Y-19093180D03*
G01X60172600Y-18756764D03*
G01X59524900Y-19011900D03*
G01X59410600Y-19037300D03*
G01X58356500Y-16141700D03*
G01X57995718Y-16145713D03*
G01X59347100Y-16231502D03*
G01X59448700Y-16344900D03*
G01X59690000Y-16235680D03*
G01X60434220Y-16078759D03*
G01X61061600Y-17843500D03*
G01X61061600Y-18021300D03*
G01X60833000Y-18389600D03*
G01X60916591Y-18389600D03*
G01X60858400Y-17261840D03*
G01X61251389Y-17423689D03*
G01X60109105Y-17080799D03*
G01X60109100Y-16941800D03*
G01X59994800Y-17081500D03*
G01X59517280Y-16619220D03*
G01X58394600Y-18275300D03*
G01X59626500Y-18669000D03*
G01X59613800Y-18757900D03*
G01X59893200Y-16205200D03*
G01X59956700Y-16408400D03*
G01X60083700Y-16383000D03*
G01X61061600Y-16231502D03*
G01X60264040Y-18956020D03*
G01X60258960Y-18780760D03*
G01X59829700Y-16103600D03*
G01X58394600Y-18757900D03*
G01X58186041Y-18645861D03*
G01X58483500Y-18605500D03*
G01X57486448Y-17297400D03*
G01X57759600Y-17793868D03*
G01X57305587Y-17856200D03*
G01X57200800Y-17511678D03*
G01X57124600Y-17589500D03*
G01X58496200Y-17183100D03*
G01X57515505Y-17891505D03*
G01X58420000Y-17373600D03*
G01X58496200Y-17284700D03*
G01X57111900Y-17729200D03*
G01X61163200Y-20472400D03*
G01X60833000Y-19672300D03*
G01X60858400Y-20269200D03*
G01X59811567Y-18910333D03*
G01X60000354Y-20992721D03*
G01X61145420Y-21216620D03*
G01X59829700Y-21361400D03*
G01X60172600Y-21361400D03*
G01X60609480Y-20853400D03*
G01X60609480Y-20939760D03*
G01X60612020Y-20769580D03*
G01X61010800Y-21008340D03*
G01X60969859Y-21087982D03*
G01X61061600Y-21120100D03*
G01X61366400Y-20719207D03*
G01X60007500Y-20586700D03*
G01X60537209Y-20510392D03*
G01X60840176Y-17971440D03*
G01X59537600Y-20510500D03*
G01X59613800Y-20561300D03*
G01X59677300Y-20637500D03*
G01X59740800Y-20574000D03*
G01X59502040Y-19535140D03*
G01X59598560Y-19585940D03*
G01X59505850Y-20351750D03*
G01X59199882Y-21038718D03*
G01X60896500Y-18808700D03*
G01X60794900Y-18808700D03*
G01X60631893Y-17628564D03*
G01X61353700Y-21038820D03*
G01X61061600Y-17931498D03*
G01X57353200Y-17932400D03*
G01X59231763Y-20173696D03*
G01X61061600Y-17589500D03*
G01X61061600Y-17676508D03*
G01X61061600Y-17761496D03*
G01X59461400Y-19227800D03*
G01X59499500Y-19151600D03*
G01X58933080Y-19561607D03*
G01X57510700Y-15041900D03*
G01X58272700Y-15041900D03*
G01X58526700Y-15041900D03*
G01X57256700Y-15295900D03*
G01X57510700Y-15295900D03*
G01X57764700Y-15295900D03*
G01X58018700Y-15295900D03*
G01X58272700Y-15295900D03*
G01X58526700Y-15295900D03*
G01X57002700Y-15549900D03*
G01X57256700Y-15549900D03*
G01X57764700Y-15549900D03*
G01X58018700Y-15549900D03*
G01X57002700Y-15803900D03*
G01X57256700Y-15803900D03*
G01X57510700Y-15803900D03*
G01X57764700Y-15803900D03*
G01X57002700Y-16057900D03*
G01X57256700Y-16057900D03*
G01X57510700Y-16057900D03*
G01X57764700Y-16057900D03*
G01X59288700Y-16057900D03*
G01X60050700Y-16057900D03*
G01X60304700Y-16057900D03*
G01X61320700Y-16057900D03*
G01X57002700Y-16311900D03*
G01X57256700Y-16311900D03*
G01X57510700Y-16311900D03*
G01X57764700Y-16311900D03*
G01X57002700Y-16565900D03*
G01X57256700Y-16565900D03*
G01X57764700Y-16565900D03*
G01X59288700Y-16565900D03*
G01X60050700Y-16565900D03*
G01X57002700Y-16819900D03*
G01X57256700Y-16819900D03*
G01X57510700Y-16819900D03*
G01X57764700Y-16819900D03*
G01X58272700Y-16819900D03*
G01X58526700Y-16819900D03*
G01X57002700Y-17073900D03*
G01X57256700Y-17073900D03*
G01X57764700Y-17073900D03*
G01X58272700Y-17073900D03*
G01X57002700Y-17327900D03*
G01X57256700Y-17327900D03*
G01X58018700Y-17327900D03*
G01X61320700Y-17327900D03*
G01X57002700Y-17581900D03*
G01X58526700Y-17581900D03*
G01X61320700Y-17581900D03*
G01X57002700Y-17835900D03*
G01X58018700Y-17835900D03*
G01X58272700Y-17835900D03*
G01X58526700Y-17835900D03*
G01X60304700Y-17835900D03*
G01X61320700Y-17835900D03*
G01X57002700Y-18089900D03*
G01X57256700Y-18089900D03*
G01X57510700Y-18089900D03*
G01X57764700Y-18089900D03*
G01X58272700Y-18089900D03*
G01X58526700Y-18089900D03*
G01X59542700Y-18089900D03*
G01X60050700Y-18089900D03*
G01X61320700Y-18089900D03*
G01X57002700Y-18343900D03*
G01X57256700Y-18343900D03*
G01X57510700Y-18343900D03*
G01X57764700Y-18343900D03*
G01X58018700Y-18343900D03*
G01X58526700Y-18343900D03*
G01X61320700Y-18343900D03*
G01X57002700Y-18597900D03*
G01X57510700Y-18597900D03*
G01X57764700Y-18597900D03*
G01X58780700Y-18597900D03*
G01X60050700Y-18597900D03*
G01X61320700Y-18597900D03*
G01X57002700Y-18851900D03*
G01X57510700Y-18851900D03*
G01X57764700Y-18851900D03*
G01X58282840Y-18508980D03*
G01X58526700Y-18851900D03*
G01X60050700Y-18851900D03*
G01X57002700Y-19105900D03*
G01X58018700Y-19105900D03*
G01X61320700Y-19105900D03*
G01X57002700Y-19359900D03*
G01X57002700Y-19613900D03*
G01X57002700Y-19867900D03*
G01X57510700Y-19867900D03*
G01X60558700Y-19867900D03*
G01X57002700Y-20121900D03*
G01X57256700Y-20121900D03*
G01X57510700Y-20121900D03*
G01X57764700Y-20121900D03*
G01X58018700Y-20121900D03*
G01X58272700Y-20121900D03*
G01X60812700Y-20121900D03*
G01X57002700Y-20375900D03*
G01X57256700Y-20375900D03*
G01X57510700Y-20375900D03*
G01X57764700Y-20375900D03*
G01X58018700Y-20375900D03*
G01X58272700Y-20375900D03*
G01X58526700Y-20375900D03*
G01X58780700Y-20375900D03*
G01X59034700Y-20375900D03*
G01X57002700Y-20629900D03*
G01X57256700Y-20629900D03*
G01X57510700Y-20629900D03*
G01X57764700Y-20629900D03*
G01X58018700Y-20629900D03*
G01X58272700Y-20629900D03*
G01X58526700Y-20629900D03*
G01X58780700Y-20629900D03*
G01X57002700Y-20883900D03*
G01X57256700Y-20883900D03*
G01X57510700Y-20883900D03*
G01X57764700Y-20883900D03*
G01X58272700Y-20883900D03*
G01X58526700Y-20883900D03*
G01X58780700Y-20883900D03*
G01X59034700Y-20883900D03*
G01X57002700Y-21137900D03*
G01X57510700Y-21137900D03*
G01X58780700Y-21137900D03*
G01X59542700Y-21137900D03*
G01X61320700Y-21137900D03*
G01X57002700Y-21391900D03*
G01X57256700Y-21391900D03*
G01X57510700Y-21391900D03*
G01X58526700Y-21391900D03*
G01X58780700Y-21391900D03*
G01X59034700Y-21391900D03*
G01X59542700Y-21391900D03*
G01X60812700Y-21391900D03*
G01X57002700Y-21645900D03*
G01X57256700Y-21645900D03*
G01X57510700Y-21645900D03*
G01X57764700Y-21645900D03*
G01X58018700Y-21645900D03*
G01X58780700Y-21645900D03*
G01X59034700Y-21645900D03*
G01X59542700Y-21645900D03*
G01X59796700Y-21645900D03*
G01X61066700Y-21645900D03*
G01X57256700Y-21899900D03*
G01X57510700Y-21899900D03*
G01X58272700Y-21899900D03*
G01X58780700Y-21899900D03*
G01X59034700Y-21899900D03*
G01X57510700Y-22153900D03*
G01X57764700Y-22153900D03*
G01X58018700Y-22153900D03*
G01X58272700Y-22153900D03*
G01X58526700Y-22153900D03*
G01X58780700Y-22153900D03*
G01X59542700Y-22153900D03*
G01X60050700Y-22153900D03*
G01X60304700Y-22153900D03*
G01X60558700Y-22153900D03*
G01X59994800Y-16941800D03*
G01X60223400Y-16941800D03*
G01X60223400Y-17081500D03*
G01X60109105Y-16818175D03*
G01X59519820Y-16786860D03*
G01X59499500Y-17297400D03*
G01X59601100Y-17310100D03*
G01X59502040Y-17421860D03*
G01X59588400Y-17551400D03*
G01X59490622Y-17631422D03*
G01X59715400Y-18008600D03*
G01X60746615Y-18112740D03*
G01X60660280Y-18120360D03*
G01X60553600Y-18135600D03*
G04 Via End*

G04 Track Start*
G54D21*
G01X60053220Y-20226020D02*
G01X59469020Y-20226020D01*
G01X59122208Y-19879208D01*
G01X58724800Y-19879208D01*
G01X58378192Y-19512483D02*
G01X58378192Y-19189700D01*
G01X58605471Y-19739762D02*
G01X58378192Y-19512483D01*
G01X57111900Y-19942962D02*
G01X58402271Y-19942962D01*
G01X58605471Y-19739762D01*
G01X57480200Y-19574662D02*
G01X57111900Y-19942962D01*
G01X57480200Y-19443700D02*
G01X57480200Y-19574662D01*
G01X57480200Y-19443700D02*
G01X57213500Y-19177000D01*
G01X57213500Y-18681700D01*
G01X57467500Y-18427700D01*
G01X58280300Y-18427700D01*
G01X58737500Y-18427700D01*
G01X58912760Y-18602960D01*
G01X57995718Y-16145713D02*
G01X57995718Y-16032582D01*
G01X58089800Y-15938500D01*
G01X59392820Y-15938500D01*
G01X59690000Y-16235680D01*
G01X59392820Y-15938500D02*
G01X60293961Y-15938500D01*
G01X60434220Y-16078759D01*
G01X58394600Y-18275300D02*
G01X58394600Y-17513300D01*
G01X57995718Y-17114418D01*
G54D10*
G01X57486448Y-17456252D02*
G01X57486448Y-17297400D01*
G01X57200800Y-17511678D02*
G01X57431022Y-17511678D01*
G01X57486448Y-17456252D01*
G54D21*
G01X57995718Y-17114418D02*
G01X57995718Y-16145713D01*
G54D10*
G01X57758432Y-17792700D02*
G01X57759600Y-17793868D01*
G54D21*
G01X59486800Y-18770600D02*
G01X59486800Y-18656300D01*
G01X59562104Y-18580996D01*
G01X59693436Y-18580996D01*
G01X59715400Y-18602960D01*
G01X57759600Y-17793868D02*
G01X57759600Y-17350537D01*
G01X57812737Y-17297400D01*
G01X57995718Y-17114418D01*
G01X57812737Y-17297400D02*
G01X57486448Y-17297400D01*
G01X59829700Y-20662900D02*
G01X59829700Y-21361400D01*
G01X60198000Y-20294600D02*
G01X60198000Y-19989800D01*
G01X60198000Y-20294600D02*
G01X59829700Y-20662900D01*
G01X60172600Y-18756764D02*
G01X60666764Y-18262600D01*
G01X60782200Y-18262600D01*
G01X60840176Y-18204624D02*
G01X60840176Y-17971440D01*
G01X60782200Y-18262600D02*
G01X60840176Y-18204624D01*
G01X58605471Y-19739762D02*
G01X59498382Y-19739762D01*
G01X59664600Y-19905980D01*
G01X61163200Y-20777200D02*
G01X61036200Y-20650200D01*
G01X61036200Y-18364200D01*
G01X60840176Y-17971440D02*
G01X60363100Y-17494364D01*
G01X60363100Y-16149879D01*
G01X60434220Y-16078759D01*
G01X61145420Y-21216620D02*
G01X61163200Y-21198840D01*
G01X61163200Y-20777200D01*
G01X60000354Y-20992721D02*
G01X60224254Y-21216620D01*
G01X61145420Y-21216620D01*
G54D10*
G01X57305587Y-17856200D02*
G01X57369087Y-17792700D01*
G01X57758432Y-17792700D01*
G54D21*
G01X60960000Y-18288000D02*
G01X61036200Y-18364200D01*
G54D10*
G01X60345283Y-19232188D02*
G01X60625376Y-19512281D01*
G01X60960000Y-19512281D01*
G54D21*
G01X60345283Y-19232188D02*
G01X60172600Y-19059505D01*
G01X60172600Y-18756764D01*
G01X59641740Y-19093180D02*
G01X59641740Y-18925540D01*
G01X59486800Y-18770600D01*
G01X60198000Y-19989800D02*
G01X59641740Y-19433540D01*
G01X59641740Y-19093180D01*
G01X60631893Y-17628564D02*
G01X60960000Y-17956671D01*
G01X60960000Y-18288000D01*
G04 Track End*

M02*

