G04 Layer: BottomSilkscreenLayer*
G04 EasyEDA Pro v3.2.148, 2026-09-22 00:44:55*
G04 Gerber Generator version 0.3*
G04 Scale: 100 percent, Rotated: No, Reflected: No*
G04 Dimensions in millimeters*
G04 Leading zeros omitted, absolute positions, 4 integers and 5 decimals*
G04 Generated by one-click*
G04 Object Configs: Pad,Via,Track,Text,Image,Dimension,BoardOutline,BoardCutout,CopperFilled,SolidRegion,FPCStiffener,Line,PlaneZone,ComponentProperty,ComponentSilkscreen,TearDrop*
G04 Layer Configs: 1,15,16,17,18,2,3,4,5,6,7,8,9,10,11,13,14,56*
G04 Copper Areas: 0*
%FSLAX45Y45*%
%MOMM*%
%ADD10C,0.1524*%
%ADD11C,0.15001*%
%ADD12C,0.254*%
%ADD13C,0.15199*%
%ADD14C,0.1*%
%ADD15C,0.2032*%
%ADD16C,0.3092*%
%ADD17C,0.3*%
%ADD18C,0.2*%
%ADD19C,0.25001*%
G75*


G04 Text Start*
G54D10*
G01X61084690Y-17009821D02*
G01X61019666Y-17009821D01*
G01X61084690Y-17009821D02*
G01X61084690Y-16969689D01*
G01X61053702Y-17009821D02*
G01X61053702Y-16984929D01*
G01X61084690Y-16939463D02*
G01X61019666Y-16939463D01*
G01X61084690Y-16939463D02*
G01X61084690Y-16911777D01*
G01X61081642Y-16902379D01*
G01X61078594Y-16899331D01*
G01X61072244Y-16896283D01*
G01X61063100Y-16896283D01*
G01X61057004Y-16899331D01*
G01X61053702Y-16902379D01*
G01X61050654Y-16911777D01*
G01X61050654Y-16939463D01*
G01X61069196Y-16819829D02*
G01X61075546Y-16822877D01*
G01X61081642Y-16828973D01*
G01X61084690Y-16835323D01*
G01X61084690Y-16847515D01*
G01X61081642Y-16853865D01*
G01X61075546Y-16859961D01*
G01X61069196Y-16863009D01*
G01X61060052Y-16866057D01*
G01X61044558Y-16866057D01*
G01X61035160Y-16863009D01*
G01X61029064Y-16859961D01*
G01X61022714Y-16853865D01*
G01X61019666Y-16847515D01*
G01X61019666Y-16835323D01*
G01X61022714Y-16828973D01*
G01X61029064Y-16822877D01*
G01X61035160Y-16819829D01*
G01X61069196Y-16786555D02*
G01X61072244Y-16786555D01*
G01X61078594Y-16783507D01*
G01X61081642Y-16780459D01*
G01X61084690Y-16774363D01*
G01X61084690Y-16761917D01*
G01X61081642Y-16755567D01*
G01X61078594Y-16752519D01*
G01X61072244Y-16749471D01*
G01X61066148Y-16749471D01*
G01X61060052Y-16752519D01*
G01X61050654Y-16758869D01*
G01X61019666Y-16789603D01*
G01X61019666Y-16746423D01*
G01X60444380Y-18384520D02*
G01X60492132Y-18384520D01*
G01X60501530Y-18387822D01*
G01X60507880Y-18394172D01*
G01X60511182Y-18403570D01*
G01X60511182Y-18409920D01*
G01X60507880Y-18419572D01*
G01X60501530Y-18425922D01*
G01X60492132Y-18428970D01*
G01X60444380Y-18428970D01*
G01X60444380Y-18484850D02*
G01X60511182Y-18459450D01*
G01X60444380Y-18484850D02*
G01X60511182Y-18510250D01*
G01X60488830Y-18469102D02*
G01X60488830Y-18500852D01*
G01X60444380Y-18540730D02*
G01X60511182Y-18540730D01*
G01X60444380Y-18540730D02*
G01X60444380Y-18569432D01*
G01X60447682Y-18578830D01*
G01X60450730Y-18582132D01*
G01X60457080Y-18585180D01*
G01X60463430Y-18585180D01*
G01X60469780Y-18582132D01*
G01X60473082Y-18578830D01*
G01X60476130Y-18569432D01*
G01X60476130Y-18540730D01*
G01X60476130Y-18563082D02*
G01X60511182Y-18585180D01*
G01X60444380Y-18638012D02*
G01X60511182Y-18638012D01*
G01X60444380Y-18615660D02*
G01X60444380Y-18660110D01*
G01X60317380Y-18403570D02*
G01X60320682Y-18397220D01*
G01X60327032Y-18390870D01*
G01X60333382Y-18387822D01*
G01X60342780Y-18384520D01*
G01X60358782Y-18384520D01*
G01X60368180Y-18387822D01*
G01X60374530Y-18390870D01*
G01X60380880Y-18397220D01*
G01X60384182Y-18403570D01*
G01X60384182Y-18416270D01*
G01X60380880Y-18422620D01*
G01X60374530Y-18428970D01*
G01X60368180Y-18432272D01*
G01X60358782Y-18435320D01*
G01X60342780Y-18435320D01*
G01X60333382Y-18432272D01*
G01X60327032Y-18428970D01*
G01X60320682Y-18422620D01*
G01X60317380Y-18416270D01*
G01X60317380Y-18403570D01*
G01X60317380Y-18488152D02*
G01X60384182Y-18488152D01*
G01X60317380Y-18465800D02*
G01X60317380Y-18510250D01*
G01X60333382Y-18588482D02*
G01X60327032Y-18585180D01*
G01X60320682Y-18578830D01*
G01X60317380Y-18572480D01*
G01X60317380Y-18559780D01*
G01X60320682Y-18553430D01*
G01X60327032Y-18547080D01*
G01X60333382Y-18544032D01*
G01X60342780Y-18540730D01*
G01X60358782Y-18540730D01*
G01X60368180Y-18544032D01*
G01X60374530Y-18547080D01*
G01X60380880Y-18553430D01*
G01X60384182Y-18559780D01*
G01X60384182Y-18572480D01*
G01X60380880Y-18578830D01*
G01X60374530Y-18585180D01*
G01X60368180Y-18588482D01*
G01X60358782Y-18588482D01*
G01X60358782Y-18572480D02*
G01X60358782Y-18588482D01*
G01X60152280Y-18117820D02*
G01X60200032Y-18117820D01*
G01X60209430Y-18121122D01*
G01X60215780Y-18127472D01*
G01X60219082Y-18136870D01*
G01X60219082Y-18143220D01*
G01X60215780Y-18152872D01*
G01X60209430Y-18159222D01*
G01X60200032Y-18162270D01*
G01X60152280Y-18162270D01*
G01X60161932Y-18237200D02*
G01X60155582Y-18230850D01*
G01X60152280Y-18221452D01*
G01X60152280Y-18208752D01*
G01X60155582Y-18199100D01*
G01X60161932Y-18192750D01*
G01X60168282Y-18192750D01*
G01X60174632Y-18196052D01*
G01X60177680Y-18199100D01*
G01X60180982Y-18205450D01*
G01X60187332Y-18224500D01*
G01X60190380Y-18230850D01*
G01X60193682Y-18234152D01*
G01X60200032Y-18237200D01*
G01X60209430Y-18237200D01*
G01X60215780Y-18230850D01*
G01X60219082Y-18221452D01*
G01X60219082Y-18208752D01*
G01X60215780Y-18199100D01*
G01X60209430Y-18192750D01*
G01X60152280Y-18267680D02*
G01X60219082Y-18267680D01*
G01X60152280Y-18267680D02*
G01X60152280Y-18296382D01*
G01X60155582Y-18305780D01*
G01X60158630Y-18309082D01*
G01X60164980Y-18312130D01*
G01X60171330Y-18312130D01*
G01X60177680Y-18309082D01*
G01X60180982Y-18305780D01*
G01X60184030Y-18296382D01*
G01X60184030Y-18267680D02*
G01X60184030Y-18296382D01*
G01X60187332Y-18305780D01*
G01X60190380Y-18309082D01*
G01X60196730Y-18312130D01*
G01X60206382Y-18312130D01*
G01X60212732Y-18309082D01*
G01X60215780Y-18305780D01*
G01X60219082Y-18296382D01*
G01X60219082Y-18267680D01*
G01X60164980Y-18413730D02*
G01X60161932Y-18420080D01*
G01X60152280Y-18429732D01*
G01X60219082Y-18429732D01*
G01X60152280Y-18479262D02*
G01X60155582Y-18469864D01*
G01X60164980Y-18463514D01*
G01X60180982Y-18460212D01*
G01X60190380Y-18460212D01*
G01X60206382Y-18463514D01*
G01X60215780Y-18469864D01*
G01X60219082Y-18479262D01*
G01X60219082Y-18485612D01*
G01X60215780Y-18495264D01*
G01X60206382Y-18501614D01*
G01X60190380Y-18504662D01*
G01X60180982Y-18504662D01*
G01X60164980Y-18501614D01*
G01X60155582Y-18495264D01*
G01X60152280Y-18485612D01*
G01X60152280Y-18479262D01*
G01X60152280Y-18535142D02*
G01X60219082Y-18535142D01*
G01X60152280Y-18579592D02*
G01X60196730Y-18535142D01*
G01X60180982Y-18551144D02*
G01X60219082Y-18579592D01*
G04 Text End*

G04 PolygonModel Start*
G01X59410580Y-19924781D02*
G01X59588420Y-19924781D01*
G01X59410580Y-20232619D02*
G01X59588420Y-20232619D01*
G01X59836274Y-20285459D02*
G01X59836274Y-20235459D01*
G01X59751796Y-20300701D02*
G01X59821036Y-20300701D01*
G01X59736556Y-20235459D02*
G01X59736556Y-20285459D01*
G01X59736769Y-20141181D02*
G01X59736769Y-20191181D01*
G01X59836482Y-20191181D02*
G01X59836482Y-20141181D01*
G01X59821247Y-20125939D02*
G01X59752004Y-20125939D01*
G01X59836484Y-20141181D02*
G03X59821244Y-20125941I-15240J0D01*
G01X59752004Y-20125941D02*
G03X59736764Y-20141181I0J-15240D01*
G01X59736556Y-20285459D02*
G03X59751796Y-20300699I15240J0D01*
G01X59821036Y-20300699D02*
G03X59836276Y-20285459I0J15240D01*
G54D11*
G01X60745352Y-20896948D02*
G01X60745352Y-20586941D01*
G01X60435345Y-20586941D02*
G01X60745352Y-20586941D01*
G01X60435472Y-20896948D02*
G01X60435472Y-20586941D01*
G01X60745352Y-20899361D02*
G01X60661532Y-20899361D01*
G01X60519292Y-20899361D02*
G01X60435472Y-20899361D01*
G01X60658992Y-20899361D02*
G03X60519292Y-20899361I-69850J-21730D01*
G54D10*
G01X59398946Y-16374361D02*
G01X59398946Y-16424361D01*
G01X59483424Y-16359119D02*
G01X59414184Y-16359119D01*
G01X59498664Y-16424361D02*
G01X59498664Y-16374361D01*
G01X59498451Y-16518639D02*
G01X59498451Y-16468639D01*
G01X59398738Y-16468639D02*
G01X59398738Y-16518639D01*
G01X59413973Y-16533881D02*
G01X59483216Y-16533881D01*
G01X59398736Y-16518639D02*
G03X59413976Y-16533879I15240J0D01*
G01X59483216Y-16533879D02*
G03X59498456Y-16518639I0J15240D01*
G01X59498664Y-16374361D02*
G03X59483424Y-16359121I-15240J0D01*
G01X59414184Y-16359121D02*
G03X59398944Y-16374361I0J-15240D01*
G01X59612754Y-16264639D02*
G01X59612754Y-16214639D01*
G01X59528276Y-16279881D02*
G01X59597516Y-16279881D01*
G01X59513036Y-16214639D02*
G01X59513036Y-16264639D01*
G01X59513249Y-16120361D02*
G01X59513249Y-16170361D01*
G01X59612962Y-16170361D02*
G01X59612962Y-16120361D01*
G01X59597727Y-16105119D02*
G01X59528484Y-16105119D01*
G01X59612964Y-16120361D02*
G03X59597724Y-16105121I-15240J0D01*
G01X59528484Y-16105121D02*
G03X59513244Y-16120361I0J-15240D01*
G01X59513036Y-16264639D02*
G03X59528276Y-16279879I15240J0D01*
G01X59597516Y-16279879D02*
G03X59612756Y-16264639I0J15240D01*
G01X59485754Y-16264639D02*
G01X59485754Y-16214639D01*
G01X59401276Y-16279881D02*
G01X59470516Y-16279881D01*
G01X59386036Y-16214639D02*
G01X59386036Y-16264639D01*
G01X59386249Y-16120361D02*
G01X59386249Y-16170361D01*
G01X59485962Y-16170361D02*
G01X59485962Y-16120361D01*
G01X59470727Y-16105119D02*
G01X59401484Y-16105119D01*
G01X59485964Y-16120361D02*
G03X59470724Y-16105121I-15240J0D01*
G01X59401484Y-16105121D02*
G03X59386244Y-16120361I0J-15240D01*
G01X59386036Y-16264639D02*
G03X59401276Y-16279879I15240J0D01*
G01X59470516Y-16279879D02*
G03X59485756Y-16264639I0J15240D01*
G01X60387560Y-17985979D02*
G01X60387560Y-17914175D01*
G01X60387560Y-17914175D02*
G01X60287840Y-17914175D01*
G01X60287840Y-17914175D02*
G01X60287840Y-17985979D01*
G01X60387560Y-18031221D02*
G01X60387560Y-18103024D01*
G01X60387560Y-18103024D02*
G01X60287840Y-18103024D01*
G01X60287840Y-18103024D02*
G01X60287840Y-18031221D01*
G01X59625560Y-16423879D02*
G01X59625560Y-16352075D01*
G01X59625560Y-16352075D02*
G01X59525840Y-16352075D01*
G01X59525840Y-16352075D02*
G01X59525840Y-16423879D01*
G01X59625560Y-16469121D02*
G01X59625560Y-16540924D01*
G01X59625560Y-16540924D02*
G01X59525840Y-16540924D01*
G01X59525840Y-16540924D02*
G01X59525840Y-16469121D01*
G01X60920960Y-18201879D02*
G01X60920960Y-18130075D01*
G01X60920960Y-18130075D02*
G01X60821240Y-18130075D01*
G01X60821240Y-18130075D02*
G01X60821240Y-18201879D01*
G01X60920960Y-18247121D02*
G01X60920960Y-18318924D01*
G01X60920960Y-18318924D02*
G01X60821240Y-18318924D01*
G01X60821240Y-18318924D02*
G01X60821240Y-18247121D01*
G01X60577954Y-19193259D02*
G01X60577954Y-19143259D01*
G01X60493476Y-19208501D02*
G01X60562716Y-19208501D01*
G01X60478236Y-19143259D02*
G01X60478236Y-19193259D01*
G01X60478449Y-19048981D02*
G01X60478449Y-19098981D01*
G01X60578162Y-19098981D02*
G01X60578162Y-19048981D01*
G01X60562927Y-19033739D02*
G01X60493684Y-19033739D01*
G01X60578164Y-19048981D02*
G03X60562924Y-19033741I-15240J0D01*
G01X60493684Y-19033741D02*
G03X60478444Y-19048981I0J-15240D01*
G01X60478236Y-19193259D02*
G03X60493476Y-19208499I15240J0D01*
G01X60562716Y-19208499D02*
G03X60577956Y-19193259I0J15240D01*
G01X60478340Y-19402821D02*
G01X60478340Y-19474624D01*
G01X60478340Y-19474624D02*
G01X60578060Y-19474624D01*
G01X60578060Y-19474624D02*
G01X60578060Y-19402821D01*
G01X60478340Y-19357579D02*
G01X60478340Y-19285775D01*
G01X60478340Y-19285775D02*
G01X60578060Y-19285775D01*
G01X60578060Y-19285775D02*
G01X60578060Y-19357579D01*
G01X60908260Y-19332179D02*
G01X60908260Y-19260375D01*
G01X60908260Y-19260375D02*
G01X60808540Y-19260375D01*
G01X60808540Y-19260375D02*
G01X60808540Y-19332179D01*
G01X60908260Y-19377421D02*
G01X60908260Y-19449224D01*
G01X60908260Y-19449224D02*
G01X60808540Y-19449224D01*
G01X60808540Y-19449224D02*
G01X60808540Y-19377421D01*
G01X61047960Y-19332179D02*
G01X61047960Y-19260375D01*
G01X61047960Y-19260375D02*
G01X60948240Y-19260375D01*
G01X60948240Y-19260375D02*
G01X60948240Y-19332179D01*
G01X61047960Y-19377421D02*
G01X61047960Y-19449224D01*
G01X61047960Y-19449224D02*
G01X60948240Y-19449224D01*
G01X60948240Y-19449224D02*
G01X60948240Y-19377421D01*
G54D12*
G01X60653600Y-18973800D02*
G01X60628200Y-18973800D01*
G01X60628200Y-18973800D02*
G01X60628200Y-19177000D01*
G01X60628200Y-19177000D02*
G01X60653600Y-19177000D01*
G01X60909200Y-19177000D02*
G01X60934600Y-19177000D01*
G01X60934600Y-19177000D02*
G01X60934600Y-18973800D01*
G01X60934600Y-18973800D02*
G01X60909200Y-18973800D01*
G54D10*
G01X60228510Y-20908340D02*
G01X60149501Y-20908340D01*
G01X60149501Y-20808620D02*
G01X60228510Y-20808620D01*
G01X60243750Y-20823860D02*
G01X60243750Y-20893100D01*
G01X60025250Y-20908340D02*
G01X60104259Y-20908340D01*
G01X60104259Y-20808620D02*
G01X60025250Y-20808620D01*
G01X60010010Y-20823860D02*
G01X60010010Y-20893100D01*
G01X60228510Y-20808620D02*
G02X60243750Y-20823860I0J-15240D01*
G01X60243750Y-20893100D02*
G02X60228510Y-20908340I-15240J0D01*
G01X60025250Y-20808620D02*
G03X60010010Y-20823860I0J-15240D01*
G01X60010010Y-20893100D02*
G03X60025250Y-20908340I15240J0D01*
G01X60948240Y-20891530D02*
G01X60948240Y-20812521D01*
G01X61047960Y-20812521D02*
G01X61047960Y-20891530D01*
G01X61032720Y-20906770D02*
G01X60963480Y-20906770D01*
G01X60948240Y-20688270D02*
G01X60948240Y-20767279D01*
G01X61047960Y-20767279D02*
G01X61047960Y-20688270D01*
G01X61032720Y-20673030D02*
G01X60963480Y-20673030D01*
G01X61047960Y-20891530D02*
G02X61032720Y-20906770I-15240J0D01*
G01X60963480Y-20906770D02*
G02X60948240Y-20891530I0J15240D01*
G01X61047960Y-20688270D02*
G03X61032720Y-20673030I-15240J0D01*
G01X60963480Y-20673030D02*
G03X60948240Y-20688270I0J-15240D01*
G01X58027346Y-16026381D02*
G01X58027346Y-16076381D01*
G01X58111824Y-16011139D02*
G01X58042584Y-16011139D01*
G01X58127064Y-16076381D02*
G01X58127064Y-16026381D01*
G01X58126851Y-16170659D02*
G01X58126851Y-16120659D01*
G01X58027138Y-16120659D02*
G01X58027138Y-16170659D01*
G01X58042373Y-16185901D02*
G01X58111616Y-16185901D01*
G01X58027136Y-16170659D02*
G03X58042376Y-16185899I15240J0D01*
G01X58111616Y-16185899D02*
G03X58126856Y-16170659I0J15240D01*
G01X58127064Y-16026381D02*
G03X58111824Y-16011141I-15240J0D01*
G01X58042584Y-16011141D02*
G03X58027344Y-16026381I0J-15240D01*
G01X58156108Y-16025849D02*
G01X58156108Y-16075849D01*
G01X58240586Y-16010606D02*
G01X58171345Y-16010606D01*
G01X58255826Y-16075849D02*
G01X58255826Y-16025849D01*
G01X58255612Y-16170126D02*
G01X58255612Y-16120126D01*
G01X58155899Y-16120126D02*
G01X58155899Y-16170126D01*
G01X58171134Y-16185368D02*
G01X58240377Y-16185368D01*
G01X58155897Y-16170126D02*
G03X58171137Y-16185366I15240J0D01*
G01X58240377Y-16185366D02*
G03X58255617Y-16170126I0J15240D01*
G01X58255826Y-16025849D02*
G03X58240586Y-16010609I-15240J0D01*
G01X58171345Y-16010609D02*
G03X58156105Y-16025849I0J-15240D01*
G01X61087000Y-20775564D02*
G01X61071590Y-20790799D01*
G01X61071590Y-20790799D02*
G01X61071590Y-20892442D01*
G01X61071590Y-20892442D02*
G01X61087000Y-20905699D01*
G01X61341000Y-20905699D02*
G01X61356415Y-20890598D01*
G01X61356415Y-20890598D02*
G01X61356415Y-20788955D01*
G01X61356415Y-20788955D02*
G01X61341000Y-20775699D01*
G54D13*
G01X61086799Y-20905699D02*
G01X61162999Y-20905699D01*
G01X61341206Y-20775699D02*
G01X61265006Y-20775699D01*
G01X61086799Y-20775699D02*
G01X61162999Y-20775699D01*
G01X61341206Y-20905699D02*
G01X61265006Y-20905699D01*
G54D10*
G01X58016379Y-15647340D02*
G01X57944576Y-15647340D01*
G01X57944576Y-15647340D02*
G01X57944576Y-15747060D01*
G01X57944576Y-15747060D02*
G01X58016379Y-15747060D01*
G01X58061621Y-15647340D02*
G01X58133425Y-15647340D01*
G01X58133425Y-15647340D02*
G01X58133425Y-15747060D01*
G01X58133425Y-15747060D02*
G01X58061621Y-15747060D01*
G01X58016379Y-16472840D02*
G01X57944576Y-16472840D01*
G01X57944576Y-16472840D02*
G01X57944576Y-16572560D01*
G01X57944576Y-16572560D02*
G01X58016379Y-16572560D01*
G01X58061621Y-16472840D02*
G01X58133425Y-16472840D01*
G01X58133425Y-16472840D02*
G01X58133425Y-16572560D01*
G01X58133425Y-16572560D02*
G01X58061621Y-16572560D01*
G01X58016379Y-16345840D02*
G01X57944576Y-16345840D01*
G01X57944576Y-16345840D02*
G01X57944576Y-16445560D01*
G01X57944576Y-16445560D02*
G01X58016379Y-16445560D01*
G01X58061621Y-16345840D02*
G01X58133425Y-16345840D01*
G01X58133425Y-16345840D02*
G01X58133425Y-16445560D01*
G01X58133425Y-16445560D02*
G01X58061621Y-16445560D01*
G01X58016379Y-15774340D02*
G01X57944576Y-15774340D01*
G01X57944576Y-15774340D02*
G01X57944576Y-15874060D01*
G01X57944576Y-15874060D02*
G01X58016379Y-15874060D01*
G01X58061621Y-15774340D02*
G01X58133425Y-15774340D01*
G01X58133425Y-15774340D02*
G01X58133425Y-15874060D01*
G01X58133425Y-15874060D02*
G01X58061621Y-15874060D01*
G01X58016379Y-16218840D02*
G01X57944576Y-16218840D01*
G01X57944576Y-16218840D02*
G01X57944576Y-16318560D01*
G01X57944576Y-16318560D02*
G01X58016379Y-16318560D01*
G01X58061621Y-16218840D02*
G01X58133425Y-16218840D01*
G01X58133425Y-16218840D02*
G01X58133425Y-16318560D01*
G01X58133425Y-16318560D02*
G01X58061621Y-16318560D01*
G01X61060660Y-18201879D02*
G01X61060660Y-18130075D01*
G01X61060660Y-18130075D02*
G01X60960940Y-18130075D01*
G01X60960940Y-18130075D02*
G01X60960940Y-18201879D01*
G01X61060660Y-18247121D02*
G01X61060660Y-18318924D01*
G01X61060660Y-18318924D02*
G01X60960940Y-18318924D01*
G01X60960940Y-18318924D02*
G01X60960940Y-18247121D01*
G01X59916611Y-19480383D02*
G01X59866612Y-19480383D01*
G01X59931854Y-19564861D02*
G01X59931854Y-19495620D01*
G01X59866612Y-19580101D02*
G01X59916611Y-19580101D01*
G01X59772334Y-19579887D02*
G01X59822334Y-19579887D01*
G01X59822334Y-19480175D02*
G01X59772334Y-19480175D01*
G01X59757092Y-19495410D02*
G01X59757092Y-19564653D01*
G01X59772334Y-19480172D02*
G03X59757094Y-19495412I0J-15240D01*
G01X59757094Y-19564653D02*
G03X59772334Y-19579893I15240J0D01*
G01X59916611Y-19580101D02*
G03X59931851Y-19564861I0J15240D01*
G01X59931851Y-19495620D02*
G03X59916611Y-19480380I-15240J0D01*
G01X60064434Y-19605290D02*
G01X60114434Y-19605290D01*
G01X60049192Y-19520812D02*
G01X60049192Y-19590053D01*
G01X60114434Y-19505572D02*
G01X60064434Y-19505572D01*
G01X60208711Y-19505785D02*
G01X60158712Y-19505785D01*
G01X60158712Y-19605498D02*
G01X60208711Y-19605498D01*
G01X60223954Y-19590263D02*
G01X60223954Y-19521020D01*
G01X60208711Y-19605501D02*
G03X60223951Y-19590261I0J15240D01*
G01X60223951Y-19521020D02*
G03X60208711Y-19505780I-15240J0D01*
G01X60064434Y-19505572D02*
G03X60049194Y-19520812I0J-15240D01*
G01X60049194Y-19590053D02*
G03X60064434Y-19605293I15240J0D01*
G01X60275226Y-19259375D02*
G01X60275226Y-19209375D01*
G01X60190749Y-19274618D02*
G01X60259989Y-19274618D01*
G01X60175509Y-19209375D02*
G01X60175509Y-19259375D01*
G01X60175722Y-19115098D02*
G01X60175722Y-19165098D01*
G01X60275435Y-19165098D02*
G01X60275435Y-19115098D01*
G01X60260200Y-19099855D02*
G01X60190957Y-19099855D01*
G01X60275437Y-19115098D02*
G03X60260197Y-19099858I-15240J0D01*
G01X60190957Y-19099858D02*
G03X60175717Y-19115098I0J-15240D01*
G01X60175509Y-19259375D02*
G03X60190749Y-19274615I15240J0D01*
G01X60259989Y-19274615D02*
G03X60275229Y-19259375I0J15240D01*
G01X60175719Y-19318298D02*
G01X60175719Y-19368298D01*
G01X60260197Y-19303055D02*
G01X60190957Y-19303055D01*
G01X60275437Y-19368298D02*
G01X60275437Y-19318298D01*
G01X60275224Y-19462575D02*
G01X60275224Y-19412575D01*
G01X60175511Y-19412575D02*
G01X60175511Y-19462575D01*
G01X60190746Y-19477818D02*
G01X60259989Y-19477818D01*
G01X60175509Y-19462575D02*
G03X60190749Y-19477815I15240J0D01*
G01X60259989Y-19477815D02*
G03X60275229Y-19462575I0J15240D01*
G01X60275437Y-19318298D02*
G03X60260197Y-19303058I-15240J0D01*
G01X60190957Y-19303058D02*
G03X60175717Y-19318298I0J-15240D01*
G54D12*
G01X60907752Y-16204743D02*
G01X60701504Y-16204743D01*
G01X60707753Y-17004741D02*
G01X60907752Y-17004741D01*
G01X60907752Y-17004741D02*
G01X60907752Y-16904741D01*
G01X60907752Y-16204743D02*
G01X60907752Y-16304743D01*
G01X60607753Y-16954741D02*
G01X60607753Y-16254743D01*
G01X59949904Y-19055223D02*
G01X60023676Y-19055223D01*
G01X59949904Y-19410823D02*
G01X60023676Y-19410823D01*
G54D10*
G01X61073360Y-16004779D02*
G01X61073360Y-15932975D01*
G01X61073360Y-15932975D02*
G01X60973640Y-15932975D01*
G01X60973640Y-15932975D02*
G01X60973640Y-16004779D01*
G01X61073360Y-16050021D02*
G01X61073360Y-16121824D01*
G01X61073360Y-16121824D02*
G01X60973640Y-16121824D01*
G01X60973640Y-16121824D02*
G01X60973640Y-16050021D01*
G01X60933660Y-16004779D02*
G01X60933660Y-15932975D01*
G01X60933660Y-15932975D02*
G01X60833940Y-15932975D01*
G01X60833940Y-15932975D02*
G01X60833940Y-16004779D01*
G01X60933660Y-16050021D02*
G01X60933660Y-16121824D01*
G01X60933660Y-16121824D02*
G01X60833940Y-16121824D01*
G01X60833940Y-16121824D02*
G01X60833940Y-16050021D01*
G01X61070266Y-16481041D02*
G01X61070266Y-16531041D01*
G01X61154744Y-16465799D02*
G01X61085504Y-16465799D01*
G01X61169984Y-16531041D02*
G01X61169984Y-16481041D01*
G01X61169771Y-16625319D02*
G01X61169771Y-16575319D01*
G01X61070058Y-16575319D02*
G01X61070058Y-16625319D01*
G01X61085293Y-16640561D02*
G01X61154536Y-16640561D01*
G01X61070056Y-16625319D02*
G03X61085296Y-16640559I15240J0D01*
G01X61154536Y-16640559D02*
G03X61169776Y-16625319I0J15240D01*
G01X61169984Y-16481041D02*
G03X61154744Y-16465801I-15240J0D01*
G01X61085504Y-16465801D02*
G03X61070264Y-16481041I0J-15240D01*
G01X60552106Y-15952721D02*
G01X60552106Y-16002721D01*
G01X60636584Y-15937479D02*
G01X60567344Y-15937479D01*
G01X60651824Y-16002721D02*
G01X60651824Y-15952721D01*
G01X60651611Y-16096999D02*
G01X60651611Y-16046999D01*
G01X60551898Y-16046999D02*
G01X60551898Y-16096999D01*
G01X60567133Y-16112241D02*
G01X60636376Y-16112241D01*
G01X60551896Y-16096999D02*
G03X60567136Y-16112239I15240J0D01*
G01X60636376Y-16112239D02*
G03X60651616Y-16096999I0J15240D01*
G01X60651824Y-15952721D02*
G03X60636584Y-15937481I-15240J0D01*
G01X60567344Y-15937481D02*
G03X60552104Y-15952721I0J-15240D01*
G01X59585621Y-16750360D02*
G01X59657425Y-16750360D01*
G01X59657425Y-16750360D02*
G01X59657425Y-16650640D01*
G01X59657425Y-16650640D02*
G01X59585621Y-16650640D01*
G01X59540379Y-16750360D02*
G01X59468576Y-16750360D01*
G01X59468576Y-16750360D02*
G01X59468576Y-16650640D01*
G01X59468576Y-16650640D02*
G01X59540379Y-16650640D01*
G01X59585621Y-16915460D02*
G01X59657425Y-16915460D01*
G01X59657425Y-16915460D02*
G01X59657425Y-16815740D01*
G01X59657425Y-16815740D02*
G01X59585621Y-16815740D01*
G01X59540379Y-16915460D02*
G01X59468576Y-16915460D01*
G01X59468576Y-16915460D02*
G01X59468576Y-16815740D01*
G01X59468576Y-16815740D02*
G01X59540379Y-16815740D01*
G54D12*
G01X60556219Y-17195637D02*
G01X60636216Y-17195637D01*
G01X60500174Y-17195683D02*
G01X60420176Y-17195683D01*
G01X60556219Y-17053669D02*
G01X60636216Y-17053669D01*
G01X60500174Y-17053717D02*
G01X60420176Y-17053717D01*
G01X60667191Y-17164655D02*
G01X60667191Y-17084650D01*
G01X60389199Y-17084703D02*
G01X60389199Y-17164705D01*
G01X60420181Y-17053717D02*
G03X60389199Y-17084703I0J-30983D01*
G01X60389199Y-17164700D02*
G03X60420181Y-17195683I30983J0D01*
G01X60636211Y-17195637D02*
G03X60667191Y-17164655I-3J30983D01*
G01X60667191Y-17084657D02*
G03X60636211Y-17053669I-30983J5D01*
G01X60556219Y-17373437D02*
G01X60636216Y-17373437D01*
G01X60500174Y-17373483D02*
G01X60420176Y-17373483D01*
G01X60556219Y-17231469D02*
G01X60636216Y-17231469D01*
G01X60500174Y-17231517D02*
G01X60420176Y-17231517D01*
G01X60667191Y-17342455D02*
G01X60667191Y-17262450D01*
G01X60389199Y-17262503D02*
G01X60389199Y-17342505D01*
G01X60420181Y-17231517D02*
G03X60389199Y-17262503I0J-30983D01*
G01X60389199Y-17342500D02*
G03X60420181Y-17373483I30983J0D01*
G01X60636211Y-17373437D02*
G03X60667191Y-17342455I-3J30983D01*
G01X60667191Y-17262457D02*
G03X60636211Y-17231469I-30983J5D01*
G01X60802360Y-17528450D02*
G01X60802360Y-17448453D01*
G01X60802406Y-17584495D02*
G01X60802406Y-17664492D01*
G01X60660392Y-17528450D02*
G01X60660392Y-17448453D01*
G01X60660440Y-17584495D02*
G01X60660440Y-17664492D01*
G01X60771377Y-17417477D02*
G01X60691372Y-17417477D01*
G01X60691426Y-17695470D02*
G01X60771428Y-17695470D01*
G01X60660440Y-17664487D02*
G03X60691426Y-17695470I30983J0D01*
G01X60771423Y-17695470D02*
G03X60802406Y-17664487I0J30983D01*
G01X60802360Y-17448458D02*
G03X60771377Y-17417477I-30983J-3D01*
G01X60691380Y-17417477D02*
G03X60660392Y-17448458I-5J-30983D01*
G01X60611857Y-17528461D02*
G01X60611857Y-17448464D01*
G01X60611903Y-17584506D02*
G01X60611903Y-17664504D01*
G01X60469889Y-17528461D02*
G01X60469889Y-17448464D01*
G01X60469937Y-17584506D02*
G01X60469937Y-17664504D01*
G01X60580875Y-17417489D02*
G01X60500870Y-17417489D01*
G01X60500923Y-17695481D02*
G01X60580925Y-17695481D01*
G01X60469937Y-17664499D02*
G03X60500923Y-17695481I30983J0D01*
G01X60580920Y-17695481D02*
G03X60611903Y-17664499I0J30983D01*
G01X60611857Y-17448469D02*
G03X60580875Y-17417489I-30983J-3D01*
G01X60500877Y-17417489D02*
G03X60469889Y-17448469I-5J-30983D01*
G54D13*
G01X60083700Y-17365980D02*
G01X60312300Y-17365980D01*
G01X60312300Y-17162780D02*
G01X60083700Y-17162780D01*
G54D10*
G01X60864791Y-17202280D02*
G01X60864791Y-17066288D01*
G01X60864791Y-17066288D02*
G01X61080609Y-17066288D01*
G01X61080609Y-17066288D02*
G01X61080609Y-17202280D01*
G01X60864791Y-17392520D02*
G01X60864791Y-17528512D01*
G01X60864791Y-17528512D02*
G01X61080609Y-17528512D01*
G01X61080609Y-17528512D02*
G01X61080609Y-17392520D01*
G01X60040759Y-17765700D02*
G01X59968956Y-17765700D01*
G01X59968956Y-17765700D02*
G01X59968956Y-17865420D01*
G01X59968956Y-17865420D02*
G01X60040759Y-17865420D01*
G01X60086001Y-17765700D02*
G01X60157805Y-17765700D01*
G01X60157805Y-17765700D02*
G01X60157805Y-17865420D01*
G01X60157805Y-17865420D02*
G01X60086001Y-17865420D01*
G54D14*
G01X60146103Y-17696891D02*
G01X60146103Y-17711486D01*
G01X60146103Y-17601893D02*
G01X60146103Y-17606061D01*
G01X60146103Y-17506899D02*
G01X60146103Y-17511065D01*
G01X60146103Y-17401484D02*
G01X60146103Y-17416069D01*
G01X60326105Y-17696891D02*
G01X60326105Y-17711486D01*
G01X60326105Y-17506899D02*
G01X60326105Y-17606063D01*
G01X60326105Y-17401484D02*
G01X60326105Y-17416071D01*
G01X60326105Y-17401484D02*
G01X60146103Y-17401484D01*
G01X60326105Y-17711486D02*
G01X60146103Y-17711486D01*
G36*
G01X60215699Y-17658080D02*
G02X60180299Y-17658080I-17700J-212D01*
G02X60215699Y-17658080I17700J212D01*
G37*
G54D10*
G01X61099670Y-20638440D02*
G01X61178679Y-20638440D01*
G01X61178679Y-20738160D02*
G01X61099670Y-20738160D01*
G01X61084430Y-20722920D02*
G01X61084430Y-20653680D01*
G01X61302930Y-20638440D02*
G01X61223921Y-20638440D01*
G01X61223921Y-20738160D02*
G01X61302930Y-20738160D01*
G01X61318170Y-20722920D02*
G01X61318170Y-20653680D01*
G01X61099670Y-20738160D02*
G02X61084430Y-20722920I0J15240D01*
G01X61084430Y-20653680D02*
G02X61099670Y-20638440I15240J0D01*
G01X61302930Y-20738160D02*
G03X61318170Y-20722920I0J15240D01*
G01X61318170Y-20653680D02*
G03X61302930Y-20638440I-15240J0D01*
G01X60911979Y-17971440D02*
G01X60840176Y-17971440D01*
G01X60840176Y-17971440D02*
G01X60840176Y-18071160D01*
G01X60840176Y-18071160D02*
G01X60911979Y-18071160D01*
G01X60957221Y-17971440D02*
G01X61029025Y-17971440D01*
G01X61029025Y-17971440D02*
G01X61029025Y-18071160D01*
G01X61029025Y-18071160D02*
G01X60957221Y-18071160D01*
G01X60911979Y-17793640D02*
G01X60840176Y-17793640D01*
G01X60840176Y-17793640D02*
G01X60840176Y-17893360D01*
G01X60840176Y-17893360D02*
G01X60911979Y-17893360D01*
G01X60957221Y-17793640D02*
G01X61029025Y-17793640D01*
G01X61029025Y-17793640D02*
G01X61029025Y-17893360D01*
G01X61029025Y-17893360D02*
G01X60957221Y-17893360D01*
G01X60793960Y-16004779D02*
G01X60793960Y-15932975D01*
G01X60793960Y-15932975D02*
G01X60694240Y-15932975D01*
G01X60694240Y-15932975D02*
G01X60694240Y-16004779D01*
G01X60793960Y-16050021D02*
G01X60793960Y-16121824D01*
G01X60793960Y-16121824D02*
G01X60694240Y-16121824D01*
G01X60694240Y-16121824D02*
G01X60694240Y-16050021D01*
G01X61213060Y-16004779D02*
G01X61213060Y-15932975D01*
G01X61213060Y-15932975D02*
G01X61113340Y-15932975D01*
G01X61113340Y-15932975D02*
G01X61113340Y-16004779D01*
G01X61213060Y-16050021D02*
G01X61213060Y-16121824D01*
G01X61213060Y-16121824D02*
G01X61113340Y-16121824D01*
G01X61113340Y-16121824D02*
G01X61113340Y-16050021D01*
G01X59328274Y-19525999D02*
G01X59328274Y-19475999D01*
G01X59243796Y-19541241D02*
G01X59313036Y-19541241D01*
G01X59228556Y-19475999D02*
G01X59228556Y-19525999D01*
G01X59228769Y-19381721D02*
G01X59228769Y-19431721D01*
G01X59328482Y-19431721D02*
G01X59328482Y-19381721D01*
G01X59313247Y-19366479D02*
G01X59244004Y-19366479D01*
G01X59328484Y-19381721D02*
G03X59313244Y-19366481I-15240J0D01*
G01X59244004Y-19366481D02*
G03X59228764Y-19381721I0J-15240D01*
G01X59228556Y-19525999D02*
G03X59243796Y-19541239I15240J0D01*
G01X59313036Y-19541239D02*
G03X59328276Y-19525999I0J15240D01*
G54D12*
G01X60510105Y-19527896D02*
G01X61252100Y-19527896D01*
G01X61252100Y-19527896D02*
G01X61252100Y-19678579D01*
G01X60510105Y-19527896D02*
G01X60510105Y-20527891D01*
G01X60510105Y-20527891D02*
G01X61252100Y-20527891D01*
G01X61252100Y-20527891D02*
G01X61252100Y-20377211D01*
G01X58647802Y-19347299D02*
G01X58647802Y-20124298D01*
G01X58672128Y-20126193D02*
G01X58647805Y-20126193D01*
G01X58986905Y-20126193D02*
G01X58826672Y-20126193D01*
G01X58986905Y-20046086D02*
G01X58986905Y-20126193D01*
G01X58986903Y-19346499D02*
G01X58986903Y-19425509D01*
G01X58671503Y-19346499D02*
G01X58647802Y-19346499D01*
G01X58986903Y-19346499D02*
G01X58827309Y-19346499D01*
G54D10*
G01X60630846Y-19308061D02*
G01X60630846Y-19358061D01*
G01X60715324Y-19292819D02*
G01X60646084Y-19292819D01*
G01X60730564Y-19358061D02*
G01X60730564Y-19308061D01*
G01X60730351Y-19452339D02*
G01X60730351Y-19402339D01*
G01X60630638Y-19402339D02*
G01X60630638Y-19452339D01*
G01X60645873Y-19467581D02*
G01X60715116Y-19467581D01*
G01X60630636Y-19452339D02*
G03X60645876Y-19467579I15240J0D01*
G01X60715116Y-19467579D02*
G03X60730356Y-19452339I0J15240D01*
G01X60730564Y-19308061D02*
G03X60715324Y-19292821I-15240J0D01*
G01X60646084Y-19292821D02*
G03X60630844Y-19308061I0J-15240D01*
G54D12*
G01X61232801Y-21674618D02*
G01X61232801Y-21825301D01*
G01X61232801Y-21418032D02*
G01X61232801Y-21475995D01*
G01X61232801Y-21075299D02*
G01X61232801Y-21232561D01*
G01X60532802Y-21075305D02*
G01X61232801Y-21075299D01*
G01X60531802Y-21825301D02*
G01X61232801Y-21825301D01*
G01X60532802Y-21075305D02*
G01X60532802Y-21825301D01*
G54D10*
G01X59826870Y-17692840D02*
G01X59826870Y-17257560D01*
G01X59826870Y-17257560D02*
G01X59299130Y-17257560D01*
G01X59299130Y-17257560D02*
G01X59299130Y-17692840D01*
G01X59299130Y-17692840D02*
G01X59826870Y-17692840D01*
G01X59803254Y-16899639D02*
G01X59803254Y-16849639D01*
G01X59718776Y-16914881D02*
G01X59788016Y-16914881D01*
G01X59703536Y-16849639D02*
G01X59703536Y-16899639D01*
G01X59703749Y-16755361D02*
G01X59703749Y-16805361D01*
G01X59803462Y-16805361D02*
G01X59803462Y-16755361D01*
G01X59788227Y-16740119D02*
G01X59718984Y-16740119D01*
G01X59803464Y-16755361D02*
G03X59788224Y-16740121I-15240J0D01*
G01X59718984Y-16740121D02*
G03X59703744Y-16755361I0J-15240D01*
G01X59703536Y-16899639D02*
G03X59718776Y-16914879I15240J0D01*
G01X59788016Y-16914879D02*
G03X59803256Y-16899639I0J15240D01*
G01X60793960Y-17985979D02*
G01X60793960Y-17914175D01*
G01X60793960Y-17914175D02*
G01X60694240Y-17914175D01*
G01X60694240Y-17914175D02*
G01X60694240Y-17985979D01*
G01X60793960Y-18031221D02*
G01X60793960Y-18103024D01*
G01X60793960Y-18103024D02*
G01X60694240Y-18103024D01*
G01X60694240Y-18103024D02*
G01X60694240Y-18031221D01*
G01X60567240Y-18031221D02*
G01X60567240Y-18103024D01*
G01X60567240Y-18103024D02*
G01X60666960Y-18103024D01*
G01X60666960Y-18103024D02*
G01X60666960Y-18031221D01*
G01X60567240Y-17985979D02*
G01X60567240Y-17914175D01*
G01X60567240Y-17914175D02*
G01X60666960Y-17914175D01*
G01X60666960Y-17914175D02*
G01X60666960Y-17985979D01*
G01X60514560Y-17985979D02*
G01X60514560Y-17914175D01*
G01X60514560Y-17914175D02*
G01X60414840Y-17914175D01*
G01X60414840Y-17914175D02*
G01X60414840Y-17985979D01*
G01X60514560Y-18031221D02*
G01X60514560Y-18103024D01*
G01X60514560Y-18103024D02*
G01X60414840Y-18103024D01*
G01X60414840Y-18103024D02*
G01X60414840Y-18031221D01*
G54D15*
G01X60345320Y-18322901D02*
G01X60345320Y-18142638D01*
G01X60345320Y-18142638D02*
G01X60300598Y-18187360D01*
G01X60345320Y-18142638D02*
G01X60388060Y-18185378D01*
G01X60469780Y-18326022D02*
G01X60469780Y-18145760D01*
G01X60469780Y-18145760D02*
G01X60425058Y-18190482D01*
G01X60469780Y-18145760D02*
G01X60512520Y-18188500D01*

G04 Rect Start*
G54D12*
G01X60744100Y-20271194D02*
G01X60515500Y-20271194D01*
G01X60515500Y-19773887D01*
G01X60744100Y-19773887D01*
G01X60744100Y-20271194D01*
G04 Rect End*

G04 Circle Start*
G54D17*
G01X59354339Y-20245527D02*
G03X59384362Y-20245527I15011J0D01*
G03X59354339Y-20245527I-15011J0D01*
G54D18*
G01X60383572Y-20891487D02*
G03X60403588Y-20891487I10008J0D01*
G03X60383572Y-20891487I-10008J0D01*
G54D12*
G01X60617100Y-18923000D02*
G03X60642500Y-18923000I12700J0D01*
G03X60617100Y-18923000I-12700J0D01*
G54D19*
G01X59774293Y-19393018D02*
G03X59799287Y-19393018I12497J0D01*
G03X59774293Y-19393018I-12497J0D01*
G54D12*
G01X59025015Y-19397294D02*
G03X59050415Y-19397294I12700J0D01*
G03X59025015Y-19397294I-12700J0D01*
G54D17*
G01X59738489Y-17617592D02*
G03X59768511Y-17617592I15011J0D01*
G03X59738489Y-17617592I-15011J0D01*
G01X59815222Y-17828209D02*
G03X59845245Y-17828209I15011J0D01*
G03X59815222Y-17828209I-15011J0D01*
G04 Circle End*

M02*

