G04 Layer: BottomSolderMaskLayer*
G04 EasyEDA Pro v3.2.148, 2026-09-22 00:44:55*
G04 Gerber Generator version 0.3*
G04 Scale: 100 percent, Rotated: No, Reflected: No*
G04 Dimensions in millimeters*
G04 Leading zeros omitted, absolute positions, 4 integers and 5 decimals*
G04 Generated by one-click*
G04 Object Configs: Pad,Via,Track,Text,Image,Dimension,BoardOutline,BoardCutout,CopperFilled,SolidRegion,FPCStiffener,Line,PlaneZone,ComponentProperty,ComponentSilkscreen,TearDrop*
G04 Layer Configs: 1,15,16,17,18,2,3,4,5,6,7,8,9,10,11,13,14,56*
G04 Copper Areas: 0*
%FSLAX45Y45*%
%MOMM*%
%AMRoundRect*1,1,$1,$2,$3*1,1,$1,$4,$5*1,1,$1,0-$2,0-$3*1,1,$1,0-$4,0-$5*20,1,$1,$2,$3,$4,$5,0*20,1,$1,$4,$5,0-$2,0-$3,0*20,1,$1,0-$2,0-$3,0-$4,0-$5,0*20,1,$1,0-$4,0-$5,$2,$3,0*4,1,4,$2,$3,$4,$5,0-$2,0-$3,0-$4,0-$5,$2,$3,0*%
%ADD10RoundRect,0.1016X-0.536X-0.266X-0.536X0.266*%
%ADD11RoundRect,0.1016X-0.27X-0.25X-0.27X0.25*%
%ADD12RoundRect,0.10201X-0.65X-0.15X-0.65X0.15*%
%ADD13RoundRect,0.1016X-0.27X-0.28283X-0.27X0.28283*%
%ADD14O,1.20002X2.10002*%
%ADD15O,1.30002X1.90002*%
%ADD16RoundRect,0.1016X-0.115X0.5X0.115X0.5*%
%ADD17RoundRect,0.1016X-0.115X0.4125X0.115X0.4125*%
%ADD18RoundRect,0.1096X-0.39505X0.27X0.39505X0.27*%
%ADD19RoundRect,0.1016X-0.39505X0.27X0.39505X0.27*%
%ADD20RoundRect,0.1016X-0.27X-0.39505X-0.27X0.39505*%
%ADD21RoundRect,0.1016X-0.4X0.432X0.4X0.432*%
%ADD22RoundRect,0.1016X-0.28283X0.27X0.28283X0.27*%
%ADD23RoundRect,0.1016X-0.25X0.27X0.25X0.27*%
%ADD24RoundRect,0.1016X-0.4X-0.15X-0.4X0.15*%
%ADD25RoundRect,0.1016X-0.32501X-0.15X-0.32501X0.15*%
%ADD26RoundRect,0.1016X-0.47501X-0.2X-0.47501X0.2*%
%ADD27RoundRect,0.10003X-0.5X0.20003X0.5X0.20003*%
%ADD28RoundRect,0.10003X-0.5X0.35001X0.5X0.35001*%
%ADD29RoundRect,0.1016X-0.4X0.45X0.4X0.45*%
%ADD30RoundRect,0.1016X-0.45X-0.4X-0.45X0.4*%
%ADD31RoundRect,0.1016X-0.5X0.86001X0.5X0.86001*%
%ADD32RoundRect,0.1016X-0.85051X-0.60376X-0.85051X0.60376*%
%ADD33RoundRect,0.1016X-0.55X0.3X0.55X0.3*%
%ADD34C,2.40284*%
%ADD35C,1.6256*%
%ADD36RoundRect,0.1016X-0.762X-0.762X-0.762X0.762*%
%ADD37RoundRect,0.1X-0.57501X-0.15X-0.57501X0.15*%
%ADD38RoundRect,0.1X-0.32501X-0.15X-0.32501X0.15*%
%ADD39RoundRect,0.1X-0.75X-0.762X-0.75X0.762*%
%ADD40C,1.6*%
%ADD41O,0.7316X2.35161*%
G75*


G04 Pad Start*
G54D10*
G01X59384590Y-20173696D03*
G01X59384590Y-20078700D03*
G01X59384590Y-19983704D03*
G01X59614410Y-19983704D03*
G01X59614410Y-20078700D03*
G01X59614410Y-20173696D03*
G54D11*
G01X59786520Y-20171308D03*
G01X59786520Y-20255332D03*
G54D12*
G01X60356699Y-20839087D03*
G01X60356699Y-20789100D03*
G01X60356699Y-20739113D03*
G01X60356699Y-20689100D03*
G01X60356699Y-20639087D03*
G01X60826701Y-20639113D03*
G01X60826701Y-20689100D03*
G01X60826701Y-20739087D03*
G01X60826701Y-20789100D03*
G01X60826701Y-20839112D03*
G54D11*
G01X59448700Y-16488512D03*
G01X59448700Y-16404488D03*
G01X59563000Y-16150488D03*
G01X59563000Y-16234512D03*
G01X59436000Y-16150488D03*
G01X59436000Y-16234512D03*
G54D13*
G01X60337700Y-18051882D03*
G01X60337700Y-17965318D03*
G01X59575700Y-16489782D03*
G01X59575700Y-16403218D03*
G01X60871100Y-18267782D03*
G01X60871100Y-18181218D03*
G54D14*
G01X59899106Y-21676728D03*
G01X60764103Y-21676728D03*
G54D15*
G01X59899106Y-22096743D03*
G01X60764103Y-22096743D03*
G54D11*
G01X60528200Y-19079108D03*
G01X60528200Y-19163132D03*
G54D13*
G01X60528200Y-19336918D03*
G01X60528200Y-19423482D03*
G01X60858400Y-19398082D03*
G01X60858400Y-19311518D03*
G01X60998100Y-19398082D03*
G01X60998100Y-19311518D03*
G54D16*
G01X60682200Y-18995390D03*
G54D17*
G01X60682200Y-19164148D03*
G01X60732213Y-18986652D03*
G01X60732213Y-19164148D03*
G01X60782200Y-18986652D03*
G01X60782200Y-19164148D03*
G01X60832213Y-18986652D03*
G01X60832213Y-19164148D03*
G01X60882200Y-18986652D03*
G01X60882200Y-19164148D03*
G54D19*
G01X60181388Y-20858480D03*
G01X60072372Y-20858480D03*
G54D20*
G01X60998100Y-20844408D03*
G01X60998100Y-20735392D03*
G54D11*
G01X58077100Y-16140532D03*
G01X58077100Y-16056508D03*
G01X58205861Y-16139999D03*
G01X58205861Y-16055976D03*
G54D21*
G01X61144010Y-20840700D03*
G01X61283990Y-20840700D03*
G54D22*
G01X58082282Y-15697200D03*
G01X57995718Y-15697200D03*
G01X58082282Y-16522700D03*
G01X57995718Y-16522700D03*
G01X58082282Y-16395700D03*
G01X57995718Y-16395700D03*
G01X58082282Y-15824200D03*
G01X57995718Y-15824200D03*
G01X58082282Y-16268700D03*
G01X57995718Y-16268700D03*
G54D13*
G01X61010800Y-18267782D03*
G01X61010800Y-18181218D03*
G54D23*
G01X59802461Y-19530136D03*
G01X59886484Y-19530136D03*
G01X60178584Y-19555536D03*
G01X60094561Y-19555536D03*
G54D11*
G01X60225473Y-19145225D03*
G01X60225473Y-19229248D03*
G01X60225473Y-19432448D03*
G01X60225473Y-19348425D03*
G54D24*
G01X60657753Y-16904741D03*
G54D25*
G01X60945255Y-16874744D03*
G54D24*
G01X60657753Y-16844747D03*
G54D25*
G01X60945255Y-16814749D03*
G54D24*
G01X60657753Y-16784752D03*
G54D25*
G01X60945255Y-16754729D03*
G54D24*
G01X60657753Y-16724732D03*
G54D25*
G01X60945255Y-16694734D03*
G54D24*
G01X60657753Y-16664737D03*
G54D25*
G01X60945255Y-16634739D03*
G54D24*
G01X60657753Y-16604742D03*
G54D25*
G01X60945255Y-16574745D03*
G54D24*
G01X60657753Y-16544747D03*
G54D25*
G01X60945255Y-16514750D03*
G54D24*
G01X60657753Y-16484752D03*
G54D25*
G01X60945255Y-16454730D03*
G54D24*
G01X60657753Y-16424732D03*
G54D25*
G01X60945255Y-16394735D03*
G54D24*
G01X60657753Y-16364737D03*
G54D25*
G01X60945255Y-16334740D03*
G54D24*
G01X60657753Y-16304743D03*
G54D26*
G01X60685261Y-16969740D03*
G01X60685261Y-16239744D03*
G54D27*
G01X60096797Y-19303026D03*
G01X60096797Y-19233023D03*
G01X60096797Y-19163021D03*
G01X59876782Y-19163021D03*
G01X59876782Y-19233023D03*
G01X59876782Y-19303026D03*
G54D28*
G01X60096797Y-19388014D03*
G01X60096797Y-19078032D03*
G01X59876782Y-19078032D03*
G01X59876782Y-19388014D03*
G54D13*
G01X61023500Y-16070682D03*
G01X61023500Y-15984118D03*
G01X60883800Y-16070682D03*
G01X60883800Y-15984118D03*
G54D11*
G01X61120020Y-16595192D03*
G01X61120020Y-16511168D03*
G01X60601860Y-16066872D03*
G01X60601860Y-15982848D03*
G54D22*
G01X59519718Y-16700500D03*
G01X59606282Y-16700500D03*
G01X59519718Y-16865600D03*
G01X59606282Y-16865600D03*
G54D29*
G01X60458198Y-17124680D03*
G01X60598202Y-17124680D03*
G01X60458198Y-17302480D03*
G01X60598202Y-17302480D03*
G54D30*
G01X60731403Y-17626471D03*
G01X60731403Y-17486466D03*
G01X60540900Y-17626482D03*
G01X60540900Y-17486478D03*
G54D31*
G01X60115196Y-17264380D03*
G01X60280804Y-17264380D03*
G54D32*
G01X60972700Y-17149521D03*
G01X60972700Y-17445279D03*
G54D22*
G01X60106662Y-17815560D03*
G01X60020098Y-17815560D03*
G54D33*
G01X60366110Y-17651476D03*
G01X60366110Y-17461484D03*
G01X60106090Y-17461484D03*
G01X60106090Y-17556480D03*
G01X60106090Y-17651476D03*
G54D19*
G01X61146792Y-20688300D03*
G01X61255808Y-20688300D03*
G54D22*
G01X60977882Y-18021300D03*
G01X60891318Y-18021300D03*
G01X60977882Y-17843500D03*
G01X60891318Y-17843500D03*
G54D34*
G01X57216802Y-21114640D03*
G01X57944004Y-18100802D03*
G01X61336682Y-18914618D03*
G01X57867550Y-15039468D03*
G54D13*
G01X60744100Y-16070682D03*
G01X60744100Y-15984118D03*
G01X61163200Y-16070682D03*
G01X61163200Y-15984118D03*
G54D11*
G01X59278520Y-19411848D03*
G01X59278520Y-19495872D03*
G54D35*
G01X61252100Y-19777900D03*
G01X61252100Y-20027887D03*
G54D36*
G01X61252100Y-20277899D03*
G54D37*
G01X58749400Y-19372301D03*
G54D38*
G01X59030400Y-20010806D03*
G01X59030400Y-19960793D03*
G01X59030400Y-19910806D03*
G01X59030400Y-19860793D03*
G01X59030400Y-19810806D03*
G01X59030400Y-19760794D03*
G01X59030400Y-19710806D03*
G01X59030400Y-19660794D03*
G01X59030400Y-19610807D03*
G01X59030400Y-19560794D03*
G01X59030400Y-19510807D03*
G01X59030400Y-19460794D03*
G54D37*
G01X58749400Y-20099299D03*
G54D11*
G01X60680600Y-19422212D03*
G01X60680600Y-19338188D03*
G54D39*
G01X61264800Y-21575306D03*
G54D40*
G01X61264800Y-21325294D03*
G54D41*
G01X59753500Y-17828209D03*
G01X59626500Y-17828209D03*
G01X59499500Y-17828209D03*
G01X59372500Y-17828209D03*
G01X59753500Y-17122191D03*
G01X59626500Y-17122191D03*
G01X59499500Y-17122191D03*
G01X59372500Y-17122191D03*
G54D11*
G01X59753500Y-16785488D03*
G01X59753500Y-16869512D03*
G54D13*
G01X60744100Y-18051882D03*
G01X60744100Y-17965318D03*
G01X60617100Y-17965318D03*
G01X60617100Y-18051882D03*
G01X60464700Y-18051882D03*
G01X60464700Y-17965318D03*
G04 Pad End*

M02*

