G04 Layer: TopPasteMaskLayer*
G04 EasyEDA Pro v3.2.148, 2026-09-22 00:44:55*
G04 Gerber Generator version 0.3*
G04 Scale: 100 percent, Rotated: No, Reflected: No*
G04 Dimensions in millimeters*
G04 Leading zeros omitted, absolute positions, 4 integers and 5 decimals*
G04 Generated by one-click*
G04 Object Configs: Pad,Via,Track,Text,Image,Dimension,BoardOutline,BoardCutout,CopperFilled,SolidRegion,FPCStiffener,Line,PlaneZone,ComponentProperty,ComponentSilkscreen,TearDrop*
G04 Layer Configs: 1,15,16,17,18,2,3,4,5,6,7,8,9,10,11,13,14,56*
G04 Copper Areas: 0*
%FSLAX45Y45*%
%MOMM*%
%AMPolygonMacro1*4,1,4,3.302,0.0,0.0,-3.302,-3.302,0.0,0.0,3.302,3.302,0.0,0*%
%ADD10R,0.8X0.9*%
%ADD11R,0.5X0.54*%
%ADD12R,0.532X1.07201*%
%ADD13R,1.15001X0.95001*%
%ADD14R,1.72001X1.0*%
%ADD15R,0.6018X1.1*%
%ADD16R,0.6X1.1*%
%ADD17R,0.9X0.8*%
%ADD18R,2.0X1.5*%
%ADD19R,2.59999X1.5*%
%ADD20R,1.0X0.6*%
%ADD21R,0.53X0.17501*%
%ADD22R,0.6X0.17501*%
%ADD23R,0.8X0.4*%
%ADD24R,0.4X0.8*%
%ADD25R,0.8X0.8*%
%ADD26PolygonMacro1*%
%ADD27R,1.2X1.4*%
%ADD28R,1.0X1.72001*%
%ADD29R,0.54X0.5*%
%ADD30R,0.55001X1.1*%
%ADD31R,0.3X1.1*%
%ADD32R,0.28001X0.67501*%
%ADD33R,0.67501X0.28001*%
%ADD34R,1.6X0.7*%
%ADD35R,1.5X1.2*%
%ADD36R,2.2X1.2*%
%ADD37R,1.5X1.6*%
%ADD38O,0.3X1.2*%
G75*


G04 PolygonModel Start*
G36*
G01X60141620Y-20924202D02*
G01X60269618Y-20924202D01*
G01X60274619Y-20929204D01*
G01X60274619Y-21044205D01*
G01X60269618Y-21049204D01*
G01X60228615Y-21049706D01*
G01X60228615Y-21004705D01*
G01X60183616Y-21004705D01*
G01X60183616Y-21048706D01*
G01X60141620Y-21049204D01*
G01X60136618Y-21044205D01*
G01X60136618Y-20929204D01*
G01X60141620Y-20924202D01*
G37*
G36*
G01X60269620Y-21265197D02*
G01X60141622Y-21265197D01*
G01X60136621Y-21260196D01*
G01X60136621Y-21145195D01*
G01X60141622Y-21140196D01*
G01X60182625Y-21139694D01*
G01X60182625Y-21184695D01*
G01X60227624Y-21184695D01*
G01X60227624Y-21140694D01*
G01X60269620Y-21140196D01*
G01X60274622Y-21145195D01*
G01X60274622Y-21260196D01*
G01X60269620Y-21265197D01*
G37*
G36*
G01X61197634Y-20823207D02*
G01X61197634Y-20869207D01*
G01X61193634Y-20873207D01*
G01X61143570Y-20873207D01*
G01X61139570Y-20869207D01*
G01X61139570Y-20823207D01*
G01X61143570Y-20819207D01*
G01X61193634Y-20819207D01*
G01X61197634Y-20823207D01*
G37*
G36*
G01X61224634Y-20823207D02*
G01X61228635Y-20819207D01*
G01X61278698Y-20819207D01*
G01X61282699Y-20823207D01*
G01X61282699Y-20869207D01*
G01X61278698Y-20873207D01*
G01X61228635Y-20873207D01*
G01X61224634Y-20869207D01*
G01X61224634Y-20823207D01*
G37*
G36*
G01X61197634Y-20950207D02*
G01X61197634Y-20996207D01*
G01X61193634Y-21000207D01*
G01X61143570Y-21000207D01*
G01X61139570Y-20996207D01*
G01X61139570Y-20950207D01*
G01X61143570Y-20946207D01*
G01X61193634Y-20946207D01*
G01X61197634Y-20950207D01*
G37*
G36*
G01X61224634Y-20950207D02*
G01X61228635Y-20946207D01*
G01X61278698Y-20946207D01*
G01X61282699Y-20950207D01*
G01X61282699Y-20996207D01*
G01X61278698Y-21000207D01*
G01X61228635Y-21000207D01*
G01X61224634Y-20996207D01*
G01X61224634Y-20950207D01*
G37*
G36*
G01X61197634Y-21077207D02*
G01X61197634Y-21123207D01*
G01X61193634Y-21127207D01*
G01X61143570Y-21127207D01*
G01X61139570Y-21123207D01*
G01X61139570Y-21077207D01*
G01X61143570Y-21073207D01*
G01X61193634Y-21073207D01*
G01X61197634Y-21077207D01*
G37*
G36*
G01X61224634Y-21077207D02*
G01X61228635Y-21073207D01*
G01X61278698Y-21073207D01*
G01X61282699Y-21077207D01*
G01X61282699Y-21123207D01*
G01X61278698Y-21127207D01*
G01X61228635Y-21127207D01*
G01X61224634Y-21123207D01*
G01X61224634Y-21077207D01*
G37*
G36*
G01X61197634Y-20696207D02*
G01X61197634Y-20742207D01*
G01X61193634Y-20746207D01*
G01X61143570Y-20746207D01*
G01X61139570Y-20742207D01*
G01X61139570Y-20696207D01*
G01X61143570Y-20692207D01*
G01X61193634Y-20692207D01*
G01X61197634Y-20696207D01*
G37*
G36*
G01X61224634Y-20696207D02*
G01X61228635Y-20692207D01*
G01X61278698Y-20692207D01*
G01X61282699Y-20696207D01*
G01X61282699Y-20742207D01*
G01X61278698Y-20746207D01*
G01X61228635Y-20746207D01*
G01X61224634Y-20742207D01*
G01X61224634Y-20696207D01*
G37*
G36*
G01X61197634Y-20569207D02*
G01X61197634Y-20615207D01*
G01X61193634Y-20619207D01*
G01X61143570Y-20619207D01*
G01X61139570Y-20615207D01*
G01X61139570Y-20569207D01*
G01X61143570Y-20565207D01*
G01X61193634Y-20565207D01*
G01X61197634Y-20569207D01*
G37*
G36*
G01X61224634Y-20569207D02*
G01X61228635Y-20565207D01*
G01X61278698Y-20565207D01*
G01X61282699Y-20569207D01*
G01X61282699Y-20615207D01*
G01X61278698Y-20619207D01*
G01X61228635Y-20619207D01*
G01X61224634Y-20615207D01*
G01X61224634Y-20569207D01*
G37*
G36*
G01X60450245Y-20795283D02*
G01X60450245Y-20770285D01*
G01X60535243Y-20770285D01*
G01X60535243Y-20795283D01*
G01X60450245Y-20795283D01*
G37*
G36*
G01X60535243Y-20970294D02*
G01X60535243Y-20995293D01*
G01X60450245Y-20995293D01*
G01X60450245Y-20970294D01*
G01X60535243Y-20970294D01*
G37*
G36*
G01X60450245Y-20745281D02*
G01X60450245Y-20720282D01*
G01X60535243Y-20720282D01*
G01X60535243Y-20745281D01*
G01X60450245Y-20745281D01*
G37*
G36*
G01X60535243Y-20920292D02*
G01X60535243Y-20945291D01*
G01X60450245Y-20945291D01*
G01X60450245Y-20920292D01*
G01X60535243Y-20920292D01*
G37*
G36*
G01X60535243Y-20870289D02*
G01X60535243Y-20895288D01*
G01X60450245Y-20895288D01*
G01X60450245Y-20870289D01*
G01X60535243Y-20870289D01*
G37*
G36*
G01X60535243Y-20820287D02*
G01X60535243Y-20845286D01*
G01X60450245Y-20845286D01*
G01X60450245Y-20820287D01*
G01X60535243Y-20820287D01*
G37*
G36*
G01X60582728Y-21017792D02*
G01X60582728Y-21102791D01*
G01X60557730Y-21102791D01*
G01X60557730Y-21017792D01*
G01X60582728Y-21017792D01*
G37*
G36*
G01X60582734Y-20612794D02*
G01X60582734Y-20697793D01*
G01X60557735Y-20697793D01*
G01X60557735Y-20612794D01*
G01X60582734Y-20612794D01*
G37*
G36*
G01X60587235Y-20965782D02*
G01X60587235Y-20749783D01*
G01X60803235Y-20749783D01*
G01X60803235Y-20965782D01*
G01X60587235Y-20965782D01*
G37*
G36*
G01X60632731Y-21017792D02*
G01X60632731Y-21102791D01*
G01X60607732Y-21102791D01*
G01X60607732Y-21017792D01*
G01X60632731Y-21017792D01*
G37*
G36*
G01X60632736Y-20612794D02*
G01X60632736Y-20697793D01*
G01X60607737Y-20697793D01*
G01X60607737Y-20612794D01*
G01X60632736Y-20612794D01*
G37*
G36*
G01X60682731Y-21017792D02*
G01X60682731Y-21102791D01*
G01X60657732Y-21102791D01*
G01X60657732Y-21017792D01*
G01X60682731Y-21017792D01*
G37*
G36*
G01X60682736Y-20612794D02*
G01X60682736Y-20697793D01*
G01X60657737Y-20697793D01*
G01X60657737Y-20612794D01*
G01X60682736Y-20612794D01*
G37*
G36*
G01X60732733Y-21017792D02*
G01X60732733Y-21102791D01*
G01X60707735Y-21102791D01*
G01X60707735Y-21017792D01*
G01X60732733Y-21017792D01*
G37*
G36*
G01X60732738Y-20612794D02*
G01X60732738Y-20697793D01*
G01X60707740Y-20697793D01*
G01X60707740Y-20612794D01*
G01X60732738Y-20612794D01*
G37*
G36*
G01X60782736Y-21017792D02*
G01X60782736Y-21102791D01*
G01X60757737Y-21102791D01*
G01X60757737Y-21017792D01*
G01X60782736Y-21017792D01*
G37*
G36*
G01X60782738Y-20612794D02*
G01X60782738Y-20697793D01*
G01X60757740Y-20697793D01*
G01X60757740Y-20612794D01*
G01X60782738Y-20612794D01*
G37*
G36*
G01X60832736Y-21017792D02*
G01X60832736Y-21102791D01*
G01X60807737Y-21102791D01*
G01X60807737Y-21017792D01*
G01X60832736Y-21017792D01*
G37*
G36*
G01X60832741Y-20612794D02*
G01X60832741Y-20697793D01*
G01X60807742Y-20697793D01*
G01X60807742Y-20612794D01*
G01X60832741Y-20612794D01*
G37*
G36*
G01X60940241Y-20970294D02*
G01X60940241Y-20995293D01*
G01X60855243Y-20995293D01*
G01X60855243Y-20970294D01*
G01X60940241Y-20970294D01*
G37*
G36*
G01X60855243Y-20945291D02*
G01X60855243Y-20920292D01*
G01X60940241Y-20920292D01*
G01X60940241Y-20945291D01*
G01X60855243Y-20945291D01*
G37*
G36*
G01X60855243Y-20895288D02*
G01X60855243Y-20870289D01*
G01X60940241Y-20870289D01*
G01X60940241Y-20895288D01*
G01X60855243Y-20895288D01*
G37*
G36*
G01X60940241Y-20720282D02*
G01X60940241Y-20745281D01*
G01X60855243Y-20745281D01*
G01X60855243Y-20720282D01*
G01X60940241Y-20720282D01*
G37*
G36*
G01X60855243Y-20845286D02*
G01X60855243Y-20820287D01*
G01X60940241Y-20820287D01*
G01X60940241Y-20845286D01*
G01X60855243Y-20845286D01*
G37*
G36*
G01X60855243Y-20795283D02*
G01X60855243Y-20770285D01*
G01X60940241Y-20770285D01*
G01X60940241Y-20795283D01*
G01X60855243Y-20795283D01*
G37*
G36*
G01X61041153Y-19778283D02*
G01X60995154Y-19778283D01*
G01X60991153Y-19774282D01*
G01X60991153Y-19724219D01*
G01X60995154Y-19720218D01*
G01X61041153Y-19720218D01*
G01X61045154Y-19724219D01*
G01X61045154Y-19774282D01*
G01X61041153Y-19778283D01*
G37*
G36*
G01X61041153Y-19805283D02*
G01X61045154Y-19809283D01*
G01X61045154Y-19859347D01*
G01X61041153Y-19863347D01*
G01X60995154Y-19863347D01*
G01X60991153Y-19859347D01*
G01X60991153Y-19809283D01*
G01X60995154Y-19805283D01*
G01X61041153Y-19805283D01*
G37*
G36*
G01X61041153Y-19542063D02*
G01X60995154Y-19542063D01*
G01X60991153Y-19538062D01*
G01X60991153Y-19487999D01*
G01X60995154Y-19483998D01*
G01X61041153Y-19483998D01*
G01X61045154Y-19487999D01*
G01X61045154Y-19538062D01*
G01X61041153Y-19542063D01*
G37*
G36*
G01X61041153Y-19569063D02*
G01X61045154Y-19573063D01*
G01X61045154Y-19623127D01*
G01X61041153Y-19627127D01*
G01X60995154Y-19627127D01*
G01X60991153Y-19623127D01*
G01X60991153Y-19573063D01*
G01X60995154Y-19569063D01*
G01X61041153Y-19569063D01*
G37*
G36*
G01X60757600Y-19403200D02*
G01X60757600Y-19357200D01*
G01X60761601Y-19353200D01*
G01X60811664Y-19353200D01*
G01X60815665Y-19357200D01*
G01X60815665Y-19403200D01*
G01X60811664Y-19407200D01*
G01X60761601Y-19407200D01*
G01X60757600Y-19403200D01*
G37*
G36*
G01X60730600Y-19403200D02*
G01X60726599Y-19407200D01*
G01X60676536Y-19407200D01*
G01X60672536Y-19403200D01*
G01X60672536Y-19357200D01*
G01X60676536Y-19353200D01*
G01X60726599Y-19353200D01*
G01X60730600Y-19357200D01*
G01X60730600Y-19403200D01*
G37*
G36*
G01X57223302Y-19971796D02*
G01X57178301Y-19971796D01*
G01X57173302Y-19964799D01*
G01X57173302Y-19916798D01*
G01X57178301Y-19911797D01*
G01X57223302Y-19911797D01*
G01X57228301Y-19916798D01*
G01X57228301Y-19964799D01*
G01X57223302Y-19971796D01*
G37*
G36*
G01X57223302Y-20067798D02*
G01X57178301Y-20067798D01*
G01X57173302Y-20062797D01*
G01X57173302Y-20014799D01*
G01X57178301Y-20007798D01*
G01X57223302Y-20007798D01*
G01X57228301Y-20014799D01*
G01X57228301Y-20062797D01*
G01X57223302Y-20067798D01*
G37*
G36*
G01X57401102Y-19971796D02*
G01X57356101Y-19971796D01*
G01X57351102Y-19964799D01*
G01X57351102Y-19916798D01*
G01X57356101Y-19911797D01*
G01X57401102Y-19911797D01*
G01X57406101Y-19916798D01*
G01X57406101Y-19964799D01*
G01X57401102Y-19971796D01*
G37*
G36*
G01X57401102Y-20067798D02*
G01X57356101Y-20067798D01*
G01X57351102Y-20062797D01*
G01X57351102Y-20014799D01*
G01X57356101Y-20007798D01*
G01X57401102Y-20007798D01*
G01X57406101Y-20014799D01*
G01X57406101Y-20062797D01*
G01X57401102Y-20067798D01*
G37*
G36*
G01X57589196Y-20005398D02*
G01X57589196Y-20050399D01*
G01X57582199Y-20055398D01*
G01X57534198Y-20055398D01*
G01X57529197Y-20050399D01*
G01X57529197Y-20005398D01*
G01X57534198Y-20000399D01*
G01X57582199Y-20000399D01*
G01X57589196Y-20005398D01*
G37*
G36*
G01X57685198Y-20005398D02*
G01X57685198Y-20050399D01*
G01X57680197Y-20055398D01*
G01X57632199Y-20055398D01*
G01X57625198Y-20050399D01*
G01X57625198Y-20005398D01*
G01X57632199Y-20000399D01*
G01X57680197Y-20000399D01*
G01X57685198Y-20005398D01*
G37*
G36*
G01X58427396Y-19954598D02*
G01X58427396Y-19999599D01*
G01X58420399Y-20004598D01*
G01X58372398Y-20004598D01*
G01X58367397Y-19999599D01*
G01X58367397Y-19954598D01*
G01X58372398Y-19949599D01*
G01X58420399Y-19949599D01*
G01X58427396Y-19954598D01*
G37*
G36*
G01X58523398Y-19954598D02*
G01X58523398Y-19999599D01*
G01X58518397Y-20004598D01*
G01X58470399Y-20004598D01*
G01X58463398Y-19999599D01*
G01X58463398Y-19954598D01*
G01X58470399Y-19949599D01*
G01X58518397Y-19949599D01*
G01X58523398Y-19954598D01*
G37*
G36*
G01X58112302Y-20047996D02*
G01X58067301Y-20047996D01*
G01X58062302Y-20040999D01*
G01X58062302Y-19992998D01*
G01X58067301Y-19987997D01*
G01X58112302Y-19987997D01*
G01X58117301Y-19992998D01*
G01X58117301Y-20040999D01*
G01X58112302Y-20047996D01*
G37*
G36*
G01X58112302Y-20143998D02*
G01X58067301Y-20143998D01*
G01X58062302Y-20138997D01*
G01X58062302Y-20090999D01*
G01X58067301Y-20083998D01*
G01X58112302Y-20083998D01*
G01X58117301Y-20090999D01*
G01X58117301Y-20138997D01*
G01X58112302Y-20143998D01*
G37*
G36*
G01X58486398Y-19791904D02*
G01X58531399Y-19791904D01*
G01X58536398Y-19798901D01*
G01X58536398Y-19846902D01*
G01X58531399Y-19851903D01*
G01X58486398Y-19851903D01*
G01X58481399Y-19846902D01*
G01X58481399Y-19798901D01*
G01X58486398Y-19791904D01*
G37*
G36*
G01X58486398Y-19695902D02*
G01X58531399Y-19695902D01*
G01X58536398Y-19700903D01*
G01X58536398Y-19748901D01*
G01X58531399Y-19755902D01*
G01X58486398Y-19755902D01*
G01X58481399Y-19748901D01*
G01X58481399Y-19700903D01*
G01X58486398Y-19695902D01*
G37*
G36*
G01X58404402Y-19755896D02*
G01X58359401Y-19755896D01*
G01X58354402Y-19748899D01*
G01X58354402Y-19700898D01*
G01X58359401Y-19695897D01*
G01X58404402Y-19695897D01*
G01X58409401Y-19700898D01*
G01X58409401Y-19748899D01*
G01X58404402Y-19755896D01*
G37*
G36*
G01X58404402Y-19851898D02*
G01X58359401Y-19851898D01*
G01X58354402Y-19846897D01*
G01X58354402Y-19798899D01*
G01X58359401Y-19791898D01*
G01X58404402Y-19791898D01*
G01X58409401Y-19798899D01*
G01X58409401Y-19846897D01*
G01X58404402Y-19851898D01*
G37*
G36*
G01X58427396Y-20119698D02*
G01X58427396Y-20164699D01*
G01X58420399Y-20169698D01*
G01X58372398Y-20169698D01*
G01X58367397Y-20164699D01*
G01X58367397Y-20119698D01*
G01X58372398Y-20114699D01*
G01X58420399Y-20114699D01*
G01X58427396Y-20119698D01*
G37*
G36*
G01X58523398Y-20119698D02*
G01X58523398Y-20164699D01*
G01X58518397Y-20169698D01*
G01X58470399Y-20169698D01*
G01X58463398Y-20164699D01*
G01X58463398Y-20119698D01*
G01X58470399Y-20114699D01*
G01X58518397Y-20114699D01*
G01X58523398Y-20119698D01*
G37*
G36*
G01X58359398Y-19489644D02*
G01X58404399Y-19489644D01*
G01X58409398Y-19496641D01*
G01X58409398Y-19544642D01*
G01X58404399Y-19549643D01*
G01X58359398Y-19549643D01*
G01X58354399Y-19544642D01*
G01X58354399Y-19496641D01*
G01X58359398Y-19489644D01*
G37*
G36*
G01X58359398Y-19393642D02*
G01X58404399Y-19393642D01*
G01X58409398Y-19398643D01*
G01X58409398Y-19446641D01*
G01X58404399Y-19453642D01*
G01X58359398Y-19453642D01*
G01X58354399Y-19446641D01*
G01X58354399Y-19398643D01*
G01X58359398Y-19393642D01*
G37*
G36*
G01X58414696Y-19243398D02*
G01X58414696Y-19288399D01*
G01X58407699Y-19293398D01*
G01X58359698Y-19293398D01*
G01X58354697Y-19288399D01*
G01X58354697Y-19243398D01*
G01X58359698Y-19238399D01*
G01X58407699Y-19238399D01*
G01X58414696Y-19243398D01*
G37*
G36*
G01X58510698Y-19243398D02*
G01X58510698Y-19288399D01*
G01X58505697Y-19293398D01*
G01X58457699Y-19293398D01*
G01X58450698Y-19288399D01*
G01X58450698Y-19243398D01*
G01X58457699Y-19238399D01*
G01X58505697Y-19238399D01*
G01X58510698Y-19243398D01*
G37*
G36*
G01X57345804Y-19466202D02*
G01X57345804Y-19421201D01*
G01X57352801Y-19416202D01*
G01X57400802Y-19416202D01*
G01X57405803Y-19421201D01*
G01X57405803Y-19466202D01*
G01X57400802Y-19471201D01*
G01X57352801Y-19471201D01*
G01X57345804Y-19466202D01*
G37*
G36*
G01X57249802Y-19466202D02*
G01X57249802Y-19421201D01*
G01X57254803Y-19416202D01*
G01X57302801Y-19416202D01*
G01X57309802Y-19421201D01*
G01X57309802Y-19466202D01*
G01X57302801Y-19471201D01*
G01X57254803Y-19471201D01*
G01X57249802Y-19466202D01*
G37*
G36*
G01X58486398Y-19487104D02*
G01X58531399Y-19487104D01*
G01X58536398Y-19494101D01*
G01X58536398Y-19542102D01*
G01X58531399Y-19547103D01*
G01X58486398Y-19547103D01*
G01X58481399Y-19542102D01*
G01X58481399Y-19494101D01*
G01X58486398Y-19487104D01*
G37*
G36*
G01X58486398Y-19391102D02*
G01X58531399Y-19391102D01*
G01X58536398Y-19396103D01*
G01X58536398Y-19444101D01*
G01X58531399Y-19451102D01*
G01X58486398Y-19451102D01*
G01X58481399Y-19444101D01*
G01X58481399Y-19396103D01*
G01X58486398Y-19391102D01*
G37*
G36*
G01X59976796Y-19929198D02*
G01X59976796Y-19974199D01*
G01X59969799Y-19979198D01*
G01X59921798Y-19979198D01*
G01X59916797Y-19974199D01*
G01X59916797Y-19929198D01*
G01X59921798Y-19924199D01*
G01X59969799Y-19924199D01*
G01X59976796Y-19929198D01*
G37*
G36*
G01X60072798Y-19929198D02*
G01X60072798Y-19974199D01*
G01X60067797Y-19979198D01*
G01X60019799Y-19979198D01*
G01X60012798Y-19974199D01*
G01X60012798Y-19929198D01*
G01X60019799Y-19924199D01*
G01X60067797Y-19924199D01*
G01X60072798Y-19929198D01*
G37*
G36*
G01X59659162Y-19730496D02*
G01X59614161Y-19730496D01*
G01X59609162Y-19723499D01*
G01X59609162Y-19675498D01*
G01X59614161Y-19670497D01*
G01X59659162Y-19670497D01*
G01X59664161Y-19675498D01*
G01X59664161Y-19723499D01*
G01X59659162Y-19730496D01*
G37*
G36*
G01X59659162Y-19826498D02*
G01X59614161Y-19826498D01*
G01X59609162Y-19821497D01*
G01X59609162Y-19773499D01*
G01X59614161Y-19766498D01*
G01X59659162Y-19766498D01*
G01X59664161Y-19773499D01*
G01X59664161Y-19821497D01*
G01X59659162Y-19826498D01*
G37*
G36*
G01X57342075Y-19335486D02*
G01X57342075Y-19290485D01*
G01X57349073Y-19285486D01*
G01X57397073Y-19285486D01*
G01X57402075Y-19290485D01*
G01X57402075Y-19335486D01*
G01X57397073Y-19340485D01*
G01X57349073Y-19340485D01*
G01X57342075Y-19335486D01*
G37*
G36*
G01X57246073Y-19335486D02*
G01X57246073Y-19290485D01*
G01X57251074Y-19285486D01*
G01X57299073Y-19285486D01*
G01X57306073Y-19290485D01*
G01X57306073Y-19335486D01*
G01X57299073Y-19340485D01*
G01X57251074Y-19340485D01*
G01X57246073Y-19335486D01*
G37*
G36*
G01X58057004Y-18450202D02*
G01X58057004Y-18405201D01*
G01X58064001Y-18400202D01*
G01X58112002Y-18400202D01*
G01X58117003Y-18405201D01*
G01X58117003Y-18450202D01*
G01X58112002Y-18455201D01*
G01X58064001Y-18455201D01*
G01X58057004Y-18450202D01*
G37*
G36*
G01X57961002Y-18450202D02*
G01X57961002Y-18405201D01*
G01X57966003Y-18400202D01*
G01X58014001Y-18400202D01*
G01X58021002Y-18405201D01*
G01X58021002Y-18450202D01*
G01X58014001Y-18455201D01*
G01X57966003Y-18455201D01*
G01X57961002Y-18450202D01*
G37*
G36*
G01X59123804Y-18628002D02*
G01X59123804Y-18583001D01*
G01X59130801Y-18578002D01*
G01X59178802Y-18578002D01*
G01X59183803Y-18583001D01*
G01X59183803Y-18628002D01*
G01X59178802Y-18633001D01*
G01X59130801Y-18633001D01*
G01X59123804Y-18628002D01*
G37*
G36*
G01X59027802Y-18628002D02*
G01X59027802Y-18583001D01*
G01X59032803Y-18578002D01*
G01X59080801Y-18578002D01*
G01X59087802Y-18583001D01*
G01X59087802Y-18628002D01*
G01X59080801Y-18633001D01*
G01X59032803Y-18633001D01*
G01X59027802Y-18628002D01*
G37*
G36*
G01X58417600Y-18388800D02*
G01X58371600Y-18388800D01*
G01X58367600Y-18384799D01*
G01X58367600Y-18334736D01*
G01X58371600Y-18330735D01*
G01X58417600Y-18330735D01*
G01X58421600Y-18334736D01*
G01X58421600Y-18384799D01*
G01X58417600Y-18388800D01*
G37*
G36*
G01X58417600Y-18415800D02*
G01X58421600Y-18419801D01*
G01X58421600Y-18469864D01*
G01X58417600Y-18473864D01*
G01X58371600Y-18473864D01*
G01X58367600Y-18469864D01*
G01X58367600Y-18419801D01*
G01X58371600Y-18415800D01*
G01X58417600Y-18415800D01*
G37*
G36*
G01X58038200Y-18544400D02*
G01X58038200Y-18590400D01*
G01X58034199Y-18594400D01*
G01X57984136Y-18594400D01*
G01X57980136Y-18590400D01*
G01X57980136Y-18544400D01*
G01X57984136Y-18540400D01*
G01X58034199Y-18540400D01*
G01X58038200Y-18544400D01*
G37*
G36*
G01X58065200Y-18544400D02*
G01X58069201Y-18540400D01*
G01X58119264Y-18540400D01*
G01X58123265Y-18544400D01*
G01X58123265Y-18590400D01*
G01X58119264Y-18594400D01*
G01X58069201Y-18594400D01*
G01X58065200Y-18590400D01*
G01X58065200Y-18544400D01*
G37*
G36*
G01X58038200Y-18684100D02*
G01X58038200Y-18730100D01*
G01X58034199Y-18734100D01*
G01X57984136Y-18734100D01*
G01X57980136Y-18730100D01*
G01X57980136Y-18684100D01*
G01X57984136Y-18680100D01*
G01X58034199Y-18680100D01*
G01X58038200Y-18684100D01*
G37*
G36*
G01X58065200Y-18684100D02*
G01X58069201Y-18680100D01*
G01X58119264Y-18680100D01*
G01X58123265Y-18684100D01*
G01X58123265Y-18730100D01*
G01X58119264Y-18734100D01*
G01X58069201Y-18734100D01*
G01X58065200Y-18730100D01*
G01X58065200Y-18684100D01*
G37*
G36*
G01X58093315Y-19318950D02*
G01X58093961Y-19319057D01*
G01X58094598Y-19319204D01*
G01X58095225Y-19319395D01*
G01X58095838Y-19319626D01*
G01X58096432Y-19319895D01*
G01X58097009Y-19320203D01*
G01X58097565Y-19320551D01*
G01X58098098Y-19320932D01*
G01X58098604Y-19321346D01*
G01X58099081Y-19321793D01*
G01X58099528Y-19322270D01*
G01X58099942Y-19322776D01*
G01X58100323Y-19323309D01*
G01X58100671Y-19323863D01*
G01X58100979Y-19324442D01*
G01X58101248Y-19325036D01*
G01X58101479Y-19325648D01*
G01X58101669Y-19326276D01*
G01X58101817Y-19326913D01*
G01X58101923Y-19327558D01*
G01X58101989Y-19328211D01*
G01X58102010Y-19328864D01*
G01X58102010Y-19388864D01*
G01X58101989Y-19389517D01*
G01X58101923Y-19390169D01*
G01X58101817Y-19390815D01*
G01X58101669Y-19391452D01*
G01X58101479Y-19392080D01*
G01X58101248Y-19392692D01*
G01X58100979Y-19393286D01*
G01X58100671Y-19393863D01*
G01X58100323Y-19394419D01*
G01X58099942Y-19394952D01*
G01X58099528Y-19395458D01*
G01X58099081Y-19395935D01*
G01X58098604Y-19396382D01*
G01X58098098Y-19396796D01*
G01X58097565Y-19397177D01*
G01X58097009Y-19397525D01*
G01X58096432Y-19397833D01*
G01X58095838Y-19398102D01*
G01X58095225Y-19398333D01*
G01X58094598Y-19398524D01*
G01X58093961Y-19398671D01*
G01X58093315Y-19398778D01*
G01X58092663Y-19398844D01*
G01X58092010Y-19398864D01*
G01X58091357Y-19398844D01*
G01X58090704Y-19398778D01*
G01X58090059Y-19398671D01*
G01X58089422Y-19398524D01*
G01X58088794Y-19398333D01*
G01X58088182Y-19398102D01*
G01X58087588Y-19397833D01*
G01X58087011Y-19397525D01*
G01X58086455Y-19397177D01*
G01X58085921Y-19396796D01*
G01X58085416Y-19396382D01*
G01X58084938Y-19395935D01*
G01X58084491Y-19395458D01*
G01X58084077Y-19394952D01*
G01X58083696Y-19394419D01*
G01X58083348Y-19393865D01*
G01X58083041Y-19393286D01*
G01X58082772Y-19392692D01*
G01X58082541Y-19392080D01*
G01X58082350Y-19391452D01*
G01X58082203Y-19390815D01*
G01X58082096Y-19390169D01*
G01X58082030Y-19389517D01*
G01X58082010Y-19388864D01*
G01X58082010Y-19328864D01*
G01X58082030Y-19328211D01*
G01X58082096Y-19327558D01*
G01X58082203Y-19326913D01*
G01X58082350Y-19326276D01*
G01X58082541Y-19325648D01*
G01X58082772Y-19325036D01*
G01X58083041Y-19324442D01*
G01X58083348Y-19323865D01*
G01X58083696Y-19323309D01*
G01X58084077Y-19322776D01*
G01X58084491Y-19322270D01*
G01X58084938Y-19321793D01*
G01X58085416Y-19321346D01*
G01X58085921Y-19320932D01*
G01X58086455Y-19320551D01*
G01X58087009Y-19320203D01*
G01X58087588Y-19319895D01*
G01X58088182Y-19319626D01*
G01X58088794Y-19319395D01*
G01X58089422Y-19319204D01*
G01X58090059Y-19319057D01*
G01X58090704Y-19318950D01*
G01X58091357Y-19318884D01*
G01X58092010Y-19318864D01*
G01X58092663Y-19318884D01*
G01X58093315Y-19318950D01*
G37*
G36*
G01X57893316Y-19318950D02*
G01X57893961Y-19319057D01*
G01X57894598Y-19319204D01*
G01X57895226Y-19319395D01*
G01X57895838Y-19319626D01*
G01X57896432Y-19319895D01*
G01X57897009Y-19320203D01*
G01X57897565Y-19320551D01*
G01X57898099Y-19320932D01*
G01X57898604Y-19321346D01*
G01X57899082Y-19321793D01*
G01X57899529Y-19322270D01*
G01X57899943Y-19322776D01*
G01X57900324Y-19323309D01*
G01X57900672Y-19323863D01*
G01X57900979Y-19324442D01*
G01X57901248Y-19325036D01*
G01X57901479Y-19325648D01*
G01X57901670Y-19326276D01*
G01X57901817Y-19326913D01*
G01X57901924Y-19327558D01*
G01X57901990Y-19328211D01*
G01X57902010Y-19328864D01*
G01X57902010Y-19388864D01*
G01X57901990Y-19389517D01*
G01X57901924Y-19390169D01*
G01X57901817Y-19390815D01*
G01X57901670Y-19391452D01*
G01X57901479Y-19392080D01*
G01X57901248Y-19392692D01*
G01X57900979Y-19393286D01*
G01X57900672Y-19393863D01*
G01X57900324Y-19394419D01*
G01X57899943Y-19394952D01*
G01X57899529Y-19395458D01*
G01X57899082Y-19395935D01*
G01X57898604Y-19396382D01*
G01X57898099Y-19396796D01*
G01X57897565Y-19397177D01*
G01X57897009Y-19397525D01*
G01X57896432Y-19397833D01*
G01X57895838Y-19398102D01*
G01X57895226Y-19398333D01*
G01X57894598Y-19398524D01*
G01X57893961Y-19398671D01*
G01X57893316Y-19398778D01*
G01X57892663Y-19398844D01*
G01X57892010Y-19398864D01*
G01X57891357Y-19398844D01*
G01X57890705Y-19398778D01*
G01X57890059Y-19398671D01*
G01X57889422Y-19398524D01*
G01X57888795Y-19398333D01*
G01X57888182Y-19398102D01*
G01X57887588Y-19397833D01*
G01X57887011Y-19397525D01*
G01X57886455Y-19397177D01*
G01X57885922Y-19396796D01*
G01X57885416Y-19396382D01*
G01X57884939Y-19395935D01*
G01X57884492Y-19395458D01*
G01X57884078Y-19394952D01*
G01X57883697Y-19394419D01*
G01X57883349Y-19393865D01*
G01X57883041Y-19393286D01*
G01X57882772Y-19392692D01*
G01X57882541Y-19392080D01*
G01X57882351Y-19391452D01*
G01X57882203Y-19390815D01*
G01X57882097Y-19390169D01*
G01X57882031Y-19389517D01*
G01X57882010Y-19388864D01*
G01X57882010Y-19328864D01*
G01X57882031Y-19328211D01*
G01X57882097Y-19327558D01*
G01X57882203Y-19326913D01*
G01X57882351Y-19326276D01*
G01X57882541Y-19325648D01*
G01X57882772Y-19325036D01*
G01X57883041Y-19324442D01*
G01X57883349Y-19323865D01*
G01X57883697Y-19323309D01*
G01X57884078Y-19322776D01*
G01X57884492Y-19322270D01*
G01X57884939Y-19321793D01*
G01X57885416Y-19321346D01*
G01X57885922Y-19320932D01*
G01X57886455Y-19320551D01*
G01X57887009Y-19320203D01*
G01X57887588Y-19319895D01*
G01X57888182Y-19319626D01*
G01X57888795Y-19319395D01*
G01X57889422Y-19319204D01*
G01X57890059Y-19319057D01*
G01X57890705Y-19318950D01*
G01X57891357Y-19318884D01*
G01X57892010Y-19318864D01*
G01X57892663Y-19318884D01*
G01X57893316Y-19318950D01*
G37*
G36*
G01X58013305Y-19318950D02*
G01X58013951Y-19319057D01*
G01X58014588Y-19319204D01*
G01X58015215Y-19319395D01*
G01X58015828Y-19319626D01*
G01X58016422Y-19319895D01*
G01X58016999Y-19320203D01*
G01X58017555Y-19320551D01*
G01X58018088Y-19320932D01*
G01X58018594Y-19321346D01*
G01X58019071Y-19321793D01*
G01X58019518Y-19322270D01*
G01X58019932Y-19322776D01*
G01X58020313Y-19323309D01*
G01X58020661Y-19323863D01*
G01X58020969Y-19324442D01*
G01X58021238Y-19325036D01*
G01X58021469Y-19325648D01*
G01X58021659Y-19326276D01*
G01X58021807Y-19326913D01*
G01X58021913Y-19327558D01*
G01X58021979Y-19328211D01*
G01X58022000Y-19328864D01*
G01X58022000Y-19388864D01*
G01X58021979Y-19389517D01*
G01X58021913Y-19390169D01*
G01X58021807Y-19390815D01*
G01X58021659Y-19391452D01*
G01X58021469Y-19392080D01*
G01X58021238Y-19392692D01*
G01X58020969Y-19393286D01*
G01X58020661Y-19393863D01*
G01X58020313Y-19394419D01*
G01X58019932Y-19394952D01*
G01X58019518Y-19395458D01*
G01X58019071Y-19395935D01*
G01X58018594Y-19396382D01*
G01X58018088Y-19396796D01*
G01X58017555Y-19397177D01*
G01X58016999Y-19397525D01*
G01X58016422Y-19397833D01*
G01X58015828Y-19398102D01*
G01X58015215Y-19398333D01*
G01X58014588Y-19398524D01*
G01X58013951Y-19398671D01*
G01X58013305Y-19398778D01*
G01X58012653Y-19398844D01*
G01X58012000Y-19398864D01*
G01X58011347Y-19398844D01*
G01X58010694Y-19398778D01*
G01X58010049Y-19398671D01*
G01X58009412Y-19398524D01*
G01X58008784Y-19398333D01*
G01X58008172Y-19398102D01*
G01X58007578Y-19397833D01*
G01X58007001Y-19397525D01*
G01X58006445Y-19397177D01*
G01X58005911Y-19396796D01*
G01X58005406Y-19396382D01*
G01X58004928Y-19395935D01*
G01X58004481Y-19395458D01*
G01X58004067Y-19394952D01*
G01X58003686Y-19394419D01*
G01X58003338Y-19393865D01*
G01X58003031Y-19393286D01*
G01X58002762Y-19392692D01*
G01X58002531Y-19392080D01*
G01X58002340Y-19391452D01*
G01X58002193Y-19390815D01*
G01X58002086Y-19390169D01*
G01X58002020Y-19389517D01*
G01X58002000Y-19388864D01*
G01X58002000Y-19328864D01*
G01X58002020Y-19328211D01*
G01X58002086Y-19327558D01*
G01X58002193Y-19326913D01*
G01X58002340Y-19326276D01*
G01X58002531Y-19325648D01*
G01X58002762Y-19325036D01*
G01X58003031Y-19324442D01*
G01X58003338Y-19323865D01*
G01X58003686Y-19323309D01*
G01X58004067Y-19322776D01*
G01X58004481Y-19322270D01*
G01X58004928Y-19321793D01*
G01X58005406Y-19321346D01*
G01X58005911Y-19320932D01*
G01X58006445Y-19320551D01*
G01X58006999Y-19320203D01*
G01X58007578Y-19319895D01*
G01X58008172Y-19319626D01*
G01X58008784Y-19319395D01*
G01X58009412Y-19319204D01*
G01X58010049Y-19319057D01*
G01X58010694Y-19318950D01*
G01X58011347Y-19318884D01*
G01X58012000Y-19318864D01*
G01X58012653Y-19318884D01*
G01X58013305Y-19318950D01*
G37*
G36*
G01X57813306Y-19318950D02*
G01X57813951Y-19319057D01*
G01X57814588Y-19319204D01*
G01X57815216Y-19319395D01*
G01X57815828Y-19319626D01*
G01X57816422Y-19319895D01*
G01X57816999Y-19320203D01*
G01X57817555Y-19320551D01*
G01X57818089Y-19320932D01*
G01X57818594Y-19321346D01*
G01X57819072Y-19321793D01*
G01X57819519Y-19322270D01*
G01X57819933Y-19322776D01*
G01X57820314Y-19323309D01*
G01X57820662Y-19323863D01*
G01X57820969Y-19324442D01*
G01X57821238Y-19325036D01*
G01X57821469Y-19325648D01*
G01X57821660Y-19326276D01*
G01X57821807Y-19326913D01*
G01X57821914Y-19327558D01*
G01X57821980Y-19328211D01*
G01X57822000Y-19328864D01*
G01X57822000Y-19388864D01*
G01X57821980Y-19389517D01*
G01X57821914Y-19390169D01*
G01X57821807Y-19390815D01*
G01X57821660Y-19391452D01*
G01X57821469Y-19392080D01*
G01X57821238Y-19392692D01*
G01X57820969Y-19393286D01*
G01X57820662Y-19393863D01*
G01X57820314Y-19394419D01*
G01X57819933Y-19394952D01*
G01X57819519Y-19395458D01*
G01X57819072Y-19395935D01*
G01X57818594Y-19396382D01*
G01X57818089Y-19396796D01*
G01X57817555Y-19397177D01*
G01X57816999Y-19397525D01*
G01X57816422Y-19397833D01*
G01X57815828Y-19398102D01*
G01X57815216Y-19398333D01*
G01X57814588Y-19398524D01*
G01X57813951Y-19398671D01*
G01X57813306Y-19398778D01*
G01X57812653Y-19398844D01*
G01X57812000Y-19398864D01*
G01X57811347Y-19398844D01*
G01X57810695Y-19398778D01*
G01X57810049Y-19398671D01*
G01X57809412Y-19398524D01*
G01X57808785Y-19398333D01*
G01X57808172Y-19398102D01*
G01X57807578Y-19397833D01*
G01X57807001Y-19397525D01*
G01X57806445Y-19397177D01*
G01X57805912Y-19396796D01*
G01X57805406Y-19396382D01*
G01X57804929Y-19395935D01*
G01X57804482Y-19395458D01*
G01X57804068Y-19394952D01*
G01X57803687Y-19394419D01*
G01X57803339Y-19393865D01*
G01X57803031Y-19393286D01*
G01X57802762Y-19392692D01*
G01X57802531Y-19392080D01*
G01X57802341Y-19391452D01*
G01X57802193Y-19390815D01*
G01X57802087Y-19390169D01*
G01X57802021Y-19389517D01*
G01X57802000Y-19388864D01*
G01X57802000Y-19328864D01*
G01X57802021Y-19328211D01*
G01X57802087Y-19327558D01*
G01X57802193Y-19326913D01*
G01X57802341Y-19326276D01*
G01X57802531Y-19325648D01*
G01X57802762Y-19325036D01*
G01X57803031Y-19324442D01*
G01X57803339Y-19323865D01*
G01X57803687Y-19323309D01*
G01X57804068Y-19322776D01*
G01X57804482Y-19322270D01*
G01X57804929Y-19321793D01*
G01X57805406Y-19321346D01*
G01X57805912Y-19320932D01*
G01X57806445Y-19320551D01*
G01X57806999Y-19320203D01*
G01X57807578Y-19319895D01*
G01X57808172Y-19319626D01*
G01X57808785Y-19319395D01*
G01X57809412Y-19319204D01*
G01X57810049Y-19319057D01*
G01X57810695Y-19318950D01*
G01X57811347Y-19318884D01*
G01X57812000Y-19318864D01*
G01X57812653Y-19318884D01*
G01X57813306Y-19318950D01*
G37*
G36*
G01X58053310Y-19318950D02*
G01X58053956Y-19319057D01*
G01X58054593Y-19319204D01*
G01X58055220Y-19319395D01*
G01X58055833Y-19319626D01*
G01X58056427Y-19319895D01*
G01X58057004Y-19320203D01*
G01X58057560Y-19320551D01*
G01X58058093Y-19320932D01*
G01X58058599Y-19321346D01*
G01X58059076Y-19321793D01*
G01X58059523Y-19322270D01*
G01X58059937Y-19322776D01*
G01X58060318Y-19323309D01*
G01X58060666Y-19323863D01*
G01X58060974Y-19324442D01*
G01X58061243Y-19325036D01*
G01X58061474Y-19325648D01*
G01X58061664Y-19326276D01*
G01X58061812Y-19326913D01*
G01X58061918Y-19327558D01*
G01X58061984Y-19328211D01*
G01X58062005Y-19328864D01*
G01X58062005Y-19388864D01*
G01X58061984Y-19389517D01*
G01X58061918Y-19390169D01*
G01X58061812Y-19390815D01*
G01X58061664Y-19391452D01*
G01X58061474Y-19392080D01*
G01X58061243Y-19392692D01*
G01X58060974Y-19393286D01*
G01X58060666Y-19393863D01*
G01X58060318Y-19394419D01*
G01X58059937Y-19394952D01*
G01X58059523Y-19395458D01*
G01X58059076Y-19395935D01*
G01X58058599Y-19396382D01*
G01X58058093Y-19396796D01*
G01X58057560Y-19397177D01*
G01X58057004Y-19397525D01*
G01X58056427Y-19397833D01*
G01X58055833Y-19398102D01*
G01X58055220Y-19398333D01*
G01X58054593Y-19398524D01*
G01X58053956Y-19398671D01*
G01X58053310Y-19398778D01*
G01X58052658Y-19398844D01*
G01X58052005Y-19398864D01*
G01X58051352Y-19398844D01*
G01X58050699Y-19398778D01*
G01X58050054Y-19398671D01*
G01X58049417Y-19398524D01*
G01X58048789Y-19398333D01*
G01X58048177Y-19398102D01*
G01X58047583Y-19397833D01*
G01X58047006Y-19397525D01*
G01X58046450Y-19397177D01*
G01X58045916Y-19396796D01*
G01X58045411Y-19396382D01*
G01X58044933Y-19395935D01*
G01X58044486Y-19395458D01*
G01X58044072Y-19394952D01*
G01X58043691Y-19394419D01*
G01X58043343Y-19393865D01*
G01X58043036Y-19393286D01*
G01X58042767Y-19392692D01*
G01X58042536Y-19392080D01*
G01X58042345Y-19391452D01*
G01X58042198Y-19390815D01*
G01X58042091Y-19390169D01*
G01X58042025Y-19389517D01*
G01X58042005Y-19388864D01*
G01X58042005Y-19328864D01*
G01X58042025Y-19328211D01*
G01X58042091Y-19327558D01*
G01X58042198Y-19326913D01*
G01X58042345Y-19326276D01*
G01X58042536Y-19325648D01*
G01X58042767Y-19325036D01*
G01X58043036Y-19324442D01*
G01X58043343Y-19323865D01*
G01X58043691Y-19323309D01*
G01X58044072Y-19322776D01*
G01X58044486Y-19322270D01*
G01X58044933Y-19321793D01*
G01X58045411Y-19321346D01*
G01X58045916Y-19320932D01*
G01X58046450Y-19320551D01*
G01X58047004Y-19320203D01*
G01X58047583Y-19319895D01*
G01X58048177Y-19319626D01*
G01X58048789Y-19319395D01*
G01X58049417Y-19319204D01*
G01X58050054Y-19319057D01*
G01X58050699Y-19318950D01*
G01X58051352Y-19318884D01*
G01X58052005Y-19318864D01*
G01X58052658Y-19318884D01*
G01X58053310Y-19318950D01*
G37*
G36*
G01X57853311Y-19318950D02*
G01X57853956Y-19319057D01*
G01X57854593Y-19319204D01*
G01X57855221Y-19319395D01*
G01X57855833Y-19319626D01*
G01X57856427Y-19319895D01*
G01X57857004Y-19320203D01*
G01X57857560Y-19320551D01*
G01X57858094Y-19320932D01*
G01X57858599Y-19321346D01*
G01X57859077Y-19321793D01*
G01X57859524Y-19322270D01*
G01X57859938Y-19322776D01*
G01X57860319Y-19323309D01*
G01X57860667Y-19323863D01*
G01X57860974Y-19324442D01*
G01X57861243Y-19325036D01*
G01X57861474Y-19325648D01*
G01X57861665Y-19326276D01*
G01X57861812Y-19326913D01*
G01X57861919Y-19327558D01*
G01X57861985Y-19328211D01*
G01X57862005Y-19328864D01*
G01X57862005Y-19388864D01*
G01X57861985Y-19389517D01*
G01X57861919Y-19390169D01*
G01X57861812Y-19390815D01*
G01X57861665Y-19391452D01*
G01X57861474Y-19392080D01*
G01X57861243Y-19392692D01*
G01X57860974Y-19393286D01*
G01X57860667Y-19393863D01*
G01X57860319Y-19394419D01*
G01X57859938Y-19394952D01*
G01X57859524Y-19395458D01*
G01X57859077Y-19395935D01*
G01X57858599Y-19396382D01*
G01X57858094Y-19396796D01*
G01X57857560Y-19397177D01*
G01X57857004Y-19397525D01*
G01X57856427Y-19397833D01*
G01X57855833Y-19398102D01*
G01X57855221Y-19398333D01*
G01X57854593Y-19398524D01*
G01X57853956Y-19398671D01*
G01X57853311Y-19398778D01*
G01X57852658Y-19398844D01*
G01X57852005Y-19398864D01*
G01X57851352Y-19398844D01*
G01X57850700Y-19398778D01*
G01X57850054Y-19398671D01*
G01X57849417Y-19398524D01*
G01X57848790Y-19398333D01*
G01X57848177Y-19398102D01*
G01X57847583Y-19397833D01*
G01X57847006Y-19397525D01*
G01X57846450Y-19397177D01*
G01X57845917Y-19396796D01*
G01X57845411Y-19396382D01*
G01X57844934Y-19395935D01*
G01X57844487Y-19395458D01*
G01X57844073Y-19394952D01*
G01X57843692Y-19394419D01*
G01X57843344Y-19393865D01*
G01X57843036Y-19393286D01*
G01X57842767Y-19392692D01*
G01X57842536Y-19392080D01*
G01X57842346Y-19391452D01*
G01X57842198Y-19390815D01*
G01X57842092Y-19390169D01*
G01X57842026Y-19389517D01*
G01X57842005Y-19388864D01*
G01X57842005Y-19328864D01*
G01X57842026Y-19328211D01*
G01X57842092Y-19327558D01*
G01X57842198Y-19326913D01*
G01X57842346Y-19326276D01*
G01X57842536Y-19325648D01*
G01X57842767Y-19325036D01*
G01X57843036Y-19324442D01*
G01X57843344Y-19323865D01*
G01X57843692Y-19323309D01*
G01X57844073Y-19322776D01*
G01X57844487Y-19322270D01*
G01X57844934Y-19321793D01*
G01X57845411Y-19321346D01*
G01X57845917Y-19320932D01*
G01X57846450Y-19320551D01*
G01X57847004Y-19320203D01*
G01X57847583Y-19319895D01*
G01X57848177Y-19319626D01*
G01X57848790Y-19319395D01*
G01X57849417Y-19319204D01*
G01X57850054Y-19319057D01*
G01X57850700Y-19318950D01*
G01X57851352Y-19318884D01*
G01X57852005Y-19318864D01*
G01X57852658Y-19318884D01*
G01X57853311Y-19318950D01*
G37*
G36*
G01X57933295Y-19318950D02*
G01X57933941Y-19319057D01*
G01X57934578Y-19319204D01*
G01X57935205Y-19319395D01*
G01X57935818Y-19319626D01*
G01X57936412Y-19319895D01*
G01X57936989Y-19320203D01*
G01X57937545Y-19320551D01*
G01X57938078Y-19320932D01*
G01X57938584Y-19321346D01*
G01X57939061Y-19321793D01*
G01X57939508Y-19322270D01*
G01X57939922Y-19322776D01*
G01X57940303Y-19323309D01*
G01X57940651Y-19323863D01*
G01X57940959Y-19324442D01*
G01X57941228Y-19325036D01*
G01X57941459Y-19325648D01*
G01X57941649Y-19326276D01*
G01X57941797Y-19326913D01*
G01X57941903Y-19327558D01*
G01X57941969Y-19328211D01*
G01X57941990Y-19328864D01*
G01X57941990Y-19388864D01*
G01X57941969Y-19389517D01*
G01X57941903Y-19390169D01*
G01X57941797Y-19390815D01*
G01X57941649Y-19391452D01*
G01X57941459Y-19392080D01*
G01X57941228Y-19392692D01*
G01X57940959Y-19393286D01*
G01X57940651Y-19393863D01*
G01X57940303Y-19394419D01*
G01X57939922Y-19394952D01*
G01X57939508Y-19395458D01*
G01X57939061Y-19395935D01*
G01X57938584Y-19396382D01*
G01X57938078Y-19396796D01*
G01X57937545Y-19397177D01*
G01X57936989Y-19397525D01*
G01X57936412Y-19397833D01*
G01X57935818Y-19398102D01*
G01X57935205Y-19398333D01*
G01X57934578Y-19398524D01*
G01X57933941Y-19398671D01*
G01X57933295Y-19398778D01*
G01X57932643Y-19398844D01*
G01X57931990Y-19398864D01*
G01X57931337Y-19398844D01*
G01X57930684Y-19398778D01*
G01X57930039Y-19398671D01*
G01X57929402Y-19398524D01*
G01X57928774Y-19398333D01*
G01X57928162Y-19398102D01*
G01X57927568Y-19397833D01*
G01X57926991Y-19397525D01*
G01X57926435Y-19397177D01*
G01X57925901Y-19396796D01*
G01X57925396Y-19396382D01*
G01X57924918Y-19395935D01*
G01X57924471Y-19395458D01*
G01X57924057Y-19394952D01*
G01X57923676Y-19394419D01*
G01X57923328Y-19393865D01*
G01X57923021Y-19393286D01*
G01X57922752Y-19392692D01*
G01X57922521Y-19392080D01*
G01X57922330Y-19391452D01*
G01X57922183Y-19390815D01*
G01X57922076Y-19390169D01*
G01X57922010Y-19389517D01*
G01X57921990Y-19388864D01*
G01X57921990Y-19328864D01*
G01X57922010Y-19328211D01*
G01X57922076Y-19327558D01*
G01X57922183Y-19326913D01*
G01X57922330Y-19326276D01*
G01X57922521Y-19325648D01*
G01X57922752Y-19325036D01*
G01X57923021Y-19324442D01*
G01X57923328Y-19323865D01*
G01X57923676Y-19323309D01*
G01X57924057Y-19322776D01*
G01X57924471Y-19322270D01*
G01X57924918Y-19321793D01*
G01X57925396Y-19321346D01*
G01X57925901Y-19320932D01*
G01X57926435Y-19320551D01*
G01X57926989Y-19320203D01*
G01X57927568Y-19319895D01*
G01X57928162Y-19319626D01*
G01X57928774Y-19319395D01*
G01X57929402Y-19319204D01*
G01X57930039Y-19319057D01*
G01X57930684Y-19318950D01*
G01X57931337Y-19318884D01*
G01X57931990Y-19318864D01*
G01X57932643Y-19318884D01*
G01X57933295Y-19318950D01*
G37*
G36*
G01X57733296Y-19318950D02*
G01X57733941Y-19319057D01*
G01X57734578Y-19319204D01*
G01X57735206Y-19319395D01*
G01X57735818Y-19319626D01*
G01X57736412Y-19319895D01*
G01X57736989Y-19320203D01*
G01X57737545Y-19320551D01*
G01X57738079Y-19320932D01*
G01X57738584Y-19321346D01*
G01X57739062Y-19321793D01*
G01X57739509Y-19322270D01*
G01X57739923Y-19322776D01*
G01X57740304Y-19323309D01*
G01X57740652Y-19323863D01*
G01X57740959Y-19324442D01*
G01X57741228Y-19325036D01*
G01X57741459Y-19325648D01*
G01X57741650Y-19326276D01*
G01X57741797Y-19326913D01*
G01X57741904Y-19327558D01*
G01X57741970Y-19328211D01*
G01X57741990Y-19328864D01*
G01X57741990Y-19388864D01*
G01X57741970Y-19389517D01*
G01X57741904Y-19390169D01*
G01X57741797Y-19390815D01*
G01X57741650Y-19391452D01*
G01X57741459Y-19392080D01*
G01X57741228Y-19392692D01*
G01X57740959Y-19393286D01*
G01X57740652Y-19393863D01*
G01X57740304Y-19394419D01*
G01X57739923Y-19394952D01*
G01X57739509Y-19395458D01*
G01X57739062Y-19395935D01*
G01X57738584Y-19396382D01*
G01X57738079Y-19396796D01*
G01X57737545Y-19397177D01*
G01X57736989Y-19397525D01*
G01X57736412Y-19397833D01*
G01X57735818Y-19398102D01*
G01X57735206Y-19398333D01*
G01X57734578Y-19398524D01*
G01X57733941Y-19398671D01*
G01X57733296Y-19398778D01*
G01X57732643Y-19398844D01*
G01X57731990Y-19398864D01*
G01X57731337Y-19398844D01*
G01X57730685Y-19398778D01*
G01X57730039Y-19398671D01*
G01X57729402Y-19398524D01*
G01X57728775Y-19398333D01*
G01X57728162Y-19398102D01*
G01X57727568Y-19397833D01*
G01X57726991Y-19397525D01*
G01X57726435Y-19397177D01*
G01X57725902Y-19396796D01*
G01X57725396Y-19396382D01*
G01X57724919Y-19395935D01*
G01X57724472Y-19395458D01*
G01X57724058Y-19394952D01*
G01X57723677Y-19394419D01*
G01X57723329Y-19393865D01*
G01X57723021Y-19393286D01*
G01X57722752Y-19392692D01*
G01X57722521Y-19392080D01*
G01X57722331Y-19391452D01*
G01X57722183Y-19390815D01*
G01X57722077Y-19390169D01*
G01X57722011Y-19389517D01*
G01X57721990Y-19388864D01*
G01X57721990Y-19328864D01*
G01X57722011Y-19328211D01*
G01X57722077Y-19327558D01*
G01X57722183Y-19326913D01*
G01X57722331Y-19326276D01*
G01X57722521Y-19325648D01*
G01X57722752Y-19325036D01*
G01X57723021Y-19324442D01*
G01X57723329Y-19323865D01*
G01X57723677Y-19323309D01*
G01X57724058Y-19322776D01*
G01X57724472Y-19322270D01*
G01X57724919Y-19321793D01*
G01X57725396Y-19321346D01*
G01X57725902Y-19320932D01*
G01X57726435Y-19320551D01*
G01X57726989Y-19320203D01*
G01X57727568Y-19319895D01*
G01X57728162Y-19319626D01*
G01X57728775Y-19319395D01*
G01X57729402Y-19319204D01*
G01X57730039Y-19319057D01*
G01X57730685Y-19318950D01*
G01X57731337Y-19318884D01*
G01X57731990Y-19318864D01*
G01X57732643Y-19318884D01*
G01X57733296Y-19318950D01*
G37*
G36*
G01X57973300Y-19318950D02*
G01X57973946Y-19319057D01*
G01X57974583Y-19319204D01*
G01X57975210Y-19319395D01*
G01X57975823Y-19319626D01*
G01X57976417Y-19319895D01*
G01X57976994Y-19320203D01*
G01X57977550Y-19320551D01*
G01X57978083Y-19320932D01*
G01X57978589Y-19321346D01*
G01X57979066Y-19321793D01*
G01X57979513Y-19322270D01*
G01X57979927Y-19322776D01*
G01X57980308Y-19323309D01*
G01X57980656Y-19323863D01*
G01X57980964Y-19324442D01*
G01X57981233Y-19325036D01*
G01X57981464Y-19325648D01*
G01X57981654Y-19326276D01*
G01X57981802Y-19326913D01*
G01X57981908Y-19327558D01*
G01X57981974Y-19328211D01*
G01X57981995Y-19328864D01*
G01X57981995Y-19388864D01*
G01X57981974Y-19389517D01*
G01X57981908Y-19390169D01*
G01X57981802Y-19390815D01*
G01X57981654Y-19391452D01*
G01X57981464Y-19392080D01*
G01X57981233Y-19392692D01*
G01X57980964Y-19393286D01*
G01X57980656Y-19393863D01*
G01X57980308Y-19394419D01*
G01X57979927Y-19394952D01*
G01X57979513Y-19395458D01*
G01X57979066Y-19395935D01*
G01X57978589Y-19396382D01*
G01X57978083Y-19396796D01*
G01X57977550Y-19397177D01*
G01X57976994Y-19397525D01*
G01X57976417Y-19397833D01*
G01X57975823Y-19398102D01*
G01X57975210Y-19398333D01*
G01X57974583Y-19398524D01*
G01X57973946Y-19398671D01*
G01X57973300Y-19398778D01*
G01X57972648Y-19398844D01*
G01X57971995Y-19398864D01*
G01X57971342Y-19398844D01*
G01X57970689Y-19398778D01*
G01X57970044Y-19398671D01*
G01X57969407Y-19398524D01*
G01X57968779Y-19398333D01*
G01X57968167Y-19398102D01*
G01X57967573Y-19397833D01*
G01X57966996Y-19397525D01*
G01X57966440Y-19397177D01*
G01X57965906Y-19396796D01*
G01X57965401Y-19396382D01*
G01X57964923Y-19395935D01*
G01X57964476Y-19395458D01*
G01X57964062Y-19394952D01*
G01X57963681Y-19394419D01*
G01X57963333Y-19393865D01*
G01X57963026Y-19393286D01*
G01X57962757Y-19392692D01*
G01X57962526Y-19392080D01*
G01X57962335Y-19391452D01*
G01X57962188Y-19390815D01*
G01X57962081Y-19390169D01*
G01X57962015Y-19389517D01*
G01X57961995Y-19388864D01*
G01X57961995Y-19328864D01*
G01X57962015Y-19328211D01*
G01X57962081Y-19327558D01*
G01X57962188Y-19326913D01*
G01X57962335Y-19326276D01*
G01X57962526Y-19325648D01*
G01X57962757Y-19325036D01*
G01X57963026Y-19324442D01*
G01X57963333Y-19323865D01*
G01X57963681Y-19323309D01*
G01X57964062Y-19322776D01*
G01X57964476Y-19322270D01*
G01X57964923Y-19321793D01*
G01X57965401Y-19321346D01*
G01X57965906Y-19320932D01*
G01X57966440Y-19320551D01*
G01X57966994Y-19320203D01*
G01X57967573Y-19319895D01*
G01X57968167Y-19319626D01*
G01X57968779Y-19319395D01*
G01X57969407Y-19319204D01*
G01X57970044Y-19319057D01*
G01X57970689Y-19318950D01*
G01X57971342Y-19318884D01*
G01X57971995Y-19318864D01*
G01X57972648Y-19318884D01*
G01X57973300Y-19318950D01*
G37*
G36*
G01X57773301Y-19318950D02*
G01X57773946Y-19319057D01*
G01X57774583Y-19319204D01*
G01X57775211Y-19319395D01*
G01X57775823Y-19319626D01*
G01X57776417Y-19319895D01*
G01X57776994Y-19320203D01*
G01X57777550Y-19320551D01*
G01X57778084Y-19320932D01*
G01X57778589Y-19321346D01*
G01X57779067Y-19321793D01*
G01X57779514Y-19322270D01*
G01X57779928Y-19322776D01*
G01X57780309Y-19323309D01*
G01X57780657Y-19323863D01*
G01X57780964Y-19324442D01*
G01X57781233Y-19325036D01*
G01X57781464Y-19325648D01*
G01X57781655Y-19326276D01*
G01X57781802Y-19326913D01*
G01X57781909Y-19327558D01*
G01X57781975Y-19328211D01*
G01X57781995Y-19328864D01*
G01X57781995Y-19388864D01*
G01X57781975Y-19389517D01*
G01X57781909Y-19390169D01*
G01X57781802Y-19390815D01*
G01X57781655Y-19391452D01*
G01X57781464Y-19392080D01*
G01X57781233Y-19392692D01*
G01X57780964Y-19393286D01*
G01X57780657Y-19393863D01*
G01X57780309Y-19394419D01*
G01X57779928Y-19394952D01*
G01X57779514Y-19395458D01*
G01X57779067Y-19395935D01*
G01X57778589Y-19396382D01*
G01X57778084Y-19396796D01*
G01X57777550Y-19397177D01*
G01X57776994Y-19397525D01*
G01X57776417Y-19397833D01*
G01X57775823Y-19398102D01*
G01X57775211Y-19398333D01*
G01X57774583Y-19398524D01*
G01X57773946Y-19398671D01*
G01X57773301Y-19398778D01*
G01X57772648Y-19398844D01*
G01X57771995Y-19398864D01*
G01X57771342Y-19398844D01*
G01X57770690Y-19398778D01*
G01X57770044Y-19398671D01*
G01X57769407Y-19398524D01*
G01X57768780Y-19398333D01*
G01X57768167Y-19398102D01*
G01X57767573Y-19397833D01*
G01X57766996Y-19397525D01*
G01X57766440Y-19397177D01*
G01X57765907Y-19396796D01*
G01X57765401Y-19396382D01*
G01X57764924Y-19395935D01*
G01X57764477Y-19395458D01*
G01X57764063Y-19394952D01*
G01X57763682Y-19394419D01*
G01X57763334Y-19393865D01*
G01X57763026Y-19393286D01*
G01X57762757Y-19392692D01*
G01X57762526Y-19392080D01*
G01X57762336Y-19391452D01*
G01X57762188Y-19390815D01*
G01X57762082Y-19390169D01*
G01X57762016Y-19389517D01*
G01X57761995Y-19388864D01*
G01X57761995Y-19328864D01*
G01X57762016Y-19328211D01*
G01X57762082Y-19327558D01*
G01X57762188Y-19326913D01*
G01X57762336Y-19326276D01*
G01X57762526Y-19325648D01*
G01X57762757Y-19325036D01*
G01X57763026Y-19324442D01*
G01X57763334Y-19323865D01*
G01X57763682Y-19323309D01*
G01X57764063Y-19322776D01*
G01X57764477Y-19322270D01*
G01X57764924Y-19321793D01*
G01X57765401Y-19321346D01*
G01X57765907Y-19320932D01*
G01X57766440Y-19320551D01*
G01X57766994Y-19320203D01*
G01X57767573Y-19319895D01*
G01X57768167Y-19319626D01*
G01X57768780Y-19319395D01*
G01X57769407Y-19319204D01*
G01X57770044Y-19319057D01*
G01X57770690Y-19318950D01*
G01X57771342Y-19318884D01*
G01X57771995Y-19318864D01*
G01X57772648Y-19318884D01*
G01X57773301Y-19318950D01*
G37*
G36*
G01X58193242Y-19418877D02*
G01X58193887Y-19418983D01*
G01X58194524Y-19419131D01*
G01X58195152Y-19419321D01*
G01X58195764Y-19419552D01*
G01X58196358Y-19419821D01*
G01X58196935Y-19420129D01*
G01X58197491Y-19420477D01*
G01X58198024Y-19420858D01*
G01X58198530Y-19421272D01*
G01X58199007Y-19421719D01*
G01X58199454Y-19422196D01*
G01X58199868Y-19422702D01*
G01X58200249Y-19423235D01*
G01X58200597Y-19423789D01*
G01X58200905Y-19424368D01*
G01X58201174Y-19424962D01*
G01X58201405Y-19425575D01*
G01X58201596Y-19426202D01*
G01X58201743Y-19426839D01*
G01X58201850Y-19427485D01*
G01X58201916Y-19428137D01*
G01X58201936Y-19428790D01*
G01X58201916Y-19429443D01*
G01X58201850Y-19430096D01*
G01X58201743Y-19430741D01*
G01X58201596Y-19431378D01*
G01X58201405Y-19432006D01*
G01X58201174Y-19432618D01*
G01X58200905Y-19433212D01*
G01X58200597Y-19433789D01*
G01X58200249Y-19434345D01*
G01X58199868Y-19434879D01*
G01X58199454Y-19435384D01*
G01X58199007Y-19435862D01*
G01X58198530Y-19436309D01*
G01X58198024Y-19436723D01*
G01X58197491Y-19437104D01*
G01X58196937Y-19437452D01*
G01X58196358Y-19437759D01*
G01X58195764Y-19438028D01*
G01X58195152Y-19438259D01*
G01X58194524Y-19438450D01*
G01X58193887Y-19438597D01*
G01X58193242Y-19438704D01*
G01X58192589Y-19438770D01*
G01X58191936Y-19438790D01*
G01X58131936Y-19438790D01*
G01X58131283Y-19438770D01*
G01X58130631Y-19438704D01*
G01X58129985Y-19438597D01*
G01X58129348Y-19438450D01*
G01X58128720Y-19438259D01*
G01X58128108Y-19438028D01*
G01X58127514Y-19437759D01*
G01X58126937Y-19437452D01*
G01X58126381Y-19437104D01*
G01X58125848Y-19436723D01*
G01X58125342Y-19436309D01*
G01X58124865Y-19435862D01*
G01X58124418Y-19435384D01*
G01X58124004Y-19434879D01*
G01X58123623Y-19434345D01*
G01X58123275Y-19433791D01*
G01X58122967Y-19433212D01*
G01X58122698Y-19432618D01*
G01X58122467Y-19432006D01*
G01X58122276Y-19431378D01*
G01X58122129Y-19430741D01*
G01X58122022Y-19430096D01*
G01X58121956Y-19429443D01*
G01X58121936Y-19428790D01*
G01X58121956Y-19428137D01*
G01X58122022Y-19427485D01*
G01X58122129Y-19426839D01*
G01X58122276Y-19426202D01*
G01X58122467Y-19425575D01*
G01X58122698Y-19424962D01*
G01X58122967Y-19424368D01*
G01X58123275Y-19423791D01*
G01X58123623Y-19423235D01*
G01X58124004Y-19422702D01*
G01X58124418Y-19422196D01*
G01X58124865Y-19421719D01*
G01X58125342Y-19421272D01*
G01X58125848Y-19420858D01*
G01X58126381Y-19420477D01*
G01X58126935Y-19420129D01*
G01X58127514Y-19419821D01*
G01X58128108Y-19419552D01*
G01X58128720Y-19419321D01*
G01X58129348Y-19419131D01*
G01X58129985Y-19418983D01*
G01X58130631Y-19418877D01*
G01X58131283Y-19418811D01*
G01X58131936Y-19418790D01*
G01X58191936Y-19418790D01*
G01X58192589Y-19418811D01*
G01X58193242Y-19418877D01*
G37*
G36*
G01X57631411Y-19418811D02*
G01X57632064Y-19418790D01*
G01X57692064Y-19418790D01*
G01X57692717Y-19418811D01*
G01X57693370Y-19418877D01*
G01X57694015Y-19418983D01*
G01X57694652Y-19419131D01*
G01X57695280Y-19419321D01*
G01X57695892Y-19419552D01*
G01X57696486Y-19419821D01*
G01X57697063Y-19420129D01*
G01X57697619Y-19420477D01*
G01X57698152Y-19420858D01*
G01X57698658Y-19421272D01*
G01X57699135Y-19421719D01*
G01X57699582Y-19422196D01*
G01X57699996Y-19422702D01*
G01X57700377Y-19423235D01*
G01X57700725Y-19423789D01*
G01X57701033Y-19424368D01*
G01X57701302Y-19424962D01*
G01X57701533Y-19425575D01*
G01X57701724Y-19426202D01*
G01X57701871Y-19426839D01*
G01X57701978Y-19427485D01*
G01X57702044Y-19428137D01*
G01X57702064Y-19428790D01*
G01X57702044Y-19429443D01*
G01X57701978Y-19430096D01*
G01X57701871Y-19430741D01*
G01X57701724Y-19431378D01*
G01X57701533Y-19432006D01*
G01X57701302Y-19432618D01*
G01X57701033Y-19433212D01*
G01X57700725Y-19433789D01*
G01X57700377Y-19434345D01*
G01X57699996Y-19434879D01*
G01X57699582Y-19435384D01*
G01X57699135Y-19435862D01*
G01X57698658Y-19436309D01*
G01X57698152Y-19436723D01*
G01X57697619Y-19437104D01*
G01X57697065Y-19437452D01*
G01X57696486Y-19437759D01*
G01X57695892Y-19438028D01*
G01X57695280Y-19438259D01*
G01X57694652Y-19438450D01*
G01X57694015Y-19438597D01*
G01X57693370Y-19438704D01*
G01X57692717Y-19438770D01*
G01X57692064Y-19438790D01*
G01X57632064Y-19438790D01*
G01X57631411Y-19438770D01*
G01X57630759Y-19438704D01*
G01X57630113Y-19438597D01*
G01X57629476Y-19438450D01*
G01X57628848Y-19438259D01*
G01X57628236Y-19438028D01*
G01X57627642Y-19437759D01*
G01X57627065Y-19437452D01*
G01X57626509Y-19437104D01*
G01X57625976Y-19436723D01*
G01X57625470Y-19436309D01*
G01X57624993Y-19435862D01*
G01X57624546Y-19435384D01*
G01X57624132Y-19434879D01*
G01X57623751Y-19434345D01*
G01X57623403Y-19433791D01*
G01X57623095Y-19433212D01*
G01X57622826Y-19432618D01*
G01X57622595Y-19432006D01*
G01X57622404Y-19431378D01*
G01X57622257Y-19430741D01*
G01X57622150Y-19430096D01*
G01X57622084Y-19429443D01*
G01X57622064Y-19428790D01*
G01X57622084Y-19428137D01*
G01X57622150Y-19427485D01*
G01X57622257Y-19426839D01*
G01X57622404Y-19426202D01*
G01X57622595Y-19425575D01*
G01X57622826Y-19424962D01*
G01X57623095Y-19424368D01*
G01X57623403Y-19423791D01*
G01X57623751Y-19423235D01*
G01X57624132Y-19422702D01*
G01X57624546Y-19422196D01*
G01X57624993Y-19421719D01*
G01X57625470Y-19421272D01*
G01X57625976Y-19420858D01*
G01X57626509Y-19420477D01*
G01X57627063Y-19420129D01*
G01X57627642Y-19419821D01*
G01X57628236Y-19419552D01*
G01X57628848Y-19419321D01*
G01X57629476Y-19419131D01*
G01X57630113Y-19418983D01*
G01X57630759Y-19418877D01*
G01X57631411Y-19418811D01*
G37*
G36*
G01X58193242Y-19458882D02*
G01X58193887Y-19458988D01*
G01X58194524Y-19459136D01*
G01X58195152Y-19459326D01*
G01X58195764Y-19459557D01*
G01X58196358Y-19459826D01*
G01X58196935Y-19460134D01*
G01X58197491Y-19460482D01*
G01X58198024Y-19460863D01*
G01X58198530Y-19461277D01*
G01X58199007Y-19461724D01*
G01X58199454Y-19462201D01*
G01X58199868Y-19462707D01*
G01X58200249Y-19463240D01*
G01X58200597Y-19463794D01*
G01X58200905Y-19464373D01*
G01X58201174Y-19464967D01*
G01X58201405Y-19465580D01*
G01X58201596Y-19466207D01*
G01X58201743Y-19466844D01*
G01X58201850Y-19467490D01*
G01X58201916Y-19468142D01*
G01X58201936Y-19468795D01*
G01X58201916Y-19469448D01*
G01X58201850Y-19470101D01*
G01X58201743Y-19470746D01*
G01X58201596Y-19471383D01*
G01X58201405Y-19472011D01*
G01X58201174Y-19472623D01*
G01X58200905Y-19473217D01*
G01X58200597Y-19473794D01*
G01X58200249Y-19474350D01*
G01X58199868Y-19474884D01*
G01X58199454Y-19475389D01*
G01X58199007Y-19475867D01*
G01X58198530Y-19476314D01*
G01X58198024Y-19476728D01*
G01X58197491Y-19477109D01*
G01X58196937Y-19477457D01*
G01X58196358Y-19477764D01*
G01X58195764Y-19478033D01*
G01X58195152Y-19478264D01*
G01X58194524Y-19478455D01*
G01X58193887Y-19478602D01*
G01X58193242Y-19478709D01*
G01X58192589Y-19478775D01*
G01X58191936Y-19478795D01*
G01X58131936Y-19478795D01*
G01X58131283Y-19478775D01*
G01X58130631Y-19478709D01*
G01X58129985Y-19478602D01*
G01X58129348Y-19478455D01*
G01X58128720Y-19478264D01*
G01X58128108Y-19478033D01*
G01X58127514Y-19477764D01*
G01X58126937Y-19477457D01*
G01X58126381Y-19477109D01*
G01X58125848Y-19476728D01*
G01X58125342Y-19476314D01*
G01X58124865Y-19475867D01*
G01X58124418Y-19475389D01*
G01X58124004Y-19474884D01*
G01X58123623Y-19474350D01*
G01X58123275Y-19473796D01*
G01X58122967Y-19473217D01*
G01X58122698Y-19472623D01*
G01X58122467Y-19472011D01*
G01X58122276Y-19471383D01*
G01X58122129Y-19470746D01*
G01X58122022Y-19470101D01*
G01X58121956Y-19469448D01*
G01X58121936Y-19468795D01*
G01X58121956Y-19468142D01*
G01X58122022Y-19467490D01*
G01X58122129Y-19466844D01*
G01X58122276Y-19466207D01*
G01X58122467Y-19465580D01*
G01X58122698Y-19464967D01*
G01X58122967Y-19464373D01*
G01X58123275Y-19463796D01*
G01X58123623Y-19463240D01*
G01X58124004Y-19462707D01*
G01X58124418Y-19462201D01*
G01X58124865Y-19461724D01*
G01X58125342Y-19461277D01*
G01X58125848Y-19460863D01*
G01X58126381Y-19460482D01*
G01X58126935Y-19460134D01*
G01X58127514Y-19459826D01*
G01X58128108Y-19459557D01*
G01X58128720Y-19459326D01*
G01X58129348Y-19459136D01*
G01X58129985Y-19458988D01*
G01X58130631Y-19458882D01*
G01X58131283Y-19458816D01*
G01X58131936Y-19458795D01*
G01X58191936Y-19458795D01*
G01X58192589Y-19458816D01*
G01X58193242Y-19458882D01*
G37*
G36*
G01X57693370Y-19458882D02*
G01X57694015Y-19458988D01*
G01X57694652Y-19459136D01*
G01X57695280Y-19459326D01*
G01X57695892Y-19459557D01*
G01X57696486Y-19459826D01*
G01X57697063Y-19460134D01*
G01X57697619Y-19460482D01*
G01X57698152Y-19460863D01*
G01X57698658Y-19461277D01*
G01X57699135Y-19461724D01*
G01X57699582Y-19462201D01*
G01X57699996Y-19462707D01*
G01X57700377Y-19463240D01*
G01X57700725Y-19463794D01*
G01X57701033Y-19464373D01*
G01X57701302Y-19464967D01*
G01X57701533Y-19465580D01*
G01X57701724Y-19466207D01*
G01X57701871Y-19466844D01*
G01X57701978Y-19467490D01*
G01X57702044Y-19468142D01*
G01X57702064Y-19468795D01*
G01X57702044Y-19469448D01*
G01X57701978Y-19470101D01*
G01X57701871Y-19470746D01*
G01X57701724Y-19471383D01*
G01X57701533Y-19472011D01*
G01X57701302Y-19472623D01*
G01X57701033Y-19473217D01*
G01X57700725Y-19473794D01*
G01X57700377Y-19474350D01*
G01X57699996Y-19474884D01*
G01X57699582Y-19475389D01*
G01X57699135Y-19475867D01*
G01X57698658Y-19476314D01*
G01X57698152Y-19476728D01*
G01X57697619Y-19477109D01*
G01X57697065Y-19477457D01*
G01X57696486Y-19477764D01*
G01X57695892Y-19478033D01*
G01X57695280Y-19478264D01*
G01X57694652Y-19478455D01*
G01X57694015Y-19478602D01*
G01X57693370Y-19478709D01*
G01X57692717Y-19478775D01*
G01X57692064Y-19478795D01*
G01X57632064Y-19478795D01*
G01X57631411Y-19478775D01*
G01X57630759Y-19478709D01*
G01X57630113Y-19478602D01*
G01X57629476Y-19478455D01*
G01X57628848Y-19478264D01*
G01X57628236Y-19478033D01*
G01X57627642Y-19477764D01*
G01X57627065Y-19477457D01*
G01X57626509Y-19477109D01*
G01X57625976Y-19476728D01*
G01X57625470Y-19476314D01*
G01X57624993Y-19475867D01*
G01X57624546Y-19475389D01*
G01X57624132Y-19474884D01*
G01X57623751Y-19474350D01*
G01X57623403Y-19473796D01*
G01X57623095Y-19473217D01*
G01X57622826Y-19472623D01*
G01X57622595Y-19472011D01*
G01X57622404Y-19471383D01*
G01X57622257Y-19470746D01*
G01X57622150Y-19470101D01*
G01X57622084Y-19469448D01*
G01X57622064Y-19468795D01*
G01X57622084Y-19468142D01*
G01X57622150Y-19467490D01*
G01X57622257Y-19466844D01*
G01X57622404Y-19466207D01*
G01X57622595Y-19465580D01*
G01X57622826Y-19464967D01*
G01X57623095Y-19464373D01*
G01X57623403Y-19463796D01*
G01X57623751Y-19463240D01*
G01X57624132Y-19462707D01*
G01X57624546Y-19462201D01*
G01X57624993Y-19461724D01*
G01X57625470Y-19461277D01*
G01X57625976Y-19460863D01*
G01X57626509Y-19460482D01*
G01X57627063Y-19460134D01*
G01X57627642Y-19459826D01*
G01X57628236Y-19459557D01*
G01X57628848Y-19459326D01*
G01X57629476Y-19459136D01*
G01X57630113Y-19458988D01*
G01X57630759Y-19458882D01*
G01X57631411Y-19458816D01*
G01X57632064Y-19458795D01*
G01X57692064Y-19458795D01*
G01X57692717Y-19458816D01*
G01X57693370Y-19458882D01*
G37*
G36*
G01X58131283Y-19498821D02*
G01X58131936Y-19498800D01*
G01X58191936Y-19498800D01*
G01X58192589Y-19498821D01*
G01X58193242Y-19498887D01*
G01X58193887Y-19498993D01*
G01X58194524Y-19499141D01*
G01X58195152Y-19499331D01*
G01X58195764Y-19499562D01*
G01X58196358Y-19499831D01*
G01X58196935Y-19500139D01*
G01X58197491Y-19500487D01*
G01X58198024Y-19500868D01*
G01X58198530Y-19501282D01*
G01X58199007Y-19501729D01*
G01X58199454Y-19502206D01*
G01X58199868Y-19502712D01*
G01X58200249Y-19503245D01*
G01X58200597Y-19503799D01*
G01X58200905Y-19504378D01*
G01X58201174Y-19504972D01*
G01X58201405Y-19505585D01*
G01X58201596Y-19506212D01*
G01X58201743Y-19506849D01*
G01X58201850Y-19507495D01*
G01X58201916Y-19508147D01*
G01X58201936Y-19508800D01*
G01X58201916Y-19509453D01*
G01X58201850Y-19510106D01*
G01X58201743Y-19510751D01*
G01X58201596Y-19511388D01*
G01X58201405Y-19512016D01*
G01X58201174Y-19512628D01*
G01X58200905Y-19513222D01*
G01X58200597Y-19513799D01*
G01X58200249Y-19514355D01*
G01X58199868Y-19514889D01*
G01X58199454Y-19515394D01*
G01X58199007Y-19515872D01*
G01X58198530Y-19516319D01*
G01X58198024Y-19516733D01*
G01X58197491Y-19517114D01*
G01X58196937Y-19517462D01*
G01X58196358Y-19517769D01*
G01X58195764Y-19518038D01*
G01X58195152Y-19518269D01*
G01X58194524Y-19518460D01*
G01X58193887Y-19518607D01*
G01X58193242Y-19518714D01*
G01X58192589Y-19518780D01*
G01X58191936Y-19518800D01*
G01X58131936Y-19518800D01*
G01X58131283Y-19518780D01*
G01X58130631Y-19518714D01*
G01X58129985Y-19518607D01*
G01X58129348Y-19518460D01*
G01X58128720Y-19518269D01*
G01X58128108Y-19518038D01*
G01X58127514Y-19517769D01*
G01X58126937Y-19517462D01*
G01X58126381Y-19517114D01*
G01X58125848Y-19516733D01*
G01X58125342Y-19516319D01*
G01X58124865Y-19515872D01*
G01X58124418Y-19515394D01*
G01X58124004Y-19514889D01*
G01X58123623Y-19514355D01*
G01X58123275Y-19513801D01*
G01X58122967Y-19513222D01*
G01X58122698Y-19512628D01*
G01X58122467Y-19512016D01*
G01X58122276Y-19511388D01*
G01X58122129Y-19510751D01*
G01X58122022Y-19510106D01*
G01X58121956Y-19509453D01*
G01X58121936Y-19508800D01*
G01X58121956Y-19508147D01*
G01X58122022Y-19507495D01*
G01X58122129Y-19506849D01*
G01X58122276Y-19506212D01*
G01X58122467Y-19505585D01*
G01X58122698Y-19504972D01*
G01X58122967Y-19504378D01*
G01X58123275Y-19503801D01*
G01X58123623Y-19503245D01*
G01X58124004Y-19502712D01*
G01X58124418Y-19502206D01*
G01X58124865Y-19501729D01*
G01X58125342Y-19501282D01*
G01X58125848Y-19500868D01*
G01X58126381Y-19500487D01*
G01X58126935Y-19500139D01*
G01X58127514Y-19499831D01*
G01X58128108Y-19499562D01*
G01X58128720Y-19499331D01*
G01X58129348Y-19499141D01*
G01X58129985Y-19498993D01*
G01X58130631Y-19498887D01*
G01X58131283Y-19498821D01*
G37*
G36*
G01X57631411Y-19498821D02*
G01X57632064Y-19498800D01*
G01X57692064Y-19498800D01*
G01X57692717Y-19498821D01*
G01X57693370Y-19498887D01*
G01X57694015Y-19498993D01*
G01X57694652Y-19499141D01*
G01X57695280Y-19499331D01*
G01X57695892Y-19499562D01*
G01X57696486Y-19499831D01*
G01X57697063Y-19500139D01*
G01X57697619Y-19500487D01*
G01X57698152Y-19500868D01*
G01X57698658Y-19501282D01*
G01X57699135Y-19501729D01*
G01X57699582Y-19502206D01*
G01X57699996Y-19502712D01*
G01X57700377Y-19503245D01*
G01X57700725Y-19503799D01*
G01X57701033Y-19504378D01*
G01X57701302Y-19504972D01*
G01X57701533Y-19505585D01*
G01X57701724Y-19506212D01*
G01X57701871Y-19506849D01*
G01X57701978Y-19507495D01*
G01X57702044Y-19508147D01*
G01X57702064Y-19508800D01*
G01X57702044Y-19509453D01*
G01X57701978Y-19510106D01*
G01X57701871Y-19510751D01*
G01X57701724Y-19511388D01*
G01X57701533Y-19512016D01*
G01X57701302Y-19512628D01*
G01X57701033Y-19513222D01*
G01X57700725Y-19513799D01*
G01X57700377Y-19514355D01*
G01X57699996Y-19514889D01*
G01X57699582Y-19515394D01*
G01X57699135Y-19515872D01*
G01X57698658Y-19516319D01*
G01X57698152Y-19516733D01*
G01X57697619Y-19517114D01*
G01X57697065Y-19517462D01*
G01X57696486Y-19517769D01*
G01X57695892Y-19518038D01*
G01X57695280Y-19518269D01*
G01X57694652Y-19518460D01*
G01X57694015Y-19518607D01*
G01X57693370Y-19518714D01*
G01X57692717Y-19518780D01*
G01X57692064Y-19518800D01*
G01X57632064Y-19518800D01*
G01X57631411Y-19518780D01*
G01X57630759Y-19518714D01*
G01X57630113Y-19518607D01*
G01X57629476Y-19518460D01*
G01X57628848Y-19518269D01*
G01X57628236Y-19518038D01*
G01X57627642Y-19517769D01*
G01X57627065Y-19517462D01*
G01X57626509Y-19517114D01*
G01X57625976Y-19516733D01*
G01X57625470Y-19516319D01*
G01X57624993Y-19515872D01*
G01X57624546Y-19515394D01*
G01X57624132Y-19514889D01*
G01X57623751Y-19514355D01*
G01X57623403Y-19513801D01*
G01X57623095Y-19513222D01*
G01X57622826Y-19512628D01*
G01X57622595Y-19512016D01*
G01X57622404Y-19511388D01*
G01X57622257Y-19510751D01*
G01X57622150Y-19510106D01*
G01X57622084Y-19509453D01*
G01X57622064Y-19508800D01*
G01X57622084Y-19508147D01*
G01X57622150Y-19507495D01*
G01X57622257Y-19506849D01*
G01X57622404Y-19506212D01*
G01X57622595Y-19505585D01*
G01X57622826Y-19504972D01*
G01X57623095Y-19504378D01*
G01X57623403Y-19503801D01*
G01X57623751Y-19503245D01*
G01X57624132Y-19502712D01*
G01X57624546Y-19502206D01*
G01X57624993Y-19501729D01*
G01X57625470Y-19501282D01*
G01X57625976Y-19500868D01*
G01X57626509Y-19500487D01*
G01X57627063Y-19500139D01*
G01X57627642Y-19499831D01*
G01X57628236Y-19499562D01*
G01X57628848Y-19499331D01*
G01X57629476Y-19499141D01*
G01X57630113Y-19498993D01*
G01X57630759Y-19498887D01*
G01X57631411Y-19498821D01*
G37*
G36*
G01X58193242Y-19538892D02*
G01X58193887Y-19538998D01*
G01X58194524Y-19539146D01*
G01X58195152Y-19539336D01*
G01X58195764Y-19539567D01*
G01X58196358Y-19539836D01*
G01X58196935Y-19540144D01*
G01X58197491Y-19540492D01*
G01X58198024Y-19540873D01*
G01X58198530Y-19541287D01*
G01X58199007Y-19541734D01*
G01X58199454Y-19542211D01*
G01X58199868Y-19542717D01*
G01X58200249Y-19543250D01*
G01X58200597Y-19543804D01*
G01X58200905Y-19544383D01*
G01X58201174Y-19544977D01*
G01X58201405Y-19545590D01*
G01X58201596Y-19546217D01*
G01X58201743Y-19546854D01*
G01X58201850Y-19547500D01*
G01X58201916Y-19548152D01*
G01X58201936Y-19548805D01*
G01X58201916Y-19549458D01*
G01X58201850Y-19550111D01*
G01X58201743Y-19550756D01*
G01X58201596Y-19551393D01*
G01X58201405Y-19552021D01*
G01X58201174Y-19552633D01*
G01X58200905Y-19553227D01*
G01X58200597Y-19553804D01*
G01X58200249Y-19554360D01*
G01X58199868Y-19554894D01*
G01X58199454Y-19555399D01*
G01X58199007Y-19555877D01*
G01X58198530Y-19556324D01*
G01X58198024Y-19556738D01*
G01X58197491Y-19557119D01*
G01X58196937Y-19557467D01*
G01X58196358Y-19557774D01*
G01X58195764Y-19558043D01*
G01X58195152Y-19558274D01*
G01X58194524Y-19558465D01*
G01X58193887Y-19558612D01*
G01X58193242Y-19558719D01*
G01X58192589Y-19558785D01*
G01X58191936Y-19558805D01*
G01X58131936Y-19558805D01*
G01X58131283Y-19558785D01*
G01X58130631Y-19558719D01*
G01X58129985Y-19558612D01*
G01X58129348Y-19558465D01*
G01X58128720Y-19558274D01*
G01X58128108Y-19558043D01*
G01X58127514Y-19557774D01*
G01X58126937Y-19557467D01*
G01X58126381Y-19557119D01*
G01X58125848Y-19556738D01*
G01X58125342Y-19556324D01*
G01X58124865Y-19555877D01*
G01X58124418Y-19555399D01*
G01X58124004Y-19554894D01*
G01X58123623Y-19554360D01*
G01X58123275Y-19553806D01*
G01X58122967Y-19553227D01*
G01X58122698Y-19552633D01*
G01X58122467Y-19552021D01*
G01X58122276Y-19551393D01*
G01X58122129Y-19550756D01*
G01X58122022Y-19550111D01*
G01X58121956Y-19549458D01*
G01X58121936Y-19548805D01*
G01X58121956Y-19548152D01*
G01X58122022Y-19547500D01*
G01X58122129Y-19546854D01*
G01X58122276Y-19546217D01*
G01X58122467Y-19545590D01*
G01X58122698Y-19544977D01*
G01X58122967Y-19544383D01*
G01X58123275Y-19543806D01*
G01X58123623Y-19543250D01*
G01X58124004Y-19542717D01*
G01X58124418Y-19542211D01*
G01X58124865Y-19541734D01*
G01X58125342Y-19541287D01*
G01X58125848Y-19540873D01*
G01X58126381Y-19540492D01*
G01X58126935Y-19540144D01*
G01X58127514Y-19539836D01*
G01X58128108Y-19539567D01*
G01X58128720Y-19539336D01*
G01X58129348Y-19539146D01*
G01X58129985Y-19538998D01*
G01X58130631Y-19538892D01*
G01X58131283Y-19538826D01*
G01X58131936Y-19538805D01*
G01X58191936Y-19538805D01*
G01X58192589Y-19538826D01*
G01X58193242Y-19538892D01*
G37*
G36*
G01X57693370Y-19538892D02*
G01X57694015Y-19538998D01*
G01X57694652Y-19539146D01*
G01X57695280Y-19539336D01*
G01X57695892Y-19539567D01*
G01X57696486Y-19539836D01*
G01X57697063Y-19540144D01*
G01X57697619Y-19540492D01*
G01X57698152Y-19540873D01*
G01X57698658Y-19541287D01*
G01X57699135Y-19541734D01*
G01X57699582Y-19542211D01*
G01X57699996Y-19542717D01*
G01X57700377Y-19543250D01*
G01X57700725Y-19543804D01*
G01X57701033Y-19544383D01*
G01X57701302Y-19544977D01*
G01X57701533Y-19545590D01*
G01X57701724Y-19546217D01*
G01X57701871Y-19546854D01*
G01X57701978Y-19547500D01*
G01X57702044Y-19548152D01*
G01X57702064Y-19548805D01*
G01X57702044Y-19549458D01*
G01X57701978Y-19550111D01*
G01X57701871Y-19550756D01*
G01X57701724Y-19551393D01*
G01X57701533Y-19552021D01*
G01X57701302Y-19552633D01*
G01X57701033Y-19553227D01*
G01X57700725Y-19553804D01*
G01X57700377Y-19554360D01*
G01X57699996Y-19554894D01*
G01X57699582Y-19555399D01*
G01X57699135Y-19555877D01*
G01X57698658Y-19556324D01*
G01X57698152Y-19556738D01*
G01X57697619Y-19557119D01*
G01X57697065Y-19557467D01*
G01X57696486Y-19557774D01*
G01X57695892Y-19558043D01*
G01X57695280Y-19558274D01*
G01X57694652Y-19558465D01*
G01X57694015Y-19558612D01*
G01X57693370Y-19558719D01*
G01X57692717Y-19558785D01*
G01X57692064Y-19558805D01*
G01X57632064Y-19558805D01*
G01X57631411Y-19558785D01*
G01X57630759Y-19558719D01*
G01X57630113Y-19558612D01*
G01X57629476Y-19558465D01*
G01X57628848Y-19558274D01*
G01X57628236Y-19558043D01*
G01X57627642Y-19557774D01*
G01X57627065Y-19557467D01*
G01X57626509Y-19557119D01*
G01X57625976Y-19556738D01*
G01X57625470Y-19556324D01*
G01X57624993Y-19555877D01*
G01X57624546Y-19555399D01*
G01X57624132Y-19554894D01*
G01X57623751Y-19554360D01*
G01X57623403Y-19553806D01*
G01X57623095Y-19553227D01*
G01X57622826Y-19552633D01*
G01X57622595Y-19552021D01*
G01X57622404Y-19551393D01*
G01X57622257Y-19550756D01*
G01X57622150Y-19550111D01*
G01X57622084Y-19549458D01*
G01X57622064Y-19548805D01*
G01X57622084Y-19548152D01*
G01X57622150Y-19547500D01*
G01X57622257Y-19546854D01*
G01X57622404Y-19546217D01*
G01X57622595Y-19545590D01*
G01X57622826Y-19544977D01*
G01X57623095Y-19544383D01*
G01X57623403Y-19543806D01*
G01X57623751Y-19543250D01*
G01X57624132Y-19542717D01*
G01X57624546Y-19542211D01*
G01X57624993Y-19541734D01*
G01X57625470Y-19541287D01*
G01X57625976Y-19540873D01*
G01X57626509Y-19540492D01*
G01X57627063Y-19540144D01*
G01X57627642Y-19539836D01*
G01X57628236Y-19539567D01*
G01X57628848Y-19539336D01*
G01X57629476Y-19539146D01*
G01X57630113Y-19538998D01*
G01X57630759Y-19538892D01*
G01X57631411Y-19538826D01*
G01X57632064Y-19538805D01*
G01X57692064Y-19538805D01*
G01X57692717Y-19538826D01*
G01X57693370Y-19538892D01*
G37*
G36*
G01X58131283Y-19578831D02*
G01X58131936Y-19578810D01*
G01X58191936Y-19578810D01*
G01X58192589Y-19578831D01*
G01X58193242Y-19578897D01*
G01X58193887Y-19579003D01*
G01X58194524Y-19579151D01*
G01X58195152Y-19579341D01*
G01X58195764Y-19579572D01*
G01X58196358Y-19579841D01*
G01X58196935Y-19580149D01*
G01X58197491Y-19580497D01*
G01X58198024Y-19580878D01*
G01X58198530Y-19581292D01*
G01X58199007Y-19581739D01*
G01X58199454Y-19582216D01*
G01X58199868Y-19582722D01*
G01X58200249Y-19583255D01*
G01X58200597Y-19583809D01*
G01X58200905Y-19584388D01*
G01X58201174Y-19584982D01*
G01X58201405Y-19585595D01*
G01X58201596Y-19586222D01*
G01X58201743Y-19586859D01*
G01X58201850Y-19587505D01*
G01X58201916Y-19588157D01*
G01X58201936Y-19588810D01*
G01X58201916Y-19589463D01*
G01X58201850Y-19590116D01*
G01X58201743Y-19590761D01*
G01X58201596Y-19591398D01*
G01X58201405Y-19592026D01*
G01X58201174Y-19592638D01*
G01X58200905Y-19593232D01*
G01X58200597Y-19593809D01*
G01X58200249Y-19594365D01*
G01X58199868Y-19594899D01*
G01X58199454Y-19595404D01*
G01X58199007Y-19595882D01*
G01X58198530Y-19596329D01*
G01X58198024Y-19596743D01*
G01X58197491Y-19597124D01*
G01X58196937Y-19597472D01*
G01X58196358Y-19597779D01*
G01X58195764Y-19598048D01*
G01X58195152Y-19598279D01*
G01X58194524Y-19598470D01*
G01X58193887Y-19598617D01*
G01X58193242Y-19598724D01*
G01X58192589Y-19598790D01*
G01X58191936Y-19598810D01*
G01X58131936Y-19598810D01*
G01X58131283Y-19598790D01*
G01X58130631Y-19598724D01*
G01X58129985Y-19598617D01*
G01X58129348Y-19598470D01*
G01X58128720Y-19598279D01*
G01X58128108Y-19598048D01*
G01X58127514Y-19597779D01*
G01X58126937Y-19597472D01*
G01X58126381Y-19597124D01*
G01X58125848Y-19596743D01*
G01X58125342Y-19596329D01*
G01X58124865Y-19595882D01*
G01X58124418Y-19595404D01*
G01X58124004Y-19594899D01*
G01X58123623Y-19594365D01*
G01X58123275Y-19593811D01*
G01X58122967Y-19593232D01*
G01X58122698Y-19592638D01*
G01X58122467Y-19592026D01*
G01X58122276Y-19591398D01*
G01X58122129Y-19590761D01*
G01X58122022Y-19590116D01*
G01X58121956Y-19589463D01*
G01X58121936Y-19588810D01*
G01X58121956Y-19588157D01*
G01X58122022Y-19587505D01*
G01X58122129Y-19586859D01*
G01X58122276Y-19586222D01*
G01X58122467Y-19585595D01*
G01X58122698Y-19584982D01*
G01X58122967Y-19584388D01*
G01X58123275Y-19583811D01*
G01X58123623Y-19583255D01*
G01X58124004Y-19582722D01*
G01X58124418Y-19582216D01*
G01X58124865Y-19581739D01*
G01X58125342Y-19581292D01*
G01X58125848Y-19580878D01*
G01X58126381Y-19580497D01*
G01X58126935Y-19580149D01*
G01X58127514Y-19579841D01*
G01X58128108Y-19579572D01*
G01X58128720Y-19579341D01*
G01X58129348Y-19579151D01*
G01X58129985Y-19579003D01*
G01X58130631Y-19578897D01*
G01X58131283Y-19578831D01*
G37*
G36*
G01X57693370Y-19578897D02*
G01X57694015Y-19579003D01*
G01X57694652Y-19579151D01*
G01X57695280Y-19579341D01*
G01X57695892Y-19579572D01*
G01X57696486Y-19579841D01*
G01X57697063Y-19580149D01*
G01X57697619Y-19580497D01*
G01X57698152Y-19580878D01*
G01X57698658Y-19581292D01*
G01X57699135Y-19581739D01*
G01X57699582Y-19582216D01*
G01X57699996Y-19582722D01*
G01X57700377Y-19583255D01*
G01X57700725Y-19583809D01*
G01X57701033Y-19584388D01*
G01X57701302Y-19584982D01*
G01X57701533Y-19585595D01*
G01X57701724Y-19586222D01*
G01X57701871Y-19586859D01*
G01X57701978Y-19587505D01*
G01X57702044Y-19588157D01*
G01X57702064Y-19588810D01*
G01X57702044Y-19589463D01*
G01X57701978Y-19590116D01*
G01X57701871Y-19590761D01*
G01X57701724Y-19591398D01*
G01X57701533Y-19592026D01*
G01X57701302Y-19592638D01*
G01X57701033Y-19593232D01*
G01X57700725Y-19593809D01*
G01X57700377Y-19594365D01*
G01X57699996Y-19594899D01*
G01X57699582Y-19595404D01*
G01X57699135Y-19595882D01*
G01X57698658Y-19596329D01*
G01X57698152Y-19596743D01*
G01X57697619Y-19597124D01*
G01X57697065Y-19597472D01*
G01X57696486Y-19597779D01*
G01X57695892Y-19598048D01*
G01X57695280Y-19598279D01*
G01X57694652Y-19598470D01*
G01X57694015Y-19598617D01*
G01X57693370Y-19598724D01*
G01X57692717Y-19598790D01*
G01X57692064Y-19598810D01*
G01X57632064Y-19598810D01*
G01X57631411Y-19598790D01*
G01X57630759Y-19598724D01*
G01X57630113Y-19598617D01*
G01X57629476Y-19598470D01*
G01X57628848Y-19598279D01*
G01X57628236Y-19598048D01*
G01X57627642Y-19597779D01*
G01X57627065Y-19597472D01*
G01X57626509Y-19597124D01*
G01X57625976Y-19596743D01*
G01X57625470Y-19596329D01*
G01X57624993Y-19595882D01*
G01X57624546Y-19595404D01*
G01X57624132Y-19594899D01*
G01X57623751Y-19594365D01*
G01X57623403Y-19593811D01*
G01X57623095Y-19593232D01*
G01X57622826Y-19592638D01*
G01X57622595Y-19592026D01*
G01X57622404Y-19591398D01*
G01X57622257Y-19590761D01*
G01X57622150Y-19590116D01*
G01X57622084Y-19589463D01*
G01X57622064Y-19588810D01*
G01X57622084Y-19588157D01*
G01X57622150Y-19587505D01*
G01X57622257Y-19586859D01*
G01X57622404Y-19586222D01*
G01X57622595Y-19585595D01*
G01X57622826Y-19584982D01*
G01X57623095Y-19584388D01*
G01X57623403Y-19583811D01*
G01X57623751Y-19583255D01*
G01X57624132Y-19582722D01*
G01X57624546Y-19582216D01*
G01X57624993Y-19581739D01*
G01X57625470Y-19581292D01*
G01X57625976Y-19580878D01*
G01X57626509Y-19580497D01*
G01X57627063Y-19580149D01*
G01X57627642Y-19579841D01*
G01X57628236Y-19579572D01*
G01X57628848Y-19579341D01*
G01X57629476Y-19579151D01*
G01X57630113Y-19579003D01*
G01X57630759Y-19578897D01*
G01X57631411Y-19578831D01*
G01X57632064Y-19578810D01*
G01X57692064Y-19578810D01*
G01X57692717Y-19578831D01*
G01X57693370Y-19578897D01*
G37*
G36*
G01X58193242Y-19618876D02*
G01X58193887Y-19618983D01*
G01X58194524Y-19619130D01*
G01X58195152Y-19619321D01*
G01X58195764Y-19619552D01*
G01X58196358Y-19619821D01*
G01X58196935Y-19620128D01*
G01X58197491Y-19620476D01*
G01X58198024Y-19620857D01*
G01X58198530Y-19621271D01*
G01X58199007Y-19621718D01*
G01X58199454Y-19622196D01*
G01X58199868Y-19622701D01*
G01X58200249Y-19623235D01*
G01X58200597Y-19623789D01*
G01X58200905Y-19624368D01*
G01X58201174Y-19624962D01*
G01X58201405Y-19625574D01*
G01X58201596Y-19626202D01*
G01X58201743Y-19626839D01*
G01X58201850Y-19627484D01*
G01X58201916Y-19628137D01*
G01X58201936Y-19628790D01*
G01X58201916Y-19629443D01*
G01X58201850Y-19630095D01*
G01X58201743Y-19630741D01*
G01X58201596Y-19631378D01*
G01X58201405Y-19632005D01*
G01X58201174Y-19632618D01*
G01X58200905Y-19633212D01*
G01X58200597Y-19633789D01*
G01X58200249Y-19634345D01*
G01X58199868Y-19634878D01*
G01X58199454Y-19635384D01*
G01X58199007Y-19635861D01*
G01X58198530Y-19636308D01*
G01X58198024Y-19636722D01*
G01X58197491Y-19637103D01*
G01X58196937Y-19637451D01*
G01X58196358Y-19637759D01*
G01X58195764Y-19638028D01*
G01X58195152Y-19638259D01*
G01X58194524Y-19638449D01*
G01X58193887Y-19638597D01*
G01X58193242Y-19638703D01*
G01X58192589Y-19638769D01*
G01X58191936Y-19638790D01*
G01X58131936Y-19638790D01*
G01X58131283Y-19638769D01*
G01X58130631Y-19638703D01*
G01X58129985Y-19638597D01*
G01X58129348Y-19638449D01*
G01X58128720Y-19638259D01*
G01X58128108Y-19638028D01*
G01X58127514Y-19637759D01*
G01X58126937Y-19637451D01*
G01X58126381Y-19637103D01*
G01X58125848Y-19636722D01*
G01X58125342Y-19636308D01*
G01X58124865Y-19635861D01*
G01X58124418Y-19635384D01*
G01X58124004Y-19634878D01*
G01X58123623Y-19634345D01*
G01X58123275Y-19633791D01*
G01X58122967Y-19633212D01*
G01X58122698Y-19632618D01*
G01X58122467Y-19632005D01*
G01X58122276Y-19631378D01*
G01X58122129Y-19630741D01*
G01X58122022Y-19630095D01*
G01X58121956Y-19629443D01*
G01X58121936Y-19628790D01*
G01X58121956Y-19628137D01*
G01X58122022Y-19627484D01*
G01X58122129Y-19626839D01*
G01X58122276Y-19626202D01*
G01X58122467Y-19625574D01*
G01X58122698Y-19624962D01*
G01X58122967Y-19624368D01*
G01X58123275Y-19623791D01*
G01X58123623Y-19623235D01*
G01X58124004Y-19622701D01*
G01X58124418Y-19622196D01*
G01X58124865Y-19621718D01*
G01X58125342Y-19621271D01*
G01X58125848Y-19620857D01*
G01X58126381Y-19620476D01*
G01X58126935Y-19620128D01*
G01X58127514Y-19619821D01*
G01X58128108Y-19619552D01*
G01X58128720Y-19619321D01*
G01X58129348Y-19619130D01*
G01X58129985Y-19618983D01*
G01X58130631Y-19618876D01*
G01X58131283Y-19618810D01*
G01X58131936Y-19618790D01*
G01X58191936Y-19618790D01*
G01X58192589Y-19618810D01*
G01X58193242Y-19618876D01*
G37*
G36*
G01X57631411Y-19618810D02*
G01X57632064Y-19618790D01*
G01X57692064Y-19618790D01*
G01X57692717Y-19618810D01*
G01X57693370Y-19618876D01*
G01X57694015Y-19618983D01*
G01X57694652Y-19619130D01*
G01X57695280Y-19619321D01*
G01X57695892Y-19619552D01*
G01X57696486Y-19619821D01*
G01X57697063Y-19620128D01*
G01X57697619Y-19620476D01*
G01X57698152Y-19620857D01*
G01X57698658Y-19621271D01*
G01X57699135Y-19621718D01*
G01X57699582Y-19622196D01*
G01X57699996Y-19622701D01*
G01X57700377Y-19623235D01*
G01X57700725Y-19623789D01*
G01X57701033Y-19624368D01*
G01X57701302Y-19624962D01*
G01X57701533Y-19625574D01*
G01X57701724Y-19626202D01*
G01X57701871Y-19626839D01*
G01X57701978Y-19627484D01*
G01X57702044Y-19628137D01*
G01X57702064Y-19628790D01*
G01X57702044Y-19629443D01*
G01X57701978Y-19630095D01*
G01X57701871Y-19630741D01*
G01X57701724Y-19631378D01*
G01X57701533Y-19632005D01*
G01X57701302Y-19632618D01*
G01X57701033Y-19633212D01*
G01X57700725Y-19633789D01*
G01X57700377Y-19634345D01*
G01X57699996Y-19634878D01*
G01X57699582Y-19635384D01*
G01X57699135Y-19635861D01*
G01X57698658Y-19636308D01*
G01X57698152Y-19636722D01*
G01X57697619Y-19637103D01*
G01X57697065Y-19637451D01*
G01X57696486Y-19637759D01*
G01X57695892Y-19638028D01*
G01X57695280Y-19638259D01*
G01X57694652Y-19638449D01*
G01X57694015Y-19638597D01*
G01X57693370Y-19638703D01*
G01X57692717Y-19638769D01*
G01X57692064Y-19638790D01*
G01X57632064Y-19638790D01*
G01X57631411Y-19638769D01*
G01X57630759Y-19638703D01*
G01X57630113Y-19638597D01*
G01X57629476Y-19638449D01*
G01X57628848Y-19638259D01*
G01X57628236Y-19638028D01*
G01X57627642Y-19637759D01*
G01X57627065Y-19637451D01*
G01X57626509Y-19637103D01*
G01X57625976Y-19636722D01*
G01X57625470Y-19636308D01*
G01X57624993Y-19635861D01*
G01X57624546Y-19635384D01*
G01X57624132Y-19634878D01*
G01X57623751Y-19634345D01*
G01X57623403Y-19633791D01*
G01X57623095Y-19633212D01*
G01X57622826Y-19632618D01*
G01X57622595Y-19632005D01*
G01X57622404Y-19631378D01*
G01X57622257Y-19630741D01*
G01X57622150Y-19630095D01*
G01X57622084Y-19629443D01*
G01X57622064Y-19628790D01*
G01X57622084Y-19628137D01*
G01X57622150Y-19627484D01*
G01X57622257Y-19626839D01*
G01X57622404Y-19626202D01*
G01X57622595Y-19625574D01*
G01X57622826Y-19624962D01*
G01X57623095Y-19624368D01*
G01X57623403Y-19623791D01*
G01X57623751Y-19623235D01*
G01X57624132Y-19622701D01*
G01X57624546Y-19622196D01*
G01X57624993Y-19621718D01*
G01X57625470Y-19621271D01*
G01X57625976Y-19620857D01*
G01X57626509Y-19620476D01*
G01X57627063Y-19620128D01*
G01X57627642Y-19619821D01*
G01X57628236Y-19619552D01*
G01X57628848Y-19619321D01*
G01X57629476Y-19619130D01*
G01X57630113Y-19618983D01*
G01X57630759Y-19618876D01*
G01X57631411Y-19618810D01*
G37*
G36*
G01X58193242Y-19658881D02*
G01X58193887Y-19658988D01*
G01X58194524Y-19659135D01*
G01X58195152Y-19659326D01*
G01X58195764Y-19659557D01*
G01X58196358Y-19659826D01*
G01X58196935Y-19660133D01*
G01X58197491Y-19660481D01*
G01X58198024Y-19660862D01*
G01X58198530Y-19661276D01*
G01X58199007Y-19661723D01*
G01X58199454Y-19662201D01*
G01X58199868Y-19662706D01*
G01X58200249Y-19663240D01*
G01X58200597Y-19663794D01*
G01X58200905Y-19664373D01*
G01X58201174Y-19664967D01*
G01X58201405Y-19665579D01*
G01X58201596Y-19666207D01*
G01X58201743Y-19666844D01*
G01X58201850Y-19667489D01*
G01X58201916Y-19668142D01*
G01X58201936Y-19668795D01*
G01X58201916Y-19669448D01*
G01X58201850Y-19670100D01*
G01X58201743Y-19670746D01*
G01X58201596Y-19671383D01*
G01X58201405Y-19672010D01*
G01X58201174Y-19672623D01*
G01X58200905Y-19673217D01*
G01X58200597Y-19673794D01*
G01X58200249Y-19674350D01*
G01X58199868Y-19674883D01*
G01X58199454Y-19675389D01*
G01X58199007Y-19675866D01*
G01X58198530Y-19676313D01*
G01X58198024Y-19676727D01*
G01X58197491Y-19677108D01*
G01X58196937Y-19677456D01*
G01X58196358Y-19677764D01*
G01X58195764Y-19678033D01*
G01X58195152Y-19678264D01*
G01X58194524Y-19678454D01*
G01X58193887Y-19678602D01*
G01X58193242Y-19678708D01*
G01X58192589Y-19678774D01*
G01X58191936Y-19678795D01*
G01X58131936Y-19678795D01*
G01X58131283Y-19678774D01*
G01X58130631Y-19678708D01*
G01X58129985Y-19678602D01*
G01X58129348Y-19678454D01*
G01X58128720Y-19678264D01*
G01X58128108Y-19678033D01*
G01X58127514Y-19677764D01*
G01X58126937Y-19677456D01*
G01X58126381Y-19677108D01*
G01X58125848Y-19676727D01*
G01X58125342Y-19676313D01*
G01X58124865Y-19675866D01*
G01X58124418Y-19675389D01*
G01X58124004Y-19674883D01*
G01X58123623Y-19674350D01*
G01X58123275Y-19673796D01*
G01X58122967Y-19673217D01*
G01X58122698Y-19672623D01*
G01X58122467Y-19672010D01*
G01X58122276Y-19671383D01*
G01X58122129Y-19670746D01*
G01X58122022Y-19670100D01*
G01X58121956Y-19669448D01*
G01X58121936Y-19668795D01*
G01X58121956Y-19668142D01*
G01X58122022Y-19667489D01*
G01X58122129Y-19666844D01*
G01X58122276Y-19666207D01*
G01X58122467Y-19665579D01*
G01X58122698Y-19664967D01*
G01X58122967Y-19664373D01*
G01X58123275Y-19663796D01*
G01X58123623Y-19663240D01*
G01X58124004Y-19662706D01*
G01X58124418Y-19662201D01*
G01X58124865Y-19661723D01*
G01X58125342Y-19661276D01*
G01X58125848Y-19660862D01*
G01X58126381Y-19660481D01*
G01X58126935Y-19660133D01*
G01X58127514Y-19659826D01*
G01X58128108Y-19659557D01*
G01X58128720Y-19659326D01*
G01X58129348Y-19659135D01*
G01X58129985Y-19658988D01*
G01X58130631Y-19658881D01*
G01X58131283Y-19658815D01*
G01X58131936Y-19658795D01*
G01X58191936Y-19658795D01*
G01X58192589Y-19658815D01*
G01X58193242Y-19658881D01*
G37*
G36*
G01X57693370Y-19658881D02*
G01X57694015Y-19658988D01*
G01X57694652Y-19659135D01*
G01X57695280Y-19659326D01*
G01X57695892Y-19659557D01*
G01X57696486Y-19659826D01*
G01X57697063Y-19660133D01*
G01X57697619Y-19660481D01*
G01X57698152Y-19660862D01*
G01X57698658Y-19661276D01*
G01X57699135Y-19661723D01*
G01X57699582Y-19662201D01*
G01X57699996Y-19662706D01*
G01X57700377Y-19663240D01*
G01X57700725Y-19663794D01*
G01X57701033Y-19664373D01*
G01X57701302Y-19664967D01*
G01X57701533Y-19665579D01*
G01X57701724Y-19666207D01*
G01X57701871Y-19666844D01*
G01X57701978Y-19667489D01*
G01X57702044Y-19668142D01*
G01X57702064Y-19668795D01*
G01X57702044Y-19669448D01*
G01X57701978Y-19670100D01*
G01X57701871Y-19670746D01*
G01X57701724Y-19671383D01*
G01X57701533Y-19672010D01*
G01X57701302Y-19672623D01*
G01X57701033Y-19673217D01*
G01X57700725Y-19673794D01*
G01X57700377Y-19674350D01*
G01X57699996Y-19674883D01*
G01X57699582Y-19675389D01*
G01X57699135Y-19675866D01*
G01X57698658Y-19676313D01*
G01X57698152Y-19676727D01*
G01X57697619Y-19677108D01*
G01X57697065Y-19677456D01*
G01X57696486Y-19677764D01*
G01X57695892Y-19678033D01*
G01X57695280Y-19678264D01*
G01X57694652Y-19678454D01*
G01X57694015Y-19678602D01*
G01X57693370Y-19678708D01*
G01X57692717Y-19678774D01*
G01X57692064Y-19678795D01*
G01X57632064Y-19678795D01*
G01X57631411Y-19678774D01*
G01X57630759Y-19678708D01*
G01X57630113Y-19678602D01*
G01X57629476Y-19678454D01*
G01X57628848Y-19678264D01*
G01X57628236Y-19678033D01*
G01X57627642Y-19677764D01*
G01X57627065Y-19677456D01*
G01X57626509Y-19677108D01*
G01X57625976Y-19676727D01*
G01X57625470Y-19676313D01*
G01X57624993Y-19675866D01*
G01X57624546Y-19675389D01*
G01X57624132Y-19674883D01*
G01X57623751Y-19674350D01*
G01X57623403Y-19673796D01*
G01X57623095Y-19673217D01*
G01X57622826Y-19672623D01*
G01X57622595Y-19672010D01*
G01X57622404Y-19671383D01*
G01X57622257Y-19670746D01*
G01X57622150Y-19670100D01*
G01X57622084Y-19669448D01*
G01X57622064Y-19668795D01*
G01X57622084Y-19668142D01*
G01X57622150Y-19667489D01*
G01X57622257Y-19666844D01*
G01X57622404Y-19666207D01*
G01X57622595Y-19665579D01*
G01X57622826Y-19664967D01*
G01X57623095Y-19664373D01*
G01X57623403Y-19663796D01*
G01X57623751Y-19663240D01*
G01X57624132Y-19662706D01*
G01X57624546Y-19662201D01*
G01X57624993Y-19661723D01*
G01X57625470Y-19661276D01*
G01X57625976Y-19660862D01*
G01X57626509Y-19660481D01*
G01X57627063Y-19660133D01*
G01X57627642Y-19659826D01*
G01X57628236Y-19659557D01*
G01X57628848Y-19659326D01*
G01X57629476Y-19659135D01*
G01X57630113Y-19658988D01*
G01X57630759Y-19658881D01*
G01X57631411Y-19658815D01*
G01X57632064Y-19658795D01*
G01X57692064Y-19658795D01*
G01X57692717Y-19658815D01*
G01X57693370Y-19658881D01*
G37*
G36*
G01X58131283Y-19698820D02*
G01X58131936Y-19698800D01*
G01X58191936Y-19698800D01*
G01X58192589Y-19698820D01*
G01X58193242Y-19698886D01*
G01X58193887Y-19698993D01*
G01X58194524Y-19699140D01*
G01X58195152Y-19699331D01*
G01X58195764Y-19699562D01*
G01X58196358Y-19699831D01*
G01X58196935Y-19700138D01*
G01X58197491Y-19700486D01*
G01X58198024Y-19700867D01*
G01X58198530Y-19701281D01*
G01X58199007Y-19701728D01*
G01X58199454Y-19702206D01*
G01X58199868Y-19702711D01*
G01X58200249Y-19703245D01*
G01X58200597Y-19703799D01*
G01X58200905Y-19704378D01*
G01X58201174Y-19704972D01*
G01X58201405Y-19705584D01*
G01X58201596Y-19706212D01*
G01X58201743Y-19706849D01*
G01X58201850Y-19707494D01*
G01X58201916Y-19708147D01*
G01X58201936Y-19708800D01*
G01X58201916Y-19709453D01*
G01X58201850Y-19710105D01*
G01X58201743Y-19710751D01*
G01X58201596Y-19711388D01*
G01X58201405Y-19712015D01*
G01X58201174Y-19712628D01*
G01X58200905Y-19713222D01*
G01X58200597Y-19713799D01*
G01X58200249Y-19714355D01*
G01X58199868Y-19714888D01*
G01X58199454Y-19715394D01*
G01X58199007Y-19715871D01*
G01X58198530Y-19716318D01*
G01X58198024Y-19716732D01*
G01X58197491Y-19717113D01*
G01X58196937Y-19717461D01*
G01X58196358Y-19717769D01*
G01X58195764Y-19718038D01*
G01X58195152Y-19718269D01*
G01X58194524Y-19718459D01*
G01X58193887Y-19718607D01*
G01X58193242Y-19718713D01*
G01X58192589Y-19718779D01*
G01X58191936Y-19718800D01*
G01X58131936Y-19718800D01*
G01X58131283Y-19718779D01*
G01X58130631Y-19718713D01*
G01X58129985Y-19718607D01*
G01X58129348Y-19718459D01*
G01X58128720Y-19718269D01*
G01X58128108Y-19718038D01*
G01X58127514Y-19717769D01*
G01X58126937Y-19717461D01*
G01X58126381Y-19717113D01*
G01X58125848Y-19716732D01*
G01X58125342Y-19716318D01*
G01X58124865Y-19715871D01*
G01X58124418Y-19715394D01*
G01X58124004Y-19714888D01*
G01X58123623Y-19714355D01*
G01X58123275Y-19713801D01*
G01X58122967Y-19713222D01*
G01X58122698Y-19712628D01*
G01X58122467Y-19712015D01*
G01X58122276Y-19711388D01*
G01X58122129Y-19710751D01*
G01X58122022Y-19710105D01*
G01X58121956Y-19709453D01*
G01X58121936Y-19708800D01*
G01X58121956Y-19708147D01*
G01X58122022Y-19707494D01*
G01X58122129Y-19706849D01*
G01X58122276Y-19706212D01*
G01X58122467Y-19705584D01*
G01X58122698Y-19704972D01*
G01X58122967Y-19704378D01*
G01X58123275Y-19703801D01*
G01X58123623Y-19703245D01*
G01X58124004Y-19702711D01*
G01X58124418Y-19702206D01*
G01X58124865Y-19701728D01*
G01X58125342Y-19701281D01*
G01X58125848Y-19700867D01*
G01X58126381Y-19700486D01*
G01X58126935Y-19700138D01*
G01X58127514Y-19699831D01*
G01X58128108Y-19699562D01*
G01X58128720Y-19699331D01*
G01X58129348Y-19699140D01*
G01X58129985Y-19698993D01*
G01X58130631Y-19698886D01*
G01X58131283Y-19698820D01*
G37*
G36*
G01X57631411Y-19698820D02*
G01X57632064Y-19698800D01*
G01X57692064Y-19698800D01*
G01X57692717Y-19698820D01*
G01X57693370Y-19698886D01*
G01X57694015Y-19698993D01*
G01X57694652Y-19699140D01*
G01X57695280Y-19699331D01*
G01X57695892Y-19699562D01*
G01X57696486Y-19699831D01*
G01X57697063Y-19700138D01*
G01X57697619Y-19700486D01*
G01X57698152Y-19700867D01*
G01X57698658Y-19701281D01*
G01X57699135Y-19701728D01*
G01X57699582Y-19702206D01*
G01X57699996Y-19702711D01*
G01X57700377Y-19703245D01*
G01X57700725Y-19703799D01*
G01X57701033Y-19704378D01*
G01X57701302Y-19704972D01*
G01X57701533Y-19705584D01*
G01X57701724Y-19706212D01*
G01X57701871Y-19706849D01*
G01X57701978Y-19707494D01*
G01X57702044Y-19708147D01*
G01X57702064Y-19708800D01*
G01X57702044Y-19709453D01*
G01X57701978Y-19710105D01*
G01X57701871Y-19710751D01*
G01X57701724Y-19711388D01*
G01X57701533Y-19712015D01*
G01X57701302Y-19712628D01*
G01X57701033Y-19713222D01*
G01X57700725Y-19713799D01*
G01X57700377Y-19714355D01*
G01X57699996Y-19714888D01*
G01X57699582Y-19715394D01*
G01X57699135Y-19715871D01*
G01X57698658Y-19716318D01*
G01X57698152Y-19716732D01*
G01X57697619Y-19717113D01*
G01X57697065Y-19717461D01*
G01X57696486Y-19717769D01*
G01X57695892Y-19718038D01*
G01X57695280Y-19718269D01*
G01X57694652Y-19718459D01*
G01X57694015Y-19718607D01*
G01X57693370Y-19718713D01*
G01X57692717Y-19718779D01*
G01X57692064Y-19718800D01*
G01X57632064Y-19718800D01*
G01X57631411Y-19718779D01*
G01X57630759Y-19718713D01*
G01X57630113Y-19718607D01*
G01X57629476Y-19718459D01*
G01X57628848Y-19718269D01*
G01X57628236Y-19718038D01*
G01X57627642Y-19717769D01*
G01X57627065Y-19717461D01*
G01X57626509Y-19717113D01*
G01X57625976Y-19716732D01*
G01X57625470Y-19716318D01*
G01X57624993Y-19715871D01*
G01X57624546Y-19715394D01*
G01X57624132Y-19714888D01*
G01X57623751Y-19714355D01*
G01X57623403Y-19713801D01*
G01X57623095Y-19713222D01*
G01X57622826Y-19712628D01*
G01X57622595Y-19712015D01*
G01X57622404Y-19711388D01*
G01X57622257Y-19710751D01*
G01X57622150Y-19710105D01*
G01X57622084Y-19709453D01*
G01X57622064Y-19708800D01*
G01X57622084Y-19708147D01*
G01X57622150Y-19707494D01*
G01X57622257Y-19706849D01*
G01X57622404Y-19706212D01*
G01X57622595Y-19705584D01*
G01X57622826Y-19704972D01*
G01X57623095Y-19704378D01*
G01X57623403Y-19703801D01*
G01X57623751Y-19703245D01*
G01X57624132Y-19702711D01*
G01X57624546Y-19702206D01*
G01X57624993Y-19701728D01*
G01X57625470Y-19701281D01*
G01X57625976Y-19700867D01*
G01X57626509Y-19700486D01*
G01X57627063Y-19700138D01*
G01X57627642Y-19699831D01*
G01X57628236Y-19699562D01*
G01X57628848Y-19699331D01*
G01X57629476Y-19699140D01*
G01X57630113Y-19698993D01*
G01X57630759Y-19698886D01*
G01X57631411Y-19698820D01*
G37*
G36*
G01X58193242Y-19738891D02*
G01X58193887Y-19738998D01*
G01X58194524Y-19739145D01*
G01X58195152Y-19739336D01*
G01X58195764Y-19739567D01*
G01X58196358Y-19739836D01*
G01X58196935Y-19740143D01*
G01X58197491Y-19740491D01*
G01X58198024Y-19740872D01*
G01X58198530Y-19741286D01*
G01X58199007Y-19741733D01*
G01X58199454Y-19742211D01*
G01X58199868Y-19742716D01*
G01X58200249Y-19743250D01*
G01X58200597Y-19743804D01*
G01X58200905Y-19744383D01*
G01X58201174Y-19744977D01*
G01X58201405Y-19745589D01*
G01X58201596Y-19746217D01*
G01X58201743Y-19746854D01*
G01X58201850Y-19747499D01*
G01X58201916Y-19748152D01*
G01X58201936Y-19748805D01*
G01X58201916Y-19749458D01*
G01X58201850Y-19750110D01*
G01X58201743Y-19750756D01*
G01X58201596Y-19751393D01*
G01X58201405Y-19752020D01*
G01X58201174Y-19752633D01*
G01X58200905Y-19753227D01*
G01X58200597Y-19753804D01*
G01X58200249Y-19754360D01*
G01X58199868Y-19754893D01*
G01X58199454Y-19755399D01*
G01X58199007Y-19755876D01*
G01X58198530Y-19756323D01*
G01X58198024Y-19756737D01*
G01X58197491Y-19757118D01*
G01X58196937Y-19757466D01*
G01X58196358Y-19757774D01*
G01X58195764Y-19758043D01*
G01X58195152Y-19758274D01*
G01X58194524Y-19758464D01*
G01X58193887Y-19758612D01*
G01X58193242Y-19758718D01*
G01X58192589Y-19758784D01*
G01X58191936Y-19758805D01*
G01X58131936Y-19758805D01*
G01X58131283Y-19758784D01*
G01X58130631Y-19758718D01*
G01X58129985Y-19758612D01*
G01X58129348Y-19758464D01*
G01X58128720Y-19758274D01*
G01X58128108Y-19758043D01*
G01X58127514Y-19757774D01*
G01X58126937Y-19757466D01*
G01X58126381Y-19757118D01*
G01X58125848Y-19756737D01*
G01X58125342Y-19756323D01*
G01X58124865Y-19755876D01*
G01X58124418Y-19755399D01*
G01X58124004Y-19754893D01*
G01X58123623Y-19754360D01*
G01X58123275Y-19753806D01*
G01X58122967Y-19753227D01*
G01X58122698Y-19752633D01*
G01X58122467Y-19752020D01*
G01X58122276Y-19751393D01*
G01X58122129Y-19750756D01*
G01X58122022Y-19750110D01*
G01X58121956Y-19749458D01*
G01X58121936Y-19748805D01*
G01X58121956Y-19748152D01*
G01X58122022Y-19747499D01*
G01X58122129Y-19746854D01*
G01X58122276Y-19746217D01*
G01X58122467Y-19745589D01*
G01X58122698Y-19744977D01*
G01X58122967Y-19744383D01*
G01X58123275Y-19743806D01*
G01X58123623Y-19743250D01*
G01X58124004Y-19742716D01*
G01X58124418Y-19742211D01*
G01X58124865Y-19741733D01*
G01X58125342Y-19741286D01*
G01X58125848Y-19740872D01*
G01X58126381Y-19740491D01*
G01X58126935Y-19740143D01*
G01X58127514Y-19739836D01*
G01X58128108Y-19739567D01*
G01X58128720Y-19739336D01*
G01X58129348Y-19739145D01*
G01X58129985Y-19738998D01*
G01X58130631Y-19738891D01*
G01X58131283Y-19738825D01*
G01X58131936Y-19738805D01*
G01X58191936Y-19738805D01*
G01X58192589Y-19738825D01*
G01X58193242Y-19738891D01*
G37*
G36*
G01X57693370Y-19738891D02*
G01X57694015Y-19738998D01*
G01X57694652Y-19739145D01*
G01X57695280Y-19739336D01*
G01X57695892Y-19739567D01*
G01X57696486Y-19739836D01*
G01X57697063Y-19740143D01*
G01X57697619Y-19740491D01*
G01X57698152Y-19740872D01*
G01X57698658Y-19741286D01*
G01X57699135Y-19741733D01*
G01X57699582Y-19742211D01*
G01X57699996Y-19742716D01*
G01X57700377Y-19743250D01*
G01X57700725Y-19743804D01*
G01X57701033Y-19744383D01*
G01X57701302Y-19744977D01*
G01X57701533Y-19745589D01*
G01X57701724Y-19746217D01*
G01X57701871Y-19746854D01*
G01X57701978Y-19747499D01*
G01X57702044Y-19748152D01*
G01X57702064Y-19748805D01*
G01X57702044Y-19749458D01*
G01X57701978Y-19750110D01*
G01X57701871Y-19750756D01*
G01X57701724Y-19751393D01*
G01X57701533Y-19752020D01*
G01X57701302Y-19752633D01*
G01X57701033Y-19753227D01*
G01X57700725Y-19753804D01*
G01X57700377Y-19754360D01*
G01X57699996Y-19754893D01*
G01X57699582Y-19755399D01*
G01X57699135Y-19755876D01*
G01X57698658Y-19756323D01*
G01X57698152Y-19756737D01*
G01X57697619Y-19757118D01*
G01X57697065Y-19757466D01*
G01X57696486Y-19757774D01*
G01X57695892Y-19758043D01*
G01X57695280Y-19758274D01*
G01X57694652Y-19758464D01*
G01X57694015Y-19758612D01*
G01X57693370Y-19758718D01*
G01X57692717Y-19758784D01*
G01X57692064Y-19758805D01*
G01X57632064Y-19758805D01*
G01X57631411Y-19758784D01*
G01X57630759Y-19758718D01*
G01X57630113Y-19758612D01*
G01X57629476Y-19758464D01*
G01X57628848Y-19758274D01*
G01X57628236Y-19758043D01*
G01X57627642Y-19757774D01*
G01X57627065Y-19757466D01*
G01X57626509Y-19757118D01*
G01X57625976Y-19756737D01*
G01X57625470Y-19756323D01*
G01X57624993Y-19755876D01*
G01X57624546Y-19755399D01*
G01X57624132Y-19754893D01*
G01X57623751Y-19754360D01*
G01X57623403Y-19753806D01*
G01X57623095Y-19753227D01*
G01X57622826Y-19752633D01*
G01X57622595Y-19752020D01*
G01X57622404Y-19751393D01*
G01X57622257Y-19750756D01*
G01X57622150Y-19750110D01*
G01X57622084Y-19749458D01*
G01X57622064Y-19748805D01*
G01X57622084Y-19748152D01*
G01X57622150Y-19747499D01*
G01X57622257Y-19746854D01*
G01X57622404Y-19746217D01*
G01X57622595Y-19745589D01*
G01X57622826Y-19744977D01*
G01X57623095Y-19744383D01*
G01X57623403Y-19743806D01*
G01X57623751Y-19743250D01*
G01X57624132Y-19742716D01*
G01X57624546Y-19742211D01*
G01X57624993Y-19741733D01*
G01X57625470Y-19741286D01*
G01X57625976Y-19740872D01*
G01X57626509Y-19740491D01*
G01X57627063Y-19740143D01*
G01X57627642Y-19739836D01*
G01X57628236Y-19739567D01*
G01X57628848Y-19739336D01*
G01X57629476Y-19739145D01*
G01X57630113Y-19738998D01*
G01X57630759Y-19738891D01*
G01X57631411Y-19738825D01*
G01X57632064Y-19738805D01*
G01X57692064Y-19738805D01*
G01X57692717Y-19738825D01*
G01X57693370Y-19738891D01*
G37*
G36*
G01X58131283Y-19778830D02*
G01X58131936Y-19778810D01*
G01X58191936Y-19778810D01*
G01X58192589Y-19778830D01*
G01X58193242Y-19778896D01*
G01X58193887Y-19779003D01*
G01X58194524Y-19779150D01*
G01X58195152Y-19779341D01*
G01X58195764Y-19779572D01*
G01X58196358Y-19779841D01*
G01X58196935Y-19780148D01*
G01X58197491Y-19780496D01*
G01X58198024Y-19780877D01*
G01X58198530Y-19781291D01*
G01X58199007Y-19781738D01*
G01X58199454Y-19782216D01*
G01X58199868Y-19782721D01*
G01X58200249Y-19783255D01*
G01X58200597Y-19783809D01*
G01X58200905Y-19784388D01*
G01X58201174Y-19784982D01*
G01X58201405Y-19785594D01*
G01X58201596Y-19786222D01*
G01X58201743Y-19786859D01*
G01X58201850Y-19787504D01*
G01X58201916Y-19788157D01*
G01X58201936Y-19788810D01*
G01X58201916Y-19789463D01*
G01X58201850Y-19790115D01*
G01X58201743Y-19790761D01*
G01X58201596Y-19791398D01*
G01X58201405Y-19792025D01*
G01X58201174Y-19792638D01*
G01X58200905Y-19793232D01*
G01X58200597Y-19793809D01*
G01X58200249Y-19794365D01*
G01X58199868Y-19794898D01*
G01X58199454Y-19795404D01*
G01X58199007Y-19795881D01*
G01X58198530Y-19796328D01*
G01X58198024Y-19796742D01*
G01X58197491Y-19797123D01*
G01X58196937Y-19797471D01*
G01X58196358Y-19797779D01*
G01X58195764Y-19798048D01*
G01X58195152Y-19798279D01*
G01X58194524Y-19798469D01*
G01X58193887Y-19798617D01*
G01X58193242Y-19798723D01*
G01X58192589Y-19798789D01*
G01X58191936Y-19798810D01*
G01X58131936Y-19798810D01*
G01X58131283Y-19798789D01*
G01X58130631Y-19798723D01*
G01X58129985Y-19798617D01*
G01X58129348Y-19798469D01*
G01X58128720Y-19798279D01*
G01X58128108Y-19798048D01*
G01X58127514Y-19797779D01*
G01X58126937Y-19797471D01*
G01X58126381Y-19797123D01*
G01X58125848Y-19796742D01*
G01X58125342Y-19796328D01*
G01X58124865Y-19795881D01*
G01X58124418Y-19795404D01*
G01X58124004Y-19794898D01*
G01X58123623Y-19794365D01*
G01X58123275Y-19793811D01*
G01X58122967Y-19793232D01*
G01X58122698Y-19792638D01*
G01X58122467Y-19792025D01*
G01X58122276Y-19791398D01*
G01X58122129Y-19790761D01*
G01X58122022Y-19790115D01*
G01X58121956Y-19789463D01*
G01X58121936Y-19788810D01*
G01X58121956Y-19788157D01*
G01X58122022Y-19787504D01*
G01X58122129Y-19786859D01*
G01X58122276Y-19786222D01*
G01X58122467Y-19785594D01*
G01X58122698Y-19784982D01*
G01X58122967Y-19784388D01*
G01X58123275Y-19783811D01*
G01X58123623Y-19783255D01*
G01X58124004Y-19782721D01*
G01X58124418Y-19782216D01*
G01X58124865Y-19781738D01*
G01X58125342Y-19781291D01*
G01X58125848Y-19780877D01*
G01X58126381Y-19780496D01*
G01X58126935Y-19780148D01*
G01X58127514Y-19779841D01*
G01X58128108Y-19779572D01*
G01X58128720Y-19779341D01*
G01X58129348Y-19779150D01*
G01X58129985Y-19779003D01*
G01X58130631Y-19778896D01*
G01X58131283Y-19778830D01*
G37*
G36*
G01X57693370Y-19778896D02*
G01X57694015Y-19779003D01*
G01X57694652Y-19779150D01*
G01X57695280Y-19779341D01*
G01X57695892Y-19779572D01*
G01X57696486Y-19779841D01*
G01X57697063Y-19780148D01*
G01X57697619Y-19780496D01*
G01X57698152Y-19780877D01*
G01X57698658Y-19781291D01*
G01X57699135Y-19781738D01*
G01X57699582Y-19782216D01*
G01X57699996Y-19782721D01*
G01X57700377Y-19783255D01*
G01X57700725Y-19783809D01*
G01X57701033Y-19784388D01*
G01X57701302Y-19784982D01*
G01X57701533Y-19785594D01*
G01X57701724Y-19786222D01*
G01X57701871Y-19786859D01*
G01X57701978Y-19787504D01*
G01X57702044Y-19788157D01*
G01X57702064Y-19788810D01*
G01X57702044Y-19789463D01*
G01X57701978Y-19790115D01*
G01X57701871Y-19790761D01*
G01X57701724Y-19791398D01*
G01X57701533Y-19792025D01*
G01X57701302Y-19792638D01*
G01X57701033Y-19793232D01*
G01X57700725Y-19793809D01*
G01X57700377Y-19794365D01*
G01X57699996Y-19794898D01*
G01X57699582Y-19795404D01*
G01X57699135Y-19795881D01*
G01X57698658Y-19796328D01*
G01X57698152Y-19796742D01*
G01X57697619Y-19797123D01*
G01X57697065Y-19797471D01*
G01X57696486Y-19797779D01*
G01X57695892Y-19798048D01*
G01X57695280Y-19798279D01*
G01X57694652Y-19798469D01*
G01X57694015Y-19798617D01*
G01X57693370Y-19798723D01*
G01X57692717Y-19798789D01*
G01X57692064Y-19798810D01*
G01X57632064Y-19798810D01*
G01X57631411Y-19798789D01*
G01X57630759Y-19798723D01*
G01X57630113Y-19798617D01*
G01X57629476Y-19798469D01*
G01X57628848Y-19798279D01*
G01X57628236Y-19798048D01*
G01X57627642Y-19797779D01*
G01X57627065Y-19797471D01*
G01X57626509Y-19797123D01*
G01X57625976Y-19796742D01*
G01X57625470Y-19796328D01*
G01X57624993Y-19795881D01*
G01X57624546Y-19795404D01*
G01X57624132Y-19794898D01*
G01X57623751Y-19794365D01*
G01X57623403Y-19793811D01*
G01X57623095Y-19793232D01*
G01X57622826Y-19792638D01*
G01X57622595Y-19792025D01*
G01X57622404Y-19791398D01*
G01X57622257Y-19790761D01*
G01X57622150Y-19790115D01*
G01X57622084Y-19789463D01*
G01X57622064Y-19788810D01*
G01X57622084Y-19788157D01*
G01X57622150Y-19787504D01*
G01X57622257Y-19786859D01*
G01X57622404Y-19786222D01*
G01X57622595Y-19785594D01*
G01X57622826Y-19784982D01*
G01X57623095Y-19784388D01*
G01X57623403Y-19783811D01*
G01X57623751Y-19783255D01*
G01X57624132Y-19782721D01*
G01X57624546Y-19782216D01*
G01X57624993Y-19781738D01*
G01X57625470Y-19781291D01*
G01X57625976Y-19780877D01*
G01X57626509Y-19780496D01*
G01X57627063Y-19780148D01*
G01X57627642Y-19779841D01*
G01X57628236Y-19779572D01*
G01X57628848Y-19779341D01*
G01X57629476Y-19779150D01*
G01X57630113Y-19779003D01*
G01X57630759Y-19778896D01*
G01X57631411Y-19778830D01*
G01X57632064Y-19778810D01*
G01X57692064Y-19778810D01*
G01X57692717Y-19778830D01*
G01X57693370Y-19778896D01*
G37*
G36*
G01X57733296Y-19818822D02*
G01X57733941Y-19818929D01*
G01X57734578Y-19819076D01*
G01X57735206Y-19819267D01*
G01X57735818Y-19819498D01*
G01X57736412Y-19819767D01*
G01X57736989Y-19820075D01*
G01X57737545Y-19820423D01*
G01X57738079Y-19820804D01*
G01X57738584Y-19821218D01*
G01X57739062Y-19821665D01*
G01X57739509Y-19822142D01*
G01X57739923Y-19822648D01*
G01X57740304Y-19823181D01*
G01X57740652Y-19823735D01*
G01X57740959Y-19824314D01*
G01X57741228Y-19824908D01*
G01X57741459Y-19825520D01*
G01X57741650Y-19826148D01*
G01X57741797Y-19826785D01*
G01X57741904Y-19827430D01*
G01X57741970Y-19828083D01*
G01X57741990Y-19828736D01*
G01X57741990Y-19888736D01*
G01X57741970Y-19889389D01*
G01X57741904Y-19890041D01*
G01X57741797Y-19890687D01*
G01X57741650Y-19891324D01*
G01X57741459Y-19891952D01*
G01X57741228Y-19892564D01*
G01X57740959Y-19893158D01*
G01X57740652Y-19893735D01*
G01X57740304Y-19894291D01*
G01X57739923Y-19894824D01*
G01X57739509Y-19895330D01*
G01X57739062Y-19895807D01*
G01X57738584Y-19896254D01*
G01X57738079Y-19896668D01*
G01X57737545Y-19897049D01*
G01X57736989Y-19897397D01*
G01X57736412Y-19897705D01*
G01X57735818Y-19897974D01*
G01X57735206Y-19898205D01*
G01X57734578Y-19898396D01*
G01X57733941Y-19898543D01*
G01X57733296Y-19898650D01*
G01X57732643Y-19898716D01*
G01X57731990Y-19898736D01*
G01X57731337Y-19898716D01*
G01X57730685Y-19898650D01*
G01X57730039Y-19898543D01*
G01X57729402Y-19898396D01*
G01X57728775Y-19898205D01*
G01X57728162Y-19897974D01*
G01X57727568Y-19897705D01*
G01X57726991Y-19897397D01*
G01X57726435Y-19897049D01*
G01X57725902Y-19896668D01*
G01X57725396Y-19896254D01*
G01X57724919Y-19895807D01*
G01X57724472Y-19895330D01*
G01X57724058Y-19894824D01*
G01X57723677Y-19894291D01*
G01X57723329Y-19893737D01*
G01X57723021Y-19893158D01*
G01X57722752Y-19892564D01*
G01X57722521Y-19891952D01*
G01X57722331Y-19891324D01*
G01X57722183Y-19890687D01*
G01X57722077Y-19890041D01*
G01X57722011Y-19889389D01*
G01X57721990Y-19888736D01*
G01X57721990Y-19828736D01*
G01X57722011Y-19828083D01*
G01X57722077Y-19827430D01*
G01X57722183Y-19826785D01*
G01X57722331Y-19826148D01*
G01X57722521Y-19825520D01*
G01X57722752Y-19824908D01*
G01X57723021Y-19824314D01*
G01X57723329Y-19823737D01*
G01X57723677Y-19823181D01*
G01X57724058Y-19822648D01*
G01X57724472Y-19822142D01*
G01X57724919Y-19821665D01*
G01X57725396Y-19821218D01*
G01X57725902Y-19820804D01*
G01X57726435Y-19820423D01*
G01X57726989Y-19820075D01*
G01X57727568Y-19819767D01*
G01X57728162Y-19819498D01*
G01X57728775Y-19819267D01*
G01X57729402Y-19819076D01*
G01X57730039Y-19818929D01*
G01X57730685Y-19818822D01*
G01X57731337Y-19818756D01*
G01X57731990Y-19818736D01*
G01X57732643Y-19818756D01*
G01X57733296Y-19818822D01*
G37*
G36*
G01X57933295Y-19818822D02*
G01X57933941Y-19818929D01*
G01X57934578Y-19819076D01*
G01X57935205Y-19819267D01*
G01X57935818Y-19819498D01*
G01X57936412Y-19819767D01*
G01X57936989Y-19820075D01*
G01X57937545Y-19820423D01*
G01X57938078Y-19820804D01*
G01X57938584Y-19821218D01*
G01X57939061Y-19821665D01*
G01X57939508Y-19822142D01*
G01X57939922Y-19822648D01*
G01X57940303Y-19823181D01*
G01X57940651Y-19823735D01*
G01X57940959Y-19824314D01*
G01X57941228Y-19824908D01*
G01X57941459Y-19825520D01*
G01X57941649Y-19826148D01*
G01X57941797Y-19826785D01*
G01X57941903Y-19827430D01*
G01X57941969Y-19828083D01*
G01X57941990Y-19828736D01*
G01X57941990Y-19888736D01*
G01X57941969Y-19889389D01*
G01X57941903Y-19890041D01*
G01X57941797Y-19890687D01*
G01X57941649Y-19891324D01*
G01X57941459Y-19891952D01*
G01X57941228Y-19892564D01*
G01X57940959Y-19893158D01*
G01X57940651Y-19893735D01*
G01X57940303Y-19894291D01*
G01X57939922Y-19894824D01*
G01X57939508Y-19895330D01*
G01X57939061Y-19895807D01*
G01X57938584Y-19896254D01*
G01X57938078Y-19896668D01*
G01X57937545Y-19897049D01*
G01X57936989Y-19897397D01*
G01X57936412Y-19897705D01*
G01X57935818Y-19897974D01*
G01X57935205Y-19898205D01*
G01X57934578Y-19898396D01*
G01X57933941Y-19898543D01*
G01X57933295Y-19898650D01*
G01X57932643Y-19898716D01*
G01X57931990Y-19898736D01*
G01X57931337Y-19898716D01*
G01X57930684Y-19898650D01*
G01X57930039Y-19898543D01*
G01X57929402Y-19898396D01*
G01X57928774Y-19898205D01*
G01X57928162Y-19897974D01*
G01X57927568Y-19897705D01*
G01X57926991Y-19897397D01*
G01X57926435Y-19897049D01*
G01X57925901Y-19896668D01*
G01X57925396Y-19896254D01*
G01X57924918Y-19895807D01*
G01X57924471Y-19895330D01*
G01X57924057Y-19894824D01*
G01X57923676Y-19894291D01*
G01X57923328Y-19893737D01*
G01X57923021Y-19893158D01*
G01X57922752Y-19892564D01*
G01X57922521Y-19891952D01*
G01X57922330Y-19891324D01*
G01X57922183Y-19890687D01*
G01X57922076Y-19890041D01*
G01X57922010Y-19889389D01*
G01X57921990Y-19888736D01*
G01X57921990Y-19828736D01*
G01X57922010Y-19828083D01*
G01X57922076Y-19827430D01*
G01X57922183Y-19826785D01*
G01X57922330Y-19826148D01*
G01X57922521Y-19825520D01*
G01X57922752Y-19824908D01*
G01X57923021Y-19824314D01*
G01X57923328Y-19823737D01*
G01X57923676Y-19823181D01*
G01X57924057Y-19822648D01*
G01X57924471Y-19822142D01*
G01X57924918Y-19821665D01*
G01X57925396Y-19821218D01*
G01X57925901Y-19820804D01*
G01X57926435Y-19820423D01*
G01X57926989Y-19820075D01*
G01X57927568Y-19819767D01*
G01X57928162Y-19819498D01*
G01X57928774Y-19819267D01*
G01X57929402Y-19819076D01*
G01X57930039Y-19818929D01*
G01X57930684Y-19818822D01*
G01X57931337Y-19818756D01*
G01X57931990Y-19818736D01*
G01X57932643Y-19818756D01*
G01X57933295Y-19818822D01*
G37*
G36*
G01X57813306Y-19818822D02*
G01X57813951Y-19818929D01*
G01X57814588Y-19819076D01*
G01X57815216Y-19819267D01*
G01X57815828Y-19819498D01*
G01X57816422Y-19819767D01*
G01X57816999Y-19820075D01*
G01X57817555Y-19820423D01*
G01X57818089Y-19820804D01*
G01X57818594Y-19821218D01*
G01X57819072Y-19821665D01*
G01X57819519Y-19822142D01*
G01X57819933Y-19822648D01*
G01X57820314Y-19823181D01*
G01X57820662Y-19823735D01*
G01X57820969Y-19824314D01*
G01X57821238Y-19824908D01*
G01X57821469Y-19825520D01*
G01X57821660Y-19826148D01*
G01X57821807Y-19826785D01*
G01X57821914Y-19827430D01*
G01X57821980Y-19828083D01*
G01X57822000Y-19828736D01*
G01X57822000Y-19888736D01*
G01X57821980Y-19889389D01*
G01X57821914Y-19890041D01*
G01X57821807Y-19890687D01*
G01X57821660Y-19891324D01*
G01X57821469Y-19891952D01*
G01X57821238Y-19892564D01*
G01X57820969Y-19893158D01*
G01X57820662Y-19893735D01*
G01X57820314Y-19894291D01*
G01X57819933Y-19894824D01*
G01X57819519Y-19895330D01*
G01X57819072Y-19895807D01*
G01X57818594Y-19896254D01*
G01X57818089Y-19896668D01*
G01X57817555Y-19897049D01*
G01X57816999Y-19897397D01*
G01X57816422Y-19897705D01*
G01X57815828Y-19897974D01*
G01X57815216Y-19898205D01*
G01X57814588Y-19898396D01*
G01X57813951Y-19898543D01*
G01X57813306Y-19898650D01*
G01X57812653Y-19898716D01*
G01X57812000Y-19898736D01*
G01X57811347Y-19898716D01*
G01X57810695Y-19898650D01*
G01X57810049Y-19898543D01*
G01X57809412Y-19898396D01*
G01X57808785Y-19898205D01*
G01X57808172Y-19897974D01*
G01X57807578Y-19897705D01*
G01X57807001Y-19897397D01*
G01X57806445Y-19897049D01*
G01X57805912Y-19896668D01*
G01X57805406Y-19896254D01*
G01X57804929Y-19895807D01*
G01X57804482Y-19895330D01*
G01X57804068Y-19894824D01*
G01X57803687Y-19894291D01*
G01X57803339Y-19893737D01*
G01X57803031Y-19893158D01*
G01X57802762Y-19892564D01*
G01X57802531Y-19891952D01*
G01X57802341Y-19891324D01*
G01X57802193Y-19890687D01*
G01X57802087Y-19890041D01*
G01X57802021Y-19889389D01*
G01X57802000Y-19888736D01*
G01X57802000Y-19828736D01*
G01X57802021Y-19828083D01*
G01X57802087Y-19827430D01*
G01X57802193Y-19826785D01*
G01X57802341Y-19826148D01*
G01X57802531Y-19825520D01*
G01X57802762Y-19824908D01*
G01X57803031Y-19824314D01*
G01X57803339Y-19823737D01*
G01X57803687Y-19823181D01*
G01X57804068Y-19822648D01*
G01X57804482Y-19822142D01*
G01X57804929Y-19821665D01*
G01X57805406Y-19821218D01*
G01X57805912Y-19820804D01*
G01X57806445Y-19820423D01*
G01X57806999Y-19820075D01*
G01X57807578Y-19819767D01*
G01X57808172Y-19819498D01*
G01X57808785Y-19819267D01*
G01X57809412Y-19819076D01*
G01X57810049Y-19818929D01*
G01X57810695Y-19818822D01*
G01X57811347Y-19818756D01*
G01X57812000Y-19818736D01*
G01X57812653Y-19818756D01*
G01X57813306Y-19818822D01*
G37*
G36*
G01X58013305Y-19818822D02*
G01X58013951Y-19818929D01*
G01X58014588Y-19819076D01*
G01X58015215Y-19819267D01*
G01X58015828Y-19819498D01*
G01X58016422Y-19819767D01*
G01X58016999Y-19820075D01*
G01X58017555Y-19820423D01*
G01X58018088Y-19820804D01*
G01X58018594Y-19821218D01*
G01X58019071Y-19821665D01*
G01X58019518Y-19822142D01*
G01X58019932Y-19822648D01*
G01X58020313Y-19823181D01*
G01X58020661Y-19823735D01*
G01X58020969Y-19824314D01*
G01X58021238Y-19824908D01*
G01X58021469Y-19825520D01*
G01X58021659Y-19826148D01*
G01X58021807Y-19826785D01*
G01X58021913Y-19827430D01*
G01X58021979Y-19828083D01*
G01X58022000Y-19828736D01*
G01X58022000Y-19888736D01*
G01X58021979Y-19889389D01*
G01X58021913Y-19890041D01*
G01X58021807Y-19890687D01*
G01X58021659Y-19891324D01*
G01X58021469Y-19891952D01*
G01X58021238Y-19892564D01*
G01X58020969Y-19893158D01*
G01X58020661Y-19893735D01*
G01X58020313Y-19894291D01*
G01X58019932Y-19894824D01*
G01X58019518Y-19895330D01*
G01X58019071Y-19895807D01*
G01X58018594Y-19896254D01*
G01X58018088Y-19896668D01*
G01X58017555Y-19897049D01*
G01X58016999Y-19897397D01*
G01X58016422Y-19897705D01*
G01X58015828Y-19897974D01*
G01X58015215Y-19898205D01*
G01X58014588Y-19898396D01*
G01X58013951Y-19898543D01*
G01X58013305Y-19898650D01*
G01X58012653Y-19898716D01*
G01X58012000Y-19898736D01*
G01X58011347Y-19898716D01*
G01X58010694Y-19898650D01*
G01X58010049Y-19898543D01*
G01X58009412Y-19898396D01*
G01X58008784Y-19898205D01*
G01X58008172Y-19897974D01*
G01X58007578Y-19897705D01*
G01X58007001Y-19897397D01*
G01X58006445Y-19897049D01*
G01X58005911Y-19896668D01*
G01X58005406Y-19896254D01*
G01X58004928Y-19895807D01*
G01X58004481Y-19895330D01*
G01X58004067Y-19894824D01*
G01X58003686Y-19894291D01*
G01X58003338Y-19893737D01*
G01X58003031Y-19893158D01*
G01X58002762Y-19892564D01*
G01X58002531Y-19891952D01*
G01X58002340Y-19891324D01*
G01X58002193Y-19890687D01*
G01X58002086Y-19890041D01*
G01X58002020Y-19889389D01*
G01X58002000Y-19888736D01*
G01X58002000Y-19828736D01*
G01X58002020Y-19828083D01*
G01X58002086Y-19827430D01*
G01X58002193Y-19826785D01*
G01X58002340Y-19826148D01*
G01X58002531Y-19825520D01*
G01X58002762Y-19824908D01*
G01X58003031Y-19824314D01*
G01X58003338Y-19823737D01*
G01X58003686Y-19823181D01*
G01X58004067Y-19822648D01*
G01X58004481Y-19822142D01*
G01X58004928Y-19821665D01*
G01X58005406Y-19821218D01*
G01X58005911Y-19820804D01*
G01X58006445Y-19820423D01*
G01X58006999Y-19820075D01*
G01X58007578Y-19819767D01*
G01X58008172Y-19819498D01*
G01X58008784Y-19819267D01*
G01X58009412Y-19819076D01*
G01X58010049Y-19818929D01*
G01X58010694Y-19818822D01*
G01X58011347Y-19818756D01*
G01X58012000Y-19818736D01*
G01X58012653Y-19818756D01*
G01X58013305Y-19818822D01*
G37*
G36*
G01X57773301Y-19818822D02*
G01X57773946Y-19818929D01*
G01X57774583Y-19819076D01*
G01X57775211Y-19819267D01*
G01X57775823Y-19819498D01*
G01X57776417Y-19819767D01*
G01X57776994Y-19820075D01*
G01X57777550Y-19820423D01*
G01X57778084Y-19820804D01*
G01X57778589Y-19821218D01*
G01X57779067Y-19821665D01*
G01X57779514Y-19822142D01*
G01X57779928Y-19822648D01*
G01X57780309Y-19823181D01*
G01X57780657Y-19823735D01*
G01X57780964Y-19824314D01*
G01X57781233Y-19824908D01*
G01X57781464Y-19825520D01*
G01X57781655Y-19826148D01*
G01X57781802Y-19826785D01*
G01X57781909Y-19827430D01*
G01X57781975Y-19828083D01*
G01X57781995Y-19828736D01*
G01X57781995Y-19888736D01*
G01X57781975Y-19889389D01*
G01X57781909Y-19890041D01*
G01X57781802Y-19890687D01*
G01X57781655Y-19891324D01*
G01X57781464Y-19891952D01*
G01X57781233Y-19892564D01*
G01X57780964Y-19893158D01*
G01X57780657Y-19893735D01*
G01X57780309Y-19894291D01*
G01X57779928Y-19894824D01*
G01X57779514Y-19895330D01*
G01X57779067Y-19895807D01*
G01X57778589Y-19896254D01*
G01X57778084Y-19896668D01*
G01X57777550Y-19897049D01*
G01X57776994Y-19897397D01*
G01X57776417Y-19897705D01*
G01X57775823Y-19897974D01*
G01X57775211Y-19898205D01*
G01X57774583Y-19898396D01*
G01X57773946Y-19898543D01*
G01X57773301Y-19898650D01*
G01X57772648Y-19898716D01*
G01X57771995Y-19898736D01*
G01X57771342Y-19898716D01*
G01X57770690Y-19898650D01*
G01X57770044Y-19898543D01*
G01X57769407Y-19898396D01*
G01X57768780Y-19898205D01*
G01X57768167Y-19897974D01*
G01X57767573Y-19897705D01*
G01X57766996Y-19897397D01*
G01X57766440Y-19897049D01*
G01X57765907Y-19896668D01*
G01X57765401Y-19896254D01*
G01X57764924Y-19895807D01*
G01X57764477Y-19895330D01*
G01X57764063Y-19894824D01*
G01X57763682Y-19894291D01*
G01X57763334Y-19893737D01*
G01X57763026Y-19893158D01*
G01X57762757Y-19892564D01*
G01X57762526Y-19891952D01*
G01X57762336Y-19891324D01*
G01X57762188Y-19890687D01*
G01X57762082Y-19890041D01*
G01X57762016Y-19889389D01*
G01X57761995Y-19888736D01*
G01X57761995Y-19828736D01*
G01X57762016Y-19828083D01*
G01X57762082Y-19827430D01*
G01X57762188Y-19826785D01*
G01X57762336Y-19826148D01*
G01X57762526Y-19825520D01*
G01X57762757Y-19824908D01*
G01X57763026Y-19824314D01*
G01X57763334Y-19823737D01*
G01X57763682Y-19823181D01*
G01X57764063Y-19822648D01*
G01X57764477Y-19822142D01*
G01X57764924Y-19821665D01*
G01X57765401Y-19821218D01*
G01X57765907Y-19820804D01*
G01X57766440Y-19820423D01*
G01X57766994Y-19820075D01*
G01X57767573Y-19819767D01*
G01X57768167Y-19819498D01*
G01X57768780Y-19819267D01*
G01X57769407Y-19819076D01*
G01X57770044Y-19818929D01*
G01X57770690Y-19818822D01*
G01X57771342Y-19818756D01*
G01X57771995Y-19818736D01*
G01X57772648Y-19818756D01*
G01X57773301Y-19818822D01*
G37*
G36*
G01X57973300Y-19818822D02*
G01X57973946Y-19818929D01*
G01X57974583Y-19819076D01*
G01X57975210Y-19819267D01*
G01X57975823Y-19819498D01*
G01X57976417Y-19819767D01*
G01X57976994Y-19820075D01*
G01X57977550Y-19820423D01*
G01X57978083Y-19820804D01*
G01X57978589Y-19821218D01*
G01X57979066Y-19821665D01*
G01X57979513Y-19822142D01*
G01X57979927Y-19822648D01*
G01X57980308Y-19823181D01*
G01X57980656Y-19823735D01*
G01X57980964Y-19824314D01*
G01X57981233Y-19824908D01*
G01X57981464Y-19825520D01*
G01X57981654Y-19826148D01*
G01X57981802Y-19826785D01*
G01X57981908Y-19827430D01*
G01X57981974Y-19828083D01*
G01X57981995Y-19828736D01*
G01X57981995Y-19888736D01*
G01X57981974Y-19889389D01*
G01X57981908Y-19890041D01*
G01X57981802Y-19890687D01*
G01X57981654Y-19891324D01*
G01X57981464Y-19891952D01*
G01X57981233Y-19892564D01*
G01X57980964Y-19893158D01*
G01X57980656Y-19893735D01*
G01X57980308Y-19894291D01*
G01X57979927Y-19894824D01*
G01X57979513Y-19895330D01*
G01X57979066Y-19895807D01*
G01X57978589Y-19896254D01*
G01X57978083Y-19896668D01*
G01X57977550Y-19897049D01*
G01X57976994Y-19897397D01*
G01X57976417Y-19897705D01*
G01X57975823Y-19897974D01*
G01X57975210Y-19898205D01*
G01X57974583Y-19898396D01*
G01X57973946Y-19898543D01*
G01X57973300Y-19898650D01*
G01X57972648Y-19898716D01*
G01X57971995Y-19898736D01*
G01X57971342Y-19898716D01*
G01X57970689Y-19898650D01*
G01X57970044Y-19898543D01*
G01X57969407Y-19898396D01*
G01X57968779Y-19898205D01*
G01X57968167Y-19897974D01*
G01X57967573Y-19897705D01*
G01X57966996Y-19897397D01*
G01X57966440Y-19897049D01*
G01X57965906Y-19896668D01*
G01X57965401Y-19896254D01*
G01X57964923Y-19895807D01*
G01X57964476Y-19895330D01*
G01X57964062Y-19894824D01*
G01X57963681Y-19894291D01*
G01X57963333Y-19893737D01*
G01X57963026Y-19893158D01*
G01X57962757Y-19892564D01*
G01X57962526Y-19891952D01*
G01X57962335Y-19891324D01*
G01X57962188Y-19890687D01*
G01X57962081Y-19890041D01*
G01X57962015Y-19889389D01*
G01X57961995Y-19888736D01*
G01X57961995Y-19828736D01*
G01X57962015Y-19828083D01*
G01X57962081Y-19827430D01*
G01X57962188Y-19826785D01*
G01X57962335Y-19826148D01*
G01X57962526Y-19825520D01*
G01X57962757Y-19824908D01*
G01X57963026Y-19824314D01*
G01X57963333Y-19823737D01*
G01X57963681Y-19823181D01*
G01X57964062Y-19822648D01*
G01X57964476Y-19822142D01*
G01X57964923Y-19821665D01*
G01X57965401Y-19821218D01*
G01X57965906Y-19820804D01*
G01X57966440Y-19820423D01*
G01X57966994Y-19820075D01*
G01X57967573Y-19819767D01*
G01X57968167Y-19819498D01*
G01X57968779Y-19819267D01*
G01X57969407Y-19819076D01*
G01X57970044Y-19818929D01*
G01X57970689Y-19818822D01*
G01X57971342Y-19818756D01*
G01X57971995Y-19818736D01*
G01X57972648Y-19818756D01*
G01X57973300Y-19818822D01*
G37*
G36*
G01X57893316Y-19818822D02*
G01X57893961Y-19818929D01*
G01X57894598Y-19819076D01*
G01X57895226Y-19819267D01*
G01X57895838Y-19819498D01*
G01X57896432Y-19819767D01*
G01X57897009Y-19820075D01*
G01X57897565Y-19820423D01*
G01X57898099Y-19820804D01*
G01X57898604Y-19821218D01*
G01X57899082Y-19821665D01*
G01X57899529Y-19822142D01*
G01X57899943Y-19822648D01*
G01X57900324Y-19823181D01*
G01X57900672Y-19823735D01*
G01X57900979Y-19824314D01*
G01X57901248Y-19824908D01*
G01X57901479Y-19825520D01*
G01X57901670Y-19826148D01*
G01X57901817Y-19826785D01*
G01X57901924Y-19827430D01*
G01X57901990Y-19828083D01*
G01X57902010Y-19828736D01*
G01X57902010Y-19888736D01*
G01X57901990Y-19889389D01*
G01X57901924Y-19890041D01*
G01X57901817Y-19890687D01*
G01X57901670Y-19891324D01*
G01X57901479Y-19891952D01*
G01X57901248Y-19892564D01*
G01X57900979Y-19893158D01*
G01X57900672Y-19893735D01*
G01X57900324Y-19894291D01*
G01X57899943Y-19894824D01*
G01X57899529Y-19895330D01*
G01X57899082Y-19895807D01*
G01X57898604Y-19896254D01*
G01X57898099Y-19896668D01*
G01X57897565Y-19897049D01*
G01X57897009Y-19897397D01*
G01X57896432Y-19897705D01*
G01X57895838Y-19897974D01*
G01X57895226Y-19898205D01*
G01X57894598Y-19898396D01*
G01X57893961Y-19898543D01*
G01X57893316Y-19898650D01*
G01X57892663Y-19898716D01*
G01X57892010Y-19898736D01*
G01X57891357Y-19898716D01*
G01X57890705Y-19898650D01*
G01X57890059Y-19898543D01*
G01X57889422Y-19898396D01*
G01X57888795Y-19898205D01*
G01X57888182Y-19897974D01*
G01X57887588Y-19897705D01*
G01X57887011Y-19897397D01*
G01X57886455Y-19897049D01*
G01X57885922Y-19896668D01*
G01X57885416Y-19896254D01*
G01X57884939Y-19895807D01*
G01X57884492Y-19895330D01*
G01X57884078Y-19894824D01*
G01X57883697Y-19894291D01*
G01X57883349Y-19893737D01*
G01X57883041Y-19893158D01*
G01X57882772Y-19892564D01*
G01X57882541Y-19891952D01*
G01X57882351Y-19891324D01*
G01X57882203Y-19890687D01*
G01X57882097Y-19890041D01*
G01X57882031Y-19889389D01*
G01X57882010Y-19888736D01*
G01X57882010Y-19828736D01*
G01X57882031Y-19828083D01*
G01X57882097Y-19827430D01*
G01X57882203Y-19826785D01*
G01X57882351Y-19826148D01*
G01X57882541Y-19825520D01*
G01X57882772Y-19824908D01*
G01X57883041Y-19824314D01*
G01X57883349Y-19823737D01*
G01X57883697Y-19823181D01*
G01X57884078Y-19822648D01*
G01X57884492Y-19822142D01*
G01X57884939Y-19821665D01*
G01X57885416Y-19821218D01*
G01X57885922Y-19820804D01*
G01X57886455Y-19820423D01*
G01X57887009Y-19820075D01*
G01X57887588Y-19819767D01*
G01X57888182Y-19819498D01*
G01X57888795Y-19819267D01*
G01X57889422Y-19819076D01*
G01X57890059Y-19818929D01*
G01X57890705Y-19818822D01*
G01X57891357Y-19818756D01*
G01X57892010Y-19818736D01*
G01X57892663Y-19818756D01*
G01X57893316Y-19818822D01*
G37*
G36*
G01X58093315Y-19818822D02*
G01X58093961Y-19818929D01*
G01X58094598Y-19819076D01*
G01X58095225Y-19819267D01*
G01X58095838Y-19819498D01*
G01X58096432Y-19819767D01*
G01X58097009Y-19820075D01*
G01X58097565Y-19820423D01*
G01X58098098Y-19820804D01*
G01X58098604Y-19821218D01*
G01X58099081Y-19821665D01*
G01X58099528Y-19822142D01*
G01X58099942Y-19822648D01*
G01X58100323Y-19823181D01*
G01X58100671Y-19823735D01*
G01X58100979Y-19824314D01*
G01X58101248Y-19824908D01*
G01X58101479Y-19825520D01*
G01X58101669Y-19826148D01*
G01X58101817Y-19826785D01*
G01X58101923Y-19827430D01*
G01X58101989Y-19828083D01*
G01X58102010Y-19828736D01*
G01X58102010Y-19888736D01*
G01X58101989Y-19889389D01*
G01X58101923Y-19890041D01*
G01X58101817Y-19890687D01*
G01X58101669Y-19891324D01*
G01X58101479Y-19891952D01*
G01X58101248Y-19892564D01*
G01X58100979Y-19893158D01*
G01X58100671Y-19893735D01*
G01X58100323Y-19894291D01*
G01X58099942Y-19894824D01*
G01X58099528Y-19895330D01*
G01X58099081Y-19895807D01*
G01X58098604Y-19896254D01*
G01X58098098Y-19896668D01*
G01X58097565Y-19897049D01*
G01X58097009Y-19897397D01*
G01X58096432Y-19897705D01*
G01X58095838Y-19897974D01*
G01X58095225Y-19898205D01*
G01X58094598Y-19898396D01*
G01X58093961Y-19898543D01*
G01X58093315Y-19898650D01*
G01X58092663Y-19898716D01*
G01X58092010Y-19898736D01*
G01X58091357Y-19898716D01*
G01X58090704Y-19898650D01*
G01X58090059Y-19898543D01*
G01X58089422Y-19898396D01*
G01X58088794Y-19898205D01*
G01X58088182Y-19897974D01*
G01X58087588Y-19897705D01*
G01X58087011Y-19897397D01*
G01X58086455Y-19897049D01*
G01X58085921Y-19896668D01*
G01X58085416Y-19896254D01*
G01X58084938Y-19895807D01*
G01X58084491Y-19895330D01*
G01X58084077Y-19894824D01*
G01X58083696Y-19894291D01*
G01X58083348Y-19893737D01*
G01X58083041Y-19893158D01*
G01X58082772Y-19892564D01*
G01X58082541Y-19891952D01*
G01X58082350Y-19891324D01*
G01X58082203Y-19890687D01*
G01X58082096Y-19890041D01*
G01X58082030Y-19889389D01*
G01X58082010Y-19888736D01*
G01X58082010Y-19828736D01*
G01X58082030Y-19828083D01*
G01X58082096Y-19827430D01*
G01X58082203Y-19826785D01*
G01X58082350Y-19826148D01*
G01X58082541Y-19825520D01*
G01X58082772Y-19824908D01*
G01X58083041Y-19824314D01*
G01X58083348Y-19823737D01*
G01X58083696Y-19823181D01*
G01X58084077Y-19822648D01*
G01X58084491Y-19822142D01*
G01X58084938Y-19821665D01*
G01X58085416Y-19821218D01*
G01X58085921Y-19820804D01*
G01X58086455Y-19820423D01*
G01X58087009Y-19820075D01*
G01X58087588Y-19819767D01*
G01X58088182Y-19819498D01*
G01X58088794Y-19819267D01*
G01X58089422Y-19819076D01*
G01X58090059Y-19818929D01*
G01X58090704Y-19818822D01*
G01X58091357Y-19818756D01*
G01X58092010Y-19818736D01*
G01X58092663Y-19818756D01*
G01X58093315Y-19818822D01*
G37*
G36*
G01X57853311Y-19818822D02*
G01X57853956Y-19818929D01*
G01X57854593Y-19819076D01*
G01X57855221Y-19819267D01*
G01X57855833Y-19819498D01*
G01X57856427Y-19819767D01*
G01X57857004Y-19820075D01*
G01X57857560Y-19820423D01*
G01X57858094Y-19820804D01*
G01X57858599Y-19821218D01*
G01X57859077Y-19821665D01*
G01X57859524Y-19822142D01*
G01X57859938Y-19822648D01*
G01X57860319Y-19823181D01*
G01X57860667Y-19823735D01*
G01X57860974Y-19824314D01*
G01X57861243Y-19824908D01*
G01X57861474Y-19825520D01*
G01X57861665Y-19826148D01*
G01X57861812Y-19826785D01*
G01X57861919Y-19827430D01*
G01X57861985Y-19828083D01*
G01X57862005Y-19828736D01*
G01X57862005Y-19888736D01*
G01X57861985Y-19889389D01*
G01X57861919Y-19890041D01*
G01X57861812Y-19890687D01*
G01X57861665Y-19891324D01*
G01X57861474Y-19891952D01*
G01X57861243Y-19892564D01*
G01X57860974Y-19893158D01*
G01X57860667Y-19893735D01*
G01X57860319Y-19894291D01*
G01X57859938Y-19894824D01*
G01X57859524Y-19895330D01*
G01X57859077Y-19895807D01*
G01X57858599Y-19896254D01*
G01X57858094Y-19896668D01*
G01X57857560Y-19897049D01*
G01X57857004Y-19897397D01*
G01X57856427Y-19897705D01*
G01X57855833Y-19897974D01*
G01X57855221Y-19898205D01*
G01X57854593Y-19898396D01*
G01X57853956Y-19898543D01*
G01X57853311Y-19898650D01*
G01X57852658Y-19898716D01*
G01X57852005Y-19898736D01*
G01X57851352Y-19898716D01*
G01X57850700Y-19898650D01*
G01X57850054Y-19898543D01*
G01X57849417Y-19898396D01*
G01X57848790Y-19898205D01*
G01X57848177Y-19897974D01*
G01X57847583Y-19897705D01*
G01X57847006Y-19897397D01*
G01X57846450Y-19897049D01*
G01X57845917Y-19896668D01*
G01X57845411Y-19896254D01*
G01X57844934Y-19895807D01*
G01X57844487Y-19895330D01*
G01X57844073Y-19894824D01*
G01X57843692Y-19894291D01*
G01X57843344Y-19893737D01*
G01X57843036Y-19893158D01*
G01X57842767Y-19892564D01*
G01X57842536Y-19891952D01*
G01X57842346Y-19891324D01*
G01X57842198Y-19890687D01*
G01X57842092Y-19890041D01*
G01X57842026Y-19889389D01*
G01X57842005Y-19888736D01*
G01X57842005Y-19828736D01*
G01X57842026Y-19828083D01*
G01X57842092Y-19827430D01*
G01X57842198Y-19826785D01*
G01X57842346Y-19826148D01*
G01X57842536Y-19825520D01*
G01X57842767Y-19824908D01*
G01X57843036Y-19824314D01*
G01X57843344Y-19823737D01*
G01X57843692Y-19823181D01*
G01X57844073Y-19822648D01*
G01X57844487Y-19822142D01*
G01X57844934Y-19821665D01*
G01X57845411Y-19821218D01*
G01X57845917Y-19820804D01*
G01X57846450Y-19820423D01*
G01X57847004Y-19820075D01*
G01X57847583Y-19819767D01*
G01X57848177Y-19819498D01*
G01X57848790Y-19819267D01*
G01X57849417Y-19819076D01*
G01X57850054Y-19818929D01*
G01X57850700Y-19818822D01*
G01X57851352Y-19818756D01*
G01X57852005Y-19818736D01*
G01X57852658Y-19818756D01*
G01X57853311Y-19818822D01*
G37*
G36*
G01X58053310Y-19818822D02*
G01X58053956Y-19818929D01*
G01X58054593Y-19819076D01*
G01X58055220Y-19819267D01*
G01X58055833Y-19819498D01*
G01X58056427Y-19819767D01*
G01X58057004Y-19820075D01*
G01X58057560Y-19820423D01*
G01X58058093Y-19820804D01*
G01X58058599Y-19821218D01*
G01X58059076Y-19821665D01*
G01X58059523Y-19822142D01*
G01X58059937Y-19822648D01*
G01X58060318Y-19823181D01*
G01X58060666Y-19823735D01*
G01X58060974Y-19824314D01*
G01X58061243Y-19824908D01*
G01X58061474Y-19825520D01*
G01X58061664Y-19826148D01*
G01X58061812Y-19826785D01*
G01X58061918Y-19827430D01*
G01X58061984Y-19828083D01*
G01X58062005Y-19828736D01*
G01X58062005Y-19888736D01*
G01X58061984Y-19889389D01*
G01X58061918Y-19890041D01*
G01X58061812Y-19890687D01*
G01X58061664Y-19891324D01*
G01X58061474Y-19891952D01*
G01X58061243Y-19892564D01*
G01X58060974Y-19893158D01*
G01X58060666Y-19893735D01*
G01X58060318Y-19894291D01*
G01X58059937Y-19894824D01*
G01X58059523Y-19895330D01*
G01X58059076Y-19895807D01*
G01X58058599Y-19896254D01*
G01X58058093Y-19896668D01*
G01X58057560Y-19897049D01*
G01X58057004Y-19897397D01*
G01X58056427Y-19897705D01*
G01X58055833Y-19897974D01*
G01X58055220Y-19898205D01*
G01X58054593Y-19898396D01*
G01X58053956Y-19898543D01*
G01X58053310Y-19898650D01*
G01X58052658Y-19898716D01*
G01X58052005Y-19898736D01*
G01X58051352Y-19898716D01*
G01X58050699Y-19898650D01*
G01X58050054Y-19898543D01*
G01X58049417Y-19898396D01*
G01X58048789Y-19898205D01*
G01X58048177Y-19897974D01*
G01X58047583Y-19897705D01*
G01X58047006Y-19897397D01*
G01X58046450Y-19897049D01*
G01X58045916Y-19896668D01*
G01X58045411Y-19896254D01*
G01X58044933Y-19895807D01*
G01X58044486Y-19895330D01*
G01X58044072Y-19894824D01*
G01X58043691Y-19894291D01*
G01X58043343Y-19893737D01*
G01X58043036Y-19893158D01*
G01X58042767Y-19892564D01*
G01X58042536Y-19891952D01*
G01X58042345Y-19891324D01*
G01X58042198Y-19890687D01*
G01X58042091Y-19890041D01*
G01X58042025Y-19889389D01*
G01X58042005Y-19888736D01*
G01X58042005Y-19828736D01*
G01X58042025Y-19828083D01*
G01X58042091Y-19827430D01*
G01X58042198Y-19826785D01*
G01X58042345Y-19826148D01*
G01X58042536Y-19825520D01*
G01X58042767Y-19824908D01*
G01X58043036Y-19824314D01*
G01X58043343Y-19823737D01*
G01X58043691Y-19823181D01*
G01X58044072Y-19822648D01*
G01X58044486Y-19822142D01*
G01X58044933Y-19821665D01*
G01X58045411Y-19821218D01*
G01X58045916Y-19820804D01*
G01X58046450Y-19820423D01*
G01X58047004Y-19820075D01*
G01X58047583Y-19819767D01*
G01X58048177Y-19819498D01*
G01X58048789Y-19819267D01*
G01X58049417Y-19819076D01*
G01X58050054Y-19818929D01*
G01X58050699Y-19818822D01*
G01X58051352Y-19818756D01*
G01X58052005Y-19818736D01*
G01X58052658Y-19818756D01*
G01X58053310Y-19818822D01*
G37*
G36*
G01X57767997Y-19464805D02*
G01X58055998Y-19464805D01*
G01X58055998Y-19752803D01*
G01X57767997Y-19752803D01*
G01X57767997Y-19464805D01*
G37*
G36*
G01X58894630Y-19000357D02*
G01X58894630Y-18836359D01*
G01X59058628Y-18836359D01*
G01X59058628Y-19000357D01*
G01X58894630Y-19000357D01*
G37*
G36*
G01X58915636Y-18783360D02*
G01X58887635Y-18783360D01*
G01X58887635Y-18703360D01*
G01X58915636Y-18703360D01*
G01X58915636Y-18783360D01*
G37*
G36*
G01X58761631Y-18832511D02*
G01X58761631Y-18804510D01*
G01X58841631Y-18804510D01*
G01X58841631Y-18832511D01*
G01X58761631Y-18832511D01*
G37*
G36*
G01X58761631Y-18882511D02*
G01X58761631Y-18854510D01*
G01X58841631Y-18854510D01*
G01X58841631Y-18882511D01*
G01X58761631Y-18882511D01*
G37*
G36*
G01X58761631Y-18932511D02*
G01X58761631Y-18904510D01*
G01X58841631Y-18904510D01*
G01X58841631Y-18932511D01*
G01X58761631Y-18932511D01*
G37*
G36*
G01X58761631Y-18982511D02*
G01X58761631Y-18954510D01*
G01X58841631Y-18954510D01*
G01X58841631Y-18982511D01*
G01X58761631Y-18982511D01*
G37*
G36*
G01X58761631Y-19032511D02*
G01X58761631Y-19004510D01*
G01X58841631Y-19004510D01*
G01X58841631Y-19032511D01*
G01X58761631Y-19032511D01*
G37*
G36*
G01X58915631Y-19133359D02*
G01X58887630Y-19133359D01*
G01X58887630Y-19053359D01*
G01X58915631Y-19053359D01*
G01X58915631Y-19133359D01*
G37*
G36*
G01X59065631Y-19133359D02*
G01X59037630Y-19133359D01*
G01X59037630Y-19053359D01*
G01X59065631Y-19053359D01*
G01X59065631Y-19133359D01*
G37*
G36*
G01X59191627Y-19004357D02*
G01X59191627Y-19032358D01*
G01X59111628Y-19032358D01*
G01X59111628Y-19004357D01*
G01X59191627Y-19004357D01*
G37*
G36*
G01X59191627Y-18954358D02*
G01X59191627Y-18982359D01*
G01X59111628Y-18982359D01*
G01X59111628Y-18954358D01*
G01X59191627Y-18954358D01*
G37*
G36*
G01X59191627Y-18904358D02*
G01X59191627Y-18932359D01*
G01X59111628Y-18932359D01*
G01X59111628Y-18904358D01*
G01X59191627Y-18904358D01*
G37*
G36*
G01X59191627Y-18854358D02*
G01X59191627Y-18882359D01*
G01X59111628Y-18882359D01*
G01X59111628Y-18854358D01*
G01X59191627Y-18854358D01*
G37*
G36*
G01X59191630Y-18804358D02*
G01X59191630Y-18832359D01*
G01X59111630Y-18832359D01*
G01X59111630Y-18804358D01*
G01X59191630Y-18804358D01*
G37*
G36*
G01X59037630Y-18703360D02*
G01X59065631Y-18703360D01*
G01X59065631Y-18783360D01*
G01X59037630Y-18783360D01*
G01X59037630Y-18703360D01*
G37*
G36*
G01X57325484Y-18739762D02*
G01X57325484Y-18694761D01*
G01X57332481Y-18689762D01*
G01X57380482Y-18689762D01*
G01X57385483Y-18694761D01*
G01X57385483Y-18739762D01*
G01X57380482Y-18744761D01*
G01X57332481Y-18744761D01*
G01X57325484Y-18739762D01*
G37*
G36*
G01X57229482Y-18739762D02*
G01X57229482Y-18694761D01*
G01X57234483Y-18689762D01*
G01X57282481Y-18689762D01*
G01X57289482Y-18694761D01*
G01X57289482Y-18739762D01*
G01X57282481Y-18744761D01*
G01X57234483Y-18744761D01*
G01X57229482Y-18739762D01*
G37*
G36*
G01X59451100Y-20854200D02*
G01X59497100Y-20854200D01*
G01X59501100Y-20858201D01*
G01X59501100Y-20908264D01*
G01X59497100Y-20912264D01*
G01X59451100Y-20912264D01*
G01X59447100Y-20908264D01*
G01X59447100Y-20858201D01*
G01X59451100Y-20854200D01*
G37*
G36*
G01X59451100Y-20827200D02*
G01X59447100Y-20823199D01*
G01X59447100Y-20773136D01*
G01X59451100Y-20769135D01*
G01X59497100Y-20769135D01*
G01X59501100Y-20773136D01*
G01X59501100Y-20823199D01*
G01X59497100Y-20827200D01*
G01X59451100Y-20827200D01*
G37*
G36*
G01X60239440Y-18887580D02*
G01X60239440Y-18841580D01*
G01X60243441Y-18837580D01*
G01X60293504Y-18837580D01*
G01X60297505Y-18841580D01*
G01X60297505Y-18887580D01*
G01X60293504Y-18891580D01*
G01X60243441Y-18891580D01*
G01X60239440Y-18887580D01*
G37*
G36*
G01X60212440Y-18887580D02*
G01X60208439Y-18891580D01*
G01X60158376Y-18891580D01*
G01X60154376Y-18887580D01*
G01X60154376Y-18841580D01*
G01X60158376Y-18837580D01*
G01X60208439Y-18837580D01*
G01X60212440Y-18841580D01*
G01X60212440Y-18887580D01*
G37*
G36*
G01X60212125Y-18999093D02*
G01X60212125Y-19045092D01*
G01X60208125Y-19049093D01*
G01X60158061Y-19049093D01*
G01X60154061Y-19045092D01*
G01X60154061Y-18999093D01*
G01X60158061Y-18995093D01*
G01X60208125Y-18995093D01*
G01X60212125Y-18999093D01*
G37*
G36*
G01X60239125Y-18999093D02*
G01X60243126Y-18995093D01*
G01X60293189Y-18995093D01*
G01X60297190Y-18999093D01*
G01X60297190Y-19045092D01*
G01X60293189Y-19049093D01*
G01X60243126Y-19049093D01*
G01X60239125Y-19045092D01*
G01X60239125Y-18999093D01*
G37*
G36*
G01X61114800Y-21819400D02*
G01X61160800Y-21819400D01*
G01X61164800Y-21823401D01*
G01X61164800Y-21873464D01*
G01X61160800Y-21877464D01*
G01X61114800Y-21877464D01*
G01X61110800Y-21873464D01*
G01X61110800Y-21823401D01*
G01X61114800Y-21819400D01*
G37*
G36*
G01X61114800Y-21792400D02*
G01X61110800Y-21788399D01*
G01X61110800Y-21738336D01*
G01X61114800Y-21734335D01*
G01X61160800Y-21734335D01*
G01X61164800Y-21738336D01*
G01X61164800Y-21788399D01*
G01X61160800Y-21792400D01*
G01X61114800Y-21792400D01*
G37*
G36*
G01X60962400Y-21819400D02*
G01X61008400Y-21819400D01*
G01X61012400Y-21823401D01*
G01X61012400Y-21873464D01*
G01X61008400Y-21877464D01*
G01X60962400Y-21877464D01*
G01X60958400Y-21873464D01*
G01X60958400Y-21823401D01*
G01X60962400Y-21819400D01*
G37*
G36*
G01X60962400Y-21792400D02*
G01X60958400Y-21788399D01*
G01X60958400Y-21738336D01*
G01X60962400Y-21734335D01*
G01X61008400Y-21734335D01*
G01X61012400Y-21738336D01*
G01X61012400Y-21788399D01*
G01X61008400Y-21792400D01*
G01X60962400Y-21792400D01*
G37*
G36*
G01X59879578Y-18978344D02*
G01X59743576Y-18978344D01*
G01X59743576Y-18842342D01*
G01X59879578Y-18842342D01*
G01X59879578Y-18978344D01*
G37*
G36*
G01X59919098Y-18972840D02*
G01X59994097Y-18972840D01*
G01X59994097Y-18997841D01*
G01X59919098Y-18997841D01*
G01X59919098Y-18972840D01*
G37*
G36*
G01X59919098Y-18922852D02*
G01X59994097Y-18922852D01*
G01X59994097Y-18947854D01*
G01X59919098Y-18947854D01*
G01X59919098Y-18922852D01*
G37*
G36*
G01X59919098Y-18872840D02*
G01X59994097Y-18872840D01*
G01X59994097Y-18897841D01*
G01X59919098Y-18897841D01*
G01X59919098Y-18872840D01*
G37*
G36*
G01X59919098Y-18822853D02*
G01X59994097Y-18822853D01*
G01X59994097Y-18847854D01*
G01X59919098Y-18847854D01*
G01X59919098Y-18822853D01*
G37*
G36*
G01X59629106Y-18972840D02*
G01X59704105Y-18972840D01*
G01X59704105Y-18997841D01*
G01X59629106Y-18997841D01*
G01X59629106Y-18972840D01*
G37*
G36*
G01X59629106Y-18922852D02*
G01X59704105Y-18922852D01*
G01X59704105Y-18947854D01*
G01X59629106Y-18947854D01*
G01X59629106Y-18922852D01*
G37*
G36*
G01X59629106Y-18872840D02*
G01X59704105Y-18872840D01*
G01X59704105Y-18897841D01*
G01X59629106Y-18897841D01*
G01X59629106Y-18872840D01*
G37*
G36*
G01X59629106Y-18822853D02*
G01X59704105Y-18822853D01*
G01X59704105Y-18847854D01*
G01X59629106Y-18847854D01*
G01X59629106Y-18822853D01*
G37*
G36*
G01X59874023Y-19092844D02*
G01X59874023Y-19017846D01*
G01X59899024Y-19017846D01*
G01X59899024Y-19092844D01*
G01X59874023Y-19092844D01*
G37*
G36*
G01X59824036Y-19092844D02*
G01X59824036Y-19017846D01*
G01X59849037Y-19017846D01*
G01X59849037Y-19092844D01*
G01X59824036Y-19092844D01*
G37*
G36*
G01X59774023Y-19092844D02*
G01X59774023Y-19017846D01*
G01X59799025Y-19017846D01*
G01X59799025Y-19092844D01*
G01X59774023Y-19092844D01*
G37*
G36*
G01X59724036Y-19092844D02*
G01X59724036Y-19017846D01*
G01X59749037Y-19017846D01*
G01X59749037Y-19092844D01*
G01X59724036Y-19092844D01*
G37*
G36*
G01X59873947Y-18802853D02*
G01X59873947Y-18727854D01*
G01X59898948Y-18727854D01*
G01X59898948Y-18802853D01*
G01X59873947Y-18802853D01*
G37*
G36*
G01X59823960Y-18802853D02*
G01X59823960Y-18727854D01*
G01X59848961Y-18727854D01*
G01X59848961Y-18802853D01*
G01X59823960Y-18802853D01*
G37*
G36*
G01X59773947Y-18802853D02*
G01X59773947Y-18727854D01*
G01X59798948Y-18727854D01*
G01X59798948Y-18802853D01*
G01X59773947Y-18802853D01*
G37*
G36*
G01X59723960Y-18802853D02*
G01X59723960Y-18727854D01*
G01X59748961Y-18727854D01*
G01X59748961Y-18802853D01*
G01X59723960Y-18802853D01*
G37*
G36*
G01X61314449Y-19343500D02*
G01X61278318Y-19343500D01*
G01X61268318Y-19333500D01*
G01X61268318Y-19312443D01*
G01X61258318Y-19302443D01*
G01X61220482Y-19302443D01*
G01X61210482Y-19312443D01*
G01X61210482Y-19333500D01*
G01X61200482Y-19343500D01*
G01X61164351Y-19343500D01*
G01X61154351Y-19333500D01*
G01X61154351Y-19232748D01*
G01X61164351Y-19222748D01*
G01X61314449Y-19222748D01*
G01X61324449Y-19232748D01*
G01X61324449Y-19333500D01*
G01X61314449Y-19343500D01*
G37*
G36*
G01X61314449Y-19518500D02*
G01X61324449Y-19528500D01*
G01X61324449Y-19629252D01*
G01X61314449Y-19639252D01*
G01X61164351Y-19639252D01*
G01X61154351Y-19629252D01*
G01X61154351Y-19528500D01*
G01X61164351Y-19518500D01*
G01X61200482Y-19518500D01*
G01X61210482Y-19528500D01*
G01X61210482Y-19549557D01*
G01X61220482Y-19559557D01*
G01X61258318Y-19559557D01*
G01X61268318Y-19549557D01*
G01X61268318Y-19528500D01*
G01X61278318Y-19518500D01*
G01X61314449Y-19518500D01*
G37*

G04 Pad Start*
G54D10*
G01X60046718Y-20789900D03*
G01X60186722Y-20789900D03*
G01X60851776Y-20453090D03*
G01X60991781Y-20453090D03*
G54D11*
G01X60196832Y-20604480D03*
G01X60112808Y-20604480D03*
G54D10*
G01X60047022Y-20320000D03*
G01X59907018Y-20320000D03*
G01X60555022Y-21221700D03*
G01X60415018Y-21221700D03*
G01X60671537Y-20452507D03*
G01X60531532Y-20452507D03*
G54D12*
G01X59150504Y-21641410D03*
G01X59245500Y-21641410D03*
G01X59340496Y-21641410D03*
G01X59340496Y-21411590D03*
G01X59245500Y-21411590D03*
G01X59150504Y-21411590D03*
G54D13*
G01X59850020Y-20646060D03*
G01X59850020Y-20984540D03*
G54D14*
G01X60256420Y-20479004D03*
G01X60256420Y-20313396D03*
G54D16*
G01X60861689Y-19804953D03*
G01X60671697Y-19804953D03*
G01X60671697Y-19544933D03*
G01X60766693Y-19544933D03*
G01X60861689Y-19544933D03*
G54D10*
G01X60674098Y-19977100D03*
G01X60814102Y-19977100D03*
G01X60366491Y-19370143D03*
G01X60506496Y-19370143D03*
G54D17*
G01X57200800Y-19739762D03*
G01X57200800Y-19599758D03*
G01X57378600Y-19739762D03*
G01X57378600Y-19599758D03*
G54D18*
G01X57683324Y-21971693D03*
G01X57683324Y-21271695D03*
G54D19*
G01X57713321Y-21041698D03*
G54D18*
G01X58403312Y-21972694D03*
G01X58403312Y-21642697D03*
G01X58403312Y-21092686D03*
G54D20*
G01X59788590Y-19805396D03*
G01X59788590Y-19615404D03*
G01X60048610Y-19615404D03*
G01X60048610Y-19710400D03*
G01X60048610Y-19805396D03*
G54D21*
G01X58391781Y-18565698D03*
G01X58391806Y-18600699D03*
G01X58391781Y-18635701D03*
G01X58391781Y-18670702D03*
G01X58295794Y-18670702D03*
G01X58295794Y-18635701D03*
G01X58295794Y-18600699D03*
G54D22*
G01X58299299Y-18565698D03*
G54D23*
G01X59079105Y-16061499D03*
G01X59079105Y-16146488D03*
G01X59079105Y-16231502D03*
G01X59079105Y-16316490D03*
G01X59079105Y-16401504D03*
G01X59079105Y-16486492D03*
G01X59079105Y-16571506D03*
G01X59079105Y-16656494D03*
G01X59079105Y-16741508D03*
G01X59079105Y-16826497D03*
G01X59079105Y-16911510D03*
G01X59079105Y-16996499D03*
G01X59079105Y-17081487D03*
G01X59079105Y-17166501D03*
G01X59079105Y-17251489D03*
G01X59079105Y-17336503D03*
G01X59079105Y-17421492D03*
G01X59079105Y-17506505D03*
G01X59079105Y-17591494D03*
G01X59079105Y-17676508D03*
G01X59079105Y-17761496D03*
G01X59079105Y-17846484D03*
G01X59079105Y-17931498D03*
G01X59079105Y-18016487D03*
G01X59079105Y-18101500D03*
G54D24*
G01X59216595Y-18211508D03*
G01X59301609Y-18211508D03*
G01X59386597Y-18211508D03*
G01X59471611Y-18211508D03*
G01X59556599Y-18211508D03*
G01X59641613Y-18211508D03*
G01X59726601Y-18211508D03*
G01X59811615Y-18211508D03*
G01X59896604Y-18211508D03*
G01X59981617Y-18211508D03*
G01X60066606Y-18211508D03*
G01X60151594Y-18211508D03*
G01X60236608Y-18211508D03*
G01X60321596Y-18211508D03*
G01X60406610Y-18211508D03*
G01X60491599Y-18211508D03*
G01X60576612Y-18211508D03*
G01X60661601Y-18211508D03*
G01X60746615Y-18211508D03*
G01X60831603Y-18211508D03*
G01X60916591Y-18211508D03*
G01X61001605Y-18211508D03*
G54D23*
G01X61139095Y-18101500D03*
G01X61139095Y-18016487D03*
G01X61139095Y-17931498D03*
G01X61139095Y-17846484D03*
G01X61139095Y-17761496D03*
G01X61139095Y-17676508D03*
G01X61139095Y-17591494D03*
G01X61139095Y-17506505D03*
G01X61139095Y-17421492D03*
G01X61139095Y-17336503D03*
G01X61139095Y-17251489D03*
G01X61139095Y-17166501D03*
G01X61139095Y-17081487D03*
G01X61139095Y-16996499D03*
G01X61139095Y-16911510D03*
G01X61139095Y-16826497D03*
G01X61139095Y-16741508D03*
G01X61139095Y-16656494D03*
G01X61139095Y-16571506D03*
G01X61139095Y-16486492D03*
G01X61139095Y-16401504D03*
G01X61139095Y-16316490D03*
G01X61139095Y-16231502D03*
G01X61139095Y-16146488D03*
G01X61139095Y-16061499D03*
G54D24*
G01X61001605Y-15951492D03*
G01X60916591Y-15951492D03*
G01X60831603Y-15951492D03*
G01X60746615Y-15951492D03*
G01X60661601Y-15951492D03*
G01X60576612Y-15951492D03*
G01X60491599Y-15951492D03*
G01X60406610Y-15951492D03*
G01X60321596Y-15951492D03*
G01X60236608Y-15951492D03*
G01X60151594Y-15951492D03*
G01X60066606Y-15951492D03*
G01X59981617Y-15951492D03*
G01X59896604Y-15951492D03*
G01X59811615Y-15951492D03*
G01X59726601Y-15951492D03*
G01X59641613Y-15951492D03*
G01X59556599Y-15951492D03*
G01X59471611Y-15951492D03*
G01X59386597Y-15951492D03*
G01X59301609Y-15951492D03*
G01X59216595Y-15951492D03*
G54D25*
G01X59079105Y-18211508D03*
G01X61139095Y-18211508D03*
G01X61139095Y-15951492D03*
G01X59079105Y-15951492D03*
G54D26*
G01X60109105Y-17081497D03*
G54D27*
G01X57206050Y-18908337D03*
G01X57206050Y-19128351D03*
G01X57376052Y-19128351D03*
G01X57376052Y-18908337D03*
G54D28*
G01X60519297Y-19586043D03*
G01X60353689Y-19586043D03*
G54D29*
G01X58978800Y-21263712D03*
G01X58978800Y-21179688D03*
G01X60052905Y-18672741D03*
G01X60052905Y-18756764D03*
G01X59512200Y-18792088D03*
G01X59512200Y-18876112D03*
G54D30*
G01X60011602Y-21621737D03*
G01X60091612Y-21621737D03*
G54D31*
G01X60156611Y-21621737D03*
G01X60206623Y-21621737D03*
G01X60256611Y-21621737D03*
G01X60306598Y-21621737D03*
G01X60356610Y-21621737D03*
G01X60406598Y-21621737D03*
G01X60456610Y-21621737D03*
G01X60506623Y-21621737D03*
G54D30*
G01X60571621Y-21621737D03*
G01X60651606Y-21621737D03*
G54D32*
G01X57330987Y-17751378D03*
G01X57380999Y-17751378D03*
G01X57430986Y-17751378D03*
G01X57480999Y-17751378D03*
G54D33*
G01X57507237Y-17675178D03*
G01X57507237Y-17625191D03*
G01X57507237Y-17575178D03*
G54D32*
G01X57480999Y-17498978D03*
G01X57430986Y-17498978D03*
G01X57380999Y-17498978D03*
G01X57330987Y-17498978D03*
G54D33*
G01X57304748Y-17575178D03*
G01X57304748Y-17625191D03*
G01X57304748Y-17675178D03*
G54D11*
G01X59869172Y-18602960D03*
G01X59785148Y-18602960D03*
G54D29*
G01X57658000Y-17763592D03*
G01X57658000Y-17679568D03*
G54D11*
G01X57570472Y-17371060D03*
G01X57486448Y-17371060D03*
G54D34*
G01X58486700Y-15696032D03*
G01X58486700Y-15806014D03*
G01X58486700Y-15916021D03*
G01X58486700Y-16026028D03*
G01X58486700Y-16136010D03*
G01X58486700Y-16246018D03*
G01X58486700Y-16356025D03*
G01X58486700Y-16466033D03*
G01X58486700Y-15586024D03*
G54D35*
G01X58386701Y-15466009D03*
G54D36*
G01X57426708Y-15466009D03*
G01X57426708Y-17016019D03*
G54D37*
G01X58386701Y-16926027D03*
G54D38*
G01X59120100Y-20743088D03*
G01X59170113Y-20743088D03*
G01X59220100Y-20743088D03*
G01X59270113Y-20743088D03*
G01X59320100Y-20743088D03*
G01X59320100Y-21177072D03*
G01X59270113Y-21177072D03*
G01X59220100Y-21177072D03*
G01X59170113Y-21177072D03*
G01X59120100Y-21177072D03*
G54D11*
G01X59820912Y-19189700D03*
G01X59736888Y-19189700D03*
G04 Pad End*

M02*

