0
SECTION
2
HEADER
9
$INSUNITS
70
4
0
ENDSEC
0
SECTION
2
ENTITIES
0
LWPOLYLINE
100
AcDbEntity
8
BOARD_OUTLINE
100
AcDbPolyline
90
8
70
1
10
10
20
0
42
0
10
34
20
0
42
0.41421356237309503
10
44
20
10
42
0
10
44
20
24
42
0.41421356237309503
10
34
20
34
42
0
10
10
20
34
42
0.41421356237309503
10
0
20
24
42
0
10
0
20
10
42
0.41421356237309503
0
CIRCLE
100
AcDbEntity
8
NPTH_HOLES
100
AcDbCircle
10
3
20
8.700000000000003
30
0
40
.9
0
CIRCLE
100
AcDbEntity
8
NPTH_HOLES
100
AcDbCircle
10
41
20
8.700000000000003
30
0
40
.9
0
CIRCLE
100
AcDbEntity
8
NPTH_HOLES
100
AcDbCircle
10
3
20
24.700000000000003
30
0
40
.9
0
CIRCLE
100
AcDbEntity
8
NPTH_HOLES
100
AcDbCircle
10
41
20
24.700000000000003
30
0
40
.9
0
ENDSEC
0
EOF
