M48
; DRILL file KiCad 10.0.4 date 2026-09-22T10:05:24
; FORMAT={-:-/ absolute / metric / decimal}
; #@! TF.CreationDate,2026-09-22T10:05:24+08:00
; #@! TF.GenerationSoftware,Kicad,Pcbnew,10.0.4
; #@! TF.FileFunction,Plated,1,2,PTH
FMAT,2
METRIC
; #@! TA.AperFunction,Plated,PTH,ViaDrill
T1C0.300
%
G90
G05
T1
X1.557Y-23.831
X3.5Y-15.0
X3.742Y-12.605
X5.007Y-25.615
X5.402Y-12.204
X5.885Y-25.614
X6.0Y-30.6
X6.172Y-7.828
X6.4Y-26.8
X6.624Y-9.738
X6.792Y-31.889
X6.941Y-26.125
X7.127Y-12.412
X7.5Y-3.5
X7.5Y-14.6
X7.5Y-27.0
X7.55Y-21.0
X7.768Y-18.681
X7.8Y-31.9
X8.3Y-26.2
X8.525Y-7.528
X8.558Y-25.412
X8.7Y-32.7
X8.909Y-17.87
X9.1Y-27.0
X9.195Y-16.154
X9.398Y-20.117
X10.107Y-4.275
X10.363Y-23.774
X10.8Y-30.7
X11.146Y-1.744
X11.5Y-29.9
X12.243Y-32.563
X14.9Y-17.6
X16.172Y-17.603
X16.9Y-22.0
X17.375Y-19.645
X18.059Y-22.863
X18.613Y-19.52
X19.257Y-23.413
X19.4Y-7.85
X19.689Y-18.151
X19.693Y-21.829
X20.245Y-21.275
X20.721Y-19.067
X21.161Y-4.54
X21.745Y-29.599
X22.3Y-30.75
X22.348Y-5.024
X22.422Y-16.578
X22.797Y-21.275
X22.875Y-29.998
X23.533Y-15.076
X23.887Y-18.844
X24.6Y-32.4
X25.423Y-23.413
X26.234Y-33.391
X27.066Y-32.959
X28.091Y-20.718
X28.88Y-15.883
X34.5Y-16.133
X34.5Y-17.877
M30
