G04 #@! TF.GenerationSoftware,KiCad,Pcbnew,10.0.4*
G04 #@! TF.CreationDate,2026-09-22T10:05:25+08:00*
G04 #@! TF.ProjectId,controls,636f6e74-726f-46c7-932e-6b696361645f,rev?*
G04 #@! TF.SameCoordinates,Original*
G04 #@! TF.FileFunction,Legend,Bot*
G04 #@! TF.FilePolarity,Positive*
%FSLAX46Y46*%
G04 Gerber Fmt 4.6, Leading zero omitted, Abs format (unit mm)*
G04 Created by KiCad (PCBNEW 10.0.4) date 2026-09-22 10:05:25*
%MOMM*%
%LPD*%
G01*
G04 APERTURE LIST*
G04 Aperture macros list*
%AMRoundRect*
0 Rectangle with rounded corners*
0 $1 Rounding radius*
0 $2 $3 $4 $5 $6 $7 $8 $9 X,Y pos of 4 corners*
0 Add a 4 corners polygon primitive as box body*
4,1,4,$2,$3,$4,$5,$6,$7,$8,$9,$2,$3,0*
0 Add four circle primitives for the rounded corners*
1,1,$1+$1,$2,$3*
1,1,$1+$1,$4,$5*
1,1,$1+$1,$6,$7*
1,1,$1+$1,$8,$9*
0 Add four rect primitives between the rounded corners*
20,1,$1+$1,$2,$3,$4,$5,0*
20,1,$1+$1,$4,$5,$6,$7,0*
20,1,$1+$1,$6,$7,$8,$9,0*
20,1,$1+$1,$8,$9,$2,$3,0*%
G04 Aperture macros list end*
%ADD10C,0.120000*%
%ADD11C,0.100000*%
%ADD12C,0.170000*%
%ADD13C,1.800000*%
%ADD14RoundRect,0.140000X-0.140000X-0.170000X0.140000X-0.170000X0.140000X0.170000X-0.140000X0.170000X0*%
%ADD15RoundRect,0.135000X0.185000X-0.135000X0.185000X0.135000X-0.185000X0.135000X-0.185000X-0.135000X0*%
%ADD16RoundRect,0.135000X-0.135000X-0.185000X0.135000X-0.185000X0.135000X0.185000X-0.135000X0.185000X0*%
%ADD17R,0.650000X0.300000*%
%ADD18R,1.150000X0.300000*%
%ADD19RoundRect,0.135000X-0.185000X0.135000X-0.185000X-0.135000X0.185000X-0.135000X0.185000X0.135000X0*%
%ADD20R,1.900000X1.900000*%
%ADD21R,0.550000X0.200000*%
%ADD22R,0.200000X0.550000*%
%ADD23R,1.000000X1.000000*%
G04 APERTURE END LIST*
D10*
X10671428Y-6463855D02*
X11128571Y-6463855D01*
X10899999Y-6463855D02*
X10899999Y-5663855D01*
X10899999Y-5663855D02*
X10976190Y-5778140D01*
X10976190Y-5778140D02*
X11052380Y-5854331D01*
X11052380Y-5854331D02*
X11128571Y-5892426D01*
X7363855Y-14233333D02*
X7935283Y-14233333D01*
X7935283Y-14233333D02*
X8049569Y-14195238D01*
X8049569Y-14195238D02*
X8125760Y-14119047D01*
X8125760Y-14119047D02*
X8163855Y-14004762D01*
X8163855Y-14004762D02*
X8163855Y-13928571D01*
X8163855Y-15033333D02*
X8163855Y-14576190D01*
X8163855Y-14804762D02*
X7363855Y-14804762D01*
X7363855Y-14804762D02*
X7478140Y-14728571D01*
X7478140Y-14728571D02*
X7554331Y-14652381D01*
X7554331Y-14652381D02*
X7592426Y-14576190D01*
X29266666Y-29063855D02*
X29266666Y-29635283D01*
X29266666Y-29635283D02*
X29304761Y-29749569D01*
X29304761Y-29749569D02*
X29380952Y-29825760D01*
X29380952Y-29825760D02*
X29495237Y-29863855D01*
X29495237Y-29863855D02*
X29571428Y-29863855D01*
X28923809Y-29140045D02*
X28885713Y-29101950D01*
X28885713Y-29101950D02*
X28809523Y-29063855D01*
X28809523Y-29063855D02*
X28619047Y-29063855D01*
X28619047Y-29063855D02*
X28542856Y-29101950D01*
X28542856Y-29101950D02*
X28504761Y-29140045D01*
X28504761Y-29140045D02*
X28466666Y-29216236D01*
X28466666Y-29216236D02*
X28466666Y-29292426D01*
X28466666Y-29292426D02*
X28504761Y-29406712D01*
X28504761Y-29406712D02*
X28961904Y-29863855D01*
X28961904Y-29863855D02*
X28466666Y-29863855D01*
X17892164Y-32440000D02*
X18107836Y-32440000D01*
X17892164Y-33160000D02*
X18107836Y-33160000D01*
X15620000Y-31153641D02*
X15620000Y-30846359D01*
X16380000Y-31153641D02*
X16380000Y-30846359D01*
X13846359Y-26320000D02*
X14153641Y-26320000D01*
X13846359Y-27080000D02*
X14153641Y-27080000D01*
X13846359Y-24820000D02*
X14153641Y-24820000D01*
X13846359Y-25580000D02*
X14153641Y-25580000D01*
X15846359Y-32420000D02*
X16153641Y-32420000D01*
X15846359Y-33180000D02*
X16153641Y-33180000D01*
X5620000Y-22046359D02*
X5620000Y-22353641D01*
X6380000Y-22046359D02*
X6380000Y-22353641D01*
X11620000Y-1246359D02*
X11620000Y-1553641D01*
X12380000Y-1246359D02*
X12380000Y-1553641D01*
X19620000Y-31153641D02*
X19620000Y-30846359D01*
X20380000Y-31153641D02*
X20380000Y-30846359D01*
D11*
X6500000Y-30800000D02*
G75*
G02*
X6400000Y-30800000I-50000J0D01*
G01*
X6400000Y-30800000D02*
G75*
G02*
X6500000Y-30800000I50000J0D01*
G01*
D10*
X17620000Y-31153641D02*
X17620000Y-30846359D01*
X18380000Y-31153641D02*
X18380000Y-30846359D01*
X5146359Y-31120000D02*
X5453641Y-31120000D01*
X5146359Y-31880000D02*
X5453641Y-31880000D01*
X4792164Y-29340000D02*
X5007836Y-29340000D01*
X4792164Y-30060000D02*
X5007836Y-30060000D01*
D12*
X27285000Y-32600000D02*
G75*
G02*
X27115000Y-32600000I-85000J0D01*
G01*
X27115000Y-32600000D02*
G75*
G02*
X27285000Y-32600000I85000J0D01*
G01*
D10*
X13846359Y-32420000D02*
X14153641Y-32420000D01*
X13846359Y-33180000D02*
X14153641Y-33180000D01*
X3820000Y-21246359D02*
X3820000Y-21553641D01*
X4580000Y-21246359D02*
X4580000Y-21553641D01*
X5092164Y-26040000D02*
X5307836Y-26040000D01*
X5092164Y-26760000D02*
X5307836Y-26760000D01*
X23620000Y-31153641D02*
X23620000Y-30846359D01*
X24380000Y-31153641D02*
X24380000Y-30846359D01*
X7420000Y-22046359D02*
X7420000Y-22353641D01*
X8180000Y-22046359D02*
X8180000Y-22353641D01*
%LPC*%
D13*
X41000000Y-24700000D03*
X3000000Y-8700000D03*
X41000000Y-8700000D03*
X3000000Y-24700000D03*
D14*
X17520000Y-32800000D03*
X18480000Y-32800000D03*
D15*
X16000000Y-31510000D03*
X16000000Y-30490000D03*
D16*
X13490000Y-26700000D03*
X14510000Y-26700000D03*
X13490000Y-25200000D03*
X14510000Y-25200000D03*
X15490000Y-32800000D03*
X16510000Y-32800000D03*
D17*
X9535000Y-6661000D03*
X9535000Y-7161000D03*
X9535000Y-7661000D03*
X9535000Y-8161000D03*
X9535000Y-8661000D03*
X9535000Y-9161000D03*
X9535000Y-9661000D03*
X9535000Y-10161000D03*
X9535000Y-10661000D03*
X9535000Y-11161000D03*
X9535000Y-11661000D03*
X9535000Y-12161000D03*
D18*
X6725000Y-13046000D03*
X6725000Y-5776000D03*
D19*
X6000000Y-21690000D03*
X6000000Y-22710000D03*
X12000000Y-890000D03*
X12000000Y-1910000D03*
D15*
X20000000Y-31510000D03*
X20000000Y-30490000D03*
D20*
X8300000Y-29500000D03*
D21*
X6800000Y-30300000D03*
X6800000Y-29900000D03*
X6800000Y-29500000D03*
X6800000Y-29100000D03*
X6800000Y-28700000D03*
D22*
X7500000Y-28000000D03*
X7900000Y-28000000D03*
X8300000Y-28000000D03*
X8700000Y-28000000D03*
X9100000Y-28000000D03*
D21*
X9800000Y-28700000D03*
X9800000Y-29100000D03*
X9800000Y-29500000D03*
X9800000Y-29900000D03*
X9800000Y-30300000D03*
D22*
X9100000Y-31000000D03*
X8700000Y-31000000D03*
X8300000Y-31000000D03*
X7900000Y-31000000D03*
X7500000Y-31000000D03*
D15*
X18000000Y-31510000D03*
X18000000Y-30490000D03*
D16*
X4790000Y-31500000D03*
X5810000Y-31500000D03*
D14*
X4420000Y-29700000D03*
X5380000Y-29700000D03*
D23*
X28100000Y-32600000D03*
X29900000Y-32600000D03*
X28100000Y-30800000D03*
X29900000Y-30800000D03*
D16*
X13490000Y-32800000D03*
X14510000Y-32800000D03*
D19*
X4200000Y-20890000D03*
X4200000Y-21910000D03*
D14*
X4720000Y-26400000D03*
X5680000Y-26400000D03*
D15*
X24000000Y-31510000D03*
X24000000Y-30490000D03*
D19*
X7800000Y-21690000D03*
X7800000Y-22710000D03*
%LPD*%
M02*
