%TF.GenerationSoftware,KiCad,Pcbnew,10.0.4*%
%TF.CreationDate,2026-09-22T10:03:42+08:00*%
%TF.ProjectId,controls,636f6e74-726f-46c7-932e-6b696361645f,rev?*%
%TF.SameCoordinates,Original*%
%TF.FileFunction,Legend,Bot*%
%TF.FilePolarity,Positive*%
%FSLAX46Y46*%
G04 Gerber Fmt 4.6, Leading zero omitted, Abs format (unit mm)*
G04 Created by KiCad (PCBNEW 10.0.4) date 2026-09-22 10:03:42*
%MOMM*%
%LPD*%
G01*
G04 APERTURE LIST*
%ADD10C,0.120000*%
%ADD11C,0.100000*%
%ADD12C,0.170000*%
G04 APERTURE END LIST*
D10*
X10671428Y-6463855D02*
X11128571Y-6463855D01*
X10899999Y-6463855D02*
X10899999Y-5663855D01*
X10899999Y-5663855D02*
X10976190Y-5778140D01*
X10976190Y-5778140D02*
X11052380Y-5854331D01*
X11052380Y-5854331D02*
X11128571Y-5892426D01*
X7363855Y-14233333D02*
X7935283Y-14233333D01*
X7935283Y-14233333D02*
X8049569Y-14195238D01*
X8049569Y-14195238D02*
X8125760Y-14119047D01*
X8125760Y-14119047D02*
X8163855Y-14004762D01*
X8163855Y-14004762D02*
X8163855Y-13928571D01*
X8163855Y-15033333D02*
X8163855Y-14576190D01*
X8163855Y-14804762D02*
X7363855Y-14804762D01*
X7363855Y-14804762D02*
X7478140Y-14728571D01*
X7478140Y-14728571D02*
X7554331Y-14652381D01*
X7554331Y-14652381D02*
X7592426Y-14576190D01*
X29266666Y-29063855D02*
X29266666Y-29635283D01*
X29266666Y-29635283D02*
X29304761Y-29749569D01*
X29304761Y-29749569D02*
X29380952Y-29825760D01*
X29380952Y-29825760D02*
X29495237Y-29863855D01*
X29495237Y-29863855D02*
X29571428Y-29863855D01*
X28923809Y-29140045D02*
X28885713Y-29101950D01*
X28885713Y-29101950D02*
X28809523Y-29063855D01*
X28809523Y-29063855D02*
X28619047Y-29063855D01*
X28619047Y-29063855D02*
X28542856Y-29101950D01*
X28542856Y-29101950D02*
X28504761Y-29140045D01*
X28504761Y-29140045D02*
X28466666Y-29216236D01*
X28466666Y-29216236D02*
X28466666Y-29292426D01*
X28466666Y-29292426D02*
X28504761Y-29406712D01*
X28504761Y-29406712D02*
X28961904Y-29863855D01*
X28961904Y-29863855D02*
X28466666Y-29863855D01*
%TO.C,C3*%
X17892164Y-32440000D02*
X18107836Y-32440000D01*
X17892164Y-33160000D02*
X18107836Y-33160000D01*
%TO.C,R9*%
X15620000Y-31153641D02*
X15620000Y-30846359D01*
X16380000Y-31153641D02*
X16380000Y-30846359D01*
%TO.C,R5*%
X13846359Y-26320000D02*
X14153641Y-26320000D01*
X13846359Y-27080000D02*
X14153641Y-27080000D01*
%TO.C,R4*%
X13846359Y-24820000D02*
X14153641Y-24820000D01*
X13846359Y-25580000D02*
X14153641Y-25580000D01*
%TO.C,R7*%
X15846359Y-32420000D02*
X16153641Y-32420000D01*
X15846359Y-33180000D02*
X16153641Y-33180000D01*
%TO.C,R2*%
X5620000Y-22046359D02*
X5620000Y-22353641D01*
X6380000Y-22046359D02*
X6380000Y-22353641D01*
%TO.C,R14*%
X11620000Y-1246359D02*
X11620000Y-1553641D01*
X12380000Y-1246359D02*
X12380000Y-1553641D01*
%TO.C,R11*%
X19620000Y-31153641D02*
X19620000Y-30846359D01*
X20380000Y-31153641D02*
X20380000Y-30846359D01*
%TO.C,U1*%
D11*
X6500000Y-30800000D02*
G75*
G02*
X6400000Y-30800000I-50000J0D01*
G01*
X6400000Y-30800000D02*
G75*
G02*
X6500000Y-30800000I50000J0D01*
G01*
%TO.C,R10*%
D10*
X17620000Y-31153641D02*
X17620000Y-30846359D01*
X18380000Y-31153641D02*
X18380000Y-30846359D01*
%TO.C,R8*%
X5146359Y-31120000D02*
X5453641Y-31120000D01*
X5146359Y-31880000D02*
X5453641Y-31880000D01*
%TO.C,C2*%
X4792164Y-29340000D02*
X5007836Y-29340000D01*
X4792164Y-30060000D02*
X5007836Y-30060000D01*
%TO.C,J2*%
D12*
X27285000Y-32600000D02*
G75*
G02*
X27115000Y-32600000I-85000J0D01*
G01*
X27115000Y-32600000D02*
G75*
G02*
X27285000Y-32600000I85000J0D01*
G01*
%TO.C,R6*%
D10*
X13846359Y-32420000D02*
X14153641Y-32420000D01*
X13846359Y-33180000D02*
X14153641Y-33180000D01*
%TO.C,R3*%
X3820000Y-21246359D02*
X3820000Y-21553641D01*
X4580000Y-21246359D02*
X4580000Y-21553641D01*
%TO.C,C1*%
X5092164Y-26040000D02*
X5307836Y-26040000D01*
X5092164Y-26760000D02*
X5307836Y-26760000D01*
%TO.C,R12*%
X23620000Y-31153641D02*
X23620000Y-30846359D01*
X24380000Y-31153641D02*
X24380000Y-30846359D01*
%TO.C,R1*%
X7420000Y-22046359D02*
X7420000Y-22353641D01*
X8180000Y-22046359D02*
X8180000Y-22353641D01*
%TD*%
M02*
