%TF.GenerationSoftware,KiCad,Pcbnew,10.0.4*%
%TF.CreationDate,2026-09-21T23:48:29+08:00*%
%TF.ProjectId,controls,636f6e74-726f-46c7-932e-6b696361645f,rev?*%
%TF.SameCoordinates,Original*%
%TF.FileFunction,Legend,Bot*%
%TF.FilePolarity,Positive*%
%FSLAX46Y46*%
G04 Gerber Fmt 4.6, Leading zero omitted, Abs format (unit mm)*
G04 Created by KiCad (PCBNEW 10.0.4) date 2026-09-21 23:48:29*
%MOMM*%
%LPD*%
G01*
G04 APERTURE LIST*
%ADD10C,0.120000*%
%ADD11C,0.100000*%
%ADD12C,0.150000*%
G04 APERTURE END LIST*
D10*
X10671428Y-6463855D02*
X11128571Y-6463855D01*
X10899999Y-6463855D02*
X10899999Y-5663855D01*
X10899999Y-5663855D02*
X10976190Y-5778140D01*
X10976190Y-5778140D02*
X11052380Y-5854331D01*
X11052380Y-5854331D02*
X11128571Y-5892426D01*
D11*
X35509523Y-9864895D02*
X35052380Y-9864895D01*
X35280952Y-10664895D02*
X35280952Y-9864895D01*
X34785713Y-10664895D02*
X34785713Y-9864895D01*
X34785713Y-9864895D02*
X34480951Y-9864895D01*
X34480951Y-9864895D02*
X34404761Y-9902990D01*
X34404761Y-9902990D02*
X34366666Y-9941085D01*
X34366666Y-9941085D02*
X34328570Y-10017276D01*
X34328570Y-10017276D02*
X34328570Y-10131561D01*
X34328570Y-10131561D02*
X34366666Y-10207752D01*
X34366666Y-10207752D02*
X34404761Y-10245847D01*
X34404761Y-10245847D02*
X34480951Y-10283942D01*
X34480951Y-10283942D02*
X34785713Y-10283942D01*
X34023809Y-9941085D02*
X33985713Y-9902990D01*
X33985713Y-9902990D02*
X33909523Y-9864895D01*
X33909523Y-9864895D02*
X33719047Y-9864895D01*
X33719047Y-9864895D02*
X33642856Y-9902990D01*
X33642856Y-9902990D02*
X33604761Y-9941085D01*
X33604761Y-9941085D02*
X33566666Y-10017276D01*
X33566666Y-10017276D02*
X33566666Y-10093466D01*
X33566666Y-10093466D02*
X33604761Y-10207752D01*
X33604761Y-10207752D02*
X34061904Y-10664895D01*
X34061904Y-10664895D02*
X33566666Y-10664895D01*
X38009523Y-9864895D02*
X37552380Y-9864895D01*
X37780952Y-10664895D02*
X37780952Y-9864895D01*
X37285713Y-10664895D02*
X37285713Y-9864895D01*
X37285713Y-9864895D02*
X36980951Y-9864895D01*
X36980951Y-9864895D02*
X36904761Y-9902990D01*
X36904761Y-9902990D02*
X36866666Y-9941085D01*
X36866666Y-9941085D02*
X36828570Y-10017276D01*
X36828570Y-10017276D02*
X36828570Y-10131561D01*
X36828570Y-10131561D02*
X36866666Y-10207752D01*
X36866666Y-10207752D02*
X36904761Y-10245847D01*
X36904761Y-10245847D02*
X36980951Y-10283942D01*
X36980951Y-10283942D02*
X37285713Y-10283942D01*
X36066666Y-10664895D02*
X36523809Y-10664895D01*
X36295237Y-10664895D02*
X36295237Y-9864895D01*
X36295237Y-9864895D02*
X36371428Y-9979180D01*
X36371428Y-9979180D02*
X36447618Y-10055371D01*
X36447618Y-10055371D02*
X36523809Y-10093466D01*
D10*
X7363855Y-14233333D02*
X7935283Y-14233333D01*
X7935283Y-14233333D02*
X8049569Y-14195238D01*
X8049569Y-14195238D02*
X8125760Y-14119047D01*
X8125760Y-14119047D02*
X8163855Y-14004762D01*
X8163855Y-14004762D02*
X8163855Y-13928571D01*
X8163855Y-15033333D02*
X8163855Y-14576190D01*
X8163855Y-14804762D02*
X7363855Y-14804762D01*
X7363855Y-14804762D02*
X7478140Y-14728571D01*
X7478140Y-14728571D02*
X7554331Y-14652381D01*
X7554331Y-14652381D02*
X7592426Y-14576190D01*
D11*
X20509523Y-9864895D02*
X20052380Y-9864895D01*
X20280952Y-10664895D02*
X20280952Y-9864895D01*
X19785713Y-10664895D02*
X19785713Y-9864895D01*
X19785713Y-9864895D02*
X19480951Y-9864895D01*
X19480951Y-9864895D02*
X19404761Y-9902990D01*
X19404761Y-9902990D02*
X19366666Y-9941085D01*
X19366666Y-9941085D02*
X19328570Y-10017276D01*
X19328570Y-10017276D02*
X19328570Y-10131561D01*
X19328570Y-10131561D02*
X19366666Y-10207752D01*
X19366666Y-10207752D02*
X19404761Y-10245847D01*
X19404761Y-10245847D02*
X19480951Y-10283942D01*
X19480951Y-10283942D02*
X19785713Y-10283942D01*
X18871428Y-10207752D02*
X18947618Y-10169657D01*
X18947618Y-10169657D02*
X18985713Y-10131561D01*
X18985713Y-10131561D02*
X19023809Y-10055371D01*
X19023809Y-10055371D02*
X19023809Y-10017276D01*
X19023809Y-10017276D02*
X18985713Y-9941085D01*
X18985713Y-9941085D02*
X18947618Y-9902990D01*
X18947618Y-9902990D02*
X18871428Y-9864895D01*
X18871428Y-9864895D02*
X18719047Y-9864895D01*
X18719047Y-9864895D02*
X18642856Y-9902990D01*
X18642856Y-9902990D02*
X18604761Y-9941085D01*
X18604761Y-9941085D02*
X18566666Y-10017276D01*
X18566666Y-10017276D02*
X18566666Y-10055371D01*
X18566666Y-10055371D02*
X18604761Y-10131561D01*
X18604761Y-10131561D02*
X18642856Y-10169657D01*
X18642856Y-10169657D02*
X18719047Y-10207752D01*
X18719047Y-10207752D02*
X18871428Y-10207752D01*
X18871428Y-10207752D02*
X18947618Y-10245847D01*
X18947618Y-10245847D02*
X18985713Y-10283942D01*
X18985713Y-10283942D02*
X19023809Y-10360133D01*
X19023809Y-10360133D02*
X19023809Y-10512514D01*
X19023809Y-10512514D02*
X18985713Y-10588704D01*
X18985713Y-10588704D02*
X18947618Y-10626800D01*
X18947618Y-10626800D02*
X18871428Y-10664895D01*
X18871428Y-10664895D02*
X18719047Y-10664895D01*
X18719047Y-10664895D02*
X18642856Y-10626800D01*
X18642856Y-10626800D02*
X18604761Y-10588704D01*
X18604761Y-10588704D02*
X18566666Y-10512514D01*
X18566666Y-10512514D02*
X18566666Y-10360133D01*
X18566666Y-10360133D02*
X18604761Y-10283942D01*
X18604761Y-10283942D02*
X18642856Y-10245847D01*
X18642856Y-10245847D02*
X18719047Y-10207752D01*
X18009523Y-9864895D02*
X17552380Y-9864895D01*
X17780952Y-10664895D02*
X17780952Y-9864895D01*
X17285713Y-10664895D02*
X17285713Y-9864895D01*
X17285713Y-9864895D02*
X16980951Y-9864895D01*
X16980951Y-9864895D02*
X16904761Y-9902990D01*
X16904761Y-9902990D02*
X16866666Y-9941085D01*
X16866666Y-9941085D02*
X16828570Y-10017276D01*
X16828570Y-10017276D02*
X16828570Y-10131561D01*
X16828570Y-10131561D02*
X16866666Y-10207752D01*
X16866666Y-10207752D02*
X16904761Y-10245847D01*
X16904761Y-10245847D02*
X16980951Y-10283942D01*
X16980951Y-10283942D02*
X17285713Y-10283942D01*
X16447618Y-10664895D02*
X16295237Y-10664895D01*
X16295237Y-10664895D02*
X16219047Y-10626800D01*
X16219047Y-10626800D02*
X16180951Y-10588704D01*
X16180951Y-10588704D02*
X16104761Y-10474419D01*
X16104761Y-10474419D02*
X16066666Y-10322038D01*
X16066666Y-10322038D02*
X16066666Y-10017276D01*
X16066666Y-10017276D02*
X16104761Y-9941085D01*
X16104761Y-9941085D02*
X16142856Y-9902990D01*
X16142856Y-9902990D02*
X16219047Y-9864895D01*
X16219047Y-9864895D02*
X16371428Y-9864895D01*
X16371428Y-9864895D02*
X16447618Y-9902990D01*
X16447618Y-9902990D02*
X16485713Y-9941085D01*
X16485713Y-9941085D02*
X16523809Y-10017276D01*
X16523809Y-10017276D02*
X16523809Y-10207752D01*
X16523809Y-10207752D02*
X16485713Y-10283942D01*
X16485713Y-10283942D02*
X16447618Y-10322038D01*
X16447618Y-10322038D02*
X16371428Y-10360133D01*
X16371428Y-10360133D02*
X16219047Y-10360133D01*
X16219047Y-10360133D02*
X16142856Y-10322038D01*
X16142856Y-10322038D02*
X16104761Y-10283942D01*
X16104761Y-10283942D02*
X16066666Y-10207752D01*
X28009523Y-9864895D02*
X27552380Y-9864895D01*
X27780952Y-10664895D02*
X27780952Y-9864895D01*
X27285713Y-10664895D02*
X27285713Y-9864895D01*
X27285713Y-9864895D02*
X26980951Y-9864895D01*
X26980951Y-9864895D02*
X26904761Y-9902990D01*
X26904761Y-9902990D02*
X26866666Y-9941085D01*
X26866666Y-9941085D02*
X26828570Y-10017276D01*
X26828570Y-10017276D02*
X26828570Y-10131561D01*
X26828570Y-10131561D02*
X26866666Y-10207752D01*
X26866666Y-10207752D02*
X26904761Y-10245847D01*
X26904761Y-10245847D02*
X26980951Y-10283942D01*
X26980951Y-10283942D02*
X27285713Y-10283942D01*
X26104761Y-9864895D02*
X26485713Y-9864895D01*
X26485713Y-9864895D02*
X26523809Y-10245847D01*
X26523809Y-10245847D02*
X26485713Y-10207752D01*
X26485713Y-10207752D02*
X26409523Y-10169657D01*
X26409523Y-10169657D02*
X26219047Y-10169657D01*
X26219047Y-10169657D02*
X26142856Y-10207752D01*
X26142856Y-10207752D02*
X26104761Y-10245847D01*
X26104761Y-10245847D02*
X26066666Y-10322038D01*
X26066666Y-10322038D02*
X26066666Y-10512514D01*
X26066666Y-10512514D02*
X26104761Y-10588704D01*
X26104761Y-10588704D02*
X26142856Y-10626800D01*
X26142856Y-10626800D02*
X26219047Y-10664895D01*
X26219047Y-10664895D02*
X26409523Y-10664895D01*
X26409523Y-10664895D02*
X26485713Y-10626800D01*
X26485713Y-10626800D02*
X26523809Y-10588704D01*
X33009523Y-9864895D02*
X32552380Y-9864895D01*
X32780952Y-10664895D02*
X32780952Y-9864895D01*
X32285713Y-10664895D02*
X32285713Y-9864895D01*
X32285713Y-9864895D02*
X31980951Y-9864895D01*
X31980951Y-9864895D02*
X31904761Y-9902990D01*
X31904761Y-9902990D02*
X31866666Y-9941085D01*
X31866666Y-9941085D02*
X31828570Y-10017276D01*
X31828570Y-10017276D02*
X31828570Y-10131561D01*
X31828570Y-10131561D02*
X31866666Y-10207752D01*
X31866666Y-10207752D02*
X31904761Y-10245847D01*
X31904761Y-10245847D02*
X31980951Y-10283942D01*
X31980951Y-10283942D02*
X32285713Y-10283942D01*
X31561904Y-9864895D02*
X31066666Y-9864895D01*
X31066666Y-9864895D02*
X31333332Y-10169657D01*
X31333332Y-10169657D02*
X31219047Y-10169657D01*
X31219047Y-10169657D02*
X31142856Y-10207752D01*
X31142856Y-10207752D02*
X31104761Y-10245847D01*
X31104761Y-10245847D02*
X31066666Y-10322038D01*
X31066666Y-10322038D02*
X31066666Y-10512514D01*
X31066666Y-10512514D02*
X31104761Y-10588704D01*
X31104761Y-10588704D02*
X31142856Y-10626800D01*
X31142856Y-10626800D02*
X31219047Y-10664895D01*
X31219047Y-10664895D02*
X31447618Y-10664895D01*
X31447618Y-10664895D02*
X31523809Y-10626800D01*
X31523809Y-10626800D02*
X31561904Y-10588704D01*
X30509523Y-9864895D02*
X30052380Y-9864895D01*
X30280952Y-10664895D02*
X30280952Y-9864895D01*
X29785713Y-10664895D02*
X29785713Y-9864895D01*
X29785713Y-9864895D02*
X29480951Y-9864895D01*
X29480951Y-9864895D02*
X29404761Y-9902990D01*
X29404761Y-9902990D02*
X29366666Y-9941085D01*
X29366666Y-9941085D02*
X29328570Y-10017276D01*
X29328570Y-10017276D02*
X29328570Y-10131561D01*
X29328570Y-10131561D02*
X29366666Y-10207752D01*
X29366666Y-10207752D02*
X29404761Y-10245847D01*
X29404761Y-10245847D02*
X29480951Y-10283942D01*
X29480951Y-10283942D02*
X29785713Y-10283942D01*
X28642856Y-10131561D02*
X28642856Y-10664895D01*
X28833332Y-9826800D02*
X29023809Y-10398228D01*
X29023809Y-10398228D02*
X28528570Y-10398228D01*
X23009523Y-9864895D02*
X22552380Y-9864895D01*
X22780952Y-10664895D02*
X22780952Y-9864895D01*
X22285713Y-10664895D02*
X22285713Y-9864895D01*
X22285713Y-9864895D02*
X21980951Y-9864895D01*
X21980951Y-9864895D02*
X21904761Y-9902990D01*
X21904761Y-9902990D02*
X21866666Y-9941085D01*
X21866666Y-9941085D02*
X21828570Y-10017276D01*
X21828570Y-10017276D02*
X21828570Y-10131561D01*
X21828570Y-10131561D02*
X21866666Y-10207752D01*
X21866666Y-10207752D02*
X21904761Y-10245847D01*
X21904761Y-10245847D02*
X21980951Y-10283942D01*
X21980951Y-10283942D02*
X22285713Y-10283942D01*
X21561904Y-9864895D02*
X21028570Y-9864895D01*
X21028570Y-9864895D02*
X21371428Y-10664895D01*
X15890476Y-9864895D02*
X15433333Y-9864895D01*
X15661905Y-10664895D02*
X15661905Y-9864895D01*
X15166666Y-10664895D02*
X15166666Y-9864895D01*
X15166666Y-9864895D02*
X14861904Y-9864895D01*
X14861904Y-9864895D02*
X14785714Y-9902990D01*
X14785714Y-9902990D02*
X14747619Y-9941085D01*
X14747619Y-9941085D02*
X14709523Y-10017276D01*
X14709523Y-10017276D02*
X14709523Y-10131561D01*
X14709523Y-10131561D02*
X14747619Y-10207752D01*
X14747619Y-10207752D02*
X14785714Y-10245847D01*
X14785714Y-10245847D02*
X14861904Y-10283942D01*
X14861904Y-10283942D02*
X15166666Y-10283942D01*
X13947619Y-10664895D02*
X14404762Y-10664895D01*
X14176190Y-10664895D02*
X14176190Y-9864895D01*
X14176190Y-9864895D02*
X14252381Y-9979180D01*
X14252381Y-9979180D02*
X14328571Y-10055371D01*
X14328571Y-10055371D02*
X14404762Y-10093466D01*
X13452380Y-9864895D02*
X13376190Y-9864895D01*
X13376190Y-9864895D02*
X13299999Y-9902990D01*
X13299999Y-9902990D02*
X13261904Y-9941085D01*
X13261904Y-9941085D02*
X13223809Y-10017276D01*
X13223809Y-10017276D02*
X13185714Y-10169657D01*
X13185714Y-10169657D02*
X13185714Y-10360133D01*
X13185714Y-10360133D02*
X13223809Y-10512514D01*
X13223809Y-10512514D02*
X13261904Y-10588704D01*
X13261904Y-10588704D02*
X13299999Y-10626800D01*
X13299999Y-10626800D02*
X13376190Y-10664895D01*
X13376190Y-10664895D02*
X13452380Y-10664895D01*
X13452380Y-10664895D02*
X13528571Y-10626800D01*
X13528571Y-10626800D02*
X13566666Y-10588704D01*
X13566666Y-10588704D02*
X13604761Y-10512514D01*
X13604761Y-10512514D02*
X13642857Y-10360133D01*
X13642857Y-10360133D02*
X13642857Y-10169657D01*
X13642857Y-10169657D02*
X13604761Y-10017276D01*
X13604761Y-10017276D02*
X13566666Y-9941085D01*
X13566666Y-9941085D02*
X13528571Y-9902990D01*
X13528571Y-9902990D02*
X13452380Y-9864895D01*
X25509523Y-9864895D02*
X25052380Y-9864895D01*
X25280952Y-10664895D02*
X25280952Y-9864895D01*
X24785713Y-10664895D02*
X24785713Y-9864895D01*
X24785713Y-9864895D02*
X24480951Y-9864895D01*
X24480951Y-9864895D02*
X24404761Y-9902990D01*
X24404761Y-9902990D02*
X24366666Y-9941085D01*
X24366666Y-9941085D02*
X24328570Y-10017276D01*
X24328570Y-10017276D02*
X24328570Y-10131561D01*
X24328570Y-10131561D02*
X24366666Y-10207752D01*
X24366666Y-10207752D02*
X24404761Y-10245847D01*
X24404761Y-10245847D02*
X24480951Y-10283942D01*
X24480951Y-10283942D02*
X24785713Y-10283942D01*
X23642856Y-9864895D02*
X23795237Y-9864895D01*
X23795237Y-9864895D02*
X23871428Y-9902990D01*
X23871428Y-9902990D02*
X23909523Y-9941085D01*
X23909523Y-9941085D02*
X23985713Y-10055371D01*
X23985713Y-10055371D02*
X24023809Y-10207752D01*
X24023809Y-10207752D02*
X24023809Y-10512514D01*
X24023809Y-10512514D02*
X23985713Y-10588704D01*
X23985713Y-10588704D02*
X23947618Y-10626800D01*
X23947618Y-10626800D02*
X23871428Y-10664895D01*
X23871428Y-10664895D02*
X23719047Y-10664895D01*
X23719047Y-10664895D02*
X23642856Y-10626800D01*
X23642856Y-10626800D02*
X23604761Y-10588704D01*
X23604761Y-10588704D02*
X23566666Y-10512514D01*
X23566666Y-10512514D02*
X23566666Y-10322038D01*
X23566666Y-10322038D02*
X23604761Y-10245847D01*
X23604761Y-10245847D02*
X23642856Y-10207752D01*
X23642856Y-10207752D02*
X23719047Y-10169657D01*
X23719047Y-10169657D02*
X23871428Y-10169657D01*
X23871428Y-10169657D02*
X23947618Y-10207752D01*
X23947618Y-10207752D02*
X23985713Y-10245847D01*
X23985713Y-10245847D02*
X24023809Y-10322038D01*
X13390476Y-11064895D02*
X12933333Y-11064895D01*
X13161905Y-11864895D02*
X13161905Y-11064895D01*
X12666666Y-11864895D02*
X12666666Y-11064895D01*
X12666666Y-11064895D02*
X12361904Y-11064895D01*
X12361904Y-11064895D02*
X12285714Y-11102990D01*
X12285714Y-11102990D02*
X12247619Y-11141085D01*
X12247619Y-11141085D02*
X12209523Y-11217276D01*
X12209523Y-11217276D02*
X12209523Y-11331561D01*
X12209523Y-11331561D02*
X12247619Y-11407752D01*
X12247619Y-11407752D02*
X12285714Y-11445847D01*
X12285714Y-11445847D02*
X12361904Y-11483942D01*
X12361904Y-11483942D02*
X12666666Y-11483942D01*
X11447619Y-11864895D02*
X11904762Y-11864895D01*
X11676190Y-11864895D02*
X11676190Y-11064895D01*
X11676190Y-11064895D02*
X11752381Y-11179180D01*
X11752381Y-11179180D02*
X11828571Y-11255371D01*
X11828571Y-11255371D02*
X11904762Y-11293466D01*
X10685714Y-11864895D02*
X11142857Y-11864895D01*
X10914285Y-11864895D02*
X10914285Y-11064895D01*
X10914285Y-11064895D02*
X10990476Y-11179180D01*
X10990476Y-11179180D02*
X11066666Y-11255371D01*
X11066666Y-11255371D02*
X11142857Y-11293466D01*
%TO.C,U1*%
D10*
X4090000Y-27190000D02*
X4090000Y-27515000D01*
X4090000Y-30085000D02*
X4090000Y-30410000D01*
X4090000Y-30410000D02*
X4415000Y-30410000D01*
X4415000Y-27190000D02*
X4090000Y-27190000D01*
X6985000Y-30410000D02*
X7310000Y-30410000D01*
X7310000Y-27190000D02*
X6985000Y-27190000D01*
X7310000Y-27515000D02*
X7310000Y-27190000D01*
X7310000Y-30410000D02*
X7310000Y-30085000D01*
X3560000Y-29700000D02*
X3230000Y-29460000D01*
X3230000Y-29940000D01*
X3560000Y-29700000D01*
G36*
X3560000Y-29700000D02*
G01*
X3230000Y-29940000D01*
X3230000Y-29460000D01*
X3560000Y-29700000D01*
G37*
%TO.C,C3*%
X15892164Y-31440000D02*
X16107836Y-31440000D01*
X15892164Y-32160000D02*
X16107836Y-32160000D01*
%TO.C,R9*%
X25620000Y-31153641D02*
X25620000Y-30846359D01*
X26380000Y-31153641D02*
X26380000Y-30846359D01*
%TO.C,R5*%
X12820000Y-28353641D02*
X12820000Y-28046359D01*
X13580000Y-28353641D02*
X13580000Y-28046359D01*
%TO.C,U2*%
D12*
X20925000Y-29150000D02*
G75*
G02*
X20775000Y-29150000I-75000J0D01*
G01*
X20775000Y-29150000D02*
G75*
G02*
X20925000Y-29150000I75000J0D01*
G01*
%TO.C,R4*%
D10*
X12820000Y-26153641D02*
X12820000Y-25846359D01*
X13580000Y-26153641D02*
X13580000Y-25846359D01*
%TO.C,R7*%
X9420000Y-31153641D02*
X9420000Y-30846359D01*
X10180000Y-31153641D02*
X10180000Y-30846359D01*
%TO.C,R13*%
X23620000Y-31153641D02*
X23620000Y-30846359D01*
X24380000Y-31153641D02*
X24380000Y-30846359D01*
%TO.C,R2*%
X5620000Y-22046359D02*
X5620000Y-22353641D01*
X6380000Y-22046359D02*
X6380000Y-22353641D01*
%TO.C,R14*%
X11620000Y-1246359D02*
X11620000Y-1553641D01*
X12380000Y-1246359D02*
X12380000Y-1553641D01*
%TO.C,C4*%
X15892164Y-29440000D02*
X16107836Y-29440000D01*
X15892164Y-30160000D02*
X16107836Y-30160000D01*
%TO.C,R11*%
X29620000Y-31153641D02*
X29620000Y-30846359D01*
X30380000Y-31153641D02*
X30380000Y-30846359D01*
%TO.C,R10*%
X27620000Y-31153641D02*
X27620000Y-30846359D01*
X28380000Y-31153641D02*
X28380000Y-30846359D01*
%TO.C,R8*%
X13420000Y-21646359D02*
X13420000Y-21953641D01*
X14180000Y-21646359D02*
X14180000Y-21953641D01*
%TO.C,C2*%
X11892164Y-23740000D02*
X12107836Y-23740000D01*
X11892164Y-24460000D02*
X12107836Y-24460000D01*
%TO.C,R6*%
X11620000Y-31153641D02*
X11620000Y-30846359D01*
X12380000Y-31153641D02*
X12380000Y-30846359D01*
%TO.C,R3*%
X3820000Y-21246359D02*
X3820000Y-21553641D01*
X4580000Y-21246359D02*
X4580000Y-21553641D01*
%TO.C,C1*%
X7192164Y-25640000D02*
X7407836Y-25640000D01*
X7192164Y-26360000D02*
X7407836Y-26360000D01*
%TO.C,R12*%
X31620000Y-31153641D02*
X31620000Y-30846359D01*
X32380000Y-31153641D02*
X32380000Y-30846359D01*
%TO.C,R1*%
X7420000Y-22046359D02*
X7420000Y-22353641D01*
X8180000Y-22046359D02*
X8180000Y-22353641D01*
%TD*%
M02*
