%TF.GenerationSoftware,KiCad,Pcbnew,10.0.4*%
%TF.CreationDate,2026-09-21T23:48:29+08:00*%
%TF.ProjectId,controls,636f6e74-726f-46c7-932e-6b696361645f,rev?*%
%TF.SameCoordinates,Original*%
%TF.FileFunction,Copper,L1,Top*%
%TF.FilePolarity,Positive*%
%FSLAX46Y46*%
G04 Gerber Fmt 4.6, Leading zero omitted, Abs format (unit mm)*
G04 Created by KiCad (PCBNEW 10.0.4) date 2026-09-21 23:48:29*
%MOMM*%
%LPD*%
G01*
G04 APERTURE LIST*
G04 Aperture macros list*
%AMFreePoly0*
4,1,476,-1.470255,9.232936,-1.414832,9.214833,-1.381824,9.194162,-1.341342,9.152202,-1.321866,9.118475,-1.305760,9.062439,-1.306500,9.004140,-1.341087,8.758619,-1.389715,8.310872,-1.420331,7.859459,-1.432536,7.408152,-1.426405,6.959731,-1.402161,6.513921,-1.359646,6.068419,-1.299681,5.630018,-1.223085,5.200369,-1.177809,4.984541,-1.075197,4.560290,-1.016397,4.346133,-0.888870,3.931820,
-0.744571,3.523003,-0.586054,3.126005,-0.411134,2.734795,-0.221324,2.352812,-0.017586,1.981502,0.201112,1.618750,0.432761,1.267729,0.677346,0.928047,0.934334,0.600174,1.203171,0.284556,1.483290,-0.018386,1.774109,-0.308260,2.077329,-0.586714,2.387034,-0.848639,2.707201,-1.097743,3.034819,-1.331825,3.201520,-1.443390,3.536806,-1.653326,3.883040,-1.851013,4.236220,-2.033907,
4.592935,-2.200498,4.970831,-2.356773,5.015078,-2.361415,5.058736,-2.352859,5.097958,-2.331862,5.129286,-2.300273,5.149958,-2.260878,5.158150,-2.217150,5.151779,-2.168176,5.132672,-2.127999,5.100703,-2.093610,4.800265,-1.861846,4.512481,-1.620670,4.369880,-1.493471,4.102586,-1.239934,3.969091,-1.105302,3.717136,-0.835013,3.480326,-0.559322,3.253613,-0.272594,3.142743,-0.123106,
2.935865,0.174620,2.744521,0.475379,2.564507,0.785483,2.477744,0.946195,2.318568,1.264160,2.174954,1.582793,2.043633,1.908953,1.981894,2.077138,1.873146,2.404054,1.822272,2.574283,1.733592,2.908354,1.659904,3.239818,1.599397,3.576081,1.573876,3.748395,1.534653,4.084799,1.509623,4.416453,1.498053,4.750962,1.500193,5.083677,1.516161,5.418133,1.544932,5.741503,
1.572388,5.953874,1.585537,5.991234,1.618343,6.040618,1.647685,6.067221,1.681694,6.087521,1.719036,6.100721,1.758247,6.106303,1.797789,6.104049,1.836112,6.094047,1.888049,6.065454,1.916997,6.038423,1.940050,6.006217,1.956304,5.970100,1.966624,5.911717,1.974628,5.696174,1.993052,5.432413,2.021209,5.164248,2.080439,4.768145,2.159735,4.378237,2.224938,4.116601,
2.338719,3.732596,2.472442,3.355072,2.624678,2.987458,2.738607,2.743070,2.859851,2.505161,3.055754,2.158840,3.198616,1.930158,3.347951,1.708799,3.584599,1.388934,3.754266,1.179367,3.929464,0.977857,4.203331,0.689217,4.397273,0.501889,4.695253,0.238215,4.904784,0.068504,5.224612,-0.168196,5.448137,-0.319000,5.787377,-0.526924,6.023195,-0.657672,6.379266,-0.835238,
6.625582,-0.944936,6.995774,-1.090793,7.250713,-1.178606,7.632208,-1.291643,7.893831,-1.356903,8.283727,-1.436260,8.550042,-1.478469,8.947978,-1.523776,9.214350,-1.542381,9.453794,-1.550979,9.765363,-1.599549,10.074348,-1.636882,10.235731,-1.651333,10.549397,-1.669658,10.870675,-1.675196,11.191829,-1.667468,11.514369,-1.646408,11.834679,-1.612276,12.162388,-1.563643,12.481693,-1.502751,
12.643080,-1.466832,12.965901,-1.384445,13.284994,-1.288879,13.605638,-1.178278,13.920426,-1.054945,14.231702,-0.917999,14.536141,-0.768932,14.841369,-0.603637,15.138589,-0.426467,15.429957,-0.236177,15.714897,-0.032953,15.992837,0.182993,16.263214,0.411424,16.525471,0.652079,16.777640,0.903197,17.024122,1.169659,17.256154,1.442028,17.369719,1.583868,17.590714,1.878052,17.798819,2.180178,
17.899140,2.335862,18.087791,2.649208,18.266464,2.975295,18.433850,3.312965,18.603344,3.694039,18.625323,3.727059,18.669363,3.766886,18.704420,3.785444,18.742450,3.796719,18.781958,3.800267,18.821388,3.795948,18.859191,3.783932,18.893879,3.764692,18.924087,3.738984,18.948628,3.707821,18.966536,3.672427,18.979498,3.614482,18.975682,3.553813,18.946119,3.355464,18.875992,2.967348,
18.790640,2.584427,18.740435,2.387703,18.631019,2.007839,18.568433,1.813128,18.435016,1.437840,18.282642,1.058891,18.117488,0.692071,18.028163,0.508737,17.835739,0.142831,17.631660,-0.209617,17.522852,-0.385040,17.291487,-0.733650,17.049730,-1.067577,16.922141,-1.233012,16.653397,-1.560166,16.375655,-1.871531,16.230208,-2.024961,15.926092,-2.326643,15.614490,-2.611563,15.452327,-2.751058,
15.118494,-3.020948,14.769050,-3.280591,14.414409,-3.522356,14.231155,-3.639314,13.852884,-3.864707,13.467545,-4.073482,13.075934,-4.265587,12.874767,-4.356820,12.465698,-4.527502,12.044323,-4.683449,11.618902,-4.821434,11.190239,-4.941547,10.971479,-4.995760,10.525430,-5.091888,10.077867,-5.169389,9.852257,-5.201416,9.379149,-5.255214,9.347125,-5.266702,9.322335,-5.282096,9.266263,-5.344648,
9.236001,-5.369361,9.201513,-5.387720,9.144764,-5.401884,7.214334,-5.403070,7.214334,-8.402610,12.013874,-8.402610,12.014104,-5.763206,12.017896,-5.724447,12.029127,-5.687158,12.047371,-5.652752,12.071937,-5.622535,12.118545,-5.587512,12.173272,-5.567418,12.487538,-5.527349,12.965791,-5.450658,13.441507,-5.354460,13.916835,-5.238076,14.387023,-5.102528,14.851319,-4.948100,15.086959,-4.861672,
15.542837,-4.678544,15.996467,-4.474674,16.224391,-4.363746,16.666477,-4.131632,17.098799,-3.881863,17.316447,-3.747124,17.736935,-3.468707,18.145810,-3.173552,18.350686,-3.015960,18.744708,-2.693266,19.125355,-2.354941,19.315050,-2.175719,19.677930,-1.811283,20.027794,-1.430237,20.361302,-1.036161,20.525931,-0.829187,20.836060,-0.413982,21.132604,0.018386,21.276807,0.243047,21.547446,0.694400,
21.799633,1.156284,21.921513,1.396599,22.147256,1.877521,22.353397,2.367136,22.455614,2.632882,22.483647,2.684722,22.510257,2.713737,22.542034,2.736977,22.596655,2.759109,22.655355,2.764362,22.694238,2.758198,22.731161,2.744536,22.779774,2.711219,22.816565,2.665180,22.832897,2.629358,22.841895,2.591030,22.840960,2.532104,22.787195,2.241483,22.670200,1.704005,22.602943,1.434451,
22.451730,0.898257,22.366542,0.628001,22.183355,0.102979,22.081397,-0.163013,21.865550,-0.678726,21.747029,-0.939411,21.498983,-1.443778,21.366101,-1.694567,21.225930,-1.946568,20.935890,-2.432678,20.620918,-2.915109,20.290230,-3.379454,20.116271,-3.608751,19.753679,-4.057724,19.369188,-4.496162,18.971482,-4.914290,18.764431,-5.119219,18.334001,-5.520026,17.889218,-5.901716,17.431025,-6.263916,
17.194332,-6.439684,16.709299,-6.777542,16.457726,-6.941637,16.205872,-7.098704,15.950465,-7.250906,15.691599,-7.398163,15.167488,-7.675713,14.898866,-7.807749,14.627177,-7.934541,14.352524,-8.056021,14.071267,-8.173640,13.790970,-8.284214,13.508027,-8.389276,13.222546,-8.488765,12.934639,-8.582621,12.648293,-8.669650,12.355888,-8.752148,12.057472,-8.829826,11.760981,-8.900597,11.462632,-8.965471,
11.166515,-9.023662,10.864818,-9.076684,10.561617,-9.123677,10.257033,-9.164603,9.951188,-9.199425,9.644203,-9.228107,9.330183,-9.250077,8.812491,-9.231874,8.545085,-9.215549,8.007859,-9.168548,7.479528,-9.103677,7.214562,-9.064108,6.683477,-8.970464,6.162811,-8.859793,5.902302,-8.797281,5.639551,-8.729330,5.127874,-8.582608,4.614990,-8.415962,4.114793,-8.233906,3.865519,-8.135747,
3.369111,-7.925034,2.886685,-7.700075,2.646915,-7.580564,2.170760,-7.327388,1.709777,-7.061239,1.481335,-6.921285,1.029058,-6.627574,0.593025,-6.322260,0.377650,-6.162929,-0.047307,-5.830916,-0.254009,-5.660484,-0.655740,-5.311265,-0.855833,-5.127914,-1.238736,-4.758148,-1.613350,-4.370224,-1.794321,-4.172684,-2.143540,-3.770953,-2.482919,-3.351856,-2.645984,-3.139294,-2.958861,-2.708656,
-3.260422,-2.261574,-3.542497,-1.810160,-3.678495,-1.579341,-3.812136,-1.343131,-4.062035,-0.873140,-4.298439,-0.388440,-4.514944,0.097839,-4.617495,0.345338,-4.716961,0.597849,-4.899018,1.098045,-5.065664,1.610929,-5.141724,1.867810,-5.279493,2.381970,-5.400804,2.907427,-5.502371,3.429945,-5.546618,3.694170,-5.621671,4.228200,-5.651968,4.494386,-5.698361,5.024658,-5.714930,5.295547,
-5.731149,5.774995,-5.724371,5.813996,-5.710043,5.850899,-5.675701,5.899191,-5.628716,5.935301,-5.592370,5.950988,-5.553647,5.959208,-5.494433,5.956919,-5.438489,5.937379,-5.390726,5.902305,-5.365541,5.871763,-5.346865,5.836859,-5.332579,5.779349,-5.297032,5.470607,-5.256649,5.173972,-5.210204,4.877709,-5.100296,4.292743,-5.035456,3.997350,-4.890998,3.423037,-4.723507,2.854991,
-4.629969,2.570024,-4.428900,2.015092,-4.207923,1.474305,-4.087119,1.202516,-3.834612,0.677917,-3.560666,0.163019,-3.267659,-0.337792,-3.111575,-0.586855,-2.791475,-1.064767,-2.451746,-1.530212,-2.273459,-1.759465,-1.909931,-2.198769,-1.528972,-2.623075,-1.329486,-2.832091,-0.927749,-3.228236,-0.717052,-3.423748,-0.293513,-3.793478,0.144610,-4.145842,0.371981,-4.317571,0.826618,-4.639746,
1.061906,-4.795964,1.534445,-5.089414,2.014936,-5.361584,2.263479,-5.492557,2.758756,-5.734578,3.009720,-5.847810,3.054866,-5.859359,3.098961,-5.857054,3.144758,-5.839584,3.179185,-5.811936,3.204060,-5.775455,3.217221,-5.733307,3.217526,-5.689154,3.204949,-5.646828,3.180581,-5.610006,3.152868,-5.585702,2.717628,-5.276058,2.504192,-5.114275,2.088524,-4.778861,1.688276,-4.428214,
1.303998,-4.063030,0.936211,-3.684024,0.582763,-3.288856,0.249513,-2.884316,0.089560,-2.677660,-0.214437,-2.259382,-0.363017,-2.041310,-0.641551,-1.604414,-0.901158,-1.158323,-1.141550,-0.703850,-1.360801,-0.245505,-1.562192,0.223198,-1.743717,0.697808,-1.906442,1.181355,-2.047669,1.665315,-2.110708,1.908617,-2.220788,2.393370,-2.312244,2.888192,-2.382140,3.376313,-2.393752,3.514367,
-2.379998,3.571914,-2.350008,3.622919,-2.306407,3.662917,-2.253011,3.688408,-2.194493,3.697160,-1.886126,3.697390,-1.887256,8.527829,-1.882496,8.564373,-1.856446,8.647196,-1.690085,9.109040,-1.672362,9.143720,-1.648253,9.174308,-1.602176,9.210033,-1.566546,9.225761,-1.509101,9.235734,-1.470255,9.232936,-1.470255,9.232936,$1*%
%AMFreePoly1*
4,1,454,-6.944956,13.520566,-6.407497,13.457803,-5.841385,13.368823,-5.553097,13.314508,-4.990490,13.190731,-4.704569,13.118675,-4.147613,12.960204,-3.865156,12.870497,-3.315997,12.677566,-3.038097,12.570365,-2.765714,12.458873,-2.230277,12.220593,-1.960140,12.090431,-1.437464,11.818758,-1.177910,11.673741,-0.917441,11.521178,-0.415020,11.206059,-0.163028,11.037160,0.082575,10.865199,0.561118,10.508149,
0.800217,10.318210,1.032675,10.125705,1.258542,9.930887,1.483831,9.728540,1.708275,9.518551,1.925866,9.306511,2.136672,9.092669,2.349015,8.868380,2.554371,8.642439,2.755450,8.412019,2.949592,8.180324,3.144389,7.938067,3.332060,7.694702,3.512703,7.450467,3.691036,7.198952,3.856777,6.954894,4.110153,6.480551,4.346557,5.995851,4.563063,5.509573,4.665613,5.262073,
4.858873,4.758614,5.032173,4.255316,5.113783,3.996482,5.260504,3.484804,5.327611,3.225441,5.448922,2.699985,5.502304,2.437452,5.594737,1.913241,5.669790,1.379211,5.725430,0.849829,5.746723,0.579271,5.763048,0.311865,5.781625,-0.220109,5.781625,-0.759387,5.763048,-1.291361,5.746723,-1.558768,5.725430,-1.829326,5.669790,-2.358708,5.594737,-2.892738,5.502304,-3.416949,
5.448197,-3.682896,5.390182,-3.944443,5.261407,-4.460929,5.112762,-4.979317,4.948273,-5.485562,4.858873,-5.738110,4.763829,-5.992318,4.564426,-6.485856,4.456208,-6.734742,4.231249,-7.217168,3.986422,-7.697668,3.728359,-8.163226,3.592413,-8.394076,3.306639,-8.851410,3.008982,-9.292705,2.853434,-9.510828,2.692002,-9.728990,2.364287,-10.148447,2.191659,-10.357862,1.842440,-10.759592,
1.474653,-11.153995,1.098261,-11.530387,0.901398,-11.717203,0.505824,-12.073380,0.299454,-12.249636,-0.116970,-12.586771,-0.542082,-12.907116,-0.980939,-13.214482,-1.207252,-13.364275,-1.433216,-13.508194,-1.596966,-13.608540,-1.632601,-13.625782,-1.670933,-13.635667,-1.710461,-13.637810,-1.768611,-13.626404,-1.804402,-13.609489,-1.836159,-13.585855,-1.873568,-13.539898,-1.890265,-13.504005,-1.899564,-13.465526,
-1.901103,-13.425970,-1.894821,-13.386885,-1.871353,-13.332472,-1.847238,-13.301079,-1.331105,-12.906605,-1.097756,-12.718250,-0.867881,-12.524877,-0.643100,-12.327889,-0.209710,-11.924325,0.002424,-11.714474,0.211296,-11.499250,0.610640,-11.061910,0.988150,-10.613459,1.171471,-10.381831,1.350351,-10.146116,1.523512,-9.908033,1.851017,-9.427901,2.008679,-9.181060,2.308539,-8.678441,2.583523,-8.172095,
2.715671,-7.910107,2.958178,-7.390737,3.073218,-7.123530,3.283067,-6.592264,3.381512,-6.319025,3.557497,-5.779818,3.637949,-5.505472,3.713184,-5.228071,3.844300,-4.679305,3.902267,-4.399319,3.999178,-3.847562,4.039999,-3.565060,4.096949,-3.069177,4.111412,-3.012493,4.129956,-2.978095,4.169361,-2.934859,4.219591,-2.904873,4.256998,-2.893566,4.295888,-2.889748,4.933784,-2.889518,
4.933784,1.910022,1.934244,1.910022,1.934244,-2.889518,3.041760,-2.889748,3.081043,-2.893644,3.118795,-2.905180,3.153547,-2.923906,3.197130,-2.963812,3.227150,-3.014712,3.238277,-3.052587,3.241748,-3.091910,3.232387,-3.150256,3.164087,-3.365430,2.990171,-3.860919,2.894497,-4.108984,2.691831,-4.590174,2.472492,-5.057323,2.233541,-5.517064,2.105483,-5.746071,1.840456,-6.187798,
1.558851,-6.616758,1.412018,-6.826257,1.109163,-7.231724,0.786283,-7.629327,0.454240,-8.005947,0.278918,-8.193021,0.102991,-8.373217,-0.255578,-8.718943,-0.632427,-9.053911,-1.014724,-9.366933,-1.214779,-9.520816,-1.612962,-9.808272,-1.820760,-9.948874,-2.027564,-10.082725,-2.444305,-10.334914,-2.876279,-10.572951,-3.308507,-10.788765,-3.532658,-10.892289,-3.974450,-11.080251,-4.203085,-11.169410,
-4.652666,-11.329158,-4.884874,-11.403791,-5.340460,-11.535073,-5.575327,-11.595075,-6.039107,-11.698555,-6.522255,-11.785404,-6.561151,-11.787395,-6.599695,-11.781810,-6.636426,-11.768861,-6.669952,-11.749039,-6.698999,-11.723095,-6.731823,-11.674908,-6.745330,-11.638379,-6.751752,-11.580429,-6.746571,-11.541829,-6.734007,-11.504964,-6.714536,-11.471234,-6.674061,-11.429268,-6.623202,-11.400759,-6.393281,-11.307952,
-5.981207,-11.126191,-5.574964,-10.926999,-5.178018,-10.711916,-4.792740,-10.482396,-4.418779,-10.238494,-4.054220,-9.978925,-3.704536,-9.707793,-3.370747,-9.426634,-3.206472,-9.279510,-2.890367,-8.978520,-2.734302,-8.820519,-2.439259,-8.502921,-2.157362,-8.173546,-1.892810,-7.837767,-1.641473,-7.490677,-1.405571,-7.135305,-1.185876,-6.773208,-0.981073,-6.402434,-0.792904,-6.026310,-0.621024,-5.644651,
-0.465571,-5.258157,-0.326657,-4.867528,-0.204360,-4.473466,-0.098732,-4.076673,-0.009193,-3.674850,0.062787,-3.275676,0.118434,-2.873850,0.157347,-2.473084,0.170614,-2.272934,0.184781,-1.877600,0.182866,-1.478909,0.164667,-1.081599,0.130582,-0.689379,0.076972,-0.283974,0.058868,-0.243335,0.029630,-0.209803,-0.008166,-0.186335,-0.051186,-0.174998,-0.095639,-0.176794,-0.137605,-0.191563,
-0.173385,-0.218003,-0.202073,-0.258203,-0.215870,-0.303083,-0.266365,-0.679152,-0.331338,-1.048969,-0.370195,-1.236064,-0.456117,-1.594316,-0.505964,-1.777242,-0.614063,-2.130586,-0.734414,-2.473515,-0.869371,-2.813218,-0.943397,-2.983979,-1.097796,-3.312003,-1.262589,-3.628092,-1.441140,-3.939040,-1.536939,-4.094535,-1.732717,-4.391368,-1.936854,-4.675058,-2.153657,-4.951865,-2.268439,-5.089425,
-2.497183,-5.347061,-2.619169,-5.476235,-2.864142,-5.720069,-3.114355,-5.949617,-3.375314,-6.170149,-3.511781,-6.278408,-3.783505,-6.480578,-4.058211,-6.668081,-4.342118,-6.845356,-4.631328,-7.009860,-4.928960,-7.163260,-5.223391,-7.300028,-5.421038,-7.382436,-5.459967,-7.389728,-5.499570,-7.389206,-5.556848,-7.373900,-5.591433,-7.354598,-5.634528,-7.313882,-5.655762,-7.280448,-5.669992,-7.243486,
-5.676658,-7.204445,-5.675500,-7.164856,-5.666564,-7.126271,-5.650199,-7.090203,-5.627048,-7.058068,-5.581647,-7.019939,-5.398984,-6.905236,-5.179772,-6.757400,-4.961613,-6.598933,-4.648193,-6.349586,-4.350170,-6.085960,-4.156188,-5.898674,-3.880521,-5.608134,-3.620437,-5.303566,-3.378192,-4.987918,-3.223509,-4.767059,-3.078097,-4.543104,-2.876126,-4.200287,-2.749512,-3.962223,-2.632477,-3.722216,
-2.473790,-3.357340,-2.377133,-3.105621,-2.290220,-2.853140,-2.177183,-2.471644,-2.111923,-2.210022,-2.032566,-1.820126,-1.990356,-1.553811,-1.945282,-1.158482,-1.926445,-0.889502,-1.915997,-0.491750,-1.920675,-0.222151,-1.944934,0.174998,-1.973090,0.443163,-2.031870,0.836687,-2.083292,1.101378,-2.176147,1.488281,-2.250441,1.747483,-2.376664,2.124821,-2.473267,2.376561,-2.632998,2.743837,
-2.748888,2.981490,-2.874323,3.221974,-2.974920,3.486731,-3.036198,3.634545,-3.164636,3.919125,-3.236041,4.065121,-3.384216,4.345641,-3.545308,4.622433,-3.718717,4.894031,-3.904283,5.159892,-4.002195,5.291316,-4.203056,5.544365,-4.418064,5.793611,-4.645200,6.035997,-4.882057,6.268791,-5.132808,6.495723,-5.391864,6.711415,-5.661129,6.917498,-5.941099,7.114067,-6.228834,7.298958,
-6.526498,7.473429,-6.832815,7.636482,-7.147346,7.787702,-7.469631,7.926691,-7.799194,8.053070,-8.135536,8.166479,-8.476170,8.266041,-8.652632,8.311772,-8.999643,8.390442,-9.358577,8.456525,-9.539220,8.484033,-9.897383,8.527440,-10.263075,8.556727,-10.634709,8.571172,-11.006565,8.570315,-11.379038,8.554199,-11.748456,8.523132,-11.959656,8.498414,-12.019028,8.499246,-12.057337,8.509533,
-12.109139,8.538554,-12.137918,8.565852,-12.169634,8.616049,-12.185215,8.673346,-12.185896,8.713006,-12.172294,8.770804,-12.153995,8.805998,-12.114497,8.850332,-12.063722,8.881115,-11.672937,9.031332,-11.302060,9.156161,-11.112137,9.213731,-10.723571,9.318567,-10.337061,9.406125,-10.139823,9.444556,-9.741728,9.509561,-9.335285,9.558949,-8.929234,9.591495,-8.524274,9.607483,-8.318852,9.609359,
-7.906609,9.600528,-7.493079,9.574801,-7.078955,9.532061,-6.660924,9.471555,-6.247757,9.394391,-5.836128,9.300038,-5.426753,9.188495,-5.020352,9.059794,-4.617645,8.913994,-4.219353,8.751186,-3.826196,8.571491,-3.438889,8.375060,-3.058145,8.162076,-2.684672,7.932750,-2.319170,7.687325,-1.965562,7.428539,-1.790556,7.292136,-1.447887,7.007846,-1.115568,6.708535,-0.794253,6.394578,
-0.484584,6.066379,-0.187190,5.724369,0.097319,5.369008,0.386327,4.979468,0.430159,4.949141,0.476975,4.936490,0.530116,4.940613,0.582386,4.965945,0.613051,4.997057,0.633440,5.035692,0.641819,5.078566,0.637476,5.122034,0.537293,5.358899,0.439223,5.573512,0.229448,5.997886,0.002165,6.414262,-0.120478,6.623477,-0.374366,7.027725,-0.644371,7.421350,-0.788437,7.618267,
-1.083731,7.997097,-1.240466,8.186036,-1.560238,8.548445,-1.729200,8.728592,-2.072537,9.073000,-2.253231,9.243564,-2.619117,9.568442,-2.810998,9.728661,-3.004927,9.883959,-3.398327,10.179896,-3.605027,10.325762,-4.018190,10.598885,-4.449855,10.859756,-4.669798,10.983653,-5.112902,11.215877,-5.573260,11.433863,-6.038320,11.631404,-6.278701,11.725001,-6.757729,11.894917,-7.041780,11.986258,
-7.076543,12.004674,-7.120290,12.044099,-7.142212,12.076765,-7.157315,12.113090,-7.165986,12.171339,-7.165986,13.321674,-7.162110,13.360858,-7.150632,13.398523,-7.131998,13.433209,-7.106929,13.463572,-7.059446,13.498494,-7.022992,13.513378,-6.984330,13.520831,-6.944956,13.520566,-6.944956,13.520566,$1*%
%AMFreePoly2*
4,1,425,8.867404,11.071018,9.135052,11.059301,9.666054,11.022170,9.936199,10.996158,10.464529,10.931287,10.732943,10.891173,11.257154,10.798740,11.784648,10.686618,12.045143,10.624047,12.559303,10.486278,13.075018,10.328609,13.329068,10.243572,13.829265,10.061516,14.329275,9.859499,14.815553,9.642993,15.057373,9.527685,15.300253,9.406589,15.706651,9.191219,15.739400,9.168980,15.767127,9.140726,
15.796990,9.089543,15.810545,9.031856,15.809871,8.992276,15.801414,8.953603,15.785506,8.917354,15.762770,8.884948,15.734096,8.857655,15.700609,8.836544,15.663619,8.822442,15.624577,8.815902,15.565517,8.820748,14.968642,9.069370,14.685084,9.178753,14.123524,9.376024,13.839146,9.466363,13.554450,9.550511,13.266646,9.629299,12.975821,9.702575,12.687010,9.769139,12.111098,9.883688,
11.528021,9.975402,10.874600,10.052774,10.822319,10.076142,10.778803,10.113368,10.747619,10.161399,10.734993,10.197505,10.729744,10.230219,5.930183,10.230220,5.928967,9.769601,5.921131,9.730698,5.905769,9.694108,5.883485,9.661271,5.839065,9.621828,5.785019,9.597173,5.254038,9.439180,4.985443,9.350394,4.455323,9.157133,3.934375,8.942945,3.423442,8.708208,2.925137,8.454298,
2.681046,8.320428,2.205974,8.040895,1.737479,7.739066,1.291428,7.425473,1.254923,7.389177,1.234873,7.349837,1.227159,7.306361,1.233833,7.257802,1.252990,7.218019,1.282910,7.185547,1.320996,7.163206,1.363939,7.152936,1.408012,7.155628,1.442916,7.167475,1.932411,7.391191,2.427715,7.593737,2.928933,7.775388,3.435188,7.935998,3.945601,8.075455,4.459294,8.193687,
4.717096,8.244829,5.230055,8.330576,5.493009,8.366357,5.726788,8.392370,5.785544,8.384514,5.822308,8.369795,5.855451,8.348121,5.883673,8.320342,5.905869,8.287546,5.926033,8.231801,5.929953,8.192395,5.930183,7.230680,10.729724,7.230680,10.729953,7.656871,10.733862,7.696217,10.745435,7.734026,10.776098,7.784654,10.804244,7.812425,10.837304,7.834116,10.873985,7.848880,
10.912853,7.856138,10.971925,7.852417,11.279957,7.749220,11.745952,7.573143,12.198892,7.380767,12.645555,7.169384,12.868504,7.055403,13.298789,6.818563,13.717410,6.565507,14.123761,6.296789,14.514022,6.015423,14.894222,5.717257,15.260498,5.405215,15.612352,5.079930,15.952119,4.739125,16.114816,4.565620,16.425874,4.213109,16.601797,3.998398,16.626021,3.945364,16.633921,3.887597,
16.624824,3.830007,16.609641,3.794142,16.574623,3.747525,16.544406,3.722953,16.510000,3.704703,16.453421,3.690624,16.414474,3.690621,16.357893,3.704691,16.307774,3.734481,16.112441,3.887195,15.748994,4.153181,15.373367,4.405402,14.988626,4.641626,14.597217,4.860526,14.199011,5.062435,13.791939,5.248368,13.382290,5.415637,12.971904,5.564127,12.762354,5.632831,12.343636,5.756092,
12.128770,5.812247,11.706202,5.908963,11.280006,5.988405,10.856937,6.049624,10.430679,6.093744,10.004967,6.120355,9.581534,6.129568,9.158033,6.121546,8.738215,6.096443,8.321749,6.054466,7.909309,5.995845,7.501558,5.920834,7.099142,5.829715,6.702694,5.722795,6.309936,5.599426,5.928251,5.462176,5.552437,5.309455,5.185906,5.142771,5.005937,5.054186,4.656485,4.868788,
4.312166,4.667784,3.977185,4.453368,3.654555,4.227739,3.330269,3.978609,3.304126,3.942611,3.289706,3.900524,3.288940,3.851143,3.302046,3.808629,3.327059,3.771837,3.361772,3.744011,3.403125,3.727605,3.447473,3.724064,3.493239,3.734555,3.844172,3.878860,4.196929,4.007501,4.378386,4.067397,4.731603,4.172112,4.914945,4.220406,5.275000,4.303461,5.632160,4.370699,
5.993830,4.423675,6.178726,4.444947,6.540003,4.475245,6.896140,4.490574,7.254705,4.491419,7.437267,4.486202,7.792221,4.465069,8.139972,4.430127,8.488096,4.380774,8.664618,4.350149,9.002109,4.280869,9.174969,4.239813,9.508622,4.149577,9.832523,4.047661,10.153989,3.931929,10.315977,3.867875,10.626924,3.733640,10.926659,3.589490,11.222138,3.432256,11.509207,3.264045,
11.790871,3.082988,12.056531,2.896387,12.226722,2.766424,12.263034,2.719557,12.278867,2.683253,12.287235,2.644541,12.287811,2.604939,12.280571,2.566000,12.255761,2.512153,12.230865,2.481349,12.200388,2.456055,12.165523,2.437263,12.127639,2.425710,12.088222,2.421848,12.048816,2.425830,11.993095,2.446084,11.802428,2.546924,11.564792,2.662848,11.318476,2.772547,10.945826,2.919303,
10.568507,3.045585,10.309322,3.119935,9.919873,3.213401,9.526067,3.286355,9.131585,3.338322,8.862975,3.361851,8.596318,3.375804,8.198444,3.379308,7.928968,3.369927,7.662598,3.351279,7.267263,3.306268,7.000939,3.264115,6.738827,3.213144,6.351924,3.120289,6.092722,3.045994,5.715384,2.919772,5.463644,2.823169,5.098743,2.664540,4.856380,2.546364,4.506693,2.356535,
4.275552,2.217685,3.943740,1.998102,3.725580,1.839635,3.414169,1.591968,3.210651,1.415090,2.922010,1.141224,2.734682,0.947282,2.556026,0.748832,2.302913,0.441830,2.063093,0.117801,1.915224,-0.101389,1.769676,-0.330261,1.590688,-0.549760,1.493317,-0.676734,1.311082,-0.930255,1.220348,-1.065092,1.051499,-1.333674,0.892336,-1.611580,0.743829,-1.897556,0.606370,-2.191192,
0.541509,-2.341698,0.422794,-2.642173,0.314444,-2.952999,0.218099,-3.270898,0.134922,-3.592418,0.063769,-3.923041,0.006502,-4.255236,-0.037339,-4.591468,-0.067383,-4.929143,-0.083840,-5.273845,-0.086105,-5.618865,-0.074154,-5.965669,-0.048137,-6.310610,-0.007353,-6.660243,0.047721,-7.007847,0.081614,-7.185983,0.158692,-7.532429,0.203103,-7.706603,0.301225,-8.047591,0.416084,-8.392966,
0.478916,-8.564020,0.613215,-8.897806,0.764791,-9.234168,0.845852,-9.400142,1.015848,-9.722865,1.203463,-10.046289,1.404191,-10.361673,1.615805,-10.666065,1.742811,-10.836611,1.771777,-10.888444,1.784247,-10.946497,1.779124,-11.005652,1.756859,-11.060697,1.733403,-11.092685,1.704096,-11.119416,1.651737,-11.147418,1.593463,-11.158815,1.534412,-11.152600,1.497194,-11.138880,1.463416,-11.118085,
1.141044,-10.857397,0.841386,-10.593232,0.557191,-10.321332,0.417324,-10.179141,0.145413,-9.885257,-0.118170,-9.575869,-0.367585,-9.257589,-0.604996,-8.927799,-0.829879,-8.586952,-1.039697,-8.239054,-1.140653,-8.059568,-1.332190,-7.693292,-1.509512,-7.317721,-1.672180,-6.933409,-1.821131,-6.537093,-1.953107,-6.136990,-2.069246,-5.729932,-2.168326,-5.320521,-2.252653,-4.897486,-2.319305,-4.473407,
-2.368889,-4.044988,-2.401165,-3.612918,-2.415919,-3.177899,-2.412966,-2.740646,-2.392153,-2.301881,-2.353790,-1.866377,-2.297071,-1.426772,-2.222203,-0.987867,-2.129152,-0.550415,-2.074799,-0.328533,-1.955484,0.101389,-1.888520,0.317111,-1.741028,0.745667,-1.575531,1.169740,-1.384014,1.610114,-1.377950,1.643592,-1.380459,1.682373,-1.390788,1.714790,-1.411175,1.747876,-1.435488,1.771675,
-1.460159,1.787260,-1.496850,1.800068,-1.525860,1.803221,-1.554931,1.800692,-1.587454,1.790700,-1.620748,1.770656,-1.641708,1.750353,-1.788549,1.553357,-2.056765,1.168197,-2.187852,0.967158,-2.433171,0.564706,-2.666862,0.143789,-2.880528,-0.280797,-2.982067,-0.498754,-3.080964,-0.722912,-3.261364,-1.168070,-3.346256,-1.397330,-3.466759,-1.749405,-3.497252,-1.798507,-3.540514,-1.836838,
-3.592931,-1.861197,-3.650125,-1.869550,-6.134128,-1.869550,-6.191811,-1.861051,-6.244591,-1.836277,-6.274810,-1.811707,-6.299694,-1.781745,-6.325017,-1.729226,-6.334117,-1.671635,-6.328393,-1.595147,-6.296270,-1.296551,-6.258057,-0.998169,-6.213749,-0.700125,-6.163345,-0.402545,-6.106049,-0.101590,-6.043377,0.194673,-5.975573,0.486171,-5.899782,0.784556,-5.818879,1.077925,-5.733115,1.366218,
-5.638932,1.660894,-5.539921,1.950243,-5.436338,2.234222,-5.323936,2.524051,-5.207011,2.808260,-5.085819,3.086820,-4.957167,3.367018,-4.828678,3.632583,-4.544573,4.089184,-4.243012,4.536266,-3.930135,4.966904,-3.767070,5.179466,-3.427691,5.598564,-3.253678,5.802260,-2.897501,6.197834,-2.522887,6.585759,-2.139983,6.955524,-1.942484,7.136540,-1.535486,7.490338,-1.121813,7.825324,
-0.909288,7.988438,-0.691126,8.149870,-0.255093,8.455184,0.197184,8.748896,0.653452,9.023049,0.886609,9.154998,1.362764,9.408174,1.841190,9.641518,2.088149,9.754064,2.333845,9.860862,2.827384,10.060265,3.334139,10.244709,3.840385,10.409198,4.100604,10.486278,4.614764,10.624047,4.875259,10.686618,5.402753,10.798740,5.926964,10.891173,6.191921,10.930802,6.727180,10.996523,
7.257452,11.042916,7.528341,11.059484,7.795991,11.071139,8.328208,11.080429,8.867404,11.071018,8.867404,11.071018,$1*%
G04 Aperture macros list end*
%TA.AperFunction,SMDPad,CuDef*%
%ADD10R,0.550000X1.500000*%
%TD*%
%TA.AperFunction,SMDPad,CuDef*%
%ADD11FreePoly0,0.000000*%
%TD*%
%TA.AperFunction,SMDPad,CuDef*%
%ADD12FreePoly1,0.000000*%
%TD*%
%TA.AperFunction,SMDPad,CuDef*%
%ADD13FreePoly2,0.000000*%
%TD*%
%TA.AperFunction,SMDPad,CuDef*%
%ADD14R,1.500000X0.550000*%
%TD*%
%TA.AperFunction,ViaPad*%
%ADD15C,0.600000*%
%TD*%
%TA.AperFunction,ViaPad*%
%ADD16C,0.500000*%
%TD*%
%TA.AperFunction,Conductor*%
%ADD17C,0.150000*%
%TD*%
G04 APERTURE END LIST*
D10*
%TO.P,SW5,1*%
%TO.N,/KEY_PLAY*%
X20375000Y-30000000D03*
%TO.P,SW5,2*%
%TO.N,/GND*%
X23625000Y-30000000D03*
%TD*%
D11*
%TO.P,E1,1*%
%TO.N,/WHEEL0*%
X12385896Y-23097160D03*
D12*
%TO.P,E1,2*%
%TO.N,/WHEEL1*%
X31565986Y-16510252D03*
D13*
%TO.P,E1,3*%
%TO.N,/WHEEL2*%
X13670047Y-12730450D03*
%TD*%
D10*
%TO.P,SW1,1*%
%TO.N,/KEY_POWER*%
X20375000Y-17000000D03*
%TO.P,SW1,2*%
%TO.N,/GND*%
X23625000Y-17000000D03*
%TD*%
D14*
%TO.P,SW4,1*%
%TO.N,/KEY_NEXT*%
X35000000Y-18625000D03*
%TO.P,SW4,2*%
%TO.N,/GND*%
X35000000Y-15375000D03*
%TD*%
%TO.P,SW3,1*%
%TO.N,/KEY_PREV*%
X9000000Y-18625000D03*
%TO.P,SW3,2*%
%TO.N,/GND*%
X9000000Y-15375000D03*
%TD*%
D10*
%TO.P,SW2,1*%
%TO.N,/KEY_BACK*%
X20375000Y-4000000D03*
%TO.P,SW2,2*%
%TO.N,/GND*%
X23625000Y-4000000D03*
%TD*%
D15*
%TO.N,/KEY_PLAY*%
X20176100Y-33077300D03*
X29440900Y-33077300D03*
X27033400Y-31793100D03*
X7922600Y-16888900D03*
X22411000Y-30000000D03*
%TO.N,/GND*%
X11307900Y-32155800D03*
X7127400Y-12411600D03*
X10249000Y-23548800D03*
X11323500Y-24977000D03*
X22422100Y-16578000D03*
X23225800Y-28769900D03*
X9509100Y-19417500D03*
X34500000Y-16132500D03*
X19688900Y-18151500D03*
X28879500Y-15883400D03*
X21161200Y-4539700D03*
X11321700Y-29611100D03*
%TO.N,/WHEEL0*%
X7550000Y-21000000D03*
%TO.N,/WHEEL1*%
X19400000Y-7850000D03*
%TO.N,/WHEEL2*%
X7500000Y-14600000D03*
%TO.N,/KEY_POWER*%
X3890800Y-14013700D03*
X23533200Y-15076300D03*
X22401900Y-15635400D03*
X3742200Y-12605500D03*
%TO.N,/KEY_NEXT*%
X34500000Y-17877300D03*
X35476200Y-17201800D03*
%TO.N,/KEY_PREV*%
X8909100Y-17870200D03*
%TO.N,/KEY_BACK*%
X20245400Y-21275000D03*
X23782400Y-22502300D03*
X22348200Y-5024100D03*
X22796700Y-21275000D03*
%TO.N,/SDA*%
X8525000Y-7528000D03*
X8477300Y-26510900D03*
X15522600Y-2522900D03*
%TO.N,/RESET_N*%
X1557300Y-23831100D03*
X23886600Y-18843700D03*
X5401800Y-12204000D03*
X20721100Y-19067300D03*
X9084200Y-31009700D03*
%TO.N,/SCL*%
X8051400Y-29476600D03*
X9255300Y-29505400D03*
X5595200Y-7252000D03*
%TO.N,/INT_N*%
X8059500Y-30609500D03*
X6624300Y-9738300D03*
X11100000Y-31054100D03*
X7772500Y-5675300D03*
%TO.N,/+3V3*%
X19257000Y-23412700D03*
X25423500Y-23412700D03*
X10110300Y-22427600D03*
X11146200Y-1743800D03*
D16*
X12525000Y-26725000D03*
D15*
X10106700Y-4275200D03*
X7767800Y-18681200D03*
%TO.N,/UNUSED_INPUTS*%
X14816100Y-31306200D03*
X22179500Y-20482500D03*
X14884800Y-17600800D03*
X7336700Y-23980700D03*
%TD*%
%TO.N,/KEY_PLAY*%
D17*
X20176100Y-33077300D02*
X15565200Y-33077300D01*
X6389700Y-23883700D02*
X6389700Y-17165500D01*
X8703800Y-25964200D02*
X8470200Y-25964200D01*
X27033400Y-33077300D02*
X29440900Y-33077300D01*
X15565200Y-33077300D02*
X9024000Y-26536100D01*
X27033400Y-33077300D02*
X27033400Y-31793100D01*
X8470200Y-25964200D02*
X6389700Y-23883700D01*
X9024000Y-26536100D02*
X9024000Y-26284400D01*
X9024000Y-26284400D02*
X8703800Y-25964200D01*
X6666300Y-16888900D02*
X7922600Y-16888900D01*
X6389700Y-17165500D02*
X6666300Y-16888900D01*
X20375000Y-30000000D02*
X22411000Y-30000000D01*
X20176100Y-33077300D02*
X27033400Y-33077300D01*
%TO.N,/GND*%
X6907000Y-14818000D02*
X6907000Y-12632000D01*
X23364200Y-28908300D02*
X23225800Y-28769900D01*
X11323500Y-24977000D02*
X11323500Y-24623300D01*
X23625000Y-17000000D02*
X23103300Y-17000000D01*
X25263300Y-15883400D02*
X28879500Y-15883400D01*
X7464000Y-15375000D02*
X6907000Y-14818000D01*
X23103300Y-17000000D02*
X22681300Y-16578000D01*
X6907000Y-12632000D02*
X7127400Y-12411600D01*
X9634800Y-19417500D02*
X9509100Y-19417500D01*
X9000000Y-15375000D02*
X7464000Y-15375000D01*
X23625000Y-17000000D02*
X24146700Y-17000000D01*
X19843700Y-17996700D02*
X19688900Y-18151500D01*
X23625000Y-4000000D02*
X21700900Y-4000000D01*
X11321700Y-29611100D02*
X11321700Y-29300300D01*
X23364200Y-30000000D02*
X23364200Y-28908300D01*
X23625000Y-30000000D02*
X23364200Y-30000000D01*
X35000000Y-15375000D02*
X35000000Y-15896700D01*
X22681300Y-16578000D02*
X22422100Y-16578000D01*
X23625000Y-17000000D02*
X23625000Y-17996700D01*
X21700900Y-4000000D02*
X21161200Y-4539700D01*
X11321700Y-29611100D02*
X12061300Y-30350700D01*
X23625000Y-17996700D02*
X19843700Y-17996700D01*
X9000000Y-15896700D02*
X9000000Y-15375000D01*
X10016100Y-16912800D02*
X10016100Y-19036200D01*
X34735800Y-15896700D02*
X34500000Y-16132500D01*
X11323500Y-24623300D02*
X10249000Y-23548800D01*
X12061300Y-30350700D02*
X12061300Y-31402400D01*
X24146700Y-17000000D02*
X25263300Y-15883400D01*
X12061300Y-31402400D02*
X11307900Y-32155800D01*
X9000000Y-15896700D02*
X10016100Y-16912800D01*
X10016100Y-19036200D02*
X9634800Y-19417500D01*
X35000000Y-15896700D02*
X34735800Y-15896700D01*
%TO.N,/KEY_POWER*%
X20896700Y-17000000D02*
X22261300Y-15635400D01*
X22261300Y-15635400D02*
X22401900Y-15635400D01*
X22961000Y-15076300D02*
X23533200Y-15076300D01*
X3890800Y-14013700D02*
X3742200Y-13865100D01*
X3742200Y-13865100D02*
X3742200Y-12605500D01*
X22401900Y-15635400D02*
X22961000Y-15076300D01*
X20375000Y-17000000D02*
X20896700Y-17000000D01*
%TO.N,/KEY_NEXT*%
X35476200Y-17201800D02*
X35175500Y-17201800D01*
X35000000Y-18625000D02*
X35000000Y-18103300D01*
X35000000Y-18103300D02*
X34726000Y-18103300D01*
X34726000Y-18103300D02*
X34500000Y-17877300D01*
X35175500Y-17201800D02*
X34500000Y-17877300D01*
%TO.N,/KEY_PREV*%
X9000000Y-18625000D02*
X9000000Y-18103300D01*
X9000000Y-18103300D02*
X8909100Y-18012400D01*
X8909100Y-18012400D02*
X8909100Y-17870200D01*
%TO.N,/KEY_BACK*%
X20464700Y-5086400D02*
X22285900Y-5086400D01*
X22796700Y-21275000D02*
X22796700Y-21516600D01*
X20245400Y-21275000D02*
X22796700Y-21275000D01*
X20375000Y-4000000D02*
X20375000Y-4996700D01*
X22285900Y-5086400D02*
X22348200Y-5024100D01*
X20375000Y-4996700D02*
X20464700Y-5086400D01*
X22796700Y-21516600D02*
X23782400Y-22502300D01*
%TO.N,/SDA*%
X6009600Y-22904200D02*
X5724600Y-22619200D01*
X15522600Y-2522900D02*
X11614100Y-2522900D01*
X11614100Y-2522900D02*
X11614100Y-4438900D01*
X8477300Y-26510900D02*
X6009600Y-24043200D01*
X8525000Y-7528000D02*
X8003700Y-8049300D01*
X11614100Y-4438900D02*
X8525000Y-7528000D01*
X6451900Y-13605800D02*
X4830700Y-15227000D01*
X6009600Y-24043200D02*
X6009600Y-22904200D01*
X4830700Y-21725300D02*
X4830700Y-15227000D01*
X8003700Y-8049300D02*
X8003700Y-10295600D01*
X8003700Y-10295600D02*
X6451900Y-11847400D01*
X5724600Y-22619200D02*
X4830700Y-21725300D01*
X6451900Y-11847400D02*
X6451900Y-13605800D01*
%TO.N,/RESET_N*%
X11693900Y-31297100D02*
X11693900Y-30874900D01*
X4509000Y-15093700D02*
X5401800Y-14200900D01*
X10761000Y-29942000D02*
X10761000Y-29632800D01*
X1557300Y-23831100D02*
X1557300Y-25302400D01*
X5402900Y-22752500D02*
X4509000Y-21858600D01*
X9084200Y-31159000D02*
X9084200Y-31009700D01*
X9532100Y-31606900D02*
X9084200Y-31159000D01*
X5574600Y-24446400D02*
X5574600Y-22924200D01*
X11693900Y-30874900D02*
X10761000Y-29942000D01*
X23886600Y-18843700D02*
X20944700Y-18843700D01*
X4509000Y-21858600D02*
X4509000Y-15093700D01*
X10761000Y-29632800D02*
X5574600Y-24446400D01*
X20944700Y-18843700D02*
X20721100Y-19067300D01*
X11384100Y-31606900D02*
X9532100Y-31606900D01*
X5574600Y-22924200D02*
X5402900Y-22752500D01*
X5401800Y-14200900D02*
X5401800Y-12204000D01*
X11384100Y-31606900D02*
X11693900Y-31297100D01*
X7413900Y-31159000D02*
X9084200Y-31159000D01*
X1557300Y-25302400D02*
X7413900Y-31159000D01*
%TO.N,/SCL*%
X8080200Y-29505400D02*
X8051400Y-29476600D01*
X1558800Y-8142800D02*
X2449600Y-7252000D01*
X9255300Y-29505400D02*
X8080200Y-29505400D01*
X8051400Y-29476600D02*
X4416500Y-25841700D01*
X4416500Y-25841700D02*
X4416500Y-23248400D01*
X1558800Y-8142800D02*
X1558800Y-20390700D01*
X2449600Y-7252000D02*
X5595200Y-7252000D01*
X1558800Y-20390700D02*
X4416500Y-23248400D01*
%TO.N,/INT_N*%
X10072800Y-30463000D02*
X8857800Y-30463000D01*
X8711300Y-30609500D02*
X8059500Y-30609500D01*
X5081200Y-24082700D02*
X5081200Y-22885800D01*
X4437500Y-11925100D02*
X6624300Y-9738300D01*
X4437500Y-14710200D02*
X4437500Y-11925100D01*
X10290900Y-30244900D02*
X10290900Y-29617800D01*
X10290900Y-29617800D02*
X5252900Y-24579800D01*
X5252900Y-24579800D02*
X5252900Y-24254400D01*
X4187300Y-21991900D02*
X4187300Y-14960400D01*
X5081200Y-22885800D02*
X4187300Y-21991900D01*
X8857800Y-30463000D02*
X8711300Y-30609500D01*
X5252900Y-24254400D02*
X5081200Y-24082700D01*
X6624300Y-9738300D02*
X6624300Y-6823500D01*
X10290900Y-30244900D02*
X10072800Y-30463000D01*
X4187300Y-14960400D02*
X4437500Y-14710200D01*
X11100000Y-31054100D02*
X10290900Y-30244900D01*
X6624300Y-6823500D02*
X7772500Y-5675300D01*
%TO.N,/+3V3*%
X10825000Y-25200000D02*
X10800000Y-25175000D01*
X9700000Y-23675000D02*
X9700000Y-23050000D01*
X19257000Y-23412700D02*
X25423500Y-23412700D01*
X10106700Y-2783300D02*
X10106700Y-4275200D01*
X10775000Y-25100000D02*
X10775000Y-24850000D01*
X10825000Y-25225000D02*
X10825000Y-25200000D01*
X10110300Y-22427600D02*
X10110300Y-21847800D01*
X9725000Y-23750000D02*
X9725000Y-23700000D01*
X11146200Y-1743800D02*
X10106700Y-2783300D01*
X10800000Y-25175000D02*
X10800000Y-25125000D01*
X11325000Y-25550000D02*
X11125000Y-25550000D01*
X9775000Y-23825000D02*
X9750000Y-23800000D01*
X9750000Y-23800000D02*
X9750000Y-23775000D01*
X9725000Y-23700000D02*
X9700000Y-23675000D01*
X10800000Y-25125000D02*
X10775000Y-25100000D01*
X9700000Y-23050000D02*
X10025000Y-22725000D01*
X10850000Y-25275000D02*
X10850000Y-25250000D01*
X10110300Y-21847800D02*
X7767800Y-19505300D01*
X7767800Y-19505300D02*
X7767800Y-18681200D01*
X10775000Y-24850000D02*
X9775000Y-23850000D01*
X11125000Y-25550000D02*
X10850000Y-25275000D01*
X12500000Y-26725000D02*
X11325000Y-25550000D01*
X10850000Y-25250000D02*
X10825000Y-25225000D01*
X9750000Y-23775000D02*
X9725000Y-23750000D01*
X12525000Y-26725000D02*
X12500000Y-26725000D01*
X9775000Y-23850000D02*
X9775000Y-23825000D01*
%TO.N,/UNUSED_INPUTS*%
X17766500Y-20482500D02*
X22179500Y-20482500D01*
X14884800Y-17600800D02*
X17766500Y-20482500D01*
X7570300Y-24375700D02*
X7336700Y-24375700D01*
X7336700Y-24375700D02*
X7336700Y-23980700D01*
X14816100Y-31306200D02*
X14249100Y-31306200D01*
X14249100Y-31306200D02*
X9345700Y-26402800D01*
X9345700Y-26402800D02*
X9345700Y-26151100D01*
X9345700Y-26151100D02*
X7570300Y-24375700D01*
%TD*%
M02*
