%TF.GenerationSoftware,KiCad,Pcbnew,10.0.4*%
%TF.CreationDate,2026-09-21T23:48:29+08:00*%
%TF.ProjectId,controls,636f6e74-726f-46c7-932e-6b696361645f,rev?*%
%TF.SameCoordinates,Original*%
%TF.FileFunction,Paste,Bot*%
%TF.FilePolarity,Positive*%
%FSLAX46Y46*%
G04 Gerber Fmt 4.6, Leading zero omitted, Abs format (unit mm)*
G04 Created by KiCad (PCBNEW 10.0.4) date 2026-09-21 23:48:29*
%MOMM*%
%LPD*%
G01*
G04 APERTURE LIST*
G04 Aperture macros list*
%AMRoundRect*
0 Rectangle with rounded corners*
0 $1 Rounding radius*
0 $2 $3 $4 $5 $6 $7 $8 $9 X,Y pos of 4 corners*
0 Add a 4 corners polygon primitive as box body*
4,1,4,$2,$3,$4,$5,$6,$7,$8,$9,$2,$3,0*
0 Add four circle primitives for the rounded corners*
1,1,$1+$1,$2,$3*
1,1,$1+$1,$4,$5*
1,1,$1+$1,$6,$7*
1,1,$1+$1,$8,$9*
0 Add four rect primitives between the rounded corners*
20,1,$1+$1,$2,$3,$4,$5,0*
20,1,$1+$1,$4,$5,$6,$7,0*
20,1,$1+$1,$6,$7,$8,$9,0*
20,1,$1+$1,$8,$9,$2,$3,0*%
%AMFreePoly0*
4,1,14,0.410355,0.110355,0.425000,0.075000,0.425000,0.045711,0.410355,0.010356,0.289644,-0.110355,0.254289,-0.125000,-0.375000,-0.125000,-0.410355,-0.110355,-0.425000,-0.075000,-0.425000,0.075000,-0.410355,0.110355,-0.375000,0.125000,0.375000,0.125000,0.410355,0.110355,0.410355,0.110355,$1*%
%AMFreePoly1*
4,1,14,0.289644,0.110355,0.410355,-0.010356,0.425000,-0.045711,0.425000,-0.075000,0.410355,-0.110355,0.375000,-0.125000,-0.375000,-0.125000,-0.410355,-0.110355,-0.425000,-0.075000,-0.425000,0.075000,-0.410355,0.110355,-0.375000,0.125000,0.254289,0.125000,0.289644,0.110355,0.289644,0.110355,$1*%
%AMFreePoly2*
4,1,14,0.110355,0.410355,0.125000,0.375000,0.125000,-0.375000,0.110355,-0.410355,0.075000,-0.425000,0.045711,-0.425000,0.010356,-0.410355,-0.110355,-0.289644,-0.125000,-0.254289,-0.125000,0.375000,-0.110355,0.410355,-0.075000,0.425000,0.075000,0.425000,0.110355,0.410355,0.110355,0.410355,$1*%
%AMFreePoly3*
4,1,14,0.110355,0.410355,0.125000,0.375000,0.125000,-0.254289,0.110355,-0.289644,-0.010356,-0.410355,-0.045711,-0.425000,-0.075000,-0.425000,-0.110355,-0.410355,-0.125000,-0.375000,-0.125000,0.375000,-0.110355,0.410355,-0.075000,0.425000,0.075000,0.425000,0.110355,0.410355,0.110355,0.410355,$1*%
%AMFreePoly4*
4,1,14,0.410355,0.110355,0.425000,0.075000,0.425000,-0.075000,0.410355,-0.110355,0.375000,-0.125000,-0.375000,-0.125000,-0.410355,-0.110355,-0.425000,-0.075000,-0.425000,-0.045711,-0.410355,-0.010356,-0.289644,0.110355,-0.254289,0.125000,0.375000,0.125000,0.410355,0.110355,0.410355,0.110355,$1*%
%AMFreePoly5*
4,1,14,0.410355,0.110355,0.425000,0.075000,0.425000,-0.075000,0.410355,-0.110355,0.375000,-0.125000,-0.254289,-0.125000,-0.289644,-0.110355,-0.410355,0.010356,-0.425000,0.045711,-0.425000,0.075000,-0.410355,0.110355,-0.375000,0.125000,0.375000,0.125000,0.410355,0.110355,0.410355,0.110355,$1*%
%AMFreePoly6*
4,1,14,-0.010356,0.410355,0.110355,0.289644,0.125000,0.254289,0.125000,-0.375000,0.110355,-0.410355,0.075000,-0.425000,-0.075000,-0.425000,-0.110355,-0.410355,-0.125000,-0.375000,-0.125000,0.375000,-0.110355,0.410355,-0.075000,0.425000,-0.045711,0.425000,-0.010356,0.410355,-0.010356,0.410355,$1*%
%AMFreePoly7*
4,1,14,0.110355,0.410355,0.125000,0.375000,0.125000,-0.375000,0.110355,-0.410355,0.075000,-0.425000,-0.075000,-0.425000,-0.110355,-0.410355,-0.125000,-0.375000,-0.125000,0.254289,-0.110355,0.289644,0.010356,0.410355,0.045711,0.425000,0.075000,0.425000,0.110355,0.410355,0.110355,0.410355,$1*%
G04 Aperture macros list end*
%ADD10RoundRect,0.155000X-0.155000X-0.155000X0.155000X-0.155000X0.155000X0.155000X-0.155000X0.155000X0*%
%ADD11FreePoly0,0.000000*%
%ADD12RoundRect,0.062500X-0.362500X-0.062500X0.362500X-0.062500X0.362500X0.062500X-0.362500X0.062500X0*%
%ADD13FreePoly1,0.000000*%
%ADD14FreePoly2,0.000000*%
%ADD15RoundRect,0.062500X-0.062500X-0.362500X0.062500X-0.362500X0.062500X0.362500X-0.062500X0.362500X0*%
%ADD16FreePoly3,0.000000*%
%ADD17FreePoly4,0.000000*%
%ADD18FreePoly5,0.000000*%
%ADD19FreePoly6,0.000000*%
%ADD20FreePoly7,0.000000*%
%ADD21RoundRect,0.140000X-0.140000X-0.170000X0.140000X-0.170000X0.140000X0.170000X-0.140000X0.170000X0*%
%ADD22RoundRect,0.135000X0.185000X-0.135000X0.185000X0.135000X-0.185000X0.135000X-0.185000X-0.135000X0*%
%ADD23R,1.340000X1.340000*%
%ADD24R,0.600000X0.240000*%
%ADD25R,0.240000X0.600000*%
%ADD26R,0.650000X0.300000*%
%ADD27R,1.150000X0.300000*%
%ADD28RoundRect,0.135000X-0.185000X0.135000X-0.185000X-0.135000X0.185000X-0.135000X0.185000X0.135000X0*%
G04 APERTURE END LIST*
D10*
%TO.C,U1*%
X5310000Y-28410000D03*
X5310000Y-29190000D03*
X6090000Y-28410000D03*
X6090000Y-29190000D03*
D11*
X4250000Y-29700000D03*
D12*
X4250000Y-29250000D03*
X4250000Y-28800000D03*
X4250000Y-28350000D03*
D13*
X4250000Y-27900000D03*
D14*
X4800000Y-27350000D03*
D15*
X5250000Y-27350000D03*
X5700000Y-27350000D03*
X6150000Y-27350000D03*
D16*
X6600000Y-27350000D03*
D17*
X7150000Y-27900000D03*
D12*
X7150000Y-28350000D03*
X7150000Y-28800000D03*
X7150000Y-29250000D03*
D18*
X7150000Y-29700000D03*
D19*
X6600000Y-30250000D03*
D15*
X6150000Y-30250000D03*
X5700000Y-30250000D03*
X5250000Y-30250000D03*
D20*
X4800000Y-30250000D03*
%TD*%
D21*
%TO.C,C3*%
X15520000Y-31800000D03*
X16480000Y-31800000D03*
%TD*%
D22*
%TO.C,R9*%
X26000000Y-31510000D03*
X26000000Y-30490000D03*
%TD*%
%TO.C,R5*%
X13200000Y-28710000D03*
X13200000Y-27690000D03*
%TD*%
D23*
%TO.C,U2*%
X19000000Y-31000000D03*
D24*
X20400000Y-30250000D03*
X20400000Y-30750000D03*
X20400000Y-31250000D03*
X20400000Y-31750000D03*
D25*
X19750000Y-32400000D03*
X19250000Y-32400000D03*
X18750000Y-32400000D03*
X18250000Y-32400000D03*
D24*
X17600000Y-31750000D03*
X17600000Y-31250000D03*
X17600000Y-30750000D03*
X17600000Y-30250000D03*
D25*
X18250000Y-29600000D03*
X18750000Y-29600000D03*
X19250000Y-29600000D03*
X19750000Y-29600000D03*
%TD*%
D22*
%TO.C,R4*%
X13200000Y-26510000D03*
X13200000Y-25490000D03*
%TD*%
%TO.C,R7*%
X9800000Y-31510000D03*
X9800000Y-30490000D03*
%TD*%
D26*
%TO.C,J1*%
X9535000Y-6661000D03*
X9535000Y-7161000D03*
X9535000Y-7661000D03*
X9535000Y-8161000D03*
X9535000Y-8661000D03*
X9535000Y-9161000D03*
X9535000Y-9661000D03*
X9535000Y-10161000D03*
X9535000Y-10661000D03*
X9535000Y-11161000D03*
X9535000Y-11661000D03*
X9535000Y-12161000D03*
D27*
X6725000Y-13046000D03*
X6725000Y-5776000D03*
%TD*%
D22*
%TO.C,R13*%
X24000000Y-31510000D03*
X24000000Y-30490000D03*
%TD*%
D28*
%TO.C,R2*%
X6000000Y-21690000D03*
X6000000Y-22710000D03*
%TD*%
%TO.C,R14*%
X12000000Y-890000D03*
X12000000Y-1910000D03*
%TD*%
D21*
%TO.C,C4*%
X15520000Y-29800000D03*
X16480000Y-29800000D03*
%TD*%
D22*
%TO.C,R11*%
X30000000Y-31510000D03*
X30000000Y-30490000D03*
%TD*%
%TO.C,R10*%
X28000000Y-31510000D03*
X28000000Y-30490000D03*
%TD*%
D28*
%TO.C,R8*%
X13800000Y-21290000D03*
X13800000Y-22310000D03*
%TD*%
D21*
%TO.C,C2*%
X11520000Y-24100000D03*
X12480000Y-24100000D03*
%TD*%
D22*
%TO.C,R6*%
X12000000Y-31510000D03*
X12000000Y-30490000D03*
%TD*%
D28*
%TO.C,R3*%
X4200000Y-20890000D03*
X4200000Y-21910000D03*
%TD*%
D21*
%TO.C,C1*%
X6820000Y-26000000D03*
X7780000Y-26000000D03*
%TD*%
D22*
%TO.C,R12*%
X32000000Y-31510000D03*
X32000000Y-30490000D03*
%TD*%
D28*
%TO.C,R1*%
X7800000Y-21690000D03*
X7800000Y-22710000D03*
%TD*%
M02*
