G04 #@! TF.GenerationSoftware,KiCad,Pcbnew,10.0.4*
G04 #@! TF.CreationDate,2026-09-22T08:30:33+08:00*
G04 #@! TF.ProjectId,controls,636f6e74-726f-46c7-932e-6b696361645f,rev?*
G04 #@! TF.SameCoordinates,Original*
G04 #@! TF.FileFunction,Paste,Bot*
G04 #@! TF.FilePolarity,Positive*
%FSLAX46Y46*%
G04 Gerber Fmt 4.6, Leading zero omitted, Abs format (unit mm)*
G04 Created by KiCad (PCBNEW 10.0.4) date 2026-09-22 08:30:33*
%MOMM*%
%LPD*%
G01*
G04 APERTURE LIST*
G04 Aperture macros list*
%AMRoundRect*
0 Rectangle with rounded corners*
0 $1 Rounding radius*
0 $2 $3 $4 $5 $6 $7 $8 $9 X,Y pos of 4 corners*
0 Add a 4 corners polygon primitive as box body*
4,1,4,$2,$3,$4,$5,$6,$7,$8,$9,$2,$3,0*
0 Add four circle primitives for the rounded corners*
1,1,$1+$1,$2,$3*
1,1,$1+$1,$4,$5*
1,1,$1+$1,$6,$7*
1,1,$1+$1,$8,$9*
0 Add four rect primitives between the rounded corners*
20,1,$1+$1,$2,$3,$4,$5,0*
20,1,$1+$1,$4,$5,$6,$7,0*
20,1,$1+$1,$6,$7,$8,$9,0*
20,1,$1+$1,$8,$9,$2,$3,0*%
G04 Aperture macros list end*
%ADD10RoundRect,0.140000X-0.140000X-0.170000X0.140000X-0.170000X0.140000X0.170000X-0.140000X0.170000X0*%
%ADD11RoundRect,0.135000X0.185000X-0.135000X0.185000X0.135000X-0.185000X0.135000X-0.185000X-0.135000X0*%
%ADD12RoundRect,0.135000X-0.135000X-0.185000X0.135000X-0.185000X0.135000X0.185000X-0.135000X0.185000X0*%
%ADD13R,0.650000X0.300000*%
%ADD14R,1.150000X0.300000*%
%ADD15RoundRect,0.135000X-0.185000X0.135000X-0.185000X-0.135000X0.185000X-0.135000X0.185000X0.135000X0*%
%ADD16R,0.700000X0.700000*%
%ADD17R,0.550000X0.200000*%
%ADD18R,0.200000X0.550000*%
G04 APERTURE END LIST*
D10*
X17520000Y-32800000D03*
X18480000Y-32800000D03*
D11*
X16000000Y-31510000D03*
X16000000Y-30490000D03*
D12*
X13490000Y-26700000D03*
X14510000Y-26700000D03*
X13490000Y-25200000D03*
X14510000Y-25200000D03*
X15490000Y-32800000D03*
X16510000Y-32800000D03*
D13*
X9535000Y-6661000D03*
X9535000Y-7161000D03*
X9535000Y-7661000D03*
X9535000Y-8161000D03*
X9535000Y-8661000D03*
X9535000Y-9161000D03*
X9535000Y-9661000D03*
X9535000Y-10161000D03*
X9535000Y-10661000D03*
X9535000Y-11161000D03*
X9535000Y-11661000D03*
X9535000Y-12161000D03*
D14*
X6725000Y-13046000D03*
X6725000Y-5776000D03*
D15*
X6000000Y-21690000D03*
X6000000Y-22710000D03*
X12000000Y-890000D03*
X12000000Y-1910000D03*
D11*
X20000000Y-31510000D03*
X20000000Y-30490000D03*
D16*
X7850000Y-29050000D03*
X7850000Y-29950000D03*
X8750000Y-29050000D03*
X8750000Y-29950000D03*
D17*
X6800000Y-30300000D03*
X6800000Y-29900000D03*
X6800000Y-29500000D03*
X6800000Y-29100000D03*
X6800000Y-28700000D03*
D18*
X7500000Y-28000000D03*
X7900000Y-28000000D03*
X8300000Y-28000000D03*
X8700000Y-28000000D03*
X9100000Y-28000000D03*
D17*
X9800000Y-28700000D03*
X9800000Y-29100000D03*
X9800000Y-29500000D03*
X9800000Y-29900000D03*
X9800000Y-30300000D03*
D18*
X9100000Y-31000000D03*
X8700000Y-31000000D03*
X8300000Y-31000000D03*
X7900000Y-31000000D03*
X7500000Y-31000000D03*
D11*
X18000000Y-31510000D03*
X18000000Y-30490000D03*
D12*
X4790000Y-31500000D03*
X5810000Y-31500000D03*
D10*
X4420000Y-29700000D03*
X5380000Y-29700000D03*
D12*
X13490000Y-32800000D03*
X14510000Y-32800000D03*
D15*
X4200000Y-20890000D03*
X4200000Y-21910000D03*
D10*
X4720000Y-26400000D03*
X5680000Y-26400000D03*
D11*
X24000000Y-31510000D03*
X24000000Y-30490000D03*
D15*
X7800000Y-21690000D03*
X7800000Y-22710000D03*
M02*
