M48
; DRILL file KiCad 10.0.4 date 2026-09-23T17:47:45
; FORMAT={-:-/ absolute / metric / decimal}
; #@! TF.CreationDate,2026-09-23T17:47:45+08:00
; #@! TF.GenerationSoftware,Kicad,Pcbnew,10.0.4
; #@! TF.FileFunction,Plated,1,2,PTH
FMAT,2
METRIC
; #@! TA.AperFunction,Plated,PTH,ViaDrill
T1C0.150
; #@! TA.AperFunction,Plated,PTH,ViaDrill
T2C0.200
%
G90
G05
T1
X2.25Y-15.55
X2.27Y-9.55
X3.62Y-10.86
T2
X-66.9Y-10.75
X0.4Y-8.8
X0.4Y-9.601
X0.4Y-11.2
X0.4Y-12.0
X0.4Y-12.8
X0.4Y-13.601
X0.4Y-15.2
X0.95Y-8.4
X0.95Y-9.2
X0.95Y-10.0
X0.95Y-11.601
X0.95Y-12.4
X0.95Y-13.2
X0.95Y-14.0
X0.95Y-14.8
X0.95Y-15.6
X1.75Y-15.75
X1.85Y-9.75
X2.572Y-16.045
X2.794Y-11.857
X3.206Y-18.072
X3.3Y-11.3
X3.634Y-11.88
X4.764Y-12.992
X4.779Y-11.557
X4.841Y-15.187
X4.985Y-4.465
X5.243Y-9.801
X5.353Y-15.187
X5.376Y-11.062
X5.755Y-9.877
X5.815Y-12.562
X5.865Y-15.187
X6.607Y-12.36
X6.87Y-9.597
X7.662Y-14.362
X8.822Y-9.996
X10.244Y-8.954
M30
