%TF.GenerationSoftware,KiCad,Pcbnew,10.0.4*%
%TF.CreationDate,2026-09-23T17:47:45+08:00*%
%TF.ProjectId,am213-fpc-adapter,616d3231-332d-4667-9063-2d6164617074,rev?*%
%TF.SameCoordinates,Original*%
%TF.FileFunction,Copper,L2,Bot*%
%TF.FilePolarity,Positive*%
%FSLAX46Y46*%
G04 Gerber Fmt 4.6, Leading zero omitted, Abs format (unit mm)*
G04 Created by KiCad (PCBNEW 10.0.4) date 2026-09-23 17:47:45*
%MOMM*%
%LPD*%
G01*
G04 APERTURE LIST*
%TA.AperFunction,ViaPad*%
%ADD10C,0.400000*%
%TD*%
%TA.AperFunction,ViaPad*%
%ADD11C,0.300000*%
%TD*%
%TA.AperFunction,Conductor*%
%ADD12C,0.100000*%
%TD*%
%TA.AperFunction,Conductor*%
%ADD13C,0.120000*%
%TD*%
G04 APERTURE END LIST*
D10*
%TO.N,/GND*%
X950000Y-10000500D03*
X400000Y-12000500D03*
X3206499Y-18071559D03*
D11*
X3619999Y-10859999D03*
X2269999Y-9549999D03*
D10*
X-66900000Y-10750500D03*
X2794000Y-11856800D03*
D11*
X2249999Y-15549999D03*
D10*
%TO.N,/CS_IN*%
X4841300Y-15186700D03*
X950000Y-14000500D03*
%TO.N,/CLK_IN*%
X950000Y-14800500D03*
X6869700Y-9597300D03*
%TO.N,/VCC_3V3*%
X400000Y-11200500D03*
X950000Y-11600500D03*
%TO.N,/D3_IN*%
X400000Y-13600500D03*
X5353000Y-15186700D03*
%TO.N,/TP_SCL*%
X950000Y-9200500D03*
X4778600Y-11556900D03*
%TO.N,/D1_IN*%
X6607300Y-12359700D03*
X400000Y-12800500D03*
%TO.N,/D2_IN*%
X5864800Y-15186700D03*
X950000Y-13200500D03*
%TO.N,/LCD_D2*%
X8822500Y-9996500D03*
X5754600Y-9877100D03*
%TO.N,/LCD_RST*%
X1749999Y-15749999D03*
X950000Y-15600500D03*
X3299999Y-11299999D03*
X1849999Y-9749999D03*
%TO.N,/VCI_EN*%
X5242800Y-9800900D03*
X400000Y-15200500D03*
X4985300Y-4465500D03*
%TO.N,/D0_IN*%
X5815100Y-12562400D03*
X950000Y-12400500D03*
%TO.N,/TP_INT*%
X4764100Y-12991800D03*
X400000Y-9600500D03*
%TO.N,/TP_SDA*%
X3633800Y-11879500D03*
X10244000Y-8954300D03*
X400000Y-8800500D03*
%TO.N,/TP_RST*%
X950000Y-8400500D03*
X5375900Y-11062500D03*
%TO.N,/LCD_D0*%
X2572200Y-16044900D03*
X7662000Y-14362300D03*
%TD*%
%TO.N,/GND*%
D12*
X3619999Y-10859999D02*
X3299999Y-10539999D01*
D13*
X1088300Y-12000500D02*
X400000Y-12000500D01*
X950000Y-10000500D02*
X1321700Y-10372200D01*
X1321700Y-10372200D02*
X1321700Y-11767100D01*
X1321700Y-11767100D02*
X1088300Y-12000500D01*
X1321700Y-11767100D02*
X1411400Y-11856800D01*
X1411400Y-11856800D02*
X2794000Y-11856800D01*
D12*
X3259999Y-10539999D02*
X2269999Y-9549999D01*
X3299999Y-10539999D02*
X3259999Y-10539999D01*
%TO.N,/CS_IN*%
D13*
X950000Y-14000500D02*
X3364800Y-14000500D01*
X4551000Y-15186700D02*
X4841300Y-15186700D01*
X3364800Y-14000500D02*
X4551000Y-15186700D01*
%TO.N,/CLK_IN*%
X6701500Y-9429100D02*
X6869700Y-9597300D01*
X4791300Y-9620500D02*
X4982700Y-9429100D01*
X950000Y-14800500D02*
X3830000Y-14800500D01*
X4791300Y-9875100D02*
X4791300Y-9620500D01*
X4982700Y-9429100D02*
X6701500Y-9429100D01*
X6993800Y-12077600D02*
X4791300Y-9875100D01*
X6993800Y-14583800D02*
X6993800Y-12077600D01*
X6019100Y-15558500D02*
X6993800Y-14583800D01*
X4588000Y-15558500D02*
X6019100Y-15558500D01*
X3830000Y-14800500D02*
X4588000Y-15558500D01*
%TO.N,/VCC_3V3*%
X550000Y-11200500D02*
X950000Y-11600500D01*
X400000Y-11200500D02*
X550000Y-11200500D01*
%TO.N,/D3_IN*%
X3366800Y-13600500D02*
X4581300Y-14815000D01*
X4581300Y-14815000D02*
X4995300Y-14815000D01*
X5353000Y-15172700D02*
X5353000Y-15186700D01*
X400000Y-13600500D02*
X3366800Y-13600500D01*
X4995300Y-14815000D02*
X5353000Y-15172700D01*
%TO.N,/TP_SCL*%
X2422200Y-9200500D02*
X4778600Y-11556900D01*
X950000Y-9200500D02*
X2422200Y-9200500D01*
%TO.N,/D1_IN*%
X3922500Y-13411000D02*
X5889700Y-13411000D01*
X3312000Y-12800500D02*
X3922500Y-13411000D01*
X5889700Y-13411000D02*
X6607300Y-12693400D01*
X6607300Y-12693400D02*
X6607300Y-12359700D01*
X400000Y-12800500D02*
X3312000Y-12800500D01*
%TO.N,/D2_IN*%
X4298600Y-14177600D02*
X4869700Y-14177600D01*
X5864800Y-15172700D02*
X5864800Y-15186700D01*
X4869700Y-14177600D02*
X5864800Y-15172700D01*
X950000Y-13200500D02*
X3321500Y-13200500D01*
X3321500Y-13200500D02*
X4298600Y-14177600D01*
%TO.N,/LCD_D2*%
X8822500Y-9996500D02*
X5874000Y-9996500D01*
X5874000Y-9996500D02*
X5754600Y-9877100D01*
%TO.N,/LCD_RST*%
X1849999Y-9849999D02*
X1849999Y-9749999D01*
X1249999Y-15599999D02*
X1349999Y-15699999D01*
X1349999Y-15699999D02*
X1699999Y-15699999D01*
X949999Y-15599999D02*
X1249999Y-15599999D01*
X3299999Y-11299999D02*
X1849999Y-9849999D01*
X1699999Y-15699999D02*
X1749999Y-15749999D01*
%TO.N,/VCI_EN*%
X7285100Y-11450500D02*
X6729900Y-11450500D01*
X8638400Y-11450500D02*
X7285100Y-11450500D01*
X3581000Y-15200500D02*
X400000Y-15200500D01*
X5242800Y-9963400D02*
X5242800Y-9800900D01*
X10847400Y-9241500D02*
X8638400Y-11450500D01*
X7285100Y-14687600D02*
X6168700Y-15804000D01*
X6168700Y-15804000D02*
X4184500Y-15804000D01*
X6610800Y-4465500D02*
X10847400Y-8702100D01*
X4985300Y-4465500D02*
X6610800Y-4465500D01*
X4184500Y-15804000D02*
X3581000Y-15200500D01*
X10847400Y-8702100D02*
X10847400Y-9241500D01*
X7285100Y-11450500D02*
X7285100Y-14687600D01*
X6729900Y-11450500D02*
X5242800Y-9963400D01*
%TO.N,/D0_IN*%
X950000Y-12400500D02*
X1111900Y-12562400D01*
X1111900Y-12562400D02*
X5815100Y-12562400D01*
%TO.N,/TP_INT*%
X3214500Y-11994000D02*
X3519200Y-12298700D01*
X5911500Y-12991800D02*
X4764100Y-12991800D01*
X1081800Y-9600500D02*
X3214500Y-11733200D01*
X5943300Y-12143900D02*
X6186800Y-12387400D01*
X6186800Y-12387400D02*
X6186800Y-12716500D01*
X3519200Y-12298700D02*
X5372400Y-12298700D01*
X3214500Y-11733200D02*
X3214500Y-11994000D01*
X5527200Y-12143900D02*
X5943300Y-12143900D01*
X400000Y-9600500D02*
X1081800Y-9600500D01*
X6186800Y-12716500D02*
X5911500Y-12991800D01*
X5372400Y-12298700D02*
X5527200Y-12143900D01*
%TO.N,/TP_SDA*%
X400000Y-8800500D02*
X4174100Y-8800500D01*
X4327900Y-8954300D02*
X10244000Y-8954300D01*
X4327900Y-8954300D02*
X4327900Y-10540200D01*
X4174100Y-8800500D02*
X4327900Y-8954300D01*
X4949000Y-11973900D02*
X3728200Y-11973900D01*
X5183100Y-11395400D02*
X5183100Y-11739800D01*
X3728200Y-11973900D02*
X3633800Y-11879500D01*
X5183100Y-11739800D02*
X4949000Y-11973900D01*
X4327900Y-10540200D02*
X5183100Y-11395400D01*
%TO.N,/TP_RST*%
X10615700Y-8800100D02*
X10216100Y-8400500D01*
X5375900Y-11062500D02*
X4559600Y-10246200D01*
X4823200Y-9197400D02*
X8894700Y-9197400D01*
X10615700Y-9108400D02*
X10615700Y-8800100D01*
X4559600Y-10246200D02*
X4559600Y-9461000D01*
X4559600Y-9461000D02*
X4823200Y-9197400D01*
X10370200Y-9353900D02*
X10615700Y-9108400D01*
X9051200Y-9353900D02*
X10370200Y-9353900D01*
X8894700Y-9197400D02*
X9051200Y-9353900D01*
X10216100Y-8400500D02*
X950000Y-8400500D01*
%TO.N,/LCD_D0*%
X6255600Y-16044900D02*
X7662000Y-14638500D01*
X2572200Y-16044900D02*
X6255600Y-16044900D01*
X7662000Y-14638500D02*
X7662000Y-14362300D01*
%TD*%
%TA.AperFunction,Conductor*%
%TO.N,/GND*%
G36*
X16785648Y-214352D02*
G01*
X16800000Y-249000D01*
X16800000Y-21751000D01*
X16785648Y-21785648D01*
X16751000Y-21800000D01*
X249000Y-21800000D01*
X214352Y-21785648D01*
X200000Y-21751000D01*
X200000Y-15800001D01*
X199999Y-15799999D01*
X-200000Y-15500500D01*
X-67151000Y-15500500D01*
X-67185648Y-15486148D01*
X-67200000Y-15451500D01*
X-67200000Y-11160936D01*
X99500Y-11160936D01*
X99500Y-11240063D01*
X119979Y-11316489D01*
X119979Y-11316491D01*
X145123Y-11360040D01*
X159540Y-11385011D01*
X215489Y-11440960D01*
X284011Y-11480521D01*
X319478Y-11490024D01*
X360436Y-11501000D01*
X360438Y-11501000D01*
X439564Y-11501000D01*
X478535Y-11490557D01*
X515989Y-11480521D01*
X538614Y-11467457D01*
X551295Y-11465787D01*
X563114Y-11460892D01*
X569230Y-11463425D01*
X575794Y-11462561D01*
X597762Y-11475244D01*
X636671Y-11514153D01*
X651023Y-11548801D01*
X649846Y-11557742D01*
X649919Y-11557752D01*
X649500Y-11560936D01*
X649500Y-11640063D01*
X669979Y-11716489D01*
X669979Y-11716491D01*
X701869Y-11771725D01*
X709540Y-11785011D01*
X765489Y-11840960D01*
X834011Y-11880521D01*
X869478Y-11890024D01*
X910436Y-11901000D01*
X910438Y-11901000D01*
X989564Y-11901000D01*
X1016230Y-11893854D01*
X1065989Y-11880521D01*
X1134511Y-11840960D01*
X1190460Y-11785011D01*
X1230021Y-11716489D01*
X1250500Y-11640062D01*
X1250500Y-11560938D01*
X1250500Y-11560936D01*
X1238816Y-11517335D01*
X1230021Y-11484511D01*
X1230020Y-11484509D01*
X1230020Y-11484508D01*
X1204876Y-11440959D01*
X1190460Y-11415989D01*
X1134511Y-11360040D01*
X1104167Y-11342521D01*
X1065990Y-11320479D01*
X989564Y-11300000D01*
X989562Y-11300000D01*
X910438Y-11300000D01*
X910436Y-11300000D01*
X907252Y-11300419D01*
X907110Y-11299345D01*
X873795Y-11294955D01*
X863653Y-11287171D01*
X696269Y-11119788D01*
X683588Y-11097823D01*
X680021Y-11084511D01*
X640460Y-11015989D01*
X584511Y-10960040D01*
X515990Y-10920479D01*
X439564Y-10900000D01*
X439562Y-10900000D01*
X360438Y-10900000D01*
X360436Y-10900000D01*
X284010Y-10920479D01*
X284008Y-10920479D01*
X215488Y-10960040D01*
X215488Y-10960041D01*
X159541Y-11015988D01*
X159540Y-11015988D01*
X119979Y-11084508D01*
X119979Y-11084510D01*
X99500Y-11160936D01*
X-67200000Y-11160936D01*
X-67200000Y-9349500D01*
X-67185648Y-9314852D01*
X-67151000Y-9300500D01*
X-200000Y-9300500D01*
X151452Y-9036470D01*
X187772Y-9027135D01*
X212550Y-9039512D01*
X212940Y-9039004D01*
X215488Y-9040959D01*
X215489Y-9040960D01*
X284011Y-9080521D01*
X319478Y-9090024D01*
X360436Y-9101000D01*
X360438Y-9101000D01*
X439564Y-9101000D01*
X466230Y-9093854D01*
X515989Y-9080521D01*
X584511Y-9040960D01*
X587892Y-9037578D01*
X622538Y-9023224D01*
X657187Y-9037573D01*
X671542Y-9072220D01*
X669872Y-9084906D01*
X649500Y-9160934D01*
X649500Y-9240065D01*
X669872Y-9316093D01*
X664977Y-9353275D01*
X635224Y-9376105D01*
X598042Y-9371210D01*
X587894Y-9363423D01*
X584511Y-9360040D01*
X515990Y-9320479D01*
X439564Y-9300000D01*
X439562Y-9300000D01*
X360438Y-9300000D01*
X360436Y-9300000D01*
X284010Y-9320479D01*
X284008Y-9320479D01*
X215488Y-9360040D01*
X215488Y-9360041D01*
X159541Y-9415988D01*
X159540Y-9415988D01*
X119979Y-9484508D01*
X119979Y-9484510D01*
X99500Y-9560936D01*
X99500Y-9640063D01*
X119979Y-9716489D01*
X119979Y-9716491D01*
X153963Y-9775352D01*
X159540Y-9785011D01*
X215489Y-9840960D01*
X248686Y-9860126D01*
X283993Y-9880511D01*
X284011Y-9880521D01*
X317435Y-9889477D01*
X360436Y-9901000D01*
X360438Y-9901000D01*
X439564Y-9901000D01*
X466230Y-9893854D01*
X515989Y-9880521D01*
X516007Y-9880511D01*
X551314Y-9860126D01*
X584511Y-9840960D01*
X640460Y-9785011D01*
X640465Y-9785002D01*
X642416Y-9782461D01*
X643276Y-9783121D01*
X669933Y-9762669D01*
X682613Y-9761000D01*
X995023Y-9761000D01*
X1029671Y-9775352D01*
X3039648Y-11785329D01*
X3054000Y-11819977D01*
X3054000Y-11962075D01*
X3054000Y-12025925D01*
X3078435Y-12084916D01*
X3078436Y-12084917D01*
X3078436Y-12084918D01*
X3311771Y-12318252D01*
X3326123Y-12352900D01*
X3311771Y-12387548D01*
X3277123Y-12401900D01*
X1298865Y-12401900D01*
X1264217Y-12387548D01*
X1252473Y-12363735D01*
X1251332Y-12364041D01*
X1231173Y-12288812D01*
X1230021Y-12284511D01*
X1230020Y-12284509D01*
X1230020Y-12284508D01*
X1190459Y-12215988D01*
X1134511Y-12160040D01*
X1065990Y-12120479D01*
X989564Y-12100000D01*
X989562Y-12100000D01*
X910438Y-12100000D01*
X910436Y-12100000D01*
X834010Y-12120479D01*
X834008Y-12120479D01*
X765488Y-12160040D01*
X765488Y-12160041D01*
X709541Y-12215988D01*
X709540Y-12215988D01*
X669979Y-12284508D01*
X669979Y-12284510D01*
X649500Y-12360936D01*
X649500Y-12440065D01*
X669872Y-12516093D01*
X664977Y-12553275D01*
X635224Y-12576105D01*
X598042Y-12571210D01*
X587894Y-12563423D01*
X584511Y-12560040D01*
X515990Y-12520479D01*
X439564Y-12500000D01*
X439562Y-12500000D01*
X360438Y-12500000D01*
X360436Y-12500000D01*
X284010Y-12520479D01*
X284008Y-12520479D01*
X215488Y-12560040D01*
X215488Y-12560041D01*
X159541Y-12615988D01*
X159540Y-12615988D01*
X119979Y-12684508D01*
X119979Y-12684510D01*
X99500Y-12760936D01*
X99500Y-12840063D01*
X119979Y-12916489D01*
X119979Y-12916491D01*
X145677Y-12961000D01*
X159540Y-12985011D01*
X215489Y-13040960D01*
X284011Y-13080521D01*
X319478Y-13090024D01*
X360436Y-13101000D01*
X360438Y-13101000D01*
X439564Y-13101000D01*
X466230Y-13093854D01*
X515989Y-13080521D01*
X584511Y-13040960D01*
X587892Y-13037578D01*
X622538Y-13023224D01*
X657187Y-13037573D01*
X671542Y-13072220D01*
X669872Y-13084906D01*
X649500Y-13160934D01*
X649500Y-13240065D01*
X669872Y-13316093D01*
X664977Y-13353275D01*
X635224Y-13376105D01*
X598042Y-13371210D01*
X587894Y-13363423D01*
X584511Y-13360040D01*
X515990Y-13320479D01*
X439564Y-13300000D01*
X439562Y-13300000D01*
X360438Y-13300000D01*
X360436Y-13300000D01*
X284010Y-13320479D01*
X284008Y-13320479D01*
X215488Y-13360040D01*
X215488Y-13360041D01*
X159541Y-13415988D01*
X159540Y-13415988D01*
X119979Y-13484508D01*
X119979Y-13484510D01*
X99500Y-13560936D01*
X99500Y-13640063D01*
X119979Y-13716489D01*
X119979Y-13716491D01*
X145677Y-13761000D01*
X159540Y-13785011D01*
X215489Y-13840960D01*
X284011Y-13880521D01*
X319478Y-13890024D01*
X360436Y-13901000D01*
X360438Y-13901000D01*
X439564Y-13901000D01*
X466230Y-13893854D01*
X515989Y-13880521D01*
X584511Y-13840960D01*
X587892Y-13837578D01*
X622538Y-13823224D01*
X657187Y-13837573D01*
X671542Y-13872220D01*
X669872Y-13884906D01*
X649500Y-13960934D01*
X649500Y-14040063D01*
X669979Y-14116489D01*
X669979Y-14116491D01*
X691479Y-14153729D01*
X709540Y-14185011D01*
X765489Y-14240960D01*
X834011Y-14280521D01*
X869478Y-14290024D01*
X910436Y-14301000D01*
X910438Y-14301000D01*
X989564Y-14301000D01*
X1016230Y-14293854D01*
X1065989Y-14280521D01*
X1134511Y-14240960D01*
X1190460Y-14185011D01*
X1190465Y-14185002D01*
X1192416Y-14182461D01*
X1193276Y-14183121D01*
X1219933Y-14162669D01*
X1232613Y-14161000D01*
X3278023Y-14161000D01*
X3312671Y-14175352D01*
X3693671Y-14556352D01*
X3708023Y-14591000D01*
X3693671Y-14625648D01*
X3659023Y-14640000D01*
X1232613Y-14640000D01*
X1197965Y-14625648D01*
X1192474Y-14618493D01*
X1192416Y-14618539D01*
X1190462Y-14615993D01*
X1190460Y-14615989D01*
X1134511Y-14560040D01*
X1128123Y-14556352D01*
X1065990Y-14520479D01*
X989564Y-14500000D01*
X989562Y-14500000D01*
X910438Y-14500000D01*
X910436Y-14500000D01*
X834010Y-14520479D01*
X834008Y-14520479D01*
X765488Y-14560040D01*
X765488Y-14560041D01*
X709541Y-14615988D01*
X709540Y-14615988D01*
X669979Y-14684508D01*
X669979Y-14684510D01*
X649500Y-14760936D01*
X649500Y-14840065D01*
X669872Y-14916093D01*
X664977Y-14953275D01*
X635224Y-14976105D01*
X598042Y-14971210D01*
X587894Y-14963423D01*
X584511Y-14960040D01*
X515990Y-14920479D01*
X439564Y-14900000D01*
X439562Y-14900000D01*
X360438Y-14900000D01*
X360436Y-14900000D01*
X284010Y-14920479D01*
X284008Y-14920479D01*
X215488Y-14960040D01*
X215488Y-14960041D01*
X159541Y-15015988D01*
X159540Y-15015988D01*
X119979Y-15084508D01*
X119979Y-15084510D01*
X99500Y-15160936D01*
X99500Y-15240063D01*
X119979Y-15316489D01*
X119979Y-15316491D01*
X153963Y-15375352D01*
X159540Y-15385011D01*
X215489Y-15440960D01*
X284011Y-15480521D01*
X305011Y-15486148D01*
X360436Y-15501000D01*
X360438Y-15501000D01*
X439564Y-15501000D01*
X466230Y-15493854D01*
X515989Y-15480521D01*
X584511Y-15440960D01*
X587892Y-15437578D01*
X622538Y-15423224D01*
X657187Y-15437573D01*
X671542Y-15472220D01*
X669872Y-15484906D01*
X649500Y-15560934D01*
X649500Y-15640063D01*
X669979Y-15716489D01*
X669979Y-15716491D01*
X686093Y-15744400D01*
X709540Y-15785011D01*
X765489Y-15840960D01*
X834011Y-15880521D01*
X869478Y-15890024D01*
X910436Y-15901000D01*
X910438Y-15901000D01*
X989564Y-15901000D01*
X1016230Y-15893854D01*
X1065989Y-15880521D01*
X1134511Y-15840960D01*
X1164596Y-15810875D01*
X1199244Y-15796523D01*
X1233892Y-15810875D01*
X1259079Y-15836062D01*
X1259080Y-15836062D01*
X1259082Y-15836064D01*
X1318074Y-15860499D01*
X1438519Y-15860499D01*
X1473167Y-15874851D01*
X1480953Y-15884998D01*
X1509539Y-15934510D01*
X1565488Y-15990459D01*
X1634010Y-16030020D01*
X1669477Y-16039523D01*
X1710435Y-16050499D01*
X1710437Y-16050499D01*
X1789563Y-16050499D01*
X1816229Y-16043353D01*
X1865988Y-16030020D01*
X1934510Y-15990459D01*
X1990459Y-15934510D01*
X2030020Y-15865988D01*
X2047702Y-15799999D01*
X2050499Y-15789562D01*
X2050499Y-15710435D01*
X2039815Y-15670564D01*
X2030020Y-15634010D01*
X2030019Y-15634008D01*
X2030019Y-15634007D01*
X2004938Y-15590567D01*
X1990459Y-15565488D01*
X1934510Y-15509539D01*
X1918854Y-15500500D01*
X1865989Y-15469978D01*
X1818787Y-15457330D01*
X1789034Y-15434500D01*
X1784140Y-15397317D01*
X1806970Y-15367564D01*
X1831470Y-15361000D01*
X3494223Y-15361000D01*
X3528871Y-15375352D01*
X3954271Y-15800752D01*
X3968623Y-15835400D01*
X3954271Y-15870048D01*
X3919623Y-15884400D01*
X2854813Y-15884400D01*
X2820165Y-15870048D01*
X2814674Y-15862893D01*
X2814616Y-15862939D01*
X2812662Y-15860393D01*
X2812660Y-15860389D01*
X2756711Y-15804440D01*
X2750323Y-15800752D01*
X2688190Y-15764879D01*
X2611764Y-15744400D01*
X2611762Y-15744400D01*
X2532638Y-15744400D01*
X2532636Y-15744400D01*
X2456210Y-15764879D01*
X2456208Y-15764879D01*
X2387688Y-15804440D01*
X2387688Y-15804441D01*
X2331741Y-15860388D01*
X2331740Y-15860388D01*
X2292179Y-15928908D01*
X2292179Y-15928910D01*
X2271700Y-16005336D01*
X2271700Y-16084463D01*
X2292179Y-16160889D01*
X2292179Y-16160891D01*
X2317877Y-16205400D01*
X2331740Y-16229411D01*
X2387689Y-16285360D01*
X2456211Y-16324921D01*
X2491678Y-16334424D01*
X2532636Y-16345400D01*
X2532638Y-16345400D01*
X2611764Y-16345400D01*
X2638430Y-16338254D01*
X2688189Y-16324921D01*
X2756711Y-16285360D01*
X2812660Y-16229411D01*
X2812665Y-16229402D01*
X2814616Y-16226861D01*
X2815476Y-16227521D01*
X2842133Y-16207069D01*
X2854813Y-16205400D01*
X6287523Y-16205400D01*
X6287525Y-16205400D01*
X6346516Y-16180965D01*
X6346518Y-16180963D01*
X6346519Y-16180963D01*
X7798063Y-14729419D01*
X7798063Y-14729418D01*
X7798065Y-14729416D01*
X7822500Y-14670425D01*
X7822500Y-14644913D01*
X7836852Y-14610265D01*
X7844004Y-14604776D01*
X7843959Y-14604718D01*
X7846503Y-14602764D01*
X7846511Y-14602760D01*
X7902460Y-14546811D01*
X7942021Y-14478289D01*
X7962500Y-14401862D01*
X7962500Y-14322738D01*
X7962500Y-14322736D01*
X7951187Y-14280520D01*
X7942021Y-14246311D01*
X7942020Y-14246309D01*
X7942020Y-14246308D01*
X7906631Y-14185014D01*
X7902460Y-14177789D01*
X7846511Y-14121840D01*
X7813377Y-14102710D01*
X7777990Y-14082279D01*
X7701564Y-14061800D01*
X7701562Y-14061800D01*
X7622438Y-14061800D01*
X7622436Y-14061800D01*
X7546010Y-14082279D01*
X7519099Y-14097816D01*
X7481917Y-14102710D01*
X7452164Y-14079879D01*
X7445600Y-14055380D01*
X7445600Y-11660000D01*
X7459952Y-11625352D01*
X7494600Y-11611000D01*
X8670323Y-11611000D01*
X8670325Y-11611000D01*
X8729316Y-11586565D01*
X8729318Y-11586563D01*
X8729319Y-11586563D01*
X10983463Y-9332419D01*
X10983463Y-9332418D01*
X10983465Y-9332416D01*
X11007900Y-9273425D01*
X11007900Y-9209575D01*
X11007900Y-8670175D01*
X10983465Y-8611184D01*
X10938316Y-8566035D01*
X10379766Y-8007485D01*
X6701718Y-4329436D01*
X6642726Y-4305000D01*
X6642725Y-4305000D01*
X5267913Y-4305000D01*
X5233265Y-4290648D01*
X5227774Y-4283493D01*
X5227716Y-4283539D01*
X5225762Y-4280993D01*
X5225760Y-4280989D01*
X5169811Y-4225040D01*
X5101290Y-4185479D01*
X5024864Y-4165000D01*
X5024862Y-4165000D01*
X4945738Y-4165000D01*
X4945736Y-4165000D01*
X4869310Y-4185479D01*
X4869308Y-4185479D01*
X4800788Y-4225040D01*
X4800788Y-4225041D01*
X4744841Y-4280988D01*
X4744840Y-4280988D01*
X4705279Y-4349508D01*
X4705279Y-4349510D01*
X4684800Y-4425936D01*
X4684800Y-4505063D01*
X4705279Y-4581489D01*
X4705279Y-4581491D01*
X4730977Y-4626000D01*
X4744840Y-4650011D01*
X4800789Y-4705960D01*
X4869311Y-4745521D01*
X4904778Y-4755024D01*
X4945736Y-4766000D01*
X4945738Y-4766000D01*
X5024864Y-4766000D01*
X5051530Y-4758854D01*
X5101289Y-4745521D01*
X5169811Y-4705960D01*
X5225760Y-4650011D01*
X5225765Y-4650002D01*
X5227716Y-4647461D01*
X5228576Y-4648121D01*
X5255233Y-4627669D01*
X5267913Y-4626000D01*
X6524023Y-4626000D01*
X6558671Y-4640352D01*
X10074671Y-8156352D01*
X10089023Y-8191000D01*
X10074671Y-8225648D01*
X10040023Y-8240000D01*
X1232613Y-8240000D01*
X1197965Y-8225648D01*
X1192474Y-8218493D01*
X1192416Y-8218539D01*
X1190462Y-8215993D01*
X1190460Y-8215989D01*
X1134511Y-8160040D01*
X1122603Y-8153165D01*
X1065990Y-8120479D01*
X989564Y-8100000D01*
X989562Y-8100000D01*
X910438Y-8100000D01*
X910436Y-8100000D01*
X834010Y-8120479D01*
X834008Y-8120479D01*
X765488Y-8160040D01*
X765488Y-8160041D01*
X709541Y-8215988D01*
X709540Y-8215988D01*
X669979Y-8284508D01*
X669979Y-8284510D01*
X649500Y-8360936D01*
X649500Y-8440065D01*
X669872Y-8516093D01*
X664977Y-8553275D01*
X635224Y-8576105D01*
X598042Y-8571210D01*
X587894Y-8563423D01*
X584511Y-8560040D01*
X515990Y-8520479D01*
X439564Y-8500000D01*
X439562Y-8500000D01*
X360438Y-8500000D01*
X360436Y-8500000D01*
X284010Y-8520479D01*
X284008Y-8520479D01*
X273500Y-8526547D01*
X236317Y-8531442D01*
X206565Y-8508612D01*
X200000Y-8484112D01*
X200000Y-249000D01*
X214352Y-214352D01*
X249000Y-200000D01*
X16751000Y-200000D01*
X16785648Y-214352D01*
G37*
%TD.AperFunction*%
%TA.AperFunction,Conductor*%
G36*
X2370071Y-9375352D02*
G01*
X4465271Y-11470552D01*
X4479623Y-11505200D01*
X4478446Y-11514141D01*
X4478519Y-11514151D01*
X4478100Y-11517335D01*
X4478100Y-11596463D01*
X4498579Y-11672889D01*
X4498579Y-11672891D01*
X4537268Y-11739900D01*
X4542163Y-11777082D01*
X4519333Y-11806835D01*
X4494833Y-11813400D01*
X3964788Y-11813400D01*
X3930140Y-11799048D01*
X3917458Y-11777083D01*
X3916021Y-11771722D01*
X3913821Y-11763511D01*
X3913820Y-11763509D01*
X3913820Y-11763508D01*
X3886673Y-11716489D01*
X3874260Y-11694989D01*
X3818311Y-11639040D01*
X3794603Y-11625352D01*
X3749790Y-11599479D01*
X3673364Y-11579000D01*
X3673362Y-11579000D01*
X3594238Y-11579000D01*
X3586610Y-11581044D01*
X3568337Y-11585940D01*
X3531155Y-11581044D01*
X3508324Y-11551291D01*
X3513220Y-11514109D01*
X3521004Y-11503964D01*
X3540459Y-11484510D01*
X3580020Y-11415988D01*
X3600499Y-11339561D01*
X3600499Y-11260437D01*
X3600499Y-11260435D01*
X3591842Y-11228133D01*
X3580020Y-11184010D01*
X3580019Y-11184008D01*
X3580019Y-11184007D01*
X3554938Y-11140567D01*
X3540459Y-11115488D01*
X3484510Y-11059539D01*
X3479892Y-11056873D01*
X3415989Y-11019978D01*
X3339563Y-10999499D01*
X3339561Y-10999499D01*
X3260437Y-10999499D01*
X3260434Y-10999499D01*
X3257250Y-10999918D01*
X3257108Y-10998844D01*
X3223793Y-10994454D01*
X3213651Y-10986670D01*
X2142194Y-9915213D01*
X2127842Y-9880565D01*
X2129512Y-9867882D01*
X2131591Y-9860126D01*
X2150499Y-9789561D01*
X2150499Y-9710437D01*
X2150499Y-9710435D01*
X2138011Y-9663833D01*
X2130020Y-9634010D01*
X2130019Y-9634008D01*
X2130019Y-9634007D01*
X2090458Y-9565487D01*
X2034510Y-9509539D01*
X1965989Y-9469978D01*
X1918787Y-9457330D01*
X1889034Y-9434500D01*
X1884140Y-9397317D01*
X1906970Y-9367564D01*
X1931470Y-9361000D01*
X2335423Y-9361000D01*
X2370071Y-9375352D01*
G37*
%TD.AperFunction*%
%TD*%
M02*
