%TF.GenerationSoftware,KiCad,Pcbnew,10.0.4*%
%TF.CreationDate,2026-09-23T17:47:44+08:00*%
%TF.ProjectId,am213-fpc-adapter,616d3231-332d-4667-9063-2d6164617074,rev?*%
%TF.SameCoordinates,Original*%
%TF.FileFunction,Copper,L1,Top*%
%TF.FilePolarity,Positive*%
%FSLAX46Y46*%
G04 Gerber Fmt 4.6, Leading zero omitted, Abs format (unit mm)*
G04 Created by KiCad (PCBNEW 10.0.4) date 2026-09-23 17:47:44*
%MOMM*%
%LPD*%
G01*
G04 APERTURE LIST*
G04 Aperture macros list*
%AMRoundRect*
0 Rectangle with rounded corners*
0 $1 Rounding radius*
0 $2 $3 $4 $5 $6 $7 $8 $9 X,Y pos of 4 corners*
0 Add a 4 corners polygon primitive as box body*
4,1,4,$2,$3,$4,$5,$6,$7,$8,$9,$2,$3,0*
0 Add four circle primitives for the rounded corners*
1,1,$1+$1,$2,$3*
1,1,$1+$1,$4,$5*
1,1,$1+$1,$6,$7*
1,1,$1+$1,$8,$9*
0 Add four rect primitives between the rounded corners*
20,1,$1+$1,$2,$3,$4,$5,0*
20,1,$1+$1,$4,$5,$6,$7,0*
20,1,$1+$1,$6,$7,$8,$9,0*
20,1,$1+$1,$8,$9,$2,$3,0*%
G04 Aperture macros list end*
%TA.AperFunction,SMDPad,CuDef*%
%ADD10RoundRect,0.140000X0.170000X-0.140000X0.170000X0.140000X-0.170000X0.140000X-0.170000X-0.140000X0*%
%TD*%
%TA.AperFunction,SMDPad,CuDef*%
%ADD11RoundRect,0.135000X-0.135000X-0.185000X0.135000X-0.185000X0.135000X0.185000X-0.135000X0.185000X0*%
%TD*%
%TA.AperFunction,SMDPad,CuDef*%
%ADD12RoundRect,0.225000X0.250000X-0.225000X0.250000X0.225000X-0.250000X0.225000X-0.250000X-0.225000X0*%
%TD*%
%TA.AperFunction,SMDPad,CuDef*%
%ADD13RoundRect,0.135000X0.185000X-0.135000X0.185000X0.135000X-0.185000X0.135000X-0.185000X-0.135000X0*%
%TD*%
%TA.AperFunction,SMDPad,CuDef*%
%ADD14R,2.200000X0.200000*%
%TD*%
%TA.AperFunction,SMDPad,CuDef*%
%ADD15R,0.700000X0.700000*%
%TD*%
%TA.AperFunction,SMDPad,CuDef*%
%ADD16R,0.500000X0.230000*%
%TD*%
%TA.AperFunction,SMDPad,CuDef*%
%ADD17R,0.800000X0.600000*%
%TD*%
%TA.AperFunction,ViaPad*%
%ADD18C,0.400000*%
%TD*%
%TA.AperFunction,ViaPad*%
%ADD19C,0.300000*%
%TD*%
%TA.AperFunction,Conductor*%
%ADD20C,0.120000*%
%TD*%
%TA.AperFunction,Conductor*%
%ADD21C,0.100000*%
%TD*%
%TA.AperFunction,Conductor*%
%ADD22C,0.140000*%
%TD*%
%TA.AperFunction,Conductor*%
%ADD23C,0.440000*%
%TD*%
G04 APERTURE END LIST*
D10*
%TO.P,C3,1*%
%TO.N,/LCD_VDD*%
X9000000Y-19780000D03*
%TO.P,C3,2*%
%TO.N,/GND*%
X9000000Y-18820000D03*
%TD*%
D11*
%TO.P,R2,1*%
%TO.N,/CS_IN*%
X6490000Y-7000000D03*
%TO.P,R2,2*%
%TO.N,/LCD_CS*%
X7510000Y-7000000D03*
%TD*%
%TO.P,R1,1*%
%TO.N,/CLK_IN*%
X6490000Y-9000000D03*
%TO.P,R1,2*%
%TO.N,/LCD_CLK*%
X7510000Y-9000000D03*
%TD*%
D10*
%TO.P,C1,1*%
%TO.N,/VCC_3V3*%
X3000000Y-19980000D03*
%TO.P,C1,2*%
%TO.N,/GND*%
X3000000Y-19020000D03*
%TD*%
%TO.P,C4,1*%
%TO.N,/TP_VDD*%
X12000000Y-20980000D03*
%TO.P,C4,2*%
%TO.N,/GND*%
X12000000Y-20020000D03*
%TD*%
D11*
%TO.P,R6,1*%
%TO.N,/D3_IN*%
X6490000Y-15000000D03*
%TO.P,R6,2*%
%TO.N,/LCD_D3*%
X7510000Y-15000000D03*
%TD*%
D12*
%TO.P,C2,1*%
%TO.N,/VCC_3V3*%
X1500000Y-20075000D03*
%TO.P,C2,2*%
%TO.N,/GND*%
X1500000Y-18525000D03*
%TD*%
D13*
%TO.P,R11,1*%
%TO.N,/VCC_3V3*%
X13000000Y-14510000D03*
%TO.P,R11,2*%
%TO.N,/TP_SCL*%
X13000000Y-13490000D03*
%TD*%
D11*
%TO.P,R8,1*%
%TO.N,/VCC_3V3*%
X5490000Y-20800000D03*
%TO.P,R8,2*%
%TO.N,/TP_VDD*%
X6510000Y-20800000D03*
%TD*%
%TO.P,R4,1*%
%TO.N,/D1_IN*%
X6490000Y-11000000D03*
%TO.P,R4,2*%
%TO.N,/LCD_D1*%
X7510000Y-11000000D03*
%TD*%
%TO.P,R5,1*%
%TO.N,/D2_IN*%
X6490000Y-17000000D03*
%TO.P,R5,2*%
%TO.N,/LCD_D2*%
X7510000Y-17000000D03*
%TD*%
%TO.P,R7,1*%
%TO.N,/VCC_3V3*%
X5490000Y-19300000D03*
%TO.P,R7,2*%
%TO.N,/LCD_VDD*%
X6510000Y-19300000D03*
%TD*%
D14*
%TO.P,J1,1*%
%TO.N,unconnected-(J1-LCD_LEDA-Pad1)*%
X-68600000Y-15400500D03*
%TO.P,J1,2*%
%TO.N,unconnected-(J1-LCD_LEDK-Pad2)*%
X-68600000Y-15100500D03*
%TO.P,J1,3*%
%TO.N,/LCD_RST*%
X-68600000Y-14800500D03*
%TO.P,J1,4*%
%TO.N,/VCI_EN*%
X-68600000Y-14500500D03*
%TO.P,J1,5*%
%TO.N,/CLK_IN*%
X-68600000Y-14200500D03*
%TO.P,J1,6*%
%TO.N,unconnected-(J1-NC-Pad6)*%
X-68600000Y-13900500D03*
%TO.P,J1,7*%
%TO.N,/CS_IN*%
X-68600000Y-13600500D03*
%TO.P,J1,8*%
%TO.N,/D3_IN*%
X-68600000Y-13300500D03*
%TO.P,J1,9*%
%TO.N,/D2_IN*%
X-68600000Y-13000500D03*
%TO.P,J1,10*%
%TO.N,/D1_IN*%
X-68600000Y-12700500D03*
%TO.P,J1,11*%
%TO.N,/D0_IN*%
X-68600000Y-12400500D03*
%TO.P,J1,12*%
%TO.N,/GND*%
X-68600000Y-12100500D03*
%TO.P,J1,13*%
%TO.N,/VCC_3V3*%
X-68600000Y-11800500D03*
%TO.P,J1,14*%
X-68600000Y-11500500D03*
%TO.P,J1,15*%
%TO.N,unconnected-(J1-NC-Pad15)*%
X-68600000Y-11200500D03*
%TO.P,J1,16*%
%TO.N,unconnected-(J1-NC-Pad16)*%
X-68600000Y-10900500D03*
%TO.P,J1,17*%
%TO.N,/GND*%
X-68600000Y-10600500D03*
%TO.P,J1,18*%
%TO.N,/TP_INT*%
X-68600000Y-10300500D03*
%TO.P,J1,19*%
%TO.N,/TP_SCL*%
X-68600000Y-10000500D03*
%TO.P,J1,20*%
%TO.N,/TP_SDA*%
X-68600000Y-9700500D03*
%TO.P,J1,21*%
%TO.N,/TP_RST*%
X-68600000Y-9400500D03*
%TD*%
D15*
%TO.P,TP1,1*%
%TO.N,/LCD_TE*%
X6000000Y-5500000D03*
%TD*%
D11*
%TO.P,R9,1*%
%TO.N,/VCI_EN*%
X5490000Y-4000000D03*
%TO.P,R9,2*%
%TO.N,/GND*%
X6510000Y-4000000D03*
%TD*%
D16*
%TO.P,J2,1*%
%TO.N,/LCD_RST*%
X1800000Y-9800000D03*
%TO.P,J2,2*%
%TO.N,/GND*%
X1800000Y-10200000D03*
%TO.P,J2,3*%
%TO.N,/LCD_TE*%
X1800000Y-10600000D03*
%TO.P,J2,4*%
%TO.N,/LCD_CS*%
X1800000Y-11000000D03*
%TO.P,J2,5*%
%TO.N,/LCD_CLK*%
X1800000Y-11400000D03*
%TO.P,J2,6*%
%TO.N,/LCD_D1*%
X1800000Y-11800000D03*
%TO.P,J2,7*%
%TO.N,/LCD_D0*%
X1800000Y-12200000D03*
%TO.P,J2,8*%
%TO.N,/GND*%
X1800000Y-12600000D03*
%TO.P,J2,9*%
%TO.N,unconnected-(J2-NC_IM1-Pad9)*%
X1800000Y-13000000D03*
%TO.P,J2,10*%
%TO.N,unconnected-(J2-NC_MTP-Pad10)*%
X1800000Y-13400000D03*
%TO.P,J2,11*%
%TO.N,/VCC_3V3*%
X1800000Y-13800000D03*
%TO.P,J2,12*%
X1800000Y-14200000D03*
%TO.P,J2,13*%
%TO.N,/GND*%
X4200000Y-14200000D03*
%TO.P,J2,14*%
X4200000Y-13800000D03*
%TO.P,J2,15*%
%TO.N,/LCD_VDD*%
X4200000Y-13400000D03*
%TO.P,J2,16*%
%TO.N,/TP_VDD*%
X4200000Y-13000000D03*
%TO.P,J2,17*%
%TO.N,/TP_INT*%
X4200000Y-12600000D03*
%TO.P,J2,18*%
%TO.N,/TP_RST*%
X4200000Y-12200000D03*
%TO.P,J2,19*%
%TO.N,/TP_SDA*%
X4200000Y-11800000D03*
%TO.P,J2,20*%
%TO.N,/TP_SCL*%
X4200000Y-11400000D03*
%TO.P,J2,21*%
%TO.N,/GND*%
X4200000Y-11000000D03*
%TO.P,J2,22*%
%TO.N,/LCD_D3*%
X4200000Y-10600000D03*
%TO.P,J2,23*%
%TO.N,/LCD_D2*%
X4200000Y-10200000D03*
%TO.P,J2,24*%
%TO.N,/VCI_EN*%
X4200000Y-9800000D03*
D17*
%TO.P,J2,MP*%
%TO.N,/GND*%
X1950000Y-8970000D03*
X1950000Y-15030000D03*
X4050000Y-8970000D03*
X4050000Y-15030000D03*
%TD*%
D11*
%TO.P,R3,1*%
%TO.N,/D0_IN*%
X6490000Y-13000000D03*
%TO.P,R3,2*%
%TO.N,/LCD_D0*%
X7510000Y-13000000D03*
%TD*%
D13*
%TO.P,R10,1*%
%TO.N,/VCC_3V3*%
X11000000Y-14510000D03*
%TO.P,R10,2*%
%TO.N,/TP_SDA*%
X11000000Y-13490000D03*
%TD*%
D18*
%TO.N,/GND*%
X950000Y-10000500D03*
X400000Y-12000500D03*
X3206499Y-18071559D03*
D19*
X3619999Y-10859999D03*
X2269999Y-9549999D03*
D18*
X-66900000Y-10750500D03*
X2794000Y-11856800D03*
D19*
X2249999Y-15549999D03*
D18*
%TO.N,/CS_IN*%
X4841300Y-15186700D03*
X950000Y-14000500D03*
%TO.N,/CLK_IN*%
X950000Y-14800500D03*
X6869700Y-9597300D03*
%TO.N,/VCC_3V3*%
X400000Y-11200500D03*
X950000Y-11600500D03*
%TO.N,/D3_IN*%
X400000Y-13600500D03*
X5353000Y-15186700D03*
%TO.N,/TP_SCL*%
X950000Y-9200500D03*
X4778600Y-11556900D03*
%TO.N,/D1_IN*%
X6607300Y-12359700D03*
X400000Y-12800500D03*
%TO.N,/D2_IN*%
X5864800Y-15186700D03*
X950000Y-13200500D03*
%TO.N,/LCD_D2*%
X8822500Y-9996500D03*
X5754600Y-9877100D03*
%TO.N,/LCD_RST*%
X1749999Y-15749999D03*
X950000Y-15600500D03*
X3299999Y-11299999D03*
X1849999Y-9749999D03*
%TO.N,/VCI_EN*%
X5242800Y-9800900D03*
X400000Y-15200500D03*
X4985300Y-4465500D03*
%TO.N,/D0_IN*%
X5815100Y-12562400D03*
X950000Y-12400500D03*
%TO.N,/TP_INT*%
X4764100Y-12991800D03*
X400000Y-9600500D03*
%TO.N,/TP_SDA*%
X3633800Y-11879500D03*
X10244000Y-8954300D03*
X400000Y-8800500D03*
%TO.N,/TP_RST*%
X950000Y-8400500D03*
X5375900Y-11062500D03*
%TO.N,/LCD_D0*%
X2572200Y-16044900D03*
X7662000Y-14362300D03*
%TD*%
%TO.N,/LCD_VDD*%
D20*
X3451600Y-13726700D02*
X3451600Y-15558800D01*
X3451600Y-15558800D02*
X6510000Y-18617200D01*
X4200000Y-13400000D02*
X3778300Y-13400000D01*
X6990000Y-19780000D02*
X6510000Y-19300000D01*
X3778300Y-13400000D02*
X3451600Y-13726700D01*
X9000000Y-19780000D02*
X6990000Y-19780000D01*
X6510000Y-18617200D02*
X6510000Y-19300000D01*
%TO.N,/GND*%
X3778300Y-14388500D02*
X3778300Y-14200000D01*
X4050000Y-8970000D02*
X4050000Y-9441700D01*
X3778300Y-11000000D02*
X3778300Y-9595500D01*
X3989200Y-14200000D02*
X3778300Y-13989100D01*
X4050000Y-15501700D02*
X4050000Y-15747600D01*
X4050000Y-15030000D02*
X4050000Y-14558300D01*
D21*
X1799999Y-12599999D02*
X1999999Y-12599999D01*
D20*
X250000Y-10000500D02*
X950000Y-10000500D01*
X1950000Y-8970000D02*
X1950000Y-8498300D01*
X4050000Y-14558300D02*
X3948100Y-14558300D01*
X3948100Y-14558300D02*
X3778300Y-14388500D01*
X3778300Y-13989100D02*
X3778300Y-13800000D01*
X2920000Y-18940000D02*
X2920000Y-18525000D01*
X-2000000Y-10600500D02*
X250000Y-10000500D01*
X3932100Y-9441700D02*
X4050000Y-9441700D01*
D21*
X1999999Y-12599999D02*
X2199999Y-12799999D01*
D20*
X3778300Y-9595500D02*
X3932100Y-9441700D01*
X5706200Y-4742100D02*
X1950000Y-8498300D01*
X9194200Y-7068600D02*
X6867700Y-4742100D01*
X950000Y-10000500D02*
X1349200Y-10000500D01*
X2221700Y-14404500D02*
X2067900Y-14558300D01*
D22*
X-67500000Y-12100500D02*
X-2000000Y-12100500D01*
D21*
X2199999Y-12799999D02*
X2199999Y-12849999D01*
D20*
X1349200Y-9570800D02*
X1478300Y-9441700D01*
X6510000Y-4000000D02*
X6510000Y-4742100D01*
X9000000Y-18820000D02*
X8107600Y-17927600D01*
X2920000Y-18525000D02*
X2943900Y-18501100D01*
D22*
X-67500000Y-10600500D02*
X-2000000Y-10600500D01*
D20*
X1500000Y-18525000D02*
X1950000Y-18525000D01*
X-2000000Y-12100500D02*
X250000Y-12000500D01*
X1950000Y-15030000D02*
X1950000Y-14558300D01*
X6867700Y-4742100D02*
X6510000Y-4742100D01*
X9194200Y-16643400D02*
X9194200Y-7068600D01*
X8107600Y-17927600D02*
X8107600Y-17730000D01*
X4050000Y-15747600D02*
X6032400Y-17730000D01*
D21*
X2199999Y-12849999D02*
X2249999Y-12899999D01*
D20*
X4200000Y-14200000D02*
X3989200Y-14200000D01*
X1349200Y-10000500D02*
X1349200Y-9570800D01*
X3989200Y-11000000D02*
X3778300Y-11000000D01*
X3000000Y-19020000D02*
X2920000Y-18940000D01*
X2067900Y-14558300D02*
X1950000Y-14558300D01*
X6510000Y-4742100D02*
X5706200Y-4742100D01*
X1378300Y-10200000D02*
X1378300Y-10029600D01*
D22*
X-67150000Y-10600500D02*
X-66900000Y-10750500D01*
D20*
X950000Y-10000500D02*
X1349200Y-10000500D01*
X8107600Y-17730000D02*
X9194200Y-16643400D01*
D21*
X2249999Y-12899999D02*
X2249999Y-15549999D01*
D20*
X2221700Y-12600000D02*
X2221700Y-14404500D01*
X4200000Y-13800000D02*
X3778300Y-13800000D01*
X3989200Y-11000000D02*
X4200000Y-11000000D01*
X4050000Y-15265800D02*
X4050000Y-15501700D01*
D21*
X4199999Y-10999999D02*
X3759999Y-10999999D01*
D20*
X10800000Y-18820000D02*
X9000000Y-18820000D01*
X1378300Y-10029600D02*
X1349200Y-10000500D01*
X1950000Y-18525000D02*
X2920000Y-18525000D01*
X6032400Y-17730000D02*
X8107600Y-17730000D01*
X12000000Y-20020000D02*
X10800000Y-18820000D01*
X250000Y-12000500D02*
X400000Y-12000500D01*
X1800000Y-10200000D02*
X1378300Y-10200000D01*
X4050000Y-15265800D02*
X4050000Y-15030000D01*
D21*
X3759999Y-10999999D02*
X3619999Y-10859999D01*
D20*
X2921500Y-11856800D02*
X2794000Y-11856800D01*
X3989200Y-14200000D02*
X3778300Y-14200000D01*
X1800000Y-12600000D02*
X2221700Y-12600000D01*
%TO.N,/CS_IN*%
X6938500Y-17358700D02*
X6798900Y-17498300D01*
X7793400Y-6481100D02*
X8108000Y-6795700D01*
X8108000Y-15173200D02*
X7351700Y-15929500D01*
X6798900Y-17498300D02*
X6209200Y-17498300D01*
X7351700Y-15929500D02*
X7133900Y-15929500D01*
X-2000000Y-13600500D02*
X250000Y-14000500D01*
X7008900Y-6481100D02*
X7793400Y-6481100D01*
X6209200Y-17498300D02*
X4841300Y-16130400D01*
X8108000Y-6795700D02*
X8108000Y-15173200D01*
X6490000Y-7000000D02*
X7008900Y-6481100D01*
X4841300Y-16130400D02*
X4841300Y-15186700D01*
X250000Y-14000500D02*
X950000Y-14000500D01*
X-67500000Y-13600500D02*
X-2000000Y-13600500D01*
X7133900Y-15929500D02*
X6938500Y-16124900D01*
X6938500Y-16124900D02*
X6938500Y-17358700D01*
%TO.N,/LCD_CS*%
X1800000Y-11000000D02*
X2221700Y-11000000D01*
X3479400Y-7886600D02*
X6623400Y-7886600D01*
X3014500Y-10207200D02*
X3014500Y-8351500D01*
X3014500Y-8351500D02*
X3479400Y-7886600D01*
X2221700Y-11000000D02*
X3014500Y-10207200D01*
X6623400Y-7886600D02*
X7510000Y-7000000D01*
%TO.N,/CLK_IN*%
X-67500000Y-14200500D02*
X-2000000Y-14200500D01*
X6490000Y-9217600D02*
X6869700Y-9597300D01*
X6490000Y-9000000D02*
X6490000Y-9217600D01*
X250000Y-14800500D02*
X950000Y-14800500D01*
X-2000000Y-14200500D02*
X250000Y-14800500D01*
%TO.N,/LCD_CLK*%
X2221700Y-11400000D02*
X3246300Y-10375400D01*
X3246300Y-10375400D02*
X3246300Y-8449800D01*
X1800000Y-11400000D02*
X2221700Y-11400000D01*
X6758200Y-8248200D02*
X7510000Y-9000000D01*
X3246300Y-8449800D02*
X3447900Y-8248200D01*
X3447900Y-8248200D02*
X6758200Y-8248200D01*
%TO.N,/VCC_3V3*%
D22*
X-2500000Y-11650500D02*
X-2000000Y-11800500D01*
D20*
X6162600Y-21472600D02*
X12306300Y-21472600D01*
X12306300Y-21472600D02*
X13000000Y-20778900D01*
X-2000000Y-11500500D02*
X250000Y-11200500D01*
X4810000Y-19980000D02*
X5490000Y-19300000D01*
X-2000000Y-11800500D02*
X250000Y-11600500D01*
X5490000Y-20800000D02*
X6162600Y-21472600D01*
X13000000Y-14510000D02*
X11000000Y-14510000D01*
D22*
X-66600000Y-11800500D02*
X-66200000Y-11650500D01*
D20*
X836500Y-17746300D02*
X1378300Y-17204500D01*
X1378300Y-17204500D02*
X1378300Y-14200000D01*
X1378300Y-13927900D02*
X1378300Y-14200000D01*
D22*
X-2500000Y-11650500D02*
X-2000000Y-11500500D01*
D20*
X2905000Y-20075000D02*
X3000000Y-19980000D01*
D23*
X-66200000Y-11650500D02*
X-2500000Y-11650500D01*
D22*
X-66600000Y-11500500D02*
X-66200000Y-11650500D01*
D20*
X3000000Y-19980000D02*
X4810000Y-19980000D01*
X950000Y-11600500D02*
X1378300Y-12028800D01*
X1800000Y-14200000D02*
X1378300Y-14200000D01*
X1429500Y-13876700D02*
X1378300Y-13927900D01*
D22*
X-67500000Y-11500500D02*
X-66600000Y-11500500D01*
D20*
X250000Y-11600500D02*
X950000Y-11600500D01*
X1668900Y-13876700D02*
X1723300Y-13876700D01*
X1500000Y-20075000D02*
X2905000Y-20075000D01*
X1500000Y-20075000D02*
X836500Y-19411500D01*
X1723300Y-13876700D02*
X1800000Y-13800000D01*
X13000000Y-20778900D02*
X13000000Y-14510000D01*
X4810000Y-19980000D02*
X4810000Y-20120000D01*
X4810000Y-20120000D02*
X5490000Y-20800000D01*
X1723300Y-13876700D02*
X1429500Y-13876700D01*
D22*
X-67500000Y-11800500D02*
X-66600000Y-11800500D01*
D20*
X1378300Y-13586100D02*
X1668900Y-13876700D01*
X1378300Y-12028800D02*
X1378300Y-13586100D01*
X250000Y-11200500D02*
X400000Y-11200500D01*
X836500Y-19411500D02*
X836500Y-17746300D01*
%TO.N,/TP_VDD*%
X6000000Y-18435100D02*
X3219900Y-15655000D01*
X6000000Y-20290000D02*
X6000000Y-18435100D01*
X3219900Y-13558400D02*
X3778300Y-13000000D01*
X6510000Y-20800000D02*
X6000000Y-20290000D01*
X3219900Y-15655000D02*
X3219900Y-13558400D01*
X11820000Y-20800000D02*
X12000000Y-20980000D01*
X4200000Y-13000000D02*
X3778300Y-13000000D01*
X6510000Y-20800000D02*
X11820000Y-20800000D01*
%TO.N,/D3_IN*%
X5353000Y-15172800D02*
X5353000Y-15186700D01*
X5710800Y-14815000D02*
X5353000Y-15172800D01*
X250000Y-13600500D02*
X400000Y-13600500D01*
X-2000000Y-13300500D02*
X250000Y-13600500D01*
X6490000Y-15000000D02*
X6305000Y-14815000D01*
X6305000Y-14815000D02*
X5710800Y-14815000D01*
X-67500000Y-13300500D02*
X-2000000Y-13300500D01*
%TO.N,/LCD_D3*%
X4713900Y-10507800D02*
X6783600Y-10507800D01*
X4200000Y-10600000D02*
X4621700Y-10600000D01*
X4621700Y-10600000D02*
X4713900Y-10507800D01*
X7067800Y-10792000D02*
X7067800Y-14557800D01*
X7067800Y-14557800D02*
X7510000Y-15000000D01*
X6783600Y-10507800D02*
X7067800Y-10792000D01*
%TO.N,/TP_SCL*%
X1378300Y-8772200D02*
X950000Y-9200500D01*
X5140500Y-3501900D02*
X1378300Y-7264100D01*
X250000Y-9200500D02*
X950000Y-9200500D01*
X13000000Y-13490000D02*
X13000000Y-9661600D01*
X-2000000Y-10000500D02*
X250000Y-9200500D01*
X4200000Y-11400000D02*
X4621700Y-11400000D01*
X-67500000Y-10000500D02*
X-2000000Y-10000500D01*
X13000000Y-9661600D02*
X6840300Y-3501900D01*
X1378300Y-7264100D02*
X1378300Y-8772200D01*
X4621700Y-11400000D02*
X4778600Y-11556900D01*
X6840300Y-3501900D02*
X5140500Y-3501900D01*
%TO.N,/D1_IN*%
X-67500000Y-12700500D02*
X-2000000Y-12700500D01*
X-2000000Y-12700500D02*
X250000Y-12800500D01*
X250000Y-12800500D02*
X400000Y-12800500D01*
X6607300Y-11117300D02*
X6607300Y-12359700D01*
X6490000Y-11000000D02*
X6607300Y-11117300D01*
%TO.N,/LCD_D1*%
X1800000Y-11800000D02*
X2221700Y-11800000D01*
X2221700Y-11800000D02*
X3478000Y-10543700D01*
X3478000Y-8545900D02*
X3525600Y-8498300D01*
X5111200Y-8498300D02*
X7510000Y-10897100D01*
X7510000Y-10897100D02*
X7510000Y-11000000D01*
X3525600Y-8498300D02*
X5111200Y-8498300D01*
X3478000Y-10543700D02*
X3478000Y-8545900D01*
%TO.N,/D2_IN*%
X5864800Y-15186700D02*
X5864800Y-16374800D01*
X-67500000Y-13000500D02*
X-2000000Y-13000500D01*
X5864800Y-16374800D02*
X6490000Y-17000000D01*
X-2000000Y-13000500D02*
X250000Y-13200500D01*
X250000Y-13200500D02*
X950000Y-13200500D01*
%TO.N,/LCD_D2*%
X4200000Y-10200000D02*
X5431700Y-10200000D01*
X8822500Y-15687500D02*
X8822500Y-9996500D01*
X5431700Y-10200000D02*
X5754600Y-9877100D01*
X7510000Y-17000000D02*
X8822500Y-15687500D01*
%TO.N,/LCD_RST*%
X2949999Y-13399999D02*
X3049999Y-13299999D01*
X2749999Y-16399999D02*
X2949999Y-16199999D01*
X3199999Y-11399999D02*
X3299999Y-11299999D01*
X3049999Y-12149999D02*
X3149999Y-12049999D01*
X-2000000Y-14800500D02*
X250000Y-15600500D01*
X3199999Y-11899999D02*
X3199999Y-11399999D01*
X2499999Y-16449999D02*
X2649999Y-16449999D01*
X2449999Y-16399999D02*
X2499999Y-16449999D01*
X3149999Y-11949999D02*
X3199999Y-11899999D01*
X2399999Y-16399999D02*
X2449999Y-16399999D01*
X2949999Y-16199999D02*
X2949999Y-13399999D01*
X3049999Y-13299999D02*
X3049999Y-12149999D01*
X1749999Y-15749999D02*
X2399999Y-16399999D01*
X3149999Y-12049999D02*
X3149999Y-11949999D01*
X1849999Y-9749999D02*
X1799999Y-9799999D01*
X2699999Y-16399999D02*
X2749999Y-16399999D01*
X250000Y-15600500D02*
X950000Y-15600500D01*
X2649999Y-16449999D02*
X2699999Y-16399999D01*
X-67500000Y-14800500D02*
X-2000000Y-14800500D01*
%TO.N,/VCI_EN*%
X250000Y-15200500D02*
X400000Y-15200500D01*
X4621700Y-9800000D02*
X5241900Y-9800000D01*
X5241900Y-9800000D02*
X5242800Y-9800900D01*
X4985300Y-4465500D02*
X5450800Y-4000000D01*
X-67500000Y-14500500D02*
X-2000000Y-14500500D01*
X5450800Y-4000000D02*
X5490000Y-4000000D01*
X-2000000Y-14500500D02*
X250000Y-15200500D01*
X4200000Y-9800000D02*
X4621700Y-9800000D01*
%TO.N,/D0_IN*%
X-67500000Y-12400500D02*
X-2000000Y-12400500D01*
X250000Y-12400500D02*
X950000Y-12400500D01*
X6252700Y-13000000D02*
X5815100Y-12562400D01*
X6490000Y-13000000D02*
X6252700Y-13000000D01*
X-2000000Y-12400500D02*
X250000Y-12400500D01*
%TO.N,/TP_INT*%
X4621700Y-12600000D02*
X4621700Y-12849400D01*
X250000Y-9600500D02*
X400000Y-9600500D01*
X-2000000Y-10300500D02*
X250000Y-9600500D01*
X-67500000Y-10300500D02*
X-2000000Y-10300500D01*
X4200000Y-12600000D02*
X4621700Y-12600000D01*
X4621700Y-12849400D02*
X4764100Y-12991800D01*
%TO.N,/TP_SDA*%
X-2000000Y-9700500D02*
X250000Y-8800500D01*
X-67500000Y-9700500D02*
X-2000000Y-9700500D01*
X3713300Y-11800000D02*
X3633800Y-11879500D01*
X250000Y-8800500D02*
X400000Y-8800500D01*
X4200000Y-11800000D02*
X3713300Y-11800000D01*
X11000000Y-13490000D02*
X10244000Y-12734000D01*
X10244000Y-12734000D02*
X10244000Y-8954300D01*
%TO.N,/TP_RST*%
X4673800Y-12200000D02*
X5375900Y-11497900D01*
X-2000000Y-9400500D02*
X250000Y-8400500D01*
X4200000Y-12200000D02*
X4673800Y-12200000D01*
X-67500000Y-9400500D02*
X-2000000Y-9400500D01*
X250000Y-8400500D02*
X950000Y-8400500D01*
X5375900Y-11497900D02*
X5375900Y-11062500D01*
%TO.N,/LCD_TE*%
X6000000Y-5500000D02*
X5478300Y-5500000D01*
X1800000Y-10600000D02*
X2221700Y-10600000D01*
X2588500Y-8389800D02*
X5478300Y-5500000D01*
X2588500Y-10233200D02*
X2588500Y-8389800D01*
X2221700Y-10600000D02*
X2588500Y-10233200D01*
%TO.N,/LCD_D0*%
X7510000Y-13000000D02*
X7510000Y-14210300D01*
X1800000Y-12200000D02*
X2262200Y-12200000D01*
X2572200Y-12510000D02*
X2572200Y-16044900D01*
X2262200Y-12200000D02*
X2572200Y-12510000D01*
X7510000Y-14210300D02*
X7662000Y-14362300D01*
%TD*%
%TA.AperFunction,Conductor*%
%TO.N,/GND*%
G36*
X16785648Y-214352D02*
G01*
X16800000Y-249000D01*
X16800000Y-21751000D01*
X16785648Y-21785648D01*
X16751000Y-21800000D01*
X249000Y-21800000D01*
X214352Y-21785648D01*
X200000Y-21751000D01*
X200000Y-15810324D01*
X206733Y-15794068D01*
X212631Y-15777486D01*
X213840Y-15776911D01*
X214352Y-15775676D01*
X246501Y-15761388D01*
X250360Y-15761191D01*
X252853Y-15761064D01*
X255350Y-15761000D01*
X667387Y-15761000D01*
X702035Y-15775352D01*
X707525Y-15782506D01*
X707584Y-15782461D01*
X709537Y-15785007D01*
X709540Y-15785011D01*
X765489Y-15840960D01*
X834011Y-15880521D01*
X869478Y-15890024D01*
X910436Y-15901000D01*
X910438Y-15901000D01*
X989564Y-15901000D01*
X1027344Y-15890876D01*
X1065989Y-15880521D01*
X1134511Y-15840960D01*
X1134515Y-15840955D01*
X1137060Y-15839004D01*
X1137706Y-15839846D01*
X1168800Y-15826967D01*
X1203448Y-15841319D01*
X1217800Y-15875967D01*
X1217800Y-17117723D01*
X1203448Y-17152371D01*
X745584Y-17610235D01*
X723009Y-17632809D01*
X700435Y-17655383D01*
X676000Y-17714373D01*
X676000Y-17714375D01*
X676000Y-19379575D01*
X676000Y-19443425D01*
X700435Y-19502416D01*
X700436Y-19502417D01*
X700436Y-19502418D01*
X917391Y-19719372D01*
X931743Y-19754020D01*
X930793Y-19760680D01*
X931230Y-19760738D01*
X924500Y-19811862D01*
X924500Y-20338132D01*
X924501Y-20338138D01*
X930740Y-20385545D01*
X979253Y-20489579D01*
X979254Y-20489581D01*
X1060418Y-20570745D01*
X1060420Y-20570746D01*
X1060421Y-20570747D01*
X1164455Y-20619259D01*
X1211861Y-20625500D01*
X1788138Y-20625499D01*
X1835545Y-20619259D01*
X1939579Y-20570747D01*
X2020747Y-20489579D01*
X2069259Y-20385545D01*
X2075500Y-20338139D01*
X2075500Y-20284500D01*
X2089852Y-20249852D01*
X2124500Y-20235500D01*
X2591736Y-20235500D01*
X2626384Y-20249852D01*
X2632478Y-20257277D01*
X2656608Y-20293391D01*
X2709524Y-20328748D01*
X2736161Y-20346546D01*
X2736163Y-20346547D01*
X2806306Y-20360499D01*
X2806312Y-20360500D01*
X3193688Y-20360500D01*
X3194625Y-20360313D01*
X3263836Y-20346547D01*
X3263836Y-20346546D01*
X3263839Y-20346546D01*
X3343391Y-20293391D01*
X3396546Y-20213839D01*
X3403289Y-20179939D01*
X3424124Y-20148758D01*
X3451347Y-20140500D01*
X4612027Y-20140500D01*
X4646675Y-20154852D01*
X4657296Y-20170747D01*
X4673935Y-20210916D01*
X4673936Y-20210917D01*
X4673936Y-20210918D01*
X5105148Y-20642129D01*
X5119500Y-20676777D01*
X5119500Y-21008199D01*
X5133163Y-21076886D01*
X5185213Y-21154786D01*
X5200720Y-21165147D01*
X5263112Y-21206836D01*
X5331804Y-21220500D01*
X5648196Y-21220500D01*
X5651966Y-21219750D01*
X5688749Y-21227062D01*
X5696178Y-21233159D01*
X6071681Y-21608663D01*
X6071682Y-21608663D01*
X6071684Y-21608665D01*
X6130675Y-21633100D01*
X6130677Y-21633100D01*
X12338223Y-21633100D01*
X12338225Y-21633100D01*
X12397216Y-21608665D01*
X12397218Y-21608663D01*
X12397219Y-21608663D01*
X13136063Y-20869819D01*
X13136063Y-20869818D01*
X13136065Y-20869816D01*
X13160500Y-20810825D01*
X13160500Y-20746975D01*
X13160500Y-14929500D01*
X13174852Y-14894852D01*
X13205922Y-14881981D01*
X13205800Y-14880736D01*
X13208189Y-14880500D01*
X13208196Y-14880500D01*
X13276888Y-14866836D01*
X13354786Y-14814786D01*
X13406836Y-14736888D01*
X13420500Y-14668196D01*
X13420500Y-14351804D01*
X13406836Y-14283112D01*
X13378670Y-14240959D01*
X13354786Y-14205213D01*
X13293407Y-14164202D01*
X13276888Y-14153164D01*
X13276887Y-14153163D01*
X13276886Y-14153163D01*
X13208199Y-14139500D01*
X13208196Y-14139500D01*
X12791804Y-14139500D01*
X12791800Y-14139500D01*
X12723113Y-14153163D01*
X12645213Y-14205213D01*
X12593163Y-14283113D01*
X12587803Y-14310060D01*
X12566968Y-14341242D01*
X12539745Y-14349500D01*
X11460255Y-14349500D01*
X11425607Y-14335148D01*
X11412197Y-14310060D01*
X11406836Y-14283113D01*
X11406836Y-14283112D01*
X11378670Y-14240959D01*
X11354786Y-14205213D01*
X11293407Y-14164202D01*
X11276888Y-14153164D01*
X11276887Y-14153163D01*
X11276886Y-14153163D01*
X11208199Y-14139500D01*
X11208196Y-14139500D01*
X10791804Y-14139500D01*
X10791800Y-14139500D01*
X10723113Y-14153163D01*
X10645213Y-14205213D01*
X10593163Y-14283113D01*
X10579500Y-14351800D01*
X10579500Y-14668199D01*
X10593163Y-14736886D01*
X10645213Y-14814786D01*
X10683816Y-14840579D01*
X10723112Y-14866836D01*
X10791804Y-14880500D01*
X11208196Y-14880500D01*
X11276888Y-14866836D01*
X11354786Y-14814786D01*
X11406836Y-14736888D01*
X11412197Y-14709940D01*
X11433032Y-14678758D01*
X11460255Y-14670500D01*
X12539745Y-14670500D01*
X12574393Y-14684852D01*
X12587803Y-14709940D01*
X12593163Y-14736886D01*
X12645213Y-14814786D01*
X12683816Y-14840579D01*
X12723112Y-14866836D01*
X12791804Y-14880500D01*
X12791810Y-14880500D01*
X12794200Y-14880736D01*
X12794077Y-14881981D01*
X12825148Y-14894852D01*
X12839500Y-14929500D01*
X12839500Y-20692123D01*
X12825148Y-20726771D01*
X12494148Y-21057771D01*
X12459500Y-21072123D01*
X12424852Y-21057771D01*
X12410500Y-21023123D01*
X12410500Y-20816312D01*
X12410499Y-20816306D01*
X12396547Y-20746163D01*
X12343391Y-20666608D01*
X12263836Y-20613452D01*
X12193693Y-20599500D01*
X12193688Y-20599500D01*
X11806312Y-20599500D01*
X11806306Y-20599500D01*
X11736162Y-20613453D01*
X11736161Y-20613453D01*
X11709538Y-20631242D01*
X11682316Y-20639500D01*
X6929500Y-20639500D01*
X6894852Y-20625148D01*
X6881981Y-20594077D01*
X6880736Y-20594200D01*
X6880500Y-20591810D01*
X6880500Y-20591804D01*
X6866836Y-20523112D01*
X6840811Y-20484163D01*
X6814786Y-20445213D01*
X6756493Y-20406264D01*
X6736888Y-20393164D01*
X6736887Y-20393163D01*
X6736886Y-20393163D01*
X6668199Y-20379500D01*
X6668196Y-20379500D01*
X6351804Y-20379500D01*
X6348023Y-20380252D01*
X6311241Y-20372931D01*
X6303821Y-20366840D01*
X6174852Y-20237871D01*
X6160500Y-20203223D01*
X6160500Y-19716581D01*
X6174852Y-19681933D01*
X6209500Y-19667581D01*
X6236720Y-19675838D01*
X6283112Y-19706836D01*
X6351804Y-19720500D01*
X6668196Y-19720500D01*
X6671966Y-19719750D01*
X6708749Y-19727062D01*
X6716178Y-19733159D01*
X6853935Y-19870916D01*
X6899084Y-19916065D01*
X6958075Y-19940500D01*
X8548653Y-19940500D01*
X8583301Y-19954852D01*
X8596710Y-19979938D01*
X8603453Y-20013836D01*
X8603454Y-20013839D01*
X8656608Y-20093391D01*
X8709524Y-20128748D01*
X8736161Y-20146546D01*
X8736163Y-20146547D01*
X8806306Y-20160499D01*
X8806312Y-20160500D01*
X9193688Y-20160500D01*
X9194625Y-20160313D01*
X9263836Y-20146547D01*
X9263836Y-20146546D01*
X9263839Y-20146546D01*
X9343391Y-20093391D01*
X9396546Y-20013839D01*
X9410500Y-19943688D01*
X9410500Y-19616312D01*
X9409492Y-19611242D01*
X9396547Y-19546163D01*
X9343391Y-19466608D01*
X9263836Y-19413452D01*
X9193693Y-19399500D01*
X9193688Y-19399500D01*
X8806312Y-19399500D01*
X8806306Y-19399500D01*
X8736163Y-19413452D01*
X8656608Y-19466608D01*
X8603454Y-19546160D01*
X8602082Y-19553055D01*
X8596710Y-19580060D01*
X8575876Y-19611242D01*
X8548653Y-19619500D01*
X7076777Y-19619500D01*
X7042129Y-19605148D01*
X6894852Y-19457871D01*
X6880500Y-19423223D01*
X6880500Y-19091804D01*
X6880499Y-19091800D01*
X6866836Y-19023113D01*
X6866836Y-19023112D01*
X6840811Y-18984163D01*
X6814786Y-18945213D01*
X6756493Y-18906264D01*
X6736888Y-18893164D01*
X6736887Y-18893163D01*
X6736886Y-18893163D01*
X6709940Y-18887803D01*
X6678758Y-18866968D01*
X6670500Y-18839745D01*
X6670500Y-18585277D01*
X6670499Y-18585273D01*
X6661678Y-18563977D01*
X6646065Y-18526284D01*
X6600916Y-18481135D01*
X3626452Y-15506671D01*
X3612100Y-15472023D01*
X3612100Y-13813477D01*
X3626452Y-13778829D01*
X3705281Y-13700000D01*
X3813310Y-13591970D01*
X3847957Y-13577619D01*
X3875180Y-13585877D01*
X3877541Y-13587455D01*
X3877543Y-13587457D01*
X3910787Y-13609669D01*
X3940101Y-13615500D01*
X4459898Y-13615499D01*
X4489213Y-13609669D01*
X4522457Y-13587457D01*
X4544669Y-13554213D01*
X4550500Y-13524899D01*
X4550499Y-13300334D01*
X4564851Y-13265687D01*
X4599499Y-13251335D01*
X4623999Y-13257900D01*
X4637486Y-13265687D01*
X4648111Y-13271821D01*
X4683578Y-13281324D01*
X4724536Y-13292300D01*
X4724538Y-13292300D01*
X4803664Y-13292300D01*
X4830330Y-13285154D01*
X4880089Y-13271821D01*
X4948611Y-13232260D01*
X5004560Y-13176311D01*
X5044121Y-13107789D01*
X5060271Y-13047513D01*
X5064600Y-13031363D01*
X5064600Y-12952236D01*
X5054914Y-12916092D01*
X5044121Y-12875811D01*
X5044120Y-12875809D01*
X5044120Y-12875808D01*
X5004559Y-12807288D01*
X4948611Y-12751340D01*
X4880090Y-12711779D01*
X4818517Y-12695280D01*
X4788764Y-12672449D01*
X4782200Y-12647950D01*
X4782200Y-12568077D01*
X4782199Y-12568073D01*
X4779269Y-12561000D01*
X4757765Y-12509084D01*
X4757763Y-12509082D01*
X4757763Y-12509081D01*
X4712619Y-12463937D01*
X4712617Y-12463936D01*
X4712616Y-12463935D01*
X4690488Y-12454769D01*
X4663971Y-12428251D01*
X4663971Y-12390748D01*
X4690490Y-12364230D01*
X4701125Y-12362114D01*
X4700992Y-12361441D01*
X4705721Y-12360500D01*
X4705725Y-12360500D01*
X4764716Y-12336065D01*
X4764718Y-12336063D01*
X4764719Y-12336063D01*
X5511963Y-11588819D01*
X5511963Y-11588818D01*
X5511965Y-11588816D01*
X5536400Y-11529825D01*
X5536400Y-11465975D01*
X5536400Y-11345113D01*
X5550752Y-11310465D01*
X5557904Y-11304976D01*
X5557859Y-11304918D01*
X5560403Y-11302964D01*
X5560411Y-11302960D01*
X5616360Y-11247011D01*
X5652451Y-11184500D01*
X5655920Y-11178491D01*
X5655920Y-11178490D01*
X5655921Y-11178489D01*
X5676400Y-11102062D01*
X5676400Y-11022938D01*
X5676400Y-11022936D01*
X5667743Y-10990634D01*
X5655921Y-10946511D01*
X5655920Y-10946509D01*
X5655920Y-10946508D01*
X5616359Y-10877988D01*
X5560411Y-10822040D01*
X5491890Y-10782479D01*
X5425279Y-10764630D01*
X5395526Y-10741799D01*
X5390632Y-10704617D01*
X5413463Y-10674864D01*
X5437962Y-10668300D01*
X6084360Y-10668300D01*
X6119008Y-10682652D01*
X6133360Y-10717300D01*
X6132418Y-10726860D01*
X6119500Y-10791800D01*
X6119500Y-11208199D01*
X6133163Y-11276886D01*
X6185213Y-11354786D01*
X6212199Y-11372817D01*
X6263112Y-11406836D01*
X6331804Y-11420500D01*
X6397800Y-11420500D01*
X6432448Y-11434852D01*
X6446800Y-11469500D01*
X6446800Y-12077087D01*
X6432448Y-12111735D01*
X6425293Y-12117225D01*
X6425339Y-12117284D01*
X6422785Y-12119243D01*
X6366841Y-12175188D01*
X6366840Y-12175188D01*
X6327279Y-12243708D01*
X6327279Y-12243710D01*
X6306800Y-12320136D01*
X6306800Y-12399263D01*
X6327279Y-12475689D01*
X6327279Y-12475691D01*
X6347316Y-12510395D01*
X6352211Y-12547577D01*
X6329381Y-12577330D01*
X6314441Y-12582953D01*
X6263112Y-12593163D01*
X6191822Y-12640797D01*
X6155040Y-12648113D01*
X6123858Y-12627277D01*
X6115600Y-12600055D01*
X6115600Y-12522836D01*
X6103606Y-12478077D01*
X6095121Y-12446411D01*
X6095120Y-12446409D01*
X6095120Y-12446408D01*
X6055559Y-12377888D01*
X5999611Y-12321940D01*
X5931090Y-12282379D01*
X5854664Y-12261900D01*
X5854662Y-12261900D01*
X5775538Y-12261900D01*
X5775536Y-12261900D01*
X5699110Y-12282379D01*
X5699108Y-12282379D01*
X5630588Y-12321940D01*
X5630588Y-12321941D01*
X5574641Y-12377888D01*
X5574640Y-12377888D01*
X5535079Y-12446408D01*
X5535079Y-12446410D01*
X5514600Y-12522836D01*
X5514600Y-12601963D01*
X5535079Y-12678389D01*
X5535079Y-12678391D01*
X5568052Y-12735500D01*
X5574640Y-12746911D01*
X5630589Y-12802860D01*
X5679750Y-12831243D01*
X5694051Y-12839500D01*
X5699111Y-12842421D01*
X5734578Y-12851924D01*
X5775536Y-12862900D01*
X5775538Y-12862900D01*
X5854664Y-12862900D01*
X5857845Y-12862481D01*
X5857986Y-12863556D01*
X5891293Y-12867937D01*
X5901447Y-12875728D01*
X6105148Y-13079429D01*
X6119500Y-13114077D01*
X6119500Y-13208199D01*
X6133163Y-13276886D01*
X6185213Y-13354786D01*
X6208299Y-13370211D01*
X6263112Y-13406836D01*
X6331804Y-13420500D01*
X6648196Y-13420500D01*
X6716888Y-13406836D01*
X6794786Y-13354786D01*
X6794787Y-13354785D01*
X6817558Y-13320706D01*
X6848740Y-13299870D01*
X6885522Y-13307186D01*
X6906358Y-13338368D01*
X6907300Y-13347928D01*
X6907300Y-14525875D01*
X6907300Y-14589725D01*
X6931735Y-14648716D01*
X6931736Y-14648717D01*
X6931736Y-14648718D01*
X7125148Y-14842129D01*
X7139500Y-14876777D01*
X7139500Y-15208199D01*
X7153163Y-15276886D01*
X7205213Y-15354786D01*
X7234019Y-15374033D01*
X7283112Y-15406836D01*
X7351804Y-15420500D01*
X7515423Y-15420500D01*
X7550071Y-15434852D01*
X7564423Y-15469500D01*
X7550071Y-15504148D01*
X7299571Y-15754648D01*
X7264923Y-15769000D01*
X7101973Y-15769000D01*
X7063321Y-15785011D01*
X7044631Y-15792753D01*
X7042982Y-15793436D01*
X7042981Y-15793436D01*
X6881999Y-15954420D01*
X6847584Y-15988835D01*
X6831081Y-16005338D01*
X6802435Y-16033983D01*
X6778000Y-16092973D01*
X6778000Y-16545613D01*
X6763648Y-16580261D01*
X6729000Y-16594613D01*
X6719441Y-16593671D01*
X6648201Y-16579500D01*
X6648196Y-16579500D01*
X6331804Y-16579500D01*
X6328023Y-16580252D01*
X6291241Y-16572931D01*
X6283821Y-16566840D01*
X6039652Y-16322671D01*
X6025300Y-16288023D01*
X6025300Y-15469313D01*
X6039652Y-15434665D01*
X6046804Y-15429176D01*
X6046759Y-15429118D01*
X6049303Y-15427164D01*
X6049311Y-15427160D01*
X6105260Y-15371211D01*
X6108607Y-15365413D01*
X6138355Y-15342582D01*
X6175537Y-15347473D01*
X6184089Y-15354035D01*
X6214019Y-15374033D01*
X6263112Y-15406836D01*
X6331804Y-15420500D01*
X6648196Y-15420500D01*
X6716888Y-15406836D01*
X6794786Y-15354786D01*
X6846836Y-15276888D01*
X6860500Y-15208196D01*
X6860500Y-14791804D01*
X6846836Y-14723112D01*
X6820811Y-14684163D01*
X6794786Y-14645213D01*
X6731249Y-14602760D01*
X6716888Y-14593164D01*
X6716887Y-14593163D01*
X6716886Y-14593163D01*
X6648199Y-14579500D01*
X6648196Y-14579500D01*
X6331804Y-14579500D01*
X6331800Y-14579500D01*
X6263113Y-14593163D01*
X6183675Y-14646242D01*
X6156452Y-14654500D01*
X5678873Y-14654500D01*
X5630003Y-14674743D01*
X5620312Y-14678758D01*
X5619882Y-14678936D01*
X5426970Y-14871848D01*
X5392322Y-14886200D01*
X5313436Y-14886200D01*
X5237010Y-14906679D01*
X5237008Y-14906679D01*
X5168488Y-14946240D01*
X5168488Y-14946241D01*
X5131798Y-14982931D01*
X5097150Y-14997283D01*
X5062502Y-14982931D01*
X5025811Y-14946240D01*
X4957290Y-14906679D01*
X4880864Y-14886200D01*
X4880862Y-14886200D01*
X4801738Y-14886200D01*
X4801736Y-14886200D01*
X4725310Y-14906679D01*
X4725308Y-14906679D01*
X4656788Y-14946240D01*
X4656788Y-14946241D01*
X4600841Y-15002188D01*
X4600840Y-15002188D01*
X4561279Y-15070708D01*
X4561279Y-15070710D01*
X4540800Y-15147136D01*
X4540800Y-15226263D01*
X4561279Y-15302689D01*
X4561279Y-15302691D01*
X4587135Y-15347473D01*
X4600840Y-15371211D01*
X4656789Y-15427160D01*
X4656792Y-15427162D01*
X4659341Y-15429118D01*
X4658679Y-15429980D01*
X4679129Y-15456626D01*
X4680800Y-15469313D01*
X4680800Y-16162326D01*
X4690921Y-16186761D01*
X4705235Y-16221316D01*
X4705236Y-16221317D01*
X4705237Y-16221319D01*
X6118281Y-17634363D01*
X6118282Y-17634363D01*
X6118284Y-17634365D01*
X6177275Y-17658800D01*
X6177277Y-17658800D01*
X6830823Y-17658800D01*
X6830825Y-17658800D01*
X6889816Y-17634365D01*
X6889818Y-17634363D01*
X6889819Y-17634363D01*
X7074563Y-17449619D01*
X7074563Y-17449618D01*
X7074565Y-17449616D01*
X7099000Y-17390625D01*
X7099000Y-17357357D01*
X7113352Y-17322709D01*
X7148000Y-17308357D01*
X7182648Y-17322709D01*
X7188742Y-17330134D01*
X7205213Y-17354786D01*
X7244163Y-17380811D01*
X7283112Y-17406836D01*
X7351804Y-17420500D01*
X7668196Y-17420500D01*
X7736888Y-17406836D01*
X7814786Y-17354786D01*
X7866836Y-17276888D01*
X7880500Y-17208196D01*
X7880500Y-16876777D01*
X7894852Y-16842129D01*
X8958563Y-15778418D01*
X8958565Y-15778416D01*
X8983000Y-15719425D01*
X8983000Y-15655575D01*
X8983000Y-10279113D01*
X8997352Y-10244465D01*
X9004504Y-10238976D01*
X9004459Y-10238918D01*
X9007003Y-10236964D01*
X9007011Y-10236960D01*
X9062960Y-10181011D01*
X9102521Y-10112489D01*
X9123000Y-10036062D01*
X9123000Y-9956938D01*
X9123000Y-9956936D01*
X9108011Y-9901000D01*
X9102521Y-9880511D01*
X9102520Y-9880509D01*
X9102520Y-9880508D01*
X9062959Y-9811988D01*
X9007011Y-9756040D01*
X8938490Y-9716479D01*
X8862064Y-9696000D01*
X8862062Y-9696000D01*
X8782938Y-9696000D01*
X8782936Y-9696000D01*
X8706510Y-9716479D01*
X8706508Y-9716479D01*
X8637988Y-9756040D01*
X8637988Y-9756041D01*
X8582041Y-9811988D01*
X8582040Y-9811988D01*
X8542479Y-9880508D01*
X8542479Y-9880510D01*
X8522000Y-9956936D01*
X8522000Y-10036063D01*
X8542479Y-10112489D01*
X8542479Y-10112491D01*
X8575927Y-10170423D01*
X8582040Y-10181011D01*
X8637989Y-10236960D01*
X8637992Y-10236962D01*
X8640541Y-10238918D01*
X8639879Y-10239780D01*
X8660329Y-10266426D01*
X8662000Y-10279113D01*
X8662000Y-15600722D01*
X8647648Y-15635370D01*
X7716177Y-16566840D01*
X7681529Y-16581192D01*
X7671972Y-16580251D01*
X7668196Y-16579500D01*
X7351804Y-16579500D01*
X7351800Y-16579500D01*
X7283113Y-16593163D01*
X7205213Y-16645213D01*
X7188742Y-16669865D01*
X7157559Y-16690701D01*
X7120777Y-16683384D01*
X7099941Y-16652201D01*
X7099000Y-16642642D01*
X7099000Y-16211677D01*
X7113352Y-16177029D01*
X7186029Y-16104352D01*
X7220677Y-16090000D01*
X7383623Y-16090000D01*
X7383625Y-16090000D01*
X7442616Y-16065565D01*
X7442618Y-16065563D01*
X7442619Y-16065563D01*
X8244063Y-15264119D01*
X8244063Y-15264118D01*
X8244065Y-15264116D01*
X8268500Y-15205125D01*
X8268500Y-15141275D01*
X8268500Y-8914736D01*
X9943500Y-8914736D01*
X9943500Y-8993863D01*
X9963979Y-9070289D01*
X9963979Y-9070291D01*
X10000853Y-9134157D01*
X10003540Y-9138811D01*
X10059489Y-9194760D01*
X10059492Y-9194762D01*
X10062041Y-9196718D01*
X10061379Y-9197580D01*
X10081829Y-9224226D01*
X10083500Y-9236913D01*
X10083500Y-12702075D01*
X10083500Y-12765925D01*
X10107935Y-12824916D01*
X10107936Y-12824917D01*
X10107937Y-12824919D01*
X10566840Y-13283822D01*
X10581192Y-13318470D01*
X10580251Y-13328025D01*
X10579500Y-13331798D01*
X10579500Y-13648199D01*
X10593163Y-13716886D01*
X10593163Y-13716887D01*
X10593164Y-13716888D01*
X10601104Y-13728771D01*
X10645213Y-13794786D01*
X10673187Y-13813477D01*
X10723112Y-13846836D01*
X10791804Y-13860500D01*
X11208196Y-13860500D01*
X11276888Y-13846836D01*
X11354786Y-13794786D01*
X11406836Y-13716888D01*
X11420500Y-13648196D01*
X11420500Y-13331804D01*
X11406836Y-13263112D01*
X11356285Y-13187457D01*
X11354786Y-13185213D01*
X11296493Y-13146264D01*
X11276888Y-13133164D01*
X11276887Y-13133163D01*
X11276886Y-13133163D01*
X11208199Y-13119500D01*
X11208196Y-13119500D01*
X10876778Y-13119500D01*
X10842130Y-13105148D01*
X10418852Y-12681870D01*
X10404500Y-12647222D01*
X10404500Y-9236913D01*
X10418852Y-9202265D01*
X10426004Y-9196776D01*
X10425959Y-9196718D01*
X10428503Y-9194764D01*
X10428511Y-9194760D01*
X10484460Y-9138811D01*
X10524021Y-9070289D01*
X10540171Y-9010013D01*
X10544500Y-8993863D01*
X10544500Y-8914736D01*
X10530668Y-8863117D01*
X10524021Y-8838311D01*
X10524020Y-8838309D01*
X10524020Y-8838308D01*
X10484459Y-8769788D01*
X10428511Y-8713840D01*
X10359990Y-8674279D01*
X10283564Y-8653800D01*
X10283562Y-8653800D01*
X10204438Y-8653800D01*
X10204436Y-8653800D01*
X10128010Y-8674279D01*
X10128008Y-8674279D01*
X10059488Y-8713840D01*
X10059488Y-8713841D01*
X10003541Y-8769788D01*
X10003540Y-8769788D01*
X9963979Y-8838308D01*
X9963979Y-8838310D01*
X9943500Y-8914736D01*
X8268500Y-8914736D01*
X8268500Y-6763775D01*
X8244065Y-6704784D01*
X8198916Y-6659635D01*
X8106121Y-6566840D01*
X7884318Y-6345036D01*
X7825326Y-6320600D01*
X7825325Y-6320600D01*
X7040825Y-6320600D01*
X6976975Y-6320600D01*
X6976973Y-6320600D01*
X6917981Y-6345036D01*
X6917979Y-6345037D01*
X6696176Y-6566840D01*
X6661528Y-6581192D01*
X6651973Y-6580251D01*
X6648196Y-6579500D01*
X6331804Y-6579500D01*
X6331800Y-6579500D01*
X6263113Y-6593163D01*
X6185213Y-6645213D01*
X6133163Y-6723113D01*
X6119500Y-6791800D01*
X6119500Y-7208199D01*
X6133163Y-7276886D01*
X6185213Y-7354786D01*
X6200720Y-7365147D01*
X6263112Y-7406836D01*
X6331804Y-7420500D01*
X6648196Y-7420500D01*
X6716888Y-7406836D01*
X6794786Y-7354786D01*
X6846836Y-7276888D01*
X6860500Y-7208196D01*
X6860500Y-6876777D01*
X6874852Y-6842129D01*
X7061030Y-6655952D01*
X7095678Y-6641600D01*
X7115956Y-6641600D01*
X7150604Y-6655952D01*
X7164956Y-6690600D01*
X7156699Y-6717822D01*
X7153163Y-6723114D01*
X7139500Y-6791800D01*
X7139500Y-7123223D01*
X7125148Y-7157871D01*
X6877857Y-7405161D01*
X6845161Y-7437857D01*
X6571271Y-7711748D01*
X6536623Y-7726100D01*
X3597477Y-7726100D01*
X3562829Y-7711748D01*
X3548477Y-7677100D01*
X3562829Y-7642452D01*
X4500498Y-6704783D01*
X5465854Y-5739427D01*
X5500501Y-5725076D01*
X5535149Y-5739428D01*
X5549501Y-5774076D01*
X5549501Y-5859898D01*
X5555331Y-5889213D01*
X5555331Y-5889214D01*
X5555332Y-5889215D01*
X5555332Y-5889216D01*
X5577542Y-5922456D01*
X5577543Y-5922457D01*
X5610787Y-5944669D01*
X5640101Y-5950500D01*
X6359898Y-5950499D01*
X6389213Y-5944669D01*
X6422457Y-5922457D01*
X6444669Y-5889213D01*
X6450500Y-5859899D01*
X6450499Y-5140102D01*
X6444669Y-5110787D01*
X6444667Y-5110784D01*
X6444667Y-5110783D01*
X6422457Y-5077543D01*
X6389212Y-5055330D01*
X6359901Y-5049500D01*
X5640105Y-5049500D01*
X5640104Y-5049500D01*
X5640102Y-5049501D01*
X5610787Y-5055331D01*
X5610786Y-5055331D01*
X5610784Y-5055332D01*
X5610783Y-5055332D01*
X5577543Y-5077542D01*
X5555330Y-5110786D01*
X5555330Y-5110787D01*
X5549500Y-5140095D01*
X5549500Y-5290500D01*
X5535148Y-5325148D01*
X5500500Y-5339500D01*
X5446373Y-5339500D01*
X5387381Y-5363936D01*
X5387380Y-5363936D01*
X2747267Y-8004052D01*
X2497584Y-8253735D01*
X2485384Y-8265935D01*
X2452435Y-8298883D01*
X2428000Y-8357873D01*
X2428000Y-10146423D01*
X2413648Y-10181071D01*
X2186690Y-10408028D01*
X2152042Y-10422380D01*
X2124819Y-10414122D01*
X2122457Y-10412544D01*
X2122457Y-10412543D01*
X2099398Y-10397136D01*
X2089212Y-10390330D01*
X2059901Y-10384500D01*
X1540105Y-10384500D01*
X1540104Y-10384500D01*
X1540102Y-10384501D01*
X1510787Y-10390331D01*
X1510786Y-10390331D01*
X1510784Y-10390332D01*
X1510783Y-10390332D01*
X1477543Y-10412542D01*
X1455330Y-10445786D01*
X1455330Y-10445787D01*
X1449500Y-10475095D01*
X1449500Y-10724894D01*
X1449501Y-10724898D01*
X1455331Y-10754213D01*
X1455331Y-10754214D01*
X1455332Y-10754215D01*
X1455332Y-10754216D01*
X1467734Y-10772777D01*
X1475050Y-10809559D01*
X1467735Y-10827221D01*
X1455330Y-10845787D01*
X1449500Y-10875095D01*
X1449500Y-11124894D01*
X1449501Y-11124898D01*
X1455331Y-11154213D01*
X1455331Y-11154214D01*
X1455332Y-11154215D01*
X1455332Y-11154216D01*
X1467734Y-11172777D01*
X1475050Y-11209559D01*
X1467735Y-11227221D01*
X1455330Y-11245787D01*
X1449500Y-11275095D01*
X1449500Y-11524894D01*
X1449501Y-11524898D01*
X1455331Y-11554213D01*
X1455331Y-11554214D01*
X1455332Y-11554215D01*
X1455332Y-11554216D01*
X1467734Y-11572777D01*
X1475050Y-11609559D01*
X1467735Y-11627221D01*
X1455330Y-11645787D01*
X1449500Y-11675095D01*
X1449500Y-11754723D01*
X1435148Y-11789371D01*
X1400500Y-11803723D01*
X1365852Y-11789371D01*
X1263328Y-11686847D01*
X1248976Y-11652199D01*
X1250153Y-11643254D01*
X1250081Y-11643245D01*
X1250500Y-11640063D01*
X1250500Y-11560936D01*
X1235232Y-11503960D01*
X1230021Y-11484511D01*
X1230020Y-11484509D01*
X1230020Y-11484508D01*
X1203997Y-11439436D01*
X1190460Y-11415989D01*
X1134511Y-11360040D01*
X1117568Y-11350258D01*
X1065990Y-11320479D01*
X989564Y-11300000D01*
X989562Y-11300000D01*
X910438Y-11300000D01*
X910436Y-11300000D01*
X834010Y-11320479D01*
X834008Y-11320479D01*
X765488Y-11360040D01*
X762102Y-11363426D01*
X727453Y-11377775D01*
X692806Y-11363420D01*
X678457Y-11328771D01*
X680127Y-11316092D01*
X680704Y-11313941D01*
X694177Y-11263658D01*
X700500Y-11240063D01*
X700500Y-11160936D01*
X684724Y-11102063D01*
X680021Y-11084511D01*
X680020Y-11084509D01*
X680020Y-11084508D01*
X640459Y-11015988D01*
X584511Y-10960040D01*
X515990Y-10920479D01*
X439564Y-10900000D01*
X439562Y-10900000D01*
X360438Y-10900000D01*
X360436Y-10900000D01*
X284010Y-10920479D01*
X284008Y-10920479D01*
X273500Y-10926547D01*
X236317Y-10931442D01*
X206565Y-10908612D01*
X200000Y-10884112D01*
X200000Y-9916887D01*
X214352Y-9882239D01*
X249000Y-9867887D01*
X273499Y-9874452D01*
X284011Y-9880521D01*
X328134Y-9892343D01*
X360436Y-9901000D01*
X360438Y-9901000D01*
X439564Y-9901000D01*
X466230Y-9893854D01*
X515989Y-9880521D01*
X516007Y-9880511D01*
X526499Y-9874453D01*
X584511Y-9840960D01*
X640460Y-9785011D01*
X680021Y-9716489D01*
X691113Y-9675095D01*
X1449500Y-9675095D01*
X1449500Y-9924894D01*
X1449501Y-9924898D01*
X1455331Y-9954213D01*
X1455331Y-9954214D01*
X1455332Y-9954215D01*
X1455332Y-9954216D01*
X1477542Y-9987456D01*
X1510784Y-10009668D01*
X1510786Y-10009668D01*
X1510787Y-10009669D01*
X1540101Y-10015500D01*
X1695729Y-10015499D01*
X1720229Y-10022064D01*
X1723910Y-10024189D01*
X1734010Y-10030020D01*
X1756559Y-10036062D01*
X1810435Y-10050499D01*
X1810437Y-10050499D01*
X1889563Y-10050499D01*
X1930609Y-10039500D01*
X1965988Y-10030020D01*
X1979769Y-10022063D01*
X2004268Y-10015499D01*
X2059895Y-10015499D01*
X2059898Y-10015499D01*
X2089213Y-10009669D01*
X2122457Y-9987457D01*
X2144669Y-9954213D01*
X2150500Y-9924899D01*
X2150499Y-9675102D01*
X2144669Y-9645787D01*
X2144667Y-9645784D01*
X2144667Y-9645783D01*
X2122457Y-9612543D01*
X2119044Y-9609130D01*
X2119471Y-9608702D01*
X2108879Y-9597393D01*
X2091770Y-9567759D01*
X2090461Y-9565491D01*
X2090456Y-9565485D01*
X2034510Y-9509539D01*
X1965989Y-9469978D01*
X1889563Y-9449499D01*
X1889561Y-9449499D01*
X1810437Y-9449499D01*
X1810435Y-9449499D01*
X1734009Y-9469978D01*
X1734007Y-9469978D01*
X1665489Y-9509538D01*
X1607268Y-9567759D01*
X1606605Y-9567096D01*
X1577167Y-9584083D01*
X1570786Y-9584500D01*
X1540105Y-9584500D01*
X1540104Y-9584500D01*
X1540102Y-9584501D01*
X1510787Y-9590331D01*
X1510786Y-9590331D01*
X1510784Y-9590332D01*
X1510783Y-9590332D01*
X1477543Y-9612542D01*
X1455330Y-9645786D01*
X1455330Y-9645787D01*
X1449500Y-9675095D01*
X691113Y-9675095D01*
X695156Y-9660009D01*
X700500Y-9640063D01*
X700500Y-9560936D01*
X680127Y-9484907D01*
X685021Y-9447725D01*
X714774Y-9424894D01*
X751956Y-9429788D01*
X762105Y-9437576D01*
X765489Y-9440960D01*
X834011Y-9480521D01*
X869478Y-9490024D01*
X910436Y-9501000D01*
X910438Y-9501000D01*
X989564Y-9501000D01*
X1016230Y-9493854D01*
X1065989Y-9480521D01*
X1134511Y-9440960D01*
X1190460Y-9385011D01*
X1230021Y-9316489D01*
X1248427Y-9247800D01*
X1250500Y-9240063D01*
X1250500Y-9160937D01*
X1250081Y-9157757D01*
X1251158Y-9157615D01*
X1255532Y-9124313D01*
X1263323Y-9114156D01*
X1514365Y-8863116D01*
X1538800Y-8804125D01*
X1538800Y-8740275D01*
X1538800Y-7350876D01*
X1553151Y-7316229D01*
X5035852Y-3833527D01*
X5070500Y-3819176D01*
X5105148Y-3833528D01*
X5119500Y-3868176D01*
X5119500Y-4084021D01*
X5105148Y-4118669D01*
X5071646Y-4152171D01*
X5036998Y-4166523D01*
X5028057Y-4165346D01*
X5028048Y-4165419D01*
X5024864Y-4165000D01*
X5024862Y-4165000D01*
X4945738Y-4165000D01*
X4945736Y-4165000D01*
X4869310Y-4185479D01*
X4869308Y-4185479D01*
X4800788Y-4225040D01*
X4800788Y-4225041D01*
X4744841Y-4280988D01*
X4744840Y-4280988D01*
X4705279Y-4349508D01*
X4705279Y-4349510D01*
X4684800Y-4425936D01*
X4684800Y-4505063D01*
X4705279Y-4581489D01*
X4705279Y-4581491D01*
X4744840Y-4650011D01*
X4800789Y-4705960D01*
X4869311Y-4745521D01*
X4904778Y-4755024D01*
X4945736Y-4766000D01*
X4945738Y-4766000D01*
X5024864Y-4766000D01*
X5051530Y-4758854D01*
X5101289Y-4745521D01*
X5169811Y-4705960D01*
X5225760Y-4650011D01*
X5265321Y-4581489D01*
X5285800Y-4505062D01*
X5285800Y-4469500D01*
X5300152Y-4434852D01*
X5334800Y-4420500D01*
X5648196Y-4420500D01*
X5716888Y-4406836D01*
X5794786Y-4354786D01*
X5846836Y-4276888D01*
X5860500Y-4208196D01*
X5860500Y-3791804D01*
X5846836Y-3723112D01*
X5846408Y-3720960D01*
X5853724Y-3684177D01*
X5884906Y-3663342D01*
X5894466Y-3662400D01*
X6753523Y-3662400D01*
X6788171Y-3676752D01*
X12825148Y-9713729D01*
X12839500Y-9748377D01*
X12839500Y-13070500D01*
X12825148Y-13105148D01*
X12794077Y-13118018D01*
X12794200Y-13119264D01*
X12791800Y-13119500D01*
X12723113Y-13133163D01*
X12645213Y-13185213D01*
X12593163Y-13263113D01*
X12579500Y-13331800D01*
X12579500Y-13648199D01*
X12593163Y-13716886D01*
X12593163Y-13716887D01*
X12593164Y-13716888D01*
X12601104Y-13728771D01*
X12645213Y-13794786D01*
X12673187Y-13813477D01*
X12723112Y-13846836D01*
X12791804Y-13860500D01*
X13208196Y-13860500D01*
X13276888Y-13846836D01*
X13354786Y-13794786D01*
X13406836Y-13716888D01*
X13420500Y-13648196D01*
X13420500Y-13331804D01*
X13406836Y-13263112D01*
X13356285Y-13187457D01*
X13354786Y-13185213D01*
X13296493Y-13146264D01*
X13276888Y-13133164D01*
X13276887Y-13133163D01*
X13276886Y-13133163D01*
X13208199Y-13119500D01*
X13205800Y-13119264D01*
X13205922Y-13118018D01*
X13174852Y-13105148D01*
X13160500Y-13070500D01*
X13160500Y-9629677D01*
X13160499Y-9629673D01*
X13154998Y-9616392D01*
X13136065Y-9570684D01*
X13090916Y-9525535D01*
X10132221Y-6566840D01*
X6931218Y-3365836D01*
X6872226Y-3341400D01*
X6872225Y-3341400D01*
X5172425Y-3341400D01*
X5108575Y-3341400D01*
X5108573Y-3341400D01*
X5049582Y-3365836D01*
X5049581Y-3365836D01*
X2094819Y-6320600D01*
X1287384Y-7128035D01*
X1271900Y-7143519D01*
X1242235Y-7173183D01*
X1217800Y-7232173D01*
X1217800Y-8125033D01*
X1203448Y-8159681D01*
X1168800Y-8174033D01*
X1137706Y-8161153D01*
X1137060Y-8161996D01*
X1134511Y-8160040D01*
X1065990Y-8120479D01*
X989564Y-8100000D01*
X989562Y-8100000D01*
X910438Y-8100000D01*
X910436Y-8100000D01*
X834010Y-8120479D01*
X834008Y-8120479D01*
X765488Y-8160040D01*
X765488Y-8160041D01*
X709543Y-8215985D01*
X707584Y-8218539D01*
X706723Y-8217878D01*
X680067Y-8238331D01*
X667387Y-8240000D01*
X286374Y-8240000D01*
X279779Y-8239992D01*
X277818Y-8239238D01*
X249614Y-8239957D01*
X248944Y-8239957D01*
X232190Y-8232994D01*
X215246Y-8226477D01*
X214960Y-8225834D01*
X214312Y-8225565D01*
X207386Y-8208791D01*
X200016Y-8192206D01*
X200000Y-8190957D01*
X200000Y-249000D01*
X214352Y-214352D01*
X249000Y-200000D01*
X16751000Y-200000D01*
X16785648Y-214352D01*
G37*
%TD.AperFunction*%
%TA.AperFunction,Conductor*%
G36*
X3194147Y-15856228D02*
G01*
X5825148Y-18487229D01*
X5839500Y-18521877D01*
X5839500Y-18883418D01*
X5825148Y-18918066D01*
X5790500Y-18932418D01*
X5763277Y-18924160D01*
X5742614Y-18910354D01*
X5716888Y-18893164D01*
X5716887Y-18893163D01*
X5716886Y-18893163D01*
X5648199Y-18879500D01*
X5648196Y-18879500D01*
X5331804Y-18879500D01*
X5331800Y-18879500D01*
X5263113Y-18893163D01*
X5185213Y-18945213D01*
X5133163Y-19023113D01*
X5119500Y-19091800D01*
X5119500Y-19423223D01*
X5105148Y-19457871D01*
X4757871Y-19805148D01*
X4723223Y-19819500D01*
X3451347Y-19819500D01*
X3416699Y-19805148D01*
X3403289Y-19780061D01*
X3396546Y-19746161D01*
X3370270Y-19706836D01*
X3343391Y-19666608D01*
X3263836Y-19613452D01*
X3193693Y-19599500D01*
X3193688Y-19599500D01*
X2806312Y-19599500D01*
X2806306Y-19599500D01*
X2736163Y-19613452D01*
X2656608Y-19666608D01*
X2603452Y-19746163D01*
X2589500Y-19816306D01*
X2589500Y-19865500D01*
X2575148Y-19900148D01*
X2540500Y-19914500D01*
X2124499Y-19914500D01*
X2089851Y-19900148D01*
X2075499Y-19865500D01*
X2075499Y-19811867D01*
X2075499Y-19811862D01*
X2069259Y-19764455D01*
X2060729Y-19746163D01*
X2042391Y-19706836D01*
X2020747Y-19660421D01*
X2020746Y-19660420D01*
X2020745Y-19660418D01*
X1939581Y-19579254D01*
X1939579Y-19579253D01*
X1835547Y-19530742D01*
X1835546Y-19530741D01*
X1826063Y-19529492D01*
X1788139Y-19524500D01*
X1788135Y-19524500D01*
X1211867Y-19524500D01*
X1211858Y-19524501D01*
X1204552Y-19525463D01*
X1168327Y-19515754D01*
X1163511Y-19511530D01*
X1011352Y-19359371D01*
X997000Y-19324723D01*
X997000Y-17833077D01*
X1011352Y-17798429D01*
X1514363Y-17295418D01*
X1514365Y-17295416D01*
X1538800Y-17236425D01*
X1538800Y-17172575D01*
X1538800Y-16059920D01*
X1553152Y-16025272D01*
X1587800Y-16010920D01*
X1612299Y-16017485D01*
X1624045Y-16024267D01*
X1634006Y-16030018D01*
X1634007Y-16030018D01*
X1634010Y-16030020D01*
X1678133Y-16041842D01*
X1710435Y-16050499D01*
X1710437Y-16050499D01*
X1789563Y-16050499D01*
X1792744Y-16050080D01*
X1792885Y-16051155D01*
X1826192Y-16055536D01*
X1836346Y-16063327D01*
X2309080Y-16536062D01*
X2309081Y-16536062D01*
X2309083Y-16536064D01*
X2368074Y-16560499D01*
X2368077Y-16560499D01*
X2372772Y-16561433D01*
X2397862Y-16574844D01*
X2409080Y-16586062D01*
X2409081Y-16586062D01*
X2409083Y-16586064D01*
X2468074Y-16610499D01*
X2468076Y-16610499D01*
X2681922Y-16610499D01*
X2681924Y-16610499D01*
X2740915Y-16586064D01*
X2752134Y-16574845D01*
X2777226Y-16561433D01*
X2781919Y-16560499D01*
X2781924Y-16560499D01*
X2840915Y-16536064D01*
X2840917Y-16536062D01*
X2840918Y-16536062D01*
X3086062Y-16290918D01*
X3086062Y-16290917D01*
X3086064Y-16290915D01*
X3110499Y-16231924D01*
X3110499Y-16168074D01*
X3110499Y-15890876D01*
X3124851Y-15856228D01*
X3159499Y-15841876D01*
X3194147Y-15856228D01*
G37*
%TD.AperFunction*%
%TA.AperFunction,Conductor*%
G36*
X2210071Y-12374852D02*
G01*
X2397348Y-12562129D01*
X2411700Y-12596777D01*
X2411700Y-15762287D01*
X2397348Y-15796935D01*
X2390193Y-15802425D01*
X2390239Y-15802484D01*
X2387685Y-15804443D01*
X2331741Y-15860388D01*
X2331740Y-15860388D01*
X2292179Y-15928908D01*
X2292179Y-15928909D01*
X2285343Y-15954420D01*
X2262511Y-15984172D01*
X2225329Y-15989066D01*
X2203365Y-15976384D01*
X2063327Y-15836346D01*
X2048975Y-15801698D01*
X2050152Y-15792753D01*
X2050080Y-15792744D01*
X2050499Y-15789562D01*
X2050499Y-15710435D01*
X2030384Y-15635370D01*
X2030020Y-15634010D01*
X2030019Y-15634008D01*
X2030019Y-15634007D01*
X1990458Y-15565487D01*
X1934510Y-15509539D01*
X1865989Y-15469978D01*
X1789563Y-15449499D01*
X1789561Y-15449499D01*
X1710437Y-15449499D01*
X1710435Y-15449499D01*
X1634009Y-15469978D01*
X1634007Y-15469978D01*
X1612300Y-15482512D01*
X1575118Y-15487407D01*
X1545365Y-15464577D01*
X1538800Y-15440077D01*
X1538800Y-14464499D01*
X1553152Y-14429851D01*
X1587797Y-14415499D01*
X2059898Y-14415499D01*
X2089213Y-14409669D01*
X2122457Y-14387457D01*
X2144669Y-14354213D01*
X2150500Y-14324899D01*
X2150499Y-14075102D01*
X2144669Y-14045787D01*
X2132264Y-14027222D01*
X2124949Y-13990440D01*
X2132263Y-13972780D01*
X2144669Y-13954213D01*
X2150500Y-13924899D01*
X2150499Y-13675102D01*
X2144669Y-13645787D01*
X2132264Y-13627222D01*
X2124949Y-13590440D01*
X2132263Y-13572780D01*
X2144669Y-13554213D01*
X2150500Y-13524899D01*
X2150499Y-13275102D01*
X2144669Y-13245787D01*
X2132264Y-13227222D01*
X2124949Y-13190440D01*
X2132263Y-13172780D01*
X2144669Y-13154213D01*
X2150500Y-13124899D01*
X2150499Y-12875102D01*
X2144669Y-12845787D01*
X2144667Y-12845784D01*
X2144667Y-12845783D01*
X2122457Y-12812543D01*
X2089212Y-12790330D01*
X2059904Y-12784500D01*
X1587800Y-12784500D01*
X1553152Y-12770148D01*
X1538800Y-12735500D01*
X1538800Y-12464499D01*
X1553152Y-12429851D01*
X1587797Y-12415499D01*
X2059898Y-12415499D01*
X2089213Y-12409669D01*
X2122457Y-12387457D01*
X2125918Y-12382277D01*
X2130091Y-12379488D01*
X2132012Y-12374852D01*
X2145215Y-12369382D01*
X2157101Y-12361441D01*
X2166660Y-12360500D01*
X2175423Y-12360500D01*
X2210071Y-12374852D01*
G37*
%TD.AperFunction*%
%TA.AperFunction,Conductor*%
G36*
X2989682Y-11328293D02*
G01*
X3002364Y-11350258D01*
X3019290Y-11413424D01*
X3019291Y-11413427D01*
X3019978Y-11415988D01*
X3033239Y-11438957D01*
X3033501Y-11439436D01*
X3033700Y-11441287D01*
X3039499Y-11462928D01*
X3039499Y-11813221D01*
X3025147Y-11847869D01*
X3013935Y-11859081D01*
X2989499Y-11918072D01*
X2989499Y-11963220D01*
X2975148Y-11997867D01*
X2959083Y-12013933D01*
X2913935Y-12059081D01*
X2889499Y-12118072D01*
X2889499Y-13213220D01*
X2881929Y-13231496D01*
X2875148Y-13247867D01*
X2859083Y-13263933D01*
X2816348Y-13306668D01*
X2781700Y-13321020D01*
X2747052Y-13306668D01*
X2732700Y-13272020D01*
X2732700Y-12478077D01*
X2732699Y-12478073D01*
X2708265Y-12419084D01*
X2663116Y-12373935D01*
X2514829Y-12225648D01*
X2353118Y-12063936D01*
X2349733Y-12062534D01*
X2294125Y-12039500D01*
X2289666Y-12037653D01*
X2290370Y-12035953D01*
X2265153Y-12019093D01*
X2257847Y-11982309D01*
X2278692Y-11951132D01*
X2287147Y-11946614D01*
X2312616Y-11936065D01*
X2920387Y-11328292D01*
X2955034Y-11313941D01*
X2989682Y-11328293D01*
G37*
%TD.AperFunction*%
%TA.AperFunction,Conductor*%
G36*
X702035Y-11775352D02*
G01*
X707525Y-11782506D01*
X707584Y-11782461D01*
X709537Y-11785007D01*
X709540Y-11785011D01*
X765489Y-11840960D01*
X834011Y-11880521D01*
X869478Y-11890024D01*
X910436Y-11901000D01*
X910438Y-11901000D01*
X989564Y-11901000D01*
X992745Y-11900581D01*
X992886Y-11901656D01*
X1026193Y-11906037D01*
X1036347Y-11913828D01*
X1203448Y-12080929D01*
X1217800Y-12115577D01*
X1217800Y-12125033D01*
X1203448Y-12159681D01*
X1168800Y-12174033D01*
X1137706Y-12161153D01*
X1137060Y-12161996D01*
X1134511Y-12160040D01*
X1065990Y-12120479D01*
X989564Y-12100000D01*
X989562Y-12100000D01*
X910438Y-12100000D01*
X910436Y-12100000D01*
X834010Y-12120479D01*
X834008Y-12120479D01*
X765488Y-12160040D01*
X765488Y-12160041D01*
X709543Y-12215985D01*
X707584Y-12218539D01*
X706723Y-12217878D01*
X680067Y-12238331D01*
X667387Y-12240000D01*
X249000Y-12240000D01*
X214352Y-12225648D01*
X200000Y-12191000D01*
X200000Y-11810915D01*
X206406Y-11795447D01*
X211421Y-11779470D01*
X213468Y-11778400D01*
X214352Y-11776267D01*
X244662Y-11762107D01*
X251769Y-11761475D01*
X254960Y-11761192D01*
X259297Y-11761000D01*
X667387Y-11761000D01*
X702035Y-11775352D01*
G37*
%TD.AperFunction*%
%TA.AperFunction,Conductor*%
G36*
X5059070Y-8673151D02*
G01*
X5894833Y-9508914D01*
X5909185Y-9543562D01*
X5894833Y-9578210D01*
X5860185Y-9592562D01*
X5847503Y-9590892D01*
X5794165Y-9576600D01*
X5794162Y-9576600D01*
X5715038Y-9576600D01*
X5715036Y-9576600D01*
X5638610Y-9597079D01*
X5638608Y-9597079D01*
X5570095Y-9636635D01*
X5570088Y-9636640D01*
X5567605Y-9639124D01*
X5532955Y-9653472D01*
X5498308Y-9639117D01*
X5490524Y-9628971D01*
X5483262Y-9616392D01*
X5483257Y-9616386D01*
X5427311Y-9560440D01*
X5358790Y-9520879D01*
X5282364Y-9500400D01*
X5282362Y-9500400D01*
X5203238Y-9500400D01*
X5203236Y-9500400D01*
X5126810Y-9520879D01*
X5126808Y-9520879D01*
X5058288Y-9560440D01*
X5058288Y-9560441D01*
X5002342Y-9616386D01*
X5000382Y-9618941D01*
X4999196Y-9618030D01*
X4973380Y-9637833D01*
X4960706Y-9639500D01*
X4566660Y-9639500D01*
X4532012Y-9625148D01*
X4525918Y-9617723D01*
X4525770Y-9617502D01*
X4522457Y-9612543D01*
X4490053Y-9590892D01*
X4489212Y-9590330D01*
X4459901Y-9584500D01*
X3940105Y-9584500D01*
X3940104Y-9584500D01*
X3940102Y-9584501D01*
X3910787Y-9590331D01*
X3910786Y-9590331D01*
X3910784Y-9590332D01*
X3910783Y-9590332D01*
X3877543Y-9612542D01*
X3855330Y-9645786D01*
X3855330Y-9645787D01*
X3849500Y-9675095D01*
X3849500Y-9924894D01*
X3849501Y-9924898D01*
X3855331Y-9954213D01*
X3855331Y-9954214D01*
X3855332Y-9954215D01*
X3855332Y-9954216D01*
X3867734Y-9972777D01*
X3875050Y-10009559D01*
X3867735Y-10027221D01*
X3855330Y-10045787D01*
X3849500Y-10075095D01*
X3849500Y-10324894D01*
X3849501Y-10324898D01*
X3855331Y-10354213D01*
X3855331Y-10354214D01*
X3855332Y-10354215D01*
X3855332Y-10354216D01*
X3867734Y-10372777D01*
X3875050Y-10409559D01*
X3867735Y-10427221D01*
X3855330Y-10445787D01*
X3849500Y-10475095D01*
X3849500Y-10724894D01*
X3849501Y-10724898D01*
X3855331Y-10754213D01*
X3855331Y-10754214D01*
X3855332Y-10754215D01*
X3855332Y-10754216D01*
X3874082Y-10782277D01*
X3877543Y-10787457D01*
X3910787Y-10809669D01*
X3940101Y-10815500D01*
X4459898Y-10815499D01*
X4489213Y-10809669D01*
X4522457Y-10787457D01*
X4525918Y-10782277D01*
X4557101Y-10761441D01*
X4566660Y-10760500D01*
X4653623Y-10760500D01*
X4653625Y-10760500D01*
X4712616Y-10736065D01*
X4766029Y-10682651D01*
X4800677Y-10668300D01*
X5313838Y-10668300D01*
X5348486Y-10682652D01*
X5362838Y-10717300D01*
X5348486Y-10751948D01*
X5326521Y-10764630D01*
X5259910Y-10782479D01*
X5259908Y-10782479D01*
X5191388Y-10822040D01*
X5191388Y-10822041D01*
X5135441Y-10877988D01*
X5135440Y-10877988D01*
X5095879Y-10946508D01*
X5095879Y-10946510D01*
X5075400Y-11022936D01*
X5075400Y-11102063D01*
X5095879Y-11178489D01*
X5095879Y-11178491D01*
X5134315Y-11245062D01*
X5135440Y-11247011D01*
X5191389Y-11302960D01*
X5191392Y-11302962D01*
X5193941Y-11304918D01*
X5193279Y-11305780D01*
X5194929Y-11307930D01*
X5201048Y-11310465D01*
X5205941Y-11322279D01*
X5213729Y-11332426D01*
X5215400Y-11345113D01*
X5215400Y-11411123D01*
X5201048Y-11445771D01*
X5171725Y-11475094D01*
X5149758Y-11497061D01*
X5115110Y-11511412D01*
X5080461Y-11497060D01*
X5067781Y-11475098D01*
X5058621Y-11440911D01*
X5057769Y-11439436D01*
X5026347Y-11385011D01*
X5019060Y-11372389D01*
X4963111Y-11316440D01*
X4950578Y-11309204D01*
X4894590Y-11276879D01*
X4818164Y-11256400D01*
X4818162Y-11256400D01*
X4739038Y-11256400D01*
X4739033Y-11256400D01*
X4728010Y-11259353D01*
X4696581Y-11257292D01*
X4653629Y-11239501D01*
X4653626Y-11239500D01*
X4653625Y-11239500D01*
X4653623Y-11239500D01*
X4566660Y-11239500D01*
X4532012Y-11225148D01*
X4525918Y-11217723D01*
X4525770Y-11217502D01*
X4522457Y-11212543D01*
X4500244Y-11197701D01*
X4489212Y-11190330D01*
X4459901Y-11184500D01*
X3940105Y-11184500D01*
X3940104Y-11184500D01*
X3940102Y-11184501D01*
X3910787Y-11190331D01*
X3910786Y-11190331D01*
X3910784Y-11190332D01*
X3910783Y-11190332D01*
X3877543Y-11212542D01*
X3855330Y-11245786D01*
X3855330Y-11245787D01*
X3849500Y-11275095D01*
X3849500Y-11524894D01*
X3849501Y-11524898D01*
X3855331Y-11554213D01*
X3855331Y-11554214D01*
X3855332Y-11554215D01*
X3857179Y-11558675D01*
X3855497Y-11559371D01*
X3861424Y-11589163D01*
X3840588Y-11620346D01*
X3803806Y-11627663D01*
X3788865Y-11622039D01*
X3749790Y-11599479D01*
X3673364Y-11579000D01*
X3673362Y-11579000D01*
X3594238Y-11579000D01*
X3586610Y-11581044D01*
X3568337Y-11585940D01*
X3531155Y-11581044D01*
X3508324Y-11551291D01*
X3513220Y-11514109D01*
X3521004Y-11503964D01*
X3540459Y-11484510D01*
X3580020Y-11415988D01*
X3599011Y-11345113D01*
X3600499Y-11339562D01*
X3600499Y-11260435D01*
X3591043Y-11225148D01*
X3580020Y-11184010D01*
X3580019Y-11184008D01*
X3580019Y-11184007D01*
X3545890Y-11124895D01*
X3540459Y-11115488D01*
X3484510Y-11059539D01*
X3474104Y-11053531D01*
X3415989Y-11019978D01*
X3350259Y-11002365D01*
X3320506Y-10979534D01*
X3315612Y-10942352D01*
X3328294Y-10920387D01*
X3433182Y-10815500D01*
X3614065Y-10634617D01*
X3631235Y-10593164D01*
X3638500Y-10575625D01*
X3638500Y-8707800D01*
X3652852Y-8673152D01*
X3687500Y-8658800D01*
X5024423Y-8658800D01*
X5059070Y-8673151D01*
G37*
%TD.AperFunction*%
%TD*%
M02*
