%TF.GenerationSoftware,KiCad,Pcbnew,10.0.4*%
%TF.CreationDate,2026-09-23T17:47:45+08:00*%
%TF.ProjectId,am213-fpc-adapter,616d3231-332d-4667-9063-2d6164617074,rev?*%
%TF.SameCoordinates,Original*%
%TF.FileFunction,Legend,Top*%
%TF.FilePolarity,Positive*%
%FSLAX46Y46*%
G04 Gerber Fmt 4.6, Leading zero omitted, Abs format (unit mm)*
G04 Created by KiCad (PCBNEW 10.0.4) date 2026-09-23 17:47:45*
%MOMM*%
%LPD*%
G01*
G04 APERTURE LIST*
G04 Aperture macros list*
%AMRoundRect*
0 Rectangle with rounded corners*
0 $1 Rounding radius*
0 $2 $3 $4 $5 $6 $7 $8 $9 X,Y pos of 4 corners*
0 Add a 4 corners polygon primitive as box body*
4,1,4,$2,$3,$4,$5,$6,$7,$8,$9,$2,$3,0*
0 Add four circle primitives for the rounded corners*
1,1,$1+$1,$2,$3*
1,1,$1+$1,$4,$5*
1,1,$1+$1,$6,$7*
1,1,$1+$1,$8,$9*
0 Add four rect primitives between the rounded corners*
20,1,$1+$1,$2,$3,$4,$5,0*
20,1,$1+$1,$4,$5,$6,$7,0*
20,1,$1+$1,$6,$7,$8,$9,0*
20,1,$1+$1,$8,$9,$2,$3,0*%
G04 Aperture macros list end*
%ADD10C,0.100000*%
%ADD11C,0.120000*%
%ADD12C,0.200000*%
%ADD13RoundRect,0.140000X0.170000X-0.140000X0.170000X0.140000X-0.170000X0.140000X-0.170000X-0.140000X0*%
%ADD14RoundRect,0.135000X-0.135000X-0.185000X0.135000X-0.185000X0.135000X0.185000X-0.135000X0.185000X0*%
%ADD15RoundRect,0.225000X0.250000X-0.225000X0.250000X0.225000X-0.250000X0.225000X-0.250000X-0.225000X0*%
%ADD16RoundRect,0.135000X0.185000X-0.135000X0.185000X0.135000X-0.185000X0.135000X-0.185000X-0.135000X0*%
%ADD17RoundRect,0.025000X-1.100000X-0.100000X1.100000X-0.100000X1.100000X0.100000X-1.100000X0.100000X0*%
%ADD18RoundRect,0.025000X-0.350000X-0.350000X0.350000X-0.350000X0.350000X0.350000X-0.350000X0.350000X0*%
%ADD19RoundRect,0.025000X-0.250000X-0.115000X0.250000X-0.115000X0.250000X0.115000X-0.250000X0.115000X0*%
%ADD20RoundRect,0.025000X-0.400000X-0.300000X0.400000X-0.300000X0.400000X0.300000X-0.400000X0.300000X0*%
G04 APERTURE END LIST*
D10*
X-66471428Y-15365395D02*
X-66928571Y-15365395D01*
X-66699999Y-15365395D02*
X-66699999Y-14565395D01*
X-66699999Y-14565395D02*
X-66776190Y-14679680D01*
X-66776190Y-14679680D02*
X-66852380Y-14755871D01*
X-66852380Y-14755871D02*
X-66928571Y-14793966D01*
X4576189Y-1636323D02*
X4957142Y-1636323D01*
X4499999Y-1864895D02*
X4766666Y-1064895D01*
X4766666Y-1064895D02*
X5033332Y-1864895D01*
X5299999Y-1864895D02*
X5299999Y-1064895D01*
X5299999Y-1064895D02*
X5566665Y-1636323D01*
X5566665Y-1636323D02*
X5833332Y-1064895D01*
X5833332Y-1064895D02*
X5833332Y-1864895D01*
X6176189Y-1141085D02*
X6214285Y-1102990D01*
X6214285Y-1102990D02*
X6290475Y-1064895D01*
X6290475Y-1064895D02*
X6480951Y-1064895D01*
X6480951Y-1064895D02*
X6557142Y-1102990D01*
X6557142Y-1102990D02*
X6595237Y-1141085D01*
X6595237Y-1141085D02*
X6633332Y-1217276D01*
X6633332Y-1217276D02*
X6633332Y-1293466D01*
X6633332Y-1293466D02*
X6595237Y-1407752D01*
X6595237Y-1407752D02*
X6138094Y-1864895D01*
X6138094Y-1864895D02*
X6633332Y-1864895D01*
X7395237Y-1864895D02*
X6938094Y-1864895D01*
X7166666Y-1864895D02*
X7166666Y-1064895D01*
X7166666Y-1064895D02*
X7090475Y-1179180D01*
X7090475Y-1179180D02*
X7014285Y-1255371D01*
X7014285Y-1255371D02*
X6938094Y-1293466D01*
X7661904Y-1064895D02*
X8157142Y-1064895D01*
X8157142Y-1064895D02*
X7890476Y-1369657D01*
X7890476Y-1369657D02*
X8004761Y-1369657D01*
X8004761Y-1369657D02*
X8080952Y-1407752D01*
X8080952Y-1407752D02*
X8119047Y-1445847D01*
X8119047Y-1445847D02*
X8157142Y-1522038D01*
X8157142Y-1522038D02*
X8157142Y-1712514D01*
X8157142Y-1712514D02*
X8119047Y-1788704D01*
X8119047Y-1788704D02*
X8080952Y-1826800D01*
X8080952Y-1826800D02*
X8004761Y-1864895D01*
X8004761Y-1864895D02*
X7776190Y-1864895D01*
X7776190Y-1864895D02*
X7699999Y-1826800D01*
X7699999Y-1826800D02*
X7661904Y-1788704D01*
X9680952Y-1026800D02*
X8995238Y-2055371D01*
X10480952Y-1064895D02*
X10976190Y-1064895D01*
X10976190Y-1064895D02*
X10709524Y-1369657D01*
X10709524Y-1369657D02*
X10823809Y-1369657D01*
X10823809Y-1369657D02*
X10900000Y-1407752D01*
X10900000Y-1407752D02*
X10938095Y-1445847D01*
X10938095Y-1445847D02*
X10976190Y-1522038D01*
X10976190Y-1522038D02*
X10976190Y-1712514D01*
X10976190Y-1712514D02*
X10938095Y-1788704D01*
X10938095Y-1788704D02*
X10900000Y-1826800D01*
X10900000Y-1826800D02*
X10823809Y-1864895D01*
X10823809Y-1864895D02*
X10595238Y-1864895D01*
X10595238Y-1864895D02*
X10519047Y-1826800D01*
X10519047Y-1826800D02*
X10480952Y-1788704D01*
X11204762Y-1064895D02*
X11471429Y-1864895D01*
X11471429Y-1864895D02*
X11738095Y-1064895D01*
X11928571Y-1064895D02*
X12423809Y-1064895D01*
X12423809Y-1064895D02*
X12157143Y-1369657D01*
X12157143Y-1369657D02*
X12271428Y-1369657D01*
X12271428Y-1369657D02*
X12347619Y-1407752D01*
X12347619Y-1407752D02*
X12385714Y-1445847D01*
X12385714Y-1445847D02*
X12423809Y-1522038D01*
X12423809Y-1522038D02*
X12423809Y-1712514D01*
X12423809Y-1712514D02*
X12385714Y-1788704D01*
X12385714Y-1788704D02*
X12347619Y-1826800D01*
X12347619Y-1826800D02*
X12271428Y-1864895D01*
X12271428Y-1864895D02*
X12042857Y-1864895D01*
X12042857Y-1864895D02*
X11966666Y-1826800D01*
X11966666Y-1826800D02*
X11928571Y-1788704D01*
D11*
X6490476Y-5063855D02*
X6947619Y-5063855D01*
X6719047Y-5863855D02*
X6719047Y-5063855D01*
X7214286Y-5863855D02*
X7214286Y-5063855D01*
X7214286Y-5063855D02*
X7519048Y-5063855D01*
X7519048Y-5063855D02*
X7595238Y-5101950D01*
X7595238Y-5101950D02*
X7633333Y-5140045D01*
X7633333Y-5140045D02*
X7671429Y-5216236D01*
X7671429Y-5216236D02*
X7671429Y-5330521D01*
X7671429Y-5330521D02*
X7633333Y-5406712D01*
X7633333Y-5406712D02*
X7595238Y-5444807D01*
X7595238Y-5444807D02*
X7519048Y-5482902D01*
X7519048Y-5482902D02*
X7214286Y-5482902D01*
X8433333Y-5863855D02*
X7976190Y-5863855D01*
X8204762Y-5863855D02*
X8204762Y-5063855D01*
X8204762Y-5063855D02*
X8128571Y-5178140D01*
X8128571Y-5178140D02*
X8052381Y-5254331D01*
X8052381Y-5254331D02*
X7976190Y-5292426D01*
X2233333Y-6563855D02*
X2233333Y-7135283D01*
X2233333Y-7135283D02*
X2195238Y-7249569D01*
X2195238Y-7249569D02*
X2119047Y-7325760D01*
X2119047Y-7325760D02*
X2004762Y-7363855D01*
X2004762Y-7363855D02*
X1928571Y-7363855D01*
X2576190Y-6640045D02*
X2614286Y-6601950D01*
X2614286Y-6601950D02*
X2690476Y-6563855D01*
X2690476Y-6563855D02*
X2880952Y-6563855D01*
X2880952Y-6563855D02*
X2957143Y-6601950D01*
X2957143Y-6601950D02*
X2995238Y-6640045D01*
X2995238Y-6640045D02*
X3033333Y-6716236D01*
X3033333Y-6716236D02*
X3033333Y-6792426D01*
X3033333Y-6792426D02*
X2995238Y-6906712D01*
X2995238Y-6906712D02*
X2538095Y-7363855D01*
X2538095Y-7363855D02*
X3033333Y-7363855D01*
%TO.C,C3*%
X8640000Y-19407836D02*
X8640000Y-19192164D01*
X9360000Y-19407836D02*
X9360000Y-19192164D01*
%TO.C,R2*%
X6846359Y-6620000D02*
X7153641Y-6620000D01*
X6846359Y-7380000D02*
X7153641Y-7380000D01*
%TO.C,R1*%
X6846359Y-8620000D02*
X7153641Y-8620000D01*
X6846359Y-9380000D02*
X7153641Y-9380000D01*
%TO.C,C1*%
X2640000Y-19607836D02*
X2640000Y-19392164D01*
X3360000Y-19607836D02*
X3360000Y-19392164D01*
%TO.C,C4*%
X11640000Y-20607836D02*
X11640000Y-20392164D01*
X12360000Y-20607836D02*
X12360000Y-20392164D01*
%TO.C,R6*%
X6846359Y-14620000D02*
X7153641Y-14620000D01*
X6846359Y-15380000D02*
X7153641Y-15380000D01*
%TO.C,C2*%
X990000Y-19440580D02*
X990000Y-19159420D01*
X2010000Y-19440580D02*
X2010000Y-19159420D01*
%TO.C,R11*%
X12620000Y-14153641D02*
X12620000Y-13846359D01*
X13380000Y-14153641D02*
X13380000Y-13846359D01*
%TO.C,R8*%
X5846359Y-20420000D02*
X6153641Y-20420000D01*
X5846359Y-21180000D02*
X6153641Y-21180000D01*
%TO.C,R4*%
X6846359Y-10620000D02*
X7153641Y-10620000D01*
X6846359Y-11380000D02*
X7153641Y-11380000D01*
%TO.C,R5*%
X6846359Y-16620000D02*
X7153641Y-16620000D01*
X6846359Y-17380000D02*
X7153641Y-17380000D01*
%TO.C,R7*%
X5846359Y-18920000D02*
X6153641Y-18920000D01*
X5846359Y-19680000D02*
X6153641Y-19680000D01*
%TO.C,R9*%
X5846359Y-3620000D02*
X6153641Y-3620000D01*
X5846359Y-4380000D02*
X6153641Y-4380000D01*
%TO.C,J2*%
D12*
X1450000Y-9400000D02*
G75*
G02*
X1250000Y-9400000I-100000J0D01*
G01*
X1250000Y-9400000D02*
G75*
G02*
X1450000Y-9400000I100000J0D01*
G01*
%TO.C,R3*%
D11*
X6846359Y-12620000D02*
X7153641Y-12620000D01*
X6846359Y-13380000D02*
X7153641Y-13380000D01*
%TO.C,R10*%
X10620000Y-14153641D02*
X10620000Y-13846359D01*
X11380000Y-14153641D02*
X11380000Y-13846359D01*
%TD*%
%LPC*%
D13*
%TO.C,C3*%
X9000000Y-19780000D03*
X9000000Y-18820000D03*
%TD*%
D14*
%TO.C,R2*%
X6490000Y-7000000D03*
X7510000Y-7000000D03*
%TD*%
%TO.C,R1*%
X6490000Y-9000000D03*
X7510000Y-9000000D03*
%TD*%
D13*
%TO.C,C1*%
X3000000Y-19980000D03*
X3000000Y-19020000D03*
%TD*%
%TO.C,C4*%
X12000000Y-20980000D03*
X12000000Y-20020000D03*
%TD*%
D14*
%TO.C,R6*%
X6490000Y-15000000D03*
X7510000Y-15000000D03*
%TD*%
D15*
%TO.C,C2*%
X1500000Y-20075000D03*
X1500000Y-18525000D03*
%TD*%
D16*
%TO.C,R11*%
X13000000Y-14510000D03*
X13000000Y-13490000D03*
%TD*%
D14*
%TO.C,R8*%
X5490000Y-20800000D03*
X6510000Y-20800000D03*
%TD*%
%TO.C,R4*%
X6490000Y-11000000D03*
X7510000Y-11000000D03*
%TD*%
%TO.C,R5*%
X6490000Y-17000000D03*
X7510000Y-17000000D03*
%TD*%
%TO.C,R7*%
X5490000Y-19300000D03*
X6510000Y-19300000D03*
%TD*%
D17*
%TO.C,J1*%
X-68600000Y-15400500D03*
X-68600000Y-15100500D03*
X-68600000Y-14800500D03*
X-68600000Y-14500500D03*
X-68600000Y-14200500D03*
X-68600000Y-13900500D03*
X-68600000Y-13600500D03*
X-68600000Y-13300500D03*
X-68600000Y-13000500D03*
X-68600000Y-12700500D03*
X-68600000Y-12400500D03*
X-68600000Y-12100500D03*
X-68600000Y-11800500D03*
X-68600000Y-11500500D03*
X-68600000Y-11200500D03*
X-68600000Y-10900500D03*
X-68600000Y-10600500D03*
X-68600000Y-10300500D03*
X-68600000Y-10000500D03*
X-68600000Y-9700500D03*
X-68600000Y-9400500D03*
%TD*%
D18*
%TO.C,TP1*%
X6000000Y-5500000D03*
%TD*%
D14*
%TO.C,R9*%
X5490000Y-4000000D03*
X6510000Y-4000000D03*
%TD*%
D19*
%TO.C,J2*%
X1800000Y-9800000D03*
X1800000Y-10200000D03*
X1800000Y-10600000D03*
X1800000Y-11000000D03*
X1800000Y-11400000D03*
X1800000Y-11800000D03*
X1800000Y-12200000D03*
X1800000Y-12600000D03*
X1800000Y-13000000D03*
X1800000Y-13400000D03*
X1800000Y-13800000D03*
X1800000Y-14200000D03*
X4200000Y-14200000D03*
X4200000Y-13800000D03*
X4200000Y-13400000D03*
X4200000Y-13000000D03*
X4200000Y-12600000D03*
X4200000Y-12200000D03*
X4200000Y-11800000D03*
X4200000Y-11400000D03*
X4200000Y-11000000D03*
X4200000Y-10600000D03*
X4200000Y-10200000D03*
X4200000Y-9800000D03*
D20*
X1950000Y-8970000D03*
X1950000Y-15030000D03*
X4050000Y-8970000D03*
X4050000Y-15030000D03*
%TD*%
D14*
%TO.C,R3*%
X6490000Y-13000000D03*
X7510000Y-13000000D03*
%TD*%
D16*
%TO.C,R10*%
X11000000Y-14510000D03*
X11000000Y-13490000D03*
%TD*%
%LPD*%
M02*
