%TF.GenerationSoftware,KiCad,Pcbnew,10.0.4*%
%TF.CreationDate,2026-09-23T17:47:45+08:00*%
%TF.ProjectId,am213-fpc-adapter,616d3231-332d-4667-9063-2d6164617074,rev?*%
%TF.SameCoordinates,Original*%
%TF.FileFunction,Soldermask,Top*%
%TF.FilePolarity,Negative*%
%FSLAX46Y46*%
G04 Gerber Fmt 4.6, Leading zero omitted, Abs format (unit mm)*
G04 Created by KiCad (PCBNEW 10.0.4) date 2026-09-23 17:47:45*
%MOMM*%
%LPD*%
G01*
G04 APERTURE LIST*
G04 Aperture macros list*
%AMRoundRect*
0 Rectangle with rounded corners*
0 $1 Rounding radius*
0 $2 $3 $4 $5 $6 $7 $8 $9 X,Y pos of 4 corners*
0 Add a 4 corners polygon primitive as box body*
4,1,4,$2,$3,$4,$5,$6,$7,$8,$9,$2,$3,0*
0 Add four circle primitives for the rounded corners*
1,1,$1+$1,$2,$3*
1,1,$1+$1,$4,$5*
1,1,$1+$1,$6,$7*
1,1,$1+$1,$8,$9*
0 Add four rect primitives between the rounded corners*
20,1,$1+$1,$2,$3,$4,$5,0*
20,1,$1+$1,$4,$5,$6,$7,0*
20,1,$1+$1,$6,$7,$8,$9,0*
20,1,$1+$1,$8,$9,$2,$3,0*%
G04 Aperture macros list end*
%ADD10RoundRect,0.140000X0.170000X-0.140000X0.170000X0.140000X-0.170000X0.140000X-0.170000X-0.140000X0*%
%ADD11RoundRect,0.135000X-0.135000X-0.185000X0.135000X-0.185000X0.135000X0.185000X-0.135000X0.185000X0*%
%ADD12RoundRect,0.225000X0.250000X-0.225000X0.250000X0.225000X-0.250000X0.225000X-0.250000X-0.225000X0*%
%ADD13RoundRect,0.135000X0.185000X-0.135000X0.185000X0.135000X-0.185000X0.135000X-0.185000X-0.135000X0*%
%ADD14RoundRect,0.025000X-1.100000X-0.100000X1.100000X-0.100000X1.100000X0.100000X-1.100000X0.100000X0*%
%ADD15RoundRect,0.025000X-0.350000X-0.350000X0.350000X-0.350000X0.350000X0.350000X-0.350000X0.350000X0*%
%ADD16RoundRect,0.025000X-0.250000X-0.115000X0.250000X-0.115000X0.250000X0.115000X-0.250000X0.115000X0*%
%ADD17RoundRect,0.025000X-0.400000X-0.300000X0.400000X-0.300000X0.400000X0.300000X-0.400000X0.300000X0*%
G04 APERTURE END LIST*
D10*
%TO.C,C3*%
X9000000Y-19780000D03*
X9000000Y-18820000D03*
%TD*%
D11*
%TO.C,R2*%
X6490000Y-7000000D03*
X7510000Y-7000000D03*
%TD*%
%TO.C,R1*%
X6490000Y-9000000D03*
X7510000Y-9000000D03*
%TD*%
D10*
%TO.C,C1*%
X3000000Y-19980000D03*
X3000000Y-19020000D03*
%TD*%
%TO.C,C4*%
X12000000Y-20980000D03*
X12000000Y-20020000D03*
%TD*%
D11*
%TO.C,R6*%
X6490000Y-15000000D03*
X7510000Y-15000000D03*
%TD*%
D12*
%TO.C,C2*%
X1500000Y-20075000D03*
X1500000Y-18525000D03*
%TD*%
D13*
%TO.C,R11*%
X13000000Y-14510000D03*
X13000000Y-13490000D03*
%TD*%
D11*
%TO.C,R8*%
X5490000Y-20800000D03*
X6510000Y-20800000D03*
%TD*%
%TO.C,R4*%
X6490000Y-11000000D03*
X7510000Y-11000000D03*
%TD*%
%TO.C,R5*%
X6490000Y-17000000D03*
X7510000Y-17000000D03*
%TD*%
%TO.C,R7*%
X5490000Y-19300000D03*
X6510000Y-19300000D03*
%TD*%
D14*
%TO.C,J1*%
X-68600000Y-15400500D03*
X-68600000Y-15100500D03*
X-68600000Y-14800500D03*
X-68600000Y-14500500D03*
X-68600000Y-14200500D03*
X-68600000Y-13900500D03*
X-68600000Y-13600500D03*
X-68600000Y-13300500D03*
X-68600000Y-13000500D03*
X-68600000Y-12700500D03*
X-68600000Y-12400500D03*
X-68600000Y-12100500D03*
X-68600000Y-11800500D03*
X-68600000Y-11500500D03*
X-68600000Y-11200500D03*
X-68600000Y-10900500D03*
X-68600000Y-10600500D03*
X-68600000Y-10300500D03*
X-68600000Y-10000500D03*
X-68600000Y-9700500D03*
X-68600000Y-9400500D03*
%TD*%
D15*
%TO.C,TP1*%
X6000000Y-5500000D03*
%TD*%
D11*
%TO.C,R9*%
X5490000Y-4000000D03*
X6510000Y-4000000D03*
%TD*%
D16*
%TO.C,J2*%
X1800000Y-9800000D03*
X1800000Y-10200000D03*
X1800000Y-10600000D03*
X1800000Y-11000000D03*
X1800000Y-11400000D03*
X1800000Y-11800000D03*
X1800000Y-12200000D03*
X1800000Y-12600000D03*
X1800000Y-13000000D03*
X1800000Y-13400000D03*
X1800000Y-13800000D03*
X1800000Y-14200000D03*
X4200000Y-14200000D03*
X4200000Y-13800000D03*
X4200000Y-13400000D03*
X4200000Y-13000000D03*
X4200000Y-12600000D03*
X4200000Y-12200000D03*
X4200000Y-11800000D03*
X4200000Y-11400000D03*
X4200000Y-11000000D03*
X4200000Y-10600000D03*
X4200000Y-10200000D03*
X4200000Y-9800000D03*
D17*
X1950000Y-8970000D03*
X1950000Y-15030000D03*
X4050000Y-8970000D03*
X4050000Y-15030000D03*
%TD*%
D11*
%TO.C,R3*%
X6490000Y-13000000D03*
X7510000Y-13000000D03*
%TD*%
D13*
%TO.C,R10*%
X11000000Y-14510000D03*
X11000000Y-13490000D03*
%TD*%
M02*
